<svg class="feathers" xmlns="http://www.w3.org/2000/svg" viewBox="0 0 71.7 212">   <g fill="#F2E7BF">     <path d="M14.6 195.5c-.6 1.2-.3 1.9.7 2.3.3-1 .4-1.7-.7-2.3m3.3-12.1c-.7 1.2-.4 2.2 0 3.2.5-1 .9-2 0-3.2m-3.7 4.8c1.1-1.3 1.1-2.2.4-3.2-1.6.9-1.8 1.7-.4 3.2m-9.4-55.7c-1.6 1.3-1.8 2.4-1.2 4 1.5-1 1.5-2.2 1.2-4m7.8 47.7c3.1-.7 2.8-2.4 2-4.7-2.2.9-2.6 2.3-2 4.7m5.2-5.8c-.3 1.6-.9 3.1-.1 5 3.4-1.7 1.5-3.4.1-5m-6.7-2.9c1.2-1.5 4.1-1.9 3.3-4.9-3 .5-3 2.8-3.3 4.9M21 156c-.5-2.5-2.2-3.6-4.7-4.9.2 3.7 2.8 3.9 4.7 4.9m-7.9-9.2c-1.9 2.3-3.2 4.3-3.5 6.8.1-2.7 5.7-2.2 3.5-6.8m9-12.2c-.5-2.6-.6-4.7-2.8-5.7-1-.4-2.3-.4-2.5 1.5 1.2 1.6 2.9 2.9 5.3 4.2m-5.9 8.6c0 2.9 3.5 6.3 7.5 7.4-2.2-3-4.3-5.6-7.5-7.4m4.9 22.6c.9-3.1-.5-5.3-4.5-6.9.2 1.6.3 3.1.5 4.9 1.8-.2 2.3 1.9 4 2m-7.7-9.2c-4.2 3.6-4.5 4.4-3.8 8.2 5.4-6.1 5.4-4.8 3.8-8.2m2.8-22c-.2 3.8 2.9 7.1 6.8 7.7-.9-3.5-3.6-5.5-6.8-7.7m-9.8 18.6c1.8-7 7.4-12.4 6.9-20.1-3.9.5-6.5 3.1-5.7 6.2.4 1.6-.2 2.5-.8 3.8-1.4 3.1-3.3 6.3-.4 10.1m6.4-26.2c1.1-7.3-2.1-14.4-.3-21.6.2-.7 1.1-1.2 2.1-1.3 1.7 1 1.7 2.2 1.3 4.2-1 5.3-1 10.7-.5 16 7.9 1.4 7.7 1.4 10.3 9.1 3 8.7.6 17.2-.2 25.7-.8 7.8-2.4 15.4-3.3 23.2-.7 6.1-2.4 12.2-3.8 18.3-.9 3.7.2 7.9-2.3 11.3-1.1.1-1.6-.7-1.6-1.5.4-8-3-15.4-4.1-23.2-2.1-15.3-7.1-30.1-9.7-45.4-.3-1.8-.5-3.6-.6-5.4-.3-6.3 1.9-8.5 8.2-8.6 1.4.1 2.7-.1 4.5-.8M45.8 59.9c-1.5-3.3-1.5-3.4-4.1-3.6.2 2.5 2.7 2.5 4.1 3.6m.8 17.2c-1.2-2.3-2.2-4.8-4.7-6.6.1 3.6.7 4.5 4.7 6.6m-4.7 2.7c0 2.7-.2 4.7.7 6.6 3.8-.8 3.8-1.5-.7-6.6m6.6-10.3c-1-3.3-3.5-5.4-6.5-7.6-.3 4.5-.3 4.5 6.5 7.6M39 72.9c-.2-2.2 0-3.9-.8-5.7-5 4.5-5 4.5-3.3 7.9.9-1.4 2.3-1.9 4.1-2.2m11.8-20c-2.2-1.2-4.4-2.1-7.1-1.4 2.4 3.2 3.6 4 7 4.9.9-1.2.4-2.3.1-3.5M33 67.5c1-4.3 7-6.6 5.2-12.8-3.2 4.2-6.7 7.4-5.2 12.8m6 10.3c-4 2.8-4.3 3.7-1.6 5.9 1.3 1.1 1.4 2.3 1 3.3-2.2 4.5.3 8.4.8 12.5.3 0 .6 0 .8-.1-.3-6.9-.6-13.9-1-21.6m-.6 42.3c0-3.9-.2-7.5-.6-11.2-1.9-15.2-6-29.8-9.5-44.7-.6-2.5-.9-4.9-.7-7.5.1-2.7 1.2-4.7 3.9-5.9 2.5-1.1 4.7-2.9 7-4.3 1.1-8.5-.8-16.9 0-24.8 1.5-1.2 2.5-1.1 3.8-.1-1.4 7.8-.6 15.8-.5 23.7 2 2.3 4.6 1.7 6.8 2.1 6.4 1.2 7.6 2.7 6.3 9.1-1.6 7.9-3.7 15.8-5.1 23.7-1.3 7.6-4.1 14.8-5.7 22.3-1.1 5.1-.5 10-.4 15v3.4c-1.8-2.1-3.4-.9-5.3-.8M60 176.2c.5-2.3.7-3.6-.1-5.1-1 1.6-.6 2.9.1 5.1m5.2-40.7c0-2.5-1.4-3.4-2.7-4.6-1 2.6 1 3.1 2.7 4.6M62.8 151c-.8 3.2 2.1 3.3 3.1 4.7-.3-1.9-.9-3.7-3.1-4.7m.7 22.8c-.6 1.9-.8 3.8-.2 5.9.8-2.1 1.6-3.9.2-5.9m-3.9-13.4c-1.7 1.9-3.1 3.3-.8 5.5 2.2-1.7 1.6-3.3.8-5.5m4.8-33.6c.4 1.6 1.4 2.8 3.4 3.6.3-1.7.7-3.2-.5-4.4-1.2-1.1-2-.2-2.9.8m-1.1 42.5c3.3-3 2.9-7.2-.5-9.6 0 3.2-.4 6.2.5 9.6m-6.9-11.7c4.4-4.2 4.4-4.2 2.4-8.3-1.9 1-2.3 3.3-3.9 4.3.3 1.6.1 3.1 1.5 4m10.1-9.6c1.4-3.7.4-5.8-4.1-9.4-.5 1.9-.2 3.6-.2 5.3 1.5 1.4 2.9 2.7 4.3 4.1m-12.6-5.9c-1.1-2.9.6-4.7 1.6-6.7 1-2.1 3.7-3.1 4-5.7-2-1.4-2-1.4-4.4-1.8-4.8 7.2-4.9 12.7-.5 20.7 3-3.3 6.9-6.3 4.6-11.8-2.8.7-2.8 4.1-5.3 5.3M61.5 98c2.7 1.2 2.2 3.1 1.8 4.9-1.4 6.1-1.2 12.2-1.1 18.2 1.2 1 2.3.4 3.4.3 4.4-.5 5.4.2 5.9 4.7.6 5.5 0 11-.7 16.3-.9 6.5-1.6 13-2.1 19.6-1 13.6-3.6 27-3.8 40.7 0 1.9.4 4.2-1.4 5.6-1-.4-1.3-.8-1.2-1.4.8-9.4-3.3-18-4.7-27.1-2.4-15.6-6.6-30.9-10.3-46.2-.4-1.8-.5-3.6-.6-5.4-.3-4.6 2.3-6.6 6.9-5 1.8.6 3.6 1.5 6 .4.3-6 .4-12.1-.5-18.2-.5-2.9.1-5.2 2.4-7.4M41.4 2.1c-.7 2.6-2.2 3.5-4.3 2.3-1.6-.8-1.2-2.4-.1-3.5 1.8-1.8 3.1-.7 4.4 1.2M42.8 10.2c-.4 2.8-.4 2.8-2.7 4.4-2.6-1.7-2.1-3.6-.6-5.7 1.3-.1 2.3.4 3.3 1.3M37.9 129.8c.3-2 1.3-2.7 2.8-3.1 2 .9 2.7 2.6 1.4 4.2-1.6 1.9-3.1.6-4.2-1.1M40.5 141.3c-1.6-.2-2.2-1.2-2.1-2.6.2-1.6 1-2.5 2.8-2.4 1.3.1 2.2.7 2.1 2 .1 1.8-1.1 2.7-2.8 3M62.4 85.1c-2.5-1-3.4-2.4-2.1-4.4 1-1.5 2.5-1.3 3.5-.1 1.7 2.1.3 3.3-1.4 4.5M13.1 89.3c1.9.9 1.9 2.2.9 3.7-.6.9-1.5 1.2-2.5.9-1.1-.3-1.6-1-1.5-2.1.2-1.9 1.5-2.4 3.1-2.5M61.7 88.3c1.8 1.2 2.9 2.4 2 4.5-1.7 1-3 .5-3.7-1.2-.7-1.4-.1-2.6 1.7-3.3M13.4 101c-2.3-2.2-2-3.7.4-5.2 2.1 1.8 2.6 3.5-.4 5.2"></path>   </g> </svg>