<?xml version="1.0" standalone="no"?>
<!DOCTYPE svg PUBLIC "-//W3C//DTD SVG 1.1//EN" "http://www.w3.org/Graphics/SVG/1.1/DTD/svg11.dtd" >
<svg xmlns="http://www.w3.org/2000/svg" xmlns:xlink="http://www.w3.org/1999/xlink" version="1.1">
<metadata>
Created by FontForge 20170731 at Mon Jul 24 17:52:05 2006
 By Aleksey,,,
Copyright (c) 2001-2005 Peter Bilak (www.typotheque.com). All rights reserved.
</metadata>
<defs>
<font id="FedraSansStd-Book" horiz-adv-x="600" >
  <font-face 
    font-family="Fedra Sans Std Book"
    font-weight="350"
    font-stretch="normal"
    units-per-em="1000"
    panose-1="2 11 5 4 4 0 0 2 0 4"
    ascent="780"
    descent="-220"
    x-height="546"
    cap-height="707"
    bbox="-216 -284 1347 957"
    underline-thickness="50"
    underline-position="-200"
    unicode-range="U+0020-FE69"
  />
<missing-glyph horiz-adv-x="712" 
d="M305 375v27h27v-27h-27zM380 525v27h27v-27h-27zM305 525v27h27v-27h-27zM230 525v27h27v-27h-27zM80 0v27h27v-27h-27zM155 0v27h27v-27h-27zM230 0v27h27v-27h-27zM305 0v27h27v-27h-27zM380 0v27h27v-27h-27zM80 75v27h27v-27h-27zM80 150v27h27v-27h-27zM80 225v27
h27v-27h-27zM80 300v27h27v-27h-27zM80 375v27h27v-27h-27zM80 450v27h27v-27h-27zM80 525v27h27v-27h-27zM80 600v27h27v-27h-27zM80 675v27h27v-27h-27zM155 675v27h27v-27h-27zM230 675v27h27v-27h-27zM305 675v27h27v-27h-27zM380 675v27h27v-27h-27zM455 675v27h27v-27
h-27zM530 675v27h27v-27h-27zM530 0v27h27v-27h-27zM455 0v27h27v-27h-27zM605 0v27h27v-27h-27zM605 675v27h27v-27h-27zM305 300v27h27v-27h-27zM305 150v27h27v-27h-27zM380 375v27h27v-27h-27zM455 375v27h27v-27h-27zM455 450v27h27v-27h-27zM455 525v27h27v-27h-27z
M605 600v27h27v-27h-27zM605 525v27h27v-27h-27zM605 375v27h27v-27h-27zM605 300v27h27v-27h-27zM605 150v27h27v-27h-27zM605 75v27h27v-27h-27zM605 225v27h27v-27h-27zM605 450v27h27v-27h-27z" />
    <glyph glyph-name="f_f" unicode="ff" horiz-adv-x="670" 
d="M97 -213v695h-80v64h80v49q0 182 222 182q83 0 177 -37q42 37 138 37q24 0 68.5 -7.5t57.5 -12.5l-15 -63q-62 13 -105 13q-123 0 -123 -112v-49h118v-64h-118v-695h-77v695h-264v-695h-79zM176 546h264v50q0 56 16 86q-71 25 -153 25q-63 0 -95 -26.5t-32 -85.5v-49z
" />
    <glyph glyph-name="fi" unicode="fi" horiz-adv-x="617" 
d="M97 -213v695h-80v64h80v35q0 111 49 153t136 42q19 0 71 -3t78 -3q27 0 67 4l12 -61q-39 -13 -104 -13q-24 1 -67 4t-59 3q-58 0 -81 -31t-23 -96v-34h343v-546h-80v482h-264v-695h-78z" />
    <glyph glyph-name="fl" unicode="fl" horiz-adv-x="617" 
d="M97 -214v696h-80v64h80v33q0 104 50.5 150t134.5 46q19 0 70.5 -3.5t78.5 -4.5q28 0 88 6v-773h-80v700q-29 -2 -83 2.5t-76 4.5q-57 0 -80.5 -32t-23.5 -91v-38h118v-64h-119v-696h-78z" />
    <glyph glyph-name="f_f_i" unicode="ffi" horiz-adv-x="959" 
d="M97 -213v695h-80v64h80v49q0 182 208 182q97 0 192 -38q49 38 126 38q17 0 69 -3t81 -3q9 0 66 3l12 -60q-35 -13 -103 -13q-25 0 -68.5 3t-58.5 3q-58 0 -80.5 -34t-22.5 -100v-27h342v-546h-79v482h-263v-695h-78v695h-263v-695h-80zM177 546h262v28q0 67 18 109
q-82 24 -154 24q-63 0 -94.5 -26.5t-31.5 -85.5v-49z" />
    <glyph glyph-name="f_f_l" unicode="ffl" horiz-adv-x="948" 
d="M97 -214v696h-80v64h80v49q0 182 222 182q76 0 177 -38q45 38 125 38q17 0 69.5 -4.5t80.5 -4.5q15 0 44.5 2.5t33.5 2.5v-773h-80v701q-26 -1 -75.5 2.5t-72.5 3.5q-59 0 -81.5 -33t-22.5 -99v-29h116v-64h-116v-696h-79v696h-261v-696h-80zM177 546h261v28q0 66 18 108
q-77 25 -153 25q-63 0 -94.5 -26.5t-31.5 -85.5v-49z" />
    <glyph glyph-name="f_h" unicode="fh" horiz-adv-x="978" 
d="M97 -213v695h-80v64h80v28q0 111 49 157t134 46q18 0 70 -4.5t81 -4.5q14 0 49.5 2.5t37.5 2.5v-286q4 2 25.5 17t32.5 21t33 16t46 14.5t52 4.5q47 0 80 -13.5t50.5 -32t27.5 -49.5t12 -55t2 -58v-352h-79v337q0 75 -22 114t-90 39q-56 0 -170 -71v-419h-79v701
q-29 -1 -82.5 2.5t-76.5 3.5q-58 0 -81 -34t-23 -100v-27h116v-64h-117v-695h-78z" />
    <glyph glyph-name="f_b" unicode="fb" horiz-adv-x="943" 
d="M629 -9q-28 0 -54 1.5t-42.5 3.5t-34 6t-25 6t-19.5 6t-14 4v682q-30 -2 -84 2.5t-76 4.5q-57 0 -80.5 -32t-23.5 -91v-38h118v-64h-119v-696h-78v696h-80v64h80v33q0 104 50.5 150t134.5 46q19 0 70.5 -3.5t78.5 -4.5q24 0 87 6v-703q54 -13 114 -13q86 0 132.5 63.5
t46.5 159.5q0 46 -6.5 81t-22.5 66.5t-48 48.5t-79 17q-32 0 -66 -10l-9 59q33 14 89 14q107 0 165 -67.5t58 -192.5q0 -82 -21.5 -143t-59 -95.5t-83 -50.5t-99.5 -16z" />
    <glyph glyph-name="f_j" unicode="fj" horiz-adv-x="617" 
d="M333 -220q-37 0 -70 11l14 64q15 -5 58 -5q58 0 80 34t22 100v130v368h-262v-688h-78v688h-80v64h80v28q0 111 49 157t134 46q18 0 70 -3t81 -3q36 0 66 3l11 -60q-38 -14 -104 -14q-23 1 -65.5 4t-58.5 3q-58 0 -81 -34t-23 -101v-26h341v-562q0 -204 -184 -204z" />
    <glyph glyph-name="f_k" unicode="fk" horiz-adv-x="895" 
d="M97 -214v696h-80v64h80v28q0 111 49 157t134 46q18 0 70 -4.5t81 -4.5q14 0 49.5 2.5t37.5 2.5v-773h-79v701q-29 -1 -82.5 2.5t-76.5 3.5q-58 0 -81 -34t-23 -100v-27h116v-64h-117v-696h-78zM857 -10q-87 5 -164 101l-157 197l233 258h93l-233 -255l112 -138
q34 -42 70 -68.5t59 -33.5z" />
    <glyph glyph-name="f_f_j" unicode="ffj" horiz-adv-x="945" 
d="M676 -220q-37 0 -67 10l14 65q21 -7 53 -7q58 0 81 35t23 101v498h-262v-692h-78v692h-263v-692h-80v692h-80v64h80v49q0 182 208 182q97 0 192 -38q49 38 126 38q17 0 69 -3t81 -3q9 0 66 3l12 -60q-35 -13 -103 -13q-25 0 -68.5 3t-58.5 3q-58 0 -80.5 -34t-22.5 -100
v-27h342v-563q-1 -203 -184 -203zM177 546h262v28q0 67 18 109q-82 24 -154 24q-63 0 -94.5 -26.5t-31.5 -85.5v-49z" />
    <glyph glyph-name="aogonek_j" unicode="&#x105;j" horiz-adv-x="837" 
d="M495 -237q-72 0 -115 29.5t-43 85.5q0 74 91 128q-16 8 -27.5 23.5t-12.5 33.5q-2 -1 -18.5 -13.5t-29.5 -19.5t-35 -17.5t-49 -15.5t-58 -5q-74 0 -114.5 39.5t-40.5 114.5q0 47 19.5 81t52.5 50.5t66 24t71 7.5l130 3v75q0 62 -31.5 82.5t-108.5 20.5q-53 0 -135 -25
l-17 62q80 32 175 32q91 0 142.5 -32.5t51.5 -112.5v-305q0 -48 51 -53l-5 -57q-93 -57 -93 -109q0 -60 88 -60q163 0 163 175v541h80v-542q0 -115 -67.5 -178t-180.5 -63zM215 56q62 0 167 60v141l-131 -5q-66 -3 -98.5 -30t-32.5 -68q0 -53 24 -75.5t71 -22.5zM703 649
l-65 67l65 66l67 -66z" />
    <glyph glyph-name=".notdef" horiz-adv-x="712" 
d="M305 375v27h27v-27h-27zM380 525v27h27v-27h-27zM305 525v27h27v-27h-27zM230 525v27h27v-27h-27zM80 0v27h27v-27h-27zM155 0v27h27v-27h-27zM230 0v27h27v-27h-27zM305 0v27h27v-27h-27zM380 0v27h27v-27h-27zM80 75v27h27v-27h-27zM80 150v27h27v-27h-27zM80 225v27
h27v-27h-27zM80 300v27h27v-27h-27zM80 375v27h27v-27h-27zM80 450v27h27v-27h-27zM80 525v27h27v-27h-27zM80 600v27h27v-27h-27zM80 675v27h27v-27h-27zM155 675v27h27v-27h-27zM230 675v27h27v-27h-27zM305 675v27h27v-27h-27zM380 675v27h27v-27h-27zM455 675v27h27v-27
h-27zM530 675v27h27v-27h-27zM530 0v27h27v-27h-27zM455 0v27h27v-27h-27zM605 0v27h27v-27h-27zM605 675v27h27v-27h-27zM305 300v27h27v-27h-27zM305 150v27h27v-27h-27zM380 375v27h27v-27h-27zM455 375v27h27v-27h-27zM455 450v27h27v-27h-27zM455 525v27h27v-27h-27z
M605 600v27h27v-27h-27zM605 525v27h27v-27h-27zM605 375v27h27v-27h-27zM605 300v27h27v-27h-27zM605 150v27h27v-27h-27zM605 75v27h27v-27h-27zM605 225v27h27v-27h-27zM605 450v27h27v-27h-27z" />
    <glyph glyph-name=".null" horiz-adv-x="0" 
 />
    <glyph glyph-name="nonmarkingreturn" horiz-adv-x="333" 
 />
    <glyph glyph-name="space" unicode=" " horiz-adv-x="211" 
 />
    <glyph glyph-name="exclam" unicode="!" horiz-adv-x="282" 
d="M99 172l-4 140v395h78v-395l-3 -140h-71zM89 0v87h90v-87h-90z" />
    <glyph glyph-name="quotedbl" unicode="&#x22;" horiz-adv-x="344" 
d="M54 515l-4 238h73l-6 -238h-63zM225 515l-4 238h74l-7 -238h-63z" />
    <glyph glyph-name="numbersign" unicode="#" horiz-adv-x="594" 
d="M124 0l8 151h-89v67h92l8 129h-100v67h105l7 153h75l-8 -153h168l8 153h75l-8 -153h84v-67h-89l-7 -129h96v-67h-99l-9 -151h-74l8 151h-169l-8 -151h-74zM210 218h169l7 129h-169z" />
    <glyph glyph-name="dollar" unicode="$" horiz-adv-x="530" 
d="M221 -99l2 94q-98 4 -171 38l26 64q93 -34 168 -34q135 0 135 85q0 22 -19.5 41t-37 27t-50.5 21q-5 2 -25.5 10t-27.5 11t-25.5 11t-27 13t-24 15t-22.5 17.5t-17.5 19.5t-15.5 23.5t-8.5 26.5t-3.5 31q0 57 39.5 90t106.5 43l-2 96h71l-2 -93q84 -2 150 -30l-21 -60
q-82 24 -144 24q-117 0 -117 -69q0 -23 18.5 -42.5t36.5 -28.5t49 -22q7 -3 41 -17t47.5 -20.5t40 -22.5t39 -29.5t23 -35t10.5 -45.5q0 -139 -173 -156l3 -96h-72z" />
    <glyph glyph-name="percent" unicode="%" horiz-adv-x="775" 
d="M193 387q-67 0 -109 39t-42 119q0 79 44.5 124t109.5 45q154 0 154 -162q0 -76 -45 -120.5t-112 -44.5zM193 445q41 0 65 28.5t24 78.5t-21.5 78t-64.5 28q-37 0 -61 -28.5t-24 -84.5q0 -100 82 -100zM576 -9q-67 0 -109 39t-42 119q0 79 44.5 124t109.5 45
q154 0 154 -161q0 -77 -45 -121.5t-112 -44.5zM576 50q41 0 65 28.5t24 78.5q0 105 -86 105q-37 0 -61 -28.5t-24 -84.5q0 -99 82 -99zM132 58l-43 46l534 532l43 -45z" />
    <glyph glyph-name="ampersand" unicode="&#x26;" horiz-adv-x="684" 
d="M255 -8q-28 0 -53.5 4.5t-51.5 16t-44.5 30.5t-30.5 49.5t-12 70.5q0 71 31.5 116t98.5 97q-35 90 -35 173q0 67 40 113.5t120 46.5q73 0 108.5 -39t35.5 -97q0 -25 -9 -48.5t-21 -40.5t-34.5 -36t-38.5 -29.5t-44.5 -29t-41.5 -27.5q59 -129 177.5 -211.5t248.5 -90.5
q0 -2 -1.5 -17.5t-3 -29t-2.5 -17.5q-126 1 -245 71q-48 -40 -87 -57.5t-105 -17.5zM265 58q59 0 125 47q-110 81 -172 209q-40 -34 -60 -67.5t-20 -77.5q0 -60 37 -85.5t90 -25.5zM249 420q7 5 33 22t40 27.5t33.5 28t28.5 35t9 35.5q0 36 -21.5 58t-56.5 22
q-42 0 -64.5 -25t-22.5 -65q0 -65 21 -138z" />
    <glyph glyph-name="quotesingle" unicode="'" horiz-adv-x="175" 
d="M54 515l-4 238h76l-7 -238h-65z" />
    <glyph glyph-name="parenleft" unicode="(" horiz-adv-x="346" 
d="M274 -222q-5 3 -12.5 10t-30.5 30.5t-43.5 50.5t-45.5 71.5t-43 93t-30.5 115t-12.5 136.5q0 97 22.5 182.5t54.5 138t64 91.5t55 55l22 17l48 -53q-8 -5 -20.5 -16t-44.5 -49.5t-56.5 -84t-44.5 -121t-20 -159.5t19 -162t46.5 -129t55 -90t46.5 -57l19 -17z" />
    <glyph glyph-name="parenright" unicode=")" horiz-adv-x="346" 
d="M72 -222l-48 53q8 6 20.5 18.5t44.5 55t57 91t45 127.5t20 163t-19.5 159t-46.5 122.5t-54.5 82.5t-46.5 50l-20 16l48 53q9 -6 23.5 -17t52 -53.5t66.5 -93.5t52.5 -137t23.5 -183t-22.5 -184.5t-54.5 -144t-64 -98.5t-55 -61z" />
    <glyph glyph-name="asterisk" unicode="*" horiz-adv-x="422" 
d="M76 466l-34 60l100 44l22 -39zM142 598l-100 45l35 60l89 -64zM177 408l12 108h47l11 -108h-70zM190 653l-12 109h70l-11 -109h-47zM349 465l-89 64l24 41l100 -43zM283 600l-23 38l89 65l35 -60z" />
    <glyph glyph-name="plus" unicode="+" 
d="M260 54v216h-215v66l215 -1v222h68l-1 -223l227 2v-66h-226v-216h-68z" />
    <glyph glyph-name="comma" unicode="," horiz-adv-x="313" 
d="M93 -125q25 75 25 117v91h83v-37q0 -93 -40 -171h-68z" />
    <glyph glyph-name="hyphen" unicode="-" horiz-adv-x="361" 
d="M31 252v69h298v-69h-298z" />
    <glyph glyph-name="hyphen" unicode="&#xad;" horiz-adv-x="361" 
d="M31 252v69h298v-69h-298z" />
    <glyph glyph-name="period" unicode="." horiz-adv-x="313" 
d="M112 0v90h94v-90h-94z" />
    <glyph glyph-name="slash" unicode="/" horiz-adv-x="386" 
d="M40 -62l233 831h73l-232 -831h-74z" />
    <glyph glyph-name="zero" unicode="0" horiz-adv-x="695" 
d="M346 -12q-131 0 -209 72t-78 212q0 139 79.5 213.5t211.5 74.5q129 0 207.5 -75t78.5 -209q0 -142 -80 -215t-210 -73zM347 57q91 0 149.5 57.5t58.5 160.5q0 98 -58 157.5t-149 59.5q-93 0 -150 -56t-57 -164q0 -101 58 -158t148 -57z" />
    <glyph glyph-name="one" unicode="1" horiz-adv-x="353" 
d="M161 0v491h-141v62l222 7v-560h-81z" />
    <glyph glyph-name="two" unicode="2" horiz-adv-x="495" 
d="M39 0v65q14 12 61 49t81 66.5t73.5 68t61.5 72.5t22 61q0 60 -29.5 84.5t-85.5 24.5q-71 0 -133 -37l-28 59q23 17 69 32t96 15q102 0 146.5 -48.5t44.5 -125.5q0 -43 -26.5 -89t-77.5 -93t-83.5 -73t-85.5 -64h299v-67h-405z" />
    <glyph glyph-name="three" unicode="3" horiz-adv-x="492" 
d="M207 -167q-114 0 -181 29l19 65q74 -26 152 -26q34 0 59.5 4.5t50.5 16.5t38 37.5t13 64.5q0 59 -43 98t-113 51q-14 2 -38 4v61q22 2 34 4q55 13 92 52.5t37 88.5q0 57 -36.5 82.5t-91.5 25.5q-70 0 -114 -22l-23 58q66 32 147 32q88 0 140.5 -44.5t52.5 -124.5
q0 -65 -41 -112.5t-90 -61.5q62 -17 113.5 -65t51.5 -121q0 -100 -63 -148.5t-166 -48.5z" />
    <glyph glyph-name="four" unicode="4" horiz-adv-x="559" 
d="M335 -161v189h-315v66l267 452h128v-448h121v-70h-121v-189h-80zM99 98h236v401z" />
    <glyph glyph-name="five" unicode="5" horiz-adv-x="523" 
d="M237 -170q-103 0 -172 22l19 71q71 -20 152 -20q70 0 113 36.5t43 100.5q0 151 -155 151q-57 0 -147 -10v365h356v-68h-280v-223q52 5 89 5q100 0 158.5 -56t58.5 -153q0 -105 -64.5 -163t-170.5 -58z" />
    <glyph glyph-name="six" unicode="6" horiz-adv-x="567" 
d="M292 -12q-118 0 -176.5 70.5t-58.5 244.5q0 201 83 306.5t222 105.5q61 0 101 -14l-17 -66q-30 10 -85 10q-54 0 -95 -21t-65 -54.5t-39 -81t-20.5 -93t-5.5 -98.5q0 -124 34.5 -182.5t128.5 -58.5q64 0 100.5 45.5t36.5 114.5q0 76 -39 114t-104 38q-30 0 -79 -9l-4 65
q46 12 92 12q105 0 158.5 -57t53.5 -153q0 -114 -61 -176t-161 -62z" />
    <glyph glyph-name="seven" unicode="7" horiz-adv-x="440" 
d="M123 -173l-71 27l300 619h-349v73h428v-68z" />
    <glyph glyph-name="eight" unicode="8" horiz-adv-x="566" 
d="M280 -12q-103 0 -165.5 47t-62.5 128q0 71 42.5 117.5t120.5 89.5q-64 40 -99.5 82t-35.5 99q0 78 56.5 121.5t154.5 43.5q93 0 145 -47.5t52 -111.5q0 -60 -37.5 -102.5t-105.5 -83.5q39 -22 64 -38.5t51.5 -41t39.5 -54t13 -63.5q0 -87 -62.5 -136.5t-170.5 -49.5z
M286 53q69 0 107.5 31.5t38.5 94.5q0 25 -11.5 46.5t-37 42.5t-47 34.5t-59.5 34.5q-70 -39 -107.5 -76.5t-37.5 -88.5q0 -55 41.5 -87t112.5 -32zM282 402q61 34 94 67t33 77q0 47 -29 77.5t-90 30.5q-64 0 -98 -29t-34 -79q0 -43 32 -76.5t92 -67.5z" />
    <glyph glyph-name="nine" unicode="9" horiz-adv-x="572" 
d="M199 -165q-57 0 -95 14l17 66q40 -10 78 -10q53 0 92.5 12.5t65 38.5t41.5 55t23.5 73t10 82t2.5 91q0 63 -15 113.5t-52 85t-93 34.5q-64 0 -100.5 -43t-36.5 -110q0 -90 37.5 -127.5t104.5 -37.5q34 0 82 11l6 -65q-45 -13 -103 -13q-100 0 -154 57.5t-54 166.5
q0 110 62.5 170.5t162.5 60.5q108 0 171.5 -82t63.5 -234q0 -221 -78 -315t-239 -94z" />
    <glyph glyph-name="colon" unicode=":" horiz-adv-x="313" 
d="M109 0v90h94v-90h-94zM109 456v90h94v-90h-94z" />
    <glyph glyph-name="semicolon" unicode=";" horiz-adv-x="313" 
d="M91 -125q26 66 26 132v76h85v-43q0 -91 -42 -165h-69zM110 456v90h94v-90h-94z" />
    <glyph glyph-name="less" unicode="&#x3c;" 
d="M488 64l-404 190v99l404 192v-74l-353 -168l353 -164v-75z" />
    <glyph glyph-name="equal" unicode="=" 
d="M52 166l-1 66h494l1 -66h-494zM52 376l-1 66h494l1 -66h-494z" />
    <glyph glyph-name="greater" unicode="&#x3e;" 
d="M84 64v75l352 164l-352 168v74l404 -192v-99z" />
    <glyph glyph-name="question" unicode="?" horiz-adv-x="390" 
d="M121 164q-12 34 -12 71t15.5 70.5t38 58t45 46.5t38 46t15.5 47q0 61 -51.5 96t-128.5 42l16 68q65 -5 117.5 -25t90 -65.5t37.5 -110.5q0 -34 -16.5 -66t-40 -57t-47 -49t-40 -50.5t-16.5 -51.5q0 -31 6 -59zM115 0v87h90v-87h-90z" />
    <glyph glyph-name="at" unicode="@" horiz-adv-x="781" 
d="M360 -71q-153 0 -231 87t-78 248q0 118 32.5 207t90 141.5t129.5 78.5t158 26q124 0 195 -70t71 -216q0 -140 -66.5 -211t-154.5 -71q-37 0 -57.5 17.5t-18.5 48.5q-19 -23 -53.5 -41.5t-59.5 -18.5q-46 0 -71 28.5t-25 97.5q0 100 53.5 160t141.5 60q60 0 107 -22
l-27 -223q-3 -46 19 -46q24 0 46.5 10t44.5 32.5t35.5 68.5t13.5 109q0 223 -198 223q-67 0 -124.5 -20t-105 -62.5t-75 -118t-27.5 -178.5q0 -146 62.5 -211t182.5 -65q66 0 151 17l12 -60q-69 -26 -173 -26zM331 218q48 0 99 54l20 168q-17 5 -35 5q-61 0 -92.5 -43.5
t-31.5 -114.5q0 -40 9 -54.5t31 -14.5z" />
    <glyph glyph-name="A" unicode="A" horiz-adv-x="671" 
d="M13 0l282 707h111l255 -707h-88l-93 264h-280l-104 -264h-83zM226 330h231l-110 319z" />
    <glyph glyph-name="B" unicode="B" horiz-adv-x="648" 
d="M111 0v707h194q116 0 172.5 -46.5t56.5 -127.5q0 -32 -10 -60t-19.5 -42.5t-28.5 -29t-22.5 -16t-15.5 -6.5l-1 -1v-3q4 0 17 -3.5t36.5 -15t43.5 -29t35.5 -51t15.5 -75.5q0 -94 -60 -147.5t-190 -53.5h-224zM194 68h124q85 0 134 28t49 102q0 42 -14 68.5t-44 40
t-66 18.5t-90 5h-93v-262zM194 396h107q81 0 115 29t34 93q0 69 -41 97t-125 28h-90v-247z" />
    <glyph glyph-name="C" unicode="C" horiz-adv-x="649" 
d="M422 -12q-171 0 -268.5 99.5t-97.5 261.5q0 169 95.5 268.5t266.5 99.5q123 0 205 -36l-23 -66l-16 5q-16 5 -22.5 7t-25 6.5t-33 6t-37 3.5t-46.5 2q-121 0 -199.5 -70.5t-78.5 -215.5q0 -150 83.5 -225t214.5 -75q84 0 166 26l20 -66q-76 -31 -204 -31z" />
    <glyph glyph-name="D" unicode="D" horiz-adv-x="750" 
d="M111 0v707h190q176 0 284 -91.5t108 -259.5q0 -181 -101.5 -268.5t-284.5 -87.5h-196zM192 68h126q140 0 217 70.5t77 206.5q0 146 -84 220t-230 74h-106v-571z" />
    <glyph glyph-name="E" unicode="E" horiz-adv-x="580" 
d="M111 0v707h396v-67h-314v-251h292v-68h-292v-253h337v-68h-419z" />
    <glyph glyph-name="F" unicode="F" horiz-adv-x="559" 
d="M111 0v707h416v-67h-334v-271h312v-68h-312v-301h-82z" />
    <glyph glyph-name="G" unicode="G" horiz-adv-x="706" 
d="M422 -12q-171 0 -268.5 100t-97.5 261q0 169 95.5 268.5t266.5 99.5q118 0 205 -36l-24 -67q-2 1 -15.5 5.5t-19 6t-19 5.5t-24.5 5.5t-27.5 4t-34.5 3.5t-39 1q-121 0 -199.5 -70.5t-78.5 -215.5q0 -150 83.5 -225t214.5 -75q52 0 113 14v275h83v-328q-108 -32 -214 -32
z" />
    <glyph glyph-name="H" unicode="H" horiz-adv-x="775" 
d="M111 0v707h82v-318h388v318h82v-707h-82v321h-388v-321h-82z" />
    <glyph glyph-name="I" unicode="I" horiz-adv-x="305" 
d="M111 0v707h82v-707h-82z" />
    <glyph glyph-name="J" unicode="J" horiz-adv-x="305" 
d="M1 -187l-35 60q86 48 115.5 110.5t29.5 167.5v556h83v-554q0 -63 -7 -108t-27 -90t-59.5 -80t-99.5 -62z" />
    <glyph glyph-name="K" unicode="K" horiz-adv-x="626" 
d="M515 0l-294 368v18l278 321h105l-294 -327l313 -380h-108zM111 0v707h82v-707h-82z" />
    <glyph glyph-name="L" unicode="L" horiz-adv-x="504" 
d="M111 0v707h82v-636h307v-71h-389z" />
    <glyph glyph-name="M" unicode="M" horiz-adv-x="952" 
d="M111 0v707h120l234 -658l260 658h116v-707h-82v506l3 109l-241 -615h-118l-216 616l6 -112v-504h-82z" />
    <glyph glyph-name="N" unicode="N" horiz-adv-x="782" 
d="M111 0v707h118l361 -637l-3 88v549h84v-707h-129l-353 628l4 -73v-555h-82z" />
    <glyph glyph-name="O" unicode="O" horiz-adv-x="821" 
d="M402 -12q-162 0 -254 101t-92 266t100.5 263.5t264.5 98.5q165 0 254 -101.5t89 -262.5q0 -164 -97 -264.5t-265 -100.5zM405 56q135 0 206 83t71 215q0 130 -71.5 212.5t-198.5 82.5q-132 0 -203 -81.5t-71 -211.5q0 -128 69.5 -214t197.5 -86z" />
    <glyph glyph-name="P" unicode="P" horiz-adv-x="590" 
d="M111 0v707h231q107 0 168 -57.5t61 -163.5q0 -101 -71.5 -166t-209.5 -65h-30v69h36q88 0 138 38t50 119t-40.5 120t-123.5 39h-126v-640h-83z" />
    <glyph glyph-name="Q" unicode="Q" horiz-adv-x="844" 
d="M785 -160h-46q-108 0 -182 27q-3 1 -17.5 6t-17.5 6t-15.5 4.5t-16.5 4.5t-15 4t-16 4t-14.5 3t-16.5 2.5t-15.5 1t-16.5 0.5v64q18 0 36.5 -1.5t30.5 -3.5t29 -6t23 -5.5t23.5 -7t19.5 -6.5q78 -29 179 -29h48v-68zM402 -12q-162 0 -254 101t-92 266t100.5 263.5
t264.5 98.5q165 0 254 -101.5t89 -262.5q0 -164 -97 -264.5t-265 -100.5zM405 56q135 0 206 83t71 215q0 130 -71.5 212.5t-198.5 82.5q-132 0 -203 -81.5t-71 -211.5q0 -128 69.5 -214t197.5 -86z" />
    <glyph glyph-name="R" unicode="R" horiz-adv-x="702" 
d="M669 -11q-111 9 -182 108l-131 189q-28 -5 -66 -5h-96v-281h-83v707h231q106 0 167.5 -51.5t61.5 -155.5q0 -66 -32.5 -117t-100.5 -77l110 -157q52 -71 139 -95zM194 350h102q90 0 139 32.5t49 111.5t-40 112.5t-124 33.5h-126v-290z" />
    <glyph glyph-name="S" unicode="S" horiz-adv-x="554" 
d="M250 -12q-115 0 -197 43l28 66q84 -37 167 -37q70 0 120 28t50 90q0 41 -25.5 72.5t-64 50t-83.5 41t-83.5 45t-64 63.5t-25.5 95q0 82 59.5 126.5t149.5 44.5q93 0 172 -34l-23 -61q-76 27 -147 27q-60 0 -96.5 -25t-36.5 -75q0 -43 36 -76t87 -56.5t102.5 -50.5
t87.5 -73t36 -108q0 -97 -70 -146.5t-179 -49.5z" />
    <glyph glyph-name="T" unicode="T" horiz-adv-x="569" 
d="M243 0v637h-241v70h565v-70h-241v-637h-83z" />
    <glyph glyph-name="U" unicode="U" horiz-adv-x="770" 
d="M387 -12q-56 0 -103.5 12t-90 39.5t-67 80t-24.5 126.5v461h85v-454q0 -194 200 -194q201 0 201 217v431h80v-434q0 -81 -25.5 -139.5t-68.5 -88.5t-89 -43.5t-98 -13.5z" />
    <glyph glyph-name="V" unicode="V" horiz-adv-x="650" 
d="M256 0l-255 707h89l225 -642l252 642h83l-280 -707h-114z" />
    <glyph glyph-name="W" unicode="W" horiz-adv-x="1011" 
d="M207 0l-196 707h84l177 -657l193 483l-59 174h83l221 -656l211 656h79l-232 -707h-119l-149 437l-173 -437h-120z" />
    <glyph glyph-name="X" unicode="X" horiz-adv-x="607" 
d="M6 0l249 374l-206 333h94l161 -267l172 267h89l-218 -331l234 -376h-96l-186 310l-199 -310h-94z" />
    <glyph glyph-name="Y" unicode="Y" horiz-adv-x="568" 
d="M236 0v268l-231 439h92l183 -366l195 366h89l-246 -439v-268h-82z" />
    <glyph glyph-name="Z" unicode="Z" horiz-adv-x="546" 
d="M30 0v71l373 565h-347v71h440v-65l-377 -571h398v-71h-487z" />
    <glyph glyph-name="bracketleft" unicode="[" horiz-adv-x="350" 
d="M108 -220v974h179v-67h-100v-840h100v-67h-179z" />
    <glyph glyph-name="backslash" unicode="\" horiz-adv-x="386" 
d="M272 -62l-232 831h73l233 -831h-74z" />
    <glyph glyph-name="bracketright" unicode="]" horiz-adv-x="350" 
d="M69 -220v67h100v840h-100v67h179v-974h-179z" />
    <glyph glyph-name="asciicircum" unicode="^" horiz-adv-x="521" 
d="M52 294l162 413h106l149 -413h-85l-118 357l-133 -357h-81z" />
    <glyph glyph-name="underscore" unicode="_" horiz-adv-x="503" 
d="M0 -165v69h503v-69h-503z" />
    <glyph glyph-name="grave" unicode="`" horiz-adv-x="568" 
d="M367 619l-193 120l36 60l189 -129z" />
    <glyph glyph-name="a" unicode="a" horiz-adv-x="570" 
d="M198 -8q-74 0 -114.5 40t-40.5 115q0 47 19.5 81t52.5 50.5t66 24t71 8.5l130 2v73q0 62 -31.5 83t-108.5 21q-53 0 -135 -25l-17 62q77 32 175 32q95 0 144.5 -34.5t49.5 -112.5v-303q0 -47 51 -53l-5 -62h-14q-38 0 -68.5 17.5t-34.5 51.5q-2 -1 -18.5 -13.5
t-29.5 -19.5t-35 -17.5t-49 -15.5t-58 -5zM218 56q59 0 164 60v142l-131 -5q-62 -2 -97 -29.5t-35 -69.5q0 -98 99 -98z" />
    <glyph glyph-name="b" unicode="b" horiz-adv-x="596" 
d="M283 -9q-34 0 -62 2t-50 6t-33.5 6.5t-27.5 7.5l-17 5v736h79v-684q54 -13 114 -13q86 0 132.5 63.5t46.5 159.5q0 46 -6.5 81t-22.5 66.5t-48 48.5t-79 17q-32 0 -66 -10l-9 59q32 14 89 14q107 0 164.5 -67.5t57.5 -192.5q0 -159 -74 -232t-188 -73z" />
    <glyph glyph-name="c" unicode="c" horiz-adv-x="498" 
d="M333 -9q-146 0 -212 66.5t-66 215.5q0 132 69.5 209.5t186.5 77.5q91 0 149 -31l-24 -62q-65 27 -127 27q-79 0 -126 -57.5t-47 -160.5q0 -115 45 -166t160 -51q20 0 40 2.5t40 6.5l25 5l13 -64q-60 -18 -126 -18z" />
    <glyph glyph-name="d" unicode="d" horiz-adv-x="595" 
d="M284 -10q-229 0 -229 281q0 137 74 213t185 76q59 0 109 -14v208h78v-754h-78v52q-66 -62 -139 -62zM290 57q50 0 133 61v360q-55 17 -109 17q-91 0 -135 -65.5t-44 -161.5q0 -106 41.5 -158.5t113.5 -52.5z" />
    <glyph glyph-name="e" unicode="e" horiz-adv-x="543" 
d="M313 -12q-126 0 -192 63t-66 212q0 156 66 226.5t178 70.5q197 0 197 -273v-29h-361q1 -63 16 -104.5t44.5 -62t62 -28t79.5 -7.5q56 0 135 23l14 -65q-67 -26 -173 -26zM136 317h277q0 85 -31.5 134.5t-94.5 49.5t-103.5 -47t-47.5 -137z" />
    <glyph glyph-name="f" unicode="f" horiz-adv-x="339" 
d="M97 -214v696h-80v64h80v48q0 94 48.5 138t128.5 44q49 0 84 -11l-14 -65q-35 7 -69 7q-52 0 -75.5 -26.5t-23.5 -87.5v-47h117v-64h-117v-696h-79z" />
    <glyph glyph-name="g" unicode="g" horiz-adv-x="597" 
d="M278 -228q-101 0 -178 20l15 69q87 -19 145 -19q39 0 65.5 5t50.5 19t35.5 42.5t11.5 73.5v57q-52 -47 -125 -47q-39 0 -69.5 5.5t-64 23t-56 47t-37 81.5t-14.5 122q0 140 73.5 214.5t186.5 74.5q75 0 184 -21v-573q0 -96 -61 -145t-162 -49zM304 57q58 0 118 49v376
q-59 11 -106 11q-94 0 -137.5 -62t-43.5 -163q0 -112 42 -161.5t127 -49.5z" />
    <glyph glyph-name="h" unicode="h" horiz-adv-x="618" 
d="M93 0v754h79v-270q107 76 190 76q46 0 79 -13.5t50 -32t26 -49.5t11 -54.5t2 -58.5v-352h-75v337q0 80 -21.5 116.5t-91.5 36.5q-55 0 -170 -67v-423h-79z" />
    <glyph glyph-name="i" unicode="i" horiz-adv-x="267" 
d="M93 0v546h80v-546h-80zM132 649l-65 67l65 66l67 -66z" />
    <glyph glyph-name="j" unicode="j" horiz-adv-x="267" 
d="M-11 -223q-38 0 -71 11l14 64q31 -7 57 -7q58 0 81 35t23 102v564h80v-565q0 -204 -184 -204zM132 649l-65 67l65 66l67 -66z" />
    <glyph glyph-name="k" unicode="k" horiz-adv-x="551" 
d="M512 -8q-87 5 -164 101l-154 195l230 258h91l-232 -255l112 -138q69 -85 133 -102zM93 0v754h79v-754h-79z" />
    <glyph glyph-name="l" unicode="l" horiz-adv-x="267" 
d="M93 0v754h79v-754h-79z" />
    <glyph glyph-name="m" unicode="m" horiz-adv-x="951" 
d="M93 0v546h79v-64q97 77 176 77q113 0 151 -81q102 81 196 81q46 0 79 -13t50 -32t27 -49.5t12 -54.5t2 -58v-352h-79v337q0 75 -21.5 113.5t-89.5 38.5q-71 0 -163 -66q6 -46 6 -71v-352h-78v337q0 76 -21 114.5t-89 38.5q-60 0 -158 -71v-419h-79z" />
    <glyph glyph-name="n" unicode="n" horiz-adv-x="619" 
d="M93 0v546h79v-62q33 23 55 36.5t60 26.5t75 13q46 0 79 -13.5t50.5 -32t27 -49.5t11.5 -54.5t2 -58.5v-352h-77v337q0 80 -22 116.5t-91 36.5q-29 0 -65.5 -13.5t-53 -23t-51.5 -30.5v-423h-79z" />
    <glyph glyph-name="o" unicode="o" horiz-adv-x="604" 
d="M299 -12q-114 0 -179 73t-65 206q0 138 69.5 215.5t181.5 77.5q120 0 181 -74t61 -213t-68.5 -212t-180.5 -73zM305 53q163 0 163 220q0 42 -7.5 78t-24.5 70t-51 54t-82 20q-47 0 -81.5 -20t-52 -53.5t-25.5 -70.5t-8 -79q0 -96 39.5 -157.5t129.5 -61.5z" />
    <glyph glyph-name="p" unicode="p" horiz-adv-x="601" 
d="M93 -220v766h79v-45q79 57 151 57q106 0 164 -70.5t58 -198.5q0 -82 -21 -142.5t-59 -93.5t-83 -48.5t-99 -15.5q-50 0 -111 9v-218h-79zM286 55q86 0 132.5 59.5t46.5 154.5q0 100 -34.5 160.5t-123.5 60.5q-61 0 -135 -52v-372q4 0 23.5 -3.5t40.5 -5.5t50 -2z" />
    <glyph glyph-name="q" unicode="q" horiz-adv-x="597" 
d="M423 -220v242q-59 -32 -134 -32q-234 0 -234 286q0 133 74 208.5t185 75.5q91 0 187 -28v-752h-78zM294 57q72 0 129 32v390q-60 15 -109 15q-93 0 -136.5 -62.5t-43.5 -158.5q0 -216 160 -216z" />
    <glyph glyph-name="r" unicode="r" horiz-adv-x="390" 
d="M93 0v546h79v-73q20 35 61 60t95 25q34 0 64 -9l-14 -67q-30 7 -64 7q-45 0 -82 -25.5t-60 -61.5v-402h-79z" />
    <glyph glyph-name="s" unicode="s" horiz-adv-x="465" 
d="M212 -11q-86 0 -160 23l14 65q101 -23 139 -23q64 0 100.5 23t36.5 62q0 34 -28.5 57.5t-68.5 39t-80.5 33.5t-69 53.5t-28.5 87.5q0 71 52 110.5t135 39.5q55 0 132 -23l-14 -63q-71 20 -126 20q-49 0 -75.5 -22.5t-26.5 -56.5t28 -58.5t68 -40.5t80.5 -34t68.5 -52.5
t28 -83.5q0 -45 -19 -77t-50.5 -48.5t-65 -24t-70.5 -7.5z" />
    <glyph glyph-name="t" unicode="t" horiz-adv-x="416" 
d="M298 -11q-39 0 -59.5 1.5t-48.5 10t-42 25t-24.5 48t-10.5 78.5v327h-80v67h80v112h77v-112h171v-67h-170v-326q0 -59 20.5 -77t83.5 -18q41 0 86 15l14 -66q-54 -18 -97 -18z" />
    <glyph glyph-name="u" unicode="u" horiz-adv-x="616" 
d="M253 -12q-44 0 -75.5 13.5t-48.5 32.5t-26.5 50t-11.5 55.5t-2 58.5v348h79v-332q0 -31 1.5 -50t7 -41t16.5 -34t31 -20.5t49 -8.5q62 0 175 68v418h76v-546h-76v64q-1 -1 -22 -14.5t-29 -18t-29 -15t-35.5 -15t-36.5 -9t-43 -4.5z" />
    <glyph glyph-name="v" unicode="v" horiz-adv-x="522" 
d="M196 0l-179 546h87l114 -375l35 -116l39 118l130 373h81l-196 -546h-111z" />
    <glyph glyph-name="w" unicode="w" horiz-adv-x="877" 
d="M187 0l-170 546h83l141 -489l148 489h102l130 -489l159 489h80l-188 -546h-107l-109 399l-18 75l-19 -74l-126 -400h-106z" />
    <glyph glyph-name="x" unicode="x" horiz-adv-x="507" 
d="M18 0l190 279l-179 267h92l132 -211l133 211h88l-176 -265l190 -281h-95l-140 224l-142 -224h-93z" />
    <glyph glyph-name="y" unicode="y" horiz-adv-x="517" 
d="M156 -220l75 220h-37l-177 546h86l119 -390l30 -98l32 96l135 392h81l-267 -766h-77z" />
    <glyph glyph-name="z" unicode="z" horiz-adv-x="496" 
d="M40 0v68l322 409h-296v69h387v-64l-326 -413h330v-69h-417z" />
    <glyph glyph-name="braceleft" unicode="{" horiz-adv-x="346" 
d="M298 -220q-87 0 -138 29t-51 108q0 9 2 29l21 198q4 33 -20.5 63t-61.5 30v72q37 0 61.5 29.5t20.5 63.5l-21 206q-10 90 42 127.5t145 37.5h22v-67h-25q-59 0 -85.5 -24.5t-20.5 -78.5l20 -182q7 -61 -15.5 -97.5t-67.5 -47.5v-2q96 -35 83 -145l-20 -183
q-5 -50 22 -74.5t84 -24.5h25v-67h-22z" />
    <glyph glyph-name="bar" unicode="|" horiz-adv-x="264" 
d="M92 -220v974h79v-974h-79z" />
    <glyph glyph-name="braceright" unicode="}" horiz-adv-x="346" 
d="M34 -220v67h25q57 0 84.5 24.5t21.5 74.5l-20 183q-12 109 84 145v2q-45 11 -68 47.5t-16 97.5l20 182q6 54 -20 78t-86 24h-25v68h22q44 0 78 -8t62 -25.5t40.5 -51t7.5 -80.5l-22 -206q-3 -34 21 -63.5t61 -29.5v-72q-37 0 -61 -30t-21 -63l22 -198q5 -51 -7.5 -85.5
t-42 -51t-62 -23t-76.5 -6.5h-22z" />
    <glyph glyph-name="asciitilde" unicode="~" horiz-adv-x="525" 
d="M370 283q-53 0 -117.5 30t-99.5 30q-44 0 -89 -29l-37 55q60 54 132 54q53 0 112 -30.5t99 -30.5q45 0 88 33l41 -50q-57 -62 -129 -62z" />
    <glyph glyph-name="uni00A0" unicode="&#xa0;" horiz-adv-x="211" 
 />
    <glyph glyph-name="exclamdown" unicode="&#xa1;" horiz-adv-x="282" 
d="M95 -162v395l3 140h71l3 -140v-395h-77zM89 458v87h90v-87h-90z" />
    <glyph glyph-name="cent" unicode="&#xa2;" horiz-adv-x="502" 
d="M260 -45l3 78q-113 12 -159 72t-46 173q0 96 53 159.5t152 73.5l-3 82h82l-2 -80q28 -1 58 -10.5t46 -20.5l-23 -55q-57 22 -120 22q-75 0 -118.5 -42.5t-43.5 -131.5q0 -96 41.5 -137.5t150.5 -41.5q34 0 106 12l11 -61q-53 -14 -108 -17l3 -75h-83z" />
    <glyph glyph-name="sterling" unicode="&#xa3;" horiz-adv-x="472" 
d="M62 0v67q38 17 59 57t21 80h-95v67h97q1 21 0 50.5t-1 37.5q0 49 13.5 84.5t34.5 56t56 32.5t68.5 16.5t80.5 5.5l6 -67q-40 -4 -61.5 -7t-49 -11.5t-40.5 -21.5t-21.5 -36.5t-7.5 -56.5q2 -38 2 -44q0 -4 -0.5 -17t-0.5 -22h178v-67h-183q-1 -86 -67 -137h287v-67h-376z
" />
    <glyph glyph-name="currency" unicode="&#xa4;" horiz-adv-x="500" 
d="M76 139l-39 40l70 67q-36 43 -36 106q0 66 35 106l-69 68l39 38l70 -70q53 32 104 32q61 0 105 -30l68 69l40 -40l-68 -67q35 -38 35 -106t-36 -107l67 -68l-37 -39l-70 69q-51 -28 -104 -28q-58 0 -102 30zM250 242q55 0 83 30.5t28 79.5q0 48 -28.5 79.5t-82.5 31.5
q-53 0 -82 -31.5t-29 -79.5t29.5 -79t81.5 -31z" />
    <glyph glyph-name="yen" unicode="&#xa5;" horiz-adv-x="591" 
d="M547 546l-127 -226h129v-68h-168l-52 -95v-10h220v-67h-221v-80h-78v80h-208v67h208v10l-49 95h-159v68h122l-120 226h88l160 -317l170 317h85z" />
    <glyph glyph-name="brokenbar" unicode="&#xa6;" horiz-adv-x="264" 
d="M92 -220v362h80v-362h-80zM92 392v361h80v-361h-80z" />
    <glyph glyph-name="section" unicode="&#xa7;" horiz-adv-x="495" 
d="M126 -216q-63 0 -114 39l28 66q51 -37 88 -37q27 0 39.5 26.5t12.5 57.5q0 44 -15 121l-65 351q-10 53 -10 100q0 121 67 187t182 66q85 0 145 -43q-31 -62 -33 -64q-61 39 -118 39q-49 0 -49 -70q0 -42 7 -74l72 -364q17 -93 17 -152q0 -106 -71 -177.5t-183 -71.5z
M230 -134q77 58 77 155q0 41 -11 103l-72 382q-10 52 -10 97q0 47 13 77q-64 -40 -64 -149q0 -42 9 -91l71 -382q10 -56 10 -102q0 -39 -23 -90z" />
    <glyph glyph-name="dieresis" unicode="&#xa8;" horiz-adv-x="408" 
d="M98 659l-56 57l56 56l56 -56zM311 659l-56 57l56 56l56 -56z" />
    <glyph glyph-name="copyright" unicode="&#xa9;" horiz-adv-x="828" 
d="M439 73q-100 0 -155 57t-55 148q0 97 53.5 153.5t154.5 56.5q73 0 120 -28l-20 -47q-50 20 -99 20q-64 0 -106 -37.5t-42 -112.5q0 -76 45 -115t115 -39q42 0 93 17l18 -49q-58 -24 -122 -24zM406 -91q-162 0 -253.5 100.5t-91.5 265.5q0 166 100 264t264 98
q165 0 254 -101t89 -263q0 -165 -97 -264.5t-265 -99.5zM409 -37q145 0 220.5 86.5t75.5 224.5q0 136 -77 222.5t-212 86.5q-141 0 -216.5 -85.5t-75.5 -221.5q0 -133 74 -223t211 -90z" />
    <glyph glyph-name="ordfeminine" unicode="&#xaa;" horiz-adv-x="418" 
d="M163 386q-45 0 -69 23.5t-24 68.5q0 94 123 94l70 2v38q0 32 -16 42t-58 10q-12 0 -82 -15l-12 45q50 21 107 21q55 0 86 -19t31 -70v-167q0 -24 30 -24l-3 -47q-28 -2 -52 7t-28 31q-49 -40 -103 -40zM174 435q19 0 89 35v61l-68 -3q-69 -3 -69 -46q0 -47 48 -47z
M60 300v52h298v-52h-298z" />
    <glyph glyph-name="guillemotleft" unicode="&#xab;" horiz-adv-x="439" 
d="M149 52l-107 220l106 220l63 -22l-87 -198l86 -195zM330 52l-106 220l107 220l62 -22l-87 -198l86 -195z" />
    <glyph glyph-name="logicalnot" unicode="&#xac;" 
d="M448 112v158h-403v67h475v-225h-72z" />
    <glyph glyph-name="registered" unicode="&#xae;" horiz-adv-x="828" 
d="M597 257q-60 4 -107 62q-4 3 -23 27.5t-36 47t-17 23.5q-18 -2 -30 -2h-47v-151h-59v408h135q63 0 99 -31.5t36 -94.5q0 -83 -75 -115q6 -7 27.5 -34t34 -40.5t33.5 -30t41 -22.5zM406 89q-162 0 -253.5 100.5t-91.5 265.5q0 166 100 264t263 98q165 0 254.5 -101
t89.5 -263q0 -165 -97.5 -264.5t-264.5 -99.5zM409 143q145 0 220.5 86.5t75.5 224.5q0 136 -77 222.5t-212 86.5q-141 0 -216.5 -85.5t-75.5 -221.5q0 -133 74 -223t211 -90zM337 466h51q98 0 98 76q0 43 -20 62t-65 19h-64v-157z" />
    <glyph glyph-name="macron" unicode="&#xaf;" horiz-adv-x="540" 
d="M118 669v65h299v-65h-299z" />
    <glyph glyph-name="macron" unicode="&#x2c9;" horiz-adv-x="540" 
d="M118 669v65h299v-65h-299z" />
    <glyph glyph-name="degree" unicode="&#xb0;" horiz-adv-x="325" 
d="M159 404q-75 0 -114.5 40t-39.5 118q0 69 44.5 112t113.5 43q73 0 115 -41t42 -114t-44.5 -115.5t-116.5 -42.5zM162 458q44 0 67.5 27t23.5 77q0 47 -24 74t-67 27t-67 -27t-24 -74q0 -51 25 -77.5t66 -26.5z" />
    <glyph glyph-name="plusminus" unicode="&#xb1;" 
d="M264 123v183h-183v67l183 -1v184h71l-1 -184l184 1v-67h-183v-183h-71zM81 0v68h437v-68h-437z" />
    <glyph glyph-name="twosuperior" unicode="&#xb2;" horiz-adv-x="307" 
d="M16 415v51q10 8 33 24.5t33 24t29 22t28 22.5t22.5 21t20.5 22.5t14 21.5t10 23t3 23q0 29 -18 44t-45 15q-55 0 -89 -34q-1 2 -14 20.5t-14 21.5q47 49 123 49q53 0 88 -29.5t35 -80.5q0 -27 -12 -53.5t-26.5 -45t-43 -41t-45 -34t-49.5 -31.5h181v-56h-264z" />
    <glyph glyph-name="threesuperior" unicode="&#xb3;" horiz-adv-x="301" 
d="M134 410q-54 0 -107 16q1 3 7 25.5t6 25.5q46 -13 88 -13q84 0 84 55q0 36 -26.5 50t-82.5 18v39q92 8 92 64q-1 22 -18 33.5t-43 11.5q-35 0 -71 -17q-1 3 -8.5 22t-8.5 21q49 26 98 26q50 0 83 -24.5t33 -64.5q0 -28 -16 -51t-45 -35q38 -8 59 -33.5t21 -58.5
q0 -57 -41.5 -83.5t-103.5 -26.5z" />
    <glyph glyph-name="acute" unicode="&#xb4;" horiz-adv-x="568" 
d="M209 619l-30 51l188 129l37 -60z" />
    <glyph glyph-name="mu" unicode="&#xb5;" horiz-adv-x="638" 
d="M93 -220v766h79v-336q0 -30 1.5 -48.5t7 -40t16.5 -33.5t31 -20t49 -8q62 0 175 68v418h76v-437q0 -46 51 -53l-5 -62q-15 0 -23 1q-83 8 -96 71q-102 -78 -198 -78q-54 0 -85 26v-234h-79z" />
    <glyph glyph-name="mu" unicode="&#x3bc;" horiz-adv-x="638" 
d="M93 -220v766h79v-336q0 -30 1.5 -48.5t7 -40t16.5 -33.5t31 -20t49 -8q62 0 175 68v418h76v-437q0 -46 51 -53l-5 -62q-15 0 -23 1q-83 8 -96 71q-102 -78 -198 -78q-54 0 -85 26v-234h-79z" />
    <glyph glyph-name="paragraph" unicode="&#xb6;" horiz-adv-x="594" 
d="M315 -220q-40 0 -72 12l15 68q2 0 13 -2t23 -3t22 -1q58 0 80.5 32.5t22.5 98.5v722h80v-723q0 -112 -49 -158t-135 -46zM249 269q-106 0 -163.5 55t-57.5 167q0 216 224 216h76v-438h-79z" />
    <glyph glyph-name="periodcentered" unicode="&#xb7;" horiz-adv-x="217" 
d="M107 289l-66 68l66 66l68 -66z" />
    <glyph glyph-name="periodcentered" unicode="&#x2219;" horiz-adv-x="217" 
d="M107 289l-66 68l66 66l68 -66z" />
    <glyph glyph-name="cedilla" unicode="&#xb8;" horiz-adv-x="453" 
d="M196 -240l-26 45q59 37 59 77q0 23 -24 67h77q20 -36 20 -67q2 -76 -106 -122z" />
    <glyph glyph-name="onesuperior" unicode="&#xb9;" horiz-adv-x="253" 
d="M115 415v312h-89v53q6 0 77.5 2t78.5 2v-369h-67z" />
    <glyph glyph-name="ordmasculine" unicode="&#xba;" horiz-adv-x="418" 
d="M206 384q-69 0 -107 42.5t-38 120.5q0 80 41 125t108 45q148 0 148 -167q0 -80 -42 -123t-110 -43zM210 435q85 0 85 115q0 116 -86 116t-86 -117q0 -114 87 -114zM60 300v52h298v-52h-298z" />
    <glyph glyph-name="guillemotright" unicode="&#xbb;" horiz-adv-x="439" 
d="M104 52l-62 25l86 195l-87 198l63 22l107 -220zM286 52l-62 25l86 195l-87 198l63 22l106 -220z" />
    <glyph glyph-name="onequarter" unicode="&#xbc;" horiz-adv-x="737" 
d="M119 415v312h-89v53q6 0 77.5 2t78.5 2v-369h-67zM87 76l-39 40l527 535l37 -38zM581 0v88h-169v57l132 221h101v-226h62v-52h-62v-88h-64zM465 140h116v189z" />
    <glyph glyph-name="onehalf" unicode="&#xbd;" horiz-adv-x="723" 
d="M429 0v51q10 8 33 24.5t33 24t29 22t28 22.5t22.5 21t20.5 22.5t14 21.5t10 23t3 23q0 29 -18 44t-45 15q-55 0 -89 -34l-28 42q47 49 123 49q53 0 88 -29.5t35 -80.5q0 -27 -12 -53.5t-26.5 -45t-43 -41t-45 -34t-49.5 -31.5h181v-56h-264zM119 415v312h-89v53
q6 0 77.5 2t78.5 2v-369h-67zM78 76l-39 40l527 535l37 -38z" />
    <glyph glyph-name="threequarters" unicode="&#xbe;" horiz-adv-x="736" 
d="M137 410q-54 0 -107 16q0 3 6 25.5t7 25.5q46 -13 88 -13q84 0 84 55q0 36 -26.5 50t-82.5 18v39q92 8 92 64q-1 22 -18 33.5t-43 11.5q-35 0 -71 -17q-1 3 -8.5 22t-8.5 21q49 26 98 26q50 0 83 -24.5t33 -64.5q0 -28 -16 -51t-45 -35q38 -8 59 -33.5t21 -58.5
q0 -57 -41.5 -83.5t-103.5 -26.5zM97 76l-39 40l527 535l37 -38zM580 0v88h-169v57l132 221h101v-226h62v-52h-62v-88h-64zM464 140h116v189z" />
    <glyph glyph-name="questiondown" unicode="&#xbf;" horiz-adv-x="390" 
d="M310 -164q-102 8 -173.5 57.5t-71.5 143.5q0 34 16.5 66t40 57.5t47.5 49t40.5 50t16.5 52.5q0 25 -7 58l68 12q12 -41 12 -72q0 -45 -24 -86t-52.5 -66.5t-52.5 -56.5t-24 -58q0 -62 51.5 -97t128.5 -42zM203 458v87h89v-87h-89z" />
    <glyph glyph-name="Agrave" unicode="&#xc0;" horiz-adv-x="671" 
d="M13 0l282 707h111l255 -707h-88l-93 264h-280l-104 -264h-83zM226 330h231l-110 319zM406 747l-224 65l22 71l221 -80z" />
    <glyph glyph-name="Aacute" unicode="&#xc1;" horiz-adv-x="671" 
d="M13 0l282 707h111l255 -707h-88l-93 264h-280l-104 -264h-83zM226 330h231l-110 319zM282 747l-18 56l221 80l23 -71z" />
    <glyph glyph-name="Acircumflex" unicode="&#xc2;" horiz-adv-x="671" 
d="M13 0l282 707h111l255 -707h-88l-93 264h-280l-104 -264h-83zM226 330h231l-110 319zM199 743l-28 55l180 78l172 -78l-27 -55l-145 61z" />
    <glyph glyph-name="Atilde" unicode="&#xc3;" horiz-adv-x="671" 
d="M13 0l282 707h111l255 -707h-88l-93 264h-280l-104 -264h-83zM226 330h231l-110 319zM407 754q-24 0 -63.5 18.5t-60.5 18.5q-38 0 -70 -24l-30 45q45 45 105 45q28 0 66.5 -18t56.5 -18q31 0 70 27l31 -44q-45 -50 -105 -50z" />
    <glyph glyph-name="Adieresis" unicode="&#xc4;" horiz-adv-x="671" 
d="M13 0l282 707h111l255 -707h-88l-93 264h-280l-104 -264h-83zM226 330h231l-110 319zM240 747l-58 58l58 58l57 -58zM452 747l-57 58l57 58l58 -58z" />
    <glyph glyph-name="Aring" unicode="&#xc5;" horiz-adv-x="671" 
d="M13 0l272 683q-55 26 -55 91q0 53 35 82t84 29q46 0 83 -27t37 -82q0 -66 -55 -93l247 -683h-88l-93 264h-280l-104 -264h-83zM226 330h231l-62 176l-48 143zM350 713q30 0 47.5 16.5t17.5 45.5q0 28 -19.5 46t-46.5 18q-30 0 -47.5 -16.5t-17.5 -44.5q0 -29 18.5 -47
t47.5 -18z" />
    <glyph glyph-name="AE" unicode="&#xc6;" horiz-adv-x="918" 
d="M-3 0l376 707h471v-67h-313v-251h291v-68h-291v-253h337v-68h-420v311h-197l-161 -311h-93zM284 378h164v262h-28z" />
    <glyph glyph-name="Ccedilla" unicode="&#xc7;" horiz-adv-x="649" 
d="M422 -12q-171 0 -268.5 99.5t-97.5 261.5q0 169 95.5 268.5t266.5 99.5q123 0 205 -36l-23 -66l-16 5q-16 5 -22.5 7t-25 6.5t-33 6t-37 3.5t-46.5 2q-121 0 -199.5 -70.5t-78.5 -215.5q0 -150 83.5 -225t214.5 -75q84 0 166 26l20 -66q-76 -31 -204 -31zM362 -240
l-26 45q59 37 59 77q0 23 -24 67h77q20 -36 20 -67q2 -76 -106 -122z" />
    <glyph glyph-name="Egrave" unicode="&#xc8;" horiz-adv-x="580" 
d="M111 0v707h396v-67h-314v-251h292v-68h-292v-253h337v-68h-419zM393 747l-224 65l22 71l221 -80z" />
    <glyph glyph-name="Eacute" unicode="&#xc9;" horiz-adv-x="580" 
d="M245 747l-18 56l221 80l23 -71zM111 0v707h396v-67h-314v-251h292v-68h-292v-253h337v-68h-419z" />
    <glyph glyph-name="Ecircumflex" unicode="&#xca;" horiz-adv-x="580" 
d="M162 743l-28 55l180 78l172 -78l-27 -55l-145 61zM111 0v707h396v-67h-314v-251h292v-68h-292v-253h337v-68h-419z" />
    <glyph glyph-name="Edieresis" unicode="&#xcb;" horiz-adv-x="580" 
d="M207 747l-58 58l58 58l57 -58zM419 747l-57 58l57 58l58 -58zM111 0v707h396v-67h-314v-251h292v-68h-292v-253h337v-68h-419z" />
    <glyph glyph-name="Igrave" unicode="&#xcc;" horiz-adv-x="305" 
d="M111 0v707h82v-707h-82zM199 747l-224 65l22 71l221 -80z" />
    <glyph glyph-name="Iacute" unicode="&#xcd;" horiz-adv-x="305" 
d="M111 0v707h82v-707h-82zM107 747l-18 56l221 80l23 -71z" />
    <glyph glyph-name="Icircumflex" unicode="&#xce;" horiz-adv-x="305" 
d="M111 0v707h82v-707h-82zM4 743l-28 55l180 78l172 -78l-27 -55l-145 61z" />
    <glyph glyph-name="Idieresis" unicode="&#xcf;" horiz-adv-x="305" 
d="M111 0v707h82v-707h-82zM46 747l-58 58l58 58l57 -58zM258 747l-57 58l57 58l58 -58z" />
    <glyph glyph-name="Eth" unicode="&#xd0;" horiz-adv-x="757" 
d="M693 356q0 -181 -101.5 -268.5t-284.5 -87.5h-196v320h-80v63h80v324h190q176 0 284 -91.5t108 -259.5zM612 345q0 146 -84 220t-230 74h-106v-256h168v-63h-168v-252h126q140 0 217 70.5t77 206.5z" />
    <glyph glyph-name="Ntilde" unicode="&#xd1;" horiz-adv-x="782" 
d="M111 0v707h118l361 -637l-3 88v549h84v-707h-129l-353 628l4 -73v-555h-82zM452 754q-24 0 -63.5 18.5t-60.5 18.5q-38 0 -70 -24l-30 45q45 45 105 45q28 0 66.5 -18t56.5 -18q31 0 70 27l31 -44q-45 -50 -105 -50z" />
    <glyph glyph-name="Ograve" unicode="&#xd2;" horiz-adv-x="821" 
d="M402 -12q-162 0 -254 101t-92 266t100.5 263.5t264.5 98.5q165 0 254 -101.5t89 -262.5q0 -164 -97 -264.5t-265 -100.5zM405 56q135 0 206 83t71 215q0 130 -71.5 212.5t-198.5 82.5q-132 0 -203 -81.5t-71 -211.5q0 -128 69.5 -214t197.5 -86zM491 747l-224 65l22 71
l221 -80z" />
    <glyph glyph-name="Oacute" unicode="&#xd3;" horiz-adv-x="821" 
d="M321 747l-18 56l221 80l23 -71zM402 -12q-162 0 -254 101t-92 266t100.5 263.5t264.5 98.5q165 0 254 -101.5t89 -262.5q0 -164 -97 -264.5t-265 -100.5zM405 56q135 0 206 83t71 215q0 130 -71.5 212.5t-198.5 82.5q-132 0 -203 -81.5t-71 -211.5q0 -128 69.5 -214
t197.5 -86z" />
    <glyph glyph-name="Ocircumflex" unicode="&#xd4;" horiz-adv-x="821" 
d="M262 743l-28 55l180 78l172 -78l-27 -55l-145 61zM402 -12q-162 0 -254 101t-92 266t100.5 263.5t264.5 98.5q165 0 254 -101.5t89 -262.5q0 -164 -97 -264.5t-265 -100.5zM405 56q135 0 206 83t71 215q0 130 -71.5 212.5t-198.5 82.5q-132 0 -203 -81.5t-71 -211.5
q0 -128 69.5 -214t197.5 -86z" />
    <glyph glyph-name="Otilde" unicode="&#xd5;" horiz-adv-x="821" 
d="M402 -12q-162 0 -254 101t-92 266t100.5 263.5t264.5 98.5q165 0 254 -101.5t89 -262.5q0 -164 -97 -264.5t-265 -100.5zM405 56q135 0 206 83t71 215q0 130 -71.5 212.5t-198.5 82.5q-132 0 -203 -81.5t-71 -211.5q0 -128 69.5 -214t197.5 -86zM471 754
q-24 0 -63.5 18.5t-60.5 18.5q-38 0 -70 -24l-30 45q45 45 105 45q28 0 66.5 -18t56.5 -18q31 0 70 27l31 -44q-45 -50 -105 -50z" />
    <glyph glyph-name="Odieresis" unicode="&#xd6;" horiz-adv-x="821" 
d="M299 747l-58 58l58 58l57 -58zM511 747l-57 58l57 58l58 -58zM402 -12q-162 0 -254 101t-92 266t100.5 263.5t264.5 98.5q165 0 254 -101.5t89 -262.5q0 -164 -97 -264.5t-265 -100.5zM405 56q135 0 206 83t71 215q0 130 -71.5 212.5t-198.5 82.5q-132 0 -203 -81.5
t-71 -211.5q0 -128 69.5 -214t197.5 -86z" />
    <glyph glyph-name="multiply" unicode="&#xd7;" horiz-adv-x="593" 
d="M474 81l-180 180l-173 -173l-48 48l173 173l-172 171l47 47l171 -172l176 176l49 -48l-178 -177l181 -179z" />
    <glyph glyph-name="Oslash" unicode="&#xd8;" horiz-adv-x="821" 
d="M72 -30l-38 39l97 100q-75 98 -75 246q0 167 100 264.5t265 97.5q137 0 226 -75l94 97l40 -37q1 -1 -94 -100q77 -95 77 -249q0 -165 -97 -265t-265 -100q-143 0 -233 81zM405 56q135 0 206 83t71 215q0 110 -54 187q-293 -301 -405 -415q72 -70 182 -70zM189 170
l402 415q-70 64 -179 64q-132 0 -203 -81.5t-71 -211.5q0 -110 51 -186z" />
    <glyph glyph-name="Ugrave" unicode="&#xd9;" horiz-adv-x="770" 
d="M387 -12q-56 0 -103.5 12t-90 39.5t-67 80t-24.5 126.5v461h85v-454q0 -194 200 -194q201 0 201 217v431h80v-434q0 -81 -25.5 -139.5t-68.5 -88.5t-89 -43.5t-98 -13.5zM452 747l-224 65l22 71l221 -80z" />
    <glyph glyph-name="Uacute" unicode="&#xda;" horiz-adv-x="770" 
d="M322 747l-18 56l221 80l23 -71zM387 -12q-56 0 -103.5 12t-90 39.5t-67 80t-24.5 126.5v461h85v-454q0 -194 200 -194q201 0 201 217v431h80v-434q0 -81 -25.5 -139.5t-68.5 -88.5t-89 -43.5t-98 -13.5z" />
    <glyph glyph-name="Ucircumflex" unicode="&#xdb;" horiz-adv-x="770" 
d="M242 743l-28 55l180 78l172 -78l-27 -55l-145 61zM387 -12q-56 0 -103.5 12t-90 39.5t-67 80t-24.5 126.5v461h85v-454q0 -194 200 -194q201 0 201 217v431h80v-434q0 -81 -25.5 -139.5t-68.5 -88.5t-89 -43.5t-98 -13.5z" />
    <glyph glyph-name="Udieresis" unicode="&#xdc;" horiz-adv-x="770" 
d="M281 747l-58 58l58 58l57 -58zM493 747l-57 58l57 58l58 -58zM387 -12q-56 0 -103.5 12t-90 39.5t-67 80t-24.5 126.5v461h85v-454q0 -194 200 -194q201 0 201 217v431h80v-434q0 -81 -25.5 -139.5t-68.5 -88.5t-89 -43.5t-98 -13.5z" />
    <glyph glyph-name="Yacute" unicode="&#xdd;" horiz-adv-x="568" 
d="M236 0v268l-231 439h92l183 -366l195 366h89l-246 -439v-268h-82zM216 747l-18 56l221 80l23 -71z" />
    <glyph glyph-name="Thorn" unicode="&#xde;" horiz-adv-x="570" 
d="M99 0v707h83v-130h149q108 0 168.5 -53.5t60.5 -162.5q0 -100 -71 -161.5t-210 -61.5h-19v69h25q187 0 187 149q0 80 -39.5 117t-123.5 37h-126v-510h-84z" />
    <glyph glyph-name="germandbls" unicode="&#xdf;" horiz-adv-x="620" 
d="M95 -213v785q0 107 50.5 154.5t145.5 47.5q29 0 55.5 -6.5t55 -21.5t45.5 -46.5t17 -76.5q0 -34 -18.5 -68t-41 -56t-41 -48t-18.5 -47q0 -32 23 -57t56 -43.5t66.5 -39t56.5 -52.5t23 -75q0 -40 -15 -69.5t-41 -45.5t-54.5 -23.5t-60.5 -7.5q-101 0 -151 22l14 64
q93 -18 122 -18q111 0 111 69q0 31 -23.5 55t-56.5 41.5t-66.5 38t-57 56t-23.5 83.5q0 31 17.5 61.5t39 51.5t39 50.5t17.5 59.5q0 42 -25.5 62t-64.5 20q-68 0 -92.5 -34t-24.5 -102v-784h-79z" />
    <glyph glyph-name="agrave" unicode="&#xe0;" horiz-adv-x="570" 
d="M198 -8q-74 0 -114.5 40t-40.5 115q0 47 19.5 81t52.5 50.5t66 24t71 8.5l130 2v73q0 62 -31.5 83t-108.5 21q-53 0 -135 -25l-17 62q77 32 175 32q95 0 144.5 -34.5t49.5 -112.5v-303q0 -47 51 -53l-5 -62h-14q-38 0 -68.5 17.5t-34.5 51.5q-2 -1 -18.5 -13.5
t-29.5 -19.5t-35 -17.5t-49 -15.5t-58 -5zM218 56q59 0 164 60v142l-131 -5q-62 -2 -97 -29.5t-35 -69.5q0 -98 99 -98zM334 619l-193 120l36 60l189 -129z" />
    <glyph glyph-name="aacute" unicode="&#xe1;" horiz-adv-x="570" 
d="M198 -8q-74 0 -114.5 40t-40.5 115q0 47 19.5 81t52.5 50.5t66 24t71 8.5l130 2v73q0 62 -31.5 83t-108.5 21q-53 0 -135 -25l-17 62q77 32 175 32q95 0 144.5 -34.5t49.5 -112.5v-303q0 -47 51 -53l-5 -62h-14q-38 0 -68.5 17.5t-34.5 51.5q-2 -1 -18.5 -13.5
t-29.5 -19.5t-35 -17.5t-49 -15.5t-58 -5zM218 56q59 0 164 60v142l-131 -5q-62 -2 -97 -29.5t-35 -69.5q0 -98 99 -98zM212 619l-30 51l188 129l37 -60z" />
    <glyph glyph-name="acircumflex" unicode="&#xe2;" horiz-adv-x="570" 
d="M198 -8q-74 0 -114.5 40t-40.5 115q0 47 19.5 81t52.5 50.5t66 24t71 8.5l130 2v73q0 62 -31.5 83t-108.5 21q-53 0 -135 -25l-17 62q77 32 175 32q95 0 144.5 -34.5t49.5 -112.5v-303q0 -47 51 -53l-5 -62h-14q-38 0 -68.5 17.5t-34.5 51.5q-2 -1 -18.5 -13.5
t-29.5 -19.5t-35 -17.5t-49 -15.5t-58 -5zM218 56q59 0 164 60v142l-131 -5q-62 -2 -97 -29.5t-35 -69.5q0 -98 99 -98zM415 627l-148 85l-148 -84l-33 49l181 110l179 -112z" />
    <glyph glyph-name="atilde" unicode="&#xe3;" horiz-adv-x="570" 
d="M198 -8q-74 0 -114.5 40t-40.5 115q0 47 19.5 81t52.5 50.5t66 24t71 8.5l130 2v73q0 62 -31.5 83t-108.5 21q-53 0 -135 -25l-17 62q77 32 175 32q95 0 144.5 -34.5t49.5 -112.5v-303q0 -47 51 -53l-5 -62h-14q-38 0 -68.5 17.5t-34.5 51.5q-2 -1 -18.5 -13.5
t-29.5 -19.5t-35 -17.5t-49 -15.5t-58 -5zM218 56q59 0 164 60v142l-131 -5q-62 -2 -97 -29.5t-35 -69.5q0 -98 99 -98zM331 645q-24 0 -63 18.5t-61 18.5q-39 0 -69 -25l-31 46q49 45 105 45q28 0 66.5 -18.5t56.5 -18.5q31 0 71 28l30 -44q-41 -50 -105 -50z" />
    <glyph glyph-name="adieresis" unicode="&#xe4;" horiz-adv-x="570" 
d="M198 -8q-74 0 -114.5 40t-40.5 115q0 47 19.5 81t52.5 50.5t66 24t71 8.5l130 2v73q0 62 -31.5 83t-108.5 21q-53 0 -135 -25l-17 62q77 32 175 32q95 0 144.5 -34.5t49.5 -112.5v-303q0 -47 51 -53l-5 -62h-14q-38 0 -68.5 17.5t-34.5 51.5q-2 -1 -18.5 -13.5
t-29.5 -19.5t-35 -17.5t-49 -15.5t-58 -5zM218 56q59 0 164 60v142l-131 -5q-62 -2 -97 -29.5t-35 -69.5q0 -98 99 -98zM163 659l-56 57l56 56l56 -56zM376 659l-56 57l56 56l56 -56z" />
    <glyph glyph-name="aring" unicode="&#xe5;" horiz-adv-x="570" 
d="M198 -8q-74 0 -114.5 40t-40.5 115q0 47 19.5 81t52.5 50.5t66 24t71 8.5l130 2v73q0 62 -31.5 83t-108.5 21q-53 0 -135 -25l-17 62q77 32 175 32q95 0 144.5 -34.5t49.5 -112.5v-303q0 -47 51 -53l-5 -62h-14q-38 0 -68.5 17.5t-34.5 51.5q-2 -1 -18.5 -13.5
t-29.5 -19.5t-35 -17.5t-49 -15.5t-58 -5zM218 56q59 0 164 60v142l-131 -5q-62 -2 -97 -29.5t-35 -69.5q0 -98 99 -98zM284 606q-50 0 -85 26.5t-35 79.5q0 51 35 80.5t83 29.5q46 0 82.5 -26.5t36.5 -81.5q0 -50 -33 -79t-84 -29zM283 650q30 0 47.5 17t18.5 46
q0 28 -20 46t-47 18q-30 0 -48 -16.5t-18 -45.5t19 -47t48 -18z" />
    <glyph glyph-name="ae" unicode="&#xe6;" horiz-adv-x="865" 
d="M638 -9q-159 0 -221 95q-124 -94 -219 -94q-73 0 -113.5 40t-40.5 114q0 47 19.5 80.5t52.5 50.5t66 24t71 8q123 3 129 3v75q0 65 -30.5 84.5t-108.5 19.5q-17 0 -39.5 -3t-38 -6.5t-35 -8.5t-23.5 -6l-16 60q77 32 174 32q139 0 177 -78q62 78 182 78q193 0 193 -261
v-29l-359 -14q1 -62 16 -102.5t44.5 -60t62 -26.5t81.5 -7q47 0 134 19l14 -64q-55 -23 -172 -23zM216 57q32 0 88.5 25t92.5 48q-15 49 -17 124l-126 -4q-69 -1 -102 -27.5t-33 -68.5q0 -55 25 -76t72 -21zM461 316l275 13q0 78 -32.5 124.5t-91.5 46.5q-61 0 -103.5 -45.5
t-47.5 -138.5z" />
    <glyph glyph-name="ccedilla" unicode="&#xe7;" horiz-adv-x="498" 
d="M333 -9q-146 0 -212 66.5t-66 215.5q0 132 69.5 209.5t186.5 77.5q91 0 149 -31l-24 -62q-65 27 -127 27q-79 0 -126 -57.5t-47 -160.5q0 -115 45 -166t160 -51q20 0 40 2.5t40 6.5l25 5l13 -64q-60 -18 -126 -18zM255 -240l-26 45q59 37 59 77q0 23 -24 67h77
q20 -36 20 -67q2 -76 -106 -122z" />
    <glyph glyph-name="egrave" unicode="&#xe8;" horiz-adv-x="543" 
d="M313 -12q-126 0 -192 63t-66 212q0 156 66 226.5t178 70.5q197 0 197 -273v-29h-361q1 -63 16 -104.5t44.5 -62t62 -28t79.5 -7.5q56 0 135 23l14 -65q-67 -26 -173 -26zM136 317h277q0 85 -31.5 134.5t-94.5 49.5t-103.5 -47t-47.5 -137zM348 619l-193 120l36 60
l189 -129z" />
    <glyph glyph-name="eacute" unicode="&#xe9;" horiz-adv-x="543" 
d="M226 619l-30 51l188 129l37 -60zM313 -12q-126 0 -192 63t-66 212q0 156 66 226.5t178 70.5q197 0 197 -273v-29h-361q1 -63 16 -104.5t44.5 -62t62 -28t79.5 -7.5q56 0 135 23l14 -65q-67 -26 -173 -26zM136 317h277q0 85 -31.5 134.5t-94.5 49.5t-103.5 -47t-47.5 -137
z" />
    <glyph glyph-name="ecircumflex" unicode="&#xea;" horiz-adv-x="543" 
d="M430 627l-148 85l-148 -84l-33 49l181 110l179 -112zM313 -12q-126 0 -192 63t-66 212q0 156 66 226.5t178 70.5q197 0 197 -273v-29h-361q1 -63 16 -104.5t44.5 -62t62 -28t79.5 -7.5q56 0 135 23l14 -65q-67 -26 -173 -26zM136 317h277q0 85 -31.5 134.5t-94.5 49.5
t-103.5 -47t-47.5 -137z" />
    <glyph glyph-name="edieresis" unicode="&#xeb;" horiz-adv-x="543" 
d="M174 659l-56 57l56 56l56 -56zM387 659l-56 57l56 56l56 -56zM313 -12q-126 0 -192 63t-66 212q0 156 66 226.5t178 70.5q197 0 197 -273v-29h-361q1 -63 16 -104.5t44.5 -62t62 -28t79.5 -7.5q56 0 135 23l14 -65q-67 -26 -173 -26zM136 317h277q0 85 -31.5 134.5
t-94.5 49.5t-103.5 -47t-47.5 -137z" />
    <glyph glyph-name="igrave" unicode="&#xec;" horiz-adv-x="267" 
d="M92 0v546h81v-546h-81zM174 619l-193 120l36 60l189 -129z" />
    <glyph glyph-name="iacute" unicode="&#xed;" horiz-adv-x="267" 
d="M78 619l-30 51l188 129l37 -60zM92 0v546h81v-546h-81z" />
    <glyph glyph-name="icircumflex" unicode="&#xee;" horiz-adv-x="267" 
d="M285 627l-148 85l-148 -84l-33 49l181 110l179 -112zM92 0v546h81v-546h-81z" />
    <glyph glyph-name="idieresis" unicode="&#xef;" horiz-adv-x="267" 
d="M27 659l-56 57l56 56l56 -56zM240 659l-56 57l56 56l56 -56zM92 0v546h81v-546h-81z" />
    <glyph glyph-name="eth" unicode="&#xf0;" horiz-adv-x="604" 
d="M299 -9q-115 0 -179.5 70.5t-64.5 203.5q0 134 69.5 207.5t179.5 73.5q66 0 119 -35q-35 72 -99 127l-94 -65l-32 40l84 58q-38 27 -82 47l43 53q56 -25 100 -55l95 66l32 -40l-84 -58q162 -142 162 -402q0 -134 -64 -212.5t-185 -78.5zM305 56q163 0 163 213q0 43 -8 79
t-26 67t-52 48.5t-81 17.5q-89 0 -127 -60.5t-38 -150.5q0 -95 39.5 -154.5t129.5 -59.5z" />
    <glyph glyph-name="ntilde" unicode="&#xf1;" horiz-adv-x="619" 
d="M93 0v546h79v-62q33 23 55 36.5t60 26.5t75 13q46 0 79 -13.5t50.5 -32t27 -49.5t11.5 -54.5t2 -58.5v-352h-77v337q0 80 -22 116.5t-91 36.5q-29 0 -65.5 -13.5t-53 -23t-51.5 -30.5v-423h-79zM375 645q-24 0 -63 18.5t-61 18.5q-39 0 -69 -25l-31 46q49 45 105 45
q28 0 66.5 -18.5t56.5 -18.5q31 0 71 28l30 -44q-41 -50 -105 -50z" />
    <glyph glyph-name="ograve" unicode="&#xf2;" horiz-adv-x="604" 
d="M299 -12q-114 0 -179 73t-65 206q0 138 69.5 215.5t181.5 77.5q120 0 181 -74t61 -213t-68.5 -212t-180.5 -73zM305 53q163 0 163 220q0 42 -7.5 78t-24.5 70t-51 54t-82 20q-47 0 -81.5 -20t-52 -53.5t-25.5 -70.5t-8 -79q0 -96 39.5 -157.5t129.5 -61.5zM371 619
l-193 120l36 60l189 -129z" />
    <glyph glyph-name="oacute" unicode="&#xf3;" horiz-adv-x="604" 
d="M234 619l-30 51l188 129l37 -60zM299 -12q-114 0 -179 73t-65 206q0 138 69.5 215.5t181.5 77.5q120 0 181 -74t61 -213t-68.5 -212t-180.5 -73zM305 53q163 0 163 220q0 42 -7.5 78t-24.5 70t-51 54t-82 20q-47 0 -81.5 -20t-52 -53.5t-25.5 -70.5t-8 -79
q0 -96 39.5 -157.5t129.5 -61.5z" />
    <glyph glyph-name="ocircumflex" unicode="&#xf4;" horiz-adv-x="604" 
d="M451 627l-148 85l-148 -84l-33 49l181 110l179 -112zM299 -12q-114 0 -179 73t-65 206q0 138 69.5 215.5t181.5 77.5q120 0 181 -74t61 -213t-68.5 -212t-180.5 -73zM305 53q163 0 163 220q0 42 -7.5 78t-24.5 70t-51 54t-82 20q-47 0 -81.5 -20t-52 -53.5t-25.5 -70.5
t-8 -79q0 -96 39.5 -157.5t129.5 -61.5z" />
    <glyph glyph-name="otilde" unicode="&#xf5;" horiz-adv-x="604" 
d="M299 -12q-114 0 -179 73t-65 206q0 138 69.5 215.5t181.5 77.5q120 0 181 -74t61 -213t-68.5 -212t-180.5 -73zM305 53q163 0 163 220q0 42 -7.5 78t-24.5 70t-51 54t-82 20q-47 0 -81.5 -20t-52 -53.5t-25.5 -70.5t-8 -79q0 -96 39.5 -157.5t129.5 -61.5zM360 645
q-24 0 -63 18.5t-61 18.5q-39 0 -69 -25l-31 46q50 45 105 45q28 0 66.5 -18.5t56.5 -18.5q31 0 71 28l30 -44q-41 -50 -105 -50z" />
    <glyph glyph-name="odieresis" unicode="&#xf6;" horiz-adv-x="604" 
d="M195 659l-56 57l56 56l56 -56zM408 659l-56 57l56 56l56 -56zM299 -12q-114 0 -179 73t-65 206q0 138 69.5 215.5t181.5 77.5q120 0 181 -74t61 -213t-68.5 -212t-180.5 -73zM305 53q163 0 163 220q0 42 -7.5 78t-24.5 70t-51 54t-82 20q-47 0 -81.5 -20t-52 -53.5
t-25.5 -70.5t-8 -79q0 -96 39.5 -157.5t129.5 -61.5z" />
    <glyph glyph-name="divide" unicode="&#xf7;" 
d="M254 68v78h80v-78h-80zM45 270v66h509v-66h-509zM254 461v79h80v-79h-80z" />
    <glyph glyph-name="oslash" unicode="&#xf8;" horiz-adv-x="604" 
d="M70 -31l-35 34l69 80q-49 70 -49 184q0 138 69 214.5t182 76.5q102 0 163 -55l59 69l36 -33l-63 -73q47 -71 47 -193q0 -139 -68.5 -210.5t-180.5 -71.5q-100 0 -163 55zM305 56q163 0 163 217q0 79 -25 129l-257 -300q44 -46 119 -46zM160 146l258 300q-43 48 -115 48
q-47 0 -81.5 -19.5t-52 -53.5t-25.5 -70.5t-8 -78.5q0 -78 24 -126z" />
    <glyph glyph-name="ugrave" unicode="&#xf9;" horiz-adv-x="616" 
d="M253 -12q-44 0 -75.5 13.5t-48.5 32.5t-26.5 50t-11.5 55.5t-2 58.5v348h79v-332q0 -31 1.5 -50t7 -41t16.5 -34t31 -20.5t49 -8.5q62 0 175 68v418h76v-546h-76v64q-1 -1 -22 -14.5t-29 -18t-29 -15t-35.5 -15t-36.5 -9t-43 -4.5zM358 619l-193 120l36 60l189 -129z" />
    <glyph glyph-name="uacute" unicode="&#xfa;" horiz-adv-x="616" 
d="M262 620l-30 51l188 129l37 -60zM253 -12q-44 0 -75.5 13.5t-48.5 32.5t-26.5 50t-11.5 55.5t-2 58.5v348h79v-332q0 -31 1.5 -50t7 -41t16.5 -34t31 -20.5t49 -8.5q62 0 175 68v418h76v-546h-76v64q-1 -1 -22 -14.5t-29 -18t-29 -15t-35.5 -15t-36.5 -9t-43 -4.5z" />
    <glyph glyph-name="ucircumflex" unicode="&#xfb;" horiz-adv-x="616" 
d="M460 627l-148 85l-148 -84l-33 49l181 110l179 -112zM253 -12q-44 0 -75.5 13.5t-48.5 32.5t-26.5 50t-11.5 55.5t-2 58.5v348h79v-332q0 -31 1.5 -50t7 -41t16.5 -34t31 -20.5t49 -8.5q62 0 175 68v418h76v-546h-76v64q-1 -1 -22 -14.5t-29 -18t-29 -15t-35.5 -15
t-36.5 -9t-43 -4.5z" />
    <glyph glyph-name="udieresis" unicode="&#xfc;" horiz-adv-x="616" 
d="M201 659l-56 57l56 56l56 -56zM414 659l-56 57l56 56l56 -56zM253 -12q-44 0 -75.5 13.5t-48.5 32.5t-26.5 50t-11.5 55.5t-2 58.5v348h79v-332q0 -31 1.5 -50t7 -41t16.5 -34t31 -20.5t49 -8.5q62 0 175 68v418h76v-546h-76v64q-1 -1 -22 -14.5t-29 -18t-29 -15
t-35.5 -15t-36.5 -9t-43 -4.5z" />
    <glyph glyph-name="yacute" unicode="&#xfd;" horiz-adv-x="517" 
d="M156 -220l75 220h-37l-177 546h86l119 -390l30 -98l32 96l135 392h81l-267 -766h-77zM209 619l-30 51l188 129l37 -60z" />
    <glyph glyph-name="thorn" unicode="&#xfe;" horiz-adv-x="601" 
d="M93 -220v974h77v-253q75 54 153 54q106 0 164 -69t58 -197q0 -82 -21 -142t-59 -93.5t-83 -48.5t-99 -15q-59 0 -113 8v-218h-77zM286 55q86 0 131.5 59.5t45.5 154.5q0 47 -6.5 83t-22.5 68.5t-48 49.5t-79 17q-35 0 -75.5 -17t-61.5 -32v-372q4 -1 24 -4t41.5 -5
t50.5 -2z" />
    <glyph glyph-name="ydieresis" unicode="&#xff;" horiz-adv-x="517" 
d="M156 -220l75 220h-37l-177 546h86l119 -390l30 -98l32 96l135 392h81l-267 -766h-77zM147 659l-56 57l56 56l56 -56zM360 659l-56 57l56 56l56 -56z" />
    <glyph glyph-name="Amacron" unicode="&#x100;" horiz-adv-x="671" 
d="M13 0l282 707h111l255 -707h-88l-93 264h-280l-104 -264h-83zM226 330h231l-110 319zM199 786v65h299v-65h-299z" />
    <glyph glyph-name="amacron" unicode="&#x101;" horiz-adv-x="570" 
d="M198 -8q-74 0 -114.5 40t-40.5 115q0 47 19.5 81t52.5 50.5t66 24t71 8.5l130 2v73q0 62 -31.5 83t-108.5 21q-53 0 -135 -25l-17 62q77 32 175 32q95 0 144.5 -34.5t49.5 -112.5v-303q0 -47 51 -53l-5 -62h-14q-38 0 -68.5 17.5t-34.5 51.5q-2 -1 -18.5 -13.5
t-29.5 -19.5t-35 -17.5t-49 -15.5t-58 -5zM218 56q59 0 164 60v142l-131 -5q-62 -2 -97 -29.5t-35 -69.5q0 -98 99 -98zM132 669v65h299v-65h-299z" />
    <glyph glyph-name="Abreve" unicode="&#x102;" horiz-adv-x="671" 
d="M13 0l282 707h111l255 -707h-88l-93 264h-280l-104 -264h-83zM226 330h231l-110 319zM346 753q-110 0 -165 85l43 38q51 -59 125 -59q75 0 124 59l41 -36q-54 -87 -168 -87z" />
    <glyph glyph-name="abreve" unicode="&#x103;" horiz-adv-x="570" 
d="M198 -8q-74 0 -114.5 40t-40.5 115q0 47 19.5 81t52.5 50.5t66 24t71 8.5l130 2v73q0 62 -31.5 83t-108.5 21q-53 0 -135 -25l-17 62q77 32 175 32q95 0 144.5 -34.5t49.5 -112.5v-303q0 -47 51 -53l-5 -62h-14q-38 0 -68.5 17.5t-34.5 51.5q-2 -1 -18.5 -13.5
t-29.5 -19.5t-35 -17.5t-49 -15.5t-58 -5zM218 56q59 0 164 60v142l-131 -5q-62 -2 -97 -29.5t-35 -69.5q0 -98 99 -98zM280 644q-110 0 -165 85l43 38q51 -59 125 -59q75 0 124 59l41 -36q-54 -87 -168 -87z" />
    <glyph glyph-name="Aogonek" unicode="&#x104;" horiz-adv-x="671" 
d="M682 -210q-30 -16 -82 -16q-121 0 -121 102q0 58 92 130l-91 258h-280l-104 -264h-83l282 707h111l255 -707q-104 -65 -104 -114q0 -27 16 -37t46 -10q29 0 45 8zM457 330l-63 182l-47 137l-52 -140l-69 -179h231z" />
    <glyph glyph-name="aogonek" unicode="&#x105;" horiz-adv-x="570" 
d="M529 -210q-28 -16 -82 -16q-117 0 -117 102q0 65 98 130q-16 8 -27.5 23.5t-12.5 33.5q-2 -1 -18.5 -13.5t-29.5 -19.5t-35 -17.5t-49 -15.5t-58 -5q-74 0 -114.5 39.5t-40.5 114.5q0 47 19.5 81t52.5 50.5t66 24t71 7.5l130 3v75q0 62 -31.5 82.5t-108.5 20.5
q-53 0 -135 -25l-17 62q80 32 175 32q91 0 142.5 -32.5t51.5 -112.5v-305q0 -48 51 -53l-5 -57q-30 -22 -44 -33t-35.5 -36t-21.5 -44q0 -27 16 -37t46 -10q29 0 45 8zM382 116v141l-131 -5q-66 -3 -98.5 -30t-32.5 -68q0 -53 24 -75.5t71 -22.5q62 0 167 60z" />
    <glyph glyph-name="Cacute" unicode="&#x106;" horiz-adv-x="649" 
d="M325 747l-18 56l221 80l23 -71zM422 -12q-171 0 -268.5 99.5t-97.5 261.5q0 169 95.5 268.5t266.5 99.5q123 0 205 -36l-23 -66l-16 5q-16 5 -22.5 7t-25 6.5t-33 6t-37 3.5t-46.5 2q-121 0 -199.5 -70.5t-78.5 -215.5q0 -150 83.5 -225t214.5 -75q84 0 166 26l20 -66
q-76 -31 -204 -31z" />
    <glyph glyph-name="cacute" unicode="&#x107;" horiz-adv-x="498" 
d="M232 619l-30 51l188 129l37 -60zM333 -9q-146 0 -212 66.5t-66 215.5q0 132 69.5 209.5t186.5 77.5q91 0 149 -31l-24 -62q-65 27 -127 27q-79 0 -126 -57.5t-47 -160.5q0 -115 45 -166t160 -51q20 0 40 2.5t40 6.5l25 5l13 -64q-60 -18 -126 -18z" />
    <glyph glyph-name="Ccircumflex" unicode="&#x108;" horiz-adv-x="649" 
d="M272 743l-28 55l180 78l172 -78l-27 -55l-145 61zM422 -12q-171 0 -268.5 99.5t-97.5 261.5q0 169 95.5 268.5t266.5 99.5q123 0 205 -36l-23 -66l-16 5q-16 5 -22.5 7t-25 6.5t-33 6t-37 3.5t-46.5 2q-121 0 -199.5 -70.5t-78.5 -215.5q0 -150 83.5 -225t214.5 -75
q84 0 166 26l20 -66q-76 -31 -204 -31z" />
    <glyph glyph-name="ccircumflex" unicode="&#x109;" horiz-adv-x="498" 
d="M453 627l-148 85l-148 -84l-33 49l181 110l179 -112zM333 -9q-146 0 -212 66.5t-66 215.5q0 132 69.5 209.5t186.5 77.5q91 0 149 -31l-24 -62q-65 27 -127 27q-79 0 -126 -57.5t-47 -160.5q0 -115 45 -166t160 -51q20 0 40 2.5t40 6.5l25 5l13 -64q-60 -18 -126 -18z
" />
    <glyph glyph-name="Cdotaccent" unicode="&#x10a;" horiz-adv-x="649" 
d="M422 -12q-171 0 -268.5 99.5t-97.5 261.5q0 169 95.5 268.5t266.5 99.5q123 0 205 -36l-23 -66l-16 5q-16 5 -22.5 7t-25 6.5t-33 6t-37 3.5t-46.5 2q-121 0 -199.5 -70.5t-78.5 -215.5q0 -150 83.5 -225t214.5 -75q84 0 166 26l20 -66q-76 -31 -204 -31zM480 824
l-63 -63l-62 63l62 62z" />
    <glyph glyph-name="cdotaccent" unicode="&#x10b;" horiz-adv-x="498" 
d="M333 -9q-146 0 -212 66.5t-66 215.5q0 132 69.5 209.5t186.5 77.5q91 0 149 -31l-24 -62q-65 27 -127 27q-79 0 -126 -57.5t-47 -160.5q0 -115 45 -166t160 -51q20 0 40 2.5t40 6.5l25 5l13 -64q-60 -18 -126 -18zM309 649l-65 67l65 66l67 -66z" />
    <glyph glyph-name="Ccaron" unicode="&#x10c;" horiz-adv-x="649" 
d="M597 824l-179 -78l-172 79l27 56l146 -62l150 60zM422 -12q-171 0 -268.5 99.5t-97.5 261.5q0 169 95.5 268.5t266.5 99.5q123 0 205 -36l-23 -66l-16 5q-16 5 -22.5 7t-25 6.5t-33 6t-37 3.5t-46.5 2q-121 0 -199.5 -70.5t-78.5 -215.5q0 -150 83.5 -225t214.5 -75
q84 0 166 26l20 -66q-76 -31 -204 -31z" />
    <glyph glyph-name="ccaron" unicode="&#x10d;" horiz-adv-x="498" 
d="M295 620l-177 111l32 47l145 -83l148 83l33 -47zM333 -9q-146 0 -212 66.5t-66 215.5q0 132 69.5 209.5t186.5 77.5q91 0 149 -31l-24 -62q-65 27 -127 27q-79 0 -126 -57.5t-47 -160.5q0 -115 45 -166t160 -51q20 0 40 2.5t40 6.5l25 5l13 -64q-60 -18 -126 -18z" />
    <glyph glyph-name="Dcaron" unicode="&#x10e;" horiz-adv-x="750" 
d="M504 824l-179 -78l-172 79l27 56l146 -62l150 60zM111 0v707h190q176 0 284 -91.5t108 -259.5q0 -181 -101.5 -268.5t-284.5 -87.5h-196zM192 68h126q140 0 217 70.5t77 206.5q0 146 -84 220t-230 74h-106v-571z" />
    <glyph glyph-name="dcaron" unicode="&#x10f;" horiz-adv-x="645" 
d="M654 754l-39 -203h-59l21 203h77zM284 -10q-229 0 -229 281q0 137 74 213t185 76q59 0 109 -14v208h78v-754h-78v52q-66 -62 -139 -62zM290 57q50 0 133 61v360q-55 17 -109 17q-91 0 -135 -65.5t-44 -161.5q0 -106 41.5 -158.5t113.5 -52.5z" />
    <glyph glyph-name="Dcroat" unicode="&#x110;" horiz-adv-x="757" 
d="M693 356q0 -181 -101.5 -268.5t-284.5 -87.5h-196v320h-80v63h80v324h190q176 0 284 -91.5t108 -259.5zM612 345q0 146 -84 220t-230 74h-106v-256h168v-63h-168v-252h126q140 0 217 70.5t77 206.5z" />
    <glyph glyph-name="dcroat" unicode="&#x111;" horiz-adv-x="595" 
d="M501 0h-78v52q-64 -60 -139 -60q-229 0 -229 279q0 138 74 214t185 76q54 0 109 -14v75h-146v51h146v81h78v-81h75v-51h-75v-622zM423 118v360q-52 18 -109 18q-91 0 -135 -66t-44 -162q0 -106 41.5 -157.5t113.5 -51.5q53 0 133 59z" />
    <glyph glyph-name="Emacron" unicode="&#x112;" horiz-adv-x="580" 
d="M111 0v707h396v-67h-314v-251h292v-68h-292v-253h337v-68h-419zM159 786v65h299v-65h-299z" />
    <glyph glyph-name="emacron" unicode="&#x113;" horiz-adv-x="543" 
d="M313 -12q-126 0 -192 63t-66 212q0 156 66 226.5t178 70.5q197 0 197 -273v-29h-361q1 -63 16 -104.5t44.5 -62t62 -28t79.5 -7.5q56 0 135 23l14 -65q-67 -26 -173 -26zM136 317h277q0 85 -31.5 134.5t-94.5 49.5t-103.5 -47t-47.5 -137zM136 669v65h299v-65h-299z" />
    <glyph glyph-name="Ebreve" unicode="&#x114;" horiz-adv-x="580" 
d="M111 0v707h396v-67h-314v-251h292v-68h-292v-253h337v-68h-419zM308 753q-110 0 -165 85l43 38q51 -59 125 -59q75 0 124 59l41 -36q-54 -87 -168 -87z" />
    <glyph glyph-name="ebreve" unicode="&#x115;" horiz-adv-x="543" 
d="M313 -12q-126 0 -192 63t-66 212q0 156 66 226.5t178 70.5q197 0 197 -273v-29h-361q1 -63 16 -104.5t44.5 -62t62 -28t79.5 -7.5q56 0 135 23l14 -65q-67 -26 -173 -26zM136 317h277q0 85 -31.5 134.5t-94.5 49.5t-103.5 -47t-47.5 -137zM288 644q-110 0 -165 85l43 38
q51 -59 125 -59q75 0 124 59l41 -36q-54 -87 -168 -87z" />
    <glyph glyph-name="Edotaccent" unicode="&#x116;" horiz-adv-x="580" 
d="M111 0v707h396v-67h-314v-251h292v-68h-292v-253h337v-68h-419zM382 824l-63 -63l-62 63l62 62z" />
    <glyph glyph-name="edotaccent" unicode="&#x117;" horiz-adv-x="543" 
d="M313 -12q-126 0 -192 63t-66 212q0 156 66 226.5t178 70.5q197 0 197 -273v-29h-361q1 -63 16 -104.5t44.5 -62t62 -28t79.5 -7.5q56 0 135 23l14 -65q-67 -26 -173 -26zM136 317h277q0 85 -31.5 134.5t-94.5 49.5t-103.5 -47t-47.5 -137zM292 649l-65 67l65 66l67 -66z
" />
    <glyph glyph-name="Eogonek" unicode="&#x118;" horiz-adv-x="580" 
d="M548 -210q-30 -16 -83 -16q-117 0 -117 100q0 62 91 126h-328v707h396v-67h-314v-251h292v-68h-292v-253h337v-68q-108 -70 -108 -114q0 -27 16.5 -37t46.5 -10q26 0 45 8z" />
    <glyph glyph-name="eogonek" unicode="&#x119;" horiz-adv-x="543" 
d="M404 -226q-118 0 -118 103q0 58 75 116q-34 -2 -53 -2q-123 0 -188 62.5t-65 209.5q0 156 66 226t178 70q101 0 149 -67.5t48 -204.5v-29h-361q1 -63 16 -104.5t44.5 -61.5t62 -27t79.5 -7q55 0 135 20l14 -64q-123 -74 -123 -128q0 -27 16 -37t46 -10q29 0 45 8l18 -57
q-30 -16 -84 -16zM136 317h277q0 86 -31.5 134.5t-94.5 48.5t-103.5 -47t-47.5 -136z" />
    <glyph glyph-name="Ecaron" unicode="&#x11a;" horiz-adv-x="580" 
d="M480 824l-179 -78l-172 79l27 56l146 -62l150 60zM111 0v707h396v-67h-314v-251h292v-68h-292v-253h337v-68h-419z" />
    <glyph glyph-name="ecaron" unicode="&#x11b;" horiz-adv-x="543" 
d="M287 620l-177 111l32 47l145 -83l148 83l33 -47zM313 -12q-126 0 -192 63t-66 212q0 156 66 226.5t178 70.5q197 0 197 -273v-29h-361q1 -63 16 -104.5t44.5 -62t62 -28t79.5 -7.5q56 0 135 23l14 -65q-67 -26 -173 -26zM136 317h277q0 85 -31.5 134.5t-94.5 49.5
t-103.5 -47t-47.5 -137z" />
    <glyph glyph-name="Gcircumflex" unicode="&#x11c;" horiz-adv-x="706" 
d="M277 743l-28 55l180 78l172 -78l-27 -55l-145 61zM422 -12q-171 0 -268.5 100t-97.5 261q0 169 95.5 268.5t266.5 99.5q118 0 205 -36l-24 -67q-2 1 -15.5 5.5t-19 6t-19 5.5t-24.5 5.5t-27.5 4t-34.5 3.5t-39 1q-121 0 -199.5 -70.5t-78.5 -215.5q0 -150 83.5 -225
t214.5 -75q52 0 113 14v275h83v-328q-108 -32 -214 -32z" />
    <glyph glyph-name="gcircumflex" unicode="&#x11d;" horiz-adv-x="597" 
d="M472 627l-148 85l-148 -84l-33 49l181 110l179 -112zM278 -228q-101 0 -178 20l15 69q87 -19 145 -19q39 0 65.5 5t50.5 19t35.5 42.5t11.5 73.5v57q-52 -47 -125 -47q-39 0 -69.5 5.5t-64 23t-56 47t-37 81.5t-14.5 122q0 140 73.5 214.5t186.5 74.5q75 0 184 -21v-573
q0 -96 -61 -145t-162 -49zM304 57q58 0 118 49v376q-59 11 -106 11q-94 0 -137.5 -62t-43.5 -163q0 -112 42 -161.5t127 -49.5z" />
    <glyph glyph-name="Gbreve" unicode="&#x11e;" horiz-adv-x="706" 
d="M422 -12q-171 0 -268.5 100t-97.5 261q0 169 95.5 268.5t266.5 99.5q118 0 205 -36l-24 -67q-2 1 -15.5 5.5t-19 6t-19 5.5t-24.5 5.5t-27.5 4t-34.5 3.5t-39 1q-121 0 -199.5 -70.5t-78.5 -215.5q0 -150 83.5 -225t214.5 -75q52 0 113 14v275h83v-328q-108 -32 -214 -32
zM410 753q-110 0 -165 85l43 38q51 -59 125 -59q75 0 124 59l41 -36q-54 -87 -168 -87z" />
    <glyph glyph-name="gbreve" unicode="&#x11f;" horiz-adv-x="597" 
d="M278 -228q-101 0 -178 20l15 69q87 -19 145 -19q39 0 65.5 5t50.5 19t35.5 42.5t11.5 73.5v57q-52 -47 -125 -47q-39 0 -69.5 5.5t-64 23t-56 47t-37 81.5t-14.5 122q0 140 73.5 214.5t186.5 74.5q75 0 184 -21v-573q0 -96 -61 -145t-162 -49zM304 57q58 0 118 49v376
q-59 11 -106 11q-94 0 -137.5 -62t-43.5 -163q0 -112 42 -161.5t127 -49.5zM315 644q-110 0 -165 85l43 38q51 -59 125 -59q75 0 124 59l41 -36q-54 -87 -168 -87z" />
    <glyph glyph-name="Gdotaccent" unicode="&#x120;" horiz-adv-x="706" 
d="M422 -12q-171 0 -268.5 100t-97.5 261q0 169 95.5 268.5t266.5 99.5q118 0 205 -36l-24 -67q-2 1 -15.5 5.5t-19 6t-19 5.5t-24.5 5.5t-27.5 4t-34.5 3.5t-39 1q-121 0 -199.5 -70.5t-78.5 -215.5q0 -150 83.5 -225t214.5 -75q52 0 113 14v275h83v-328q-108 -32 -214 -32
zM485 824l-63 -63l-62 63l62 62z" />
    <glyph glyph-name="gdotaccent" unicode="&#x121;" horiz-adv-x="597" 
d="M278 -228q-101 0 -178 20l15 69q87 -19 145 -19q39 0 65.5 5t50.5 19t35.5 42.5t11.5 73.5v57q-52 -47 -125 -47q-39 0 -69.5 5.5t-64 23t-56 47t-37 81.5t-14.5 122q0 140 73.5 214.5t186.5 74.5q75 0 184 -21v-573q0 -96 -61 -145t-162 -49zM304 57q58 0 118 49v376
q-59 11 -106 11q-94 0 -137.5 -62t-43.5 -163q0 -112 42 -161.5t127 -49.5zM328 649l-65 67l65 66l67 -66z" />
    <glyph glyph-name="Gcommaaccent" unicode="&#x122;" horiz-adv-x="706" 
d="M461 -58l-39 -203h-59l21 203h77zM422 -12q-171 0 -268.5 100t-97.5 261q0 169 95.5 268.5t266.5 99.5q118 0 205 -36l-24 -67q-2 1 -15.5 5.5t-19 6t-19 5.5t-24.5 5.5t-27.5 4t-34.5 3.5t-39 1q-121 0 -199.5 -70.5t-78.5 -215.5q0 -150 83.5 -225t214.5 -75
q52 0 113 14v275h83v-328q-108 -32 -214 -32z" />
    <glyph glyph-name="gcommaaccent" unicode="&#x123;" horiz-adv-x="597" 
d="M276 607l41 198h62l-23 -198h-80zM278 -228q-101 0 -178 20l15 69q87 -19 145 -19q39 0 65.5 5t50.5 19t35.5 42.5t11.5 73.5v57q-52 -47 -125 -47q-39 0 -69.5 5.5t-64 23t-56 47t-37 81.5t-14.5 122q0 140 73.5 214.5t186.5 74.5q75 0 184 -21v-573q0 -96 -61 -145
t-162 -49zM304 57q58 0 118 49v376q-59 11 -106 11q-94 0 -137.5 -62t-43.5 -163q0 -112 42 -161.5t127 -49.5z" />
    <glyph glyph-name="Hcircumflex" unicode="&#x124;" horiz-adv-x="775" 
d="M232 743l-28 55l180 78l172 -78l-27 -55l-145 61zM111 0v707h82v-318h388v318h82v-707h-82v321h-388v-321h-82z" />
    <glyph glyph-name="hcircumflex" unicode="&#x125;" horiz-adv-x="618" 
d="M-15 748l-28 55l180 78l172 -78l-27 -55l-145 61zM93 0v754h79v-270q107 76 190 76q46 0 79 -13.5t50 -32t26 -49.5t11 -54.5t2 -58.5v-352h-75v337q0 80 -21.5 116.5t-91.5 36.5q-55 0 -170 -67v-423h-79z" />
    <glyph glyph-name="Hbar" unicode="&#x126;" horiz-adv-x="775" 
d="M111 0v512h-77v55h77v140h82v-140h388v140h82v-140h75v-55h-75v-512h-82v321h-388v-321h-82zM193 389h388v123h-388v-123z" />
    <glyph glyph-name="hbar" unicode="&#x127;" horiz-adv-x="618" 
d="M93 0v622h-68v51h68v81h79v-81h151v-51h-151v-138q32 23 48.5 33.5t58.5 26t83 15.5q46 0 79 -13.5t50 -31.5t26 -49t11 -54.5t2 -58.5v-352h-75v337q0 80 -21.5 116t-91.5 36q-57 0 -170 -66v-423h-79z" />
    <glyph glyph-name="Itilde" unicode="&#x128;" horiz-adv-x="305" 
d="M111 0v707h82v-707h-82zM211 754q-24 0 -63.5 18.5t-60.5 18.5q-38 0 -70 -24l-30 45q45 45 105 45q28 0 66.5 -18t56.5 -18q31 0 70 27l31 -44q-45 -50 -105 -50z" />
    <glyph glyph-name="itilde" unicode="&#x129;" horiz-adv-x="267" 
d="M92 0v546h81v-546h-81zM192 645q-24 0 -63 18.5t-61 18.5q-39 0 -69 -25l-31 46q49 45 105 45q28 0 66.5 -18.5t56.5 -18.5q31 0 71 28l30 -44q-41 -50 -105 -50z" />
    <glyph glyph-name="Imacron" unicode="&#x12a;" horiz-adv-x="305" 
d="M111 0v707h82v-707h-82zM1 786v65h299v-65h-299z" />
    <glyph glyph-name="imacron" unicode="&#x12b;" horiz-adv-x="267" 
d="M92 0v546h81v-546h-81zM-16 669v65h299v-65h-299z" />
    <glyph glyph-name="Ibreve" unicode="&#x12c;" horiz-adv-x="305" 
d="M111 0v707h82v-707h-82zM150 753q-110 0 -165 85l43 38q51 -59 125 -59q75 0 124 59l41 -36q-54 -87 -168 -87z" />
    <glyph glyph-name="ibreve" unicode="&#x12d;" horiz-adv-x="267" 
d="M92 0v546h81v-546h-81zM131 644q-110 0 -165 85l43 38q51 -59 125 -59q75 0 124 59l41 -36q-54 -87 -168 -87z" />
    <glyph glyph-name="Iogonek" unicode="&#x12e;" horiz-adv-x="305" 
d="M216 -210q-28 -16 -82 -16q-118 0 -118 105q0 62 95 127v701h82v-707q-38 -24 -70 -55t-32 -59q0 -27 16 -37t46 -10q27 0 46 8z" />
    <glyph glyph-name="iogonek" unicode="&#x12f;" horiz-adv-x="267" 
d="M113 -226q-118 0 -118 105q0 66 98 129v538h80v-546q-40 -24 -73 -55t-33 -59q0 -48 64 -48q26 0 47 9l17 -57q-28 -16 -82 -16zM131 649l-65 67l65 66l67 -66z" />
    <glyph glyph-name="Idotaccent" unicode="&#x130;" horiz-adv-x="305" 
d="M111 0v707h82v-707h-82zM214 824l-63 -63l-62 63l62 62z" />
    <glyph glyph-name="dotlessi" unicode="&#x131;" horiz-adv-x="267" 
d="M92 0v546h81v-546h-81z" />
    <glyph glyph-name="IJ" unicode="&#x132;" horiz-adv-x="595" 
d="M111 0v707h82v-707h-82zM291 -187l-35 60q86 48 115.5 110.5t29.5 167.5v556h83v-554q0 -63 -7 -108t-27 -90t-59.5 -80t-99.5 -62z" />
    <glyph glyph-name="ij" unicode="&#x133;" horiz-adv-x="541" 
d="M262 -220q-38 0 -71 11l14 64q31 -7 57 -7q58 0 81 35t23 102v561h80v-562q0 -204 -184 -204zM92 0v546h81v-546h-81zM131 649l-65 67l65 66l67 -66zM404 649l-65 67l65 66l67 -66z" />
    <glyph glyph-name="Jcircumflex" unicode="&#x134;" horiz-adv-x="305" 
d="M4 743l-28 55l180 78l172 -78l-27 -55l-145 61zM1 -187l-35 60q86 48 115.5 110.5t29.5 167.5v556h83v-554q0 -63 -7 -108t-27 -90t-59.5 -80t-99.5 -62z" />
    <glyph glyph-name="jcircumflex" unicode="&#x135;" horiz-adv-x="267" 
d="M-11 -220q-38 0 -71 11l14 64q31 -7 57 -7q58 0 81 35t23 102v561h80v-562q0 -204 -184 -204zM281 627l-148 85l-148 -84l-33 49l181 110l179 -112z" />
    <glyph glyph-name="Kcommaaccent" unicode="&#x136;" horiz-adv-x="626" 
d="M376 -58l-39 -203h-59l21 203h77zM515 0l-294 368v18l278 321h105l-294 -327l313 -380h-108zM111 0v707h82v-707h-82z" />
    <glyph glyph-name="kcommaaccent" unicode="&#x137;" horiz-adv-x="551" 
d="M334 -58l-39 -203h-59l21 203h77zM512 -8q-87 5 -164 101l-154 195l230 258h91l-232 -255l112 -138q69 -85 133 -102zM93 0v754h79v-754h-79z" />
    <glyph glyph-name="Lacute" unicode="&#x139;" horiz-adv-x="504" 
d="M114 747l-18 56l221 80l23 -71zM111 0v707h82v-636h307v-71h-389z" />
    <glyph glyph-name="lacute" unicode="&#x13a;" horiz-adv-x="267" 
d="M96 784l-18 56l221 80l23 -71zM93 0v754h79v-754h-79z" />
    <glyph glyph-name="Lcommaaccent" unicode="&#x13b;" horiz-adv-x="504" 
d="M350 -58l-39 -203h-59l21 203h77zM111 0v707h82v-636h307v-71h-389z" />
    <glyph glyph-name="lcommaaccent" unicode="&#x13c;" horiz-adv-x="267" 
d="M173 -58l-39 -203h-59l21 203h77zM93 0v754h79v-754h-79z" />
    <glyph glyph-name="Lcaron" unicode="&#x13d;" horiz-adv-x="504" 
d="M399 762l-39 -203h-59l21 203h77zM111 0v707h82v-636h307v-71h-389z" />
    <glyph glyph-name="lcaron" unicode="&#x13e;" horiz-adv-x="289" 
d="M326 753l-39 -203h-59l21 203h77zM93 0v754h79v-754h-79z" />
    <glyph glyph-name="Ldot" unicode="&#x13f;" horiz-adv-x="504" 
d="M111 0v707h82v-636h307v-71h-389zM395 304l-66 68l66 66l68 -66z" />
    <glyph glyph-name="ldot" unicode="&#x140;" horiz-adv-x="319" 
d="M93 0v754h79v-754h-79zM286 289l-66 68l66 66l68 -66z" />
    <glyph glyph-name="Lslash" unicode="&#x141;" horiz-adv-x="504" 
d="M500 0h-389v310l-75 -43l-1 64l76 44v332h82v-285l130 74v-65l-130 -74v-286h307v-71z" />
    <glyph glyph-name="lslash" unicode="&#x142;" horiz-adv-x="264" 
d="M260 427l-90 -52v-375h-77v331l-81 -46v64l81 46v359h77v-314l90 51v-64z" />
    <glyph glyph-name="Nacute" unicode="&#x143;" horiz-adv-x="782" 
d="M323 747l-18 56l221 80l23 -71zM111 0v707h118l361 -637l-3 88v549h84v-707h-129l-353 628l4 -73v-555h-82z" />
    <glyph glyph-name="nacute" unicode="&#x144;" horiz-adv-x="619" 
d="M260 619l-30 51l188 129l37 -60zM93 0v546h79v-62q33 23 55 36.5t60 26.5t75 13q46 0 79 -13.5t50.5 -32t27 -49.5t11.5 -54.5t2 -58.5v-352h-77v337q0 80 -22 116.5t-91 36.5q-29 0 -65.5 -13.5t-53 -23t-51.5 -30.5v-423h-79z" />
    <glyph glyph-name="Ncommaaccent" unicode="&#x145;" horiz-adv-x="782" 
d="M435 -58l-39 -203h-59l21 203h77zM111 0v707h118l361 -637l-3 88v549h84v-707h-129l-353 628l4 -73v-555h-82z" />
    <glyph glyph-name="ncommaaccent" unicode="&#x146;" horiz-adv-x="619" 
d="M362 -58l-39 -203h-59l21 203h77zM93 0v546h79v-62q33 23 55 36.5t60 26.5t75 13q46 0 79 -13.5t50.5 -32t27 -49.5t11.5 -54.5t2 -58.5v-352h-77v337q0 80 -22 116.5t-91 36.5q-29 0 -65.5 -13.5t-53 -23t-51.5 -30.5v-423h-79z" />
    <glyph glyph-name="Ncaron" unicode="&#x147;" horiz-adv-x="782" 
d="M564 824l-179 -78l-172 79l27 56l146 -62l150 60zM111 0v707h118l361 -637l-3 88v549h84v-707h-129l-353 628l4 -73v-555h-82z" />
    <glyph glyph-name="ncaron" unicode="&#x148;" horiz-adv-x="619" 
d="M306 620l-177 111l32 47l145 -83l148 83l33 -47zM93 0v546h79v-62q33 23 55 36.5t60 26.5t75 13q46 0 79 -13.5t50.5 -32t27 -49.5t11.5 -54.5t2 -58.5v-352h-77v337q0 80 -22 116.5t-91 36.5q-29 0 -65.5 -13.5t-53 -23t-51.5 -30.5v-423h-79z" />
    <glyph glyph-name="napostrophe" unicode="&#x149;" horiz-adv-x="651" 
d="M-4 554q27 60 27 123v78h76v-40q0 -95 -40 -161h-63zM124 0v546h79v-62q33 23 55 36.5t60 26.5t75 13q46 0 79 -13.5t50.5 -32t27 -49.5t11.5 -54.5t2 -58.5v-352h-77v337q0 80 -22 116.5t-91 36.5q-29 0 -65.5 -13.5t-53 -23t-51.5 -30.5v-423h-79z" />
    <glyph glyph-name="Eng" unicode="&#x14a;" horiz-adv-x="782" 
d="M487 -220q-37 0 -70 11l14 64q28 -7 57 -7q104 0 104 132v20h-50l-353 628l4 -73v-555h-82v707h118l361 -637l-3 88v549h84l-1 -724q0 -111 -48.5 -157t-134.5 -46z" />
    <glyph glyph-name="eng" unicode="&#x14b;" horiz-adv-x="619" 
d="M532 -16q0 -112 -48.5 -158t-134.5 -46q-39 0 -70 11l13 64q32 -7 57 -7q58 0 82 35.5t24 101.5v351q0 81 -21.5 117t-91.5 36q-57 0 -170 -66v-423h-79v546h79v-62q106 75 190 75q46 0 79 -13t50.5 -32t27 -49.5t11.5 -54t2 -58.5v-368z" />
    <glyph glyph-name="Omacron" unicode="&#x14c;" horiz-adv-x="821" 
d="M260 786v65h299v-65h-299zM402 -12q-162 0 -254 101t-92 266t100.5 263.5t264.5 98.5q165 0 254 -101.5t89 -262.5q0 -164 -97 -264.5t-265 -100.5zM405 56q135 0 206 83t71 215q0 130 -71.5 212.5t-198.5 82.5q-132 0 -203 -81.5t-71 -211.5q0 -128 69.5 -214t197.5 -86
z" />
    <glyph glyph-name="omacron" unicode="&#x14d;" horiz-adv-x="604" 
d="M150 669v65h299v-65h-299zM299 -12q-114 0 -179 73t-65 206q0 138 69.5 215.5t181.5 77.5q120 0 181 -74t61 -213t-68.5 -212t-180.5 -73zM305 53q163 0 163 220q0 42 -7.5 78t-24.5 70t-51 54t-82 20q-47 0 -81.5 -20t-52 -53.5t-25.5 -70.5t-8 -79q0 -96 39.5 -157.5
t129.5 -61.5z" />
    <glyph glyph-name="Obreve" unicode="&#x14e;" horiz-adv-x="821" 
d="M402 -12q-162 0 -254 101t-92 266t100.5 263.5t264.5 98.5q165 0 254 -101.5t89 -262.5q0 -164 -97 -264.5t-265 -100.5zM405 56q135 0 206 83t71 215q0 130 -71.5 212.5t-198.5 82.5q-132 0 -203 -81.5t-71 -211.5q0 -128 69.5 -214t197.5 -86zM410 753q-110 0 -165 85
l43 38q51 -59 125 -59q75 0 124 59l41 -36q-54 -87 -168 -87z" />
    <glyph glyph-name="obreve" unicode="&#x14f;" horiz-adv-x="604" 
d="M299 -12q-114 0 -179 73t-65 206q0 138 69.5 215.5t181.5 77.5q120 0 181 -74t61 -213t-68.5 -212t-180.5 -73zM305 53q163 0 163 220q0 42 -7.5 78t-24.5 70t-51 54t-82 20q-47 0 -81.5 -20t-52 -53.5t-25.5 -70.5t-8 -79q0 -96 39.5 -157.5t129.5 -61.5zM299 644
q-110 0 -165 85l43 38q51 -59 125 -59q75 0 124 59l41 -36q-54 -87 -168 -87z" />
    <glyph glyph-name="Ohungarumlaut" unicode="&#x150;" horiz-adv-x="821" 
d="M451 861l-186 -122l-36 49l177 133zM687 802l-215 -60l-18 56l210 75zM402 -12q-162 0 -254 101t-92 266t100.5 263.5t264.5 98.5q165 0 254 -101.5t89 -262.5q0 -164 -97 -264.5t-265 -100.5zM405 56q135 0 206 83t71 215q0 130 -71.5 212.5t-198.5 82.5
q-132 0 -203 -81.5t-71 -211.5q0 -128 69.5 -214t197.5 -86z" />
    <glyph glyph-name="ohungarumlaut" unicode="&#x151;" horiz-adv-x="604" 
d="M158 614l-34 48l183 141l43 -60zM383 618l-32 49l191 132l41 -61zM299 -12q-114 0 -179 73t-65 206q0 138 69.5 215.5t181.5 77.5q120 0 181 -74t61 -213t-68.5 -212t-180.5 -73zM305 53q163 0 163 220q0 42 -7.5 78t-24.5 70t-51 54t-82 20q-47 0 -81.5 -20t-52 -53.5
t-25.5 -70.5t-8 -79q0 -96 39.5 -157.5t129.5 -61.5z" />
    <glyph glyph-name="OE" unicode="&#x152;" horiz-adv-x="1087" 
d="M402 -12q-162 0 -254 101t-92 266q0 167 100 265t265 98q113 0 196 -57v46h396v-67h-312v-251h290v-68h-290v-253h337v-68h-421v53q-50 -33 -96 -49t-119 -16zM405 59q141 0 212 92v403q-70 92 -205 92q-130 0 -200.5 -81t-70.5 -209q0 -127 69 -212t195 -85z" />
    <glyph glyph-name="oe" unicode="&#x153;" horiz-adv-x="954" 
d="M299 -12q-114 0 -179 73t-65 206q0 138 69.5 215.5t181.5 77.5q146 0 202 -116q57 116 203 116q197 0 197 -273v-29h-361q1 -63 15.5 -104t43 -62t61.5 -28.5t81 -7.5q27 0 71 8t65 15l14 -65q-64 -25 -173 -25q-169 0 -222 112q-62 -113 -204 -113zM305 53
q163 0 163 220q0 42 -7.5 78t-24.5 70t-51 54t-82 20q-47 0 -81.5 -20t-52 -53.5t-25.5 -70.5t-8 -79q0 -96 39.5 -157.5t129.5 -61.5zM548 317h277q0 86 -32 135t-94 49q-63 0 -103.5 -47t-47.5 -137z" />
    <glyph glyph-name="Racute" unicode="&#x154;" horiz-adv-x="702" 
d="M239 747l-18 56l221 80l23 -71zM669 -11q-111 9 -182 108l-131 189q-28 -5 -66 -5h-96v-281h-83v707h231q106 0 167.5 -51.5t61.5 -155.5q0 -66 -32.5 -117t-100.5 -77l110 -157q52 -71 139 -95zM194 350h102q90 0 139 32.5t49 111.5t-40 112.5t-124 33.5h-126v-290z" />
    <glyph glyph-name="racute" unicode="&#x155;" horiz-adv-x="390" 
d="M182 619l-30 51l188 129l37 -60zM93 0v546h79v-73q20 35 61 60t95 25q34 0 64 -9l-14 -67q-30 7 -64 7q-45 0 -82 -25.5t-60 -61.5v-402h-79z" />
    <glyph glyph-name="Rcommaaccent" unicode="&#x156;" horiz-adv-x="702" 
d="M410 -58l-39 -203h-59l21 203h77zM669 -11q-111 9 -182 108l-131 189q-28 -5 -66 -5h-96v-281h-83v707h231q106 0 167.5 -51.5t61.5 -155.5q0 -66 -32.5 -117t-100.5 -77l110 -157q52 -71 139 -95zM194 350h102q90 0 139 32.5t49 111.5t-40 112.5t-124 33.5h-126v-290z
" />
    <glyph glyph-name="rcommaaccent" unicode="&#x157;" horiz-adv-x="390" 
d="M173 -58l-39 -203h-59l21 203h77zM93 0v546h79v-73q20 35 61 60t95 25q34 0 64 -9l-14 -67q-30 7 -64 7q-45 0 -82 -25.5t-60 -61.5v-402h-79z" />
    <glyph glyph-name="Rcaron" unicode="&#x158;" horiz-adv-x="702" 
d="M478 824l-179 -78l-172 79l27 56l146 -62l150 60zM669 -11q-111 9 -182 108l-131 189q-28 -5 -66 -5h-96v-281h-83v707h231q106 0 167.5 -51.5t61.5 -155.5q0 -66 -32.5 -117t-100.5 -77l110 -157q52 -71 139 -95zM194 350h102q90 0 139 32.5t49 111.5t-40 112.5
t-124 33.5h-126v-290z" />
    <glyph glyph-name="rcaron" unicode="&#x159;" horiz-adv-x="390" 
d="M228 620l-177 111l32 47l145 -83l148 83l33 -47zM93 0v546h79v-73q20 35 61 60t95 25q34 0 64 -9l-14 -67q-30 7 -64 7q-45 0 -82 -25.5t-60 -61.5v-402h-79z" />
    <glyph glyph-name="Sacute" unicode="&#x15a;" horiz-adv-x="554" 
d="M204 747l-18 56l221 80l23 -71zM250 -12q-115 0 -197 43l28 66q84 -37 167 -37q70 0 120 28t50 90q0 41 -25.5 72.5t-64 50t-83.5 41t-83.5 45t-64 63.5t-25.5 95q0 82 59.5 126.5t149.5 44.5q93 0 172 -34l-23 -61q-76 27 -147 27q-60 0 -96.5 -25t-36.5 -75
q0 -43 36 -76t87 -56.5t102.5 -50.5t87.5 -73t36 -108q0 -97 -70 -146.5t-179 -49.5z" />
    <glyph glyph-name="sacute" unicode="&#x15b;" horiz-adv-x="465" 
d="M173 619l-30 51l188 129l37 -60zM212 -11q-86 0 -160 23l14 65q101 -23 139 -23q64 0 100.5 23t36.5 62q0 34 -28.5 57.5t-68.5 39t-80.5 33.5t-69 53.5t-28.5 87.5q0 71 52 110.5t135 39.5q55 0 132 -23l-14 -63q-71 20 -126 20q-49 0 -75.5 -22.5t-26.5 -56.5t28 -58.5
t68 -40.5t80.5 -34t68.5 -52.5t28 -83.5q0 -45 -19 -77t-50.5 -48.5t-65 -24t-70.5 -7.5z" />
    <glyph glyph-name="Scircumflex" unicode="&#x15c;" horiz-adv-x="554" 
d="M137 743l-28 55l180 78l172 -78l-27 -55l-145 61zM250 -12q-115 0 -197 43l28 66q84 -37 167 -37q70 0 120 28t50 90q0 41 -25.5 72.5t-64 50t-83.5 41t-83.5 45t-64 63.5t-25.5 95q0 82 59.5 126.5t149.5 44.5q93 0 172 -34l-23 -61q-76 27 -147 27q-60 0 -96.5 -25
t-36.5 -75q0 -43 36 -76t87 -56.5t102.5 -50.5t87.5 -73t36 -108q0 -97 -70 -146.5t-179 -49.5z" />
    <glyph glyph-name="scircumflex" unicode="&#x15d;" horiz-adv-x="465" 
d="M381 627l-148 85l-148 -84l-33 49l181 110l179 -112zM212 -11q-86 0 -160 23l14 65q101 -23 139 -23q64 0 100.5 23t36.5 62q0 34 -28.5 57.5t-68.5 39t-80.5 33.5t-69 53.5t-28.5 87.5q0 71 52 110.5t135 39.5q55 0 132 -23l-14 -63q-71 20 -126 20q-49 0 -75.5 -22.5
t-26.5 -56.5t28 -58.5t68 -40.5t80.5 -34t68.5 -52.5t28 -83.5q0 -45 -19 -77t-50.5 -48.5t-65 -24t-70.5 -7.5z" />
    <glyph glyph-name="Scedilla" unicode="&#x15e;" horiz-adv-x="554" 
d="M250 -12q-115 0 -197 43l28 66q84 -37 167 -37q70 0 120 28t50 90q0 41 -25.5 72.5t-64 50t-83.5 41t-83.5 45t-64 63.5t-25.5 95q0 82 59.5 126.5t149.5 44.5q93 0 172 -34l-23 -61q-76 27 -147 27q-60 0 -96.5 -25t-36.5 -75q0 -43 36 -76t87 -56.5t102.5 -50.5
t87.5 -73t36 -108q0 -97 -70 -146.5t-179 -49.5zM215 -240l-26 45q59 37 59 77q0 23 -24 67h77q20 -36 20 -67q2 -76 -106 -122z" />
    <glyph glyph-name="scedilla" unicode="&#x15f;" horiz-adv-x="465" 
d="M212 -11q-86 0 -160 23l14 65q101 -23 139 -23q64 0 100.5 23t36.5 62q0 34 -28.5 57.5t-68.5 39t-80.5 33.5t-69 53.5t-28.5 87.5q0 71 52 110.5t135 39.5q55 0 132 -23l-14 -63q-71 20 -126 20q-49 0 -75.5 -22.5t-26.5 -56.5t28 -58.5t68 -40.5t80.5 -34t68.5 -52.5
t28 -83.5q0 -45 -19 -77t-50.5 -48.5t-65 -24t-70.5 -7.5zM190 -240l-26 45q59 37 59 77q0 23 -24 67h77q20 -36 20 -67q2 -76 -106 -122z" />
    <glyph glyph-name="Scaron" unicode="&#x160;" horiz-adv-x="554" 
d="M453 824l-179 -78l-172 79l27 56l146 -62l150 60zM250 -12q-115 0 -197 43l28 66q84 -37 167 -37q70 0 120 28t50 90q0 41 -25.5 72.5t-64 50t-83.5 41t-83.5 45t-64 63.5t-25.5 95q0 82 59.5 126.5t149.5 44.5q93 0 172 -34l-23 -61q-76 27 -147 27q-60 0 -96.5 -25
t-36.5 -75q0 -43 36 -76t87 -56.5t102.5 -50.5t87.5 -73t36 -108q0 -97 -70 -146.5t-179 -49.5z" />
    <glyph glyph-name="scaron" unicode="&#x161;" horiz-adv-x="465" 
d="M231 620l-177 111l32 47l145 -83l148 83l33 -47zM212 -11q-86 0 -160 23l14 65q101 -23 139 -23q64 0 100.5 23t36.5 62q0 34 -28.5 57.5t-68.5 39t-80.5 33.5t-69 53.5t-28.5 87.5q0 71 52 110.5t135 39.5q55 0 132 -23l-14 -63q-71 20 -126 20q-49 0 -75.5 -22.5
t-26.5 -56.5t28 -58.5t68 -40.5t80.5 -34t68.5 -52.5t28 -83.5q0 -45 -19 -77t-50.5 -48.5t-65 -24t-70.5 -7.5z" />
    <glyph glyph-name="Tcommaaccent" unicode="&#x162;" horiz-adv-x="569" 
d="M329 -58l-39 -203h-59l21 203h77zM243 0v637h-241v70h565v-70h-241v-637h-83z" />
    <glyph glyph-name="tcommaaccent" unicode="&#x163;" horiz-adv-x="416" 
d="M305 -58l-39 -203h-59l21 203h77zM298 -11q-39 0 -59.5 1.5t-48.5 10t-42 25t-24.5 48t-10.5 78.5v327h-80v67h80v112h77v-112h171v-67h-170v-326q0 -59 20.5 -77t83.5 -18q41 0 86 15l14 -66q-54 -18 -97 -18z" />
    <glyph glyph-name="tcommaaccent" unicode="&#x21b;" horiz-adv-x="416" 
d="M305 -58l-39 -203h-59l21 203h77zM298 -11q-39 0 -59.5 1.5t-48.5 10t-42 25t-24.5 48t-10.5 78.5v327h-80v67h80v112h77v-112h171v-67h-170v-326q0 -59 20.5 -77t83.5 -18q41 0 86 15l14 -66q-54 -18 -97 -18z" />
    <glyph glyph-name="Tcaron" unicode="&#x164;" horiz-adv-x="569" 
d="M458 824l-179 -78l-172 79l27 56l146 -62l150 60zM243 0v637h-241v70h565v-70h-241v-637h-83z" />
    <glyph glyph-name="tcaron" unicode="&#x165;" horiz-adv-x="426" 
d="M356 814l-39 -203h-59l21 203h77zM298 -11q-39 0 -59.5 1.5t-48.5 10t-42 25t-24.5 48t-10.5 78.5v327h-80v67h80v112h77v-112h171v-67h-170v-326q0 -59 20.5 -77t83.5 -18q41 0 86 15l14 -66q-54 -18 -97 -18z" />
    <glyph glyph-name="Tbar" unicode="&#x166;" horiz-adv-x="569" 
d="M243 0v346h-145v53h145v238h-241v70h565v-70h-241v-238h146v-53h-146v-346h-83z" />
    <glyph glyph-name="tbar" unicode="&#x167;" horiz-adv-x="416" 
d="M298 -9q-28 0 -43 0.5t-38 3.5t-35 9t-27.5 17.5t-23 28.5t-13 42.5t-5.5 59.5v145h-70v50h70v132h-80v67h80v112h77v-112h171v-67h-170v-132h137v-50h-137v-144q0 -58 20.5 -75t83.5 -17q50 0 86 12l14 -66q-48 -16 -97 -16z" />
    <glyph glyph-name="Utilde" unicode="&#x168;" horiz-adv-x="770" 
d="M387 -12q-56 0 -103.5 12t-90 39.5t-67 80t-24.5 126.5v461h85v-454q0 -194 200 -194q201 0 201 217v431h80v-434q0 -81 -25.5 -139.5t-68.5 -88.5t-89 -43.5t-98 -13.5zM439 754q-24 0 -63.5 18.5t-60.5 18.5q-38 0 -70 -24l-30 45q45 45 105 45q28 0 66.5 -18t56.5 -18
q31 0 70 27l31 -44q-45 -50 -105 -50z" />
    <glyph glyph-name="utilde" unicode="&#x169;" horiz-adv-x="616" 
d="M253 -12q-44 0 -75.5 13.5t-48.5 32.5t-26.5 50t-11.5 55.5t-2 58.5v348h79v-332q0 -31 1.5 -50t7 -41t16.5 -34t31 -20.5t49 -8.5q62 0 175 68v418h76v-546h-76v64q-1 -1 -22 -14.5t-29 -18t-29 -15t-35.5 -15t-36.5 -9t-43 -4.5zM366 645q-24 0 -63 18.5t-61 18.5
q-39 0 -69 -25l-31 46q50 45 105 45q28 0 66.5 -18.5t56.5 -18.5q31 0 71 28l30 -44q-41 -50 -105 -50z" />
    <glyph glyph-name="Umacron" unicode="&#x16a;" horiz-adv-x="770" 
d="M387 -12q-56 0 -103.5 12t-90 39.5t-67 80t-24.5 126.5v461h85v-454q0 -194 200 -194q201 0 201 217v431h80v-434q0 -81 -25.5 -139.5t-68.5 -88.5t-89 -43.5t-98 -13.5zM234 786v65h299v-65h-299z" />
    <glyph glyph-name="umacron" unicode="&#x16b;" horiz-adv-x="616" 
d="M253 -12q-44 0 -75.5 13.5t-48.5 32.5t-26.5 50t-11.5 55.5t-2 58.5v348h79v-332q0 -31 1.5 -50t7 -41t16.5 -34t31 -20.5t49 -8.5q62 0 175 68v418h76v-546h-76v64q-1 -1 -22 -14.5t-29 -18t-29 -15t-35.5 -15t-36.5 -9t-43 -4.5zM159 669v65h299v-65h-299z" />
    <glyph glyph-name="Ubreve" unicode="&#x16c;" horiz-adv-x="770" 
d="M387 -12q-56 0 -103.5 12t-90 39.5t-67 80t-24.5 126.5v461h85v-454q0 -194 200 -194q201 0 201 217v431h80v-434q0 -81 -25.5 -139.5t-68.5 -88.5t-89 -43.5t-98 -13.5zM388 753q-110 0 -165 85l43 38q51 -59 125 -59q75 0 124 59l41 -36q-54 -87 -168 -87z" />
    <glyph glyph-name="ubreve" unicode="&#x16d;" horiz-adv-x="616" 
d="M253 -12q-44 0 -75.5 13.5t-48.5 32.5t-26.5 50t-11.5 55.5t-2 58.5v348h79v-332q0 -31 1.5 -50t7 -41t16.5 -34t31 -20.5t49 -8.5q62 0 175 68v418h76v-546h-76v64q-1 -1 -22 -14.5t-29 -18t-29 -15t-35.5 -15t-36.5 -9t-43 -4.5zM306 644q-110 0 -165 85l43 38
q51 -59 125 -59q75 0 124 59l41 -36q-54 -87 -168 -87z" />
    <glyph glyph-name="Uring" unicode="&#x16e;" horiz-adv-x="770" 
d="M387 704q-50 0 -85 26.5t-35 79.5q0 51 35 80.5t83 29.5q46 0 82.5 -26.5t36.5 -81.5q0 -50 -33 -79t-84 -29zM386 748q30 0 47.5 17t18.5 46q0 28 -20 46t-47 18q-30 0 -48 -16.5t-18 -45.5t19 -47t48 -18zM387 -12q-56 0 -103.5 12t-90 39.5t-67 80t-24.5 126.5v461h85
v-454q0 -194 200 -194q201 0 201 217v431h80v-434q0 -81 -25.5 -139.5t-68.5 -88.5t-89 -43.5t-98 -13.5z" />
    <glyph glyph-name="uring" unicode="&#x16f;" horiz-adv-x="616" 
d="M309 606q-50 0 -85 26.5t-35 79.5q0 51 35 80.5t83 29.5q46 0 82.5 -26.5t36.5 -81.5q0 -50 -33 -79t-84 -29zM308 650q30 0 47.5 17t18.5 46q0 28 -20 46t-47 18q-30 0 -48 -16.5t-18 -45.5t19 -47t48 -18zM253 -12q-44 0 -75.5 13.5t-48.5 32.5t-26.5 50t-11.5 55.5
t-2 58.5v348h79v-332q0 -31 1.5 -50t7 -41t16.5 -34t31 -20.5t49 -8.5q62 0 175 68v418h76v-546h-76v64q-1 -1 -22 -14.5t-29 -18t-29 -15t-35.5 -15t-36.5 -9t-43 -4.5z" />
    <glyph glyph-name="Uhungarumlaut" unicode="&#x170;" horiz-adv-x="770" 
d="M387 -12q-56 0 -103.5 12t-90 39.5t-67 80t-24.5 126.5v461h85v-454q0 -194 200 -194q201 0 201 217v431h80v-434q0 -81 -25.5 -139.5t-68.5 -88.5t-89 -43.5t-98 -13.5zM415 861l-186 -122l-36 49l177 133zM651 802l-215 -60l-18 56l210 75z" />
    <glyph glyph-name="uhungarumlaut" unicode="&#x171;" horiz-adv-x="616" 
d="M253 -12q-44 0 -75.5 13.5t-48.5 32.5t-26.5 50t-11.5 55.5t-2 58.5v348h79v-332q0 -31 1.5 -50t7 -41t16.5 -34t31 -20.5t49 -8.5q62 0 175 68v418h76v-546h-76v64q-1 -1 -22 -14.5t-29 -18t-29 -15t-35.5 -15t-36.5 -9t-43 -4.5zM169 614l-34 48l183 141l43 -60z
M394 618l-32 49l191 132l41 -61z" />
    <glyph glyph-name="Uogonek" unicode="&#x172;" horiz-adv-x="770" 
d="M429 -226q-119 0 -119 104q0 58 71 110h-8q-53 0 -98.5 12.5t-86 40t-63.5 79t-23 121.5v466h85v-459q0 -189 200 -189q201 0 201 212v436h80v-439q0 -117 -50 -181.5t-130 -86.5q-38 -21 -71 -53t-33 -60q0 -49 64 -49q27 0 45 9l18 -57q-28 -16 -82 -16z" />
    <glyph glyph-name="uogonek" unicode="&#x173;" horiz-adv-x="616" 
d="M547 -210q-28 -16 -82 -16q-120 0 -120 102q0 67 103 134v54q-1 -1 -22 -14.5t-29 -18t-29 -15t-35.5 -15t-36.5 -9t-43 -4.5q-44 0 -75.5 13.5t-48.5 32.5t-26.5 49.5t-11.5 55t-2 58.5v349h79v-333q0 -39 2.5 -61.5t12.5 -46t32 -34.5t58 -11q62 0 175 68v418h76v-546
q-105 -64 -105 -114q0 -27 16 -37.5t47 -10.5q29 0 47 9z" />
    <glyph glyph-name="Wcircumflex" unicode="&#x174;" horiz-adv-x="1011" 
d="M352 743l-28 55l180 78l172 -78l-27 -55l-145 61zM207 0l-196 707h84l177 -657l193 483l-59 174h83l221 -656l211 656h79l-232 -707h-119l-149 437l-173 -437h-120z" />
    <glyph glyph-name="wcircumflex" unicode="&#x175;" horiz-adv-x="877" 
d="M589 627l-148 85l-148 -84l-33 49l181 110l179 -112zM187 0l-170 546h83l141 -489l148 489h102l130 -489l159 489h80l-188 -546h-107l-109 399l-18 75l-19 -74l-126 -400h-106z" />
    <glyph glyph-name="Ycircumflex" unicode="&#x176;" horiz-adv-x="568" 
d="M236 0v268l-231 439h92l183 -366l195 366h89l-246 -439v-268h-82zM133 743l-28 55l180 78l172 -78l-27 -55l-145 61z" />
    <glyph glyph-name="ycircumflex" unicode="&#x177;" horiz-adv-x="517" 
d="M156 -220l75 220h-37l-177 546h86l119 -390l30 -98l32 96l135 392h81l-267 -766h-77zM407 627l-148 85l-148 -84l-33 49l181 110l179 -112z" />
    <glyph glyph-name="Ydieresis" unicode="&#x178;" horiz-adv-x="568" 
d="M236 0v268l-231 439h92l183 -366l195 366h89l-246 -439v-268h-82zM172 747l-58 58l58 58l57 -58zM384 747l-57 58l57 58l58 -58z" />
    <glyph glyph-name="Zacute" unicode="&#x179;" horiz-adv-x="546" 
d="M205 747l-18 56l221 80l23 -71zM30 0v71l373 565h-347v71h440v-65l-377 -571h398v-71h-487z" />
    <glyph glyph-name="zacute" unicode="&#x17a;" horiz-adv-x="496" 
d="M198 619l-30 51l188 129l37 -60zM40 0v68l322 409h-296v69h387v-64l-326 -413h330v-69h-417z" />
    <glyph glyph-name="Zdotaccent" unicode="&#x17b;" horiz-adv-x="546" 
d="M30 0v71l373 565h-347v71h440v-65l-377 -571h398v-71h-487zM343 824l-63 -63l-62 63l62 62z" />
    <glyph glyph-name="zdotaccent" unicode="&#x17c;" horiz-adv-x="496" 
d="M40 0v68l322 409h-296v69h387v-64l-326 -413h330v-69h-417zM261 649l-65 67l65 66l67 -66z" />
    <glyph glyph-name="Zcaron" unicode="&#x17d;" horiz-adv-x="546" 
d="M450 824l-179 -78l-172 79l27 56l146 -62l150 60zM30 0v71l373 565h-347v71h440v-65l-377 -571h398v-71h-487z" />
    <glyph glyph-name="zcaron" unicode="&#x17e;" horiz-adv-x="496" 
d="M247 620l-177 111l32 47l145 -83l148 83l33 -47zM40 0v68l322 409h-296v69h387v-64l-326 -413h330v-69h-417z" />
    <glyph glyph-name="uni018F" unicode="&#x18f;" horiz-adv-x="756" 
d="M364 -12q-154 0 -233 92.5t-84 251.5v56h568q-8 118 -73 189.5t-181 71.5q-123 0 -252 -67l-26 61q133 74 290 74q161 0 243.5 -100.5t82.5 -263.5q0 -167 -85.5 -266t-249.5 -99zM367 56q234 0 248 268h-485q7 -121 63.5 -194.5t173.5 -73.5z" />
    <glyph glyph-name="florin" unicode="&#x192;" horiz-adv-x="455" 
d="M10 -21l-3 66q83 6 106 13q67 24 70 117l2 77h-104v68h106v48q1 60 20.5 101t56 61.5t76 28.5t92.5 8l4 -68q-84 -7 -109 -17q-60 -25 -61 -116l-1 -46h112v-68h-114l-1 -80q-1 -48 -15.5 -83t-37 -56t-56.5 -33.5t-67.5 -16.5t-75.5 -4z" />
    <glyph glyph-name="uni01D3" unicode="&#x1d3;" horiz-adv-x="770" 
d="M562 824l-179 -78l-172 79l27 56l146 -62l150 60zM387 -12q-56 0 -103.5 12t-90 39.5t-67 80t-24.5 126.5v461h85v-454q0 -194 200 -194q201 0 201 217v431h80v-434q0 -81 -25.5 -139.5t-68.5 -88.5t-89 -43.5t-98 -13.5z" />
    <glyph glyph-name="uni01D4" unicode="&#x1d4;" horiz-adv-x="616" 
d="M253 -12q-44 0 -75.5 13.5t-48.5 32.5t-26.5 50t-11.5 55.5t-2 58.5v348h79v-332q0 -31 1.5 -50t7 -41t16.5 -34t31 -20.5t49 -8.5q62 0 175 68v418h76v-546h-76v64q-1 -1 -22 -14.5t-29 -18t-29 -15t-35.5 -15t-36.5 -9t-43 -4.5zM312 620l-177 111l32 47l145 -83
l148 83l33 -47z" />
    <glyph glyph-name="AEmacron" unicode="&#x1e2;" horiz-adv-x="918" 
d="M-3 0l376 707h471v-67h-313v-251h291v-68h-291v-253h337v-68h-420v311h-197l-161 -311h-93zM284 378h164v262h-28zM441 786v65h299v-65h-299z" />
    <glyph glyph-name="aemacron" unicode="&#x1e3;" horiz-adv-x="865" 
d="M638 -9q-159 0 -221 95q-124 -94 -219 -94q-73 0 -113.5 40t-40.5 114q0 47 19.5 80.5t52.5 50.5t66 24t71 8q123 3 129 3v75q0 65 -30.5 84.5t-108.5 19.5q-17 0 -39.5 -3t-38 -6.5t-35 -8.5t-23.5 -6l-16 60q77 32 174 32q139 0 177 -78q62 78 182 78q193 0 193 -261
v-29l-359 -14q1 -62 16 -102.5t44.5 -60t62 -26.5t81.5 -7q47 0 134 19l14 -64q-55 -23 -172 -23zM216 57q32 0 88.5 25t92.5 48q-15 49 -17 124l-126 -4q-69 -1 -102 -27.5t-33 -68.5q0 -55 25 -76t72 -21zM461 316l275 13q0 78 -32.5 124.5t-91.5 46.5q-61 0 -103.5 -45.5
t-47.5 -138.5zM282 669v65h299v-65h-299z" />
    <glyph glyph-name="AEacute" unicode="&#x1fc;" horiz-adv-x="918" 
d="M511 747l-18 56l221 80l23 -71zM-3 0l376 707h471v-67h-313v-251h291v-68h-291v-253h337v-68h-420v311h-197l-161 -311h-93zM284 378h164v262h-28z" />
    <glyph glyph-name="aeacute" unicode="&#x1fd;" horiz-adv-x="865" 
d="M383 619l-30 51l188 129l37 -60zM638 -9q-159 0 -221 95q-124 -94 -219 -94q-73 0 -113.5 40t-40.5 114q0 47 19.5 80.5t52.5 50.5t66 24t71 8q123 3 129 3v75q0 65 -30.5 84.5t-108.5 19.5q-17 0 -39.5 -3t-38 -6.5t-35 -8.5t-23.5 -6l-16 60q77 32 174 32
q139 0 177 -78q62 78 182 78q193 0 193 -261v-29l-359 -14q1 -62 16 -102.5t44.5 -60t62 -26.5t81.5 -7q47 0 134 19l14 -64q-55 -23 -172 -23zM216 57q32 0 88.5 25t92.5 48q-15 49 -17 124l-126 -4q-69 -1 -102 -27.5t-33 -68.5q0 -55 25 -76t72 -21zM461 316l275 13
q0 78 -32.5 124.5t-91.5 46.5q-61 0 -103.5 -45.5t-47.5 -138.5z" />
    <glyph glyph-name="Oslashacute" unicode="&#x1fe;" horiz-adv-x="821" 
d="M72 -30l-38 39l97 100q-75 98 -75 246q0 167 100 264.5t265 97.5q137 0 226 -75l94 97l40 -37q1 -1 -94 -100q77 -95 77 -249q0 -165 -97 -265t-265 -100q-143 0 -233 81zM405 56q135 0 206 83t71 215q0 110 -54 187q-293 -301 -405 -415q72 -70 182 -70zM189 170
l402 415q-70 64 -179 64q-132 0 -203 -81.5t-71 -211.5q0 -110 51 -186zM329 747l-18 56l221 80l23 -71z" />
    <glyph glyph-name="oslashacute" unicode="&#x1ff;" horiz-adv-x="604" 
d="M70 -31l-35 34l69 80q-49 70 -49 184q0 138 69 214.5t182 76.5q102 0 163 -55l59 69l36 -33l-63 -73q47 -71 47 -193q0 -139 -68.5 -210.5t-180.5 -71.5q-100 0 -163 55zM305 56q163 0 163 217q0 79 -25 129l-257 -300q44 -46 119 -46zM160 146l258 300q-43 48 -115 48
q-47 0 -81.5 -19.5t-52 -53.5t-25.5 -70.5t-8 -78.5q0 -78 24 -126zM237 619l-30 51l188 129l37 -60z" />
    <glyph glyph-name="Scommaaccent" unicode="&#x218;" horiz-adv-x="554" 
d="M306 -58l-39 -203h-59l21 203h77zM250 -12q-115 0 -197 43l28 66q84 -37 167 -37q70 0 120 28t50 90q0 41 -25.5 72.5t-64 50t-83.5 41t-83.5 45t-64 63.5t-25.5 95q0 82 59.5 126.5t149.5 44.5q93 0 172 -34l-23 -61q-76 27 -147 27q-60 0 -96.5 -25t-36.5 -75
q0 -43 36 -76t87 -56.5t102.5 -50.5t87.5 -73t36 -108q0 -97 -70 -146.5t-179 -49.5z" />
    <glyph glyph-name="scommaaccent" unicode="&#x219;" horiz-adv-x="465" 
d="M274 -58l-39 -203h-59l21 203h77zM212 -11q-86 0 -160 23l14 65q101 -23 139 -23q64 0 100.5 23t36.5 62q0 34 -28.5 57.5t-68.5 39t-80.5 33.5t-69 53.5t-28.5 87.5q0 71 52 110.5t135 39.5q55 0 132 -23l-14 -63q-71 20 -126 20q-49 0 -75.5 -22.5t-26.5 -56.5
t28 -58.5t68 -40.5t80.5 -34t68.5 -52.5t28 -83.5q0 -45 -19 -77t-50.5 -48.5t-65 -24t-70.5 -7.5z" />
    <glyph glyph-name="uni021A" unicode="&#x21a;" horiz-adv-x="569" 
d="M329 -58l-39 -203h-59l21 203h77zM243 0v637h-241v70h565v-70h-241v-637h-83z" />
    <glyph glyph-name="Ymacron" unicode="&#x232;" horiz-adv-x="568" 
d="M236 0v268l-231 439h92l183 -366l195 366h89l-246 -439v-268h-82zM132 786v65h299v-65h-299z" />
    <glyph glyph-name="ymacron" unicode="&#x233;" horiz-adv-x="517" 
d="M156 -220l75 220h-37l-177 546h86l119 -390l30 -98l32 96l135 392h81l-267 -766h-77zM107 669v65h299v-65h-299z" />
    <glyph glyph-name="schwa" unicode="&#x259;" horiz-adv-x="543" 
d="M230 560q126 0 192 -63t66 -212q0 -156 -66 -226.5t-178 -70.5q-197 0 -197 273v29h361q-1 63 -16 104.5t-44.5 62t-62 28t-79.5 7.5q-56 0 -135 -23l-14 65q67 26 173 26zM407 231h-277q0 -85 31.5 -134.5t94.5 -49.5t103.5 47t47.5 137z" />
    <glyph glyph-name="h.superior" unicode="&#x2b0;" horiz-adv-x="432" 
d="M62 416v498h65v-176q1 0 8.5 5t10 6.5t10.5 6t12 6.5l12 6t14 6t14.5 5t16 4t16.5 2t18 1q124 0 124 -138v-232h-65v221q0 94 -77 94q-41 0 -114 -43v-272h-65z" />
    <glyph glyph-name="j.superior" unicode="&#x2b2;" horiz-adv-x="217" 
d="M14 271q-29 0 -54 9l12 51q22 -5 42 -5q35 0 48.5 20t13.5 62v368h65v-368q0 -76 -34 -106.5t-93 -30.5zM109 839l-50 50l50 49l49 -49z" />
    <glyph glyph-name="r.superior" unicode="&#x2b3;" horiz-adv-x="272" 
d="M62 416v360h65v-48q14 22 42 38.5t59 16.5q23 0 43 -5l-10 -58q-18 5 -43 5q-57 0 -91 -50v-259h-65z" />
    <glyph glyph-name="w.superior" unicode="&#x2b7;" horiz-adv-x="630" 
d="M132 416l-121 360h71l96 -313l93 313h90l82 -313l109 313h67l-131 -360h-91l-83 308l-91 -308h-91z" />
    <glyph glyph-name="y.superior" unicode="&#x2b8;" horiz-adv-x="377" 
d="M118 271l52 145h-28l-131 360h71l106 -312l111 312h67l-185 -505h-63z" />
    <glyph glyph-name="circumflex" unicode="&#x2c6;" horiz-adv-x="540" 
d="M386 627l-148 85l-148 -84l-33 49l181 110l179 -112z" />
    <glyph glyph-name="caron" unicode="&#x2c7;" horiz-adv-x="540" 
d="M268 620l-177 111l32 47l145 -83l148 83l33 -47z" />
    <glyph glyph-name="breve" unicode="&#x2d8;" horiz-adv-x="500" 
d="M268 644q-110 0 -165 85l43 38q51 -59 125 -59q75 0 124 59l41 -36q-54 -87 -168 -87z" />
    <glyph glyph-name="dotaccent" unicode="&#x2d9;" horiz-adv-x="277" 
d="M138 649l-65 67l65 66l67 -66z" />
    <glyph glyph-name="ring" unicode="&#x2da;" horiz-adv-x="536" 
d="M270 606q-50 0 -85 26.5t-35 79.5q0 51 35 80.5t83 29.5q46 0 82.5 -26.5t36.5 -81.5q0 -50 -33 -79t-84 -29zM269 650q30 0 47.5 17t18.5 46q0 28 -20 46t-47 18q-30 0 -48 -16.5t-18 -45.5t19 -47t48 -18z" />
    <glyph glyph-name="ogonek" unicode="&#x2db;" horiz-adv-x="565" 
d="M401 -226q-117 0 -117 109q0 81 162 170l34 -42q-33 -17 -77.5 -54.5t-44.5 -70.5q0 -27 16 -37t46 -10q24 0 46 6l17 -55q-28 -16 -82 -16z" />
    <glyph glyph-name="tilde" unicode="&#x2dc;" horiz-adv-x="540" 
d="M329 645q-24 0 -63 18.5t-61 18.5q-39 0 -69 -25l-31 46q50 45 105 45q28 0 66.5 -18.5t56.5 -18.5q31 0 71 28l30 -44q-41 -50 -105 -50z" />
    <glyph glyph-name="hungarumlaut" unicode="&#x2dd;" horiz-adv-x="571" 
d="M90 614l-34 48l183 141l43 -60zM315 618l-32 49l191 132l41 -61z" />
    <glyph glyph-name="x.superior" unicode="&#x2e3;" horiz-adv-x="379" 
d="M14 416l140 185l-130 175h73l92 -131l93 131h72l-130 -175l140 -185h-77l-98 140l-99 -140h-76z" />
    <glyph glyph-name="Sigma" unicode="&#x3a3;" horiz-adv-x="541" 
d="M34 0v71l213 287l-209 277v72h469v-67h-380l209 -279l-214 -291h389v-70h-477z" />
    <glyph glyph-name="alpha" unicode="&#x3b1;" horiz-adv-x="615" 
d="M250 -9q-26 0 -49.5 5t-51.5 22t-47.5 44t-33 75.5t-13.5 112.5q0 140 61 222t156 82q104 0 151 -78v70h78v-433q0 -30 13 -43t39 -14l-6 -62q-33 2 -44 6q-41 11 -57.5 38.5t-17.5 83.5q-26 -58 -74 -94.5t-104 -36.5zM258 59q57 0 110.5 60t54.5 144v101
q-22 56 -60 90.5t-83 34.5q-73 0 -109 -63t-36 -174q0 -95 32 -144t91 -49z" />
    <glyph glyph-name="beta" unicode="&#x3b2;" horiz-adv-x="612" 
d="M93 -220v758q0 102 59 168t161 66q88 0 145 -54t57 -133q0 -55 -39.5 -107.5t-95.5 -69.5q81 -19 122.5 -62t41.5 -123q0 -113 -65 -174t-172 -61q-74 0 -135 23v-231h-79zM305 55q159 0 159 162q0 142 -196 151v60q70 4 120 49t50 101q0 55 -37.5 92t-92.5 37
q-66 0 -101 -45t-35 -116v-466q85 -25 133 -25z" />
    <glyph glyph-name="gamma" unicode="&#x3b3;" horiz-adv-x="503" 
d="M193 -220q-10 89 -10 170q0 43 1 65q-29 146 -79 296.5t-88 234.5h86q28 -62 69 -187t68 -253q10 22 39.5 81.5t45 93.5t35.5 85t30 95t11 85h80q-3 -81 -41 -178t-100.5 -215t-79.5 -156q11 -83 11 -160q0 -19 -2 -57h-76z" />
    <glyph glyph-name="delta" unicode="&#x3b4;" horiz-adv-x="602" 
d="M299 -11q-110 0 -177 64.5t-67 192.5q0 92 48.5 158t125.5 101q-51 25 -78 56t-27 79q0 63 58 98t137 35q103 0 187 -28l-14 -63q-85 23 -171 23q-53 0 -87 -16.5t-34 -48.5q0 -22 18 -41t39.5 -31t64 -32t66.5 -34q159 -86 159 -251q0 -134 -70.5 -198t-177.5 -64z
M304 54q87 0 125.5 54.5t38.5 143.5q0 48 -14.5 84.5t-45 62.5t-54.5 40t-65 33q-79 -27 -116.5 -89t-37.5 -131q0 -90 41 -144t128 -54z" />
    <glyph glyph-name="pi" unicode="&#x3c0;" horiz-adv-x="602" 
d="M93 0v546h416v-546h-78v478h-259v-478h-79z" />
    <glyph glyph-name="omega" unicode="&#x3c9;" horiz-adv-x="806" 
d="M249 -9q-89 0 -141.5 69t-52.5 177q0 92 27.5 162.5t104.5 146.5h91q-143 -123 -143 -301q0 -39 9.5 -77t40 -72.5t77.5 -34.5q45 0 73.5 39.5t28.5 108.5v151h78v-148q0 -73 28.5 -112t73.5 -39q46 0 76.5 34t40.5 73t10 77q0 85 -38 163.5t-108 137.5h98
q70 -69 98.5 -142t28.5 -162q0 -103 -55.5 -177t-148.5 -74q-46 0 -90.5 30t-54.5 80q-17 -54 -61 -82t-91 -28z" />
    <glyph glyph-name="i.inferior" unicode="&#x1d62;" horiz-adv-x="216" 
d="M76 0v360h65v-360h-65zM108 423l-50 50l50 49l49 -49z" />
    <glyph glyph-name="r.inferior" unicode="&#x1d63;" horiz-adv-x="272" 
d="M62 0v360h65v-48q14 22 42 38.5t59 16.5q23 0 43 -5l-10 -58q-18 5 -43 5q-57 0 -91 -50v-259h-65z" />
    <glyph glyph-name="u.inferior" unicode="&#x1d64;" horiz-adv-x="434" 
d="M173 -8q-37 0 -61.5 12t-35.5 34t-14.5 43t-3.5 50v229h65v-218q0 -48 13 -71.5t55 -23.5q41 0 117 43v270h64v-360h-64v41q-74 -49 -135 -49z" />
    <glyph glyph-name="v.inferior" unicode="&#x1d65;" horiz-adv-x="378" 
d="M142 0l-131 360h71l103 -310l114 310h68l-139 -360h-86z" />
    <glyph glyph-name="uni1E46" unicode="&#x1e46;" horiz-adv-x="782" 
d="M391 -228l-65 67l65 66l67 -66zM111 0v707h118l361 -637l-3 88v549h84v-707h-129l-353 628l4 -73v-555h-82z" />
    <glyph glyph-name="uni1E47" unicode="&#x1e47;" horiz-adv-x="619" 
d="M93 0v546h79v-62q33 23 55 36.5t60 26.5t75 13q46 0 79 -13.5t50.5 -32t27 -49.5t11.5 -54.5t2 -58.5v-352h-77v337q0 80 -22 116.5t-91 36.5q-29 0 -65.5 -13.5t-53 -23t-51.5 -30.5v-423h-79zM317 -215l-65 67l65 66l67 -66z" />
    <glyph glyph-name="uni1E62" unicode="&#x1e62;" horiz-adv-x="554" 
d="M250 -12q-115 0 -197 43l28 66q84 -37 167 -37q70 0 120 28t50 90q0 41 -25.5 72.5t-64 50t-83.5 41t-83.5 45t-64 63.5t-25.5 95q0 82 59.5 126.5t149.5 44.5q93 0 172 -34l-23 -61q-76 27 -147 27q-60 0 -96.5 -25t-36.5 -75q0 -43 36 -76t87 -56.5t102.5 -50.5
t87.5 -73t36 -108q0 -97 -70 -146.5t-179 -49.5zM261 -227l-65 67l65 66l67 -66z" />
    <glyph glyph-name="uni1E63" unicode="&#x1e63;" horiz-adv-x="465" 
d="M212 -11q-86 0 -160 23l14 65q101 -23 139 -23q64 0 100.5 23t36.5 62q0 34 -28.5 57.5t-68.5 39t-80.5 33.5t-69 53.5t-28.5 87.5q0 71 52 110.5t135 39.5q55 0 132 -23l-14 -63q-71 20 -126 20q-49 0 -75.5 -22.5t-26.5 -56.5t28 -58.5t68 -40.5t80.5 -34t68.5 -52.5
t28 -83.5q0 -45 -19 -77t-50.5 -48.5t-65 -24t-70.5 -7.5zM220 -215l-65 67l65 66l67 -66z" />
    <glyph glyph-name="Wgrave" unicode="&#x1e80;" horiz-adv-x="1011" 
d="M207 0l-196 707h84l177 -657l193 483l-59 174h83l221 -656l211 656h79l-232 -707h-119l-149 437l-173 -437h-120zM570 747l-224 65l22 71l221 -80z" />
    <glyph glyph-name="wgrave" unicode="&#x1e81;" horiz-adv-x="877" 
d="M187 0l-170 546h83l141 -489l148 489h102l130 -489l159 489h80l-188 -546h-107l-109 399l-18 75l-19 -74l-126 -400h-106zM505 619l-193 120l36 60l189 -129z" />
    <glyph glyph-name="Wacute" unicode="&#x1e82;" horiz-adv-x="1011" 
d="M415 747l-18 56l221 80l23 -71zM207 0l-196 707h84l177 -657l193 483l-59 174h83l221 -656l211 656h79l-232 -707h-119l-149 437l-173 -437h-120z" />
    <glyph glyph-name="wacute" unicode="&#x1e83;" horiz-adv-x="877" 
d="M382 619l-30 51l188 129l37 -60zM187 0l-170 546h83l141 -489l148 489h102l130 -489l159 489h80l-188 -546h-107l-109 399l-18 75l-19 -74l-126 -400h-106z" />
    <glyph glyph-name="Wdieresis" unicode="&#x1e84;" horiz-adv-x="1011" 
d="M394 747l-58 58l58 58l57 -58zM606 747l-57 58l57 58l58 -58zM207 0l-196 707h84l177 -657l193 483l-59 174h83l221 -656l211 656h79l-232 -707h-119l-149 437l-173 -437h-120z" />
    <glyph glyph-name="wdieresis" unicode="&#x1e85;" horiz-adv-x="877" 
d="M330 659l-56 57l56 56l56 -56zM543 659l-56 57l56 56l56 -56zM187 0l-170 546h83l141 -489l148 489h102l130 -489l159 489h80l-188 -546h-107l-109 399l-18 75l-19 -74l-126 -400h-106z" />
    <glyph glyph-name="uni1EBC" unicode="&#x1ebc;" horiz-adv-x="580" 
d="M111 0v707h396v-67h-314v-251h292v-68h-292v-253h337v-68h-419zM374 754q-24 0 -63.5 18.5t-60.5 18.5q-38 0 -70 -24l-30 45q45 45 105 45q28 0 66.5 -18t56.5 -18q31 0 70 27l31 -44q-45 -50 -105 -50z" />
    <glyph glyph-name="uni1EBD" unicode="&#x1ebd;" horiz-adv-x="543" 
d="M313 -12q-126 0 -192 63t-66 212q0 156 66 226.5t178 70.5q197 0 197 -273v-29h-361q1 -63 16 -104.5t44.5 -62t62 -28t79.5 -7.5q56 0 135 23l14 -65q-67 -26 -173 -26zM136 317h277q0 85 -31.5 134.5t-94.5 49.5t-103.5 -47t-47.5 -137zM347 645q-24 0 -63 18.5
t-61 18.5q-39 0 -69 -25l-31 46q49 45 105 45q28 0 66.5 -18.5t56.5 -18.5q31 0 71 28l30 -44q-41 -50 -105 -50z" />
    <glyph glyph-name="Ygrave" unicode="&#x1ef2;" horiz-adv-x="568" 
d="M236 0v268l-231 439h92l183 -366l195 366h89l-246 -439v-268h-82zM352 747l-224 65l22 71l221 -80z" />
    <glyph glyph-name="ygrave" unicode="&#x1ef3;" horiz-adv-x="517" 
d="M156 -220l75 220h-37l-177 546h86l119 -390l30 -98l32 96l135 392h81l-267 -766h-77zM321 619l-193 120l36 60l189 -129z" />
    <glyph glyph-name="uni2012" unicode="&#x2012;" horiz-adv-x="400" 
d="M0 265v72h400v-72h-400z" />
    <glyph glyph-name="endash" unicode="&#x2013;" 
d="M34 254v65h532v-65h-532z" />
    <glyph glyph-name="emdash" unicode="&#x2014;" horiz-adv-x="953" 
d="M48 254v65h856v-65h-856z" />
    <glyph glyph-name="quoteleft" unicode="&#x2018;" horiz-adv-x="167" 
d="M32 555v39q0 96 40 162h63q-27 -60 -27 -123v-78h-76z" />
    <glyph glyph-name="quoteright" unicode="&#x2019;" horiz-adv-x="167" 
d="M32 554q27 60 27 123v78h76v-40q0 -95 -40 -161h-63z" />
    <glyph glyph-name="quotesinglbase" unicode="&#x201a;" horiz-adv-x="278" 
d="M73 -122q26 69 26 123v79h78v-41q0 -87 -41 -161h-63z" />
    <glyph glyph-name="quotedblleft" unicode="&#x201c;" horiz-adv-x="319" 
d="M33 555v39q0 94 41 162h63q-27 -60 -27 -123v-78h-77zM184 555v39q0 93 40 162h63q-27 -64 -27 -123v-78h-76z" />
    <glyph glyph-name="quotedblright" unicode="&#x201d;" horiz-adv-x="319" 
d="M33 554q27 60 27 123v78h76v-40q0 -95 -40 -161h-63zM184 554q27 64 27 123v78h76v-40q0 -93 -41 -161h-62z" />
    <glyph glyph-name="quotedblbase" unicode="&#x201e;" horiz-adv-x="319" 
d="M33 -122q27 66 27 123v79h76v-41q0 -90 -41 -161h-62zM183 -122q27 66 27 123v79h75v-41q0 -93 -41 -161h-61z" />
    <glyph glyph-name="dagger" unicode="&#x2020;" horiz-adv-x="476" 
d="M197 0l6 515l-167 -7v74l167 -6l-7 178h83l-6 -178l167 6v-74l-167 7l6 -515h-82z" />
    <glyph glyph-name="daggerdbl" unicode="&#x2021;" horiz-adv-x="484" 
d="M201 0l6 177l-167 -6v75l167 -7v275l-167 -6v74l166 -5l-6 177h83l-6 -177l167 5v-74l-167 6v-275l167 7v-75l-167 6l6 -177h-82z" />
    <glyph glyph-name="bullet" unicode="&#x2022;" horiz-adv-x="495" 
d="M248 208q-61 0 -103 41t-42 103t42 103.5t103 41.5t103 -41t42 -104q0 -61 -42.5 -102.5t-102.5 -41.5z" />
    <glyph glyph-name="ellipsis" unicode="&#x2026;" horiz-adv-x="833" 
d="M110 0v91h91v-91h-91zM366 0v91h92v-91h-92zM632 0v91h92v-91h-92z" />
    <glyph glyph-name="perthousand" unicode="&#x2030;" horiz-adv-x="1136" 
d="M193 387q-67 0 -109 39t-42 119q0 79 44.5 124t109.5 45q154 0 154 -162q0 -76 -45 -120.5t-112 -44.5zM193 445q41 0 65 28.5t24 78.5t-21.5 78t-64.5 28q-37 0 -61 -28.5t-24 -84.5q0 -100 82 -100zM576 -9q-67 0 -109 39t-42 119q0 79 44.5 124t109.5 45
q154 0 154 -161q0 -77 -45 -121.5t-112 -44.5zM576 50q41 0 65 28.5t24 78.5q0 105 -86 105q-37 0 -61 -28.5t-24 -84.5q0 -99 82 -99zM937 -9q-67 0 -109 39t-42 119q0 79 44.5 124t109.5 45q154 0 154 -161q0 -77 -45 -121.5t-112 -44.5zM937 50q41 0 65 28.5t24 78.5
q0 105 -86 105q-37 0 -61 -28.5t-24 -84.5q0 -99 82 -99zM132 58l-43 46l534 532l43 -45z" />
    <glyph glyph-name="guilsinglleft" unicode="&#x2039;" horiz-adv-x="257" 
d="M149 52l-107 220l106 220l63 -22l-87 -198l86 -195z" />
    <glyph glyph-name="guilsinglright" unicode="&#x203a;" horiz-adv-x="257" 
d="M105 52l-62 27l86 193l-87 198l63 22l106 -220z" />
    <glyph glyph-name="fraction" unicode="&#x2044;" horiz-adv-x="132" 
d="M-177 76l-39 40l527 535l37 -38z" />
    <glyph glyph-name="fraction" unicode="&#x2215;" horiz-adv-x="132" 
d="M-177 76l-39 40l527 535l37 -38z" />
    <glyph glyph-name="zerosuperior" unicode="&#x2070;" horiz-adv-x="362" 
d="M178 410q-150 0 -150 183q0 83 36.5 138t122.5 55q147 0 147 -182q0 -88 -37 -141t-119 -53zM181 463q87 0 87 137q0 132 -84 132q-89 0 -89 -138q0 -131 86 -131z" />
    <glyph glyph-name="i.superior" unicode="&#x2071;" horiz-adv-x="216" 
d="M76 416v360h65v-360h-65zM108 839l-50 50l50 49l49 -49z" />
    <glyph glyph-name="foursuperior" unicode="&#x2074;" horiz-adv-x="332" 
d="M190 415v88h-169v57l132 221h101v-226h62v-52h-62v-88h-64zM74 555h116v189z" />
    <glyph glyph-name="fivesuperior" unicode="&#x2075;" horiz-adv-x="321" 
d="M149 407q-48 0 -104 14l15 51q51 -13 87 -13q33 0 52 18t19 45q0 33 -19 49.5t-52 16.5q-22 0 -87 -5v198h215v-53h-154v-90q1 0 14.5 0.5t23.5 0.5q58 0 93 -29t35 -81q0 -56 -39 -89t-99 -33z" />
    <glyph glyph-name="sixsuperior" unicode="&#x2076;" horiz-adv-x="338" 
d="M177 408q-70 0 -105 36.5t-35 125.5q0 100 49 158t126 58q37 0 78 -12l-16 -52q-31 9 -64 9q-39 0 -66.5 -27.5t-35.5 -78.5q37 17 77 17q58 0 91 -27.5t33 -81.5q0 -60 -38 -92.5t-94 -32.5zM180 459q26 0 43 19.5t17 49.5q0 33 -17.5 50t-45.5 17q-33 0 -70 -13v-4
q1 -70 16 -94.5t57 -24.5z" />
    <glyph glyph-name="sevensuperior" unicode="&#x2077;" horiz-adv-x="272" 
d="M88 403l-62 21l168 297h-189v60h257v-51z" />
    <glyph glyph-name="eightsuperior" unicode="&#x2078;" horiz-adv-x="337" 
d="M167 409q-63 0 -100.5 23.5t-37.5 74.5q0 59 70 103q-57 32 -57 83q0 43 37 68t93 25q58 0 91.5 -24t33.5 -63q0 -55 -70 -90q81 -39 81 -95q0 -51 -38.5 -78t-102.5 -27zM168 457q32 0 52 16t20 45q0 5 -1.5 10t-5 9.5t-7 8.5t-10.5 8t-11.5 7t-13.5 7t-14.5 6.5t-16 7
t-15.5 6.5q-50 -30 -50 -73q0 -58 73 -58zM178 630q51 29 51 62q0 44 -59 44q-64 0 -64 -48q0 -18 18.5 -30.5t53.5 -27.5z" />
    <glyph glyph-name="ninesuperior" unicode="&#x2079;" horiz-adv-x="336" 
d="M135 408q-39 0 -78 13l16 51q38 -9 64 -9q39 0 66.5 28t34.5 78q-36 -17 -76 -17q-58 0 -91 28t-33 82q0 60 38 92.5t95 32.5q70 0 104.5 -36.5t34.5 -125.5q0 -101 -49 -159t-126 -58zM170 599q28 0 70 14q0 70 -15.5 96.5t-56.5 26.5q-27 0 -44 -19.5t-17 -48.5
q0 -33 17.5 -51t45.5 -18z" />
    <glyph glyph-name="plussuperior" unicode="&#x207a;" horiz-adv-x="399" 
d="M169 452v138l-139 -1v53h139v141h54v-142l146 1v-53l-146 1v-138h-54z" />
    <glyph glyph-name="minussuperior" unicode="&#x207b;" horiz-adv-x="396" 
d="M30 588v53h336v-53h-336z" />
    <glyph glyph-name="equalsuperior" unicode="&#x207c;" horiz-adv-x="398" 
d="M30 521v53h336v-53h-336zM30 653v53h336v-53h-336z" />
    <glyph glyph-name="parenleftsuperior" unicode="&#x207d;" horiz-adv-x="233" 
d="M186 269q-6 4 -16.5 13t-36.5 39.5t-45.5 66.5t-36 94t-16.5 122t15.5 120.5t37.5 91.5t44.5 60.5t37.5 36.5l16 11l38 -43q-5 -3 -13.5 -10t-30 -32t-37.5 -54t-29.5 -78t-13.5 -102q0 -54 13 -104t31 -83t36 -58.5t31 -37.5l13 -11z" />
    <glyph glyph-name="parenrightsuperior" unicode="&#x207e;" horiz-adv-x="233" 
d="M54 269l-38 42q5 4 13.5 12t30 36t37.5 59.5t29.5 82t13.5 104.5q0 53 -13 101.5t-31 79t-36 53t-31 32.5l-13 10l38 43q6 -4 16.5 -11.5t36.5 -35.5t45.5 -61.5t36 -90.5t16.5 -121t-15.5 -121.5t-37.5 -95t-44.5 -65.5t-37.5 -40z" />
    <glyph glyph-name="n.superior" unicode="&#x207f;" horiz-adv-x="432" 
d="M62 416v360h65v-38q1 0 8.5 5t10 6.5t10.5 6t12 6.5l12 6t14 6t14.5 5t16 4t16.5 2t18 1q38 0 63 -11.5t35.5 -34t14 -43t3.5 -49.5v-232h-64v221q0 47 -14 70.5t-56 23.5q-41 0 -114 -43v-272h-65z" />
    <glyph glyph-name="zeroinferior" unicode="&#x2080;" horiz-adv-x="362" 
d="M178 -5q-150 0 -150 183q0 83 36.5 138t122.5 55q147 0 147 -182q0 -88 -37 -141t-119 -53zM181 48q87 0 87 137q0 131 -84 131q-89 0 -89 -137q0 -131 86 -131z" />
    <glyph glyph-name="oneinferior" unicode="&#x2081;" horiz-adv-x="253" 
d="M115 0v312h-89v53l156 4v-369h-67z" />
    <glyph glyph-name="twoinferior" unicode="&#x2082;" horiz-adv-x="307" 
d="M16 0v51q10 8 33 24.5t33 24t29 22t28 22.5t22.5 21t20.5 22.5t14 21.5t10 23t3 23q0 29 -18 44t-45 15q-55 0 -89 -34l-28 42q47 49 123 49q53 0 88 -29.5t35 -80.5q0 -27 -12 -53.5t-26.5 -45t-43 -41t-45 -34t-49.5 -31.5h181v-56h-264z" />
    <glyph glyph-name="threeinferior" unicode="&#x2083;" horiz-adv-x="301" 
d="M134 -5q-61 0 -107 16l13 51q46 -13 88 -13q84 0 84 55q0 36 -26.5 50t-82.5 17v39q92 10 92 65q0 21 -17.5 33t-43.5 12q-35 0 -71 -17l-17 43q47 25 98 25q50 0 83 -24t33 -64q0 -28 -16 -51t-45 -35q38 -8 59 -34t21 -59q0 -56 -41.5 -82.5t-103.5 -26.5z" />
    <glyph glyph-name="fourinferior" unicode="&#x2084;" horiz-adv-x="332" 
d="M190 0v88h-169v57l132 221h101v-226h62v-52h-62v-88h-64zM74 140h116v189z" />
    <glyph glyph-name="fiveinferior" unicode="&#x2085;" horiz-adv-x="321" 
d="M149 -8q-48 0 -104 14l15 51q51 -13 87 -13q33 0 52 18t19 46q0 32 -19 48.5t-52 16.5q-22 0 -87 -5v198h215v-53h-154v-90q1 0 14.5 0.5t23.5 0.5q58 0 93 -29t35 -81q0 -56 -39.5 -89t-98.5 -33z" />
    <glyph glyph-name="sixinferior" unicode="&#x2086;" horiz-adv-x="338" 
d="M177 -7q-70 0 -105 36.5t-35 125.5q0 100 49 158t126 58q42 0 78 -12l-16 -51q-38 9 -64 9q-39 0 -66.5 -28t-35.5 -79q40 18 77 18q58 0 91 -28t33 -82q0 -60 -38 -92.5t-94 -32.5zM180 44q26 0 43 19.5t17 49.5q0 33 -17.5 50t-45.5 17q-33 0 -70 -13v-3q1 -70 16 -95
t57 -25z" />
    <glyph glyph-name="seveninferior" unicode="&#x2087;" horiz-adv-x="272" 
d="M88 -12l-62 21l168 297h-189v60h257v-51z" />
    <glyph glyph-name="eightinferior" unicode="&#x2088;" horiz-adv-x="337" 
d="M167 -6q-63 0 -100.5 23.5t-37.5 74.5q0 59 70 103q-57 32 -57 83q0 44 37.5 69t92.5 25q58 0 91.5 -24t33.5 -64q0 -55 -70 -90q81 -39 81 -95q0 -51 -38.5 -78t-102.5 -27zM168 42q32 0 52 16t20 46q0 20 -21 33.5t-64 31.5q-7 3 -10 4q-50 -30 -50 -73q0 -58 73 -58z
M178 215q51 29 51 62q0 45 -59 45q-64 0 -64 -49q0 -12 11.5 -23.5t23.5 -17.5t37 -17z" />
    <glyph glyph-name="nineinferior" unicode="&#x2089;" horiz-adv-x="336" 
d="M135 -7q-37 0 -78 12l16 52q38 -9 64 -9q39 0 66.5 28t34.5 78q-32 -17 -76 -17q-58 0 -91 28t-33 81q0 61 38 93t95 32q70 0 104.5 -36t34.5 -125q0 -101 -49 -159t-126 -58zM170 184q28 0 70 14q-1 71 -15.5 96.5t-56.5 25.5q-27 0 -44 -19.5t-17 -49.5q0 -33 17.5 -50
t45.5 -17z" />
    <glyph glyph-name="plus.inferior" unicode="&#x208a;" horiz-adv-x="399" 
d="M169 36v138l-139 -1v53h139v141h54v-142l146 1v-53l-146 1v-138h-54z" />
    <glyph glyph-name="minus.inferior" unicode="&#x208b;" horiz-adv-x="396" 
d="M30 172v53h336v-53h-336z" />
    <glyph glyph-name="equal.inferior" unicode="&#x208c;" horiz-adv-x="398" 
d="M30 105v53h336v-53h-336zM30 237v53h336v-53h-336z" />
    <glyph glyph-name="parenleft.inferior" unicode="&#x208d;" horiz-adv-x="240" 
d="M186 -147q-6 4 -16.5 13t-36.5 39.5t-45.5 66.5t-36 94t-16.5 122t15.5 120.5t37.5 91.5t44.5 60.5t37.5 36.5l16 11l38 -43q-5 -3 -13.5 -10t-30 -32t-37.5 -54t-29.5 -78t-13.5 -102q0 -54 13 -104t31 -83t36 -58.5t31 -37.5l13 -11z" />
    <glyph glyph-name="parenright.inferior" unicode="&#x208e;" horiz-adv-x="240" 
d="M54 -147l-38 42q5 4 13.5 12t30 36t37.5 59.5t29.5 82t13.5 104.5q0 53 -13 101.5t-31 79t-36 53t-31 32.5l-13 10l38 43q6 -4 16.5 -11.5t36.5 -35.5t45.5 -61.5t36 -90.5t16.5 -121t-15.5 -121.5t-37.5 -95t-44.5 -65.5t-37.5 -40z" />
    <glyph glyph-name="colonsign" unicode="&#x20a1;" horiz-adv-x="718" 
d="M47 -75l92 180q-83 95 -83 244q0 169 95.5 267.5t266.5 98.5q6 0 18 -0.5t16 -0.5l44 86h59l-46 -90q51 -7 92 -20l57 110h62l-373 -728q40 -11 93 -11q90 0 166 24l20 -66q-71 -29 -204 -29q-62 0 -110 13l-41 -78h-62l49 95q-47 19 -79 46l-73 -141h-59zM294 90
l274 534q-49 13 -95 16l-255 -497q33 -36 76 -53zM183 190l231 452q-120 -2 -196 -71.5t-76 -211.5q0 -101 41 -169z" />
    <glyph glyph-name="cruzeiro" unicode="&#x20a2;" horiz-adv-x="662" 
d="M430 -10q-177 0 -273.5 98.5t-96.5 260.5q0 169 97 267.5t269 98.5q131 0 209 -34l-23 -66q-90 28 -184 28q-59 0 -109 -16t-89.5 -48.5t-62 -88.5t-22.5 -131q0 -118 53.5 -188.5t143.5 -94.5v390h79v-73q20 34 60 58.5t88 24.5q41 0 64 -7l-14 -67q-30 7 -64 7
q-77 0 -134 -87v-260q11 -1 35 -1q83 0 162 24l20 -66q-71 -29 -208 -29z" />
    <glyph glyph-name="franc" unicode="&#x20a3;" horiz-adv-x="696" 
d="M111 0v707h416v-67h-334v-218h285v-73q19 33 63 58t93 25q41 0 64 -7l-14 -67q-30 7 -64 7q-45 0 -82 -26t-60 -62v-277h-79v354h-206v-354h-82z" />
    <glyph glyph-name="lira" unicode="&#x20a4;" horiz-adv-x="472" 
d="M47 0v70q26 9 45 50t26 73.5t9 58.5h-95v67h100q2 38 2 64h-103v67h103q0 65 2 71q2 52 19.5 88.5t42.5 55t59 28.5t62 12.5t56 3.5h16l4 -67q-4 0 -25.5 -2t-27 -2.5t-24 -3t-25 -5t-21.5 -8t-20.5 -11.5t-15 -16t-13.5 -21.5t-7 -27t-3 -34.5v-19.5v-22.5v-19h179v-67
h-180q-2 -44 -4 -64h184v-67h-190q-14 -130 -62 -183h326v-69h-419z" />
    <glyph glyph-name="mill" unicode="&#x20a5;" horiz-adv-x="951" 
d="M172 -134l265 515q-6 56 -29 82.5t-78 26.5q-49 0 -158 -71v-419h-79v546h79v-64q34 27 83 52t93 25q104 0 144 -72l131 254h71l-108 -209q58 27 109 27q46 0 79 -13t50 -32t27 -49.5t12 -54.5t2 -58v-352h-79v337q0 75 -21.5 113.5t-89.5 38.5q-56 0 -136 -49l-24 -46
q3 -21 3 -45v-349h-78v250l-197 -384h-71z" />
    <glyph glyph-name="naira" unicode="&#x20a6;" horiz-adv-x="793" 
d="M118 0v253h-105v57h105v107h-105v56h105v234h118l132 -234h226v234h84v-234h100v-56h-100v-107h100v-57h-100v-253h-129l-143 253h-206v-253h-82zM200 310h174l-59 107h-115v-107zM461 310h133v107h-193zM200 473h83l-83 148v-148zM594 75v178h-101z" />
    <glyph glyph-name="pesetas" unicode="&#x20a7;" horiz-adv-x="1393" 
d="M111 0v707h231q107 0 168 -57.5t61 -163.5q0 -101 -71.5 -166t-209.5 -65h-30v69h36q88 0 138 38t50 119t-40.5 120t-123.5 39h-126v-640h-83zM1142 -11q-86 0 -160 23l14 65q101 -23 139 -23q64 0 100.5 23t36.5 62q0 29 -20.5 51t-51 34t-66 28t-66 32.5t-51 49
t-20.5 76.5q0 71 52 110.5t135 39.5q55 0 132 -23l-14 -63q-71 20 -126 20q-49 0 -75.5 -22.5t-26.5 -56.5t28 -58.5t68 -40.5t80.5 -34t68.5 -52.5t28 -83.5q0 -45 -19 -77t-50.5 -48.5t-65 -24t-70.5 -7.5zM861 -11q-39 0 -59.5 1.5t-48.5 10t-42 25t-24.5 48t-10.5 78.5
v327h-80v67h80v112h77v-112h171v-67h-170v-326q0 -59 20.5 -77t83.5 -18q41 0 86 15l14 -66q-54 -18 -97 -18z" />
    <glyph glyph-name="rupee" unicode="&#x20a8;" horiz-adv-x="1024" 
d="M755 -11q-102 0 -166.5 28.5t-111.5 94.5l-121 174q-28 -5 -66 -5h-96v-281h-83v707h231q106 0 167.5 -51.5t61.5 -155.5q0 -66 -32.5 -117t-100.5 -77l110 -154q40 -56 88 -77t118 -21q65 0 107 23t42 63q0 29 -20.5 50.5t-50.5 33t-66 27.5t-66 32.5t-50.5 49.5
t-20.5 78q0 72 50.5 110.5t133.5 38.5q55 0 132 -23l-14 -63q-71 20 -126 20q-50 0 -76 -22t-26 -56q0 -29 20 -51t50.5 -34.5t66 -29t66 -33t50.5 -47.5t20 -73q0 -83 -64 -121t-157 -38zM194 350h102q90 0 139 32.5t49 111.5t-40 112.5t-124 33.5h-126v-290z" />
    <glyph glyph-name="won" unicode="&#x20a9;" horiz-adv-x="1039" 
d="M223 0l-80 282h-121v57h106l-32 111h-74v57h59l-54 200h84l53 -200h306l11 26l-60 174h84l67 -200h301l63 200h80l-65 -200h69v-57h-87l-38 -111h125v-57h-143l-93 -282h-119l-97 282h-114l-112 -282h-119zM209 339h194l45 111h-270zM628 339h191l37 111h-266zM288 50
l93 232h-157zM476 339h73l-34 98zM726 51l75 231h-154z" />
    <glyph glyph-name="sheqel" unicode="&#x20aa;" horiz-adv-x="932" 
d="M322 0v466h82v-393h154q27 0 48.5 2t38.5 8.5t30.5 12t23 18t16 21t11 27t7 30t3.5 36.5t1 39v44v3v393h82v-393q0 -51 -1.5 -84t-7.5 -69.5t-17 -58.5t-30.5 -44t-47.5 -33t-68 -18t-93 -7h-232zM114 0v707h232q62 0 106 -8t73 -27.5t46 -42t25.5 -62.5t11 -77t2.5 -97
v-152h-82v152q0 119 -13 158q-22 65 -105 79q-27 4 -61 4h-154v-634h-81z" />
    <glyph glyph-name="dong" unicode="&#x20ab;" horiz-adv-x="585" 
d="M268 94q-33 0 -59.5 4t-55.5 18.5t-48.5 38.5t-32 66.5t-12.5 100.5q0 112 65.5 175.5t173.5 63.5q55 0 108 -14v75h-145v51h145v81h79v-81h74v-51h-74v-520h-79v53q-63 -61 -139 -61zM274 161q53 0 133 59v258q-52 18 -108 18q-160 0 -160 -177q0 -158 135 -158zM89 0
v49h397v-49h-397z" />
    <glyph glyph-name="Euro" unicode="&#x20ac;" horiz-adv-x="589" 
d="M370 -10q-107 0 -179 50t-98 136h-63v55h53q-3 18 -3 38q0 30 4 51h-54v55h66q26 85 96 132.5t175 47.5q86 0 167 -31l-23 -63q-80 25 -142 25q-65 1 -116 -26.5t-74 -84.5h251v-55h-267q-2 -28 -2 -43q0 -25 3 -46h266v-55h-250q25 -60 78.5 -89.5t125.5 -29.5
q55 0 132 22l20 -62q-69 -27 -166 -27z" />
    <glyph glyph-name="uni20AD" unicode="&#x20ad;" horiz-adv-x="632" 
d="M119 0v344h-99v67h99v296h82v-296h48l258 296h104l-265 -296h233v-67h-232l284 -344h-108l-276 344h-46v-344h-82z" />
    <glyph glyph-name="uni20AE" unicode="&#x20ae;" horiz-adv-x="569" 
d="M243 0v207l-139 -76v66l139 76v102l-139 -76v62l139 76v200h-241v70h565v-70h-241v-157l136 75v-62l-136 -75v-102l136 75v-66l-136 -75v-250h-83z" />
    <glyph glyph-name="uni20B1" unicode="&#x20b1;" horiz-adv-x="672" 
d="M117 0v396h-101v56h101v67h-101v56h101v132h231q81 0 136.5 -34t77.5 -98h110v-56h-98q3 -15 3 -33q0 -19 -3 -34h98v-56h-113q-26 -65 -92 -103t-171 -38h-30v69h36q123 0 166 72h-268v-396h-83zM200 452h288q2 18 2 29q0 19 -3 38h-287v-67zM200 575h268
q-35 65 -142 65h-126v-65z" />
    <glyph glyph-name="afii61289" unicode="&#x2113;" horiz-adv-x="440" 
d="M233 -12q-63 0 -89.5 39.5t-26.5 124.5v117q-44 -32 -56 -40l-30 40q50 37 86 67v187q0 125 39.5 178t113.5 53q108 0 108 -120q0 -69 -47.5 -149.5t-134.5 -161.5v-153q0 -72 12 -96.5t46 -24.5q45 0 72 37l31 -30q-46 -68 -124 -68zM196 562v-164q111 123 111 221
q0 42 -10 62.5t-39 20.5q-62 0 -62 -140z" />
    <glyph glyph-name="afii61352" unicode="&#x2116;" horiz-adv-x="1007" 
d="M807 223q-67 0 -105 36t-38 98q0 64 41 101.5t105 37.5q72 0 109 -36t37 -100q0 -65 -42 -101t-107 -36zM809 275q44 0 64 23.5t20 61.5q0 35 -20 60t-64 25q-43 0 -64 -25t-21 -61q0 -35 24 -59.5t61 -24.5zM93 0v546h103l313 -467l-3 50v417h79v-546h-110l-307 459
l4 -37v-422h-79zM662 81v59h300v-59h-300z" />
    <glyph glyph-name="uni2117" unicode="&#x2117;" horiz-adv-x="817" 
d="M764 353q0 -166 -97.5 -266t-266.5 -100q-162 0 -254.5 101t-92.5 267q0 167 101 265.5t265 98.5q165 0 255 -102t90 -264zM696 354q0 135 -76 220.5t-210 85.5q-139 0 -213.5 -84.5t-74.5 -219.5q0 -132 73 -221t208 -89q143 0 218 85.5t75 222.5zM568 434
q0 -38 -15 -65.5t-40 -42t-52 -20.5t-57 -6h-47v-147h-60v410h136q63 0 99 -32.5t36 -96.5zM506 431q0 42 -20 62t-65 20h-64v-161h51q98 0 98 79z" />
    <glyph glyph-name="servicemark" unicode="&#x2120;" horiz-adv-x="824" 
d="M158 348q-72 0 -123 19l13 51q54 -19 101 -19q46 0 70.5 14t24.5 37q0 21 -20.5 35t-49.5 23t-58 20t-49.5 33.5t-20.5 55.5q0 50 39 76t96 26t105 -15l-12 -47q-49 13 -97 13q-32 0 -50.5 -12.5t-18.5 -32.5q0 -26 31 -43t68 -26.5t68 -34.5t31 -65q0 -57 -45.5 -82.5
t-102.5 -25.5zM361 352v355h80l105 -299l117 299h76v-355h-61l1 262l-102 -262h-67l-90 263v-263h-59z" />
    <glyph glyph-name="trademark" unicode="&#x2122;" horiz-adv-x="808" 
d="M345 352v355h80l105 -299l117 299h76v-355h-60l1 262l-103 -262h-67l-90 263v-263h-59zM146 352v301h-116v54h294v-54h-117v-301h-61z" />
    <glyph glyph-name="Omega" unicode="&#x2126;" horiz-adv-x="824" 
d="M35 0v72h214q-72 33 -125.5 112t-53.5 182q0 165 94.5 258.5t257.5 93.5q165 0 251 -98t86 -257q0 -90 -54.5 -171.5t-129.5 -119.5h217v-72h-303v71q185 136 185 293q0 128 -67.5 205t-193.5 77q-130 0 -194 -75.5t-64 -204.5q0 -25 2.5 -47.5t10.5 -43.5t13.5 -36
t20 -34t21.5 -29t27 -29t26.5 -25t30 -26t28.5 -25v-71h-300z" />
    <glyph glyph-name="estimated" unicode="&#x212e;" horiz-adv-x="621" 
d="M320 -8q-126 0 -204.5 72t-78.5 200t80 212t207 84q117 0 188.5 -64t72.5 -178v-51h-438v-65q0 -57 51 -105t126 -48q123 0 196 99l41 -32q-40 -62 -104 -93t-137 -31zM147 317h328v28q0 77 -38 121t-113 44q-80 0 -128.5 -44.5t-48.5 -120.5v-28z" />
    <glyph glyph-name="uni2139" unicode="&#x2139;" horiz-adv-x="800" 
d="M400 -8q-149 0 -255.5 106t-106.5 256q0 149 106.5 255.5t255.5 106.5t255.5 -106.5t106.5 -255.5q0 -150 -106.5 -256t-255.5 -106zM400 48q127 0 216 89.5t90 216.5q0 127 -89.5 216.5t-216.5 89.5t-216.5 -89.5t-89.5 -216.5t89.5 -216.5t216.5 -89.5zM400 454
q-31 0 -53 21.5t-22 53.5q0 30 22.5 51t52.5 21t52.5 -21t22.5 -51q0 -32 -22 -53.5t-53 -21.5zM328 140v280h143v-280h-143z" />
    <glyph glyph-name="uni213B" unicode="&#x213b;" horiz-adv-x="804" 
d="M754 0h-704v309h111v344h309l175 -175v-169h109v-309zM585 483l-109 110v-110h109zM606 309v135h-170v170h-236v-305h406zM715 39l-1 231h-625v-231h626zM390 529h-144v39h144v-39zM560 360h-314v38h314v-38zM390 444h-144v39h144v-39zM390 80h-144v39h144v-39z" />
    <glyph glyph-name="onethird" unicode="&#x2153;" horiz-adv-x="725" 
d="M549 -5q-61 0 -107 16l13 51q46 -13 88 -13q84 0 84 55q0 36 -26.5 50t-82.5 17v39q92 10 92 65q0 21 -17.5 33t-43.5 12q-35 0 -71 -17l-17 43q47 25 98 25q50 0 83 -24t33 -64q0 -28 -16 -51t-45 -35q38 -8 59 -34t21 -59q0 -56 -41.5 -82.5t-103.5 -26.5zM119 415v312
h-89v53q6 0 77.5 2t78.5 2v-369h-67zM91 76l-39 40l527 535l37 -38z" />
    <glyph glyph-name="twothirds" unicode="&#x2154;" horiz-adv-x="750" 
d="M574 -5q-61 0 -107 16l13 51q46 -13 88 -13q84 0 84 55q0 36 -26.5 50t-82.5 17v39q92 10 92 65q0 21 -17.5 33t-43.5 12q-35 0 -71 -17l-17 43q47 25 98 25q50 0 83 -24t33 -64q0 -28 -16 -51t-45 -35q38 -8 59 -34t21 -59q0 -56 -41.5 -82.5t-103.5 -26.5zM29 415v51
q10 8 33 24.5t33 24t29 22t28 22.5t22.5 21t20.5 22.5t14 21.5t10 23t3 23q0 29 -18 44t-45 15q-55 0 -89 -34q-1 2 -14 20.5t-14 21.5q47 49 123 49q53 0 88 -29.5t35 -80.5q0 -27 -12 -53.5t-26.5 -45t-43 -41t-45 -34t-49.5 -31.5h181v-56h-264zM124 76l-39 40l527 535
l37 -38z" />
    <glyph glyph-name="uni215B" unicode="&#x215b;" horiz-adv-x="744" 
d="M119 415v312h-89v53q6 0 77.5 2t78.5 2v-369h-67zM91 76l-39 40l527 535l37 -38zM572 -6q-63 0 -100.5 23.5t-37.5 74.5q0 59 70 103q-57 32 -57 83q0 44 37.5 69t92.5 25q58 0 91.5 -24t33.5 -64q0 -55 -70 -90q81 -39 81 -95q0 -51 -38.5 -78t-102.5 -27zM573 42
q32 0 52 16t20 46q0 20 -21 33.5t-64 31.5q-7 3 -10 4q-50 -30 -50 -73q0 -58 73 -58zM583 215q51 29 51 62q0 45 -59 45q-64 0 -64 -49q0 -12 11.5 -23.5t23.5 -17.5t37 -17z" />
    <glyph glyph-name="threesup_fraction_eightinf" unicode="&#x215c;" horiz-adv-x="744" 
d="M138 410q-54 0 -107 16q1 3 7 25.5t6 25.5q46 -13 88 -13q84 0 84 55q0 36 -26.5 50t-82.5 18v39q92 8 92 64q-1 22 -18 33.5t-43 11.5q-35 0 -71 -17q-1 3 -8.5 22t-8.5 21q49 26 98 26q50 0 83 -24.5t33 -64.5q0 -28 -16 -51t-45 -35q38 -8 59 -33.5t21 -58.5
q0 -57 -41.5 -83.5t-103.5 -26.5zM91 76l-39 40l527 535l37 -38zM572 -6q-63 0 -100.5 23.5t-37.5 74.5q0 59 70 103q-57 32 -57 83q0 44 37.5 69t92.5 25q58 0 91.5 -24t33.5 -64q0 -55 -70 -90q81 -39 81 -95q0 -51 -38.5 -78t-102.5 -27zM573 42q32 0 52 16t20 46
q0 20 -21 33.5t-64 31.5q-7 3 -10 4q-50 -30 -50 -73q0 -58 73 -58zM583 215q51 29 51 62q0 45 -59 45q-64 0 -64 -49q0 -12 11.5 -23.5t23.5 -17.5t37 -17z" />
    <glyph glyph-name="fivesup_fraction_eightinf" unicode="&#x215d;" horiz-adv-x="744" 
d="M91 76l-39 40l527 535l37 -38zM151 407q-48 0 -104 14l15 51q51 -13 87 -13q33 0 52 18t19 45q0 33 -19 49.5t-52 16.5q-22 0 -87 -5v198h215v-53h-154v-90q1 0 14.5 0.5t23.5 0.5q58 0 93 -29t35 -81q0 -56 -39 -89t-99 -33zM572 -6q-63 0 -100.5 23.5t-37.5 74.5
q0 59 70 103q-57 32 -57 83q0 44 37.5 69t92.5 25q58 0 91.5 -24t33.5 -64q0 -55 -70 -90q81 -39 81 -95q0 -51 -38.5 -78t-102.5 -27zM573 42q32 0 52 16t20 46q0 20 -21 33.5t-64 31.5q-7 3 -10 4q-50 -30 -50 -73q0 -58 73 -58zM583 215q51 29 51 62q0 45 -59 45
q-64 0 -64 -49q0 -12 11.5 -23.5t23.5 -17.5t37 -17z" />
    <glyph glyph-name="sevensup_fraction_eightinf" unicode="&#x215e;" horiz-adv-x="744" 
d="M91 76l-39 40l527 535l37 -38zM572 -6q-63 0 -100.5 23.5t-37.5 74.5q0 59 70 103q-57 32 -57 83q0 44 37.5 69t92.5 25q58 0 91.5 -24t33.5 -64q0 -55 -70 -90q81 -39 81 -95q0 -51 -38.5 -78t-102.5 -27zM573 42q32 0 52 16t20 46q0 20 -21 33.5t-64 31.5q-7 3 -10 4
q-50 -30 -50 -73q0 -58 73 -58zM583 215q51 29 51 62q0 45 -59 45q-64 0 -64 -49q0 -12 11.5 -23.5t23.5 -17.5t37 -17zM157 403l-62 21l168 297h-189v60h257v-51z" />
    <glyph glyph-name="arrowleft" unicode="&#x2190;" horiz-adv-x="745" 
d="M282 62l-231 239l230 239l48 -48l-147 -155h512v-72h-514l150 -157z" />
    <glyph glyph-name="arrowup" unicode="&#x2191;" horiz-adv-x="745" 
d="M337 -21v514l-157 -150l-46 48l239 231l238 -230l-47 -48l-155 147v-512h-72z" />
    <glyph glyph-name="arrowright" unicode="&#x2192;" horiz-adv-x="745" 
d="M464 62l-48 48l147 155h-512v72h514l-150 157l48 46l231 -239z" />
    <glyph glyph-name="arrowdown" unicode="&#x2193;" horiz-adv-x="745" 
d="M372 -48l-238 230l47 48l155 -148v513l72 -1v-513l157 150l46 -48z" />
    <glyph glyph-name="uni2196" unicode="&#x2196;" horiz-adv-x="745" 
d="M562 38l-363 363l1 -217h-68v333l332 1v-67h-214l363 -362z" />
    <glyph glyph-name="uni2197" unicode="&#x2197;" horiz-adv-x="745" 
d="M183 36l-51 51l363 362l-217 -1v68h334l1 -332h-68v214z" />
    <glyph glyph-name="uni2198" unicode="&#x2198;" horiz-adv-x="745" 
d="M280 42v68h214l-362 362l51 51l362 -363l-1 217h69v-334z" />
    <glyph glyph-name="uni2199" unicode="&#x2199;" horiz-adv-x="745" 
d="M133 46l-1 332h68v-214l362 362l51 -51l-363 -362l217 1v-68h-334z" />
    <glyph glyph-name="home" unicode="&#x21b8;" horiz-adv-x="780" 
d="M730 400h-92v-400h-491v400h-97l340 270zM623 436l-234 183l-236 -183h470zM599 39v361h-413v-361h231v253h116v-253h66zM353 176h-116v116h116v-116z" />
    <glyph glyph-name="partialdiff" unicode="&#x2202;" horiz-adv-x="572" 
d="M280 -13q-49 0 -86 9t-70 32t-50.5 68t-17.5 111q0 91 59.5 159t163.5 68q51 0 145 -17q-19 93 -82 152t-151 84l23 67q38 -10 72.5 -24t78.5 -44.5t75.5 -71t53.5 -107t22 -148.5q0 -176 -60 -257t-176 -81zM273 54q48 0 80 19.5t49 57.5t24 83.5t7 108.5v28
q-94 16 -155 16q-69 0 -106 -46.5t-37 -123.5q0 -66 36.5 -104.5t101.5 -38.5z" />
    <glyph glyph-name="Delta" unicode="&#x2206;" horiz-adv-x="682" 
d="M116 71h451l-163 436l-51 142l-59 -148zM4 0l296 707h111l271 -707h-678z" />
    <glyph glyph-name="product" unicode="&#x220f;" horiz-adv-x="706" 
d="M104 -220v860h-100v67h697v-67h-101v-860h-83v860h-330v-860h-83z" />
    <glyph glyph-name="summation" unicode="&#x2211;" horiz-adv-x="499" 
d="M30 -220v71l229 400l-230 384v72h448v-68h-360l227 -389l-225 -399h358v-71h-447z" />
    <glyph glyph-name="minus" unicode="&#x2212;" 
d="M45 270v66h509v-66h-509z" />
    <glyph glyph-name="radical" unicode="&#x221a;" horiz-adv-x="625" 
d="M260 0l-123 475h-137v71h205l97 -404l19 -77l23 77l204 695h79l-251 -837h-116z" />
    <glyph glyph-name="infinity" unicode="&#x221e;" horiz-adv-x="964" 
d="M229 135q-81 0 -122.5 45t-41.5 113q0 72 45.5 117.5t122.5 45.5q27 0 51.5 -5.5t55 -22.5t44 -25t52 -36t46.5 -33q11 8 39.5 28t42 29t38.5 24t42.5 22t41 13t45.5 6q81 0 124 -44.5t43 -111.5q0 -68 -46 -116t-126 -48q-27 0 -51.5 5.5t-56 23.5t-43.5 25t-53 37
t-45 33q-10 -7 -45.5 -32.5t-52 -36t-46 -27t-54.5 -23t-50 -6.5zM235 198q18 0 37 5.5t42.5 19t36.5 21.5t41 28t33 23q-4 3 -28 20t-33.5 23.5t-31.5 20.5t-35.5 19.5t-32 11t-33.5 5.5q-45 0 -72 -28t-27 -70q0 -45 27.5 -72t75.5 -27zM730 198q46 0 72.5 28.5t26.5 69.5
q0 46 -28 72.5t-74 26.5q-29 0 -69.5 -19.5t-59 -32.5t-64.5 -46q8 -5 35 -24t41.5 -28.5t38 -22.5t43 -18.5t38.5 -5.5z" />
    <glyph glyph-name="integral" unicode="&#x222b;" horiz-adv-x="361" 
d="M-42 -231l-6 68q9 1 27.5 2.5t27.5 2.5t25 3t23.5 5l20 8t19 11.5t14.5 16t12 21.5t6.5 28t2.5 35v548q0 51 15 88t38.5 58.5t58.5 34t68 16.5t75 4l6 -70q-9 -1 -34 -3t-34.5 -3t-29.5 -5t-28 -9t-21 -14.5t-18.5 -22.5t-10 -32t-4.5 -43v-546q0 -51 -14.5 -88.5
t-37.5 -59t-58 -34t-68 -16.5t-75 -4z" />
    <glyph glyph-name="approxequal" unicode="&#x2248;" 
d="M406 133q-53 0 -117.5 31.5t-99.5 31.5q-44 0 -88 -31l-38 50q62 56 132 56q53 0 112 -31t100 -31q44 0 88 33l42 -45q-61 -64 -131 -64zM406 344q-53 0 -117.5 31.5t-99.5 31.5q-44 0 -88 -31l-38 50q62 56 132 56q53 0 112 -31t100 -31t88 33l42 -45q-61 -64 -131 -64z
" />
    <glyph glyph-name="notequal" unicode="&#x2260;" 
d="M44 11l123 155h-115l-1 66h166l114 144h-279l-1 66h331l112 139h66l-110 -139h98v-66h-149l-113 -144h262v-66h-313l-122 -155h-69z" />
    <glyph glyph-name="lessequal" unicode="&#x2264;" 
d="M513 144l-427 159v101l427 159v-74l-372 -136l372 -135v-74zM81 0v69h437v-69h-437z" />
    <glyph glyph-name="greaterequal" unicode="&#x2265;" 
d="M86 144v74l373 135l-373 136v74l427 -159v-101zM81 0v69h437v-69h-437z" />
    <glyph glyph-name="uni231A" unicode="&#x231a;" horiz-adv-x="786" 
d="M754 354q0 -150 -106 -255.5t-255 -105.5t-255 105.5t-106 255.5q0 149 106 255t255 106t255 -106t106 -255zM712 354q0 133 -93 226t-226 93t-226 -93t-93 -226t93 -226t226 -93t226 93t93 226zM557 601l-20 -25l-26 15l15 31zM660 488l-32 -15l-15 27l26 20zM690 341
h-30v31h30v-31zM277 591l-26 -16l-20 26l31 21zM659 225l-21 -31l-26 20l15 26zM410 340h-200v33h167v263h33v-296zM175 500l-15 -27l-31 15l20 32zM557 112l-32 -19l-15 30l27 15zM409 61h-30v32h30v-32zM129 341h-31v31h31v-31zM176 214l-27 -20l-20 31l32 15zM277 123
l-15 -30l-31 19l20 26z" />
    <glyph glyph-name="uni235F" unicode="&#x235f;" horiz-adv-x="666" 
d="M616 333q0 -115 -81.5 -196.5t-196.5 -81.5t-196.5 81.5t-81.5 196.5t81.5 196.5t196.5 81.5q116 0 197 -81.5t81 -196.5zM491 385l-128 -10l-30 124l-30 -124l-127 10l109 -67l-49 -118l97 84l98 -84l-50 118z" />
    <glyph glyph-name="uni24BB" unicode="&#x24bb;" horiz-adv-x="793" 
d="M761 354q0 -151 -106.5 -258t-256.5 -107q-151 0 -258 107t-107 258t107 258t257 107q151 0 257.5 -107t106.5 -258zM705 354q0 128 -90 218t-217 90q-128 0 -218.5 -90t-90.5 -218t90.5 -218t217.5 -90q128 0 218 90t90 218zM491 458h-136v-96h128v-39h-128v-116h-51
v292h187v-41z" />
    <glyph glyph-name="uni24C2" unicode="&#x24c2;" horiz-adv-x="793" 
d="M233 207v292h70l91 -251l102 251h65v-292h-51v178l3 43l-89 -221h-64l-80 222l4 -40v-182h-51zM398 -11q-151 0 -258 107t-107 258t107 258t257 107q151 0 257.5 -107t106.5 -258t-106.5 -258t-256.5 -107zM397 46q128 0 218 90t90 218t-90 218t-217 90
q-128 0 -218.5 -90t-90.5 -218t90.5 -218t217.5 -90z" />
    <glyph glyph-name="uni24C9" unicode="&#x24c9;" horiz-adv-x="793" 
d="M761 353q0 -151 -106.5 -257.5t-256.5 -106.5q-151 0 -258 106.5t-107 257.5t107 258t257 107q151 0 257.5 -107t106.5 -258zM705 353q0 128 -90 218t-217 90q-128 0 -218.5 -90t-90.5 -218q0 -127 90.5 -217.5t217.5 -90.5q128 0 218 90t90 218zM518 456h-96v-250h-51
v250h-97v42h244v-42z" />
    <glyph glyph-name="uni24CC" unicode="&#x24cc;" horiz-adv-x="793" 
d="M761 352q0 -151 -106.5 -258t-256.5 -107q-151 0 -258 107t-107 258q0 150 107 257t257 107q151 0 257.5 -107t106.5 -257zM705 352q0 128 -90 218t-217 90q-128 0 -218.5 -90t-90.5 -218t90 -218.5t218 -90.5t218 90.5t90 218.5zM607 496l-91 -292h-66l-43 121l-13 44
l-16 -43l-48 -122h-68l-75 292h51l50 -201l11 -58l22 59l52 127l-25 73h51l67 -202l17 -56l16 59l59 199h49z" />
    <glyph glyph-name="uni25A0" unicode="&#x25a0;" horiz-adv-x="926" 
d="M110 0v707h706v-707h-706z" />
    <glyph glyph-name="uni25A1" unicode="&#x25a1;" horiz-adv-x="800" 
d="M60 13v681h680v-681h-680zM130 83h540v541h-540v-541z" />
    <glyph glyph-name="uni25AA" unicode="&#x25aa;" horiz-adv-x="766" 
d="M110 0v547h546v-547h-546z" />
    <glyph glyph-name="uni25AB" unicode="&#x25ab;" horiz-adv-x="766" 
d="M110 0v547h546v-547h-546zM185 76h396v396h-396v-396z" />
    <glyph glyph-name="uni25B6" unicode="&#x25b6;" horiz-adv-x="665" 
d="M110 -41v670l535 -335z" />
    <glyph glyph-name="uni25B7" unicode="&#x25b7;" horiz-adv-x="665" 
d="M110 -41v670l535 -335zM187 93l336 200l-336 205v-405z" />
    <glyph glyph-name="uni25B8" unicode="&#x25b8;" horiz-adv-x="465" 
d="M444 273l-334 -335v670z" />
    <glyph glyph-name="uni25B9" unicode="&#x25b9;" horiz-adv-x="465" 
d="M444 273l-334 -335v670zM334 273l-145 146v-292z" />
    <glyph glyph-name="uni25BA" unicode="&#x25ba;" horiz-adv-x="1013" 
d="M1013 273l-903 -335v670z" />
    <glyph glyph-name="uni25BB" unicode="&#x25bb;" horiz-adv-x="1013" 
d="M1013 273l-903 -335v670zM801 273l-611 219v-438z" />
    <glyph glyph-name="uni25C0" unicode="&#x25c0;" horiz-adv-x="665" 
d="M555 -41l-535 335l535 335v-670z" />
    <glyph glyph-name="uni25C1" unicode="&#x25c1;" horiz-adv-x="665" 
d="M555 -41l-535 335l535 335v-670zM478 93v405l-336 -205z" />
    <glyph glyph-name="uni25C2" unicode="&#x25c2;" horiz-adv-x="464" 
d="M354 -62l-334 336l334 334v-670z" />
    <glyph glyph-name="uni25C3" unicode="&#x25c3;" horiz-adv-x="464" 
d="M354 -62l-334 336l334 334v-670zM276 127v292l-146 -146z" />
    <glyph glyph-name="uni25C4" unicode="&#x25c4;" horiz-adv-x="1013" 
d="M903 -62l-903 334l903 336v-670z" />
    <glyph glyph-name="uni25C5" unicode="&#x25c5;" horiz-adv-x="1013" 
d="M903 -62l-903 334l903 336v-670zM823 54v438l-611 -220z" />
    <glyph glyph-name="uni25C6" unicode="&#x25c6;" horiz-adv-x="510" 
d="M255 172l-175 175l175 175l175 -175z" />
    <glyph glyph-name="uni25C9" unicode="&#x25c9;" horiz-adv-x="891" 
d="M800 353q0 -145 -104 -249q-104 -105 -250 -105q-148 0 -251 105q-104 104 -104 249q0 147 104 251t251 104q146 0 250 -104t104 -251zM747 353q0 126 -88 214q-87 87 -213 87q-127 0 -214 -87t-87 -214q0 -125 87 -212q89 -89 214 -89q126 0 213 89q88 87 88 212z
M602 353q0 -64 -46 -110q-45 -45 -110 -45q-66 0 -111 45q-46 46 -46 110q0 65 46 111t111 46q64 0 110 -46t46 -111z" />
    <glyph glyph-name="lozenge" unicode="&#x25ca;" horiz-adv-x="545" 
d="M212 0l-186 355l198 353h104l186 -355l-198 -353h-104zM266 57l160 294l-151 300l-161 -294z" />
    <glyph glyph-name="uni25CB" unicode="&#x25cb;" horiz-adv-x="737" 
d="M368 -7q-117 0 -200 83t-83 200q0 118 82.5 200.5t200.5 82.5t200.5 -82.5t82.5 -200.5q0 -117 -83 -200t-200 -83zM368 73q85 0 145 59t60 144t-60 145t-145 60t-145 -60t-60 -145t60 -144t145 -59z" />
    <glyph glyph-name="uni25CE" unicode="&#x25ce;" horiz-adv-x="891" 
d="M799 361q0 -146 -104 -249q-103 -104 -249 -104q-147 0 -250 104q-104 102 -104 249t104 250q103 104 250 104t249 -104q104 -103 104 -250zM743 361q0 123 -87 211q-88 86 -210 86q-124 0 -211 -86q-86 -87 -86 -211q0 -122 86 -210q90 -87 211 -87t210 87q87 87 87 210
zM655 361q0 -85 -62 -147q-60 -61 -147 -61t-148 61t-61 147q0 87 61 148t148 61t147 -61q62 -62 62 -148zM598 361q0 63 -44 109q-46 44 -108 44q-64 0 -108 -44q-45 -45 -45 -109q0 -63 45 -108q44 -44 108 -44q62 0 108 44q44 46 44 108zM510 361q0 -27 -19 -45
q-18 -19 -45 -19t-45 19q-19 19 -19 45q0 27 19 45q17 20 45 20q26 0 45 -20q19 -18 19 -45z" />
    <glyph glyph-name="uni25CF" unicode="&#x25cf;" horiz-adv-x="766" 
d="M382 -5q-115 0 -197 81.5t-82 196.5t81.5 196.5t197.5 81.5q115 0 196.5 -81.5t81.5 -196.5t-81.5 -196.5t-196.5 -81.5z" />
    <glyph glyph-name="uni25EF" unicode="&#x25ef;" horiz-adv-x="887" 
d="M444 -5q-149 0 -254 105t-105 254t105 254t254 105q148 0 253 -105t105 -254t-105 -254t-253 -105zM444 74q116 0 198 82t82 198t-82 198t-198 82t-198.5 -82t-82.5 -198t82.5 -198t198.5 -82z" />
    <glyph glyph-name="star" unicode="&#x2605;" horiz-adv-x="585" 
d="M128 105l72 195l-173 116l208 -8l56 201l57 -201l208 8l-173 -116l72 -195l-164 129z" />
    <glyph glyph-name="uni260F" unicode="&#x260f;" horiz-adv-x="658" 
d="M608 125q-89 -85 -126 -97q-16 -6 -42 4q-117 45 -250 231q-78 112 -107 182q-30 74 -33 129q5 32 10 40q12 19 57 51t72 45l102 -178l-64 -47l186 -259l58 50zM542 129l-73 80l-50 -44q-13 -13 -29 11l-219 305q-8 9 -6.5 17.5t8.5 11.5l51 43l-56 90
q-22 -12 -45.5 -41.5t-20.5 -52.5q19 -113 125 -258q125 -166 211 -207q20 -9 51 7.5t53 37.5z" />
    <glyph glyph-name="uni2612" unicode="&#x2612;" horiz-adv-x="766" 
d="M110 0v547h546v-547h-546zM383 314l156 155h-312zM229 78h314l-160 154zM188 118l154 155l-154 155v-310zM578 123v305l-154 -155z" />
    <glyph glyph-name="uni261C" unicode="&#x261c;" horiz-adv-x="765" 
d="M715 97h-67q-11 0 -38.5 -21t-54.5 -21h-188q-39 0 -60.5 20.5t-21.5 51.5q0 9 3 18q-21 7 -34 26t-13 41q0 14 8 32q-15 16 -15 42q0 11 6 27h-116q-35 0 -54.5 21t-19.5 50q0 30 21.5 52.5t60.5 22.5h263l-45 42q-30 29 -30 59q0 43 59 100l237 -190h98v-38h-112
l-222 178q-20 -20 -20 -43q0 -29 29 -53l108 -93h-365q-21 0 -32.5 -10.5t-11.5 -25.5q0 -14 9.5 -24t26.5 -10h334v-38h-178q-8 -14 -8 -22q0 -9 7 -17.5t22 -8.5h157v-38h-175q-5 -6 -5 -22q0 -26 47 -26h133v-38h-131q-4 -4 -4 -16q0 -14 14 -23t30 -9h188q18 0 44 21
t49 21h67v-38z" />
    <glyph glyph-name="uni261D" unicode="&#x261d;" horiz-adv-x="705" 
d="M655 361l-190 -237v-124h-38v138l178 222q-20 20 -43 20q-29 0 -53 -29l-93 -108v365q0 21 -10.5 32.5t-25.5 11.5q-14 0 -24 -9.5t-10 -26.5v-334h-38v178q-14 8 -22 8q-9 0 -17.5 -7t-8.5 -22v-157h-38v175q-6 5 -22 5q-26 0 -26 -47v-133h-38v130q-4 5 -16 5
q-14 0 -23 -14t-9 -30v-188q0 -18 21 -44t21 -49v-93h-38v93q0 11 -21 38.5t-21 54.5v188q0 39 20.5 60.5t51.5 21.5q9 0 18 -3q7 21 26 34t41 13q14 0 32 -8q18 15 42 15q11 0 27 -6v116q0 35 21 54.5t50 19.5q30 0 52.5 -21.5t22.5 -60.5v-263l42 45q28 30 59 30
q43 0 100 -59z" />
    <glyph glyph-name="uni261E" unicode="&#x261e;" horiz-adv-x="765" 
d="M715 384q0 -29 -19.5 -50t-54.5 -21h-116q6 -16 6 -27q0 -24 -15 -42q8 -18 8 -32q0 -22 -13 -41t-34 -26q3 -9 3 -18q0 -31 -21.5 -51.5t-60.5 -20.5h-188q-27 0 -54.5 21t-38.5 21h-67v38h67q23 0 49 -21t44 -21h188q16 0 30 9t14 23q0 12 -5 16h-130v38h133
q47 0 47 26q0 16 -5 22h-175v38h157q15 0 22 8.5t7 17.5q0 8 -8 22h-178v38h334q17 0 26.5 10t9.5 24q0 15 -11.5 25.5t-32.5 10.5h-365l108 93q29 24 29 53q0 23 -20 43l-222 -178h-112v38h98l237 190q59 -57 59 -100q0 -30 -30 -59l-45 -42h263q39 0 60.5 -22.5
t21.5 -52.5z" />
    <glyph glyph-name="uni261F" unicode="&#x261f;" horiz-adv-x="705" 
d="M655 361l-190 -237v-124h-38v138l178 222q-20 20 -43 20q-29 0 -53 -29l-93 -108v160q0 44 -26 44q-14 0 -24 -9.5t-10 -26.5v-129h-38v337q0 17 -9.5 27.5t-21.5 10.5t-19.5 -10.5t-7.5 -27.5v-337h-38v161q-6 5 -22 5q-15 0 -20.5 -6t-5.5 -27v-133h-38v130q-4 5 -16 5
q-14 0 -23 -14t-9 -30v-188q0 -18 21 -44t21 -49v-93h-38v93q0 11 -21 38.5t-21 54.5v188q0 39 20.5 60.5t51.5 21.5q9 0 18 -3q20 33 58 33q10 0 24 -7v153q0 28 22.5 47.5t47.5 19.5q26 0 45.5 -19t19.5 -44v-156q14 6 32 6q29 0 47 -21t18 -61v-58l42 45q27 28 67 28
q22 0 42 -13t50 -44z" />
    <glyph glyph-name="smileface" unicode="&#x263a;" horiz-adv-x="830" 
d="M415 136q-74 0 -132.5 46t-76.5 117l52 16q15 -54 58.5 -88t99.5 -34q58 0 102 35.5t56 91.5l50 -20q-16 -71 -74.5 -117.5t-134.5 -46.5zM298 397q-22 0 -37 14.5t-15 35.5t15 35.5t37 14.5q21 0 37 -14.5t16 -35.5t-16 -35.5t-37 -14.5zM415 -6q-149 0 -254 105.5
t-105 254.5t105 254t254 105t254 -105t105 -254t-105 -254.5t-254 -105.5zM415 67q119 0 203 84t84 203q0 118 -84.5 202t-202.5 84t-202.5 -84t-84.5 -202q0 -119 84 -203t203 -84zM532 397q-22 0 -37 14.5t-15 35.5t15 35.5t37 14.5q21 0 37 -14.5t16 -35.5t-16 -35.5
t-37 -14.5z" />
    <glyph glyph-name="earth" unicode="&#x2641;" horiz-adv-x="786" 
d="M754 354q0 -150 -106 -255.5t-255 -105.5t-255 105.5t-106 255.5q0 149 106 255t255 106t255 -106t106 -255zM202 561l-29 -21l-16 25l1 1h-2l1 -1q-83 -88 -83 -211q0 -133 93 -226t226 -93t226 93t93 226q0 33 -7 69l-5 -49l-49 -32l17 -20l-29 -14l-10 18l-5 -1l5 -26
l22 -12l-9 -7l-13 4l3 -10l12 -1l10 -19l30 -11l2 -10l-36 6l-49 51l19 -2l-27 64v16h-8l-3 -15l-27 -20v-19l-25 -6l-13 36l-9 3l1 21l-81 14l13 -21l18 5l14 -14l-14 -18l-39 -12l-34 67h-10l-1 -13l23 -48l18 -13l32 2l-54 -76l6 -6l2 -24l-15 -15l-1 -18l-38 -46l-35 2
l-27 77l8 11v19l-22 27l9 6l-22 14l-49 2l-26 27l-1 49l62 54l32 3l8 -9l-2 -13l25 -8l13 16l9 -14h40l6 6v24l-14 -24l-24 30l8 -30l-22 18l-3 19l-21 24l-4 -4l17 -20l-11 -19l-2 16l-22 17l-11 -10l-6 4l-41 -34l-14 35l26 -1l9 11l-14 9l21 13l10 1l17 16l-5 18l10 4
l6 -14l32 4l1 12l40 13l-6 7l-27 -7l-7 14l16 12l-9 10l-21 -27l8 -6l-2 -16l-20 -6l-5 12l-22 -3l2 19l36 49l44 9l60 -14l-11 -16l-23 2l15 -16l46 30h35l-20 28l23 26l33 14q-52 19 -111 19q-147 0 -235 -107l30 8zM564 626q-40 20 -60 28l5 -11l-31 -11l-18 -23l36 -24
l-6 11l22 25l45 -15zM438 219l-14 -51l-21 14l6 26l21 16zM703 277l-13 -25l-23 6l1 19l21 21zM251 496l-1 -13h-27l6 13l-15 21l12 11l6 -18zM218 491l-10 -11l-11 10l9 18zM296 419l-9 4l6 9z" />
    <glyph glyph-name="uni2661" unicode="&#x2661;" horiz-adv-x="673" 
d="M623 375q0 -74 -98 -188l-189 -223l-154 175q-58 65 -95 130t-37 106q0 82 49.5 132t112.5 50t125 -56q58 56 124 56q63 0 112.5 -50t49.5 -132zM564 375q0 59 -32.5 91t-70.5 32q-24 0 -43.5 -8.5t-35.5 -27.5t-24 -32t-22 -39q-22 42 -37 61q-39 46 -87 46
q-38 0 -70.5 -33t-32.5 -90q0 -29 31.5 -81.5t73.5 -101.5l123 -142l143 169q37 44 60.5 88t23.5 68z" />
    <glyph glyph-name="uni2665" unicode="&#x2665;" horiz-adv-x="673" 
d="M623 375q0 -74 -98 -188l-189 -223l-154 175q-58 65 -95 130t-37 106q0 82 49.5 132t112.5 50t125 -56q58 56 124 56q63 0 112.5 -50t49.5 -132z" />
    <glyph glyph-name="uni2708" unicode="&#x2708;" horiz-adv-x="786" 
d="M754 354q0 -149 -106 -255t-255 -106t-255 106t-106 255t106 255t255 106t255 -106t106 -255zM712 354q0 133 -93 226t-226 93t-226 -93t-93 -226t93 -226t226 -93t226 93t93 226zM572 512q0 -15 -8 -25l-79 -87l85 -187l-43 -45l-115 161l-74 -76l14 -103l-36 -12
l-44 96l-97 41l5 37l109 -13l74 77l-163 108l43 45l188 -78l86 81q10 10 23 10q14 0 23 -9t9 -21z" />
    <glyph glyph-name="uni2709" unicode="&#x2709;" horiz-adv-x="756" 
d="M706 51h-656v484h656v-484zM665 116v351l-186 -168zM642 495h-524l263 -227zM637 89l-190 182l-32 -31q-13 -13 -38 -13q-19 0 -37 17l-33 29l-190 -184h520zM278 300l-189 163v-351z" />
    <glyph glyph-name="uni270E" unicode="&#x270e;" horiz-adv-x="764" 
d="M714 498l-377 -380l-287 -108l111 278l383 380zM586 571l-45 41l-316 -320l45 -42zM657 496l-45 45l-316 -320l45 -46zM316 148l-121 118l-53 -123l43 -46z" />
    <glyph glyph-name="uni2740" unicode="&#x2740;" horiz-adv-x="434" 
d="M384 211l-137 -206v-5h-59v3l-138 208q16 4 37 4q29 0 50 -11q41 -24 51 -108v156q-42 12 -66 43.5t-24 72.5q0 22 0.5 102t0.5 102l71 -45l44 47l47 -48l74 46v-204q0 -41 -23.5 -72t-64.5 -43v-149q9 76 50 100q21 11 50 11zM282 368v112l-20 -20l-47 48l-45 -49
l-19 20v-111q0 -27 19 -46t46 -19t46.5 19t19.5 46z" />
    <glyph glyph-name="uni2780" unicode="&#x2780;" horiz-adv-x="840" 
d="M420 -5q-149 0 -254.5 105t-105.5 254t105.5 254t254.5 105t254.5 -105t105.5 -254q0 -148 -105.5 -253.5t-254.5 -105.5zM420 48q127 0 216.5 89.5t89.5 216.5t-89.5 216.5t-216.5 89.5t-216.5 -89.5t-89.5 -216.5t89.5 -216.5t216.5 -89.5zM401 182v312h-89v53l157 4
v-369h-68z" />
    <glyph glyph-name="uni2781" unicode="&#x2781;" horiz-adv-x="840" 
d="M287 192v51q10 8 33 24.5t33 24t29 22t28 22.5t22.5 21t20.5 22.5t14 21.5t10 23t3 23q0 29 -18 44t-45 15q-55 0 -89 -34l-28 42q47 49 123 49q53 0 88 -29.5t35 -80.5q0 -27 -12 -53.5t-26.5 -45t-43 -41t-45 -34t-49.5 -31.5h181v-56h-264zM420 -5q-149 0 -254.5 105
t-105.5 254t105.5 254t254.5 105t254.5 -105t105.5 -254q0 -148 -105.5 -253.5t-254.5 -105.5zM420 48q127 0 216.5 89.5t89.5 216.5t-89.5 216.5t-216.5 89.5t-216.5 -89.5t-89.5 -216.5t89.5 -216.5t216.5 -89.5z" />
    <glyph glyph-name="uni2782" unicode="&#x2782;" horiz-adv-x="840" 
d="M410 173q-54 0 -107 16l14 51q52 -13 87 -13q84 0 84 55q0 36 -26 50t-83 18v39q92 8 92 65q0 20 -17.5 32t-43.5 12q-34 0 -70 -17l-17 43q44 26 98 26q50 0 82.5 -24t32.5 -65q0 -28 -16 -51t-45 -35q38 -8 59 -33.5t21 -58.5q0 -56 -42 -83t-103 -27zM420 -5
q-149 0 -254.5 105t-105.5 254t105.5 254t254.5 105t254.5 -105t105.5 -254q0 -148 -105.5 -253.5t-254.5 -105.5zM420 48q127 0 216.5 89.5t89.5 216.5t-89.5 216.5t-216.5 89.5t-216.5 -89.5t-89.5 -216.5t89.5 -216.5t216.5 -89.5z" />
    <glyph glyph-name="uni2783" unicode="&#x2783;" horiz-adv-x="840" 
d="M420 -5q-149 0 -254.5 105t-105.5 254t105.5 254t254.5 105t254.5 -105t105.5 -254q0 -148 -105.5 -253.5t-254.5 -105.5zM420 48q127 0 216.5 89.5t89.5 216.5t-89.5 216.5t-216.5 89.5t-216.5 -89.5t-89.5 -216.5t89.5 -216.5t216.5 -89.5zM421 182v88h-168v57l132 220
h101v-225h62v-52h-62v-88h-65zM305 322h116v188z" />
    <glyph glyph-name="uni2784" unicode="&#x2784;" horiz-adv-x="840" 
d="M409 163q-48 0 -104 14l16 51q51 -13 87 -13q33 0 52 18t19 46q0 32 -19.5 48.5t-52.5 16.5q-37 0 -87 -5v198h216v-53h-154v-89h37q58 0 93 -28.5t35 -81.5q0 -56 -39 -89t-99 -33zM420 -5q-149 0 -254.5 105t-105.5 254t105.5 254t254.5 105t254.5 -105t105.5 -254
q0 -148 -105.5 -253.5t-254.5 -105.5zM420 48q127 0 216.5 89.5t89.5 216.5t-89.5 216.5t-216.5 89.5t-216.5 -89.5t-89.5 -216.5t89.5 -216.5t216.5 -89.5z" />
    <glyph glyph-name="uni2785" unicode="&#x2785;" horiz-adv-x="840" 
d="M420 -5q-149 0 -254.5 105t-105.5 254t105.5 254t254.5 105t254.5 -105t105.5 -254q0 -148 -105.5 -253.5t-254.5 -105.5zM420 48q127 0 216.5 89.5t89.5 216.5t-89.5 216.5t-216.5 89.5t-216.5 -89.5t-89.5 -216.5t89.5 -216.5t216.5 -89.5zM414 172q-70 0 -104.5 36.5
t-34.5 125.5q0 100 48.5 158t126.5 58q37 0 78 -12l-16 -52q-32 9 -65 9q-39 0 -66 -27.5t-35 -78.5q36 17 77 17q58 0 90.5 -27.5t32.5 -81.5q0 -60 -37.5 -92.5t-94.5 -32.5zM417 223q26 0 43 19.5t17 49.5q0 32 -17.5 49.5t-44.5 17.5q-34 0 -70 -13q0 -72 15 -97.5
t57 -25.5z" />
    <glyph glyph-name="uni2786" unicode="&#x2786;" horiz-adv-x="840" 
d="M420 -5q-149 0 -254.5 105t-105.5 254t105.5 254t254.5 105t254.5 -105t105.5 -254q0 -148 -105.5 -253.5t-254.5 -105.5zM420 48q127 0 216.5 89.5t89.5 216.5t-89.5 216.5t-216.5 89.5t-216.5 -89.5t-89.5 -216.5t89.5 -216.5t216.5 -89.5zM383 149l-63 21l169 297
h-190v60h258v-51z" />
    <glyph glyph-name="uni2787" unicode="&#x2787;" horiz-adv-x="840" 
d="M416 166q-137 0 -137 98q0 58 69 103q-56 31 -56 82q0 44 37 69t92 25q59 0 92.5 -24t33.5 -64q0 -54 -70 -90q81 -39 81 -94q0 -52 -38.5 -78.5t-103.5 -26.5zM418 213q32 0 52 16t20 46q0 29 -85 64q-3 2 -5.5 3t-5.5 2q-49 -29 -49 -73q0 -58 73 -58zM420 -5
q-149 0 -254.5 105t-105.5 254t105.5 254t254.5 105t254.5 -105t105.5 -254q0 -148 -105.5 -253.5t-254.5 -105.5zM420 48q127 0 216.5 89.5t89.5 216.5t-89.5 216.5t-216.5 89.5t-216.5 -89.5t-89.5 -216.5t89.5 -216.5t216.5 -89.5zM428 386q51 32 51 62q0 45 -60 45
q-64 0 -64 -49q0 -12 11.5 -23t24 -17.5t37.5 -17.5z" />
    <glyph glyph-name="uni2788" unicode="&#x2788;" horiz-adv-x="840" 
d="M420 -5q-149 0 -254.5 105t-105.5 254t105.5 254t254.5 105t254.5 -105t105.5 -254q0 -148 -105.5 -253.5t-254.5 -105.5zM420 48q127 0 216.5 89.5t89.5 216.5t-89.5 216.5t-216.5 89.5t-216.5 -89.5t-89.5 -216.5t89.5 -216.5t216.5 -89.5zM385 165q-37 0 -78 12l16 52
q38 -9 64 -9q39 0 66.5 28t34.5 78q-32 -17 -76 -17q-58 0 -91 28t-33 81q0 61 38 93t94 32q70 0 105 -36.5t35 -124.5q0 -101 -49 -159t-126 -58zM420 356q28 0 70 14q-1 71 -15.5 96.5t-56.5 25.5q-27 0 -44 -19t-17 -50q0 -33 17.5 -50t45.5 -17z" />
    <glyph glyph-name="uni278A" unicode="&#x278a;" horiz-adv-x="840" 
d="M420 -5q-149 0 -254.5 105t-105.5 254t105.5 254t254.5 105t254.5 -105t105.5 -254q0 -148 -105.5 -253.5t-254.5 -105.5zM401 182h68v369l-157 -4v-53h89v-312z" />
    <glyph glyph-name="uni278B" unicode="&#x278b;" horiz-adv-x="840" 
d="M287 192h264v56h-181q33 20 49.5 31.5t45 34t43 41t26.5 45t12 53.5q0 51 -35 80.5t-88 29.5q-76 0 -123 -49l28 -42q34 34 89 34q27 0 45 -15t18 -44q0 -12 -3 -23t-10 -23t-14 -21.5t-20.5 -22.5t-22.5 -21t-28 -22.5t-29 -22t-33 -24t-33 -24.5v-51zM420 -5
q-149 0 -254.5 105t-105.5 254t105.5 254t254.5 105t254.5 -105t105.5 -254q0 -148 -105.5 -253.5t-254.5 -105.5z" />
    <glyph glyph-name="uni278C" unicode="&#x278c;" horiz-adv-x="840" 
d="M410 173q61 0 103 27t42 83q0 33 -21 58.5t-59 33.5q29 12 45 35t16 51q0 41 -32.5 65t-82.5 24q-54 0 -98 -26l17 -43q36 17 70 17q26 0 43.5 -12t17.5 -32q0 -57 -92 -65v-39q57 -4 83 -18t26 -50q0 -55 -84 -55q-35 0 -87 13l-14 -51q53 -16 107 -16zM420 -5
q-149 0 -254.5 105t-105.5 254t105.5 254t254.5 105t254.5 -105t105.5 -254q0 -148 -105.5 -253.5t-254.5 -105.5z" />
    <glyph glyph-name="uni278D" unicode="&#x278d;" horiz-adv-x="840" 
d="M420 -5q-149 0 -254.5 105t-105.5 254t105.5 254t254.5 105t254.5 -105t105.5 -254q0 -148 -105.5 -253.5t-254.5 -105.5zM421 182h65v88h62v52h-62v225h-101l-132 -220v-57h168v-88zM305 322l116 188v-188h-116z" />
    <glyph glyph-name="uni278E" unicode="&#x278e;" horiz-adv-x="840" 
d="M409 163q60 0 99 33t39 89q0 53 -35 81.5t-93 28.5h-37v89h154v53h-216v-198q50 5 87 5q33 0 52.5 -16.5t19.5 -48.5q0 -28 -19 -46t-52 -18q-36 0 -87 13l-16 -51q56 -14 104 -14zM420 -5q-149 0 -254.5 105t-105.5 254t105.5 254t254.5 105t254.5 -105t105.5 -254
q0 -148 -105.5 -253.5t-254.5 -105.5z" />
    <glyph glyph-name="uni278F" unicode="&#x278f;" horiz-adv-x="840" 
d="M414 172q57 0 94.5 32.5t37.5 92.5q0 54 -32.5 81.5t-90.5 27.5q-41 0 -77 -17q8 51 35 78.5t66 27.5q33 0 65 -9l16 52q-41 12 -78 12q-78 0 -126.5 -58t-48.5 -158q0 -89 34.5 -125.5t104.5 -36.5zM417 223q-42 0 -57 25t-15 94v4q36 13 70 13q27 0 44.5 -17.5
t17.5 -49.5q0 -30 -16.5 -49.5t-43.5 -19.5zM420 -5q-149 0 -254.5 105t-105.5 254t105.5 254t254.5 105t254.5 -105t105.5 -254q0 -148 -105.5 -253.5t-254.5 -105.5z" />
    <glyph glyph-name="uni2790" unicode="&#x2790;" horiz-adv-x="840" 
d="M420 -5q-149 0 -254.5 105t-105.5 254t105.5 254t254.5 105t254.5 -105t105.5 -254q0 -148 -105.5 -253.5t-254.5 -105.5zM383 149l174 327v51h-258v-60h190l-169 -297z" />
    <glyph glyph-name="uni2791" unicode="&#x2791;" horiz-adv-x="840" 
d="M416 166q65 0 103.5 26.5t38.5 78.5q0 55 -81 94q70 36 70 90q0 40 -33.5 64t-92.5 24q-55 0 -92 -25t-37 -69q0 -51 56 -82q-69 -45 -69 -103q0 -98 137 -98zM418 213q-73 0 -73 58q0 44 49 73q69 -29 83 -43q13 -12 13 -26q0 -30 -20 -46t-52 -16zM420 -5
q-149 0 -254.5 105t-105.5 254t105.5 254t254.5 105t254.5 -105t105.5 -254q0 -148 -105.5 -253.5t-254.5 -105.5zM428 386q-25 11 -37.5 17.5t-24 17.5t-11.5 23q0 49 64 49q60 0 60 -45q0 -30 -51 -62z" />
    <glyph glyph-name="uni2792" unicode="&#x2792;" horiz-adv-x="840" 
d="M385 165q77 0 126 58t49 159q0 88 -35 124.5t-105 36.5q-56 0 -94 -32t-38 -93q0 -53 33 -81t91 -28q44 0 76 17q-7 -50 -34.5 -78t-66.5 -28q-26 0 -64 9l-16 -52q41 -12 78 -12zM418 492q42 0 57 -26t15 -96q-42 -14 -70 -14t-45.5 17t-17.5 50q0 31 17.5 50t43.5 19z
M780 354q0 -148 -105.5 -253.5t-254.5 -105.5t-254.5 105t-105.5 254t105.5 254t254.5 105t254.5 -105t105.5 -254z" />
    <glyph glyph-name="apple" unicode="&#xf8ff;" horiz-adv-x="1241" 
d="M1141 357h-10v-10h-11v10h-10v11h10v10h11v-10h10v-11zM1081 377h-11v11h11v-11zM1081 338h-11v10h11v-10zM1041 377h-11v11h11v-11zM1071 357h-10v-10h-11v10h-10v11h10v10h11v-10h10v-11zM1041 338h-11v10h11v-10zM1001 387h-10v-10h-11v11h10v10h11v-11zM1001 328h-11
v10h-10v10h11v-10h10v-10zM951 377h-11v10h-10v11h11v-10h10v-11zM981 357h-10v-10h-11v10h-10v11h10v10h11v-10h10v-11zM951 338h-10v-10h-11v10h10v10h11v-10zM911 338h-31v9h-10v31h10v10h21v-10h10v-21h-30v-9h30v-10zM900 368v9h-19v-9h19zM851 338h-31v9h-10v41h11
v-40h19v40h11v-50zM791 318h-11v20h-20v9h-10v31h10v10h31v-70zM780 348v29h-19v-29h19zM731 338h-31v9h-10v31h10v10h21v-10h10v-21h-30v-9h30v-10zM720 368v9h-19v-9h19zM671 338h-11v39h-19v-39h-11v70h11v-20h20v-10h10v-40zM611 338h-21v9h-10v30h-10v11h10v10h11v-10
h20v-11h-20v-29h20v-10zM551 347h-10v-9h-21v9h-10v31h10v10h21v-10h10v-31zM540 348v29h-19v-29h19zM491 347h-10v-9h-20v-20h-11v70h31v-10h10v-31zM480 348v29h-19v-29h19zM431 347h-10v-9h-10v-10h-10v-10h-11v11h10v18h-10v41h11v-40h19v40h11v-41zM371 338h-21v9h-10
v30h-10v11h10v10h11v-10h20v-11h-20v-29h20v-10zM311 387h-10v-10h-11v11h10v10h11v-11zM311 328h-11v10h-10v10h11v-10h10v-10zM261 377h-11v10h-10v11h11v-10h10v-11zM291 357h-10v-10h-11v10h-10v11h10v10h11v-10h10v-11zM261 338h-10v-10h-11v10h10v10h11v-10zM211 377
h-11v11h11v-11zM211 338h-11v10h11v-10zM171 377h-11v11h11v-11zM201 357h-10v-10h-11v10h-10v11h10v10h11v-10h10v-11zM171 338h-11v10h11v-10zM131 357h-10v-10h-11v10h-10v11h10v10h11v-10h10v-11z" />
    <glyph glyph-name="comma.inferior" unicode="&#xfe50;" horiz-adv-x="206" 
d="M49 -52q18 47 18 86v51h62v-28q0 -55 -34 -109h-46z" />
    <glyph glyph-name="period.inferior" unicode="&#xfe52;" horiz-adv-x="213" 
d="M71 0v71h72v-71h-72z" />
    <glyph glyph-name="dollar.inferior" unicode="&#xfe69;" horiz-adv-x="343" 
d="M140 -43l1 51q-61 2 -112 25l19 46q60 -23 107 -23q79 0 79 48q0 20 -29.5 35.5t-64.5 26t-64.5 35.5t-29.5 63q0 36 26.5 57t68.5 27l-1 65h50l-1 -64q52 -1 94 -19l-15 -43q-67 16 -95 16q-67 0 -67 -38q0 -17 19.5 -30.5t47.5 -23.5t56 -22t47.5 -33t19.5 -49
q0 -44 -30.5 -67.5t-76.5 -29.5l1 -53h-50z" />
    <glyph glyph-name="uni0045_uni02DA" horiz-adv-x="580" 
d="M321 741q-50 0 -85 26.5t-35 79.5q0 51 35 80.5t83 29.5q46 0 82.5 -26.5t36.5 -81.5q0 -50 -33 -79t-84 -29zM320 785q30 0 47.5 17t18.5 46q0 28 -20 46t-47 18q-30 0 -48 -16.5t-18 -45.5t19 -47t48 -18zM111 0v707h396v-67h-314v-251h292v-68h-292v-253h337v-68h-419
z" />
    <glyph glyph-name="uni0046_uni00AF" horiz-adv-x="559" 
d="M111 0v707h416v-67h-334v-271h312v-68h-312v-301h-82zM170 786v65h299v-65h-299z" />
    <glyph glyph-name="Jacute" horiz-adv-x="305" 
d="M101 747l-18 56l221 80l23 -71zM1 -187l-35 60q86 48 115.5 110.5t29.5 167.5v556h83v-554q0 -63 -7 -108t-27 -90t-59.5 -80t-99.5 -62z" />
    <glyph glyph-name="uni004E_uni00AF" horiz-adv-x="782" 
d="M238 786v65h299v-65h-299zM111 0v707h118l361 -637l-3 88v549h84v-707h-129l-353 628l4 -73v-555h-82z" />
    <glyph glyph-name="uni0050_uni00AF" horiz-adv-x="590" 
d="M111 0v707h231q107 0 168 -57.5t61 -163.5q0 -101 -71.5 -166t-209.5 -65h-30v69h36q88 0 138 38t50 119t-40.5 120t-123.5 39h-126v-640h-83zM153 786v65h299v-65h-299z" />
    <glyph glyph-name="uni0052_uni0060" horiz-adv-x="702" 
d="M669 -11q-111 9 -182 108l-131 189q-28 -5 -66 -5h-96v-281h-83v707h231q106 0 167.5 -51.5t61.5 -155.5q0 -66 -32.5 -117t-100.5 -77l110 -157q52 -71 139 -95zM194 350h102q90 0 139 32.5t49 111.5t-40 112.5t-124 33.5h-126v-290zM354 747l-224 65l22 71l221 -80z
" />
    <glyph glyph-name="uni0053_uni02D8" horiz-adv-x="554" 
d="M250 -12q-115 0 -197 43l28 66q84 -37 167 -37q70 0 120 28t50 90q0 41 -25.5 72.5t-64 50t-83.5 41t-83.5 45t-64 63.5t-25.5 95q0 82 59.5 126.5t149.5 44.5q93 0 172 -34l-23 -61q-76 27 -147 27q-60 0 -96.5 -25t-36.5 -75q0 -43 36 -76t87 -56.5t102.5 -50.5
t87.5 -73t36 -108q0 -97 -70 -146.5t-179 -49.5zM274 771q-107 0 -165 85l43 39q48 -60 125 -60q75 0 124 59l41 -36q-54 -87 -168 -87z" />
    <glyph glyph-name="uni0056_uni00AF" horiz-adv-x="650" 
d="M256 0l-255 707h89l225 -642l252 642h83l-280 -707h-114zM176 786v65h299v-65h-299z" />
    <glyph glyph-name="uni0058_uni00AF" horiz-adv-x="607" 
d="M6 0l249 374l-206 333h94l161 -267l172 267h89l-218 -331l234 -376h-96l-186 310l-199 -310h-94zM150 786v65h299v-65h-299z" />
    <glyph glyph-name="uni00CD_uni004A_uni0301" horiz-adv-x="595" 
d="M111 0v707h82v-707h-82zM106 747l-18 56l221 80l23 -71zM394 747l-18 56l221 80l23 -71zM291 -187l-35 60q86 48 115.5 110.5t29.5 167.5v556h83v-554q0 -63 -7 -108t-27 -90t-59.5 -80t-99.5 -62z" />
    <glyph glyph-name="f.alt" horiz-adv-x="339" 
d="M97 0v482h-80v64h80v48q0 94 48.5 138t128.5 44q49 0 84 -11l-14 -65q-35 7 -69 7q-52 0 -75.5 -26.5t-23.5 -87.5v-47h117v-64h-117v-482h-79z" />
    <glyph glyph-name="g.alt" horiz-adv-x="582" 
d="M555 527v-66h-99q20 -30 20 -86q0 -78 -58.5 -128t-145.5 -50q-70 0 -119 24v-100h152q105 0 159.5 -41t54.5 -107q0 -80 -75 -142t-199 -62q-103 0 -158 39t-55 105q0 74 79 144q-16 6 -24.5 21.5t-8.5 33.5q0 59 45 127q-58 46 -58 132q0 81 52 135.5t150 54.5
q82 0 133 -37zM267 -162q75 0 127.5 38.5t52.5 84.5q0 39 -39 63.5t-114 24.5h-130q-56 -56 -56 -111q0 -44 41.5 -72t117.5 -28zM270 256q57 0 92 33t35 89q0 55 -33 90t-91 35q-63 0 -96 -33.5t-33 -95.5q0 -58 34 -88t92 -30z" />
    <glyph glyph-name="uni0065_uni02DA" horiz-adv-x="543" 
d="M313 -12q-126 0 -192 63t-66 212q0 156 66 226.5t178 70.5q197 0 197 -273v-29h-361q1 -63 16 -104.5t44.5 -62t62 -28t79.5 -7.5q56 0 135 23l14 -65q-67 -26 -173 -26zM136 317h277q0 85 -31.5 134.5t-94.5 49.5t-103.5 -47t-47.5 -137zM292 606q-50 0 -85 26.5
t-35 79.5q0 51 35 80.5t83 29.5q46 0 82.5 -26.5t36.5 -81.5q0 -50 -33 -79t-84 -29zM291 650q30 0 47.5 17t18.5 46q0 28 -20 46t-47 18q-30 0 -48 -16.5t-18 -45.5t19 -47t48 -18z" />
    <glyph glyph-name="uni0066_uni00AF" horiz-adv-x="339" 
d="M97 0v482h-80v64h80v48q0 94 48.5 138t128.5 44q49 0 84 -11l-14 -65q-35 7 -69 7q-52 0 -75.5 -26.5t-23.5 -87.5v-47h117v-64h-117v-482h-79zM5 -143v65h299v-65h-299z" />
    <glyph glyph-name="jacute" horiz-adv-x="267" 
d="M-11 -220q-38 0 -71 11l14 64q31 -7 57 -7q58 0 81 35t23 102v561h80v-562q0 -204 -184 -204zM88 619l-30 51l188 129l37 -60z" />
    <glyph glyph-name="dotlessj" horiz-adv-x="267" 
d="M-11 -220q-38 0 -71 11l14 64q31 -7 57 -7q58 0 81 35t23 102v561h80v-562q0 -204 -184 -204z" />
    <glyph glyph-name="uni006E_uni00AF" horiz-adv-x="619" 
d="M156 669v65h299v-65h-299zM93 0v546h79v-62q33 23 55 36.5t60 26.5t75 13q46 0 79 -13.5t50.5 -32t27 -49.5t11.5 -54.5t2 -58.5v-352h-77v337q0 80 -22 116.5t-91 36.5q-29 0 -65.5 -13.5t-53 -23t-51.5 -30.5v-423h-79z" />
    <glyph glyph-name="uni0070_uni00AF" horiz-adv-x="601" 
d="M93 -220v766h79v-45q79 57 151 57q106 0 164 -70.5t58 -198.5q0 -82 -21 -142.5t-59 -93.5t-83 -48.5t-99 -15.5q-50 0 -111 9v-218h-79zM286 55q86 0 132.5 59.5t46.5 154.5q0 100 -34.5 160.5t-123.5 60.5q-61 0 -135 -52v-372q4 0 23.5 -3.5t40.5 -5.5t50 -2zM145 669
v65h299v-65h-299z" />
    <glyph glyph-name="uni0072_uni0060" horiz-adv-x="390" 
d="M93 0v546h79v-73q20 35 61 60t95 25q34 0 64 -9l-14 -67q-30 7 -64 7q-45 0 -82 -25.5t-60 -61.5v-402h-79zM270 619l-193 120l36 60l189 -129z" />
    <glyph glyph-name="uni0073_uni02D8" horiz-adv-x="465" 
d="M212 -11q-86 0 -160 23l14 65q101 -23 139 -23q64 0 100.5 23t36.5 62q0 34 -28.5 57.5t-68.5 39t-80.5 33.5t-69 53.5t-28.5 87.5q0 71 52 110.5t135 39.5q55 0 132 -23l-14 -63q-71 20 -126 20q-49 0 -75.5 -22.5t-26.5 -56.5t28 -58.5t68 -40.5t80.5 -34t68.5 -52.5
t28 -83.5q0 -45 -19 -77t-50.5 -48.5t-65 -24t-70.5 -7.5zM234 644q-110 0 -165 85l43 38q51 -59 125 -59q75 0 124 59l41 -36q-54 -87 -168 -87z" />
    <glyph glyph-name="germandbls.alt" horiz-adv-x="620" 
d="M95 0v572q0 107 50.5 154.5t145.5 47.5q29 0 55.5 -6.5t55 -21.5t45.5 -46.5t17 -76.5q0 -34 -18.5 -68t-41 -56t-41 -48t-18.5 -47q0 -32 23 -57t56 -43.5t66.5 -39t56.5 -52.5t23 -75q0 -40 -15 -69.5t-41 -45.5t-54.5 -23.5t-60.5 -7.5q-101 0 -151 22l14 64
q93 -18 122 -18q111 0 111 69q0 31 -23.5 55t-56.5 41.5t-66.5 38t-57 56t-23.5 83.5q0 31 17.5 61.5t39 51.5t39 50.5t17.5 59.5q0 42 -25.5 62t-64.5 20q-68 0 -92.5 -34t-24.5 -102v-571h-79z" />
    <glyph glyph-name="uni021B" horiz-adv-x="416" 
d="M305 -58l-39 -203h-59l21 203h77zM298 -11q-39 0 -59.5 1.5t-48.5 10t-42 25t-24.5 48t-10.5 78.5v327h-80v67h80v112h77v-112h171v-67h-170v-326q0 -59 20.5 -77t83.5 -18q41 0 86 15l14 -66q-54 -18 -97 -18z" />
    <glyph glyph-name="uni0076_uni00AF" horiz-adv-x="522" 
d="M105 669v65h299v-65h-299zM196 0l-179 546h87l114 -375l35 -116l39 118l130 373h81l-196 -546h-111z" />
    <glyph glyph-name="uni0078_uni00AF" horiz-adv-x="507" 
d="M18 0l190 279l-179 267h92l132 -211l133 211h88l-176 -265l190 -281h-95l-140 224l-142 -224h-93zM101 669v65h299v-65h-299z" />
    <glyph glyph-name="iacute_jacute" horiz-adv-x="541" 
d="M262 -220q-38 0 -71 11l14 64q31 -7 57 -7q58 0 81 35t23 102v561h80v-562q0 -204 -184 -204zM94 619l-30 51l188 129l37 -60zM370 619l-30 51l188 129l37 -60zM92 0v546h81v-546h-81z" />
    <glyph glyph-name="gbreve.alt" horiz-adv-x="582" 
d="M555 527v-66h-99q20 -30 20 -86q0 -78 -58.5 -128t-145.5 -50q-70 0 -119 24v-100h152q105 0 159.5 -41t54.5 -107q0 -80 -75 -142t-199 -62q-103 0 -158 39t-55 105q0 74 79 144q-16 6 -24.5 21.5t-8.5 33.5q0 59 45 127q-58 46 -58 132q0 81 52 135.5t150 54.5
q82 0 133 -37zM267 -162q75 0 127.5 38.5t52.5 84.5q0 39 -39 63.5t-114 24.5h-130q-56 -56 -56 -111q0 -44 41.5 -72t117.5 -28zM270 256q57 0 92 33t35 89q0 55 -33 90t-91 35q-63 0 -96 -33.5t-33 -95.5q0 -58 34 -88t92 -30zM266 644q-110 0 -165 85l43 38
q51 -59 125 -59q75 0 124 59l41 -36q-54 -87 -168 -87z" />
    <glyph glyph-name="gcircumflex.alt" horiz-adv-x="582" 
d="M416 627l-148 85l-148 -84l-33 49l181 110l179 -112zM555 527v-66h-99q20 -30 20 -86q0 -78 -58.5 -128t-145.5 -50q-70 0 -119 24v-100h152q105 0 159.5 -41t54.5 -107q0 -80 -75 -142t-199 -62q-103 0 -158 39t-55 105q0 74 79 144q-16 6 -24.5 21.5t-8.5 33.5
q0 59 45 127q-58 46 -58 132q0 81 52 135.5t150 54.5q82 0 133 -37zM267 -162q75 0 127.5 38.5t52.5 84.5q0 39 -39 63.5t-114 24.5h-130q-56 -56 -56 -111q0 -44 41.5 -72t117.5 -28zM270 256q57 0 92 33t35 89q0 55 -33 90t-91 35q-63 0 -96 -33.5t-33 -95.5q0 -58 34 -88
t92 -30z" />
    <glyph glyph-name="gcommaaccent.alt" horiz-adv-x="582" 
d="M220 629l39 203h59l-21 -203h-77zM555 527v-66h-99q20 -30 20 -86q0 -78 -58.5 -128t-145.5 -50q-70 0 -119 24v-100h152q105 0 159.5 -41t54.5 -107q0 -80 -75 -142t-199 -62q-103 0 -158 39t-55 105q0 74 79 144q-16 6 -24.5 21.5t-8.5 33.5q0 59 45 127
q-58 46 -58 132q0 81 52 135.5t150 54.5q82 0 133 -37zM267 -162q75 0 127.5 38.5t52.5 84.5q0 39 -39 63.5t-114 24.5h-130q-56 -56 -56 -111q0 -44 41.5 -72t117.5 -28zM270 256q57 0 92 33t35 89q0 55 -33 90t-91 35q-63 0 -96 -33.5t-33 -95.5q0 -58 34 -88t92 -30z" />
    <glyph glyph-name="gdotaccent.alt" horiz-adv-x="582" 
d="M555 527v-66h-99q20 -30 20 -86q0 -78 -58.5 -128t-145.5 -50q-70 0 -119 24v-100h152q105 0 159.5 -41t54.5 -107q0 -80 -75 -142t-199 -62q-103 0 -158 39t-55 105q0 74 79 144q-16 6 -24.5 21.5t-8.5 33.5q0 59 45 127q-58 46 -58 132q0 81 52 135.5t150 54.5
q82 0 133 -37zM267 -162q75 0 127.5 38.5t52.5 84.5q0 39 -39 63.5t-114 24.5h-130q-56 -56 -56 -111q0 -44 41.5 -72t117.5 -28zM270 256q57 0 92 33t35 89q0 55 -33 90t-91 35q-63 0 -96 -33.5t-33 -95.5q0 -58 34 -88t92 -30zM265 649l-65 67l65 66l67 -66z" />
    <glyph glyph-name="questiondown.cap" horiz-adv-x="390" 
d="M310 -2q-65 5 -117.5 25t-90 65.5t-37.5 110.5q0 34 16.5 66t40 57t47.5 49t40.5 50.5t16.5 51.5q0 26 -7 59l68 11q12 -39 12 -71q0 -45 -24 -86t-52.5 -66.5t-52.5 -56.5t-24 -59q0 -61 51.5 -96t128.5 -42zM203 620v87h89v-87h-89z" />
    <glyph glyph-name="question.smcp" horiz-adv-x="390" 
d="M343 448q0 -35 -21 -67t-46 -53t-46 -48.5t-21 -53.5q0 -24 6 -43l-71 -15q-11 33 -11 61q0 29 13 56t31.5 47.5t37 38.5t31.5 37t13 36q0 45 -39 70t-111 37l18 70q91 -9 153.5 -53.5t62.5 -119.5zM224 0h-89v87h89v-87z" />
    <glyph glyph-name="questiondown.smcp" horiz-adv-x="390" 
d="M84 98q0 35 21 67t46 53t46 48.5t21 53.5q0 24 -6 43l71 15q11 -33 11 -61q0 -29 -13 -56t-31.5 -47.5t-37 -38.5t-31.5 -37t-13 -36q0 -45 39 -70t111 -37l-18 -70q-91 9 -153.5 53.5t-62.5 119.5zM203 546h89v-87h-89v87z" />
    <glyph glyph-name="exclamdown.cap" horiz-adv-x="282" 
d="M95 0v395l3 140h71l3 -140v-395h-77zM89 620v87h90v-87h-90z" />
    <glyph glyph-name="exclam.smcp" horiz-adv-x="282" 
d="M173 312l-3 -140h-71l-4 140v295h78v-295zM179 0h-90v87h90v-87z" />
    <glyph glyph-name="exclamdown.smcp" horiz-adv-x="282" 
d="M101 234l3 140h71l4 -140v-295h-78v295zM95 546h90v-87h-90v87z" />
    <glyph glyph-name="hyphen.cap" horiz-adv-x="361" 
d="M31 314v69h298v-69h-298z" />
    <glyph glyph-name="endash.cap" 
d="M34 317v64h532v-64h-532z" />
    <glyph glyph-name="emdash.cap" horiz-adv-x="953" 
d="M48 317v64h856v-64h-856z" />
    <glyph glyph-name="slash.smcp" horiz-adv-x="343" 
d="M40 -62l190 678h73l-189 -678h-74z" />
    <glyph glyph-name="backslash.smcp" horiz-adv-x="343" 
d="M230 -62l-190 678h73l190 -678h-73z" />
    <glyph glyph-name="parenleft.cap" horiz-adv-x="346" 
d="M274 -152q-5 3 -12.5 10t-30.5 30.5t-43.5 50.5t-45.5 71.5t-43 93t-30.5 115t-12.5 136.5q0 97 22.5 182.5t54.5 138t64 91.5t55 55l22 17l48 -53q-8 -5 -20.5 -16t-44.5 -49.5t-56.5 -84t-44.5 -121t-20 -159.5t19 -162t46.5 -129t55 -90t46.5 -57l19 -17z" />
    <glyph glyph-name="parenright.cap" horiz-adv-x="346" 
d="M72 -152l-48 53q8 6 20.5 18.5t44.5 55t57 91t45 127.5t20 163t-19.5 159t-46.5 122.5t-54.5 82.5t-46.5 50l-20 16l48 53q9 -6 23.5 -17t52 -53.5t66.5 -93.5t52.5 -137t23.5 -183t-22.5 -184.5t-54.5 -144t-64 -98.5t-55 -61z" />
    <glyph glyph-name="bracketleft.cap" horiz-adv-x="350" 
d="M108 -136v976h179v-67h-100v-842h100v-67h-179z" />
    <glyph glyph-name="bracketright.cap" horiz-adv-x="350" 
d="M69 -136v67h100v842h-100v67h179v-976h-179z" />
    <glyph glyph-name="braceleft.cap" horiz-adv-x="346" 
d="M298 -140q-87 0 -138 29t-51 108q0 9 2 29l21 198q4 33 -20.5 63t-61.5 30v72q37 0 61.5 29.5t20.5 63.5l-21 206q-10 90 42 127.5t145 37.5h22v-67h-25q-59 0 -85.5 -24.5t-20.5 -78.5l20 -182q7 -61 -15.5 -97.5t-67.5 -47.5v-2q96 -35 83 -145l-20 -183
q-5 -50 22 -74.5t84 -24.5h25v-67h-22z" />
    <glyph glyph-name="braceright.cap" horiz-adv-x="346" 
d="M34 -132v67h25q57 0 84.5 24.5t21.5 74.5l-20 183q-12 110 84 144v2q-97 25 -84 146l20 181q6 54 -20 78.5t-86 24.5h-25v68h22q44 0 78 -8t62 -25.5t40.5 -51t7.5 -80.5l-22 -206q-3 -34 21 -63.5t61 -29.5v-72q-37 0 -61 -30t-21 -63l22 -198q5 -51 -7.5 -85.5t-42 -51
t-62 -23t-76.5 -6.5h-22z" />
    <glyph glyph-name="section.pnum_lnum" horiz-adv-x="495" 
d="M126 -216q-63 0 -114 39l28 66q51 -37 88 -37q27 0 39.5 26.5t12.5 57.5q0 44 -15 121l-65 351q-10 53 -10 100q0 121 67 187t182 66q85 0 145 -43q-31 -62 -33 -64q-61 39 -118 39q-49 0 -49 -70q0 -42 7 -74l72 -364q17 -93 17 -152q0 -106 -71 -177.5t-183 -71.5z
M230 -134q77 58 77 155q0 41 -11 103l-72 382q-10 52 -10 97q0 47 13 77q-64 -40 -64 -149q0 -42 9 -91l71 -382q10 -56 10 -102q0 -39 -23 -90z" />
    <glyph glyph-name="numbersign.pnum_lnum" horiz-adv-x="587" 
d="M551 159h-110l-9 -159h-76l9 159h-167l-9 -159h-75l9 159h-87v69h91l14 250h-105v68h109l9 161h76l-9 -161h166l10 161h75l-10 -161h89v-68h-92l-14 -250h106v-69zM383 478h-166l-14 -250h166z" />
    <glyph glyph-name="ordfeminine.smcp" horiz-adv-x="421" 
d="M51 395l125 315h77l108 -315h-65l-30 96h-117l-35 -96h-63zM40 295v58h333v-58h-333zM168 538h82l-39 125z" />
    <glyph glyph-name="quotedblleft.smcp" horiz-adv-x="319" 
d="M32 514q0 94 41 162h64q-27 -60 -27 -123v-78h-78v39zM183 514q0 93 40 162h64q-27 -64 -27 -123v-78h-77v39z" />
    <glyph glyph-name="quotedblright.smcp" horiz-adv-x="319" 
d="M287 635q0 -93 -41 -161h-63q27 64 27 123v78h77v-40zM137 635q0 -92 -40 -161h-65q27 60 27 123v78h78v-40z" />
    <glyph glyph-name="quoteleft.smcp" horiz-adv-x="167" 
d="M32 514q0 94 41 162h64q-27 -60 -27 -123v-78h-78v39z" />
    <glyph glyph-name="quoteright.smcp" horiz-adv-x="167" 
d="M137 635q0 -92 -40 -161h-65q27 60 27 123v78h78v-40z" />
    <glyph glyph-name="guilsinglright.cap" horiz-adv-x="257" 
d="M105 132l-62 27l86 193l-87 198l63 22l106 -220z" />
    <glyph glyph-name="guilsinglleft.cap" horiz-adv-x="257" 
d="M149 124l-107 221l106 219l63 -22l-87 -197l86 -195z" />
    <glyph glyph-name="guillemotleft.cap" horiz-adv-x="439" 
d="M149 132l-107 220l106 220l63 -22l-87 -198l86 -195zM330 132l-106 220l107 220l62 -22l-87 -198l86 -195z" />
    <glyph glyph-name="guillemotright.cap" horiz-adv-x="439" 
d="M104 132l-62 26l86 194l-87 198l63 22l107 -220zM286 132l-62 26l86 194l-87 198l63 22l106 -220z" />
    <glyph glyph-name="asterisk.alt" horiz-adv-x="315" 
d="M287 698l-92 -54l43 -99l-80 71l-81 -71l43 99l-92 54l107 -10l23 104l23 -104z" />
    <glyph glyph-name="fi.alt" horiz-adv-x="617" 
d="M97 0v482h-80v64h80v35q0 111 49 153t136 42q19 0 71 -3t78 -3q27 0 67 4l12 -61q-39 -13 -104 -13q-24 1 -67 4t-59 3q-58 0 -81 -31t-23 -96v-34h343v-546h-80v482h-264v-482h-78z" />
    <glyph glyph-name="fl.alt" horiz-adv-x="617" 
d="M97 0v482h-80v64h80v33q0 104 50.5 150t134.5 46q19 0 70.5 -3.5t78.5 -4.5q28 0 88 6v-773h-80v700q-29 -2 -83 2.5t-76 4.5q-57 0 -80.5 -32t-23.5 -91v-38h118v-64h-119v-482h-78z" />
    <glyph glyph-name="f_h.alt" horiz-adv-x="978" 
d="M97 0v482h-80v64h80v28q0 111 49 157t134 46q18 0 70 -4.5t81 -4.5q14 0 49.5 2.5t37.5 2.5v-286q4 2 25.5 17t32.5 21t33 16t46 14.5t52 4.5q47 0 80 -13.5t50.5 -32t27.5 -49.5t12 -55t2 -58v-352h-79v337q0 75 -22 114t-90 39q-56 0 -170 -71v-419h-79v701
q-29 -1 -82.5 2.5t-76.5 3.5q-58 0 -81 -34t-23 -100v-27h116v-64h-117v-482h-78z" />
    <glyph glyph-name="f_b.alt" horiz-adv-x="943" 
d="M629 -9q-28 0 -54 1.5t-42.5 3.5t-34 6t-25 6t-19.5 6t-14 4v682q-30 -2 -84 2.5t-76 4.5q-57 0 -80.5 -32t-23.5 -91v-38h118v-64h-119v-482h-78v482h-80v64h80v33q0 104 50.5 150t134.5 46q19 0 70.5 -3.5t78.5 -4.5q24 0 87 6v-703q54 -13 114 -13q86 0 132.5 63.5
t46.5 159.5q0 46 -6.5 81t-22.5 66.5t-48 48.5t-79 17q-32 0 -66 -10l-9 59q33 14 89 14q107 0 165 -67.5t58 -192.5q0 -82 -21.5 -143t-59 -95.5t-83 -50.5t-99.5 -16z" />
    <glyph glyph-name="f_j.alt" horiz-adv-x="617" 
d="M333 -220q-39 0 -70 11l14 64q15 -5 58 -5q58 0 80 34t22 100v130v368h-262v-482h-78v482h-80v64h80v28q0 111 49 157t134 46q18 0 70 -3t81 -3q36 0 66 3l11 -60q-38 -14 -104 -14q-23 1 -65.5 4t-58.5 3q-58 0 -81 -34t-23 -101v-26h341v-562q0 -204 -184 -204z" />
    <glyph glyph-name="f_k.alt" horiz-adv-x="895" 
d="M97 0v482h-80v64h80v28q0 111 49 157t134 46q18 0 70 -4.5t81 -4.5q14 0 49.5 2.5t37.5 2.5v-773h-79v701q-29 -1 -82.5 2.5t-76.5 3.5q-58 0 -81 -34t-23 -100v-27h116v-64h-117v-482h-78zM857 -10q-87 5 -164 101l-157 197l233 258h93l-233 -255l112 -138
q34 -42 70 -68.5t59 -33.5z" />
    <glyph glyph-name="f_f.alt" horiz-adv-x="670" 
d="M97 0v482h-80v64h80v49q0 182 222 182q83 0 177 -37q42 37 138 37q24 0 68.5 -7.5t57.5 -12.5l-15 -63q-62 13 -105 13q-123 0 -123 -112v-49h118v-64h-118v-482h-77v482h-264v-482h-79zM176 546h264v50q0 56 16 86q-71 25 -153 25q-63 0 -95 -26.5t-32 -85.5v-49z" />
    <glyph glyph-name="f_f_i.alt" horiz-adv-x="959" 
d="M97 0v482h-80v64h80v49q0 182 208 182q97 0 192 -38q49 38 126 38q17 0 69 -3t81 -3q9 0 66 3l12 -60q-35 -13 -103 -13q-25 0 -68.5 3t-58.5 3q-58 0 -80.5 -34t-22.5 -100v-27h342v-546h-79v482h-263v-482h-78v482h-263v-482h-80zM177 546h262v28q0 67 18 109
q-82 24 -154 24q-63 0 -94.5 -26.5t-31.5 -85.5v-49z" />
    <glyph glyph-name="f_f_l.alt" horiz-adv-x="948" 
d="M97 0v482h-80v64h80v49q0 182 222 182q76 0 177 -38q45 38 125 38q17 0 69.5 -4.5t80.5 -4.5q15 0 44.5 2.5t33.5 2.5v-773h-80v701q-26 -1 -75.5 2.5t-72.5 3.5q-59 0 -81.5 -33t-22.5 -99v-29h116v-64h-116v-482h-79v482h-261v-482h-80zM177 546h261v28q0 66 18 108
q-77 25 -153 25q-63 0 -94.5 -26.5t-31.5 -85.5v-49z" />
    <glyph glyph-name="f_f_j.alt" horiz-adv-x="945" 
d="M676 -220q-37 0 -67 10l14 65q21 -7 53 -7q58 0 81 35t23 101v498h-262v-482h-78v482h-263v-482h-80v482h-80v64h80v49q0 182 208 182q97 0 192 -38q49 38 126 38q17 0 69 -3t81 -3q9 0 66 3l12 -60q-35 -13 -103 -13q-25 0 -68.5 3t-58.5 3q-58 0 -80.5 -34t-22.5 -100
v-27h342v-563q-1 -203 -184 -203zM177 546h262v28q0 67 18 109q-82 24 -154 24q-63 0 -94.5 -26.5t-31.5 -85.5v-49z" />
    <glyph glyph-name="Acute" horiz-adv-x="603" 
d="M206 747l-18 56l221 80l23 -71z" />
    <glyph glyph-name="Breve" horiz-adv-x="500" 
d="M263 771q-107 0 -165 85l43 39q48 -60 125 -60q75 0 124 59l41 -36q-54 -87 -168 -87z" />
    <glyph glyph-name="Caron" horiz-adv-x="552" 
d="M450 824l-179 -78l-172 79l27 56l146 -62l150 60z" />
    <glyph glyph-name="Circumflex" horiz-adv-x="633" 
d="M175 743l-28 55l180 78l172 -78l-27 -55l-145 61z" />
    <glyph glyph-name="Dieresis" horiz-adv-x="520" 
d="M168 747l-58 58l58 58l57 -58zM380 747l-57 58l57 58l58 -58z" />
    <glyph glyph-name="Dotaccent" horiz-adv-x="279" 
d="M202 824l-63 -63l-62 63l62 62z" />
    <glyph glyph-name="Hungarumlaut" horiz-adv-x="513" 
d="M294 861l-186 -122l-36 49l177 133zM530 802l-215 -60l-18 56l210 75z" />
    <glyph glyph-name="Grave" horiz-adv-x="481" 
d="M343 747l-224 65l22 71l221 -80z" />
    <glyph glyph-name="Macron" horiz-adv-x="540" 
d="M118 786v65h299v-65h-299z" />
    <glyph glyph-name="Tilde" horiz-adv-x="550" 
d="M335 754q-24 0 -63.5 18.5t-60.5 18.5q-38 0 -70 -24l-30 45q45 45 105 45q28 0 66.5 -18t56.5 -18q31 0 70 27l31 -44q-45 -50 -105 -50z" />
    <glyph glyph-name="commaaccent" horiz-adv-x="175" 
d="M141 -58l-39 -203h-59l21 203h77z" />
    <glyph glyph-name="zero.opencirc" horiz-adv-x="840" 
d="M420 -5q-149 0 -254.5 105t-105.5 254t105.5 254t254.5 105t254.5 -105t105.5 -254q0 -148 -105.5 -253.5t-254.5 -105.5zM420 48q127 0 216.5 89.5t89.5 216.5t-89.5 216.5t-216.5 89.5t-216.5 -89.5t-89.5 -216.5t89.5 -216.5t216.5 -89.5zM415 165q-150 0 -150 183
q0 39 7.5 71t24.5 61t49 45t77 16q148 0 148 -182q0 -88 -37 -141t-119 -53zM417 218q87 0 87 137q0 132 -83 132q-89 0 -89 -138q0 -131 85 -131z" />
    <glyph glyph-name="zero.closecirc" horiz-adv-x="840" 
d="M420 -5q-149 0 -254.5 105t-105.5 254t105.5 254t254.5 105t254.5 -105t105.5 -254q0 -148 -105.5 -253.5t-254.5 -105.5zM415 165q82 0 119 53t37 141q0 182 -148 182q-45 0 -77 -16t-49 -45t-24.5 -61t-7.5 -71q0 -183 150 -183zM417 218q-85 0 -85 131q0 138 89 138
q83 0 83 -132q0 -137 -87 -137z" />
    <glyph glyph-name="zero.closecirc_fina" horiz-adv-x="420" 
d="M136 226q110 0 110 137q0 129 -104 129q-113 0 -113 -137q0 -129 107 -129zM138 269q-55 0 -55 87q0 90 56 90q54 0 54 -86q0 -91 -55 -91zM0 -5v718q149 0 254.5 -105t105.5 -254t-105.5 -254t-254.5 -105z" />
    <glyph glyph-name="one.closecirc_fina" horiz-adv-x="420" 
d="M0 -5v718q149 0 254.5 -105t105.5 -254t-105.5 -254t-254.5 -105zM115 228h55v261l-116 -3v-44h61v-214z" />
    <glyph glyph-name="two.closecirc_fina" horiz-adv-x="420" 
d="M35 229h189v46h-122q55 32 87 63.5t32 73.5q0 36 -25 58t-65 22q-51 0 -88 -35l21 -35q24 22 61 22q18 0 29.5 -9.5t11.5 -27.5q0 -16 -9 -32t-33.5 -37.5t-37.5 -31t-51 -37.5v-40zM0 -5v718q149 0 254.5 -105t105.5 -254t-105.5 -254t-254.5 -105z" />
    <glyph glyph-name="three.closecirc_fina" horiz-adv-x="420" 
d="M105 225q45 0 74.5 19t29.5 60q0 51 -53 65q40 15 40 58q0 31 -23.5 48t-61.5 17t-72 -18l14 -36q28 12 51 12q17 0 27.5 -8t10.5 -21q0 -36 -61 -43v-29q38 -2 55.5 -11t17.5 -32q0 -36 -54 -36q-23 0 -63 8l-9 -41q36 -12 77 -12zM0 -5v718q149 0 254.5 -105
t105.5 -254t-105.5 -254t-254.5 -105z" />
    <glyph glyph-name="four.closecirc_fina" horiz-adv-x="420" 
d="M139 229h52v61h42v41h-42v157h-81l-88 -153v-45h117v-61zM0 -5v718q149 0 254.5 -105t105.5 -254t-105.5 -254t-254.5 -105zM63 331l76 127v-127h-76z" />
    <glyph glyph-name="five.closecirc_fina" horiz-adv-x="420" 
d="M111 225q43 0 72.5 24t29.5 64q0 38 -25.5 58t-68.5 20h-22v55h106v43h-156v-142q27 3 62 3q47 0 47 -42q0 -19 -12 -30.5t-34 -11.5q-26 0 -63 10l-11 -41q40 -10 75 -10zM0 -5v718q149 0 254.5 -105t105.5 -254t-105.5 -254t-254.5 -105z" />
    <glyph glyph-name="six.closecirc_fina" horiz-adv-x="420" 
d="M133 225q41 0 68.5 23t27.5 68q0 38 -23.5 57t-63.5 19q-26 0 -54 -14q5 33 23.5 51.5t44.5 18.5q21 0 47 -6l13 41q-29 10 -61 10q-55 0 -89.5 -40.5t-34.5 -110.5q0 -64 25.5 -90.5t76.5 -26.5zM135 267q-27 0 -36.5 16.5t-10.5 63.5q30 8 45 8q18 0 29 -11t11 -32
q0 -20 -11 -32.5t-27 -12.5zM0 -5v718q149 0 254.5 -105t105.5 -254t-105.5 -254t-254.5 -105z" />
    <glyph glyph-name="seven.closecirc_fina" horiz-adv-x="420" 
d="M91 222l120 224v42h-183v-50h129l-118 -202zM0 -5v718q149 0 254.5 -105t105.5 -254t-105.5 -254t-254.5 -105z" />
    <glyph glyph-name="eight.closecirc_fina" horiz-adv-x="420" 
d="M129 226q47 0 75 19.5t28 55.5q0 40 -55 66q47 25 47 62q0 29 -25 46t-67 17q-40 0 -67 -17.5t-27 -49.5q0 -37 39 -58q-48 -31 -48 -71q0 -70 100 -70zM130 264q-46 0 -46 38q0 29 30 47q3 -1 10 -4.5t10.5 -5t9 -4t8.5 -4.5t7.5 -4.5t6.5 -5t4.5 -5.5t3.5 -6t1 -6
q0 -19 -12.5 -29.5t-32.5 -10.5zM138 384q-15 6 -23.5 10.5t-16 11.5t-7.5 15q0 31 40 31q37 0 37 -28q0 -20 -30 -40zM0 -5v718q149 0 254.5 -105t105.5 -254t-105.5 -254t-254.5 -105z" />
    <glyph glyph-name="nine.closecirc_fina" horiz-adv-x="420" 
d="M106 225q55 0 90 40.5t35 112.5q0 63 -25 89t-76 26q-42 0 -70 -22.5t-28 -67.5q0 -38 23.5 -57t64.5 -19q29 0 53 13q-5 -33 -23 -51t-44 -18q-21 0 -47 6l-13 -42q33 -10 60 -10zM129 364q-40 0 -40 42q0 20 11 32.5t28 12.5q27 0 36 -16.5t10 -61.5q-24 -9 -45 -9z
M0 -5v718q149 0 254.5 -105t105.5 -254t-105.5 -254t-254.5 -105z" />
    <glyph glyph-name="zero.closecirc_init" horiz-adv-x="420" 
d="M288 226q111 0 111 137q0 130 -105 130q-112 0 -112 -137q0 -130 106 -130zM290 270q-54 0 -54 87q0 90 56 90q54 0 54 -86q0 -91 -56 -91zM420 -5q-149 0 -254.5 105t-105.5 254t105.5 254t254.5 105v-718z" />
    <glyph glyph-name="one.closecirc_init" horiz-adv-x="420" 
d="M420 -5q-149 0 -254.5 105t-105.5 254t105.5 254t254.5 105v-718zM286 229h55v260l-116 -3v-43h61v-214z" />
    <glyph glyph-name="two.closecirc_init" horiz-adv-x="420" 
d="M203 229h189v46h-121q35 21 57 37t42 43.5t20 56.5q0 36 -25.5 58t-65.5 22q-51 0 -88 -35l22 -35q24 22 60 22q18 0 29.5 -9.5t11.5 -27.5q0 -22 -21.5 -47.5t-42 -41.5t-67.5 -49v-40zM420 -5q-149 0 -254.5 105t-105.5 254t105.5 254t254.5 105v-718z" />
    <glyph glyph-name="three.closecirc_init" horiz-adv-x="420" 
d="M279 225q45 0 74.5 19t29.5 60q0 51 -53 65q40 15 40 58q0 31 -23.5 48t-61.5 17t-72 -18l13 -36q30 12 52 12q17 0 27.5 -8t10.5 -21q0 -36 -61 -43v-29q38 -2 55 -11t17 -32q0 -36 -53 -36q-23 0 -63 8l-10 -41q38 -12 78 -12zM420 -5q-149 0 -254.5 105t-105.5 254
t105.5 254t254.5 105v-718z" />
    <glyph glyph-name="four.closecirc_init" horiz-adv-x="420" 
d="M302 229h52v61h42v41h-42v157h-81l-88 -153v-45h117v-61zM420 -5q-149 0 -254.5 105t-105.5 254t105.5 254t254.5 105v-718zM226 331l76 127v-127h-76z" />
    <glyph glyph-name="five.closecirc_init" horiz-adv-x="420" 
d="M285 224q43 0 72 24t29 64q0 39 -25.5 59t-68.5 20q-5 0 -13 -0.5t-9 -0.5v55h106v44h-156v-142q28 2 62 2q48 0 48 -42q0 -19 -12.5 -30.5t-34.5 -11.5q-20 0 -62 10l-12 -41q50 -10 76 -10zM420 -5q-149 0 -254.5 105t-105.5 254t105.5 254t254.5 105v-718z" />
    <glyph glyph-name="six.closecirc_init" horiz-adv-x="420" 
d="M294 225q41 0 68.5 23t27.5 68q0 38 -23.5 57t-63.5 19q-26 0 -54 -14q5 33 23.5 51.5t44.5 18.5q19 0 47 -6l13 41q-29 10 -61 10q-55 0 -90 -40.5t-35 -110.5q0 -64 26 -90.5t77 -26.5zM296 267q-28 0 -37.5 16.5t-9.5 63.5q30 8 44 8q41 0 41 -43q0 -20 -11 -32.5
t-27 -12.5zM420 -5q-149 0 -254.5 105t-105.5 254t105.5 254t254.5 105v-718z" />
    <glyph glyph-name="seven.closecirc_init" horiz-adv-x="420" 
d="M420 -5q-149 0 -254.5 105t-105.5 254t105.5 254t254.5 105v-718zM271 222l120 224v42h-183v-50h129l-118 -202z" />
    <glyph glyph-name="eight.closecirc_init" horiz-adv-x="420" 
d="M288 226q46 0 74 19.5t28 55.5q0 41 -54 66q47 25 47 62q0 29 -25 46t-67 17q-40 0 -67 -17.5t-27 -49.5q0 -37 39 -58q-48 -31 -48 -71q0 -70 100 -70zM289 264q-46 0 -46 38q0 29 30 47q3 -1 10 -4.5t10.5 -5t9 -4t8.5 -4.5t7.5 -4.5t6.5 -5t4.5 -5.5t3.5 -6t1 -6
q0 -19 -12.5 -29.5t-32.5 -10.5zM297 384q-47 19 -47 37q0 31 40 31q36 0 36 -28q0 -21 -29 -40zM420 -5q-149 0 -254.5 105t-105.5 254t105.5 254t254.5 105v-718z" />
    <glyph glyph-name="nine.closecirc_init" horiz-adv-x="420" 
d="M265 225q55 0 89.5 40.5t34.5 112.5q0 63 -25 89t-76 26q-42 0 -69.5 -22.5t-27.5 -67.5q0 -38 23.5 -57t63.5 -19q28 0 54 13q-5 -33 -23.5 -51t-44.5 -18q-21 0 -47 6l-13 -42q33 -10 61 -10zM287 364q-18 0 -29 10.5t-11 31.5q0 20 11 32.5t28 12.5q27 0 36 -16.5
t10 -61.5q-22 -9 -45 -9zM420 -5q-149 0 -254.5 105t-105.5 254t105.5 254t254.5 105v-718z" />
    <glyph glyph-name="zero.closecirc_medi" horiz-adv-x="230" 
d="M115 226q110 0 110 137q0 129 -104 129q-113 0 -113 -137q0 -129 107 -129zM117 268q-55 0 -55 88q0 91 56 91q54 0 54 -87q0 -92 -55 -92zM0 -5v718h230v-718h-230z" />
    <glyph glyph-name="one.closecirc_medi" horiz-adv-x="230" 
d="M104 229h55v260l-116 -3v-43h61v-214zM0 -5v718h230v-718h-230z" />
    <glyph glyph-name="two.closecirc_medi" horiz-adv-x="230" 
d="M20 229h190v46h-122q55 32 87 63.5t32 73.5q0 36 -25 58t-65 22q-52 0 -89 -35l22 -35q24 22 60 22q41 0 41 -37q0 -22 -21.5 -47.5t-42 -41.5t-67.5 -49v-40zM0 -5v718h230v-718h-230z" />
    <glyph glyph-name="three.closecirc_medi" horiz-adv-x="230" 
d="M102 225q45 0 75 19t30 60q0 51 -54 65q41 16 41 58q0 31 -24 48t-62 17t-72 -18l14 -36q28 12 51 12q17 0 28 -8t11 -21q0 -36 -62 -43v-29q38 -2 55.5 -11t17.5 -32q0 -36 -53 -36q-25 0 -63 8l-10 -41q38 -12 77 -12zM0 -5v718h230v-718h-230z" />
    <glyph glyph-name="four.closecirc_medi" horiz-adv-x="230" 
d="M130 229h52v61h33v41h-33v157h-81l-88 -153v-45h117v-61zM0 -5v718h230v-718h-230zM54 331l76 127v-127h-76z" />
    <glyph glyph-name="five.closecirc_medi" horiz-adv-x="230" 
d="M101 225q43 0 72.5 24t29.5 64q0 38 -25.5 58t-68.5 20h-22v55h106v43h-156v-142q27 3 61 3q48 0 48 -42q0 -19 -12 -30.5t-34 -11.5q-27 0 -63 10l-11 -41q40 -10 75 -10zM0 -5v718h230v-718h-230z" />
    <glyph glyph-name="six.closecirc_medi" horiz-adv-x="230" 
d="M119 225q41 0 68 23t27 68q0 76 -86 76q-26 0 -54 -14q5 33 23.5 51.5t44.5 18.5q19 0 47 -6l13 41q-29 10 -61 10q-55 0 -89.5 -40.5t-34.5 -110.5q0 -64 25.5 -90.5t76.5 -26.5zM121 267q-28 0 -37.5 16.5t-9.5 63.5q30 8 44 8q41 0 41 -43q0 -20 -11 -32.5t-27 -12.5z
M0 -5v718h230v-718h-230z" />
    <glyph glyph-name="seven.closecirc_medi" horiz-adv-x="230" 
d="M87 222l120 224v42h-183v-50h129l-118 -202zM0 -5v718h230v-718h-230z" />
    <glyph glyph-name="eight.closecirc_medi" horiz-adv-x="230" 
d="M114 226q47 0 74.5 19.5t27.5 55.5q0 40 -54 66q47 25 47 62q0 29 -25 46t-67 17q-40 0 -67 -17.5t-27 -49.5q0 -37 39 -58q-48 -30 -48 -71q0 -70 100 -70zM115 264q-46 0 -46 38q0 29 30 47q3 -1 10 -4.5t10.5 -5t9 -4t8.5 -4.5t7.5 -4.5t6.5 -5t4.5 -5.5t3.5 -6t1 -6
q0 -19 -12.5 -29.5t-32.5 -10.5zM122 384q-46 19 -46 37q0 31 40 31q36 0 36 -28q0 -20 -30 -40zM0 -5v718h230v-718h-230z" />
    <glyph glyph-name="nine.closecirc_medi" horiz-adv-x="230" 
d="M89 225q55 0 90 40.5t35 112.5q0 63 -25 89t-76 26q-42 0 -69.5 -22.5t-27.5 -67.5q0 -38 23.5 -57t63.5 -19q28 0 54 13q-5 -33 -23.5 -51t-44.5 -18q-21 0 -47 6l-13 -42q33 -10 60 -10zM112 364q-18 0 -29 10.5t-11 31.5q0 20 11 32.5t28 12.5q27 0 36 -16.5t10 -61.5
q-24 -9 -45 -9zM0 -5v718h230v-718h-230z" />
    <glyph glyph-name="zero.opencirc_fina" horiz-adv-x="420" 
d="M0 -5v53q127 0 216.5 89.5t89.5 216.5t-89.5 216.5t-216.5 89.5v53q149 0 254.5 -105t105.5 -254t-105.5 -254t-254.5 -105zM136 226q-107 0 -107 129q0 137 113 137q104 0 104 -129q0 -137 -110 -137zM138 269q55 0 55 91q0 86 -54 86q-56 0 -56 -90q0 -87 55 -87z" />
    <glyph glyph-name="one.opencirc_fina" horiz-adv-x="420" 
d="M0 -5v53q127 0 216.5 89.5t89.5 216.5t-89.5 216.5t-216.5 89.5v53q149 0 254.5 -105t105.5 -254t-105.5 -254t-254.5 -105zM115 228v214h-61v44l116 3v-261h-55z" />
    <glyph glyph-name="two.opencirc_fina" horiz-adv-x="420" 
d="M35 229v40q38 28 51 37.5t37.5 31t33.5 37.5t9 32q0 18 -11.5 27.5t-29.5 9.5q-37 0 -61 -22l-21 35q37 35 88 35q40 0 65 -22t25 -58q0 -42 -32 -73.5t-87 -63.5h122v-46h-189zM0 -5v53q127 0 216.5 89.5t89.5 216.5t-89.5 216.5t-216.5 89.5v53q149 0 254.5 -105
t105.5 -254t-105.5 -254t-254.5 -105z" />
    <glyph glyph-name="three.opencirc_fina" horiz-adv-x="420" 
d="M105 225q-41 0 -77 12l9 41q40 -8 63 -8q54 0 54 36q0 23 -17.5 32t-55.5 11v29q61 7 61 43q0 13 -10.5 21t-27.5 8q-23 0 -51 -12l-14 36q34 18 72 18t61.5 -17t23.5 -48q0 -43 -40 -58q53 -14 53 -65q0 -41 -29.5 -60t-74.5 -19zM0 -5v53q127 0 216.5 89.5t89.5 216.5
t-89.5 216.5t-216.5 89.5v53q149 0 254.5 -105t105.5 -254t-105.5 -254t-254.5 -105z" />
    <glyph glyph-name="four.opencirc_fina" horiz-adv-x="420" 
d="M0 -5v53q127 0 216.5 89.5t89.5 216.5t-89.5 216.5t-216.5 89.5v53q149 0 254.5 -105t105.5 -254t-105.5 -254t-254.5 -105zM139 229v61h-117v45l88 153h81v-157h42v-41h-42v-61h-52zM63 331h76v127z" />
    <glyph glyph-name="five.opencirc_fina" horiz-adv-x="420" 
d="M111 225q-35 0 -75 10l11 41q37 -10 63 -10q22 0 34 11.5t12 30.5q0 42 -47 42q-35 0 -62 -3v142h156v-43h-106v-55h22q43 0 68.5 -20t25.5 -58q0 -40 -29.5 -64t-72.5 -24zM0 -5v53q127 0 216.5 89.5t89.5 216.5t-89.5 216.5t-216.5 89.5v53q149 0 254.5 -105
t105.5 -254t-105.5 -254t-254.5 -105z" />
    <glyph glyph-name="six.opencirc_fina" horiz-adv-x="420" 
d="M133 225q-51 0 -76.5 26.5t-25.5 90.5q0 70 34.5 110.5t89.5 40.5q32 0 61 -10l-13 -41q-26 6 -47 6q-26 0 -44.5 -18.5t-23.5 -51.5q28 14 54 14q40 0 63.5 -19t23.5 -57q0 -45 -27.5 -68t-68.5 -23zM0 -5v53q127 0 216.5 89.5t89.5 216.5t-89.5 216.5t-216.5 89.5v53
q149 0 254.5 -105t105.5 -254t-105.5 -254t-254.5 -105zM135 267q16 0 27 12.5t11 32.5q0 21 -11 32t-29 11q-15 0 -45 -8q1 -47 10.5 -63.5t36.5 -16.5z" />
    <glyph glyph-name="seven.opencirc_fina" horiz-adv-x="420" 
d="M0 -5v53q127 0 216.5 89.5t89.5 216.5t-89.5 216.5t-216.5 89.5v53q149 0 254.5 -105t105.5 -254t-105.5 -254t-254.5 -105zM91 222l-52 14l118 202h-129v50h183v-42z" />
    <glyph glyph-name="eight.opencirc_fina" horiz-adv-x="420" 
d="M129 226q-100 0 -100 70q0 40 48 71q-39 21 -39 58q0 32 27 49.5t67 17.5q42 0 67 -17t25 -46q0 -37 -47 -62q55 -26 55 -66q0 -36 -28 -55.5t-75 -19.5zM0 -5v53q127 0 216.5 89.5t89.5 216.5t-89.5 216.5t-216.5 89.5v53q149 0 254.5 -105t105.5 -254t-105.5 -254
t-254.5 -105zM130 264q20 0 32.5 10.5t12.5 29.5q0 3 -1 6t-3.5 6t-4.5 5.5t-6.5 5t-7.5 4.5t-8.5 4.5t-9 4t-10.5 5t-10 4.5q-30 -18 -30 -47q0 -38 46 -38zM138 384q30 20 30 40q0 28 -37 28q-40 0 -40 -31q0 -8 7.5 -15t16 -11.5t23.5 -10.5z" />
    <glyph glyph-name="nine.opencirc_fina" horiz-adv-x="420" 
d="M106 225q-27 0 -60 10l13 42q26 -6 47 -6q26 0 44 18t23 51q-24 -13 -53 -13q-41 0 -64.5 19t-23.5 57q0 45 28 67.5t70 22.5q51 0 76 -26t25 -89q0 -72 -35 -112.5t-90 -40.5zM0 -5v53q127 0 216.5 89.5t89.5 216.5t-89.5 216.5t-216.5 89.5v53q149 0 254.5 -105
t105.5 -254t-105.5 -254t-254.5 -105zM129 364q21 0 45 9q-1 45 -10 61.5t-36 16.5q-17 0 -28 -12.5t-11 -32.5q0 -42 40 -42z" />
    <glyph glyph-name="zero.opencirc_init" horiz-adv-x="420" 
d="M420 -5q-149 0 -254.5 105t-105.5 254t105.5 254t254.5 105v-53q-127 0 -216.5 -89.5t-89.5 -216.5t89.5 -216.5t216.5 -89.5v-53zM288 226q-106 0 -106 130q0 137 112 137q105 0 105 -130q0 -137 -111 -137zM290 270q56 0 56 91q0 86 -54 86q-56 0 -56 -90q0 -87 54 -87
z" />
    <glyph glyph-name="one.opencirc_init" horiz-adv-x="420" 
d="M420 -5q-149 0 -254.5 105t-105.5 254t105.5 254t254.5 105v-53q-127 0 -216.5 -89.5t-89.5 -216.5t89.5 -216.5t216.5 -89.5v-53zM286 229v214h-61v43l116 3v-260h-55z" />
    <glyph glyph-name="two.opencirc_init" horiz-adv-x="420" 
d="M203 229v40q47 33 67.5 49t42 41.5t21.5 47.5q0 18 -11.5 27.5t-29.5 9.5q-36 0 -60 -22l-22 35q37 35 88 35q40 0 65.5 -22t25.5 -58q0 -29 -20 -56.5t-42 -43.5t-57 -37h121v-46h-189zM420 -5q-149 0 -254.5 105t-105.5 254t105.5 254t254.5 105v-53
q-127 0 -216.5 -89.5t-89.5 -216.5t89.5 -216.5t216.5 -89.5v-53z" />
    <glyph glyph-name="three.opencirc_init" horiz-adv-x="420" 
d="M279 225q-40 0 -78 12l10 41q40 -8 63 -8q53 0 53 36q0 23 -17 32t-55 11v29q61 7 61 43q0 13 -10.5 21t-27.5 8q-22 0 -52 -12l-13 36q34 18 72 18t61.5 -17t23.5 -48q0 -43 -40 -58q53 -14 53 -65q0 -41 -29.5 -60t-74.5 -19zM420 -5q-149 0 -254.5 105t-105.5 254
t105.5 254t254.5 105v-53q-127 0 -216.5 -89.5t-89.5 -216.5t89.5 -216.5t216.5 -89.5v-53z" />
    <glyph glyph-name="four.opencirc_init" horiz-adv-x="420" 
d="M420 -5q-149 0 -254.5 105t-105.5 254t105.5 254t254.5 105v-53q-127 0 -216.5 -89.5t-89.5 -216.5t89.5 -216.5t216.5 -89.5v-53zM302 229v61h-117v45l88 153h81v-157h42v-41h-42v-61h-52zM226 331h76v127z" />
    <glyph glyph-name="five.opencirc_init" horiz-adv-x="420" 
d="M285 224q-26 0 -76 10l12 41q42 -10 62 -10q22 0 34.5 11.5t12.5 30.5q0 42 -48 42q-34 0 -62 -2v142h156v-44h-106v-55q1 0 9 0.5t13 0.5q43 0 68.5 -20t25.5 -59q0 -40 -29 -64t-72 -24zM420 -5q-149 0 -254.5 105t-105.5 254t105.5 254t254.5 105v-53
q-127 0 -216.5 -89.5t-89.5 -216.5t89.5 -216.5t216.5 -89.5v-53z" />
    <glyph glyph-name="six.opencirc_init" horiz-adv-x="420" 
d="M294 225q-51 0 -77 26.5t-26 90.5q0 70 35 110.5t90 40.5q32 0 61 -10l-13 -41q-28 6 -47 6q-26 0 -44.5 -18.5t-23.5 -51.5q28 14 54 14q40 0 63.5 -19t23.5 -57q0 -45 -27.5 -68t-68.5 -23zM420 -5q-149 0 -254.5 105t-105.5 254t105.5 254t254.5 105v-53
q-127 0 -216.5 -89.5t-89.5 -216.5t89.5 -216.5t216.5 -89.5v-53zM296 267q16 0 27 12.5t11 32.5q0 43 -41 43q-14 0 -44 -8q0 -47 9.5 -63.5t37.5 -16.5z" />
    <glyph glyph-name="seven.opencirc_init" horiz-adv-x="420" 
d="M420 -5q-149 0 -254.5 105t-105.5 254t105.5 254t254.5 105v-53q-127 0 -216.5 -89.5t-89.5 -216.5t89.5 -216.5t216.5 -89.5v-53zM271 222l-52 14l118 202h-129v50h183v-42z" />
    <glyph glyph-name="eight.opencirc_init" horiz-adv-x="420" 
d="M288 226q-100 0 -100 70q0 40 48 71q-39 21 -39 58q0 32 27 49.5t67 17.5q42 0 67 -17t25 -46q0 -37 -47 -62q54 -25 54 -66q0 -36 -28 -55.5t-74 -19.5zM420 -5q-149 0 -254.5 105t-105.5 254t105.5 254t254.5 105v-53q-127 0 -216.5 -89.5t-89.5 -216.5t89.5 -216.5
t216.5 -89.5v-53zM289 264q20 0 32.5 10.5t12.5 29.5q0 3 -1 6t-3.5 6t-4.5 5.5t-6.5 5t-7.5 4.5t-8.5 4.5t-9 4t-10.5 5t-10 4.5q-30 -18 -30 -47q0 -38 46 -38zM297 384q29 19 29 40q0 28 -36 28q-40 0 -40 -31q0 -18 47 -37z" />
    <glyph glyph-name="nine.opencirc_init" horiz-adv-x="420" 
d="M265 225q-28 0 -61 10l13 42q26 -6 47 -6q26 0 44.5 18t23.5 51q-26 -13 -54 -13q-40 0 -63.5 19t-23.5 57q0 45 27.5 67.5t69.5 22.5q51 0 76 -26t25 -89q0 -72 -34.5 -112.5t-89.5 -40.5zM420 -5q-149 0 -254.5 105t-105.5 254t105.5 254t254.5 105v-53
q-127 0 -216.5 -89.5t-89.5 -216.5t89.5 -216.5t216.5 -89.5v-53zM287 364q23 0 45 9q-1 45 -10 61.5t-36 16.5q-17 0 -28 -12.5t-11 -32.5q0 -21 11 -31.5t29 -10.5z" />
    <glyph glyph-name="zero.opencirc_medi" horiz-adv-x="230" 
d="M115 226q-107 0 -107 129q0 137 113 137q104 0 104 -129q0 -137 -110 -137zM117 269q55 0 55 91q0 86 -54 86q-56 0 -56 -90q0 -87 55 -87zM0 -5v53h230v-53h-230zM0 660v53h230v-53h-230z" />
    <glyph glyph-name="one.opencirc_medi" horiz-adv-x="230" 
d="M104 229v214h-61v43l116 3v-260h-55zM0 -5v53h230v-53h-230zM0 660v53h230v-53h-230z" />
    <glyph glyph-name="two.opencirc_medi" horiz-adv-x="230" 
d="M20 229v40q47 33 67.5 49t42 41.5t21.5 47.5q0 37 -41 37q-36 0 -60 -22l-22 35q37 35 89 35q40 0 65 -22t25 -58q0 -42 -32 -73.5t-87 -63.5h122v-46h-190zM0 -5v53h230v-53h-230zM0 660v53h230v-53h-230z" />
    <glyph glyph-name="three.opencirc_medi" horiz-adv-x="230" 
d="M102 225q-39 0 -77 12l10 41q38 -8 63 -8q53 0 53 36q0 23 -17.5 32t-55.5 11v29q62 7 62 43q0 13 -11 21t-28 8q-23 0 -51 -12l-14 36q34 18 72 18t62 -17t24 -48q0 -42 -41 -58q54 -14 54 -65q0 -41 -30 -60t-75 -19zM0 -5v53h230v-53h-230zM0 660v53h230v-53h-230z
" />
    <glyph glyph-name="four.opencirc_medi" horiz-adv-x="230" 
d="M130 229v61h-117v45l88 153h81v-157h34v-41h-34v-61h-52zM0 -5v53h230v-53h-230zM0 660v53h230v-53h-230zM54 331h76v127z" />
    <glyph glyph-name="five.opencirc_medi" horiz-adv-x="230" 
d="M101 225q-35 0 -75 10l11 41q36 -10 63 -10q22 0 34 11.5t12 30.5q0 42 -48 42q-34 0 -61 -3v142h156v-43h-106v-55h22q43 0 68.5 -20t25.5 -58q0 -40 -29.5 -64t-72.5 -24zM0 -5v53h230v-53h-230zM0 660v53h230v-53h-230z" />
    <glyph glyph-name="six.opencirc_medi" horiz-adv-x="230" 
d="M119 225q-51 0 -77 26.5t-26 90.5q0 70 35 110.5t90 40.5q32 0 61 -10l-13 -41q-28 6 -47 6q-26 0 -44.5 -18.5t-23.5 -51.5q28 14 54 14q40 0 63.5 -19t23.5 -57q0 -45 -27.5 -68t-68.5 -23zM121 267q16 0 27 12.5t11 32.5q0 43 -41 43q-14 0 -44 -8q0 -47 9.5 -63.5
t37.5 -16.5zM0 -5v53h230v-53h-230zM0 660v53h230v-53h-230z" />
    <glyph glyph-name="seven.opencirc_medi" horiz-adv-x="230" 
d="M87 222l-52 14l118 202h-129v50h183v-42zM0 -5v53h230v-53h-230zM0 660v53h230v-53h-230z" />
    <glyph glyph-name="eight.opencirc_medi" horiz-adv-x="230" 
d="M114 226q-101 0 -101 70q0 41 49 71q-39 21 -39 58q0 32 27 49.5t67 17.5q42 0 67 -17t25 -46q0 -37 -47 -62q54 -26 54 -66q0 -36 -27.5 -55.5t-74.5 -19.5zM115 264q20 0 32.5 10.5t12.5 29.5q0 3 -1 6t-3.5 6t-4.5 5.5t-6.5 5t-7.5 4.5t-8.5 4.5t-9 4t-10.5 5t-10 4.5
q-30 -18 -30 -47q0 -38 46 -38zM122 384q30 20 30 40q0 28 -36 28q-40 0 -40 -31q0 -18 46 -37zM0 -5v53h230v-53h-230zM0 660v53h230v-53h-230z" />
    <glyph glyph-name="nine.opencirc_medi" horiz-adv-x="230" 
d="M89 225q-27 0 -60 10l13 42q26 -6 47 -6q26 0 44.5 18t23.5 51q-26 -13 -54 -13q-40 0 -63.5 19t-23.5 57q0 45 27.5 67.5t69.5 22.5q51 0 76 -26t25 -89q0 -72 -35 -112.5t-90 -40.5zM112 364q21 0 45 9q-1 45 -10 61.5t-36 16.5q-17 0 -28 -12.5t-11 -32.5
q0 -21 11 -31.5t29 -10.5zM0 -5v53h230v-53h-230zM0 660v53h230v-53h-230z" />
    <glyph glyph-name="zero.tnum_lnum_zero" horiz-adv-x="617" 
d="M303 -9q-249 0 -249 351q0 77 13 140.5t42.5 117t83 83.5t127.5 30q243 0 243 -349q0 -373 -260 -373zM308 59q44 0 76.5 18t50.5 45.5t28.5 69.5t14 79.5t3.5 86.5q0 154 -47 225l-222 -491q38 -33 96 -33zM175 139l219 485q-33 22 -80 22q-56 0 -93.5 -27t-55 -75
t-23.5 -94t-6 -104q0 -136 39 -207z" />
    <glyph glyph-name="zero.pnum_lnum" horiz-adv-x="621" 
d="M565 364q0 -373 -260 -373q-249 0 -249 351q0 77 13 140.5t42.5 117t83 83.5t127.5 30q59 0 103 -20t70 -52t42.5 -79.5t22 -94t5.5 -103.5zM483 358q0 288 -167 288q-45 0 -78.5 -19t-52 -48t-29.5 -71t-14 -79t-3 -83q0 -287 171 -287q44 0 76.5 18t50.5 45.5t29 69
t14 79.5t3 87z" />
    <glyph glyph-name="one.pnum_lnum" horiz-adv-x="327" 
d="M227 0h-79v639h-141v62q11 0 110 3t110 3v-707z" />
    <glyph glyph-name="two.pnum_lnum" horiz-adv-x="492" 
d="M468 0h-456v65q2 2 32.5 30.5t64.5 61t77.5 80.5t77 92.5t57 93t23.5 84.5q0 76 -32 107t-98 31q-77 0 -148 -42l-30 57q80 55 186 55q202 0 202 -199q0 -55 -23.5 -111t-72.5 -116t-95 -106t-120 -114h355v-69z" />
    <glyph glyph-name="three.pnum_lnum" horiz-adv-x="496" 
d="M438 185q0 -194 -228 -194q-52 0 -97.5 7.5t-64.5 14.5l-19 7l19 66q75 -24 152 -24q35 0 59.5 4t49.5 16t38 37.5t13 64.5q0 67 -53.5 106.5t-139.5 44.5v66q67 5 114.5 45t47.5 97q0 104 -122 104q-30 0 -60 -5.5t-45 -11.5l-15 -5l-24 58q71 32 149 32
q88 0 140.5 -42.5t52.5 -122.5q0 -66 -41 -113t-90 -61q65 -16 114.5 -66t49.5 -125z" />
    <glyph glyph-name="four.pnum_lnum" horiz-adv-x="557" 
d="M534 189h-123v-189h-79v189h-312v70l273 448h118v-448h123v-70zM332 259v388l-233 -388h233z" />
    <glyph glyph-name="five.pnum_lnum" horiz-adv-x="528" 
d="M473 213q0 -106 -64 -164t-170 -58q-104 0 -172 21l20 70q70 -18 152 -18q69 0 112.5 37t43.5 100q0 76 -42 113t-110 37q-76 0 -151 -8v364h357v-68h-281v-221q32 2 90 2q99 0 157 -55.5t58 -151.5z" />
    <glyph glyph-name="six.pnum_lnum" horiz-adv-x="567" 
d="M292 -13q-118 0 -176.5 71t-58.5 244q0 201 83 306.5t222 105.5q61 0 101 -14l-17 -65q-32 9 -85 9q-54 0 -95 -21t-65 -54.5t-39 -80.5t-20.5 -93t-5.5 -99q0 -124 34.5 -182.5t128.5 -58.5q64 0 100.5 45.5t36.5 114.5q0 76 -39 114t-104 38q-30 0 -79 -9l-4 65
q46 12 92 12q105 0 158.5 -57t53.5 -153q0 -114 -61 -176t-161 -62z" />
    <glyph glyph-name="seven.pnum_lnum" horiz-adv-x="431" 
d="M428 639l-309 -650l-70 30l299 618h-348v70h428v-68z" />
    <glyph glyph-name="eight.pnum_lnum" horiz-adv-x="566" 
d="M280 -10q-103 0 -165.5 46t-62.5 127q0 71 42.5 117.5t120.5 89.5q-64 40 -99.5 82t-35.5 99q0 77 56.5 120t154.5 43q93 0 145 -46.5t52 -110.5q0 -60 -37.5 -102.5t-105.5 -83.5q39 -22 64 -38.5t51.5 -41t39.5 -54t13 -63.5q0 -87 -62 -135.5t-171 -48.5zM286 54
q69 0 107.5 31t38.5 94q0 25 -11.5 46.5t-37 42.5t-47 34.5t-59.5 34.5q-70 -39 -107.5 -76.5t-37.5 -88.5q0 -55 41 -86.5t113 -31.5zM282 402q62 34 94.5 67t32.5 77q0 47 -29 76t-90 29q-64 0 -98 -27.5t-34 -77.5q0 -43 32 -76.5t92 -67.5z" />
    <glyph glyph-name="nine.pnum_lnum" horiz-adv-x="572" 
d="M199 -9q-51 0 -95 14l17 66q40 -10 78 -10q53 0 92.5 12.5t65 38.5t41.5 55t23.5 73t10 82t2.5 91q0 63 -15 113.5t-52 85t-93 34.5q-64 0 -100.5 -43t-36.5 -110q0 -90 37.5 -127t104.5 -37q39 0 82 10l6 -65q-46 -13 -103 -13q-100 0 -154 57.5t-54 166.5
q0 110 62.5 170.5t162.5 60.5q108 0 171.5 -82t63.5 -234q0 -221 -78 -315t-239 -94z" />
    <glyph glyph-name="zero.tnum_lnum" 
d="M295 -9q-244 0 -244 351q0 371 260 371q59 0 102.5 -20t69 -52t41 -79.5t21 -94t5.5 -103.5q0 -373 -255 -373zM299 59q88 0 128 75t41 224q0 58 -6 103t-22 90t-50 70t-84 25q-175 0 -173 -300q2 -287 166 -287z" />
    <glyph glyph-name="one.tnum_lnum" 
d="M87 0v71h174v568h-171v62l249 6v-636h174v-71h-426z" />
    <glyph glyph-name="two.tnum_lnum" 
d="M72 0v65q2 2 45 39.5t90 83.5t98 102.5t84 115t33 101.5q0 138 -148 138q-76 0 -149 -43l-30 57q84 56 187 56q60 0 105 -17.5t69 -47.5t35 -63.5t11 -70.5q0 -52 -21 -103t-79.5 -117.5t-88.5 -96t-120 -111.5q-13 -13 -20 -19h365v-69h-466z" />
    <glyph glyph-name="three.tnum_lnum" 
d="M268 -9q-52 0 -98 7.5t-66 15.5l-20 8l19 65q78 -25 155 -25q188 0 188 122q0 51 -33.5 85.5t-81 48.5t-108.5 17v66q47 3 88.5 18t72.5 47.5t31 76.5q0 104 -150 104q-19 0 -37.5 -2t-33 -5.5t-24.5 -6t-20 -5.5l-9 -4l-24 57q70 34 153 34q94 0 157.5 -41t63.5 -124
q0 -69 -49.5 -113t-108.5 -61q33 -8 63 -21t61 -35t49.5 -57t18.5 -78q0 -53 -21.5 -92t-59.5 -60.5t-81.5 -31.5t-94.5 -10z" />
    <glyph glyph-name="four.tnum_lnum" 
d="M355 0v189h-312v70l273 448h118v-448h123v-70h-123v-189h-79zM122 259h233v388z" />
    <glyph glyph-name="five.tnum_lnum" 
d="M269 -11q-97 0 -172 23l20 70q78 -20 151 -20q77 0 127 38t50 101q0 74 -50.5 112t-121.5 38q-76 0 -151 -8v364h377v-68h-302v-221q33 2 90 2q102 0 169 -56.5t67 -150.5q0 -106 -71 -165t-183 -59z" />
    <glyph glyph-name="six.tnum_lnum" 
d="M307 -13q-118 0 -177 71t-59 244q0 201 83 306.5t222 105.5q61 0 101 -14l-16 -65q-32 9 -85 9q-67 0 -113.5 -30.5t-70 -84t-33 -109.5t-9.5 -124q0 -124 34.5 -182.5t128.5 -58.5q64 0 100.5 45.5t36.5 114.5q0 76 -38.5 114t-103.5 38q-31 0 -80 -9l-4 65q46 12 92 12
q105 0 159 -57.5t54 -152.5q0 -114 -61 -176t-161 -62z" />
    <glyph glyph-name="seven.tnum_lnum" 
d="M200 -14l-71 31l318 620h-379v70h458v-68z" />
    <glyph glyph-name="eight.tnum_lnum" 
d="M298 -10q-105 0 -167 44t-62 124q0 72 45 122t120 92q-70 46 -103 85.5t-33 100.5q0 77 55.5 116.5t154.5 39.5q94 0 145.5 -43.5t51.5 -106.5q0 -36 -11.5 -65.5t-35.5 -53t-43.5 -38t-54.5 -35.5q84 -49 127.5 -95.5t43.5 -107.5q0 -86 -62 -132.5t-171 -46.5zM303 54
q146 0 146 120q0 25 -13.5 48t-42.5 45.5t-47 34t-52 31.5q-145 -78 -145 -166q0 -55 40.5 -84t113.5 -29zM298 408q60 35 94 68.5t35 76.5q0 98 -119 98q-133 0 -133 -98q0 -23 10.5 -44t32.5 -40.5t37 -31t43 -29.5z" />
    <glyph glyph-name="nine.tnum_lnum" 
d="M213 -13q-51 0 -95 14l17 67q35 -10 78 -10q53 0 92.5 12.5t65 38.5t41.5 55t23.5 73t10 82t2.5 91q0 98 -39.5 165.5t-120.5 67.5q-64 0 -100.5 -43t-36.5 -110q0 -90 37.5 -127.5t104.5 -37.5q34 0 82 11l6 -65q-46 -13 -103 -13q-100 0 -154 57.5t-54 166.5
q0 110 62.5 170.5t162.5 60.5q108 0 171.5 -82t63.5 -234q0 -220 -78.5 -315t-238.5 -95z" />
    <glyph glyph-name="zero.zero" horiz-adv-x="695" 
d="M346 -12q-131 0 -209 72t-78 212q0 139 79.5 213.5t211.5 74.5q129 0 207.5 -75t78.5 -209q0 -142 -80 -215t-210 -73zM347 57q91 0 149.5 57.5t58.5 160.5q0 74 -37 130l-306 -303q54 -45 135 -45zM176 144l304 302q-54 46 -132 46q-93 0 -150 -56t-57 -164
q0 -74 35 -128z" />
    <glyph glyph-name="zero.tnum_onum" 
d="M299 -12q-262 0 -262 284q0 142 68.5 215t196.5 73q127 0 194 -73.5t67 -210.5q0 -145 -68.5 -216.5t-195.5 -71.5zM300 57q87 0 134 56t47 162q0 102 -46 159.5t-134 57.5q-182 0 -182 -220q0 -104 47 -159.5t134 -55.5z" />
    <glyph glyph-name="one.tnum_onum" 
d="M87 0v71h174v421h-171v61l249 7v-489h174v-71h-426z" />
    </font>
</defs>
</svg>
