<?xml version="1.0" standalone="no"?>
<!DOCTYPE svg PUBLIC "-//W3C//DTD SVG 1.1//EN" "http://www.w3.org/Graphics/SVG/1.1/DTD/svg11.dtd" >
<svg xmlns="http://www.w3.org/2000/svg" xmlns:xlink="http://www.w3.org/1999/xlink" version="1.1">
<metadata>
Created by FontForge 20170731 at Thu Oct 11 21:12:10 2012
 By Aleksey,,,
Copyright (c) 2001-2009 Typotheque.com All rights reserved. 
</metadata>
<defs>
<font id="FedraSansStd-Light" horiz-adv-x="420" >
  <font-face 
    font-family="Fedra Sans Std Light"
    font-weight="300"
    font-stretch="normal"
    units-per-em="1000"
    panose-1="2 11 3 3 4 0 0 2 0 4"
    ascent="780"
    descent="-220"
    x-height="546"
    cap-height="707"
    bbox="-220 -284 1281 951"
    underline-thickness="50"
    underline-position="-200"
    unicode-range="U+0020-FB04"
  />
<missing-glyph horiz-adv-x="712" 
d="M305 375v27h27v-27h-27zM380 525v27h27v-27h-27zM305 525v27h27v-27h-27zM230 525v27h27v-27h-27zM80 0v27h27v-27h-27zM155 0v27h27v-27h-27zM230 0v27h27v-27h-27zM305 0v27h27v-27h-27zM380 0v27h27v-27h-27zM80 75v27h27v-27h-27zM80 150v27h27v-27h-27zM80 225v27
h27v-27h-27zM80 300v27h27v-27h-27zM80 375v27h27v-27h-27zM80 450v27h27v-27h-27zM80 525v27h27v-27h-27zM80 600v27h27v-27h-27zM80 675v27h27v-27h-27zM155 675v27h27v-27h-27zM230 675v27h27v-27h-27zM305 675v27h27v-27h-27zM380 675v27h27v-27h-27zM455 675v27h27v-27
h-27zM530 675v27h27v-27h-27zM530 0v27h27v-27h-27zM455 0v27h27v-27h-27zM605 0v27h27v-27h-27zM605 675v27h27v-27h-27zM305 300v27h27v-27h-27zM305 150v27h27v-27h-27zM380 375v27h27v-27h-27zM455 375v27h27v-27h-27zM455 450v27h27v-27h-27zM455 525v27h27v-27h-27z
M605 600v27h27v-27h-27zM605 525v27h27v-27h-27zM605 375v27h27v-27h-27zM605 300v27h27v-27h-27zM605 150v27h27v-27h-27zM605 75v27h27v-27h-27zM605 225v27h27v-27h-27zM605 450v27h27v-27h-27z" />
    <glyph glyph-name="f_f" unicode="ff" horiz-adv-x="645" 
d="M113 -220v715h-80v51h80v55q0 175 222 175q77 0 170 -39q40 39 135 39q22 0 69.5 -8t55.5 -12l-10 -45q-66 14 -109 14q-71 0 -105 -30t-34 -95v-54h118v-51h-118v-715h-54v715h-284v-715h-56zM169 546h284v53q0 63 20 97q-26 11 -73.5 20t-85.5 9q-72 0 -108.5 -29
t-36.5 -96v-54z" />
    <glyph glyph-name="fi" unicode="fi" horiz-adv-x="599" 
d="M113 -220v715h-80v51h80v38q0 110 45 150.5t128 40.5q16 0 72 -3t86 -3q16 0 44 2l8 -43q-28 -10 -86 -10q-26 1 -69.5 4t-55.5 3q-66 0 -91.5 -35.5t-25.5 -107.5v-36h342v-546h-57v495h-285v-715h-55z" />
    <glyph glyph-name="fl" unicode="fl" horiz-adv-x="599" 
d="M113 -220v715h-80v51h80v35q0 192 173 192q16 0 72 -4t86 -4q8 0 34.5 2t31.5 2v-769h-57v718q-32 -2 -90 2.5t-78 4.5q-117 0 -117 -138v-41h119v-51h-119v-715h-55z" />
    <glyph glyph-name="f_f_i" unicode="ffi" horiz-adv-x="936" 
d="M113 -220v715h-80v51h80v55q0 51 17.5 86.5t48 54t64 26.5t74.5 8q91 0 187 -39q46 38 120 38q16 0 72 -3t86 -3q18 0 44 2l8 -43q-27 -10 -85 -10q-25 1 -69.5 4t-56.5 3q-66 0 -90.5 -39.5t-24.5 -113.5v-26h339v-546h-56v495h-283v-715h-55v715h-283v-715h-57z
M170 546h282v28q0 78 22 123q-26 9 -78.5 18.5t-81.5 9.5q-72 0 -108 -29t-36 -96v-54z" />
    <glyph glyph-name="f_f_l" unicode="ffl" horiz-adv-x="922" 
d="M113 -220v715h-80v51h80v55q0 175 222 175q64 0 168 -39q41 38 119 38q16 0 72 -5t86 -5q9 0 29 2t24 2v-769h-56v719q-29 -1 -82 2.5t-73 3.5q-66 0 -91 -38.5t-25 -111.5v-29h117v-51h-117v-715h-55v715h-281v-715h-57zM170 546h281v28q0 76 21 122q-28 10 -76.5 19.5
t-81.5 9.5q-72 0 -108 -29t-36 -96v-54z" />
    <glyph glyph-name="f_h" unicode="fh" horiz-adv-x="953" 
d="M113 -220v715h-80v51h80v28q0 111 45 156t126 45q16 0 72 -5t87 -5q8 0 34.5 2t30.5 2v-283l32 22q31 21 44 27t46.5 15.5t69.5 9.5q46 0 78.5 -13.5t49.5 -33t27 -50t12 -53.5t2 -55v-355h-56v339q0 30 -2 52t-9.5 46t-20.5 38.5t-36 24.5t-55 10q-14 0 -29.5 -3.5
t-32 -10.5t-30.5 -13.5t-30 -16t-25 -15.5t-21.5 -14t-13.5 -9v-428h-56v719q-32 -2 -90 2t-78 4q-65 0 -90.5 -39.5t-25.5 -113.5v-26h117v-51h-117v-715h-55z" />
    <glyph glyph-name="f_b" unicode="fb" horiz-adv-x="941" 
d="M631 -9q-34 0 -63 2t-48.5 5.5t-31.5 6.5t-23 7t-12 4v702q-32 -2 -90 2.5t-78 4.5q-117 0 -117 -138v-41h119v-51h-119v-715h-55v715h-80v51h80v35q0 192 173 192q16 0 72 -4t86 -4q8 0 33.5 2t30.5 2v-715q54 -14 126 -14q92 0 141.5 66.5t49.5 168.5q0 48 -6 85
t-22.5 72.5t-51 55t-85.5 19.5q-31 0 -59 -7l-9 44q22 11 78 11q101 0 156.5 -69.5t55.5 -190.5q0 -158 -71 -231t-180 -73z" />
    <glyph glyph-name="f_j" unicode="fj" horiz-adv-x="596" 
d="M334 -220q-39 0 -60 9l10 46q7 -4 52 -4q65 0 89.5 38.5t24.5 110.5v515h-282v-705h-55v705h-80v51h80v28q0 111 45 156t126 45q16 0 72 -3t87 -3q16 0 44 2l7 -43q-28 -10 -86 -10q-25 1 -68.5 4t-55.5 3q-65 0 -90.5 -39.5t-25.5 -113.5v-26h339v-567q0 -199 -173 -199
z" />
    <glyph glyph-name="f_k" unicode="fk" horiz-adv-x="885" 
d="M113 -220v715h-80v51h80v28q0 111 45 156t126 45q16 0 72 -5t87 -5q8 0 34.5 2t30.5 2v-769h-56v719q-32 -2 -90 2t-78 4q-65 0 -90.5 -39.5t-25.5 -113.5v-26h117v-51h-117v-715h-55zM850 -10q-70 6 -146 100l-161 199l243 257h70l-242 -256l121 -151q35 -43 71 -70.5
t55 -34.5z" />
    <glyph glyph-name="f_f_j" unicode="ffj" horiz-adv-x="936" 
d="M673 -220q-28 0 -55 8l9 47q22 -6 48 -6q64 0 89.5 39.5t25.5 111.5v515h-282v-711h-55v711h-283v-711h-57v711h-80v51h80v55q0 51 17.5 86.5t48 54t64 26.5t74.5 8q91 0 187 -39q46 38 120 38q16 0 72 -3t86 -3q18 0 44 2l8 -43q-27 -10 -85 -10q-25 1 -69.5 4t-56.5 3
q-66 0 -90.5 -39.5t-24.5 -113.5v-26h339v-567q0 -199 -174 -199zM170 546h282v28q0 78 22 123q-26 9 -78.5 18.5t-81.5 9.5q-72 0 -108 -29t-36 -96v-54z" />
    <glyph glyph-name="f_idieresis" unicode="f&#xef;" horiz-adv-x="584" 
d="M113 -220v715h-80v51h80v66q0 76 38 114t99 38q52 0 80 -10l-10 -48q-37 8 -70 8q-43 0 -62.5 -23t-19.5 -78v-67h117v-51h-117v-715h-55zM438 0v546h57v-546h-57zM393 668l-45 49l45 49l47 -49zM545 668l-45 49l45 49l47 -49z" />
    <glyph glyph-name="f_igrave" unicode="f&#xec;" horiz-adv-x="584" 
d="M113 -220v715h-80v51h80v66q0 76 38 114t99 38q52 0 80 -10l-10 -48q-37 8 -70 8q-43 0 -62.5 -23t-19.5 -78v-67h117v-51h-117v-715h-55zM487 607l-128 147l40 35l122 -152zM438 0v546h57v-546h-57z" />
    <glyph glyph-name="aogonek_j" unicode="&#x105;j" horiz-adv-x="812" 
d="M491 -230q-70 0 -113 27.5t-43 85.5q0 71 93 124q-36 19 -39 59q-3 -2 -17 -13t-28.5 -19.5t-37 -19t-52.5 -16.5t-64 -6q-69 0 -107.5 39.5t-38.5 112.5q0 47 19 80.5t51.5 50.5t64.5 24.5t68 8.5l139 3v83q0 69 -33.5 92t-117.5 23q-48 0 -128 -25l-12 46
q17 8 63.5 18.5t98.5 10.5q183 0 183 -140v-320q0 -55 52 -60l-4 -39q-97 -57 -97 -114q0 -67 100 -67q83 0 123 41.5t40 142.5v543h57v-544q0 -112 -59 -172t-161 -60zM207 39q35 0 79 17t68 32t32 22v157l-144 -6q-69 -3 -106.5 -33.5t-37.5 -76.5q0 -60 27.5 -86
t81.5 -26zM682 660l-53 55l53 54l55 -54z" />
    <glyph glyph-name=".notdef" horiz-adv-x="712" 
d="M305 375v27h27v-27h-27zM380 525v27h27v-27h-27zM305 525v27h27v-27h-27zM230 525v27h27v-27h-27zM80 0v27h27v-27h-27zM155 0v27h27v-27h-27zM230 0v27h27v-27h-27zM305 0v27h27v-27h-27zM380 0v27h27v-27h-27zM80 75v27h27v-27h-27zM80 150v27h27v-27h-27zM80 225v27
h27v-27h-27zM80 300v27h27v-27h-27zM80 375v27h27v-27h-27zM80 450v27h27v-27h-27zM80 525v27h27v-27h-27zM80 600v27h27v-27h-27zM80 675v27h27v-27h-27zM155 675v27h27v-27h-27zM230 675v27h27v-27h-27zM305 675v27h27v-27h-27zM380 675v27h27v-27h-27zM455 675v27h27v-27
h-27zM530 675v27h27v-27h-27zM530 0v27h27v-27h-27zM455 0v27h27v-27h-27zM605 0v27h27v-27h-27zM605 675v27h27v-27h-27zM305 300v27h27v-27h-27zM305 150v27h27v-27h-27zM380 375v27h27v-27h-27zM455 375v27h27v-27h-27zM455 450v27h27v-27h-27zM455 525v27h27v-27h-27z
M605 600v27h27v-27h-27zM605 525v27h27v-27h-27zM605 375v27h27v-27h-27zM605 300v27h27v-27h-27zM605 150v27h27v-27h-27zM605 75v27h27v-27h-27zM605 225v27h27v-27h-27zM605 450v27h27v-27h-27z" />
    <glyph glyph-name=".null" horiz-adv-x="0" 
 />
    <glyph glyph-name="nonmarkingreturn" horiz-adv-x="333" 
 />
    <glyph glyph-name="space" unicode=" " horiz-adv-x="271" 
 />
    <glyph glyph-name="exclam" unicode="!" horiz-adv-x="275" 
d="M113 159l-3 126v422h55v-422l-2 -126h-50zM103 0v71h69v-71h-69z" />
    <glyph glyph-name="quotedbl" unicode="&#x22;" horiz-adv-x="338" 
d="M68 515l-3 238h51l-5 -238h-43zM226 515l-3 238h51l-5 -238h-43z" />
    <glyph glyph-name="numbersign" unicode="#" horiz-adv-x="585" 
d="M135 0l9 164h-90v50h92l8 141h-100v50h103l8 162h53l-8 -162h183l8 162h53l-8 -162h85v-50h-88l-8 -141h96v-50h-98l-9 -164h-53l9 164h-183l-9 -164h-53zM199 214h183l8 141h-183z" />
    <glyph glyph-name="dollar" unicode="$" horiz-adv-x="488" 
d="M210 -99l1 95q-96 4 -167 39l21 50q92 -37 167 -37q146 0 146 97q0 24 -19 44.5t-36.5 29.5t-46.5 21q-9 4 -32.5 13t-35.5 14t-33.5 15.5t-33 19t-27 22t-23.5 27t-14 31.5t-6 38q0 56 37.5 88t102.5 41l-1 91h59l-2 -89q82 -1 149 -29l-18 -46q-82 25 -140 25
q-130 0 -130 -80q0 -19 9 -35t27 -29t31.5 -20t34.5 -17q10 -5 40.5 -17.5t47.5 -20t42.5 -22.5t39 -29t24.5 -35.5t11 -45.5q0 -140 -168 -153l3 -96h-60z" />
    <glyph glyph-name="percent" unicode="%" horiz-adv-x="770" 
d="M196 396q-64 0 -103 37.5t-39 115.5t42 121.5t103 43.5q144 0 144 -157q0 -74 -42 -117.5t-105 -43.5zM196 440q45 0 71.5 31.5t26.5 85.5q0 53 -23.5 84.5t-71.5 31.5q-42 0 -68 -32t-26 -92q0 -109 91 -109zM569 -8q-64 0 -103 37.5t-39 115.5t42 121.5t103 43.5
q144 0 144 -157q0 -74 -42 -117.5t-105 -43.5zM569 36q45 0 71.5 31.5t26.5 85.5q0 53 -23.5 84.5t-71.5 31.5q-42 0 -68 -32t-26 -92q0 -109 91 -109zM129 64l-31 34l521 532l31 -33z" />
    <glyph glyph-name="ampersand" unicode="&#x26;" horiz-adv-x="662" 
d="M245 -7q-34 0 -64 8t-58.5 25.5t-45.5 51.5t-17 81q0 39 8.5 70t30.5 58.5t40 44.5t55 47q-33 89 -33 175q0 67 37.5 110t111.5 43q65 0 96.5 -36t31.5 -92q0 -30 -11.5 -56.5t-34.5 -49t-42.5 -37.5t-52.5 -36t-47 -32q54 -132 166.5 -220t240.5 -102l-7 -48
q-108 9 -209 71q-35 -28 -54 -40.5t-56.5 -24t-85.5 -11.5zM257 41q67 0 143 55q-125 93 -190 235q-49 -41 -73.5 -78.5t-24.5 -88.5q0 -48 24.5 -77t54 -37.5t66.5 -8.5zM234 413q8 6 43.5 30.5t54 39.5t37.5 41.5t19 51.5q0 39 -23 62.5t-59 23.5q-47 0 -71 -27.5
t-24 -71.5q0 -73 23 -150z" />
    <glyph glyph-name="quotesingle" unicode="'" horiz-adv-x="180" 
d="M68 515l-3 238h51l-5 -238h-43z" />
    <glyph glyph-name="parenleft" unicode="(" horiz-adv-x="334" 
d="M296 -182l-33 -39q-208 200 -208 506q0 96 19.5 179t53 141.5t66 97t69.5 66.5l33 -39q-35 -32 -61.5 -64.5t-57.5 -86t-48 -128.5t-17 -165q0 -280 184 -468z" />
    <glyph glyph-name="parenright" unicode=")" horiz-adv-x="334" 
d="M71 -221l-33 39q184 188 184 468q0 90 -17 165t-48 128.5t-57.5 86t-61.5 64.5l33 39q37 -28 69.5 -66.5t66 -97t53 -141.5t19.5 -179q0 -306 -208 -506z" />
    <glyph glyph-name="asterisk" unicode="*" horiz-adv-x="439" 
d="M82 471l-29 51l101 46l18 -32zM154 601l-101 46l30 51l90 -64zM190 409l12 111h37l10 -111h-59zM203 650l-12 112h59l-10 -112h-37zM357 472l-90 63l20 33l100 -44zM286 603l-19 31l91 65l30 -50z" />
    <glyph glyph-name="plus" unicode="+" horiz-adv-x="585" 
d="M259 56v221h-219v50h219v228h53v-228h233v-50h-233v-221h-53z" />
    <glyph glyph-name="comma" unicode="," horiz-adv-x="202" 
d="M48 -122q24 61 24 130v54h58v-26q0 -84 -35 -158h-47z" />
    <glyph glyph-name="hyphen" unicode="-" horiz-adv-x="510" 
d="M106 261v51h298v-51h-298z" />
    <glyph glyph-name="hyphen" unicode="&#xad;" horiz-adv-x="510" 
d="M106 261v51h298v-51h-298z" />
    <glyph glyph-name="period" unicode="." horiz-adv-x="215" 
d="M72 0v76h71v-76h-71z" />
    <glyph glyph-name="slash" unicode="/" horiz-adv-x="365" 
d="M39 -62l233 827h53l-232 -827h-54z" />
    <glyph glyph-name="zero" unicode="0" horiz-adv-x="660" 
d="M330 -12q-126 0 -206 72.5t-80 212.5t80 213.5t206 73.5q125 0 205.5 -75t80.5 -212q0 -140 -80 -212.5t-206 -72.5zM330 39q99 0 163.5 62t64.5 172q0 107 -65 172t-163 65q-101 0 -164 -59.5t-63 -177.5q0 -108 64.5 -171t162.5 -63z" />
    <glyph glyph-name="one" unicode="1" horiz-adv-x="326" 
d="M164 0v511h-141v43l199 6v-560h-58z" />
    <glyph glyph-name="two" unicode="2" horiz-adv-x="491" 
d="M50 0v46q11 9 62.5 52.5t83 73t73 71.5t63 78.5t21.5 64.5q0 67 -30 94.5t-89 27.5q-38 0 -76 -13t-57 -26l-25 42q21 17 65.5 33t96.5 16q91 0 132 -46.5t41 -122.5q0 -54 -54 -125t-97 -108.5t-120 -98.5q-8 -6 -11 -9h308v-50h-387z" />
    <glyph glyph-name="three" unicode="3" horiz-adv-x="476" 
d="M207 -166q-109 0 -179 29l17 47q70 -27 152 -27q28 0 49 2t45.5 10.5t40.5 22t26.5 39t10.5 60.5q0 61 -46.5 105t-115.5 58q-12 2 -36 4v47q22 2 33 5q54 16 94 60.5t40 94.5q0 63 -38.5 91t-95.5 28q-30 0 -59.5 -6t-43.5 -12l-14 -5l-19 42q65 30 140 30
q84 0 133 -43.5t49 -121.5q0 -66 -45 -116.5t-96 -62.5q26 -6 54 -20.5t56 -37t46 -57.5t18 -75q0 -96 -58.5 -143.5t-157.5 -47.5z" />
    <glyph glyph-name="four" unicode="4" horiz-adv-x="566" 
d="M348 -161v189h-315v55l277 463h95v-465h129v-53h-129v-189h-57zM92 81h256v430z" />
    <glyph glyph-name="five" unicode="5" horiz-adv-x="493" 
d="M215 -169q-97 0 -163 21l14 54q69 -20 149 -20q73 0 120 40t47 110q0 88 -45.5 127t-120.5 39q-53 0 -139 -10v354h339v-51h-286v-246q53 6 101 6q95 0 151.5 -56t56.5 -151q0 -104 -61 -160.5t-163 -56.5z" />
    <glyph glyph-name="six" unicode="6" horiz-adv-x="549" 
d="M286 -12q-55 0 -94.5 14.5t-69.5 49.5t-44.5 97t-14.5 153q0 200 80.5 306.5t213.5 106.5q56 0 87 -11l-11 -49q-28 8 -76 8q-58 0 -102.5 -24t-69.5 -60t-41 -87t-21 -97.5t-5 -98.5q0 -130 37 -194t138 -64q69 0 108.5 50t39.5 124q0 81 -42 122.5t-111 41.5
q-22 0 -68 -7l-7 50q41 9 83 9q100 0 150 -58t50 -148q0 -113 -56.5 -173.5t-153.5 -60.5z" />
    <glyph glyph-name="seven" unicode="7" horiz-adv-x="480" 
d="M140 -168l-51 22l302 640h-359v52h415v-57z" />
    <glyph glyph-name="eight" unicode="8" horiz-adv-x="547" 
d="M271 -12q-99 0 -158.5 50t-59.5 127q0 38 13 69t41.5 56.5t51.5 41t65 38.5q-68 42 -105 83.5t-37 99.5q0 73 53.5 118.5t146.5 45.5q89 0 137 -48.5t48 -110.5q0 -61 -38 -102.5t-109 -84.5q45 -25 66.5 -39t51.5 -39.5t43 -54t13 -63.5q0 -84 -59.5 -135.5
t-163.5 -51.5zM277 37q72 0 115 35.5t43 106.5q0 26 -12 48.5t-35 41.5t-47.5 34.5t-57.5 34.5l-7 3.5t-6 3.5q-40 -23 -61 -36.5t-47.5 -36t-38.5 -47.5t-12 -55q0 -62 46 -97.5t120 -35.5zM274 395q67 37 102.5 72t35.5 83q0 51 -31.5 85.5t-98.5 34.5q-69 0 -107 -32
t-38 -87q0 -48 35.5 -83t101.5 -73z" />
    <glyph glyph-name="nine" unicode="9" horiz-adv-x="554" 
d="M182 -165q-42 0 -79 11l12 50q35 -9 67 -9q50 0 89.5 11.5t65.5 29t44.5 47.5t28.5 58t15.5 71t6.5 74.5t1 79.5q0 97 -43 173t-128 76q-70 0 -109 -47t-39 -119q0 -99 40 -140t112 -41q32 0 72 8l10 -49q-47 -11 -97 -11q-94 0 -144.5 59t-50.5 166q0 108 58.5 167.5
t154.5 59.5q100 0 161.5 -83t61.5 -232q0 -153 -35.5 -244.5t-101.5 -128.5t-173 -37z" />
    <glyph glyph-name="colon" unicode=":" horiz-adv-x="287" 
d="M108 0v76h71v-76h-71zM108 470v76h71v-76h-71z" />
    <glyph glyph-name="semicolon" unicode=";" horiz-adv-x="285" 
d="M91 -122q24 86 24 128v56h58v-26q0 -84 -35 -158h-47zM105 470v76h71v-76h-71z" />
    <glyph glyph-name="less" unicode="&#x3c;" horiz-adv-x="514" 
d="M451 69l-398 189v91l398 189v-57l-370 -178l370 -177v-57z" />
    <glyph glyph-name="equal" unicode="=" horiz-adv-x="733" 
d="M114 180v50h505v-50h-505zM114 379v50h505v-50h-505z" />
    <glyph glyph-name="greater" unicode="&#x3e;" horiz-adv-x="514" 
d="M63 69v57l370 177l-370 178v57l398 -189v-91z" />
    <glyph glyph-name="question" unicode="?" horiz-adv-x="364" 
d="M111 157q-29 51 -29 94q0 38 18 70.5t43.5 56t51.5 45t44 46.5t18 51q0 35 -19 62t-50.5 42.5t-62.5 23.5t-65 11l12 50q60 -5 111.5 -23.5t90.5 -60t39 -99.5q0 -34 -18 -65t-44 -55t-52.5 -47.5t-44.5 -50.5t-18 -56q0 -36 25 -86zM95 0v71h69v-71h-69z" />
    <glyph glyph-name="at" unicode="@" horiz-adv-x="772" 
d="M359 -70q-146 0 -221.5 89.5t-75.5 243.5q0 118 31.5 207t87.5 142t126 79t153 26q120 0 189 -68.5t69 -213.5q0 -75 -20 -132t-52 -88.5t-68 -47t-73 -15.5q-74 0 -68 69q-20 -23 -58 -42.5t-63 -19.5q-43 0 -66 27.5t-23 94.5q0 103 52 163t139 60q54 0 96 -21
l-28 -238q-5 -48 18 -48q29 0 54 9.5t50 33.5t40 73.5t15 119.5q0 234 -206 234q-69 0 -126.5 -20t-106.5 -64t-76.5 -122.5t-27.5 -186.5q0 -155 63.5 -222.5t185.5 -67.5q74 0 146 18l12 -47q-61 -25 -168 -25zM323 208q29 0 63 22t52 44l21 178q-26 6 -43 6
q-70 0 -104 -47.5t-34 -125.5q0 -47 10.5 -62t34.5 -15z" />
    <glyph glyph-name="A" unicode="A" horiz-adv-x="658" 
d="M4 0l295 707h77l262 -707h-66l-101 279h-290l-112 -279h-65zM201 330h252l-120 331z" />
    <glyph glyph-name="B" unicode="B" horiz-adv-x="624" 
d="M112 0v707h179q111 0 165 -48t54 -125q0 -61 -27.5 -103.5t-75.5 -58.5v-3q66 -11 110 -54.5t44 -117.5q0 -91 -58 -144t-182 -53h-209zM171 51h133q42 0 74 5.5t61.5 20t45 44t15.5 73.5q0 144 -212 144h-117v-287zM171 390h138q69 0 104.5 34.5t35.5 96.5
q0 76 -44.5 107.5t-134.5 31.5h-99v-270z" />
    <glyph glyph-name="C" unicode="C" horiz-adv-x="676" 
d="M426 -12q-166 0 -263.5 101.5t-97.5 259.5q0 165 95.5 266.5t261.5 101.5q121 0 201 -39l-20 -51q-94 36 -179 36q-60 0 -111.5 -17t-94 -51.5t-67 -95t-24.5 -140.5q0 -83 25 -145.5t69.5 -98.5t100 -54t120.5 -18q92 0 166 28l16 -49q-87 -34 -198 -34z" />
    <glyph glyph-name="D" unicode="D" horiz-adv-x="745" 
d="M112 0v707h174q177 0 284 -88t107 -263q0 -180 -102 -268t-283 -88h-180zM171 51h132q145 0 228.5 75t83.5 219q0 154 -90 232.5t-242 78.5h-112v-605z" />
    <glyph glyph-name="E" unicode="E" horiz-adv-x="574" 
d="M112 0v707h378v-49h-319v-277h297v-52h-297v-278h342v-51h-401z" />
    <glyph glyph-name="F" unicode="F" horiz-adv-x="558" 
d="M112 0v707h395v-49h-336v-297h314v-53h-314v-308h-59z" />
    <glyph glyph-name="G" unicode="G" horiz-adv-x="711" 
d="M433 -12q-171 0 -269 99t-98 262q0 164 94 266t259 102q126 0 202 -37l-18 -52q-85 35 -181 35q-60 0 -111 -17t-93 -52t-66 -95.5t-24 -139.5q0 -82 25 -144t69 -99t99.5 -55.5t121.5 -18.5q75 0 132 19v286h59v-326q-103 -33 -201 -33z" />
    <glyph glyph-name="H" unicode="H" horiz-adv-x="753" 
d="M112 0v707h59v-326h411v326h59v-707h-59v329h-411v-329h-59z" />
    <glyph glyph-name="I" unicode="I" horiz-adv-x="283" 
d="M112 0v707h59v-707h-59z" />
    <glyph glyph-name="J" unicode="J" horiz-adv-x="284" 
d="M-3 -184l-28 44q85 47 115 114.5t30 176.5v556h59v-554q0 -128 -36 -207t-140 -130z" />
    <glyph glyph-name="K" unicode="K" horiz-adv-x="603" 
d="M510 0l-301 367v19l285 321h74l-295 -326l316 -381h-79zM112 0v707h59v-707h-59z" />
    <glyph glyph-name="L" unicode="L" horiz-adv-x="485" 
d="M112 0v707h59v-653h307v-54h-366z" />
    <glyph glyph-name="M" unicode="M" horiz-adv-x="928" 
d="M112 0v707h86l254 -685l284 685h80v-707h-59v531l3 94h-3l-257 -625h-100l-230 627h-3l4 -79v-548h-59z" />
    <glyph glyph-name="N" unicode="N" horiz-adv-x="760" 
d="M112 0v707h81l397 -648h2l-3 91v557h59v-707h-85l-394 640h-2l4 -67v-573h-59z" />
    <glyph glyph-name="O" unicode="O" horiz-adv-x="827" 
d="M405 -12q-156 0 -247.5 102t-91.5 265q0 165 96.5 263.5t255.5 98.5q160 0 251.5 -102.5t91.5 -261.5q0 -163 -96.5 -264t-259.5 -101zM408 39q142 0 218 88t76 227q0 137 -77 224.5t-210 87.5q-138 0 -214.5 -87t-76.5 -223q0 -134 75 -225.5t209 -91.5z" />
    <glyph glyph-name="P" unicode="P" horiz-adv-x="590" 
d="M112 0v707h218q103 0 160 -55t57 -158q0 -99 -67 -161.5t-202 -62.5h-23v52h29q91 0 145.5 39.5t54.5 127.5q0 87 -43.5 128t-132.5 41h-137v-658h-59z" />
    <glyph glyph-name="Q" unicode="Q" horiz-adv-x="827" 
d="M405 -12q-156 0 -247.5 102t-91.5 265q0 165 96.5 263.5t255.5 98.5q160 0 251.5 -102.5t91.5 -261.5q0 -163 -96.5 -264t-259.5 -101zM408 39q142 0 218 88t76 227q0 137 -77 224.5t-210 87.5q-138 0 -214.5 -87t-76.5 -223q0 -134 75 -225.5t209 -91.5zM790 -151
q-8 0 -26 -0.5t-28 -0.5q-103 0 -183 31q-98 38 -154 38v50q67 0 145 -30q58 -22 98 -28t94 -6h54v-54z" />
    <glyph glyph-name="R" unicode="R" horiz-adv-x="675" 
d="M651 -12q-95 16 -186 147l-112 162q-28 -6 -74 -6h-108v-291h-59v707h219q101 0 159 -50t58 -151q0 -67 -33.5 -118.5t-104.5 -75.5l101 -144q43 -58 76 -89t77 -45zM171 346h114q94 0 147 34t53 120q0 85 -44 121.5t-132 36.5h-138v-312z" />
    <glyph glyph-name="S" unicode="S" horiz-adv-x="530" 
d="M241 -12q-112 0 -186 47l20 52q85 -45 168 -45q44 0 81.5 10.5t67 42t29.5 80.5q0 53 -36 90t-87.5 60t-103.5 48t-88 69t-36 107q0 79 57 123.5t143 44.5q91 0 161 -35l-18 -48q-69 33 -142 33q-63 0 -103.5 -28.5t-40.5 -85.5q0 -36 19.5 -64t50.5 -47.5t68.5 -37.5
t75.5 -37.5t69 -43t50.5 -60t19.5 -82.5q0 -94 -66.5 -143.5t-172.5 -49.5z" />
    <glyph glyph-name="T" unicode="T" horiz-adv-x="571" 
d="M256 0v654h-247v53h553v-53h-247v-654h-59z" />
    <glyph glyph-name="U" unicode="U" horiz-adv-x="749" 
d="M374 -12q-42 0 -78.5 6.5t-73 23.5t-62 44t-41.5 71t-16 102v472h59v-465q0 -201 212 -201q213 0 213 225v441h59v-445q0 -64 -17 -113.5t-44 -79t-64.5 -48.5t-73 -26t-73.5 -7z" />
    <glyph glyph-name="V" unicode="V" horiz-adv-x="649" 
d="M276 0l-259 707h66l238 -659l263 659h59l-281 -707h-86z" />
    <glyph glyph-name="W" unicode="W" horiz-adv-x="1029" 
d="M242 0l-208 707h63l195 -672l200 498l-59 174h61l230 -673l230 673h58l-242 -707h-94l-157 457l-184 -457h-93z" />
    <glyph glyph-name="X" unicode="X" horiz-adv-x="588" 
d="M14 0l248 377l-202 330h67l170 -280l181 280h63l-213 -328l233 -379h-69l-199 329l-211 -329h-68z" />
    <glyph glyph-name="Y" unicode="Y" horiz-adv-x="577" 
d="M257 0v279l-223 428h65l190 -374l203 374h61l-237 -430v-277h-59z" />
    <glyph glyph-name="Z" unicode="Z" horiz-adv-x="556" 
d="M44 0v60l388 595h-362v52h422v-53l-392 -602h413v-52h-469z" />
    <glyph glyph-name="bracketleft" unicode="[" horiz-adv-x="286" 
d="M90 -220v974h156v-48h-100v-878h100v-48h-156z" />
    <glyph glyph-name="backslash" unicode="\" horiz-adv-x="365" 
d="M272 -62l-232 827h53l233 -827h-54z" />
    <glyph glyph-name="bracketright" unicode="]" horiz-adv-x="286" 
d="M40 -220v48h100v878h-100v48h156v-974h-156z" />
    <glyph glyph-name="asciicircum" unicode="^" horiz-adv-x="511" 
d="M60 294l159 413h86l146 -413h-66l-124 376l-140 -376h-61z" />
    <glyph glyph-name="underscore" unicode="_" horiz-adv-x="580" 
d="M40 -156v52h500v-52h-500z" />
    <glyph glyph-name="grave" unicode="`" horiz-adv-x="564" 
d="M358 622l-180 125l30 44l176 -132z" />
    <glyph glyph-name="a" unicode="a" horiz-adv-x="541" 
d="M201 -9q-70 0 -112 40.5t-42 112.5q0 47 19 80.5t51.5 50.5t64.5 24.5t68 8.5l139 3v79q0 71 -32 95.5t-113 24.5q-66 0 -134 -27l-14 46q70 31 164 31q86 0 134.5 -35.5t48.5 -109.5v-318q0 -31 19 -44t43 -13l-2 -44q-6 -2 -21 -2q-33 0 -60 18.5t-30 53.5
q-27 -22 -45 -34t-59 -26.5t-87 -14.5zM218 38q82 0 171 72v157l-144 -6q-69 -3 -106.5 -33.5t-37.5 -76.5q0 -113 117 -113z" />
    <glyph glyph-name="b" unicode="b" horiz-adv-x="574" 
d="M264 -12q-99 0 -178 28v738h55v-699q66 -17 126 -17q92 0 141.5 67.5t49.5 169.5q0 48 -6 85t-22.5 72.5t-51 55t-85.5 19.5q-31 0 -59 -7l-9 44q22 11 78 11q101 0 156.5 -69.5t55.5 -190.5q0 -158 -71 -232.5t-180 -74.5z" />
    <glyph glyph-name="c" unicode="c" horiz-adv-x="488" 
d="M325 -12q-138 0 -202.5 68t-64.5 216q0 133 66 210.5t178 77.5q83 0 142 -32l-19 -47q-64 28 -127 28q-85 0 -134 -62t-49 -171q0 -124 49 -180.5t169 -56.5q45 0 102 17l10 -47q-54 -21 -120 -21z" />
    <glyph glyph-name="d" unicode="d" horiz-adv-x="569" 
d="M281 -11q-223 0 -223 279q0 138 71 215t178 77q64 0 118 -16v210h55v-754h-55v56q-69 -67 -144 -67zM281 38q39 0 80.5 24.5t63.5 47.5v383q-56 20 -119 20q-97 0 -144 -73t-47 -175q0 -113 44 -170t122 -57z" />
    <glyph glyph-name="e" unicode="e" horiz-adv-x="535" 
d="M307 -12q-121 0 -184.5 63t-63.5 212t63.5 223t167.5 74q188 0 188 -272v-20h-362q1 -72 17 -119t47.5 -70t66 -31.5t84.5 -8.5q61 0 129 26l11 -48q-65 -29 -164 -29zM116 314h303q0 94 -34.5 146.5t-103.5 52.5t-113 -50.5t-52 -148.5z" />
    <glyph glyph-name="f" unicode="f" horiz-adv-x="305" 
d="M113 -220v715h-80v51h80v42q0 88 46 132t120 44q50 0 80 -10l-10 -48q-37 8 -70 8q-58 0 -84.5 -28.5t-26.5 -96.5v-43h117v-51h-117v-715h-55z" />
    <glyph glyph-name="g" unicode="g" horiz-adv-x="566" 
d="M267 -230q-102 0 -165 29l13 52q75 -30 142 -30q81 0 124 33t43 123v67q-57 -52 -134 -52q-37 0 -66.5 5.5t-61.5 23t-53.5 47.5t-35.5 81.5t-14 121.5q0 142 70 215.5t178 73.5q83 0 171 -22v-578q0 -93 -55.5 -141.5t-155.5 -48.5zM294 41q67 0 129 59v393
q-60 16 -117 16q-100 0 -146 -66.5t-46 -174.5q0 -119 44.5 -173t135.5 -54z" />
    <glyph glyph-name="h" unicode="h" horiz-adv-x="587" 
d="M89 0v754h55v-272q107 77 194 77q45 0 77.5 -14t49 -32.5t25.5 -49.5t10.5 -53t1.5 -55v-355h-51v339q0 87 -23.5 128.5t-100.5 41.5q-73 0 -183 -77v-432h-55z" />
    <glyph glyph-name="i" unicode="i" horiz-adv-x="235" 
d="M89 0v546h57v-546h-57zM116 660l-53 55l53 54l55 -54z" />
    <glyph glyph-name="j" unicode="j" horiz-adv-x="235" 
d="M-28 -224q-28 0 -55 8l9 47q22 -6 48 -6q64 0 89.5 39.5t25.5 111.5v570h57v-571q0 -199 -174 -199zM116 660l-53 55l53 54l55 -54z" />
    <glyph glyph-name="k" unicode="k" horiz-adv-x="521" 
d="M487 -7q-70 6 -146 100l-157 196l239 257h68l-241 -256l121 -151q36 -44 72.5 -71t59.5 -34zM89 0v754h55v-754h-55z" />
    <glyph glyph-name="l" unicode="l" horiz-adv-x="233" 
d="M89 0v754h55v-754h-55z" />
    <glyph glyph-name="m" unicode="m" horiz-adv-x="922" 
d="M89 0v546h55v-67q97 79 176 79q114 0 150 -80q30 23 52 37t63.5 28.5t82.5 14.5q45 0 77.5 -12.5t49.5 -31t27 -48t12.5 -54t2.5 -57.5v-355h-55v339q0 39 -4 65t-15.5 52t-37.5 39t-66 13q-78 0 -176 -75q7 -44 7 -78v-355h-54v339q0 31 -1.5 52t-8.5 45.5t-19.5 39
t-35.5 24.5t-56 10q-75 0 -171 -82v-428h-55z" />
    <glyph glyph-name="n" unicode="n" horiz-adv-x="588" 
d="M89 0v546h55v-64q51 38 94.5 58t99.5 20q45 0 77.5 -14t49.5 -33t26 -49.5t11 -53.5t2 -55v-355h-53v339q0 87 -23.5 129t-100.5 42q-78 0 -183 -78v-432h-55z" />
    <glyph glyph-name="o" unicode="o" horiz-adv-x="589" 
d="M293 -12q-110 0 -172.5 72.5t-62.5 206.5q0 139 67 216t174 77q115 0 173.5 -74t58.5 -213t-65.5 -212t-172.5 -73zM298 35q51 0 87 20.5t55 56.5t27 75.5t8 85.5q0 43 -8 82t-26.5 76.5t-55.5 59.5t-89 22q-51 0 -88 -22t-56.5 -59t-28 -76.5t-8.5 -83.5
q0 -47 9.5 -87.5t29.5 -75t57 -54.5t87 -20z" />
    <glyph glyph-name="p" unicode="p" horiz-adv-x="577" 
d="M89 -220v766h55v-46q86 58 157 58q103 0 160 -73t57 -198q0 -82 -20.5 -142t-56.5 -93t-79 -48t-95 -15q-65 0 -123 10v-219h-55zM270 38q92 0 141.5 62.5t49.5 162.5q0 50 -6.5 89.5t-23.5 77t-52 58.5t-86 21q-39 0 -83 -22t-66 -40v-396q2 0 25 -4.5t45.5 -6.5
t55.5 -2z" />
    <glyph glyph-name="q" unicode="q" horiz-adv-x="566" 
d="M425 -220v242q-63 -33 -142 -33q-225 0 -225 286q0 132 71.5 208.5t177.5 76.5q98 0 173 -33v-747h-55zM286 37q81 0 139 38v415q-49 22 -120 22q-99 0 -145.5 -69.5t-46.5 -170.5q0 -119 45.5 -177t127.5 -58z" />
    <glyph glyph-name="r" unicode="r" horiz-adv-x="370" 
d="M89 0v546h55v-73q20 36 62 60.5t98 24.5q34 0 61 -9l-11 -48q-30 7 -62 7q-89 0 -148 -98v-410h-55z" />
    <glyph glyph-name="s" unicode="s" horiz-adv-x="433" 
d="M193 -12q-73 0 -149 24l12 51q78 -26 137 -26q65 0 104.5 25.5t39.5 70.5q0 39 -28.5 66t-68.5 43.5t-80.5 34.5t-69 53t-28.5 86q0 64 48.5 104t114.5 40q77 0 135 -25l-15 -47q-54 24 -119 24q-52 0 -81.5 -26t-29.5 -66q0 -33 20 -58t50.5 -38.5t66 -30.5t66 -33.5
t50.5 -47t20 -71.5q0 -77 -59 -115t-136 -38z" />
    <glyph glyph-name="t" unicode="t" horiz-adv-x="375" 
d="M263 -12q-78 0 -117.5 34.5t-39.5 124.5v347h-80v52h80v112h53v-112h172v-52h-171v-346q0 -62 26.5 -85.5t81.5 -23.5q48 0 86 16l13 -48q-49 -19 -104 -19z" />
    <glyph glyph-name="u" unicode="u" horiz-adv-x="584" 
d="M244 -12q-43 0 -73.5 14t-47 33.5t-25.5 50.5t-11 54.5t-2 54.5v351h55v-334q0 -28 1 -44.5t4 -39t10.5 -36t19.5 -26.5t32 -19t47 -6q83 0 189 78v427h52v-546h-52v66q-36 -26 -57 -39t-60.5 -26t-81.5 -13z" />
    <glyph glyph-name="v" unicode="v" horiz-adv-x="490" 
d="M197 0l-175 546h62l120 -396l37 -118l41 121l137 393h56l-193 -546h-85z" />
    <glyph glyph-name="w" unicode="w" horiz-adv-x="867" 
d="M199 0l-177 546h58l160 -510l161 510h76l142 -510l178 510h55l-195 -546h-80l-122 426l-17 71l-19 -70l-140 -427h-80z" />
    <glyph glyph-name="x" unicode="x" horiz-adv-x="489" 
d="M27 0l187 279l-177 267h65l144 -223l143 223h62l-174 -264l187 -282h-68l-151 236l-153 -236h-65z" />
    <glyph glyph-name="y" unicode="y" horiz-adv-x="488" 
d="M151 -220l75 220h-31l-173 546h61l125 -408l32 -100l34 98l141 410h58l-267 -766h-55z" />
    <glyph glyph-name="z" unicode="z" horiz-adv-x="492" 
d="M38 0v57l340 437h-311v52h374v-53l-346 -441h350v-52h-407z" />
    <glyph glyph-name="braceleft" unicode="{" horiz-adv-x="307" 
d="M280 -219q-38 0 -66 4.5t-56 17t-43 40t-15 68.5q0 9 2 29l22 201q4 36 -22 70t-62 34v57q36 0 62 32.5t22 71.5l-22 210q-2 26 -1 37q9 121 179 121h12v-48h-18q-67 0 -96 -25.5t-22 -87.5l20 -184q7 -65 -17.5 -104t-72.5 -49v-2q103 -33 90 -152l-20 -186
q-6 -57 24.5 -82.5t93.5 -25.5h18v-47h-12z" />
    <glyph glyph-name="bar" unicode="|" horiz-adv-x="235" 
d="M90 -220v974h55v-974h-55z" />
    <glyph glyph-name="braceright" unicode="}" horiz-adv-x="307" 
d="M27 -219h-12v47h18q63 0 93.5 25.5t24.5 82.5l-20 186q-13 119 90 152v2q-48 10 -72.5 49t-17.5 104l20 184q7 62 -22 87.5t-96 25.5h-18v48h12q170 0 179 -121q1 -11 -1 -37l-22 -210q-4 -39 22 -71.5t62 -32.5v-57q-36 0 -62 -34t-22 -70l22 -201q2 -20 2 -29
q0 -41 -15 -68.5t-43 -40t-56 -17t-66 -4.5z" />
    <glyph glyph-name="asciitilde" unicode="~" horiz-adv-x="599" 
d="M414 295q-55 0 -121.5 30t-104.5 30q-41 0 -93 -29l-27 43q59 43 126 43q54 0 115 -31t105 -31q41 0 87 33l32 -38q-55 -50 -119 -50z" />
    <glyph glyph-name="uni00A0" unicode="&#xa0;" horiz-adv-x="271" 
 />
    <glyph glyph-name="exclamdown" unicode="&#xa1;" horiz-adv-x="244" 
d="M95 -162v422l2 126h50l2 -126v-422h-54zM88 474v71h69v-71h-69z" />
    <glyph glyph-name="cent" unicode="&#xa2;" horiz-adv-x="468" 
d="M247 -41l3 75q-114 11 -159.5 73t-45.5 171q0 95 53.5 159.5t151.5 71.5l-3 81h64l-2 -80q26 -1 59 -11.5t45 -20.5l-18 -38q-52 24 -122 24q-80 0 -125.5 -46.5t-45.5 -142.5q0 -104 44.5 -149t158.5 -45q33 0 105 13l8 -45q-50 -14 -109 -17l3 -73h-65z" />
    <glyph glyph-name="sterling" unicode="&#xa3;" horiz-adv-x="465" 
d="M58 0v54q40 16 62.5 65.5t22.5 94.5h-100v51h101q1 21 0 55.5t-1 41.5q0 48 12.5 82.5t32 55t51.5 33t64 17t77 6.5l5 -49q-38 -3 -60.5 -6.5t-50.5 -13t-43 -24.5t-24.5 -41.5t-7.5 -63.5q1 -18 1 -44v-49h185v-51h-187q0 -48 -21.5 -94t-52.5 -70h296v-50h-362z" />
    <glyph glyph-name="currency" unicode="&#xa4;" horiz-adv-x="543" 
d="M96 144l-33 34l72 70q-33 42 -33 104q0 66 32 104l-71 71l33 32l70 -70q53 34 105 34q63 0 105 -32l69 70l34 -35l-70 -70q32 -35 32 -104t-34 -106l70 -70l-31 -34l-70 70q-51 -30 -105 -30q-60 0 -103 32zM271 229q60 0 91.5 34t31.5 89q1 54 -31.5 89t-91.5 35
t-91.5 -35t-32.5 -89q0 -53 33 -88t91 -35z" />
    <glyph glyph-name="yen" unicode="&#xa5;" horiz-adv-x="611" 
d="M546 546l-129 -235h131v-50h-159l-37 -67l-23 -43h219v-50h-219v-101h-58v101h-208v51h208l-21 42l-35 67h-152v50h125l-123 235h64l173 -339l183 339h61z" />
    <glyph glyph-name="brokenbar" unicode="&#xa6;" horiz-adv-x="276" 
d="M110 -220v362h56v-362h-56zM110 392v361h56v-361h-56z" />
    <glyph glyph-name="section" unicode="&#xa7;" horiz-adv-x="573" 
d="M150 -57q-59 0 -111 39l25 52q52 -38 89 -38q30 0 43.5 27t13.5 60q0 30 -15 124l-8 48q-10 64 -10 100q0 121 56.5 183t163.5 62q78 0 137 -38l-23 -55q-68 39 -124 39q-50 0 -50 -75q0 -47 6 -72l17 -69q16 -67 16 -145q0 -104 -61 -173t-165 -69zM240 11q81 59 81 161
q0 51 -11 104l-17 81q-10 47 -10 101q0 49 14 77q-66 -40 -66 -154q0 -47 9 -92l15 -79q11 -55 11 -110q0 -22 -4.5 -39.5t-8 -24.5t-13.5 -25z" />
    <glyph glyph-name="dieresis" unicode="&#xa8;" horiz-adv-x="402" 
d="M108 669l-46 47l46 46l46 -46zM292 669l-46 47l46 46l47 -46z" />
    <glyph glyph-name="copyright" unicode="&#xa9;" horiz-adv-x="827" 
d="M441 73q-102 0 -157.5 57t-55.5 150q0 99 54 155.5t157 56.5q71 0 117 -27l-18 -39q-48 22 -98 22q-70 0 -116 -41t-46 -122q0 -82 49.5 -124.5t125.5 -42.5q37 0 93 17l15 -38q-58 -24 -120 -24zM405 -94q-161 0 -253 102t-92 267q0 167 100.5 266t263.5 99
q164 0 253.5 -102.5t89.5 -264.5q0 -166 -97 -266.5t-265 -100.5zM408 -44q148 0 225.5 88.5t77.5 229.5q0 139 -78.5 227.5t-217.5 88.5q-143 0 -220.5 -87.5t-77.5 -226.5q0 -87 31 -158t98.5 -116.5t161.5 -45.5z" />
    <glyph glyph-name="ordfeminine" unicode="&#xaa;" horiz-adv-x="434" 
d="M175 385q-42 0 -65 23.5t-23 67.5q0 93 118 95l76 2v42q0 36 -17.5 47.5t-62.5 11.5q-12 0 -25 -2.5t-28.5 -6.5t-24.5 -6l-10 37q44 19 101 19q110 0 110 -86v-175q0 -29 31 -29l-3 -38q-25 -2 -46.5 7.5t-24.5 32.5q-49 -42 -106 -42zM185 425q37 0 96 42v69l-74 -4
q-77 -3 -77 -52q0 -55 55 -55zM72 304v45h295v-45h-295z" />
    <glyph glyph-name="guillemotleft" unicode="&#xab;" horiz-adv-x="430" 
d="M157 54l-101 218l101 218l47 -17l-86 -201l85 -199zM323 54l-101 218l102 218l46 -17l-86 -201l85 -199z" />
    <glyph glyph-name="logicalnot" unicode="&#xac;" horiz-adv-x="630" 
d="M490 119v158h-412v51h466v-209h-54z" />
    <glyph glyph-name="registered" unicode="&#xae;" horiz-adv-x="556" 
d="M505 532q0 -102 -63.5 -160t-161.5 -58q-41 0 -79.5 11.5t-73 35.5t-55.5 68t-21 103q0 103 64.5 162.5t163.5 59.5q93 0 159.5 -55t66.5 -167zM462 532q0 89 -53.5 135.5t-128.5 46.5q-80 0 -132 -44.5t-52 -133.5q0 -45 14 -79t34.5 -53t48 -31t49.5 -15.5t43 -3.5
q77 0 127 47t50 131zM398 450l-5 -29q-46 0 -70 27q-25 25 -53 70q-6 -1 -21 -1h-14v-91h-41v238h86q79 0 79 -72q0 -49 -46 -68q2 -3 9.5 -13.5t14.5 -19.5t14 -16t14 -11.5t18.5 -8.5t14.5 -5zM320 590q0 23 -11 32.5t-38 9.5h-36v-83h31q54 0 54 41z" />
    <glyph glyph-name="macron" unicode="&#xaf;" horiz-adv-x="536" 
d="M139 674v48h251v-48h-251z" />
    <glyph glyph-name="degree" unicode="&#xb0;" horiz-adv-x="415" 
d="M204 404q-74 0 -113 40t-39 118q0 68 43.5 111.5t112.5 43.5q73 0 114.5 -40.5t41.5 -114.5q0 -73 -43.5 -115.5t-116.5 -42.5zM207 446q50 0 77 30.5t27 85.5q0 52 -27.5 83t-76.5 31q-48 0 -75.5 -30.5t-27.5 -83.5q0 -56 28.5 -86t74.5 -30z" />
    <glyph glyph-name="plusminus" unicode="&#xb1;" horiz-adv-x="559" 
d="M251 123v189h-189v52h189v190h57v-190h189v-52h-189v-189h-57zM62 0v52h435v-52h-435z" />
    <glyph glyph-name="twosuperior" unicode="&#xb2;" horiz-adv-x="307" 
d="M18 415v45q16 12 51.5 37.5t50 37t39 32.5t34.5 35.5t18.5 34t8.5 38.5q0 32 -19.5 49t-49.5 17q-58 0 -93 -37l-26 31q21 23 54.5 37t66.5 14q49 0 83.5 -27.5t34.5 -79.5q0 -17 -3 -33t-12 -31.5t-15 -27t-22.5 -26.5t-23.5 -22.5t-28 -22.5t-26.5 -19t-29 -19.5
t-26.5 -17.5h192v-45h-259z" />
    <glyph glyph-name="threesuperior" unicode="&#xb3;" horiz-adv-x="300" 
d="M135 410q-59 0 -104 16l12 41q51 -14 87 -14q93 0 93 60q0 40 -28 55t-88 20v36q99 9 99 70q0 24 -19.5 37t-49.5 13q-33 0 -69 -17l-15 33q45 26 94 26q45 0 77 -24t32 -61q0 -29 -17 -53.5t-49 -36.5q41 -7 63.5 -34t22.5 -60q0 -55 -41.5 -81t-99.5 -26z" />
    <glyph glyph-name="acute" unicode="&#xb4;" horiz-adv-x="564" 
d="M211 623l-23 35l175 130l29 -40z" />
    <glyph glyph-name="mu" unicode="&#xb5;" horiz-adv-x="607" 
d="M87 -220v766h55v-334q0 -34 1 -52.5t7 -44.5t17.5 -39.5t34 -23.5t54.5 -10q21 0 43.5 6t44 17.5t35.5 19.5t32 21t19 13v427h55v-444q0 -40 19.5 -53.5t62.5 -8.5v-46q-24 -4 -48 -4q-83 0 -88 76q-2 -1 -13.5 -10t-14.5 -11t-14 -10t-16 -10.5t-16.5 -9t-19 -9
t-19.5 -7t-22.5 -6t-23.5 -3t-26 -1.5q-64 0 -104 33v-242h-55z" />
    <glyph glyph-name="paragraph" unicode="&#xb6;" horiz-adv-x="579" 
d="M320 -220q-40 0 -58 9l11 51q30 -5 48 -5q65 0 90 37t25 107v728h56v-729q0 -110 -45.5 -154t-126.5 -44zM269 280q-229 0 -229 217q0 101 53 155.5t156 54.5h81v-427h-61z" />
    <glyph glyph-name="periodcentered" unicode="&#xb7;" horiz-adv-x="237" 
d="M118 293l-53 55l53 54l55 -54z" />
    <glyph glyph-name="cedilla" unicode="&#xb8;" horiz-adv-x="449" 
d="M198 -229l-18 31q54 33 54 79q0 25 -26 68h62q20 -32 20 -63q2 -75 -92 -115z" />
    <glyph glyph-name="onesuperior" unicode="&#xb9;" horiz-adv-x="256" 
d="M123 415v323h-93v42l146 4v-369h-53z" />
    <glyph glyph-name="ordmasculine" unicode="&#xba;" horiz-adv-x="441" 
d="M217 384q-67 0 -103 42.5t-36 120.5q0 80 39 125t104 45q142 0 142 -167q0 -80 -40.5 -123t-105.5 -43zM221 426q92 0 92 124q0 125 -93 125t-93 -126q0 -123 94 -123zM73 304v45h295v-45h-295z" />
    <glyph glyph-name="guillemotright" unicode="&#xbb;" horiz-adv-x="430" 
d="M107 54l-46 19l85 199l-86 201l47 17l101 -218zM273 54l-46 19l85 199l-86 201l47 17l101 -218z" />
    <glyph glyph-name="onequarter" unicode="&#xbc;" horiz-adv-x="740" 
d="M150 415v323h-93v42l146 4v-369h-53zM86 80l-34 34l522 533l32 -33zM574 0v91h-171v49l140 225h84v-231h65v-43h-65v-91h-53zM448 134h126v201z" />
    <glyph glyph-name="onehalf" unicode="&#xbd;" horiz-adv-x="736" 
d="M150 415v323h-93v42l146 4v-369h-53zM404 0v45q16 12 51.5 37.5t50 37t39 32.5t34.5 35.5t18.5 34t8.5 38.5q0 32 -19.5 49t-49.5 17q-58 0 -93 -37l-26 31q21 23 54.5 37t66.5 14q49 0 83.5 -27.5t34.5 -79.5q0 -17 -3 -33t-12 -31.5t-15 -27t-22.5 -26.5t-23.5 -22.5
t-28 -22.5t-26.5 -19t-29 -19.5t-26.5 -17.5h192v-45h-259zM76 80l-34 34l522 533l32 -33z" />
    <glyph glyph-name="threequarters" unicode="&#xbe;" horiz-adv-x="749" 
d="M160 410q-59 0 -104 16l12 41q51 -14 87 -14q93 0 93 60q0 40 -28 55t-88 20v36q99 9 99 70q0 24 -19.5 37t-49.5 13q-33 0 -69 -17l-15 33q45 26 94 26q45 0 77 -24t32 -61q0 -29 -17 -53.5t-49 -36.5q41 -7 63.5 -34t22.5 -60q0 -55 -41.5 -81t-99.5 -26zM105 80
l-34 34l522 533l32 -33zM583 0v91h-171v49l140 225h84v-231h65v-43h-65v-91h-53zM457 134h126v201z" />
    <glyph glyph-name="questiondown" unicode="&#xbf;" horiz-adv-x="332" 
d="M280 -164q-44 4 -84 15t-76.5 31.5t-58 56.5t-21.5 82q0 40 28 78.5t61 64.5t61 61t28 70q0 12 -9.5 41t-16.5 43l50 10q29 -58 29 -92q0 -47 -27.5 -87.5t-60 -65t-60 -57t-27.5 -65.5t19 -59t50 -41.5t62.5 -24t64.5 -11.5zM191 475v71h69v-71h-69z" />
    <glyph glyph-name="Agrave" unicode="&#xc0;" horiz-adv-x="658" 
d="M378 748l-211 69l20 51l208 -83zM4 0l295 707h77l262 -707h-66l-101 279h-290l-112 -279h-65zM201 330h252l-120 331z" />
    <glyph glyph-name="Aacute" unicode="&#xc1;" horiz-adv-x="658" 
d="M278 748l-15 35l205 89l20 -50zM4 0l295 707h77l262 -707h-66l-101 279h-290l-112 -279h-65zM201 330h252l-120 331z" />
    <glyph glyph-name="Acircumflex" unicode="&#xc2;" horiz-adv-x="658" 
d="M210 753l-19 39l148 71l141 -68l-21 -41l-121 55zM4 0l295 707h77l262 -707h-66l-101 279h-290l-112 -279h-65zM201 330h252l-120 331z" />
    <glyph glyph-name="Atilde" unicode="&#xc3;" horiz-adv-x="658" 
d="M4 0l295 707h77l262 -707h-66l-101 279h-290l-112 -279h-65zM201 330h252l-120 331zM401 754q-20 0 -60 18.5t-58 18.5q-35 0 -69 -24l-22 38q41 36 88 36q25 0 64.5 -18.5t54.5 -18.5q37 0 58 26l24 -36q-29 -40 -80 -40z" />
    <glyph glyph-name="Adieresis" unicode="&#xc4;" horiz-adv-x="658" 
d="M240 750l-46 47l46 46l46 -46zM424 750l-46 47l46 46l47 -46zM4 0l295 707h77l262 -707h-66l-101 279h-290l-112 -279h-65zM201 330h252l-120 331z" />
    <glyph glyph-name="Aring" unicode="&#xc5;" horiz-adv-x="658" 
d="M4 0l295 707h77l262 -707h-66l-101 279h-290l-112 -279h-65zM201 330h252l-120 331zM339 745q-38 0 -64 21t-26 60t25.5 61t62.5 22q35 0 62 -20t27 -61q0 -38 -24.5 -60.5t-62.5 -22.5zM338 775q24 0 38.5 14t14.5 38q0 23 -16 38t-38 15q-24 0 -39 -13.5t-15 -37.5
t15.5 -39t39.5 -15z" />
    <glyph glyph-name="AE" unicode="&#xc6;" horiz-adv-x="896" 
d="M-11 0l387 707h436v-49h-319v-277h297v-52h-297v-278h343v-51h-402v329h-202l-177 -329h-66zM260 381h174v277h-25z" />
    <glyph glyph-name="Ccedilla" unicode="&#xc7;" horiz-adv-x="676" 
d="M374 -229l-18 31q54 33 54 79q0 25 -26 68h62q20 -32 20 -63q2 -75 -92 -115zM426 -12q-166 0 -263.5 101.5t-97.5 259.5q0 165 95.5 266.5t261.5 101.5q121 0 201 -39l-20 -51q-94 36 -179 36q-60 0 -111.5 -17t-94 -51.5t-67 -95t-24.5 -140.5q0 -83 25 -145.5
t69.5 -98.5t100 -54t120.5 -18q92 0 166 28l16 -49q-87 -34 -198 -34z" />
    <glyph glyph-name="Egrave" unicode="&#xc8;" horiz-adv-x="574" 
d="M379 748l-211 69l20 51l208 -83zM112 0v707h378v-49h-319v-277h297v-52h-297v-278h342v-51h-401z" />
    <glyph glyph-name="Eacute" unicode="&#xc9;" horiz-adv-x="574" 
d="M244 748l-15 35l205 89l20 -50zM112 0v707h378v-49h-319v-277h297v-52h-297v-278h342v-51h-401z" />
    <glyph glyph-name="Ecircumflex" unicode="&#xca;" horiz-adv-x="574" 
d="M176 753l-19 39l148 71l141 -68l-21 -41l-121 55zM112 0v707h378v-49h-319v-277h297v-52h-297v-278h342v-51h-401z" />
    <glyph glyph-name="Edieresis" unicode="&#xcb;" horiz-adv-x="574" 
d="M213 750l-46 47l46 46l46 -46zM397 750l-46 47l46 46l47 -46zM112 0v707h378v-49h-319v-277h297v-52h-297v-278h342v-51h-401z" />
    <glyph glyph-name="Igrave" unicode="&#xcc;" horiz-adv-x="283" 
d="M176 748l-211 69l20 51l208 -83zM112 0v707h59v-707h-59z" />
    <glyph glyph-name="Iacute" unicode="&#xcd;" horiz-adv-x="283" 
d="M106 748l-15 35l205 89l20 -50zM112 0v707h59v-707h-59z" />
    <glyph glyph-name="Icircumflex" unicode="&#xce;" horiz-adv-x="283" 
d="M18 753l-19 39l148 71l141 -68l-21 -41l-121 55zM112 0v707h59v-707h-59z" />
    <glyph glyph-name="Idieresis" unicode="&#xcf;" horiz-adv-x="283" 
d="M49 750l-46 47l46 46l46 -46zM233 750l-46 47l46 46l47 -46zM112 0v707h59v-707h-59z" />
    <glyph glyph-name="Eth" unicode="&#xd0;" horiz-adv-x="771" 
d="M57 326v53h81v328h174q177 0 284 -88t107 -263q0 -180 -102 -268t-283 -88h-180v326h-81zM197 51h132q145 0 228.5 75t83.5 219q0 154 -90 232.5t-242 78.5h-112v-277h177v-53h-177v-275z" />
    <glyph glyph-name="Ntilde" unicode="&#xd1;" horiz-adv-x="760" 
d="M452 754q-20 0 -60 18.5t-58 18.5q-35 0 -69 -24l-22 38q41 36 88 36q25 0 64.5 -18.5t54.5 -18.5q37 0 58 26l24 -36q-29 -40 -80 -40zM112 0v707h81l397 -648h2l-3 91v557h59v-707h-85l-394 640h-2l4 -67v-573h-59z" />
    <glyph glyph-name="Ograve" unicode="&#xd2;" horiz-adv-x="827" 
d="M488 748l-211 69l20 51l208 -83zM405 -12q-156 0 -247.5 102t-91.5 265q0 165 96.5 263.5t255.5 98.5q160 0 251.5 -102.5t91.5 -261.5q0 -163 -96.5 -264t-259.5 -101zM408 39q142 0 218 88t76 227q0 137 -77 224.5t-210 87.5q-138 0 -214.5 -87t-76.5 -223
q0 -134 75 -225.5t209 -91.5z" />
    <glyph glyph-name="Oacute" unicode="&#xd3;" horiz-adv-x="827" 
d="M326 748l-15 35l205 89l20 -50zM405 -12q-156 0 -247.5 102t-91.5 265q0 165 96.5 263.5t255.5 98.5q160 0 251.5 -102.5t91.5 -261.5q0 -163 -96.5 -264t-259.5 -101zM408 39q142 0 218 88t76 227q0 137 -77 224.5t-210 87.5q-138 0 -214.5 -87t-76.5 -223
q0 -134 75 -225.5t209 -91.5z" />
    <glyph glyph-name="Ocircumflex" unicode="&#xd4;" horiz-adv-x="827" 
d="M290 753l-19 39l148 71l141 -68l-21 -41l-121 55zM405 -12q-156 0 -247.5 102t-91.5 265q0 165 96.5 263.5t255.5 98.5q160 0 251.5 -102.5t91.5 -261.5q0 -163 -96.5 -264t-259.5 -101zM408 39q142 0 218 88t76 227q0 137 -77 224.5t-210 87.5q-138 0 -214.5 -87
t-76.5 -223q0 -134 75 -225.5t209 -91.5z" />
    <glyph glyph-name="Otilde" unicode="&#xd5;" horiz-adv-x="827" 
d="M484 754q-20 0 -60 18.5t-58 18.5q-35 0 -69 -24l-22 38q41 36 88 36q25 0 64.5 -18.5t54.5 -18.5q37 0 58 26l24 -36q-29 -40 -80 -40zM405 -12q-156 0 -247.5 102t-91.5 265q0 165 96.5 263.5t255.5 98.5q160 0 251.5 -102.5t91.5 -261.5q0 -163 -96.5 -264
t-259.5 -101zM408 39q142 0 218 88t76 227q0 137 -77 224.5t-210 87.5q-138 0 -214.5 -87t-76.5 -223q0 -134 75 -225.5t209 -91.5z" />
    <glyph glyph-name="Odieresis" unicode="&#xd6;" horiz-adv-x="827" 
d="M317 750l-46 47l46 46l46 -46zM501 750l-46 47l46 46l47 -46zM405 -12q-156 0 -247.5 102t-91.5 265q0 165 96.5 263.5t255.5 98.5q160 0 251.5 -102.5t91.5 -261.5q0 -163 -96.5 -264t-259.5 -101zM408 39q142 0 218 88t76 227q0 137 -77 224.5t-210 87.5
q-138 0 -214.5 -87t-76.5 -223q0 -134 75 -225.5t209 -91.5z" />
    <glyph glyph-name="multiply" unicode="&#xd7;" horiz-adv-x="554" 
d="M460 86l-186 186l-178 -177l-37 37l177 178l-176 176l36 35l176 -176l182 182l38 -37l-183 -183l186 -186z" />
    <glyph glyph-name="Oslash" unicode="&#xd8;" horiz-adv-x="859" 
d="M88 -26l-30 31l100 103q-76 97 -76 247q0 165 96.5 263.5t255.5 98.5q142 0 232 -84l99 102l32 -29l-101 -104q81 -99 81 -249q0 -163 -96.5 -264t-259.5 -101q-144 0 -234 88zM424 39q142 0 218 88t76 227q0 122 -62 206l-429 -443q76 -78 197 -78zM140 356
q0 -120 59 -205l428 442q-76 73 -196 73q-138 0 -214.5 -87t-76.5 -223z" />
    <glyph glyph-name="Ugrave" unicode="&#xd9;" horiz-adv-x="750" 
d="M430 748l-211 69l20 51l208 -83zM375 -12q-42 0 -78.5 6.5t-73 23.5t-62 44t-41.5 71t-16 102v472h59v-465q0 -201 212 -201q213 0 213 225v441h59v-445q0 -64 -17 -113.5t-44 -79t-64.5 -48.5t-73 -26t-73.5 -7z" />
    <glyph glyph-name="Uacute" unicode="&#xda;" horiz-adv-x="750" 
d="M316 748l-15 35l205 89l20 -50zM375 -12q-42 0 -78.5 6.5t-73 23.5t-62 44t-41.5 71t-16 102v472h59v-465q0 -201 212 -201q213 0 213 225v441h59v-445q0 -64 -17 -113.5t-44 -79t-64.5 -48.5t-73 -26t-73.5 -7z" />
    <glyph glyph-name="Ucircumflex" unicode="&#xdb;" horiz-adv-x="750" 
d="M255 753l-19 39l148 71l141 -68l-21 -41l-121 55zM375 -12q-42 0 -78.5 6.5t-73 23.5t-62 44t-41.5 71t-16 102v472h59v-465q0 -201 212 -201q213 0 213 225v441h59v-445q0 -64 -17 -113.5t-44 -79t-64.5 -48.5t-73 -26t-73.5 -7z" />
    <glyph glyph-name="Udieresis" unicode="&#xdc;" horiz-adv-x="750" 
d="M284 750l-46 47l46 46l46 -46zM468 750l-46 47l46 46l47 -46zM375 -12q-42 0 -78.5 6.5t-73 23.5t-62 44t-41.5 71t-16 102v472h59v-465q0 -201 212 -201q213 0 213 225v441h59v-445q0 -64 -17 -113.5t-44 -79t-64.5 -48.5t-73 -26t-73.5 -7z" />
    <glyph glyph-name="Yacute" unicode="&#xdd;" horiz-adv-x="577" 
d="M230 748l-15 35l205 89l20 -50zM257 0v279l-223 428h65l190 -374l203 374h61l-237 -430v-277h-59z" />
    <glyph glyph-name="Thorn" unicode="&#xde;" horiz-adv-x="594" 
d="M112 0v707h59v-138h161q217 0 217 -207q0 -98 -66.5 -156t-202.5 -58h-9v52h15q199 0 199 157q0 86 -42.5 124t-132.5 38h-138v-519h-60z" />
    <glyph glyph-name="germandbls" unicode="&#xdf;" horiz-adv-x="568" 
d="M89 -220v785q0 199 175 199q27 0 52 -6t50.5 -20.5t40.5 -44t15 -71.5q0 -34 -18.5 -68.5t-40 -57.5t-40 -49.5t-18.5 -47.5q0 -35 23.5 -62.5t57.5 -46t68 -38t57.5 -51t23.5 -72.5q0 -72 -46.5 -104.5t-112.5 -32.5q-86 0 -143 22l13 48q64 -20 120 -20q117 0 117 79
q0 35 -23.5 61t-57.5 43.5t-68 37t-57.5 53t-23.5 80.5q0 31 17.5 61t38 51t38 52.5t17.5 64.5q0 46 -27.5 68t-72.5 22q-71 0 -95.5 -38.5t-24.5 -112.5v-784h-55z" />
    <glyph glyph-name="agrave" unicode="&#xe0;" horiz-adv-x="541" 
d="M327 623l-180 125l30 44l176 -132zM201 -9q-70 0 -112 40.5t-42 112.5q0 47 19 80.5t51.5 50.5t64.5 24.5t68 8.5l139 3v79q0 71 -32 95.5t-113 24.5q-66 0 -134 -27l-14 46q70 31 164 31q86 0 134.5 -35.5t48.5 -109.5v-318q0 -31 19 -44t43 -13l-2 -44q-6 -2 -21 -2
q-33 0 -60 18.5t-30 53.5q-27 -22 -45 -34t-59 -26.5t-87 -14.5zM218 38q82 0 171 72v157l-144 -6q-69 -3 -106.5 -33.5t-37.5 -76.5q0 -113 117 -113z" />
    <glyph glyph-name="aacute" unicode="&#xe1;" horiz-adv-x="541" 
d="M213 623l-23 35l175 130l29 -40zM201 -9q-70 0 -112 40.5t-42 112.5q0 47 19 80.5t51.5 50.5t64.5 24.5t68 8.5l139 3v79q0 71 -32 95.5t-113 24.5q-66 0 -134 -27l-14 46q70 31 164 31q86 0 134.5 -35.5t48.5 -109.5v-318q0 -31 19 -44t43 -13l-2 -44q-6 -2 -21 -2
q-33 0 -60 18.5t-30 53.5q-27 -22 -45 -34t-59 -26.5t-87 -14.5zM218 38q82 0 171 72v157l-144 -6q-69 -3 -106.5 -33.5t-37.5 -76.5q0 -113 117 -113z" />
    <glyph glyph-name="acircumflex" unicode="&#xe2;" horiz-adv-x="541" 
d="M377 635l-117 82l-130 -83l-23 34l156 108l140 -105zM201 -9q-70 0 -112 40.5t-42 112.5q0 47 19 80.5t51.5 50.5t64.5 24.5t68 8.5l139 3v79q0 71 -32 95.5t-113 24.5q-66 0 -134 -27l-14 46q70 31 164 31q86 0 134.5 -35.5t48.5 -109.5v-318q0 -31 19 -44t43 -13
l-2 -44q-6 -2 -21 -2q-33 0 -60 18.5t-30 53.5q-27 -22 -45 -34t-59 -26.5t-87 -14.5zM218 38q82 0 171 72v157l-144 -6q-69 -3 -106.5 -33.5t-37.5 -76.5q0 -113 117 -113z" />
    <glyph glyph-name="atilde" unicode="&#xe3;" horiz-adv-x="541" 
d="M330 648q-23 0 -62 18.5t-61 18.5q-37 0 -68 -24l-23 38l5 4q5 4 9.5 7.5t13 8t17.5 7.5t22.5 5.5t27.5 2.5q26 0 65 -18t58 -18q38 0 66 28l24 -36q-36 -42 -94 -42zM201 -9q-70 0 -112 40.5t-42 112.5q0 47 19 80.5t51.5 50.5t64.5 24.5t68 8.5l139 3v79q0 71 -32 95.5
t-113 24.5q-66 0 -134 -27l-14 46q70 31 164 31q86 0 134.5 -35.5t48.5 -109.5v-318q0 -31 19 -44t43 -13l-2 -44q-6 -2 -21 -2q-33 0 -60 18.5t-30 53.5q-27 -22 -45 -34t-59 -26.5t-87 -14.5zM218 38q82 0 171 72v157l-144 -6q-69 -3 -106.5 -33.5t-37.5 -76.5
q0 -113 117 -113z" />
    <glyph glyph-name="adieresis" unicode="&#xe4;" horiz-adv-x="541" 
d="M172 669l-46 47l46 46l46 -46zM356 669l-46 47l46 46l47 -46zM201 -9q-70 0 -112 40.5t-42 112.5q0 47 19 80.5t51.5 50.5t64.5 24.5t68 8.5l139 3v79q0 71 -32 95.5t-113 24.5q-66 0 -134 -27l-14 46q70 31 164 31q86 0 134.5 -35.5t48.5 -109.5v-318q0 -31 19 -44
t43 -13l-2 -44q-6 -2 -21 -2q-33 0 -60 18.5t-30 53.5q-27 -22 -45 -34t-59 -26.5t-87 -14.5zM218 38q82 0 171 72v157l-144 -6q-69 -3 -106.5 -33.5t-37.5 -76.5q0 -113 117 -113z" />
    <glyph glyph-name="aring" unicode="&#xe5;" horiz-adv-x="541" 
d="M282 621q-43 0 -72 23.5t-29 67.5q0 43 29.5 68.5t69.5 25.5q39 0 69.5 -23t30.5 -69q0 -43 -27.5 -68t-70.5 -25zM281 655q27 0 43.5 15.5t16.5 42.5q0 26 -18 42.5t-43 16.5q-27 0 -43.5 -15t-16.5 -42t17 -43.5t44 -16.5zM201 -9q-70 0 -112 40.5t-42 112.5
q0 47 19 80.5t51.5 50.5t64.5 24.5t68 8.5l139 3v79q0 71 -32 95.5t-113 24.5q-66 0 -134 -27l-14 46q70 31 164 31q86 0 134.5 -35.5t48.5 -109.5v-318q0 -31 19 -44t43 -13l-2 -44q-6 -2 -21 -2q-33 0 -60 18.5t-30 53.5q-27 -22 -45 -34t-59 -26.5t-87 -14.5zM218 38
q82 0 171 72v157l-144 -6q-69 -3 -106.5 -33.5t-37.5 -76.5q0 -113 117 -113z" />
    <glyph glyph-name="ae" unicode="&#xe6;" horiz-adv-x="859" 
d="M633 -9q-153 0 -214 98q-2 -2 -18.5 -13.5t-29.5 -20t-36 -21.5t-43.5 -21.5t-47 -14.5t-51.5 -6q-69 0 -107.5 39.5t-38.5 112.5q0 38 13.5 67t33.5 46.5t48.5 29t54 16t53.5 5.5l138 3v83q0 73 -33 95t-117 22q-22 0 -49 -5t-52.5 -12t-26.5 -7l-12 43q17 8 63.5 18.5
t98.5 10.5q141 0 174 -88q61 88 185 88q182 0 182 -257v-23l-361 -15q1 -70 17 -115.5t47.5 -68t66 -30.5t86.5 -8q58 0 128 20l11 -48q-48 -23 -163 -23zM210 40q35 0 96.5 30.5t96.5 56.5q-16 50 -18 137l-137 -4q-73 -2 -111 -32.5t-38 -76.5q0 -63 29 -87t82 -24z
M442 312l301 15q0 86 -35 137.5t-101 51.5t-112.5 -50.5t-52.5 -153.5z" />
    <glyph glyph-name="ccedilla" unicode="&#xe7;" horiz-adv-x="488" 
d="M325 -12q-138 0 -202.5 68t-64.5 216q0 133 66 210.5t178 77.5q83 0 142 -32l-19 -47q-64 28 -127 28q-85 0 -134 -62t-49 -171q0 -124 49 -180.5t169 -56.5q45 0 102 17l10 -47q-54 -21 -120 -21zM255 -229l-18 31q54 33 54 79q0 25 -26 68h62q20 -32 20 -63
q2 -75 -92 -115z" />
    <glyph glyph-name="egrave" unicode="&#xe8;" horiz-adv-x="535" 
d="M340 623l-180 125l30 44l176 -132zM307 -12q-121 0 -184.5 63t-63.5 212t63.5 223t167.5 74q188 0 188 -272v-20h-362q1 -72 17 -119t47.5 -70t66 -31.5t84.5 -8.5q61 0 129 26l11 -48q-65 -29 -164 -29zM116 314h303q0 94 -34.5 146.5t-103.5 52.5t-113 -50.5
t-52 -148.5z" />
    <glyph glyph-name="eacute" unicode="&#xe9;" horiz-adv-x="535" 
d="M226 623l-23 35l175 130l29 -40zM307 -12q-121 0 -184.5 63t-63.5 212t63.5 223t167.5 74q188 0 188 -272v-20h-362q1 -72 17 -119t47.5 -70t66 -31.5t84.5 -8.5q61 0 129 26l11 -48q-65 -29 -164 -29zM116 314h303q0 94 -34.5 146.5t-103.5 52.5t-113 -50.5t-52 -148.5z
" />
    <glyph glyph-name="ecircumflex" unicode="&#xea;" horiz-adv-x="535" 
d="M391 635l-117 82l-130 -83l-23 34l156 108l140 -105zM307 -12q-121 0 -184.5 63t-63.5 212t63.5 223t167.5 74q188 0 188 -272v-20h-362q1 -72 17 -119t47.5 -70t66 -31.5t84.5 -8.5q61 0 129 26l11 -48q-65 -29 -164 -29zM116 314h303q0 94 -34.5 146.5t-103.5 52.5
t-113 -50.5t-52 -148.5z" />
    <glyph glyph-name="edieresis" unicode="&#xeb;" horiz-adv-x="535" 
d="M182 669l-46 47l46 46l46 -46zM366 669l-46 47l46 46l47 -46zM307 -12q-121 0 -184.5 63t-63.5 212t63.5 223t167.5 74q188 0 188 -272v-20h-362q1 -72 17 -119t47.5 -70t66 -31.5t84.5 -8.5q61 0 129 26l11 -48q-65 -29 -164 -29zM116 314h303q0 94 -34.5 146.5
t-103.5 52.5t-113 -50.5t-52 -148.5z" />
    <glyph glyph-name="igrave" unicode="&#xec;" horiz-adv-x="235" 
d="M152 623l-180 125l30 44l176 -132zM89 0v546h57v-546h-57z" />
    <glyph glyph-name="iacute" unicode="&#xed;" horiz-adv-x="235" 
d="M68 623l-23 35l175 130l29 -40zM89 0v546h57v-546h-57z" />
    <glyph glyph-name="icircumflex" unicode="&#xee;" horiz-adv-x="235" 
d="M236 635l-117 82l-130 -83l-23 34l156 108l140 -105zM89 0v546h57v-546h-57z" />
    <glyph glyph-name="idieresis" unicode="&#xef;" horiz-adv-x="235" 
d="M25 669l-46 47l46 46l46 -46zM209 669l-46 47l46 46l47 -46zM89 0v546h57v-546h-57z" />
    <glyph glyph-name="eth" unicode="&#xf0;" horiz-adv-x="603" 
d="M294 -8q-110 0 -172.5 71t-62.5 204q0 138 66.5 209.5t174.5 71.5q74 0 130 -41q-37 81 -104 141l-103 -68l-27 36l93 62q-36 27 -87 52l33 39q70 -36 102 -60l105 70l26 -36l-94 -63q158 -140 158 -395q0 -135 -59.5 -214t-178.5 -79zM299 39q41 0 72.5 13.5t51 35.5
t32 52.5t17 62t4.5 67.5q0 46 -8.5 84.5t-27.5 73t-55.5 54t-87.5 19.5t-88 -20t-56.5 -55t-28 -72.5t-8.5 -81.5q0 -101 43 -167t140 -66z" />
    <glyph glyph-name="ntilde" unicode="&#xf1;" horiz-adv-x="589" 
d="M362 648q-23 0 -62 18.5t-61 18.5q-37 0 -68 -24l-23 38l5 4q5 4 9.5 7.5t13 8t17.5 7.5t22.5 5.5t27.5 2.5q26 0 65 -18t58 -18q38 0 66 28l24 -36q-36 -42 -94 -42zM89 0v546h55v-64q51 38 94.5 58t99.5 20q45 0 77.5 -14t49.5 -33t26 -49.5t11 -53.5t2 -55v-355h-53
v339q0 87 -23.5 129t-100.5 42q-78 0 -183 -78v-432h-55z" />
    <glyph glyph-name="ograve" unicode="&#xf2;" horiz-adv-x="589" 
d="M361 623l-180 125l30 44l176 -132zM293 -12q-110 0 -172.5 72.5t-62.5 206.5q0 139 67 216t174 77q115 0 173.5 -74t58.5 -213t-65.5 -212t-172.5 -73zM298 35q51 0 87 20.5t55 56.5t27 75.5t8 85.5q0 43 -8 82t-26.5 76.5t-55.5 59.5t-89 22q-51 0 -88 -22t-56.5 -59
t-28 -76.5t-8.5 -83.5q0 -47 9.5 -87.5t29.5 -75t57 -54.5t87 -20z" />
    <glyph glyph-name="oacute" unicode="&#xf3;" horiz-adv-x="589" 
d="M233 623l-23 35l175 130l29 -40zM293 -12q-110 0 -172.5 72.5t-62.5 206.5q0 139 67 216t174 77q115 0 173.5 -74t58.5 -213t-65.5 -212t-172.5 -73zM298 35q51 0 87 20.5t55 56.5t27 75.5t8 85.5q0 43 -8 82t-26.5 76.5t-55.5 59.5t-89 22q-51 0 -88 -22t-56.5 -59
t-28 -76.5t-8.5 -83.5q0 -47 9.5 -87.5t29.5 -75t57 -54.5t87 -20z" />
    <glyph glyph-name="ocircumflex" unicode="&#xf4;" horiz-adv-x="589" 
d="M411 635l-117 82l-130 -83l-23 34l156 108l140 -105zM293 -12q-110 0 -172.5 72.5t-62.5 206.5q0 139 67 216t174 77q115 0 173.5 -74t58.5 -213t-65.5 -212t-172.5 -73zM298 35q51 0 87 20.5t55 56.5t27 75.5t8 85.5q0 43 -8 82t-26.5 76.5t-55.5 59.5t-89 22
q-51 0 -88 -22t-56.5 -59t-28 -76.5t-8.5 -83.5q0 -47 9.5 -87.5t29.5 -75t57 -54.5t87 -20z" />
    <glyph glyph-name="otilde" unicode="&#xf5;" horiz-adv-x="589" 
d="M354 648q-23 0 -62 18.5t-61 18.5q-36 0 -68 -24l-23 38l5 4q5 4 9.5 7.5t13 8t17.5 7.5t22.5 5.5t27.5 2.5q26 0 65 -18t58 -18q38 0 66 28l24 -36q-36 -42 -94 -42zM293 -12q-110 0 -172.5 72.5t-62.5 206.5q0 139 67 216t174 77q115 0 173.5 -74t58.5 -213t-65.5 -212
t-172.5 -73zM298 35q51 0 87 20.5t55 56.5t27 75.5t8 85.5q0 43 -8 82t-26.5 76.5t-55.5 59.5t-89 22q-51 0 -88 -22t-56.5 -59t-28 -76.5t-8.5 -83.5q0 -47 9.5 -87.5t29.5 -75t57 -54.5t87 -20z" />
    <glyph glyph-name="odieresis" unicode="&#xf6;" horiz-adv-x="589" 
d="M201 669l-46 47l46 46l46 -46zM385 669l-46 47l46 46l47 -46zM293 -12q-110 0 -172.5 72.5t-62.5 206.5q0 139 67 216t174 77q115 0 173.5 -74t58.5 -213t-65.5 -212t-172.5 -73zM298 35q51 0 87 20.5t55 56.5t27 75.5t8 85.5q0 43 -8 82t-26.5 76.5t-55.5 59.5t-89 22
q-51 0 -88 -22t-56.5 -59t-28 -76.5t-8.5 -83.5q0 -47 9.5 -87.5t29.5 -75t57 -54.5t87 -20z" />
    <glyph glyph-name="divide" unicode="&#xf7;" horiz-adv-x="664" 
d="M293 74v65h64v-65h-64zM79 277v50h505v-50h-505zM293 469v66h64v-66h-64z" />
    <glyph glyph-name="oslash" unicode="&#xf8;" horiz-adv-x="614" 
d="M305 -12q-99 0 -160 59l-67 -80l-31 30l70 84q-47 72 -47 186q0 139 67 216t174 77q100 0 158 -58l60 71l32 -29l-64 -76q46 -71 46 -195q0 -139 -65.5 -212t-172.5 -73zM310 35q51 0 87 20.5t55 56.5t27 75.5t8 85.5q0 89 -29 148l-278 -332q47 -54 130 -54zM127 272
q0 -88 29 -145l277 332q-46 54 -125 54q-51 0 -88 -22t-56.5 -59t-28 -76.5t-8.5 -83.5z" />
    <glyph glyph-name="ugrave" unicode="&#xf9;" horiz-adv-x="584" 
d="M338 623l-180 125l30 44l176 -132zM244 -12q-43 0 -73.5 14t-47 33.5t-25.5 50.5t-11 54.5t-2 54.5v351h55v-334q0 -28 1 -44.5t4 -39t10.5 -36t19.5 -26.5t32 -19t47 -6q83 0 189 78v427h52v-546h-52v66q-36 -26 -57 -39t-60.5 -26t-81.5 -13z" />
    <glyph glyph-name="uacute" unicode="&#xfa;" horiz-adv-x="584" 
d="M250 623l-23 35l175 130l29 -40zM244 -12q-43 0 -73.5 14t-47 33.5t-25.5 50.5t-11 54.5t-2 54.5v351h55v-334q0 -28 1 -44.5t4 -39t10.5 -36t19.5 -26.5t32 -19t47 -6q83 0 189 78v427h52v-546h-52v66q-36 -26 -57 -39t-60.5 -26t-81.5 -13z" />
    <glyph glyph-name="ucircumflex" unicode="&#xfb;" horiz-adv-x="584" 
d="M411 635l-117 82l-130 -83l-23 34l156 108l140 -105zM244 -12q-43 0 -73.5 14t-47 33.5t-25.5 50.5t-11 54.5t-2 54.5v351h55v-334q0 -28 1 -44.5t4 -39t10.5 -36t19.5 -26.5t32 -19t47 -6q83 0 189 78v427h52v-546h-52v66q-36 -26 -57 -39t-60.5 -26t-81.5 -13z" />
    <glyph glyph-name="udieresis" unicode="&#xfc;" horiz-adv-x="584" 
d="M198 669l-46 47l46 46l46 -46zM382 669l-46 47l46 46l47 -46zM244 -12q-43 0 -73.5 14t-47 33.5t-25.5 50.5t-11 54.5t-2 54.5v351h55v-334q0 -28 1 -44.5t4 -39t10.5 -36t19.5 -26.5t32 -19t47 -6q83 0 189 78v427h52v-546h-52v66q-36 -26 -57 -39t-60.5 -26t-81.5 -13z
" />
    <glyph glyph-name="yacute" unicode="&#xfd;" horiz-adv-x="488" 
d="M200 623l-23 35l175 130l29 -40zM151 -220l75 220h-31l-173 546h61l125 -408l32 -100l34 98l141 410h58l-267 -766h-55z" />
    <glyph glyph-name="thorn" unicode="&#xfe;" horiz-adv-x="577" 
d="M89 -220v974h53v-254q80 54 159 54q103 0 160 -71.5t57 -195.5q0 -82 -20.5 -142t-56.5 -92.5t-79 -47.5t-95 -15q-73 0 -125 9v-219h-53zM270 39q92 0 140.5 62t48.5 162q0 40 -3.5 71.5t-14 64.5t-28 55.5t-48.5 36.5t-72 14q-39 0 -85 -21t-66 -37v-396
q81 -12 128 -12z" />
    <glyph glyph-name="ydieresis" unicode="&#xff;" horiz-adv-x="488" 
d="M148 669l-46 47l46 46l46 -46zM332 669l-46 47l46 46l47 -46zM151 -220l75 220h-31l-173 546h61l125 -408l32 -100l34 98l141 410h58l-267 -766h-55z" />
    <glyph glyph-name="Amacron" unicode="&#x100;" horiz-adv-x="658" 
d="M209 790v48h251v-48h-251zM4 0l295 707h77l262 -707h-66l-101 279h-290l-112 -279h-65zM201 330h252l-120 331z" />
    <glyph glyph-name="amacron" unicode="&#x101;" horiz-adv-x="541" 
d="M152 675v48h251v-48h-251zM201 -9q-70 0 -112 40.5t-42 112.5q0 47 19 80.5t51.5 50.5t64.5 24.5t68 8.5l139 3v79q0 71 -32 95.5t-113 24.5q-66 0 -134 -27l-14 46q70 31 164 31q86 0 134.5 -35.5t48.5 -109.5v-318q0 -31 19 -44t43 -13l-2 -44q-6 -2 -21 -2
q-33 0 -60 18.5t-30 53.5q-27 -22 -45 -34t-59 -26.5t-87 -14.5zM218 38q82 0 171 72v157l-144 -6q-69 -3 -106.5 -33.5t-37.5 -76.5q0 -113 117 -113z" />
    <glyph glyph-name="Abreve" unicode="&#x102;" horiz-adv-x="658" 
d="M331 752q-48 0 -83.5 22.5t-52.5 55.5l32 29q43 -59 107 -59q74 0 106 58l31 -26q-17 -31 -52.5 -55.5t-87.5 -24.5zM4 0l295 707h77l262 -707h-66l-101 279h-290l-112 -279h-65zM201 330h252l-120 331z" />
    <glyph glyph-name="abreve" unicode="&#x103;" horiz-adv-x="541" 
d="M275 653q-48 0 -83.5 22.5t-52.5 55.5l32 29q43 -59 107 -59q74 0 106 58l31 -26q-17 -31 -52.5 -55.5t-87.5 -24.5zM201 -9q-70 0 -112 40.5t-42 112.5q0 47 19 80.5t51.5 50.5t64.5 24.5t68 8.5l139 3v79q0 71 -32 95.5t-113 24.5q-66 0 -134 -27l-14 46q70 31 164 31
q86 0 134.5 -35.5t48.5 -109.5v-318q0 -31 19 -44t43 -13l-2 -44q-6 -2 -21 -2q-33 0 -60 18.5t-30 53.5q-27 -22 -45 -34t-59 -26.5t-87 -14.5zM218 38q82 0 171 72v157l-144 -6q-69 -3 -106.5 -33.5t-37.5 -76.5q0 -113 117 -113z" />
    <glyph glyph-name="Aogonek" unicode="&#x104;" horiz-adv-x="658" 
d="M655 -204q-19 -13 -71 -13q-108 0 -108 100q0 63 93 124l-98 272h-290l-112 -279h-65l295 707h77l262 -707q-106 -65 -106 -114q0 -31 17.5 -42.5t52.5 -11.5q30 0 38 8zM453 330l-70 193l-50 138l-56 -141l-76 -190h252z" />
    <glyph glyph-name="aogonek" unicode="&#x105;" horiz-adv-x="535" 
d="M517 -204q-24 -16 -71 -16q-108 0 -108 103q0 63 93 124q-36 19 -39 59q-1 -1 -22.5 -17t-39 -27t-55 -21.5t-79.5 -10.5q-67 0 -108 41t-41 113q0 47 19 80.5t51.5 50.5t64.5 24.5t68 8.5l139 3v83q0 70 -34 93t-117 23q-45 0 -128 -26l-12 46q17 9 64 19.5t98 10.5
q183 0 183 -141v-320q0 -55 52 -60l-4 -39q-97 -72 -97 -119q0 -52 64 -52q28 0 44 11zM389 110v157l-144 -6q-69 -3 -106.5 -33.5t-37.5 -76.5q0 -112 109 -112q54 0 102 21.5t77 49.5z" />
    <glyph glyph-name="Cacute" unicode="&#x106;" horiz-adv-x="676" 
d="M339 748l-15 35l205 89l20 -50zM426 -12q-166 0 -263.5 101.5t-97.5 259.5q0 165 95.5 266.5t261.5 101.5q121 0 201 -39l-20 -51q-94 36 -179 36q-60 0 -111.5 -17t-94 -51.5t-67 -95t-24.5 -140.5q0 -83 25 -145.5t69.5 -98.5t100 -54t120.5 -18q92 0 166 28l16 -49
q-87 -34 -198 -34z" />
    <glyph glyph-name="cacute" unicode="&#x107;" horiz-adv-x="488" 
d="M235 623l-23 35l175 130l29 -40zM325 -12q-138 0 -202.5 68t-64.5 216q0 133 66 210.5t178 77.5q83 0 142 -32l-19 -47q-64 28 -127 28q-85 0 -134 -62t-49 -171q0 -124 49 -180.5t169 -56.5q45 0 102 17l10 -47q-54 -21 -120 -21z" />
    <glyph glyph-name="Ccircumflex" unicode="&#x108;" horiz-adv-x="676" 
d="M299 753l-19 39l148 71l141 -68l-21 -41l-121 55zM426 -12q-166 0 -263.5 101.5t-97.5 259.5q0 165 95.5 266.5t261.5 101.5q121 0 201 -39l-20 -51q-94 36 -179 36q-60 0 -111.5 -17t-94 -51.5t-67 -95t-24.5 -140.5q0 -83 25 -145.5t69.5 -98.5t100 -54t120.5 -18
q92 0 166 28l16 -49q-87 -34 -198 -34z" />
    <glyph glyph-name="ccircumflex" unicode="&#x109;" horiz-adv-x="488" 
d="M412 635l-117 82l-130 -83l-23 34l156 108l140 -105zM325 -12q-138 0 -202.5 68t-64.5 216q0 133 66 210.5t178 77.5q83 0 142 -32l-19 -47q-64 28 -127 28q-85 0 -134 -62t-49 -171q0 -124 49 -180.5t169 -56.5q45 0 102 17l10 -47q-54 -21 -120 -21z" />
    <glyph glyph-name="Cdotaccent" unicode="&#x10a;" horiz-adv-x="676" 
d="M475 816l-55 -55l-53 55l53 54zM426 -12q-166 0 -263.5 101.5t-97.5 259.5q0 165 95.5 266.5t261.5 101.5q121 0 201 -39l-20 -51q-94 36 -179 36q-60 0 -111.5 -17t-94 -51.5t-67 -95t-24.5 -140.5q0 -83 25 -145.5t69.5 -98.5t100 -54t120.5 -18q92 0 166 28l16 -49
q-87 -34 -198 -34z" />
    <glyph glyph-name="cdotaccent" unicode="&#x10b;" horiz-adv-x="488" 
d="M325 -12q-138 0 -202.5 68t-64.5 216q0 133 66 210.5t178 77.5q83 0 142 -32l-19 -47q-64 28 -127 28q-85 0 -134 -62t-49 -171q0 -124 49 -180.5t169 -56.5q45 0 102 17l10 -47q-54 -21 -120 -21zM303 660l-53 55l53 54l55 -54z" />
    <glyph glyph-name="Ccaron" unicode="&#x10c;" horiz-adv-x="676" 
d="M574 815l-151 -68l-145 69l19 42l127 -57l130 56zM426 -12q-166 0 -263.5 101.5t-97.5 259.5q0 165 95.5 266.5t261.5 101.5q121 0 201 -39l-20 -51q-94 36 -179 36q-60 0 -111.5 -17t-94 -51.5t-67 -95t-24.5 -140.5q0 -83 25 -145.5t69.5 -98.5t100 -54t120.5 -18
q92 0 166 28l16 -49q-87 -34 -198 -34z" />
    <glyph glyph-name="ccaron" unicode="&#x10d;" horiz-adv-x="488" 
d="M292 630l-152 106l22 35l131 -84l132 85l22 -35zM325 -12q-138 0 -202.5 68t-64.5 216q0 133 66 210.5t178 77.5q83 0 142 -32l-19 -47q-64 28 -127 28q-85 0 -134 -62t-49 -171q0 -124 49 -180.5t169 -56.5q45 0 102 17l10 -47q-54 -21 -120 -21z" />
    <glyph glyph-name="Dcaron" unicode="&#x10e;" horiz-adv-x="745" 
d="M462 815l-151 -68l-145 69l19 42l127 -57l130 56zM112 0v707h174q177 0 284 -88t107 -263q0 -180 -102 -268t-283 -88h-180zM171 51h132q145 0 228.5 75t83.5 219q0 154 -90 232.5t-242 78.5h-112v-605z" />
    <glyph glyph-name="dcaron" unicode="&#x10f;" horiz-adv-x="599" 
d="M281 -11q-223 0 -223 279q0 138 71 215t178 77q64 0 118 -16v210h55v-754h-55v56q-69 -67 -144 -67zM281 38q39 0 80.5 24.5t63.5 47.5v383q-56 20 -119 20q-97 0 -144 -73t-47 -175q0 -113 44 -170t122 -57zM622 754l-38 -198h-43l21 198h60z" />
    <glyph glyph-name="Dcroat" unicode="&#x110;" horiz-adv-x="771" 
d="M57 326v53h81v328h174q177 0 284 -88t107 -263q0 -180 -102 -268t-283 -88h-180v326h-81zM197 51h132q145 0 228.5 75t83.5 219q0 154 -90 232.5t-242 78.5h-112v-277h177v-53h-177v-275z" />
    <glyph glyph-name="dcroat" unicode="&#x111;" horiz-adv-x="569" 
d="M268 625v43h157v86h55v-86h79v-43h-79v-625h-55v56q-68 -66 -143 -66q-224 0 -224 278q0 138 71 215t178 77q64 0 118 -16v81h-157zM281 38q61 0 144 72v383q-56 20 -119 20q-97 0 -144 -73t-47 -175q0 -113 44 -170t122 -57z" />
    <glyph glyph-name="Emacron" unicode="&#x112;" horiz-adv-x="574" 
d="M172 790v48h251v-48h-251zM112 0v707h378v-49h-319v-277h297v-52h-297v-278h342v-51h-401z" />
    <glyph glyph-name="emacron" unicode="&#x113;" horiz-adv-x="535" 
d="M153 675v48h251v-48h-251zM307 -12q-121 0 -184.5 63t-63.5 212t63.5 223t167.5 74q188 0 188 -272v-20h-362q1 -72 17 -119t47.5 -70t66 -31.5t84.5 -8.5q61 0 129 26l11 -48q-65 -29 -164 -29zM116 314h303q0 94 -34.5 146.5t-103.5 52.5t-113 -50.5t-52 -148.5z" />
    <glyph glyph-name="Ebreve" unicode="&#x114;" horiz-adv-x="574" 
d="M298 752q-48 0 -83.5 22.5t-52.5 55.5l32 29q43 -59 107 -59q74 0 106 58l31 -26q-17 -31 -52.5 -55.5t-87.5 -24.5zM112 0v707h378v-49h-319v-277h297v-52h-297v-278h342v-51h-401z" />
    <glyph glyph-name="ebreve" unicode="&#x115;" horiz-adv-x="535" 
d="M282 653q-48 0 -83.5 22.5t-52.5 55.5l32 29q43 -59 107 -59q74 0 106 58l31 -26q-17 -31 -52.5 -55.5t-87.5 -24.5zM307 -12q-121 0 -184.5 63t-63.5 212t63.5 223t167.5 74q188 0 188 -272v-20h-362q1 -72 17 -119t47.5 -70t66 -31.5t84.5 -8.5q61 0 129 26l11 -48
q-65 -29 -164 -29zM116 314h303q0 94 -34.5 146.5t-103.5 52.5t-113 -50.5t-52 -148.5z" />
    <glyph glyph-name="Edotaccent" unicode="&#x116;" horiz-adv-x="574" 
d="M365 816l-55 -55l-53 55l53 54zM112 0v707h378v-49h-319v-277h297v-52h-297v-278h342v-51h-401z" />
    <glyph glyph-name="edotaccent" unicode="&#x117;" horiz-adv-x="535" 
d="M307 -12q-121 0 -184.5 63t-63.5 212t63.5 223t167.5 74q188 0 188 -272v-20h-362q1 -72 17 -119t47.5 -70t66 -31.5t84.5 -8.5q61 0 129 26l11 -48q-65 -29 -164 -29zM116 314h303q0 94 -34.5 146.5t-103.5 52.5t-113 -50.5t-52 -148.5zM286 660l-53 55l53 54l55 -54z
" />
    <glyph glyph-name="Eogonek" unicode="&#x118;" horiz-adv-x="574" 
d="M533 -204q-34 -19 -74 -19q-52 0 -78.5 30t-26.5 72q0 62 82 121h-324v707h378v-49h-319v-277h297v-52h-297v-278h342v-51q-35 -22 -69 -56.5t-34 -62.5q0 -51 66 -51q22 0 42 10z" />
    <glyph glyph-name="eogonek" unicode="&#x119;" horiz-adv-x="537" 
d="M399 -217q-108 0 -108 100q0 55 73 111q-26 -3 -56 -3q-122 0 -185 62t-63 210q0 155 64 225.5t170 70.5q94 0 139.5 -66.5t45.5 -204.5v-20h-362q1 -72 17 -118.5t47.5 -69t65.5 -30.5t85 -8q27 0 71 7.5t58 12.5l11 -48q-1 -1 -10 -6.5t-16.5 -10.5t-20 -13.5
t-22.5 -16.5t-21 -18.5t-18 -20.5t-12 -21t-5 -21q0 -31 17.5 -42.5t52.5 -11.5q30 0 38 8l15 -44q-20 -13 -71 -13zM117 314h303q0 95 -34.5 148.5t-103.5 53.5t-113 -51.5t-52 -150.5z" />
    <glyph glyph-name="Ecaron" unicode="&#x11a;" horiz-adv-x="574" 
d="M442 815l-151 -68l-145 69l19 42l127 -57l130 56zM112 0v707h378v-49h-319v-277h297v-52h-297v-278h342v-51h-401z" />
    <glyph glyph-name="ecaron" unicode="&#x11b;" horiz-adv-x="535" 
d="M283 630l-152 106l22 35l131 -84l132 85l22 -35zM307 -12q-121 0 -184.5 63t-63.5 212t63.5 223t167.5 74q188 0 188 -272v-20h-362q1 -72 17 -119t47.5 -70t66 -31.5t84.5 -8.5q61 0 129 26l11 -48q-65 -29 -164 -29zM116 314h303q0 94 -34.5 146.5t-103.5 52.5
t-113 -50.5t-52 -148.5z" />
    <glyph glyph-name="Gcircumflex" unicode="&#x11c;" horiz-adv-x="711" 
d="M309 753l-19 39l148 71l141 -68l-21 -41l-121 55zM433 -12q-171 0 -269 99t-98 262q0 164 94 266t259 102q126 0 202 -37l-18 -52q-85 35 -181 35q-60 0 -111 -17t-93 -52t-66 -95.5t-24 -139.5q0 -82 25 -144t69 -99t99.5 -55.5t121.5 -18.5q75 0 132 19v286h59v-326
q-103 -33 -201 -33z" />
    <glyph glyph-name="gcircumflex" unicode="&#x11d;" horiz-adv-x="566" 
d="M427 635l-117 82l-130 -83l-23 34l156 108l140 -105zM267 -230q-102 0 -165 29l13 52q75 -30 142 -30q81 0 124 33t43 123v67q-57 -52 -134 -52q-37 0 -66.5 5.5t-61.5 23t-53.5 47.5t-35.5 81.5t-14 121.5q0 142 70 215.5t178 73.5q83 0 171 -22v-578
q0 -93 -55.5 -141.5t-155.5 -48.5zM294 41q67 0 129 59v393q-60 16 -117 16q-100 0 -146 -66.5t-46 -174.5q0 -119 44.5 -173t135.5 -54z" />
    <glyph glyph-name="Gbreve" unicode="&#x11e;" horiz-adv-x="711" 
d="M413 752q-48 0 -83.5 22.5t-52.5 55.5l32 29q43 -59 107 -59q74 0 106 58l31 -26q-17 -31 -52.5 -55.5t-87.5 -24.5zM433 -12q-171 0 -269 99t-98 262q0 164 94 266t259 102q126 0 202 -37l-18 -52q-85 35 -181 35q-60 0 -111 -17t-93 -52t-66 -95.5t-24 -139.5
q0 -82 25 -144t69 -99t99.5 -55.5t121.5 -18.5q75 0 132 19v286h59v-326q-103 -33 -201 -33z" />
    <glyph glyph-name="gbreve" unicode="&#x11f;" horiz-adv-x="566" 
d="M308 653q-48 0 -83.5 22.5t-52.5 55.5l32 29q43 -59 107 -59q74 0 106 58l31 -26q-17 -31 -52.5 -55.5t-87.5 -24.5zM267 -230q-102 0 -165 29l13 52q75 -30 142 -30q81 0 124 33t43 123v67q-57 -52 -134 -52q-37 0 -66.5 5.5t-61.5 23t-53.5 47.5t-35.5 81.5t-14 121.5
q0 142 70 215.5t178 73.5q83 0 171 -22v-578q0 -93 -55.5 -141.5t-155.5 -48.5zM294 41q67 0 129 59v393q-60 16 -117 16q-100 0 -146 -66.5t-46 -174.5q0 -119 44.5 -173t135.5 -54z" />
    <glyph glyph-name="Gdotaccent" unicode="&#x120;" horiz-adv-x="711" 
d="M477 816l-55 -55l-53 55l53 54zM433 -12q-171 0 -269 99t-98 262q0 164 94 266t259 102q126 0 202 -37l-18 -52q-85 35 -181 35q-60 0 -111 -17t-93 -52t-66 -95.5t-24 -139.5q0 -82 25 -144t69 -99t99.5 -55.5t121.5 -18.5q75 0 132 19v286h59v-326q-103 -33 -201 -33z
" />
    <glyph glyph-name="gdotaccent" unicode="&#x121;" horiz-adv-x="566" 
d="M267 -230q-102 0 -165 29l13 52q75 -30 142 -30q81 0 124 33t43 123v67q-57 -52 -134 -52q-37 0 -66.5 5.5t-61.5 23t-53.5 47.5t-35.5 81.5t-14 121.5q0 142 70 215.5t178 73.5q83 0 171 -22v-578q0 -93 -55.5 -141.5t-155.5 -48.5zM294 41q67 0 129 59v393
q-60 16 -117 16q-100 0 -146 -66.5t-46 -174.5q0 -119 44.5 -173t135.5 -54zM319 660l-53 55l53 54l55 -54z" />
    <glyph glyph-name="Gcommaaccent" unicode="&#x122;" horiz-adv-x="711" 
d="M453 -58l-38 -198h-43l21 198h60zM433 -12q-171 0 -269 99t-98 262q0 164 94 266t259 102q126 0 202 -37l-18 -52q-85 35 -181 35q-60 0 -111 -17t-93 -52t-66 -95.5t-24 -139.5q0 -82 25 -144t69 -99t99.5 -55.5t121.5 -18.5q75 0 132 19v286h59v-326q-103 -33 -201 -33
z" />
    <glyph glyph-name="gcommaaccent" unicode="&#x123;" horiz-adv-x="566" 
d="M273 608l38 198h43l-21 -198h-60zM267 -230q-102 0 -165 29l13 52q75 -30 142 -30q81 0 124 33t43 123v67q-57 -52 -134 -52q-37 0 -66.5 5.5t-61.5 23t-53.5 47.5t-35.5 81.5t-14 121.5q0 142 70 215.5t178 73.5q83 0 171 -22v-578q0 -93 -55.5 -141.5t-155.5 -48.5z
M294 41q67 0 129 59v393q-60 16 -117 16q-100 0 -146 -66.5t-46 -174.5q0 -119 44.5 -173t135.5 -54z" />
    <glyph glyph-name="Hcircumflex" unicode="&#x124;" horiz-adv-x="753" 
d="M245 753l-19 39l148 71l141 -68l-21 -41l-121 55zM112 0v707h59v-326h411v326h59v-707h-59v329h-411v-329h-59z" />
    <glyph glyph-name="hcircumflex" unicode="&#x125;" horiz-adv-x="587" 
d="M-7 753l-19 39l148 71l141 -68l-21 -41l-121 55zM89 0v754h55v-272q107 77 194 77q45 0 77.5 -14t49 -32.5t25.5 -49.5t10.5 -53t1.5 -55v-355h-51v339q0 87 -23.5 128.5t-100.5 41.5q-73 0 -183 -77v-432h-55z" />
    <glyph glyph-name="Hbar" unicode="&#x126;" horiz-adv-x="793" 
d="M49 511v48h84v148h59v-148h411v148h59v-148h82v-48h-82v-511h-59v329h-411v-329h-59v511h-84zM192 381h411v130h-411v-130z" />
    <glyph glyph-name="hbar" unicode="&#x127;" horiz-adv-x="587" 
d="M89 0v625h-71v43h71v86h55v-86h165v-43h-165v-143q107 77 194 77q45 0 77.5 -14t49 -32.5t25.5 -49.5t10.5 -53t1.5 -55v-355h-51v339q0 87 -23.5 128.5t-100.5 41.5q-65 0 -183 -77v-432h-55z" />
    <glyph glyph-name="Itilde" unicode="&#x128;" horiz-adv-x="283" 
d="M212 754q-20 0 -60 18.5t-58 18.5q-35 0 -69 -24l-22 38q41 36 88 36q25 0 64.5 -18.5t54.5 -18.5q37 0 58 26l24 -36q-29 -40 -80 -40zM112 0v707h59v-707h-59z" />
    <glyph glyph-name="itilde" unicode="&#x129;" horiz-adv-x="235" 
d="M178 648q-23 0 -62 18.5t-61 18.5q-37 0 -68 -24l-23 38l5 4q5 4 9.5 7.5t13 8t17.5 7.5t22.5 5.5t27.5 2.5q26 0 65 -18t58 -18q38 0 66 28l24 -36q-36 -42 -94 -42zM89 0v546h57v-546h-57z" />
    <glyph glyph-name="Imacron" unicode="&#x12a;" horiz-adv-x="283" 
d="M12 790v48h251v-48h-251zM112 0v707h59v-707h-59z" />
    <glyph glyph-name="imacron" unicode="&#x12b;" horiz-adv-x="235" 
d="M-8 675v48h251v-48h-251zM89 0v546h57v-546h-57z" />
    <glyph glyph-name="Ibreve" unicode="&#x12c;" horiz-adv-x="283" 
d="M137 752q-48 0 -83.5 22.5t-52.5 55.5l32 29q43 -59 107 -59q74 0 106 58l31 -26q-17 -31 -52.5 -55.5t-87.5 -24.5zM112 0v707h59v-707h-59z" />
    <glyph glyph-name="ibreve" unicode="&#x12d;" horiz-adv-x="235" 
d="M117 653q-48 0 -83.5 22.5t-52.5 55.5l32 29q43 -59 107 -59q74 0 106 58l31 -26q-17 -31 -52.5 -55.5t-87.5 -24.5zM89 0v546h57v-546h-57z" />
    <glyph glyph-name="Iogonek" unicode="&#x12e;" horiz-adv-x="283" 
d="M190 -204q-24 -16 -70 -16q-109 0 -109 103q0 65 101 129v695h59v-707q-104 -61 -104 -114q0 -57 64 -57q19 0 44 11z" />
    <glyph glyph-name="iogonek" unicode="&#x12f;" horiz-adv-x="236" 
d="M95 -220q-108 0 -108 103q0 67 103 130v533h57v-546q-42 -24 -73 -56.5t-31 -62.5q0 -27 18 -39.5t44 -12.5q28 0 46 11l15 -44q-24 -16 -71 -16zM116 660l-53 55l53 54l55 -54z" />
    <glyph glyph-name="Idotaccent" unicode="&#x130;" horiz-adv-x="283" 
d="M195 816l-55 -55l-53 55l53 54zM112 0v707h59v-707h-59z" />
    <glyph glyph-name="dotlessi" unicode="&#x131;" horiz-adv-x="235" 
d="M89 0v546h57v-546h-57z" />
    <glyph glyph-name="IJ" unicode="&#x132;" horiz-adv-x="566" 
d="M112 0v707h59v-707h-59zM279 -184l-28 44q85 47 115 114.5t30 176.5v556h59v-554q0 -128 -36 -207t-140 -130z" />
    <glyph glyph-name="ij" unicode="&#x133;" horiz-adv-x="503" 
d="M117 660l-53 55l53 54l55 -54zM385 660l-53 55l53 54l55 -54zM240 -224q-28 0 -55 8l9 47q22 -6 48 -6q64 0 89.5 39.5t25.5 111.5v570h57v-571q0 -199 -174 -199zM89 0v546h57v-546h-57z" />
    <glyph glyph-name="Jcircumflex" unicode="&#x134;" horiz-adv-x="284" 
d="M20 753l-19 39l148 71l141 -68l-21 -41l-121 55zM-3 -184l-28 44q85 47 115 114.5t30 176.5v556h59v-554q0 -128 -36 -207t-140 -130z" />
    <glyph glyph-name="jcircumflex" unicode="&#x135;" horiz-adv-x="235" 
d="M231 635l-117 82l-130 -83l-23 34l156 108l140 -105zM-28 -224q-28 0 -55 8l9 47q22 -6 48 -6q64 0 89.5 39.5t25.5 111.5v570h57v-571q0 -199 -174 -199z" />
    <glyph glyph-name="Kcommaaccent" unicode="&#x136;" horiz-adv-x="601" 
d="M510 0l-301 367v19l285 321h74l-295 -326l316 -381h-79zM112 0v707h59v-707h-59zM351 -58l-38 -198h-43l21 198h60z" />
    <glyph glyph-name="kcommaaccent" unicode="&#x137;" horiz-adv-x="522" 
d="M487 -7q-70 6 -146 100l-157 196l239 257h68l-241 -256l121 -151q36 -44 72.5 -71t59.5 -34zM89 0v754h55v-754h-55zM307 -58l-38 -198h-43l21 198h60z" />
    <glyph glyph-name="Lacute" unicode="&#x139;" horiz-adv-x="485" 
d="M111 748l-15 35l205 89l20 -50zM112 0v707h59v-653h307v-54h-366z" />
    <glyph glyph-name="lacute" unicode="&#x13a;" horiz-adv-x="233" 
d="M89 782l-15 35l205 89l20 -50zM89 0v754h55v-754h-55z" />
    <glyph glyph-name="Lcommaaccent" unicode="&#x13b;" horiz-adv-x="486" 
d="M336 -58l-38 -198h-43l21 198h60zM112 0v707h59v-653h307v-54h-366z" />
    <glyph glyph-name="lcommaaccent" unicode="&#x13c;" horiz-adv-x="233" 
d="M150 -58l-38 -198h-43l21 198h60zM89 0v754h55v-754h-55z" />
    <glyph glyph-name="Lcaron" unicode="&#x13d;" horiz-adv-x="485" 
d="M359 755l-38 -198h-43l21 198h60zM112 0v707h59v-653h307v-54h-366z" />
    <glyph glyph-name="lcaron" unicode="&#x13e;" horiz-adv-x="263" 
d="M287 754l-38 -198h-43l21 198h60zM89 0v754h55v-754h-55z" />
    <glyph glyph-name="Ldot" unicode="&#x13f;" horiz-adv-x="485" 
d="M375 313l-53 55l53 54l55 -54zM112 0v707h59v-653h307v-54h-366z" />
    <glyph glyph-name="ldot" unicode="&#x140;" horiz-adv-x="272" 
d="M248 293l-53 55l53 54l55 -54zM89 0v754h55v-754h-55z" />
    <glyph glyph-name="Lslash" unicode="&#x141;" horiz-adv-x="505" 
d="M56 280l-2 49l78 45v333h59v-299l135 79v-52l-135 -78v-303h307v-54h-366v323z" />
    <glyph glyph-name="lslash" unicode="&#x142;" horiz-adv-x="304" 
d="M117 0v340l-79 -45v51l79 45v363h55v-331l87 50v-52l-87 -50v-371h-55z" />
    <glyph glyph-name="Nacute" unicode="&#x143;" horiz-adv-x="760" 
d="M325 748l-15 35l205 89l20 -50zM112 0v707h81l397 -648h2l-3 91v557h59v-707h-85l-394 640h-2l4 -67v-573h-59z" />
    <glyph glyph-name="nacute" unicode="&#x144;" horiz-adv-x="589" 
d="M251 623l-23 35l175 130l29 -40zM89 0v546h55v-64q51 38 94.5 58t99.5 20q45 0 77.5 -14t49.5 -33t26 -49.5t11 -53.5t2 -55v-355h-53v339q0 87 -23.5 129t-100.5 42q-78 0 -183 -78v-432h-55z" />
    <glyph glyph-name="Ncommaaccent" unicode="&#x145;" horiz-adv-x="760" 
d="M418 -58l-38 -198h-43l21 198h60zM112 0v707h81l397 -648h2l-3 91v557h59v-707h-85l-394 640h-2l4 -67v-573h-59z" />
    <glyph glyph-name="ncommaaccent" unicode="&#x146;" horiz-adv-x="589" 
d="M341 -58l-38 -198h-43l21 198h60zM89 0v546h55v-64q51 38 94.5 58t99.5 20q45 0 77.5 -14t49.5 -33t26 -49.5t11 -53.5t2 -55v-355h-53v339q0 87 -23.5 129t-100.5 42q-78 0 -183 -78v-432h-55z" />
    <glyph glyph-name="Ncaron" unicode="&#x147;" horiz-adv-x="760" 
d="M526 815l-151 -68l-145 69l19 42l127 -57l130 56zM112 0v707h81l397 -648h2l-3 91v557h59v-707h-85l-394 640h-2l4 -67v-573h-59z" />
    <glyph glyph-name="ncaron" unicode="&#x148;" horiz-adv-x="589" 
d="M291 630l-152 106l22 35l131 -84l132 85l22 -35zM89 0v546h55v-64q51 38 94.5 58t99.5 20q45 0 77.5 -14t49.5 -33t26 -49.5t11 -53.5t2 -55v-355h-53v339q0 87 -23.5 129t-100.5 42q-78 0 -183 -78v-432h-55z" />
    <glyph glyph-name="napostrophe" unicode="&#x149;" horiz-adv-x="589" 
d="M-23 572q26 69 26 120v63h56v-24q0 -91 -34 -159h-48zM89 0v546h55v-64q51 38 94.5 58t99.5 20q45 0 77.5 -14t49.5 -33t26 -49.5t11 -53.5t2 -55v-355h-53v339q0 87 -23.5 129t-100.5 42q-78 0 -183 -78v-432h-55z" />
    <glyph glyph-name="Eng" unicode="&#x14a;" horiz-adv-x="762" 
d="M477 -220q-28 0 -55 8l9 47q22 -6 48 -6q64 0 90 40t26 111v20h-54l-374 669l4 -67v-602h-59v707h97l383 -678l-3 91v587h61v-728q0 -199 -173 -199z" />
    <glyph glyph-name="eng" unicode="&#x14b;" horiz-adv-x="589" 
d="M504 -21q0 -199 -173 -199q-28 0 -55 8l9 47q22 -6 48 -6q118 0 118 151v358q0 88 -23.5 129t-100.5 41t-183 -76v-432h-55v546h55v-64q106 76 194 76q45 0 77.5 -13.5t49.5 -32.5t26 -49.5t11 -53t2 -54.5v-376z" />
    <glyph glyph-name="Omacron" unicode="&#x14c;" horiz-adv-x="827" 
d="M284 790v48h251v-48h-251zM405 -12q-156 0 -247.5 102t-91.5 265q0 165 96.5 263.5t255.5 98.5q160 0 251.5 -102.5t91.5 -261.5q0 -163 -96.5 -264t-259.5 -101zM408 39q142 0 218 88t76 227q0 137 -77 224.5t-210 87.5q-138 0 -214.5 -87t-76.5 -223q0 -134 75 -225.5
t209 -91.5z" />
    <glyph glyph-name="omacron" unicode="&#x14d;" horiz-adv-x="589" 
d="M168 675v48h251v-48h-251zM293 -12q-110 0 -172.5 72.5t-62.5 206.5q0 139 67 216t174 77q115 0 173.5 -74t58.5 -213t-65.5 -212t-172.5 -73zM298 35q51 0 87 20.5t55 56.5t27 75.5t8 85.5q0 43 -8 82t-26.5 76.5t-55.5 59.5t-89 22q-51 0 -88 -22t-56.5 -59t-28 -76.5
t-8.5 -83.5q0 -47 9.5 -87.5t29.5 -75t57 -54.5t87 -20z" />
    <glyph glyph-name="Obreve" unicode="&#x14e;" horiz-adv-x="827" 
d="M412 752q-48 0 -83.5 22.5t-52.5 55.5l32 29q43 -59 107 -59q74 0 106 58l31 -26q-17 -31 -52.5 -55.5t-87.5 -24.5zM405 -12q-156 0 -247.5 102t-91.5 265q0 165 96.5 263.5t255.5 98.5q160 0 251.5 -102.5t91.5 -261.5q0 -163 -96.5 -264t-259.5 -101zM408 39
q142 0 218 88t76 227q0 137 -77 224.5t-210 87.5q-138 0 -214.5 -87t-76.5 -223q0 -134 75 -225.5t209 -91.5z" />
    <glyph glyph-name="obreve" unicode="&#x14f;" horiz-adv-x="589" 
d="M293 653q-48 0 -83.5 22.5t-52.5 55.5l32 29q43 -59 107 -59q74 0 106 58l31 -26q-17 -31 -52.5 -55.5t-87.5 -24.5zM293 -12q-110 0 -172.5 72.5t-62.5 206.5q0 139 67 216t174 77q115 0 173.5 -74t58.5 -213t-65.5 -212t-172.5 -73zM298 35q51 0 87 20.5t55 56.5
t27 75.5t8 85.5q0 43 -8 82t-26.5 76.5t-55.5 59.5t-89 22q-51 0 -88 -22t-56.5 -59t-28 -76.5t-8.5 -83.5q0 -47 9.5 -87.5t29.5 -75t57 -54.5t87 -20z" />
    <glyph glyph-name="Ohungarumlaut" unicode="&#x150;" horiz-adv-x="827" 
d="M449 853l-173 -113l-27 36l164 124zM669 806l-199 -63l-17 41l194 77zM405 -12q-156 0 -247.5 102t-91.5 265q0 165 96.5 263.5t255.5 98.5q160 0 251.5 -102.5t91.5 -261.5q0 -163 -96.5 -264t-259.5 -101zM408 39q142 0 218 88t76 227q0 137 -77 224.5t-210 87.5
q-138 0 -214.5 -87t-76.5 -223q0 -134 75 -225.5t209 -91.5z" />
    <glyph glyph-name="ohungarumlaut" unicode="&#x151;" horiz-adv-x="589" 
d="M153 619l-24 39l181 131l33 -51zM379 624l-28 36l179 136l37 -47zM293 -12q-110 0 -172.5 72.5t-62.5 206.5q0 139 67 216t174 77q115 0 173.5 -74t58.5 -213t-65.5 -212t-172.5 -73zM298 35q51 0 87 20.5t55 56.5t27 75.5t8 85.5q0 43 -8 82t-26.5 76.5t-55.5 59.5
t-89 22q-51 0 -88 -22t-56.5 -59t-28 -76.5t-8.5 -83.5q0 -47 9.5 -87.5t29.5 -75t57 -54.5t87 -20z" />
    <glyph glyph-name="OE" unicode="&#x152;" horiz-adv-x="1095" 
d="M405 -12q-156 0 -247.5 102t-91.5 265q0 165 99 264t259 99q116 0 208 -65v54h378v-49h-317v-277h295v-52h-295v-278h342v-51h-403v62q-36 -25 -61 -38.5t-68.5 -24.5t-97.5 -11zM408 42q148 0 224 98v425q-76 98 -217 98q-137 0 -212.5 -86t-75.5 -221q0 -133 74 -223.5
t207 -90.5z" />
    <glyph glyph-name="oe" unicode="&#x153;" horiz-adv-x="950" 
d="M293 -12q-110 0 -172.5 72.5t-62.5 206.5q0 139 67 216t174 77q152 0 204 -131q54 131 205 131q94 0 139.5 -66.5t45.5 -205.5v-20h-362q1 -72 17 -119t47.5 -70t66 -31.5t84.5 -8.5q27 0 70 8.5t59 14.5l11 -48q-6 -3 -24 -8.5t-57.5 -11.5t-82.5 -6q-174 0 -223 127
q-59 -127 -206 -127zM298 35q51 0 87 20.5t55 56.5t27 75.5t8 85.5q0 43 -8 82t-26.5 76.5t-55.5 59.5t-89 22q-51 0 -88 -22t-56.5 -59t-28 -76.5t-8.5 -83.5q0 -47 9.5 -87.5t29.5 -75t57 -54.5t87 -20zM531 314h303q0 95 -34.5 149t-103.5 54t-113 -52t-52 -151z" />
    <glyph glyph-name="Racute" unicode="&#x154;" horiz-adv-x="675" 
d="M235 748l-15 35l205 89l20 -50zM651 -12q-95 16 -186 147l-112 162q-28 -6 -74 -6h-108v-291h-59v707h219q101 0 159 -50t58 -151q0 -67 -33.5 -118.5t-104.5 -75.5l101 -144q43 -58 76 -89t77 -45zM171 346h114q94 0 147 34t53 120q0 85 -44 121.5t-132 36.5h-138v-312z
" />
    <glyph glyph-name="racute" unicode="&#x155;" horiz-adv-x="370" 
d="M172 623l-23 35l175 130l29 -40zM89 0v546h55v-73q20 36 62 60.5t98 24.5q34 0 61 -9l-11 -48q-30 7 -62 7q-89 0 -148 -98v-410h-55z" />
    <glyph glyph-name="Rcommaaccent" unicode="&#x156;" horiz-adv-x="675" 
d="M385 -58l-38 -198h-43l21 198h60zM651 -12q-95 16 -186 147l-112 162q-28 -6 -74 -6h-108v-291h-59v707h219q101 0 159 -50t58 -151q0 -67 -33.5 -118.5t-104.5 -75.5l101 -144q43 -58 76 -89t77 -45zM171 346h114q94 0 147 34t53 120q0 85 -44 121.5t-132 36.5h-138
v-312z" />
    <glyph glyph-name="rcommaaccent" unicode="&#x157;" horiz-adv-x="369" 
d="M151 -58l-38 -198h-43l21 198h60zM89 0v546h55v-73q20 36 62 60.5t98 24.5q34 0 61 -9l-11 -48q-30 7 -62 7q-89 0 -148 -98v-410h-55z" />
    <glyph glyph-name="Rcaron" unicode="&#x158;" horiz-adv-x="675" 
d="M436 815l-151 -68l-145 69l19 42l127 -57l130 56zM651 -12q-95 16 -186 147l-112 162q-28 -6 -74 -6h-108v-291h-59v707h219q101 0 159 -50t58 -151q0 -67 -33.5 -118.5t-104.5 -75.5l101 -144q43 -58 76 -89t77 -45zM171 346h114q94 0 147 34t53 120q0 85 -44 121.5
t-132 36.5h-138v-312z" />
    <glyph glyph-name="rcaron" unicode="&#x159;" horiz-adv-x="370" 
d="M217 630l-152 106l22 35l131 -84l132 85l22 -35zM89 0v546h55v-73q20 36 62 60.5t98 24.5q34 0 61 -9l-11 -48q-30 7 -62 7q-89 0 -148 -98v-410h-55z" />
    <glyph glyph-name="Sacute" unicode="&#x15a;" horiz-adv-x="530" 
d="M201 748l-15 35l205 89l20 -50zM241 -12q-112 0 -186 47l20 52q85 -45 168 -45q44 0 81.5 10.5t67 42t29.5 80.5q0 53 -36 90t-87.5 60t-103.5 48t-88 69t-36 107q0 79 57 123.5t143 44.5q91 0 161 -35l-18 -48q-69 33 -142 33q-63 0 -103.5 -28.5t-40.5 -85.5
q0 -36 19.5 -64t50.5 -47.5t68.5 -37.5t75.5 -37.5t69 -43t50.5 -60t19.5 -82.5q0 -94 -66.5 -143.5t-172.5 -49.5z" />
    <glyph glyph-name="sacute" unicode="&#x15b;" horiz-adv-x="433" 
d="M162 623l-23 35l175 130l29 -40zM193 -12q-73 0 -149 24l12 51q78 -26 137 -26q65 0 104.5 25.5t39.5 70.5q0 39 -28.5 66t-68.5 43.5t-80.5 34.5t-69 53t-28.5 86q0 64 48.5 104t114.5 40q77 0 135 -25l-15 -47q-54 24 -119 24q-52 0 -81.5 -26t-29.5 -66q0 -33 20 -58
t50.5 -38.5t66 -30.5t66 -33.5t50.5 -47t20 -71.5q0 -77 -59 -115t-136 -38z" />
    <glyph glyph-name="Scircumflex" unicode="&#x15c;" horiz-adv-x="530" 
d="M148 753l-19 39l148 71l141 -68l-21 -41l-121 55zM241 -12q-112 0 -186 47l20 52q85 -45 168 -45q44 0 81.5 10.5t67 42t29.5 80.5q0 53 -36 90t-87.5 60t-103.5 48t-88 69t-36 107q0 79 57 123.5t143 44.5q91 0 161 -35l-18 -48q-69 33 -142 33q-63 0 -103.5 -28.5
t-40.5 -85.5q0 -36 19.5 -64t50.5 -47.5t68.5 -37.5t75.5 -37.5t69 -43t50.5 -60t19.5 -82.5q0 -94 -66.5 -143.5t-172.5 -49.5z" />
    <glyph glyph-name="scircumflex" unicode="&#x15d;" horiz-adv-x="433" 
d="M327 635l-117 82l-130 -83l-23 34l156 108l140 -105zM193 -12q-73 0 -149 24l12 51q78 -26 137 -26q65 0 104.5 25.5t39.5 70.5q0 39 -28.5 66t-68.5 43.5t-80.5 34.5t-69 53t-28.5 86q0 64 48.5 104t114.5 40q77 0 135 -25l-15 -47q-54 24 -119 24q-52 0 -81.5 -26
t-29.5 -66q0 -33 20 -58t50.5 -38.5t66 -30.5t66 -33.5t50.5 -47t20 -71.5q0 -77 -59 -115t-136 -38z" />
    <glyph glyph-name="Scedilla" unicode="&#x15e;" horiz-adv-x="530" 
d="M209 -229l-18 31q54 33 54 79q0 25 -26 68h62q20 -32 20 -63q2 -75 -92 -115zM241 -12q-112 0 -186 47l20 52q85 -45 168 -45q44 0 81.5 10.5t67 42t29.5 80.5q0 53 -36 90t-87.5 60t-103.5 48t-88 69t-36 107q0 79 57 123.5t143 44.5q91 0 161 -35l-18 -48
q-69 33 -142 33q-63 0 -103.5 -28.5t-40.5 -85.5q0 -36 19.5 -64t50.5 -47.5t68.5 -37.5t75.5 -37.5t69 -43t50.5 -60t19.5 -82.5q0 -94 -66.5 -143.5t-172.5 -49.5z" />
    <glyph glyph-name="scedilla" unicode="&#x15f;" horiz-adv-x="433" 
d="M171 -229l-18 31q54 33 54 79q0 25 -26 68h62q20 -32 20 -63q2 -75 -92 -115zM193 -12q-73 0 -149 24l12 51q78 -26 137 -26q65 0 104.5 25.5t39.5 70.5q0 39 -28.5 66t-68.5 43.5t-80.5 34.5t-69 53t-28.5 86q0 64 48.5 104t114.5 40q77 0 135 -25l-15 -47
q-54 24 -119 24q-52 0 -81.5 -26t-29.5 -66q0 -33 20 -58t50.5 -38.5t66 -30.5t66 -33.5t50.5 -47t20 -71.5q0 -77 -59 -115t-136 -38z" />
    <glyph glyph-name="Scaron" unicode="&#x160;" horiz-adv-x="530" 
d="M415 815l-151 -68l-145 69l19 42l127 -57l130 56zM241 -12q-112 0 -186 47l20 52q85 -45 168 -45q44 0 81.5 10.5t67 42t29.5 80.5q0 53 -36 90t-87.5 60t-103.5 48t-88 69t-36 107q0 79 57 123.5t143 44.5q91 0 161 -35l-18 -48q-69 33 -142 33q-63 0 -103.5 -28.5
t-40.5 -85.5q0 -36 19.5 -64t50.5 -47.5t68.5 -37.5t75.5 -37.5t69 -43t50.5 -60t19.5 -82.5q0 -94 -66.5 -143.5t-172.5 -49.5z" />
    <glyph glyph-name="scaron" unicode="&#x161;" horiz-adv-x="433" 
d="M213 630l-152 106l22 35l131 -84l132 85l22 -35zM193 -12q-73 0 -149 24l12 51q78 -26 137 -26q65 0 104.5 25.5t39.5 70.5q0 39 -28.5 66t-68.5 43.5t-80.5 34.5t-69 53t-28.5 86q0 64 48.5 104t114.5 40q77 0 135 -25l-15 -47q-54 24 -119 24q-52 0 -81.5 -26
t-29.5 -66q0 -33 20 -58t50.5 -38.5t66 -30.5t66 -33.5t50.5 -47t20 -71.5q0 -77 -59 -115t-136 -38z" />
    <glyph glyph-name="Tcommaaccent" unicode="&#x162;" horiz-adv-x="569" 
d="M323 -58l-38 -198h-43l21 198h60zM255 0v654h-247v53h553v-53h-247v-654h-59z" />
    <glyph glyph-name="tcommaaccent" unicode="&#x163;" horiz-adv-x="378" 
d="M280 -58l-38 -198h-43l21 198h60zM265 -12q-78 0 -117.5 34.5t-39.5 124.5v347h-80v52h80v112h53v-112h172v-52h-171v-346q0 -62 26.5 -85.5t81.5 -23.5q48 0 86 16l13 -48q-49 -19 -104 -19z" />
    <glyph glyph-name="Tcaron" unicode="&#x164;" horiz-adv-x="571" 
d="M430 815l-151 -68l-145 69l19 42l127 -57l130 56zM256 0v654h-247v53h553v-53h-247v-654h-59z" />
    <glyph glyph-name="tcaron" unicode="&#x165;" horiz-adv-x="375" 
d="M307 818l-38 -198h-43l21 198h60zM263 -12q-78 0 -117.5 34.5t-39.5 124.5v347h-80v52h80v112h53v-112h172v-52h-171v-346q0 -62 26.5 -85.5t81.5 -23.5q48 0 86 16l13 -48q-49 -19 -104 -19z" />
    <glyph glyph-name="Tbar" unicode="&#x166;" horiz-adv-x="571" 
d="M109 353v47h147v254h-247v53h553v-53h-247v-254h148v-47h-148v-353h-59v353h-147z" />
    <glyph glyph-name="tbar" unicode="&#x167;" horiz-adv-x="375" 
d="M32 304v43h74v147h-80v52h80v112h53v-112h172v-52h-171v-147h143v-43h-143v-156q0 -62 26.5 -85.5t81.5 -23.5q48 0 86 16l13 -48q-49 -19 -104 -19q-78 0 -117.5 34.5t-39.5 124.5v157h-74z" />
    <glyph glyph-name="Utilde" unicode="&#x168;" horiz-adv-x="750" 
d="M440 754q-20 0 -60 18.5t-58 18.5q-35 0 -69 -24l-22 38q41 36 88 36q25 0 64.5 -18.5t54.5 -18.5q37 0 58 26l24 -36q-29 -40 -80 -40zM375 -12q-42 0 -78.5 6.5t-73 23.5t-62 44t-41.5 71t-16 102v472h59v-465q0 -201 212 -201q213 0 213 225v441h59v-445
q0 -64 -17 -113.5t-44 -79t-64.5 -48.5t-73 -26t-73.5 -7z" />
    <glyph glyph-name="utilde" unicode="&#x169;" horiz-adv-x="584" 
d="M351 648q-23 0 -62 18.5t-61 18.5q-36 0 -68 -24l-23 38l5 4q5 4 9.5 7.5t13 8t17.5 7.5t22.5 5.5t27.5 2.5q26 0 65 -18t58 -18q38 0 66 28l24 -36q-36 -42 -94 -42zM244 -12q-43 0 -73.5 14t-47 33.5t-25.5 50.5t-11 54.5t-2 54.5v351h55v-334q0 -28 1 -44.5t4 -39
t10.5 -36t19.5 -26.5t32 -19t47 -6q83 0 189 78v427h52v-546h-52v66q-36 -26 -57 -39t-60.5 -26t-81.5 -13z" />
    <glyph glyph-name="Umacron" unicode="&#x16a;" horiz-adv-x="750" 
d="M244 790v48h251v-48h-251zM375 -12q-42 0 -78.5 6.5t-73 23.5t-62 44t-41.5 71t-16 102v472h59v-465q0 -201 212 -201q213 0 213 225v441h59v-445q0 -64 -17 -113.5t-44 -79t-64.5 -48.5t-73 -26t-73.5 -7z" />
    <glyph glyph-name="umacron" unicode="&#x16b;" horiz-adv-x="584" 
d="M165 675v48h251v-48h-251zM244 -12q-43 0 -73.5 14t-47 33.5t-25.5 50.5t-11 54.5t-2 54.5v351h55v-334q0 -28 1 -44.5t4 -39t10.5 -36t19.5 -26.5t32 -19t47 -6q83 0 189 78v427h52v-546h-52v66q-36 -26 -57 -39t-60.5 -26t-81.5 -13z" />
    <glyph glyph-name="Ubreve" unicode="&#x16c;" horiz-adv-x="750" 
d="M377 752q-48 0 -83.5 22.5t-52.5 55.5l32 29q43 -59 107 -59q74 0 106 58l31 -26q-17 -31 -52.5 -55.5t-87.5 -24.5zM375 -12q-42 0 -78.5 6.5t-73 23.5t-62 44t-41.5 71t-16 102v472h59v-465q0 -201 212 -201q213 0 213 225v441h59v-445q0 -64 -17 -113.5t-44 -79
t-64.5 -48.5t-73 -26t-73.5 -7z" />
    <glyph glyph-name="ubreve" unicode="&#x16d;" horiz-adv-x="584" 
d="M292 653q-48 0 -83.5 22.5t-52.5 55.5l32 29q43 -59 107 -59q74 0 106 58l31 -26q-17 -31 -52.5 -55.5t-87.5 -24.5zM244 -12q-43 0 -73.5 14t-47 33.5t-25.5 50.5t-11 54.5t-2 54.5v351h55v-334q0 -28 1 -44.5t4 -39t10.5 -36t19.5 -26.5t32 -19t47 -6q83 0 189 78v427
h52v-546h-52v66q-36 -26 -57 -39t-60.5 -26t-81.5 -13z" />
    <glyph glyph-name="Uring" unicode="&#x16e;" horiz-adv-x="749" 
d="M374 705q-38 0 -64 21t-26 60t25.5 61t62.5 22q35 0 62 -20t27 -61q0 -38 -24.5 -60.5t-62.5 -22.5zM373 735q24 0 38.5 14t14.5 38q0 23 -16 38t-38 15q-24 0 -39 -13.5t-15 -37.5t15.5 -39t39.5 -15zM374 -12q-42 0 -78.5 6.5t-73 23.5t-62 44t-41.5 71t-16 102v472h59
v-465q0 -201 212 -201q213 0 213 225v441h59v-445q0 -64 -17 -113.5t-44 -79t-64.5 -48.5t-73 -26t-73.5 -7z" />
    <glyph glyph-name="uring" unicode="&#x16f;" horiz-adv-x="584" 
d="M293 621q-43 0 -72 23.5t-29 67.5q0 43 29.5 68.5t69.5 25.5q39 0 69.5 -23t30.5 -69q0 -43 -27.5 -68t-70.5 -25zM292 655q27 0 43.5 15.5t16.5 42.5q0 26 -18 42.5t-43 16.5q-27 0 -43.5 -15t-16.5 -42t17 -43.5t44 -16.5zM244 -12q-43 0 -73.5 14t-47 33.5t-25.5 50.5
t-11 54.5t-2 54.5v351h55v-334q0 -28 1 -44.5t4 -39t10.5 -36t19.5 -26.5t32 -19t47 -6q83 0 189 78v427h52v-546h-52v66q-36 -26 -57 -39t-60.5 -26t-81.5 -13z" />
    <glyph glyph-name="Uhungarumlaut" unicode="&#x170;" horiz-adv-x="750" 
d="M401 853l-173 -113l-27 36l164 124zM621 806l-199 -63l-17 41l194 77zM375 -12q-42 0 -78.5 6.5t-73 23.5t-62 44t-41.5 71t-16 102v472h59v-465q0 -201 212 -201q213 0 213 225v441h59v-445q0 -64 -17 -113.5t-44 -79t-64.5 -48.5t-73 -26t-73.5 -7z" />
    <glyph glyph-name="uhungarumlaut" unicode="&#x171;" horiz-adv-x="584" 
d="M162 619l-24 39l181 131l33 -51zM388 624l-28 36l179 136l37 -47zM244 -12q-43 0 -73.5 14t-47 33.5t-25.5 50.5t-11 54.5t-2 54.5v351h55v-334q0 -28 1 -44.5t4 -39t10.5 -36t19.5 -26.5t32 -19t47 -6q83 0 189 78v427h52v-546h-52v66q-36 -26 -57 -39t-60.5 -26
t-81.5 -13z" />
    <glyph glyph-name="Uogonek" unicode="&#x172;" horiz-adv-x="755" 
d="M474 -205q-26 -17 -73 -17q-57 0 -81 28.5t-24 71.5q0 56 66 111q-52 1 -94.5 13t-80.5 38.5t-59.5 76t-21.5 118.5v472h59v-465q0 -201 212 -201q213 0 213 225v441h59v-445q0 -127 -60.5 -190.5t-151.5 -78.5q-86 -52 -86 -108q0 -58 65 -58q24 0 44 10z" />
    <glyph glyph-name="uogonek" unicode="&#x173;" horiz-adv-x="584" 
d="M499 -162l15 -44q-28 -15 -71 -15q-108 0 -108 102q0 69 108 136v49q-3 -2 -23 -15t-29 -18t-29.5 -15.5t-36 -15t-37.5 -9t-44 -4.5q-43 0 -73.5 14t-47 33.5t-25.5 50t-11 54t-2 54.5v351h55v-334q0 -33 1 -52.5t7 -45t17.5 -39t34 -23.5t54.5 -10q66 0 189 77v427h52
v-546q-36 -22 -70 -55t-34 -61q0 -56 64 -56q24 0 44 10z" />
    <glyph glyph-name="Wcircumflex" unicode="&#x174;" horiz-adv-x="1029" 
d="M396 753l-19 39l148 71l141 -68l-21 -41l-121 55zM242 0l-208 707h63l195 -672l200 498l-59 174h61l230 -673l230 673h58l-242 -707h-94l-157 457l-184 -457h-93z" />
    <glyph glyph-name="wcircumflex" unicode="&#x175;" horiz-adv-x="867" 
d="M554 635l-117 82l-130 -83l-23 34l156 108l140 -105zM199 0l-177 546h58l160 -510l161 510h76l142 -510l178 510h55l-195 -546h-80l-122 426l-17 71l-19 -70l-140 -427h-80z" />
    <glyph glyph-name="Ycircumflex" unicode="&#x176;" horiz-adv-x="577" 
d="M165 753l-19 39l148 71l141 -68l-21 -41l-121 55zM257 0v279l-223 428h65l190 -374l203 374h61l-237 -430v-277h-59z" />
    <glyph glyph-name="ycircumflex" unicode="&#x177;" horiz-adv-x="488" 
d="M362 635l-117 82l-130 -83l-23 34l156 108l140 -105zM151 -220l75 220h-31l-173 546h61l125 -408l32 -100l34 98l141 410h58l-267 -766h-55z" />
    <glyph glyph-name="Ydieresis" unicode="&#x178;" horiz-adv-x="577" 
d="M196 750l-46 47l46 46l46 -46zM380 750l-46 47l46 46l47 -46zM257 0v279l-223 428h65l190 -374l203 374h61l-237 -430v-277h-59z" />
    <glyph glyph-name="Zacute" unicode="&#x179;" horiz-adv-x="556" 
d="M217 748l-15 35l205 89l20 -50zM44 0v60l388 595h-362v52h422v-53l-392 -602h413v-52h-469z" />
    <glyph glyph-name="zacute" unicode="&#x17a;" horiz-adv-x="492" 
d="M201 623l-23 35l175 130l29 -40zM38 0v57l340 437h-311v52h374v-53l-346 -441h350v-52h-407z" />
    <glyph glyph-name="Zdotaccent" unicode="&#x17b;" horiz-adv-x="556" 
d="M340 816l-55 -55l-53 55l53 54zM44 0v60l388 595h-362v52h422v-53l-392 -602h413v-52h-469z" />
    <glyph glyph-name="zdotaccent" unicode="&#x17c;" horiz-adv-x="492" 
d="M38 0v57l340 437h-311v52h374v-53l-346 -441h350v-52h-407zM253 660l-53 55l53 54l55 -54z" />
    <glyph glyph-name="Zcaron" unicode="&#x17d;" horiz-adv-x="556" 
d="M428 815l-151 -68l-145 69l19 42l127 -57l130 56zM44 0v60l388 595h-362v52h422v-53l-392 -602h413v-52h-469z" />
    <glyph glyph-name="zcaron" unicode="&#x17e;" horiz-adv-x="492" 
d="M241 630l-152 106l22 35l131 -84l132 85l22 -35zM38 0v57l340 437h-311v52h374v-53l-346 -441h350v-52h-407z" />
    <glyph glyph-name="uni018E" unicode="&#x18e;" horiz-adv-x="565" 
d="M453 707v-707h-379v51h320v278h-297v52h297v277h-319v49h378z" />
    <glyph glyph-name="uni018F" unicode="&#x18f;" horiz-adv-x="762" 
d="M368 -12q-148 0 -226 93t-83 250v51h575q-6 128 -74 206t-192 78q-116 0 -258 -69l-16 47q141 73 283 73q158 0 237.5 -100.5t79.5 -263.5q0 -167 -83 -266t-243 -99zM371 39q252 0 263 292h-517q6 -130 67.5 -211t186.5 -81z" />
    <glyph glyph-name="florin" unicode="&#x192;" horiz-adv-x="507" 
d="M42 -9l-2 47q85 5 110 14q67 22 74 115q1 7 1 15l2 79h-104v50h106l1 45q1 49 14.5 85.5t35 57t53.5 33t62.5 16.5t68.5 4l3 -48q-85 -8 -110 -18q-66 -25 -71 -121v-11l-1 -43h111v-50h-113l-2 -82q-1 -50 -17.5 -86.5t-39.5 -55.5t-58 -30t-61.5 -13.5t-62.5 -2.5z" />
    <glyph glyph-name="uni01DD" unicode="&#x1dd;" horiz-adv-x="535" 
d="M228 560q122 0 185 -63t63 -212q0 -155 -64 -226t-170 -71q-94 0 -139.5 66.5t-45.5 205.5v20h362q-1 72 -17 119t-47.5 70t-66 31.5t-84.5 8.5q-27 0 -70 -8.5t-59 -14.5l-11 48q6 3 24 8.5t57.5 11.5t82.5 6zM419 234h-303q0 -95 34.5 -149t103.5 -54t113 52t52 151z
" />
    <glyph glyph-name="uni01E2" unicode="&#x1e2;" horiz-adv-x="896" 
d="M452 790v48h251v-48h-251zM-11 0l387 707h436v-49h-319v-277h297v-52h-297v-278h343v-51h-402v329h-202l-177 -329h-66zM260 381h174v277h-25z" />
    <glyph glyph-name="uni01E3" unicode="&#x1e3;" horiz-adv-x="859" 
d="M298 675v48h251v-48h-251zM633 -9q-153 0 -214 98q-2 -2 -18.5 -13.5t-29.5 -20t-36 -21.5t-43.5 -21.5t-47 -14.5t-51.5 -6q-69 0 -107.5 39.5t-38.5 112.5q0 38 13.5 67t33.5 46.5t48.5 29t54 16t53.5 5.5l138 3v83q0 73 -33 95t-117 22q-22 0 -49 -5t-52.5 -12
t-26.5 -7l-12 43q17 8 63.5 18.5t98.5 10.5q141 0 174 -88q61 88 185 88q182 0 182 -257v-23l-361 -15q1 -70 17 -115.5t47.5 -68t66 -30.5t86.5 -8q58 0 128 20l11 -48q-48 -23 -163 -23zM210 40q35 0 96.5 30.5t96.5 56.5q-16 50 -18 137l-137 -4q-73 -2 -111 -32.5
t-38 -76.5q0 -63 29 -87t82 -24zM442 312l301 15q0 86 -35 137.5t-101 51.5t-112.5 -50.5t-52.5 -153.5z" />
    <glyph glyph-name="AEacute" unicode="&#x1fc;" horiz-adv-x="896" 
d="M508 748l-15 35l205 89l20 -50zM-11 0l387 707h436v-49h-319v-277h297v-52h-297v-278h343v-51h-402v329h-202l-177 -329h-66zM260 381h174v277h-25z" />
    <glyph glyph-name="aeacute" unicode="&#x1fd;" horiz-adv-x="859" 
d="M386 623l-23 35l175 130l29 -40zM633 -9q-153 0 -214 98q-2 -2 -18.5 -13.5t-29.5 -20t-36 -21.5t-43.5 -21.5t-47 -14.5t-51.5 -6q-69 0 -107.5 39.5t-38.5 112.5q0 38 13.5 67t33.5 46.5t48.5 29t54 16t53.5 5.5l138 3v83q0 73 -33 95t-117 22q-22 0 -49 -5t-52.5 -12
t-26.5 -7l-12 43q17 8 63.5 18.5t98.5 10.5q141 0 174 -88q61 88 185 88q182 0 182 -257v-23l-361 -15q1 -70 17 -115.5t47.5 -68t66 -30.5t86.5 -8q58 0 128 20l11 -48q-48 -23 -163 -23zM210 40q35 0 96.5 30.5t96.5 56.5q-16 50 -18 137l-137 -4q-73 -2 -111 -32.5
t-38 -76.5q0 -63 29 -87t82 -24zM442 312l301 15q0 86 -35 137.5t-101 51.5t-112.5 -50.5t-52.5 -153.5z" />
    <glyph glyph-name="Oslashacute" unicode="&#x1fe;" horiz-adv-x="859" 
d="M88 -26l-30 31l100 103q-76 97 -76 247q0 165 96.5 263.5t255.5 98.5q142 0 232 -84l99 102l32 -29l-101 -104q81 -99 81 -249q0 -163 -96.5 -264t-259.5 -101q-144 0 -234 88zM424 39q142 0 218 88t76 227q0 122 -62 206l-429 -443q76 -78 197 -78zM140 356
q0 -120 59 -205l428 442q-76 73 -196 73q-138 0 -214.5 -87t-76.5 -223zM350 748l-15 35l205 89l20 -50z" />
    <glyph glyph-name="oslashacute" unicode="&#x1ff;" horiz-adv-x="614" 
d="M305 -12q-99 0 -160 59l-67 -80l-31 30l70 84q-47 72 -47 186q0 139 67 216t174 77q100 0 158 -58l60 71l32 -29l-64 -76q46 -71 46 -195q0 -139 -65.5 -212t-172.5 -73zM310 35q51 0 87 20.5t55 56.5t27 75.5t8 85.5q0 89 -29 148l-278 -332q47 -54 130 -54zM127 272
q0 -88 29 -145l277 332q-46 54 -125 54q-51 0 -88 -22t-56.5 -59t-28 -76.5t-8.5 -83.5zM245 623l-23 35l175 130l29 -40z" />
    <glyph glyph-name="Scommaaccent" unicode="&#x218;" horiz-adv-x="530" 
d="M288 -58l-38 -198h-43l21 198h60zM241 -12q-112 0 -186 47l20 52q85 -45 168 -45q44 0 81.5 10.5t67 42t29.5 80.5q0 53 -36 90t-87.5 60t-103.5 48t-88 69t-36 107q0 79 57 123.5t143 44.5q91 0 161 -35l-18 -48q-69 33 -142 33q-63 0 -103.5 -28.5t-40.5 -85.5
q0 -36 19.5 -64t50.5 -47.5t68.5 -37.5t75.5 -37.5t69 -43t50.5 -60t19.5 -82.5q0 -94 -66.5 -143.5t-172.5 -49.5z" />
    <glyph glyph-name="scommaaccent" unicode="&#x219;" horiz-adv-x="433" 
d="M243 -58l-38 -198h-43l21 198h60zM193 -12q-73 0 -149 24l12 51q78 -26 137 -26q65 0 104.5 25.5t39.5 70.5q0 39 -28.5 66t-68.5 43.5t-80.5 34.5t-69 53t-28.5 86q0 64 48.5 104t114.5 40q77 0 135 -25l-15 -47q-54 24 -119 24q-52 0 -81.5 -26t-29.5 -66q0 -33 20 -58
t50.5 -38.5t66 -30.5t66 -33.5t50.5 -47t20 -71.5q0 -77 -59 -115t-136 -38z" />
    <glyph glyph-name="uni021A" unicode="&#x21a;" horiz-adv-x="569" 
d="M323 -58l-38 -198h-43l21 198h60zM255 0v654h-247v53h553v-53h-247v-654h-59z" />
    <glyph glyph-name="uni021B" unicode="&#x21b;" horiz-adv-x="378" 
d="M280 -58l-38 -198h-43l21 198h60zM265 -12q-78 0 -117.5 34.5t-39.5 124.5v347h-80v52h80v112h53v-112h172v-52h-171v-346q0 -62 26.5 -85.5t81.5 -23.5q48 0 86 16l13 -48q-49 -19 -104 -19z" />
    <glyph glyph-name="uni0232" unicode="&#x232;" horiz-adv-x="577" 
d="M164 790v48h251v-48h-251zM257 0v279l-223 428h65l190 -374l203 374h61l-237 -430v-277h-59z" />
    <glyph glyph-name="uni0233" unicode="&#x233;" horiz-adv-x="488" 
d="M119 675v48h251v-48h-251zM151 -220l75 220h-31l-173 546h61l125 -408l32 -100l34 98l141 410h58l-267 -766h-55z" />
    <glyph glyph-name="uni0237" unicode="&#x237;" horiz-adv-x="235" 
d="M-28 -224q-28 0 -55 8l9 47q22 -6 48 -6q64 0 89.5 39.5t25.5 111.5v570h57v-571q0 -199 -174 -199z" />
    <glyph glyph-name="uni0259" unicode="&#x259;" horiz-adv-x="535" 
d="M228 560q122 0 185 -63t63 -212q0 -155 -64 -226t-170 -71q-94 0 -139.5 66.5t-45.5 205.5v20h362q-1 72 -17 119t-47.5 70t-66 31.5t-84.5 8.5q-27 0 -70 -8.5t-59 -14.5l-11 48q6 3 24 8.5t57.5 11.5t82.5 6zM419 234h-303q0 -95 34.5 -149t103.5 -54t113 52t52 151z
" />
    <glyph glyph-name="circumflex" unicode="&#x2c6;" horiz-adv-x="536" 
d="M341 635l-117 82l-130 -83l-23 34l156 108l140 -105z" />
    <glyph glyph-name="caron" unicode="&#x2c7;" horiz-adv-x="536" 
d="M266 629l-152 106l22 35l131 -84l132 85l22 -35z" />
    <glyph glyph-name="breve" unicode="&#x2d8;" horiz-adv-x="496" 
d="M266 652q-48 0 -83.5 22.5t-52.5 55.5l32 29q43 -59 107 -59q74 0 106 58l31 -26q-17 -31 -52.5 -55.5t-87.5 -24.5z" />
    <glyph glyph-name="dotaccent" unicode="&#x2d9;" horiz-adv-x="273" 
d="M135 660l-53 55l53 54l55 -54z" />
    <glyph glyph-name="ring" unicode="&#x2da;" horiz-adv-x="532" 
d="M268 621q-43 0 -72 23.5t-29 67.5q0 43 29.5 68.5t69.5 25.5q39 0 69.5 -23t30.5 -69q0 -43 -27.5 -68t-70.5 -25zM267 655q27 0 43.5 15.5t16.5 42.5q0 26 -18 42.5t-43 16.5q-27 0 -43.5 -15t-16.5 -42t17 -43.5t44 -16.5z" />
    <glyph glyph-name="ogonek" unicode="&#x2db;" horiz-adv-x="561" 
d="M469 -205q-26 -17 -73 -17q-57 0 -81 28.5t-24 71.5q0 48 47 93t104 69l23 -30q-49 -23 -84 -56t-35 -69q0 -58 65 -58q24 0 44 10z" />
    <glyph glyph-name="tilde" unicode="&#x2dc;" horiz-adv-x="536" 
d="M328 648q-23 0 -62 18.5t-61 18.5q-37 0 -68 -24l-23 38l5 4q5 4 9.5 7.5t13 8t17.5 7.5t22.5 5.5t27.5 2.5q26 0 65 -18t58 -18q38 0 66 28l24 -36q-36 -42 -94 -42z" />
    <glyph glyph-name="hungarumlaut" unicode="&#x2dd;" horiz-adv-x="549" 
d="M78 618l-24 39l181 131l33 -51zM304 623l-28 36l179 136l37 -47z" />
    <glyph glyph-name="Sigma" unicode="&#x3a3;" horiz-adv-x="561" 
d="M52 0v59l219 300l-216 294v54h452v-49h-389l218 -299l-224 -308h399v-51h-459z" />
    <glyph glyph-name="alpha" unicode="&#x3b1;" horiz-adv-x="583" 
d="M247 -9q-26 0 -49.5 5.5t-49.5 22.5t-44.5 44t-31 75.5t-12.5 111.5q0 138 59 220t149 82q106 0 159 -85v79h55v-441q0 -66 52 -66l-5 -45q-31 2 -43 7q-33 13 -43.5 41t-10.5 86q-29 -63 -79 -100t-106 -37zM250 40q60 0 118.5 66t58.5 157v106q-25 63 -65 99.5
t-88 36.5q-78 0 -117.5 -69t-39.5 -186q0 -103 34.5 -156.5t98.5 -53.5z" />
    <glyph glyph-name="beta" unicode="&#x3b2;" horiz-adv-x="563" 
d="M88 -220v757q0 99 54.5 163t151.5 64q81 0 135.5 -52.5t54.5 -130.5q0 -57 -43 -110.5t-101 -69.5q83 -19 126 -63t43 -125q0 -110 -61 -167.5t-165 -57.5q-78 0 -140 24v-232h-55zM281 37q172 0 172 170q0 153 -211 162v47q78 4 132.5 52.5t54.5 109.5q0 60 -40 99.5
t-99 39.5q-71 0 -109 -48.5t-38 -122.5v-482q89 -27 138 -27z" />
    <glyph glyph-name="gamma" unicode="&#x3b3;" horiz-adv-x="469" 
d="M181 -220q-11 80 -11 162q0 40 3 79q-37 249 -157 525h60q98 -233 137 -463q12 25 53 108t60 126.5t39.5 110t21.5 118.5h54q-3 -81 -40 -178t-97.5 -213.5t-77.5 -157.5q9 -75 9 -152q0 -21 -2 -65h-52z" />
    <glyph glyph-name="delta" unicode="&#x3b4;" horiz-adv-x="575" 
d="M288 -11q-107 0 -171 59.5t-64 187.5q0 97 49.5 164.5t128.5 104.5q-53 26 -81 56t-28 77q0 60 55 93t131 33q101 0 178 -25l-10 -48q-83 23 -168 23q-58 0 -96 -18.5t-38 -52.5q0 -25 19.5 -46t42.5 -33.5t66.5 -33.5t68.5 -36q71 -41 113 -99.5t42 -152.5
q0 -134 -66.5 -193.5t-171.5 -59.5zM293 36q177 0 177 206q0 52 -15 91.5t-46 67.5t-57.5 44t-69.5 36q-86 -26 -129 -96t-43 -144q0 -95 44.5 -150t138.5 -55z" />
    <glyph glyph-name="pi" unicode="&#x3c0;" horiz-adv-x="609" 
d="M516 -10q-42 0 -66 25.5t-24 71.5v407h-260v-494h-55v494h-70v52h521v-52h-80v-386q0 -69 56 -69q6 0 24 2l2 -47q-24 -4 -48 -4z" />
    <glyph glyph-name="phi" unicode="&#x3c6;" horiz-adv-x="709" 
d="M326 -220v213q-130 6 -200 76t-70 198q0 131 72.5 206t197.5 84v101h55v-100q270 -10 270 -285q0 -132 -72 -202.5t-198 -77.5v-213h-55zM326 38v474q-59 -4 -102 -25.5t-66.5 -56t-34 -73.5t-10.5 -85q0 -97 50.5 -161.5t162.5 -72.5zM381 38q214 12 214 235
q0 98 -49 164.5t-165 74.5v-474z" />
    <glyph glyph-name="omega" unicode="&#x3c9;" horiz-adv-x="780" 
d="M244 -8q-85 0 -135 69t-50 176q0 92 27.5 162t101.5 147h67q-140 -123 -140 -305q0 -29 7 -60.5t21.5 -64t43.5 -53t67 -20.5q48 0 78.5 42.5t30.5 116.5v158h55v-154q0 -79 30 -121t79 -42q38 0 67 20.5t43.5 53t21.5 64t7 60.5q0 87 -37 166t-106 139h74
q68 -70 96.5 -142.5t28.5 -161.5q0 -103 -53 -176.5t-142 -73.5q-44 0 -86.5 30t-51.5 80q-17 -54 -59 -82t-86 -28z" />
    <glyph glyph-name="Wgrave" unicode="&#x1e80;" horiz-adv-x="1029" 
d="M586 748l-211 69l20 51l208 -83zM242 0l-208 707h63l195 -672l200 498l-59 174h61l230 -673l230 673h58l-242 -707h-94l-157 457l-184 -457h-93z" />
    <glyph glyph-name="wgrave" unicode="&#x1e81;" horiz-adv-x="867" 
d="M498 623l-180 125l30 44l176 -132zM199 0l-177 546h58l160 -510l161 510h76l142 -510l178 510h55l-195 -546h-80l-122 426l-17 71l-19 -70l-140 -427h-80z" />
    <glyph glyph-name="Wacute" unicode="&#x1e82;" horiz-adv-x="1029" 
d="M444 748l-15 35l205 89l20 -50zM242 0l-208 707h63l195 -672l200 498l-59 174h61l230 -673l230 673h58l-242 -707h-94l-157 457l-184 -457h-93z" />
    <glyph glyph-name="wacute" unicode="&#x1e83;" horiz-adv-x="867" 
d="M386 623l-23 35l175 130l29 -40zM199 0l-177 546h58l160 -510l161 510h76l142 -510l178 510h55l-195 -546h-80l-122 426l-17 71l-19 -70l-140 -427h-80z" />
    <glyph glyph-name="Wdieresis" unicode="&#x1e84;" horiz-adv-x="1029" 
d="M428 750l-46 47l46 46l46 -46zM612 750l-46 47l46 46l47 -46zM242 0l-208 707h63l195 -672l200 498l-59 174h61l230 -673l230 673h58l-242 -707h-94l-157 457l-184 -457h-93z" />
    <glyph glyph-name="wdieresis" unicode="&#x1e85;" horiz-adv-x="867" 
d="M344 669l-46 47l46 46l46 -46zM528 669l-46 47l46 46l47 -46zM199 0l-177 546h58l160 -510l161 510h76l142 -510l178 510h55l-195 -546h-80l-122 426l-17 71l-19 -70l-140 -427h-80z" />
    <glyph glyph-name="uni1EBC" unicode="&#x1ebc;" horiz-adv-x="574" 
d="M378 754q-20 0 -60 18.5t-58 18.5q-35 0 -69 -24l-22 38q41 36 88 36q25 0 64.5 -18.5t54.5 -18.5q37 0 58 26l24 -36q-29 -40 -80 -40zM112 0v707h378v-49h-319v-277h297v-52h-297v-278h342v-51h-401z" />
    <glyph glyph-name="uni1EBD" unicode="&#x1ebd;" horiz-adv-x="535" 
d="M342 648q-23 0 -62 18.5t-61 18.5q-37 0 -68 -24l-23 38l5 4q5 4 9.5 7.5t13 8t17.5 7.5t22.5 5.5t27.5 2.5q26 0 65 -18t58 -18q38 0 66 28l24 -36q-36 -42 -94 -42zM307 -12q-121 0 -184.5 63t-63.5 212t63.5 223t167.5 74q188 0 188 -272v-20h-362q1 -72 17 -119
t47.5 -70t66 -31.5t84.5 -8.5q61 0 129 26l11 -48q-65 -29 -164 -29zM116 314h303q0 94 -34.5 146.5t-103.5 52.5t-113 -50.5t-52 -148.5z" />
    <glyph glyph-name="Ygrave" unicode="&#x1ef2;" horiz-adv-x="577" 
d="M355 748l-211 69l20 51l208 -83zM257 0v279l-223 428h65l190 -374l203 374h61l-237 -430v-277h-59z" />
    <glyph glyph-name="ygrave" unicode="&#x1ef3;" horiz-adv-x="488" 
d="M307 623l-180 125l30 44l176 -132zM151 -220l75 220h-31l-173 546h61l125 -408l32 -100l34 98l141 410h58l-267 -766h-55z" />
    <glyph glyph-name="uni2000" unicode="&#x2000;" horiz-adv-x="500" 
 />
    <glyph glyph-name="uni2001" unicode="&#x2001;" horiz-adv-x="1000" 
 />
    <glyph glyph-name="uni2002" unicode="&#x2002;" horiz-adv-x="500" 
 />
    <glyph glyph-name="uni2003" unicode="&#x2003;" horiz-adv-x="1000" 
 />
    <glyph glyph-name="uni2004" unicode="&#x2004;" horiz-adv-x="333" 
 />
    <glyph glyph-name="uni2005" unicode="&#x2005;" horiz-adv-x="250" 
 />
    <glyph glyph-name="uni2006" unicode="&#x2006;" horiz-adv-x="167" 
 />
    <glyph glyph-name="uni2007" unicode="&#x2007;" horiz-adv-x="600" 
 />
    <glyph glyph-name="uni2008" unicode="&#x2008;" horiz-adv-x="278" 
 />
    <glyph glyph-name="uni2009" unicode="&#x2009;" horiz-adv-x="160" 
 />
    <glyph glyph-name="uni200A" unicode="&#x200a;" horiz-adv-x="80" 
 />
    <glyph glyph-name="uni200B" unicode="&#x200b;" horiz-adv-x="0" 
 />
    <glyph glyph-name="uni200C" unicode="&#x200c;" horiz-adv-x="0" 
 />
    <glyph glyph-name="uni200D" unicode="&#x200d;" horiz-adv-x="0" 
 />
    <glyph glyph-name="uni2012" unicode="&#x2012;" horiz-adv-x="400" 
d="M0 276v49h400v-49h-400z" />
    <glyph glyph-name="endash" unicode="&#x2013;" horiz-adv-x="712" 
d="M106 261v51h500v-51h-500z" />
    <glyph glyph-name="emdash" unicode="&#x2014;" horiz-adv-x="982" 
d="M106 261v51h770v-51h-770z" />
    <glyph glyph-name="quoteleft" unicode="&#x2018;" horiz-adv-x="182" 
d="M61 573v24q0 91 34 159h48q-26 -69 -26 -120v-63h-56z" />
    <glyph glyph-name="quoteright" unicode="&#x2019;" horiz-adv-x="182" 
d="M52 572q26 69 26 120v63h56v-24q0 -91 -34 -159h-48z" />
    <glyph glyph-name="quotesinglbase" unicode="&#x201a;" horiz-adv-x="202" 
d="M48 -122q24 86 24 120v64h58v-26q0 -84 -35 -158h-47z" />
    <glyph glyph-name="quotedblleft" unicode="&#x201c;" horiz-adv-x="314" 
d="M61 573v24q0 93 35 159h47q-26 -69 -26 -120v-63h-56zM193 573v24q0 91 34 159h48q-26 -69 -26 -120v-63h-56z" />
    <glyph glyph-name="quotedblright" unicode="&#x201d;" horiz-adv-x="313" 
d="M52 572q26 69 26 120v63h56v-24q0 -91 -34 -159h-48zM184 572q26 69 26 120v63h56v-24q0 -93 -35 -159h-47z" />
    <glyph glyph-name="quotedblbase" unicode="&#x201e;" horiz-adv-x="335" 
d="M47 -122q25 78 25 120v64h57v-26q0 -88 -35 -158h-47zM181 -122q26 72 26 120v64h56v-26q0 -92 -35 -158h-47z" />
    <glyph glyph-name="dagger" unicode="&#x2020;" horiz-adv-x="461" 
d="M201 0l6 529l-167 -6v54l167 -6l-6 183h58l-5 -183l167 6v-54l-166 6l5 -529h-59z" />
    <glyph glyph-name="daggerdbl" unicode="&#x2021;" horiz-adv-x="504" 
d="M222 0l5 181l-166 -5v55l166 -6v303l-166 -5v54l166 -5l-5 182h58l-5 -182l167 5v-54l-167 5v-303l167 6v-55l-167 5l5 -181h-58z" />
    <glyph glyph-name="bullet" unicode="&#x2022;" horiz-adv-x="404" 
d="M202 208q-61 0 -103 40.5t-42 103.5t42 104t103 41t103 -40t42 -105q0 -61 -42.5 -102.5t-102.5 -41.5z" />
    <glyph glyph-name="ellipsis" unicode="&#x2026;" horiz-adv-x="711" 
d="M72 0v76h71v-76h-71zM314 0v76h71v-76h-71zM568 0v76h71v-76h-71z" />
    <glyph glyph-name="perthousand" unicode="&#x2030;" horiz-adv-x="1117" 
d="M196 396q-64 0 -103 37.5t-39 115.5t42 121.5t103 43.5q144 0 144 -157q0 -74 -42 -117.5t-105 -43.5zM196 440q45 0 71.5 31.5t26.5 85.5q0 53 -23.5 84.5t-71.5 31.5q-42 0 -68 -32t-26 -92q0 -109 91 -109zM569 -8q-64 0 -103 37.5t-39 115.5t42 121.5t103 43.5
q144 0 144 -157q0 -74 -42 -117.5t-105 -43.5zM569 36q45 0 71.5 31.5t26.5 85.5q0 53 -23.5 84.5t-71.5 31.5q-42 0 -68 -32t-26 -92q0 -109 91 -109zM917 -8q-64 0 -103 37.5t-39 115.5t42 121.5t103 43.5q144 0 144 -157q0 -74 -42 -117.5t-105 -43.5zM917 36
q45 0 71.5 31.5t26.5 85.5q0 53 -23.5 84.5t-71.5 31.5q-42 0 -68 -32t-26 -92q0 -109 91 -109zM129 64l-31 34l521 532l31 -33z" />
    <glyph glyph-name="guilsinglleft" unicode="&#x2039;" horiz-adv-x="264" 
d="M157 54l-101 218l101 218l47 -17l-86 -201l85 -199z" />
    <glyph glyph-name="guilsinglright" unicode="&#x203a;" horiz-adv-x="264" 
d="M107 54l-46 21l85 197l-86 201l47 17l101 -218z" />
    <glyph glyph-name="uni203D" unicode="&#x203d;" horiz-adv-x="369" 
d="M108 159l-3 126v222h55v-140q36 36 50.5 51.5t33 46t18.5 55.5q0 35 -19 62t-50.5 42.5t-62.5 23.5t-65 11l12 50q60 -5 111.5 -23.5t90.5 -60t39 -99.5q0 -35 -18.5 -69.5t-41.5 -57t-54 -51.5t-44 -46v-17l-2 -126h-50zM100 0v71h69v-71h-69z" />
    <glyph glyph-name="fraction" unicode="&#x2044;" horiz-adv-x="114" 
d="M-186 80l-34 34l522 533l32 -33z" />
    <glyph glyph-name="zerosuperior" unicode="&#x2070;" horiz-adv-x="355" 
d="M175 410q-145 0 -145 183q0 53 12.5 94t48 70t92.5 29q143 0 143 -182q0 -194 -151 -194zM177 454q97 0 97 146q0 142 -93 142q-99 0 -99 -149q0 -64 23.5 -101.5t71.5 -37.5z" />
    <glyph glyph-name="i.superior" unicode="&#x2071;" horiz-adv-x="218" 
d="M84 416v360h51v-360h-51zM109 845l-43 44l43 42l43 -42z" />
    <glyph glyph-name="foursuperior" unicode="&#x2074;" horiz-adv-x="330" 
d="M195 415v91h-171v49l140 225h84v-231h65v-43h-65v-91h-53zM69 549h126v201z" />
    <glyph glyph-name="fivesuperior" unicode="&#x2075;" horiz-adv-x="317" 
d="M148 407q-50 0 -100 13l14 44q47 -12 85 -12q35 0 56.5 19.5t21.5 49.5q0 35 -20 53t-56 18q-20 0 -87 -5v193h209v-42h-159v-104q1 0 17 0.5t28 0.5q55 0 89 -30t34 -79q0 -54 -37 -86.5t-95 -32.5z" />
    <glyph glyph-name="sixsuperior" unicode="&#x2076;" horiz-adv-x="330" 
d="M174 408q-67 0 -100 36.5t-33 123.5q0 100 47.5 159t124.5 59q34 0 69 -11l-13 -42q-34 9 -61 9q-43 0 -72 -30.5t-37 -85.5q37 16 79 16q57 0 89.5 -29.5t32.5 -82.5q0 -57 -36 -89.5t-90 -32.5zM177 450q30 0 49 21t19 54q0 36 -19.5 55.5t-50.5 19.5q-36 0 -78 -15
q0 -27 1 -39q3 -55 20.5 -75.5t58.5 -20.5z" />
    <glyph glyph-name="sevensuperior" unicode="&#x2077;" horiz-adv-x="270" 
d="M79 402l-48 20l170 311h-197v47h254v-39z" />
    <glyph glyph-name="eightsuperior" unicode="&#x2078;" horiz-adv-x="332" 
d="M164 409q-60 0 -96.5 23.5t-36.5 72.5q0 58 72 106q-59 32 -59 84q0 41 36 66t89 25q58 0 89.5 -23.5t31.5 -61.5q0 -56 -75 -93q86 -40 86 -96q0 -52 -37.5 -77.5t-99.5 -25.5zM165 448q35 0 58.5 17.5t23.5 51.5q0 6 -1.5 11.5t-5.5 10.5t-8.5 9t-11.5 8.5t-12.5 8
t-15.5 7.5t-16 6.5t-17 7t-17 7.5q-59 -34 -59 -81q0 -64 82 -64zM175 625q60 33 60 69q0 50 -68 50q-73 0 -73 -55q0 -19 20 -32.5t61 -31.5z" />
    <glyph glyph-name="ninesuperior" unicode="&#x2079;" horiz-adv-x="329" 
d="M129 408q-34 0 -69 11l13 42q34 -9 61 -9q42 0 71.5 30.5t36.5 85.5q-34 -16 -78 -16q-57 0 -89.5 29.5t-32.5 82.5q0 57 36 89.5t90 32.5q67 0 100 -36.5t33 -123.5q0 -100 -47.5 -159t-124.5 -59zM167 594q35 0 78 15q-1 79 -17.5 107t-62.5 28q-30 0 -49 -21t-19 -54
q0 -36 19.5 -55.5t50.5 -19.5z" />
    <glyph glyph-name="uni207A" unicode="&#x207a;" horiz-adv-x="399" 
d="M172 453v140h-141v45h141v144h47v-144h149v-45h-149v-140h-47z" />
    <glyph glyph-name="minussuperior" unicode="&#x207b;" horiz-adv-x="395" 
d="M31 591v45h333v-45h-333z" />
    <glyph glyph-name="uni207C" unicode="&#x207c;" horiz-adv-x="398" 
d="M31 529v45h333v-45h-333zM31 651v45h333v-45h-333z" />
    <glyph glyph-name="parenleftsuperior" unicode="&#x207d;" horiz-adv-x="233" 
d="M183 269q-6 4 -15.5 13t-34 39.5t-43.5 66t-34.5 94t-15.5 122.5t14.5 120.5t35.5 91.5t42.5 60.5t35.5 36.5l15 11l30 -35q-5 -4 -13.5 -10.5t-29.5 -32.5t-37 -55.5t-29.5 -80t-13.5 -105.5q0 -56 12.5 -107.5t31 -85.5t36.5 -59.5t30 -36.5l13 -12z" />
    <glyph glyph-name="parenrightsuperior" unicode="&#x207e;" horiz-adv-x="233" 
d="M50 269l-30 35q5 4 13.5 12t29.5 36.5t37 60.5t29.5 84t13.5 108q0 55 -12.5 105t-30.5 81t-36.5 54.5t-31.5 33.5l-12 10l30 35q6 -4 15.5 -11.5t34 -35.5t43.5 -61.5t34.5 -90.5t15.5 -121t-14.5 -122t-35.5 -95t-42.5 -65t-36.5 -40z" />
    <glyph glyph-name="n.superior" unicode="&#x207f;" horiz-adv-x="427" 
d="M66 416v360h51v-39q58 37 97 45q18 4 38 4q38 0 62 -12t34.5 -34.5t13.5 -42.5t3 -48v-233h-50v222q0 50 -15 76.5t-60 26.5q-46 0 -123 -48v-277h-51z" />
    <glyph glyph-name="zeroinferior" unicode="&#x2080;" horiz-adv-x="355" 
d="M175 -5q-145 0 -145 183q0 53 12.5 94t48 70t92.5 29q143 0 143 -182q0 -194 -151 -194zM177 39q97 0 97 146q0 142 -93 142q-99 0 -99 -149q0 -64 23.5 -101.5t71.5 -37.5z" />
    <glyph glyph-name="oneinferior" unicode="&#x2081;" horiz-adv-x="256" 
d="M123 0v323h-93v42l146 4v-369h-53z" />
    <glyph glyph-name="twoinferior" unicode="&#x2082;" horiz-adv-x="307" 
d="M18 0v45q16 12 51.5 37.5t50 37t39 32.5t34.5 35.5t18.5 34t8.5 38.5q0 32 -19.5 49t-49.5 17q-58 0 -93 -37l-26 31q21 23 54.5 37t66.5 14q49 0 83.5 -27.5t34.5 -79.5q0 -17 -3 -33t-12 -31.5t-15 -27t-22.5 -26.5t-23.5 -22.5t-28 -22.5t-26.5 -19t-29 -19.5
t-26.5 -17.5h192v-45h-259z" />
    <glyph glyph-name="threeinferior" unicode="&#x2083;" horiz-adv-x="300" 
d="M135 -5q-59 0 -104 16l12 41q51 -14 87 -14q93 0 93 60q0 40 -28 55t-88 20v36q99 9 99 70q0 24 -19.5 37t-49.5 13q-33 0 -69 -17l-15 33q45 26 94 26q45 0 77 -24t32 -61q0 -29 -17 -53.5t-49 -36.5q41 -7 63.5 -34t22.5 -60q0 -55 -41.5 -81t-99.5 -26z" />
    <glyph glyph-name="fourinferior" unicode="&#x2084;" horiz-adv-x="330" 
d="M195 0v91h-171v49l140 225h84v-231h65v-43h-65v-91h-53zM69 134h126v201z" />
    <glyph glyph-name="fiveinferior" unicode="&#x2085;" horiz-adv-x="317" 
d="M148 -8q-50 0 -100 13l14 44q47 -12 85 -12q35 0 56.5 19.5t21.5 49.5q0 35 -20 53t-56 18q-20 0 -87 -5v193h209v-42h-159v-104q1 0 17 0.5t28 0.5q55 0 89 -30t34 -79q0 -54 -37 -86.5t-95 -32.5z" />
    <glyph glyph-name="sixinferior" unicode="&#x2086;" horiz-adv-x="330" 
d="M174 -7q-67 0 -100 36.5t-33 123.5q0 100 47.5 159t124.5 59q34 0 69 -11l-13 -42q-34 9 -61 9q-43 0 -72 -30.5t-37 -85.5q37 16 79 16q57 0 89.5 -29.5t32.5 -82.5q0 -57 -36 -89.5t-90 -32.5zM177 35q30 0 49 21t19 54q0 36 -19.5 55.5t-50.5 19.5q-36 0 -78 -15
q0 -27 1 -39q3 -55 20.5 -75.5t58.5 -20.5z" />
    <glyph glyph-name="seveninferior" unicode="&#x2087;" horiz-adv-x="270" 
d="M79 -13l-48 20l170 311h-197v47h254v-39z" />
    <glyph glyph-name="eightinferior" unicode="&#x2088;" horiz-adv-x="332" 
d="M164 -6q-60 0 -96.5 23.5t-36.5 72.5q0 58 72 106q-59 32 -59 84q0 41 36 66t89 25q58 0 89.5 -23.5t31.5 -61.5q0 -56 -75 -93q86 -40 86 -96q0 -52 -37.5 -77.5t-99.5 -25.5zM165 33q35 0 58.5 17.5t23.5 51.5q0 6 -1.5 11.5t-5.5 10.5t-8.5 9t-11.5 8.5t-12.5 8
t-15.5 7.5t-16 6.5t-17 7t-17 7.5q-59 -34 -59 -81q0 -64 82 -64zM175 210q60 33 60 69q0 50 -68 50q-73 0 -73 -55q0 -19 20 -32.5t61 -31.5z" />
    <glyph glyph-name="nineinferior" unicode="&#x2089;" horiz-adv-x="329" 
d="M129 -7q-34 0 -69 11l13 42q34 -9 61 -9q42 0 71.5 30.5t36.5 85.5q-34 -16 -78 -16q-57 0 -89.5 29.5t-32.5 82.5q0 57 36 89.5t90 32.5q67 0 100 -36.5t33 -123.5q0 -100 -47.5 -159t-124.5 -59zM167 179q35 0 78 15q-1 79 -17.5 107t-62.5 28q-30 0 -49 -21t-19 -54
q0 -36 19.5 -55.5t50.5 -19.5z" />
    <glyph glyph-name="plus.inferior" unicode="&#x208a;" horiz-adv-x="399" 
d="M172 37v140h-141v45h141v144h47v-144h149v-45h-149v-140h-47z" />
    <glyph glyph-name="minus.inferior" unicode="&#x208b;" horiz-adv-x="395" 
d="M31 175v45h333v-45h-333z" />
    <glyph glyph-name="equal.inferior" unicode="&#x208c;" horiz-adv-x="398" 
d="M31 113v45h333v-45h-333zM31 235v45h333v-45h-333z" />
    <glyph glyph-name="parenleft.inferior" unicode="&#x208d;" horiz-adv-x="233" 
d="M183 -147q-6 4 -15.5 13t-34 39.5t-43.5 66t-34.5 94t-15.5 122.5t14.5 120.5t35.5 91.5t42.5 60.5t35.5 36.5l15 11l30 -35q-5 -4 -13.5 -10.5t-29.5 -32.5t-37 -55.5t-29.5 -80t-13.5 -105.5q0 -56 12.5 -107.5t31 -85.5t36.5 -59.5t30 -36.5l13 -12z" />
    <glyph glyph-name="parenright.inferior" unicode="&#x208e;" horiz-adv-x="233" 
d="M50 -147l-30 35q5 4 13.5 12t29.5 36.5t37 60.5t29.5 84t13.5 108q0 55 -12.5 105t-30.5 81t-36.5 54.5t-31.5 33.5l-12 10l30 35q6 -4 15.5 -11.5t34 -35.5t43.5 -61.5t34.5 -90.5t15.5 -121t-14.5 -122t-35.5 -95t-42.5 -65t-36.5 -40z" />
    <glyph glyph-name="a.inferior" unicode="&#x2090;" horiz-adv-x="398" 
d="M141 -5q-111 0 -111 101q0 106 148 108l96 2v50q0 43 -24 56t-79 13q-38 0 -98 -17l-11 40q53 21 124 21q136 0 136 -96v-202q0 -34 34 -34l-3 -41h-15q-60 2 -64 46q-1 0 -7.5 -5t-10 -7.5t-12 -7.5t-15.5 -8t-17.5 -7t-21 -6.5t-23.5 -4t-26 -1.5zM153 36q49 0 121 49
v82l-96 -5q-100 -6 -100 -61q0 -35 17.5 -50t57.5 -15z" />
    <glyph glyph-name="e.inferior" unicode="&#x2091;" horiz-adv-x="383" 
d="M219 -6q-85 0 -132 41t-47 139q0 102 47.5 148.5t122.5 46.5q67 0 103.5 -45.5t36.5 -134.5v-18h-260q3 -78 40.5 -105.5t104.5 -27.5q55 0 100 16l9 -42q-56 -18 -125 -18zM91 210h205q0 55 -26 87.5t-68 32.5q-43 0 -74.5 -31t-36.5 -89z" />
    <glyph glyph-name="o.inferior" unicode="&#x2092;" horiz-adv-x="425" 
d="M208 -8q-76 0 -122 48.5t-46 135.5q0 90 50 142t124 52q81 0 126 -49t45 -141q0 -91 -51 -139.5t-126 -48.5zM213 34q61 0 90 42.5t29 103.5q0 59 -29 103.5t-91 44.5q-61 0 -91 -44.5t-30 -103.5q0 -62 30.5 -104t91.5 -42z" />
    <glyph glyph-name="x.inferior" unicode="&#x2093;" horiz-adv-x="362" 
d="M17 0l138 185l-129 175h56l98 -137l100 137h55l-129 -175l139 -185h-60l-105 146l-105 -146h-58z" />
    <glyph glyph-name="h.inferior" unicode="&#x2095;" horiz-adv-x="427" 
d="M66 0v498h51v-177q58 37 97 45q18 4 38 4q123 0 123 -137v-233h-50v222q0 103 -85 103q-46 0 -123 -48v-277h-51z" />
    <glyph glyph-name="k.inferior" unicode="&#x2096;" horiz-adv-x="381" 
d="M357 -7q-58 5 -107 67l-104 130l155 170h59l-154 -168l75 -92q41 -52 85 -68zM73 0v498h50v-498h-50z" />
    <glyph glyph-name="l.inferior" unicode="&#x2097;" horiz-adv-x="183" 
d="M66 0v498h51v-498h-51z" />
    <glyph glyph-name="m.inferior" unicode="&#x2098;" horiz-adv-x="656" 
d="M66 0v360h51v-39q3 2 16.5 11.5t21.5 14t22.5 11t30.5 9.5t34 3q76 0 100 -52q1 1 15 9.5t20 12t20.5 10.5t25.5 10.5t27 6.5t31 3q38 0 62 -12t34.5 -34.5t13.5 -42.5t3 -48v-233h-51v222q0 51 -14.5 77t-59.5 26q-49 0 -116 -46q2 -15 2 -46v-233h-50v222
q0 50 -15 76.5t-60 26.5q-36 0 -113 -48v-277h-51z" />
    <glyph glyph-name="n.inferior" unicode="&#x2099;" horiz-adv-x="427" 
d="M66 0v360h51v-39q58 37 97 45q18 4 38 4q38 0 62 -12t34.5 -34.5t13.5 -42.5t3 -48v-233h-50v222q0 50 -15 76.5t-60 26.5q-46 0 -123 -48v-277h-51z" />
    <glyph glyph-name="p.inferior" unicode="&#x209a;" horiz-adv-x="422" 
d="M66 -145v505h50v-27q46 31 110 31q71 0 113.5 -46.5t42.5 -126.5q0 -104 -52 -150t-130 -46q-59 0 -83 4v-144h-51zM202 38q59 0 93.5 39t34.5 101q0 63 -26.5 104t-87.5 41q-24 0 -55.5 -12t-43.5 -21v-246q48 -6 85 -6z" />
    <glyph glyph-name="s.inferior" unicode="&#x209b;" horiz-adv-x="333" 
d="M157 -7q-33 0 -72 6t-49 10l8 44q48 -15 104 -15q43 0 72 14.5t29 39.5q0 24 -20.5 39.5t-50.5 24.5t-59.5 19.5t-50 33.5t-20.5 58q0 48 38 74.5t94 26.5q62 0 97 -14l-10 -41q-49 13 -93 13q-34 0 -55 -14t-21 -37q0 -24 20.5 -40.5t50 -26.5t59.5 -21.5t50.5 -33.5
t20.5 -54q0 -38 -24 -63.5t-54.5 -34t-63.5 -8.5z" />
    <glyph glyph-name="t.inferior" unicode="&#x209c;" horiz-adv-x="298" 
d="M200 -7q-26 0 -39 1t-32 6t-27.5 15.5t-15.5 31t-7 51.5v219h-53v43h53v74h50v-74h112v-43h-112v-218q0 -39 13.5 -50.5t56.5 -11.5q12 0 26 2t21 4l8 2l9 -41q-33 -11 -63 -11z" />
    <glyph glyph-name="colonsign" unicode="&#x20a1;" horiz-adv-x="761" 
d="M56 -75l94 183q-81 96 -81 241q0 165 94.5 265.5t260.5 100.5q7 0 19 -0.5t18 -0.5l44 86h55l-46 -90q57 -8 92 -20l57 110h58l-382 -745q48 -13 107 -13q89 0 166 25l16 -49q-64 -28 -200 -28q-62 0 -115 15l-41 -80h-58l50 97q-45 20 -78 49l-75 -146h-55zM290 73
l291 567q-47 14 -94 18l-273 -532q34 -34 76 -53zM180 167l253 494q-132 0 -217 -73.5t-85 -228.5q0 -116 49 -192z" />
    <glyph glyph-name="uni20A2" unicode="&#x20a2;" horiz-adv-x="685" 
d="M421 -10q-166 0 -262.5 100.5t-96.5 258.5q0 165 94.5 265.5t260.5 100.5q24 0 47 -1.5t40 -3.5t33.5 -4.5t27.5 -5.5t21.5 -6t16 -5t9.5 -4l5 -2l-17 -51q-87 29 -181 29q-60 0 -111 -16.5t-93.5 -51t-66.5 -94.5t-24 -140q0 -132 60.5 -208t161.5 -99v414h55v-73
q19 35 60 59t90 24q40 0 61 -7l-11 -48q-30 7 -62 7q-79 0 -138 -98v-287q12 -1 38 -1q89 0 166 25l16 -49q-64 -28 -200 -28z" />
    <glyph glyph-name="franc" unicode="&#x20a3;" horiz-adv-x="694" 
d="M102 0v707h395v-49h-336v-237h272v-73q19 34 64.5 58.5t95.5 24.5q40 0 61 -7l-11 -48q-30 7 -62 7q-89 0 -148 -98v-285h-55v368h-217v-368h-59z" />
    <glyph glyph-name="lira" unicode="&#x20a4;" horiz-adv-x="527" 
d="M77 0v53q40 13 61.5 87t23.5 119h-99v52h104l3 73h-107v52h107v76q0 37 8.5 67.5t20 50t32 34.5t35.5 22.5t41.5 12.5t38 6.5t36.5 2.5t27 1l3 -49q-82 -6 -109 -15q-82 -31 -80 -137q0 -13 0.5 -37t0.5 -35h188v-52h-189q-2 -50 -4 -73h193v-52h-196q-15 -150 -69 -207
h339v-52h-409z" />
    <glyph glyph-name="mill" unicode="&#x20a5;" horiz-adv-x="906" 
d="M147 -134l277 540q-7 49 -33 76.5t-84 27.5q-48 0 -171 -82v-428h-55v546h55v-67q96 79 176 79q112 0 149 -79l135 262h55l-110 -214q62 31 119 31q45 0 77.5 -12.5t49.5 -31t27 -48t12.5 -54t2.5 -57.5v-355h-55v339q0 39 -4 65t-15.5 52t-37.5 39t-66 13
q-59 0 -148 -56l-24 -47q3 -26 3 -50v-355h-54v306l-226 -440h-55z" />
    <glyph glyph-name="uni20A6" unicode="&#x20a6;" horiz-adv-x="857" 
d="M161 0v253h-103v50h103v128h-103v50h103v226h97l127 -226h253v226h61v-226h100v-50h-100v-128h100v-50h-100v-253h-109l-142 253h-228v-253h-59zM220 303h200l-71 128h-129v-128zM486 303h152v128h-224zM220 481h101l-101 181v-181zM638 34v219h-124z" />
    <glyph glyph-name="uni20A7" unicode="&#x20a7;" horiz-adv-x="1337" 
d="M102 0v707h218q103 0 160 -55t57 -158q0 -99 -67 -161.5t-202 -62.5h-23v52h29q91 0 145.5 39.5t54.5 127.5q0 87 -43.5 128t-132.5 41h-137v-658h-59zM804 -12q-78 0 -117.5 34.5t-39.5 124.5v347h-80v52h80v112h53v-112h172v-52h-171v-346q0 -62 26.5 -85.5t81.5 -23.5
q48 0 86 16l13 -48q-49 -19 -104 -19zM1086 -12q-73 0 -149 24l12 51q78 -26 137 -26q65 0 104.5 25.5t39.5 70.5q0 39 -28.5 66t-69 43.5t-80.5 34.5t-68.5 53t-28.5 86q0 64 48.5 104t114.5 40q77 0 135 -25l-15 -47q-54 24 -119 24q-52 0 -81.5 -26t-29.5 -66
q0 -39 28 -66t68 -44t80.5 -35t68.5 -51.5t28 -82.5q0 -77 -59 -115t-136 -38z" />
    <glyph glyph-name="uni20A8" unicode="&#x20a8;" horiz-adv-x="984" 
d="M724 -11q-94 0 -151 26t-98 86l-132 196q-28 -6 -74 -6h-107v-291h-60v707h219q101 0 159 -50t58 -151q0 -67 -33.5 -118.5t-104.5 -75.5l120 -175q41 -59 85 -79t115 -20q67 0 113.5 26.5t46.5 70.5q0 39 -28 65.5t-68 42t-80.5 33.5t-68.5 53.5t-28 88.5q0 68 46 105
t125 37q49 0 119 -21l-11 -47q-68 20 -119 20q-52 0 -81.5 -25t-29.5 -65q0 -39 28 -66t68 -44t80.5 -35t68.5 -51.5t28 -82.5q0 -56 -34 -92.5t-77.5 -49t-93.5 -12.5zM162 346h113q94 0 147 34t53 120q0 85 -44 121.5t-132 36.5h-137v-312z" />
    <glyph glyph-name="uni20A9" unicode="&#x20a9;" horiz-adv-x="1101" 
d="M61 468v50h55l-55 189h63l55 -189h334l6 15l-59 174h61l64 -189h331l65 189h58l-65 -189h66v-50h-83l-44 -128h127v-50h-144l-99 -290h-94l-100 290h-124l-117 -290h-93l-86 290h-122v50h107l-37 128h-70zM193 468l37 -128h211l52 128h-300zM602 468l44 -128h209l44 128
h-297zM245 290l74 -255l102 255h-176zM663 290l88 -256l87 256h-175zM546 457l-47 -117h87z" />
    <glyph glyph-name="uni20AA" unicode="&#x20aa;" horiz-adv-x="849" 
d="M302 0v466h58v-415h159q30 0 54.5 4t42.5 9.5t32 18t23 22t15 30t9.5 34t5 41.5t1.5 44v50v10v393h58v-388q0 -44 -0.5 -67t-2.5 -57.5t-7 -52t-13 -42t-21 -37t-31.5 -27t-43.5 -21t-58 -11t-74 -4.5h-207zM102 0v707h207q41 0 74 -4.5t58 -11t43.5 -21t31.5 -27t21 -37
t13 -42t7 -52t2.5 -57.5t0.5 -67v-147h-58v152q0 126 -12 167q-21 72 -99 89q-31 7 -72 7h-159v-656h-58z" />
    <glyph glyph-name="dong" unicode="&#x20ab;" horiz-adv-x="589" 
d="M271 92q-42 0 -73 7.5t-63.5 29.5t-50 69.5t-17.5 119.5q0 112 63 176t166 64q64 0 118 -16v83h-157v43h157v86h55v-86h79v-43h-79v-525h-55v56q-66 -64 -143 -64zM270 140q63 0 144 70v281q-56 20 -119 20q-171 0 -171 -196q0 -175 146 -175zM99 0v42h371v-42h-371z" />
    <glyph glyph-name="Euro" unicode="&#x20ac;" horiz-adv-x="589" 
d="M385 -11q-103 0 -173.5 51t-96.5 136h-65v51h55q-3 20 -3 42q0 32 4 56h-56v51h68q27 84 95 132t169 48q83 0 162 -30l-17 -50q-83 27 -143 27q-71 0 -126.5 -31.5t-79.5 -95.5h267v-51h-280q-3 -23 -3 -48q0 -27 3 -50h280v-51h-267q25 -68 84 -102t137 -34q58 0 132 24
l16 -48q-61 -27 -162 -27z" />
    <glyph glyph-name="uni20AD" unicode="&#x20ad;" horiz-adv-x="657" 
d="M140 0v354h-95v50h95v303h59v-303h54l269 303h74l-274 -303h239v-50h-238l294 -354h-79l-291 354h-48v-354h-59z" />
    <glyph glyph-name="uni20AE" unicode="&#x20ae;" horiz-adv-x="633" 
d="M287 0v214l-139 -81v62l139 81v110l-139 -81v58l139 81v210h-247v53h553v-53h-247v-175l137 80v-58l-137 -80v-110l137 80v-62l-137 -80v-249h-59z" />
    <glyph glyph-name="uni20B1" unicode="&#x20b1;" horiz-adv-x="738" 
d="M52 532v50h103v125h218q160 0 203 -125h113v-50h-102q3 -18 3 -38t-3 -40h102v-50h-116q-54 -134 -252 -134h-23v52h29q137 0 181 82h-294v-404h-59v404h-103v50h103v78h-103zM527 489q0 15 -4 43h-309v-78h310q3 17 3 35zM214 658v-76h295q-38 76 -158 76h-137z" />
    <glyph glyph-name="uni20B9" unicode="&#x20b9;" horiz-adv-x="532" 
d="M348 619l-177 -104v-110l177 104v-62l-177 -104v-289q64 0 116 28.5t84.5 77.5t52 106t26.5 120l53 -28q-5 -65 -27 -126.5t-61 -114.5t-102.5 -85t-141.5 -32h-59v309l-99 -58v62l99 58v110l-99 -58v58l99 58v168h59v-134l177 104v-58z" />
    <glyph glyph-name="uni20BA" unicode="&#x20ba;" horiz-adv-x="645" 
d="M85 480v49h336q-7 69 -50.5 99t-123.5 30h-162v49h514v-49h-179q58 -42 65 -129h114v-49h-114q-14 -126 -137 -168l101 -144q43 -58 76 -89t77 -45l-13 -46q-95 16 -186 147l-112 162q-29 -6 -74 -6h-132v55h138q88 0 140.5 29.5t58.5 104.5h-337z" />
    <glyph glyph-name="uni2113" unicode="&#x2113;" 
d="M232 -12q-59 0 -83.5 38.5t-24.5 121.5v133q-29 -22 -56 -41l-27 35q49 37 83 67v185q0 129 29 176t100 47q47 0 72 -26.5t25 -91.5q0 -67 -43.5 -149t-127.5 -164v-160q0 -71 13 -95.5t47 -24.5q44 0 71 40l31 -25q-39 -66 -109 -66zM179 560v-172q111 126 111 232
q0 42 -10 62.5t-39 20.5q-33 0 -47.5 -34.5t-14.5 -108.5z" />
    <glyph glyph-name="uni2116" unicode="&#x2116;" horiz-adv-x="1004" 
d="M792 227q-64 0 -100.5 35t-36.5 94q0 62 39.5 98.5t100.5 36.5q68 0 104 -35t36 -97t-41 -97t-102 -35zM793 272q47 0 69 25t22 62q0 36 -22 62t-69 26q-45 0 -67.5 -26.5t-22.5 -61.5q0 -36 25.5 -61.5t64.5 -25.5zM650 85v52h295v-52h-295zM573 0h-93l-329 494l3 -28
v-466h-58v546h84l337 -502l-3 48v454h59v-546z" />
    <glyph glyph-name="uni2117" unicode="&#x2117;" horiz-adv-x="826" 
d="M568 360q0 -69 -44.5 -100t-114.5 -31h-55v-159h-49v418h134q62 0 95.5 -32.5t33.5 -95.5zM519 356q0 47 -21.5 68.5t-70.5 21.5h-73v-172h59q106 0 106 82zM404 -94q-161 0 -253 101.5t-92 267.5q0 167 100.5 266t263.5 99q165 0 254 -102t89 -265q0 -166 -97 -266.5
t-265 -100.5zM407 -44q148 0 225.5 88.5t77.5 229.5q0 139 -78.5 227.5t-217.5 88.5q-143 0 -220.5 -87.5t-77.5 -226.5q0 -87 31 -158t98.5 -116.5t161.5 -45.5z" />
    <glyph glyph-name="uni2120" unicode="&#x2120;" horiz-adv-x="819" 
d="M178 348q-71 0 -119 20l13 43q53 -21 97 -21q49 0 76.5 15.5t27.5 41.5q0 29 -31.5 47.5t-68.5 27.5t-68.5 34t-31.5 65q0 48 36 73t92 25q62 0 97 -14l-10 -38q-49 13 -93 13q-34 0 -55 -14t-21 -37q0 -29 31.5 -48t68.5 -28.5t68.5 -34.5t31.5 -64q0 -56 -43.5 -81
t-97.5 -25zM378 352v355h69l107 -317l122 317h66v-355h-48v292l-114 -292h-56l-100 294v-294h-46z" />
    <glyph glyph-name="trademark" unicode="&#x2122;" horiz-adv-x="772" 
d="M331 352v355h69l107 -317l122 317h66v-355h-48v292l-114 -292h-56l-100 294v-294h-46zM143 352v312h-119v43h286v-43h-119v-312h-48z" />
    <glyph glyph-name="Omega" unicode="&#x2126;" horiz-adv-x="851" 
d="M45 0v54h242q-79 34 -137.5 118.5t-58.5 194.5q0 164 92 257.5t251 93.5t243.5 -99t84.5 -256q0 -95 -60 -181.5t-142 -127.5h246v-54h-306v54q200 148 200 310q0 135 -71.5 216.5t-203.5 81.5q-138 0 -205 -79.5t-67 -216.5q0 -34 5 -64t17.5 -56t23 -44.5t33 -42
t34.5 -35t41 -36t40 -34.5v-54h-302z" />
    <glyph glyph-name="estimated" unicode="&#x212e;" horiz-adv-x="635" 
d="M327 -8q-120 0 -198 72t-78 199t77.5 211t203.5 84q112 0 182 -64t70 -176v-50h-443v-67q0 -55 57 -107t134 -52q64 0 108.5 24.5t82.5 73.5l36 -28q-83 -120 -232 -120zM141 313h353v30q0 80 -41.5 126.5t-120.5 46.5q-83 0 -137 -47.5t-54 -125.5v-30z" />
    <glyph glyph-name="uni2139" unicode="&#x2139;" horiz-adv-x="800" 
d="M400 -8q-149 0 -255.5 106t-106.5 256q0 149 106.5 255.5t255.5 106.5t255.5 -106.5t106.5 -255.5q0 -150 -106.5 -256t-255.5 -106zM400 42q130 0 220.5 91t91.5 221q0 130 -91 221t-221 91t-221 -91t-91 -221t91 -221t221 -91zM400 455q-31 0 -53.5 22t-22.5 54
q0 30 23 51t53 21t53 -21t23 -51q0 -32 -22.5 -54t-53.5 -22zM327 138v283h145v-283h-145z" />
    <glyph glyph-name="uni213B" unicode="&#x213b;" horiz-adv-x="804" 
d="M754 0h-704v309h111v344h309l175 -175v-169h109v-309zM585 483l-109 110v-110h109zM606 309v135h-170v170h-236v-305h406zM715 39l-1 231h-625v-231h626zM390 529h-144v39h144v-39zM560 360h-314v38h314v-38zM390 444h-144v39h144v-39zM390 80h-144v39h144v-39z" />
    <glyph glyph-name="onethird" unicode="&#x2153;" horiz-adv-x="736" 
d="M150 415v323h-93v42l146 4v-369h-53zM92 80l-34 34l522 533l32 -33zM545 -5q-59 0 -104 16l12 41q51 -14 87 -14q93 0 93 60q0 40 -28 55t-88 20v36q99 9 99 70q0 24 -19.5 37t-49.5 13q-33 0 -69 -17l-15 33q45 26 94 26q45 0 77 -24t32 -61q0 -29 -17 -53.5t-49 -36.5
q41 -7 63.5 -34t22.5 -60q0 -55 -41.5 -81t-99.5 -26z" />
    <glyph glyph-name="twothirds" unicode="&#x2154;" horiz-adv-x="775" 
d="M32 415v45q16 12 51.5 37.5t50 37t39 32.5t34.5 35.5t18.5 34t8.5 38.5q0 32 -19.5 49t-49.5 17q-58 0 -93 -37l-26 31q21 23 54.5 37t66.5 14q49 0 83.5 -27.5t34.5 -79.5q0 -17 -3 -33t-12 -31.5t-15 -27t-22.5 -26.5t-23.5 -22.5t-28 -22.5t-26.5 -19t-29 -19.5
t-26.5 -17.5h192v-45h-259zM584 -5q-59 0 -104 16l12 41q51 -14 87 -14q93 0 93 60q0 40 -28 55t-88 20v36q99 9 99 70q0 24 -19.5 37t-49.5 13q-33 0 -69 -17l-15 33q45 26 94 26q45 0 77 -24t32 -61q0 -29 -17 -53.5t-49 -36.5q41 -7 63.5 -34t22.5 -60q0 -55 -41.5 -81
t-99.5 -26zM131 80l-34 34l522 533l32 -33z" />
    <glyph glyph-name="oneeighth" unicode="&#x215b;" horiz-adv-x="764" 
d="M150 415v323h-93v42l146 4v-369h-53zM92 80l-34 34l522 533l32 -33zM556 -6q-60 0 -96.5 23.5t-36.5 72.5q0 58 72 106q-59 32 -59 84q0 41 36 66t89 25q58 0 89.5 -23.5t31.5 -61.5q0 -56 -75 -93q86 -40 86 -96q0 -52 -37.5 -77.5t-99.5 -25.5zM557 33q35 0 58.5 17.5
t23.5 51.5q0 6 -1.5 11.5t-5.5 10.5t-8.5 9t-11.5 8.5t-12.5 8t-15.5 7.5t-16 6.5t-17 7t-17 7.5q-59 -34 -59 -81q0 -64 82 -64zM567 210q60 33 60 69q0 50 -68 50q-73 0 -73 -55q0 -19 20 -32.5t61 -31.5z" />
    <glyph glyph-name="threeeighths" unicode="&#x215c;" horiz-adv-x="774" 
d="M161 410q-59 0 -104 16l12 41q51 -14 87 -14q93 0 93 60q0 40 -28 55t-88 20v36q99 9 99 70q0 24 -19.5 37t-49.5 13q-33 0 -69 -17l-15 33q45 26 94 26q45 0 77 -24t32 -61q0 -29 -17 -53.5t-49 -36.5q41 -7 63.5 -34t22.5 -60q0 -55 -41.5 -81t-99.5 -26zM102 80
l-34 34l522 533l32 -33zM566 -6q-60 0 -96.5 23.5t-36.5 72.5q0 58 72 106q-59 32 -59 84q0 41 36 66t89 25q58 0 89.5 -23.5t31.5 -61.5q0 -56 -75 -93q86 -40 86 -96q0 -52 -37.5 -77.5t-99.5 -25.5zM567 33q35 0 58.5 17.5t23.5 51.5q0 6 -1.5 11.5t-5.5 10.5t-8.5 9
t-11.5 8.5t-12.5 8t-15.5 7.5t-16 6.5t-17 7t-17 7.5q-59 -34 -59 -81q0 -64 82 -64zM577 210q60 33 60 69q0 50 -68 50q-73 0 -73 -55q0 -19 20 -32.5t61 -31.5z" />
    <glyph glyph-name="fiveeighths" unicode="&#x215d;" horiz-adv-x="775" 
d="M176 407q-50 0 -100 13l14 44q47 -12 85 -12q35 0 56.5 19.5t21.5 49.5q0 35 -20 53t-56 18q-20 0 -87 -5v193h209v-42h-159v-104q1 0 17 0.5t28 0.5q55 0 89 -30t34 -79q0 -54 -37 -86.5t-95 -32.5zM103 80l-34 34l522 533l32 -33zM567 -6q-60 0 -96.5 23.5t-36.5 72.5
q0 58 72 106q-59 32 -59 84q0 41 36 66t89 25q58 0 89.5 -23.5t31.5 -61.5q0 -56 -75 -93q86 -40 86 -96q0 -52 -37.5 -77.5t-99.5 -25.5zM568 33q36 0 59 17.5t23 51.5q0 6 -1.5 11.5t-5.5 10.5t-8.5 9t-11.5 8.5t-12.5 8t-15.5 7.5t-16 6.5t-17 7t-17 7.5q-59 -34 -59 -81
q0 -64 82 -64zM578 210q60 33 60 69q0 50 -68 50q-73 0 -73 -55q0 -19 20 -32.5t61 -31.5z" />
    <glyph glyph-name="seveneighths" unicode="&#x215e;" horiz-adv-x="745" 
d="M124 402l-48 20l170 311h-197v47h254v-39zM73 80l-34 34l522 533l32 -33zM537 -6q-60 0 -96.5 23.5t-36.5 72.5q0 58 72 106q-59 32 -59 84q0 41 36 66t89 25q58 0 89.5 -23.5t31.5 -61.5q0 -56 -75 -93q86 -40 86 -96q0 -52 -37.5 -77.5t-99.5 -25.5zM538 33
q36 0 59 17.5t23 51.5q0 6 -1.5 11.5t-5.5 10.5t-8.5 9t-11.5 8.5t-12.5 8t-15.5 7.5t-16 6.5t-17 7t-17 7.5q-59 -34 -59 -81q0 -64 82 -64zM548 210q60 33 60 69q0 50 -68 50q-73 0 -73 -55q0 -19 20 -32.5t61 -31.5z" />
    <glyph glyph-name="uni2190" unicode="&#x2190;" horiz-adv-x="690" 
d="M271 74l-216 226l216 227l34 -34l-158 -168h543v-49h-543l159 -169z" />
    <glyph glyph-name="arrowup" unicode="&#x2191;" horiz-adv-x="745" 
d="M348 -16v543l-169 -159l-33 35l226 216l227 -216l-34 -34l-168 158v-543h-49z" />
    <glyph glyph-name="uni2192" unicode="&#x2192;" horiz-adv-x="690" 
d="M419 74l-34 34l158 168h-543v49h543l-159 169l35 33l216 -226z" />
    <glyph glyph-name="arrowdown" unicode="&#x2193;" horiz-adv-x="745" 
d="M373 -40l-227 216l34 34l168 -158v543h49v-543l169 159l33 -35z" />
    <glyph glyph-name="uni2196" unicode="&#x2196;" horiz-adv-x="745" 
d="M571 47l-383 384l1 -232h-50v314l314 1v-48h-231l384 -384z" />
    <glyph glyph-name="uni2197" unicode="&#x2197;" horiz-adv-x="745" 
d="M174 48l-35 35l384 383l-232 -1v50h314l1 -314h-48v231z" />
    <glyph glyph-name="uni2198" unicode="&#x2198;" horiz-adv-x="745" 
d="M292 49v48h231l-384 384l35 35l383 -384l-1 232h50v-314z" />
    <glyph glyph-name="uni2199" unicode="&#x2199;" horiz-adv-x="745" 
d="M140 50l-1 314h48v-231l384 384l35 -35l-384 -383l232 1v-50h-314z" />
    <glyph glyph-name="partialdiff" unicode="&#x2202;" horiz-adv-x="556" 
d="M272 -13q-47 0 -82.5 9t-66.5 31.5t-47 67t-16 108.5q0 90 56.5 156.5t157.5 66.5q28 0 55.5 -2.5t40 -5t37.5 -8t26 -5.5q-16 104 -80.5 170.5t-154.5 93.5l16 49q34 -9 65.5 -22.5t73 -44.5t71.5 -71.5t51 -107t21 -148.5q0 -177 -57.5 -257t-166.5 -80zM265 35
q96 0 134 72t38 216q0 6 -0.5 16.5t-0.5 15.5q-102 19 -173 19q-72 0 -110 -50.5t-38 -133.5q0 -71 39.5 -113t110.5 -42z" />
    <glyph glyph-name="Delta" unicode="&#x2206;" horiz-adv-x="660" 
d="M86 52h489l-179 469l-54 141l-63 -149zM5 0l298 707h82l275 -707h-655z" />
    <glyph glyph-name="product" unicode="&#x220f;" horiz-adv-x="674" 
d="M100 -219v877h-100v49h674v-49h-101v-877h-60v877h-353v-877h-60z" />
    <glyph glyph-name="summation" unicode="&#x2211;" horiz-adv-x="479" 
d="M30 -220v50l187 413l-188 413v51h430v-51h-373l190 -410l-188 -412h371v-54h-429z" />
    <glyph glyph-name="minus" unicode="&#x2212;" horiz-adv-x="600" 
d="M47 277v50h505v-50h-505z" />
    <glyph glyph-name="radical" unicode="&#x221a;" horiz-adv-x="587" 
d="M259 0l-123 492h-136v54h184l104 -436l16 -64l20 65l208 726h55l-240 -837h-88z" />
    <glyph glyph-name="infinity" unicode="&#x221e;" horiz-adv-x="959" 
d="M222 140q-79 0 -119 45t-40 106q0 68 44 112.5t119 44.5q28 0 54.5 -6.5t57 -23t46 -26t51.5 -36t44 -31.5q6 4 43.5 31t52.5 36t46 26t57.5 23.5t54.5 6.5q78 0 119.5 -43.5t41.5 -105.5q0 -63 -44.5 -110t-122.5 -47q-20 0 -39.5 3.5t-41 12.5t-36 15.5t-37.5 21.5
t-32.5 22t-35 26t-31.5 23q-3 -2 -42.5 -30.5t-53 -37t-46 -27t-58.5 -25t-52 -6.5zM228 188q17 0 36.5 6t35 12.5t38.5 20.5t34 22t34.5 24.5t28.5 20.5q-4 3 -29 21t-35.5 25t-34 22t-39 21.5t-36 12.5t-37.5 6q-48 0 -78 -30.5t-30 -75.5q0 -50 30 -79t82 -29zM732 188
q50 0 79 30.5t29 76.5q0 50 -31 78.5t-81 28.5q-13 0 -28 -3.5t-26.5 -7t-29 -13t-26.5 -14t-28 -17.5t-24.5 -17t-25 -18.5t-21.5 -15.5q4 -3 25.5 -18.5t30 -21.5t28.5 -19.5t33 -19.5t31 -14t34 -11.5t31 -3.5z" />
    <glyph glyph-name="integral" unicode="&#x222b;" horiz-adv-x="338" 
d="M-36 -231l-4 50q6 0 25.5 1.5t26.5 2.5t24 3.5t24.5 5t21 8.5t20 13t15.5 17.5t13 23.5t7 31t3 39v560q0 49 14 85t35.5 56.5t53.5 33t62.5 16.5t68.5 4l4 -51q-8 -1 -30.5 -3t-32.5 -3t-29.5 -5.5t-29 -10t-23 -16t-20 -24.5t-11.5 -35.5t-5 -47.5v-558
q0 -49 -13.5 -85.5t-35 -57.5t-53.5 -33t-62 -16t-69 -4z" />
    <glyph glyph-name="approxequal" unicode="&#x2248;" horiz-adv-x="600" 
d="M412 145q-55 0 -121.5 31.5t-104.5 31.5q-43 0 -92 -30l-27 41q60 46 125 46q54 0 115 -31.5t106 -31.5q37 0 87 33l33 -37q-58 -53 -121 -53zM412 348q-55 0 -121.5 31.5t-104.5 31.5q-43 0 -92 -30l-27 41q60 46 125 46q54 0 115 -31.5t106 -31.5q37 0 87 33l33 -37
q-58 -53 -121 -53z" />
    <glyph glyph-name="notequal" unicode="&#x2260;" horiz-adv-x="600" 
d="M44 11l136 169h-133v50h173l120 149h-293v50h333l123 152h57l-122 -152h114v-50h-154l-119 -149h273v-50h-313l-135 -169h-60z" />
    <glyph glyph-name="lessequal" unicode="&#x2264;" horiz-adv-x="600" 
d="M510 151l-421 159v87l421 159v-57l-398 -146l398 -145v-57zM83 0v52h433v-52h-433z" />
    <glyph glyph-name="greaterequal" unicode="&#x2265;" horiz-adv-x="600" 
d="M89 151v57l399 145l-399 146v57l421 -159v-87zM83 0v52h433v-52h-433z" />
    <glyph glyph-name="uni231A" unicode="&#x231a;" horiz-adv-x="786" 
d="M753 354q0 -150 -105.5 -255t-254.5 -105t-254.5 105t-105.5 255q0 149 105.5 254.5t254.5 105.5t254.5 -105.5t105.5 -254.5zM711 354q0 133 -92.5 225.5t-225.5 92.5t-225.5 -92.5t-92.5 -225.5t92.5 -225.5t225.5 -92.5t225.5 92.5t92.5 225.5zM557 601l-20 -25
l-26 15l15 30zM659 488l-31 -15l-15 27l26 20zM689 341h-30v31h30v-31zM277 591l-26 -16l-20 26l31 20zM658 225l-20 -31l-26 20l15 26zM410 340h-200v33h167v262h33v-295zM175 500l-15 -27l-30 15l19 32zM557 112l-32 -18l-15 29l27 15zM409 62h-30v32h30v-32zM130 341h-31
v31h31v-31zM176 214l-27 -20l-19 31l31 15zM277 123l-15 -29l-31 18l20 26z" />
    <glyph glyph-name="uni235F" unicode="&#x235f;" horiz-adv-x="666" 
d="M616 333q0 -115 -81.5 -196.5t-196.5 -81.5t-196.5 81.5t-81.5 196.5t81.5 196.5t196.5 81.5q116 0 197 -81.5t81 -196.5zM489 385l-132 -17l-24 130l-24 -130l-131 17l117 -63l-58 -120l96 92l97 -92l-58 120z" />
    <glyph glyph-name="uni24BB" unicode="&#x24bb;" horiz-adv-x="793" 
d="M761 354q0 -151 -107 -258t-257 -107q-151 0 -258 107t-107 258t107 258t257 107q151 0 258 -107t107 -258zM711 354q0 131 -92 223t-222 92q-131 0 -223 -92t-92 -223t92 -223t222 -92q131 0 223 92t92 223zM488 466h-139v-103h130v-34h-130v-124h-45v297h184v-36z" />
    <glyph glyph-name="uni24C2" unicode="&#x24c2;" horiz-adv-x="793" 
d="M236 205v297h64l93 -264l104 264h60v-297h-45v196l2 43l-93 -239h-60l-84 240l4 -39v-201h-45zM397 -11q-151 0 -258 107t-107 258t107 258t257 107q151 0 258 -107t107 -258t-107 -258t-257 -107zM396 39q131 0 223 92t92 223t-92 223t-222 92q-131 0 -223 -92t-92 -223
t92 -223t222 -92z" />
    <glyph glyph-name="uni24C9" unicode="&#x24c9;" horiz-adv-x="793" 
d="M761 353q0 -151 -107 -258t-257 -107q-151 0 -258 107t-107 258t107 258t257 107q151 0 258 -107t107 -258zM711 353q0 131 -92 223t-222 92q-131 0 -223 -92t-92 -223t92 -223t222 -92q131 0 223 92t92 223zM518 464h-99v-260h-44v260h-100v37h243v-37z" />
    <glyph glyph-name="uni24CA" unicode="&#x24ca;" horiz-adv-x="813" 
d="M398 -94q-161 0 -253 101.5t-92 267.5q0 167 100.5 266t263.5 99q165 0 254 -102t89 -265q0 -166 -97 -266.5t-265 -100.5zM401 -44q148 0 225.5 88.5t77.5 229.5q0 139 -78.5 227.5t-217.5 88.5q-143 0 -220.5 -87.5t-77.5 -226.5q0 -87 31 -158t98.5 -116.5
t161.5 -45.5zM576 289q0 -226 -163 -226q-80 0 -123.5 47t-43.5 158v172h52v-166q0 -90 27.5 -127t85.5 -37q62 0 87.5 40t25.5 142v148h52v-151z" />
    <glyph glyph-name="uni24CC" unicode="&#x24cc;" horiz-adv-x="793" 
d="M761 351q0 -151 -107 -258t-257 -107q-151 0 -258 107t-107 258t107 258t257 107q151 0 258 -107t107 -258zM711 351q0 131 -92 223t-222 92q-131 0 -223 -92t-92 -223t92 -223t222 -92q131 0 223 92t92 223zM607 499l-94 -297h-60l-45 127l-14 48l-18 -47l-50 -128h-61
l-79 297h44l54 -210l13 -62l24 63l55 135l-25 74h44l70 -211l18 -60l19 63l63 208h42z" />
    <glyph glyph-name="uni25A0" unicode="&#x25a0;" horiz-adv-x="926" 
d="M110 0v707h706v-707h-706z" />
    <glyph glyph-name="uni25A1" unicode="&#x25a1;" horiz-adv-x="800" 
d="M60 13v681h680v-681h-680zM111 65h578v577h-578v-577z" />
    <glyph glyph-name="uni25AA" unicode="&#x25aa;" horiz-adv-x="766" 
d="M110 0v547h546v-547h-546z" />
    <glyph glyph-name="uni25AB" unicode="&#x25ab;" horiz-adv-x="766" 
d="M110 0v547h546v-547h-546zM161 52h444v444h-444v-444z" />
    <glyph glyph-name="uni25B6" unicode="&#x25b6;" horiz-adv-x="665" 
d="M110 -36v670l535 -335z" />
    <glyph glyph-name="uni25B7" unicode="&#x25b7;" horiz-adv-x="665" 
d="M110 -36v670l535 -335zM163 60l398 238l-398 244v-482z" />
    <glyph glyph-name="uni25B8" unicode="&#x25b8;" horiz-adv-x="465" 
d="M444 273l-334 -335v670z" />
    <glyph glyph-name="uni25B9" unicode="&#x25b9;" horiz-adv-x="465" 
d="M444 273l-334 -335v670zM346 273l-168 169v-338z" />
    <glyph glyph-name="uni25BA" unicode="&#x25ba;" horiz-adv-x="1013" 
d="M1013 273l-903 -335v670z" />
    <glyph glyph-name="uni25BB" unicode="&#x25bb;" horiz-adv-x="1013" 
d="M1013 273l-903 -335v670zM848 273l-681 249v-499z" />
    <glyph glyph-name="uni25C0" unicode="&#x25c0;" horiz-adv-x="665" 
d="M555 -36l-535 335l535 335v-670z" />
    <glyph glyph-name="uni25C1" unicode="&#x25c1;" horiz-adv-x="665" 
d="M555 -36l-535 335l535 335v-670zM502 60v482l-398 -244z" />
    <glyph glyph-name="uni25C2" unicode="&#x25c2;" horiz-adv-x="464" 
d="M354 -62l-334 336l334 334v-670z" />
    <glyph glyph-name="uni25C3" unicode="&#x25c3;" horiz-adv-x="464" 
d="M354 -62l-334 336l334 334v-670zM287 104v338l-169 -169z" />
    <glyph glyph-name="uni25C4" unicode="&#x25c4;" horiz-adv-x="1013" 
d="M903 -62l-903 334l903 336v-670z" />
    <glyph glyph-name="uni25C5" unicode="&#x25c5;" horiz-adv-x="1013" 
d="M903 -62l-903 334l903 336v-670zM846 23v499l-681 -250z" />
    <glyph glyph-name="uni25C6" unicode="&#x25c6;" horiz-adv-x="510" 
d="M255 172l-175 175l175 175l175 -175z" />
    <glyph glyph-name="uni25C9" unicode="&#x25c9;" horiz-adv-x="891" 
d="M801 351q0 -147 -105 -250q-104 -105 -250 -105q-148 0 -251 105q-105 103 -105 250q0 148 105 251q103 105 251 105q147 0 250 -105q105 -103 105 -251zM748 351q0 126 -89 214q-87 88 -213 88q-127 0 -214 -88q-88 -87 -88 -214q0 -126 88 -213q89 -89 214 -89
q126 0 213 89q89 86 89 213zM602 351q0 -64 -46 -110t-110 -46q-65 0 -111 46t-46 110q0 65 46 111t111 46q64 0 110 -46t46 -111z" />
    <glyph glyph-name="lozenge" unicode="&#x25ca;" horiz-adv-x="516" 
d="M210 0l-182 355l195 353h76l183 -355l-195 -353h-77zM250 37l172 314l-162 321l-172 -315z" />
    <glyph glyph-name="uni25CB" unicode="&#x25cb;" horiz-adv-x="729" 
d="M364 -7q-118 0 -201 83.5t-83 200.5q0 118 83 201t201 83q119 0 202 -83t83 -201q0 -117 -83.5 -200.5t-201.5 -83.5zM364 48q96 0 163.5 67t67.5 162q0 96 -67.5 163.5t-163.5 67.5q-95 0 -162.5 -67.5t-67.5 -163.5q0 -95 67.5 -162t162.5 -67z" />
    <glyph glyph-name="uni25CE" unicode="&#x25ce;" horiz-adv-x="891" 
d="M797 361q0 -145 -103 -248t-248 -103q-146 0 -249 103t-103 248q0 146 103 249t249 103q145 0 248 -103t103 -249zM745 361q0 124 -88 212q-87 87 -211 87q-125 0 -212 -87t-87 -212q0 -124 87 -211q90 -88 212 -88q123 0 211 88q88 87 88 211zM653 361q0 -83 -61 -146
q-60 -60 -146 -60t-146 60q-61 61 -61 146q0 86 61 147q60 60 146 60t146 -60q61 -63 61 -147zM600 361q0 65 -45 110t-109 45q-65 0 -110 -45t-45 -110q0 -64 45 -109t110 -45q64 0 109 45t45 109zM508 361q0 -26 -18 -44t-44 -18t-44 18q-18 19 -18 44q0 26 18 44
q18 19 44 19q25 0 44 -19q18 -18 18 -44z" />
    <glyph glyph-name="uni25CF" unicode="&#x25cf;" horiz-adv-x="766" 
d="M382 -5q-115 0 -197 81.5t-82 196.5t81.5 196.5t197.5 81.5q115 0 196.5 -81.5t81.5 -196.5t-81.5 -196.5t-196.5 -81.5z" />
    <glyph glyph-name="uni25EF" unicode="&#x25ef;" horiz-adv-x="877" 
d="M439 -5q-149 0 -254 105t-105 254t105 254t254 105q148 0 253 -105t105 -254t-105 -254t-253 -105zM439 51q125 0 214 88.5t89 214.5q0 125 -89 214t-214 89q-126 0 -215 -89t-89 -214q0 -126 89 -214.5t215 -88.5z" />
    <glyph glyph-name="uni2605" unicode="&#x2605;" horiz-adv-x="585" 
d="M130 107l84 197l-184 111l214 -18l48 209l49 -209l214 18l-184 -111l84 -197l-163 140z" />
    <glyph glyph-name="uni260F" unicode="&#x260f;" horiz-adv-x="658" 
d="M608 125q-89 -85 -126 -97q-16 -6 -42 4q-117 45 -250 231q-78 112 -107 182q-30 74 -33 129q5 32 10 40q12 19 57 51t72 45l102 -178l-64 -47l186 -259l58 50zM542 129l-73 80l-50 -44q-13 -13 -29 11l-219 305q-8 9 -6.5 17.5t8.5 11.5l51 43l-56 90
q-22 -12 -45.5 -41.5t-20.5 -52.5q19 -113 125 -258q125 -166 211 -207q20 -9 51 7.5t53 37.5z" />
    <glyph glyph-name="uni2610" unicode="&#x2610;" horiz-adv-x="800" 
d="M60 13v681h680v-681h-680zM111 65h578v577h-578v-577z" />
    <glyph glyph-name="uni2611" unicode="&#x2611;" horiz-adv-x="800" 
d="M60 13v681h680v-681h-680zM111 65h578v577h-578v-577zM521 526q10 14 36.5 27.5t49.5 15.5l8 -9q-187 -276 -316 -412h-21q-26 20 -53 101t-23 104q28 36 49 42l22 -7q3 -101 36 -164q51 59 212 302z" />
    <glyph glyph-name="uni2612" unicode="&#x2612;" horiz-adv-x="766" 
d="M110 0v547h546v-547h-546zM383 310l183 183h-366zM202 54h369l-188 181zM164 91l182 182l-182 182v-364zM602 97v358l-182 -182z" />
    <glyph glyph-name="uni261A" unicode="&#x261a;" horiz-adv-x="765" 
d="M715 97h-67q-11 0 -38.5 -21t-54.5 -21h-188q-39 0 -60.5 20.5t-21.5 51.5q0 9 3 18q-21 7 -34 26t-13 41q0 14 8 32q-15 16 -15 42q0 11 6 27h-116q-35 0 -54.5 21t-19.5 50q0 30 21.5 52.5t60.5 22.5h263l-45 42q-30 29 -30 59q0 43 59 100l237 -190h98z" />
    <glyph glyph-name="uni261B" unicode="&#x261b;" horiz-adv-x="765" 
d="M715 384q0 -29 -19.5 -50t-54.5 -21h-116q6 -16 6 -27q0 -24 -15 -42q8 -18 8 -32q0 -22 -13 -41t-34 -26q3 -9 3 -18q0 -31 -21.5 -51.5t-60.5 -20.5h-188q-27 0 -54.5 21t-38.5 21h-67l1 373h98l237 190q59 -57 59 -100q0 -30 -30 -59l-45 -42h263q39 0 60.5 -22.5
t21.5 -52.5z" />
    <glyph glyph-name="uni261C" unicode="&#x261c;" horiz-adv-x="765" 
d="M715 97h-67q-11 0 -38.5 -21t-54.5 -21h-188q-39 0 -60.5 20.5t-21.5 51.5q0 9 3 18q-21 7 -34 26t-13 41q0 14 8 32q-15 16 -15 42q0 11 6 27h-116q-35 0 -54.5 21t-19.5 50q0 30 21.5 52.5t60.5 22.5h263l-45 42q-30 29 -30 59q0 43 59 100l237 -190h98v-38h-112
l-222 178q-20 -20 -20 -43q0 -29 29 -53l108 -93h-365q-21 0 -32.5 -10.5t-11.5 -25.5q0 -14 9.5 -24t26.5 -10h334v-38h-178q-8 -14 -8 -22q0 -9 7 -17.5t22 -8.5h157v-38h-175q-5 -6 -5 -22q0 -26 47 -26h133v-38h-131q-4 -4 -4 -16q0 -14 14 -23t30 -9h188q18 0 44 21
t49 21h67v-38z" />
    <glyph glyph-name="uni261D" unicode="&#x261d;" horiz-adv-x="705" 
d="M655 361l-190 -237v-124h-38v138l178 222q-20 20 -43 20q-29 0 -53 -29l-93 -108v365q0 21 -10.5 32.5t-25.5 11.5q-14 0 -24 -9.5t-10 -26.5v-334h-38v178q-14 8 -22 8q-9 0 -17.5 -7t-8.5 -22v-157h-38v175q-6 5 -22 5q-26 0 -26 -47v-133h-38v130q-4 5 -16 5
q-14 0 -23 -14t-9 -30v-188q0 -18 21 -44t21 -49v-93h-38v93q0 11 -21 38.5t-21 54.5v188q0 39 20.5 60.5t51.5 21.5q9 0 18 -3q7 21 26 34t41 13q14 0 32 -8q18 15 42 15q11 0 27 -6v116q0 35 21 54.5t50 19.5q30 0 52.5 -21.5t22.5 -60.5v-263l42 45q28 30 59 30
q43 0 100 -59z" />
    <glyph glyph-name="uni261E" unicode="&#x261e;" horiz-adv-x="765" 
d="M715 384q0 -29 -19.5 -50t-54.5 -21h-116q6 -16 6 -27q0 -24 -15 -42q8 -18 8 -32q0 -22 -13 -41t-34 -26q3 -9 3 -18q0 -31 -21.5 -51.5t-60.5 -20.5h-188q-27 0 -54.5 21t-38.5 21h-67v38h67q23 0 49 -21t44 -21h188q16 0 30 9t14 23q0 12 -5 16h-130v38h133
q47 0 47 26q0 16 -5 22h-175v38h157q15 0 22 8.5t7 17.5q0 8 -8 22h-178v38h334q17 0 26.5 10t9.5 24q0 15 -11.5 25.5t-32.5 10.5h-365l108 93q29 24 29 53q0 23 -20 43l-222 -178h-112v38h98l237 190q59 -57 59 -100q0 -30 -30 -59l-45 -42h263q39 0 60.5 -22.5
t21.5 -52.5z" />
    <glyph glyph-name="uni261F" unicode="&#x261f;" horiz-adv-x="705" 
d="M655 361l-190 -237v-124h-38v138l178 222q-20 20 -43 20q-29 0 -53 -29l-93 -108v160q0 44 -32 44q-28 0 -28 -36v-129h-38v337q0 17 -8.5 27.5t-20.5 10.5t-20.5 -10.5t-8.5 -27.5v-337h-38v161q-6 5 -22 5q-26 0 -26 -33v-133h-38v130q-4 5 -16 5q-32 0 -32 -44v-188
q0 -18 21 -44t21 -49v-92h-38v92q0 11 -21 38.5t-21 54.5v188q0 39 20.5 60.5t51.5 21.5q9 0 18 -3q20 33 58 33q10 0 24 -7v153q0 28 22.5 47.5t47.5 19.5q26 0 45.5 -19t19.5 -44v-156q14 6 32 6q29 0 47 -21t18 -61v-58l42 45q27 28 67 28q22 0 42 -13t50 -44z" />
    <glyph glyph-name="uni263A" unicode="&#x263a;" horiz-adv-x="837" 
d="M419 116q-85 0 -150.5 53.5t-82.5 135.5l52 8q14 -63 64.5 -103.5t116.5 -40.5q68 0 119 43t63 109l51 -15q-17 -82 -82 -136t-151 -54zM291 404q-22 0 -37 14.5t-15 35.5t15 35.5t37 14.5q21 0 37 -14.5t16 -35.5t-16 -35.5t-37 -14.5zM419 -5q-149 0 -254 105t-105 254
t105 254t254 105q148 0 253 -105t105 -254t-105 -254t-253 -105zM419 51q125 0 214 88.5t89 214.5q0 125 -89 214t-214 89q-126 0 -215 -89t-89 -214q0 -126 89 -214.5t215 -88.5zM546 404q-22 0 -37 14.5t-15 35.5t15 35.5t37 14.5q21 0 37 -14.5t16 -35.5t-16 -35.5
t-37 -14.5z" />
    <glyph glyph-name="uni2641" unicode="&#x2641;" horiz-adv-x="786" 
d="M753 354q0 -150 -105.5 -255t-254.5 -105t-254.5 105t-105.5 255q0 149 105.5 254.5t254.5 105.5t254.5 -105.5t105.5 -254.5zM202 561l-29 -21l-16 25l1 1h-2l1 -1q-82 -88 -82 -211q0 -133 92.5 -225.5t225.5 -92.5t225.5 92.5t92.5 225.5q0 33 -7 69l-5 -49l-49 -32
l17 -20l-28 -14l-10 18l-5 -1l5 -26l21 -12l-8 -7l-13 4l3 -10l11 -1l10 -19l30 -11l2 -10l-36 6l-48 51l19 -2l-27 64v16h-8l-3 -15l-27 -20v-19l-25 -6l-13 36l-9 3l1 21l-81 14l13 -21l18 5l14 -14l-14 -18l-39 -12l-34 67h-10l-1 -13l23 -48l18 -13l32 2l-54 -76l6 -6
l2 -24l-15 -15l-1 -18l-38 -46l-35 2l-27 77l8 11v19l-22 27l9 6l-22 14l-49 2l-26 27l-1 49l62 54l32 3l8 -9l-2 -13l25 -8l13 16l9 -14h40l6 6v24l-14 -24l-24 30l8 -30l-22 18l-3 19l-21 24l-4 -4l17 -20l-11 -19l-2 16l-22 17l-11 -10l-6 4l-41 -34l-14 35l26 -1l9 11
l-14 9l21 13l10 1l17 16l-5 18l10 4l6 -14l32 4l1 12l40 13l-6 7l-27 -7l-7 14l16 12l-9 10l-21 -27l8 -6l-2 -16l-20 -6l-5 12l-22 -3l2 19l36 49l44 9l60 -14l-11 -16l-23 2l15 -16l46 30h35l-20 27l23 26l33 14q-52 19 -111 19q-146 0 -235 -106l30 8zM564 625
q-40 20 -60 28l5 -11l-31 -11l-18 -23l36 -23l-6 11l22 24l45 -15zM438 219l-14 -51l-21 14l6 26l21 16zM702 277l-13 -25l-23 6l1 19l21 21zM251 496l-1 -13h-27l6 13l-15 21l12 11l6 -18zM218 491l-10 -11l-11 10l9 18zM296 419l-9 4l6 9z" />
    <glyph glyph-name="uni2661" unicode="&#x2661;" horiz-adv-x="673" 
d="M623 375q0 -74 -98 -188l-189 -223l-154 175q-58 65 -95 130t-37 106q0 82 49.5 132t112.5 50t125 -56q58 56 124 56q63 0 112.5 -50t49.5 -132zM564 375q0 59 -32.5 91t-70.5 32q-24 0 -43.5 -8.5t-35.5 -27.5t-24 -32t-22 -39q-22 42 -37 61q-39 46 -87 46
q-38 0 -70.5 -33t-32.5 -90q0 -29 31.5 -81.5t73.5 -101.5l123 -142l143 169q37 44 60.5 88t23.5 68z" />
    <glyph glyph-name="uni2665" unicode="&#x2665;" horiz-adv-x="673" 
d="M623 375q0 -74 -98 -188l-189 -223l-154 175q-58 65 -95 130t-37 106q0 82 49.5 132t112.5 50t125 -56q58 56 124 56q63 0 112.5 -50t49.5 -132z" />
    <glyph glyph-name="uni267E" unicode="&#x267e;" horiz-adv-x="813" 
d="M398 -94q-161 0 -253 101.5t-92 267.5q0 167 100.5 266t263.5 99q165 0 254 -102t89 -265q0 -166 -97 -266.5t-265 -100.5zM401 -44q148 0 225.5 88.5t77.5 229.5q0 139 -78.5 227.5t-217.5 88.5q-143 0 -220.5 -87.5t-77.5 -226.5q0 -87 31 -158t98.5 -116.5
t161.5 -45.5zM296 148q-45 0 -71 37.5t-26 85.5q0 47 27 85t70 38q23 0 45.5 -15.5t35 -31t31.5 -43.5q63 90 113 90q43 0 70 -38t27 -85q0 -48 -25.5 -85.5t-71.5 -37.5q-23 0 -46 16t-35 30.5t-32 43.5q-63 -90 -112 -90zM521 195q21 0 35.5 21.5t14.5 54.5q0 34 -14.5 56
t-35.5 22q-33 0 -88 -78q58 -76 88 -76zM296 195q35 0 91 77q-57 77 -91 77q-24 0 -36 -23.5t-12 -54.5q0 -29 14 -52.5t34 -23.5z" />
    <glyph glyph-name="uni2708" unicode="&#x2708;" horiz-adv-x="786" 
d="M753 354q0 -149 -105.5 -254.5t-254.5 -105.5t-254.5 105.5t-105.5 254.5t105.5 254.5t254.5 105.5t254.5 -105.5t105.5 -254.5zM711 354q0 133 -92.5 225.5t-225.5 92.5t-225.5 -92.5t-92.5 -225.5t92.5 -225.5t225.5 -92.5t225.5 92.5t92.5 225.5zM572 512
q0 -15 -8 -25l-79 -87l85 -187l-43 -45l-115 161l-74 -76l14 -103l-36 -12l-44 96l-97 41l5 37l109 -13l74 77l-163 108l43 45l188 -78l86 81q10 10 23 10q14 0 23 -9t9 -21z" />
    <glyph glyph-name="uni2709" unicode="&#x2709;" horiz-adv-x="756" 
d="M706 51h-656v484h656v-484zM665 116v351l-186 -168zM642 495h-524l263 -227zM637 89l-190 182l-32 -31q-13 -13 -38 -13q-19 0 -37 17l-33 29l-190 -184h520zM278 300l-189 163v-351z" />
    <glyph glyph-name="uni270E" unicode="&#x270e;" horiz-adv-x="764" 
d="M714 498l-377 -380l-287 -108l111 278l383 380zM586 571l-45 41l-316 -320l45 -42zM657 496l-45 45l-316 -320l45 -46zM316 148l-121 118l-53 -123l43 -46z" />
    <glyph glyph-name="uni2713" unicode="&#x2713;" horiz-adv-x="683" 
d="M521 526q10 14 36.5 27.5t49.5 15.5l8 -9q-187 -276 -316 -412h-21q-26 20 -53 101t-23 104q28 36 49 42l22 -7q3 -101 36 -164q51 59 212 302z" />
    <glyph glyph-name="uni2740" unicode="&#x2740;" horiz-adv-x="434" 
d="M384 211l-137 -206v-5h-59v3l-138 208q16 4 37 4q29 0 50 -11q41 -24 51 -108v156q-42 12 -66 43.5t-24 72.5q0 22 0.5 102t0.5 102l71 -45l44 47l47 -48l74 46v-204q0 -41 -23.5 -72t-64.5 -43v-149q9 76 50 100q21 11 50 11zM282 368v112l-20 -20l-47 48l-45 -49
l-19 20v-111q0 -27 19 -46t46 -19t46.5 19t19.5 46z" />
    <glyph glyph-name="uni2780" unicode="&#x2780;" horiz-adv-x="840" 
d="M420 -5q-149 0 -254.5 105t-105.5 254t105.5 254t254.5 105t254.5 -105t105.5 -254q0 -148 -105.5 -253.5t-254.5 -105.5zM420 41q130 0 221.5 91.5t91.5 221.5t-91.5 221.5t-221.5 91.5t-221.5 -91.5t-91.5 -221.5t91.5 -221.5t221.5 -91.5zM409 182v323h-93v42l146 4
v-369h-53z" />
    <glyph glyph-name="uni2781" unicode="&#x2781;" horiz-adv-x="840" 
d="M289 192v45q16 12 51.5 37.5t50 37t39 32.5t34.5 35.5t18.5 34t8.5 38.5q0 32 -19.5 49t-49.5 17q-58 0 -93 -37l-26 31q21 23 54.5 37t66.5 14q49 0 83.5 -27.5t34.5 -79.5q0 -17 -3 -33t-12 -31.5t-15 -27t-22.5 -26.5t-23.5 -22.5t-28 -22.5t-26.5 -19t-29 -19.5
t-26.5 -17.5h192v-45h-259zM420 -5q-149 0 -254.5 105t-105.5 254t105.5 254t254.5 105t254.5 -105t105.5 -254q0 -148 -105.5 -253.5t-254.5 -105.5zM420 41q130 0 221.5 91.5t91.5 221.5t-91.5 221.5t-221.5 91.5t-221.5 -91.5t-91.5 -221.5t91.5 -221.5t221.5 -91.5z" />
    <glyph glyph-name="uni2782" unicode="&#x2782;" horiz-adv-x="840" 
d="M409 174q-59 0 -104 16l12 41q51 -14 87 -14q93 0 93 60q0 40 -28 55t-88 20v36q99 9 99 70q0 24 -19.5 37t-49.5 13q-33 0 -69 -17l-15 33q45 26 94 26q45 0 77 -24t32 -61q0 -29 -17 -53.5t-49 -36.5q41 -7 63.5 -34t22.5 -60q0 -55 -41.5 -81t-99.5 -26zM420 -5
q-149 0 -254.5 105t-105.5 254t105.5 254t254.5 105t254.5 -105t105.5 -254q0 -148 -105.5 -253.5t-254.5 -105.5zM420 41q130 0 221.5 91.5t91.5 221.5t-91.5 221.5t-221.5 91.5t-221.5 -91.5t-91.5 -221.5t91.5 -221.5t221.5 -91.5z" />
    <glyph glyph-name="uni2783" unicode="&#x2783;" horiz-adv-x="840" 
d="M420 -5q-149 0 -254.5 105t-105.5 254t105.5 254t254.5 105t254.5 -105t105.5 -254q0 -148 -105.5 -253.5t-254.5 -105.5zM420 41q130 0 221.5 91.5t91.5 221.5t-91.5 221.5t-221.5 91.5t-221.5 -91.5t-91.5 -221.5t91.5 -221.5t221.5 -91.5zM425 182v91h-171v49l140 225
h84v-231h65v-43h-65v-91h-53zM299 316h126v201z" />
    <glyph glyph-name="uni2784" unicode="&#x2784;" horiz-adv-x="840" 
d="M411 164q-50 0 -100 13l14 44q47 -12 85 -12q35 0 56.5 19.5t21.5 49.5q0 35 -20 53t-56 18q-20 0 -87 -5v193h209v-42h-159v-104q1 0 17 0.5t28 0.5q55 0 89 -30t34 -79q0 -54 -37 -86.5t-95 -32.5zM420 -5q-149 0 -254.5 105t-105.5 254t105.5 254t254.5 105
t254.5 -105t105.5 -254q0 -148 -105.5 -253.5t-254.5 -105.5zM420 41q130 0 221.5 91.5t91.5 221.5t-91.5 221.5t-221.5 91.5t-221.5 -91.5t-91.5 -221.5t91.5 -221.5t221.5 -91.5z" />
    <glyph glyph-name="uni2785" unicode="&#x2785;" horiz-adv-x="840" 
d="M420 -5q-149 0 -254.5 105t-105.5 254t105.5 254t254.5 105t254.5 -105t105.5 -254q0 -148 -105.5 -253.5t-254.5 -105.5zM420 41q130 0 221.5 91.5t91.5 221.5t-91.5 221.5t-221.5 91.5t-221.5 -91.5t-91.5 -221.5t91.5 -221.5t221.5 -91.5zM414 172q-67 0 -100 36.5
t-33 123.5q0 100 47.5 159t124.5 59q34 0 69 -11l-13 -42q-34 9 -61 9q-43 0 -72 -30.5t-37 -85.5q37 16 79 16q57 0 89.5 -29.5t32.5 -82.5q0 -57 -36 -89.5t-90 -32.5zM417 214q30 0 49 21t19 54q0 36 -19.5 55.5t-50.5 19.5q-36 0 -78 -15q0 -80 16.5 -107.5t63.5 -27.5z
" />
    <glyph glyph-name="uni2786" unicode="&#x2786;" horiz-adv-x="840" 
d="M420 -5q-149 0 -254.5 105t-105.5 254t105.5 254t254.5 105t254.5 -105t105.5 -254q0 -148 -105.5 -253.5t-254.5 -105.5zM420 41q130 0 221.5 91.5t91.5 221.5t-91.5 221.5t-221.5 91.5t-221.5 -91.5t-91.5 -221.5t91.5 -221.5t221.5 -91.5zM375 149l-48 20l170 311
h-197v47h254v-39z" />
    <glyph glyph-name="uni2787" unicode="&#x2787;" horiz-adv-x="840" 
d="M415 166q-60 0 -96.5 23.5t-36.5 72.5q0 58 72 106q-59 32 -59 84q0 41 36 66t89 25q58 0 89.5 -23.5t31.5 -61.5q0 -56 -75 -93q86 -40 86 -96q0 -52 -37.5 -77.5t-99.5 -25.5zM416 205q36 0 59 17.5t23 51.5q0 6 -1.5 11.5t-5.5 10.5t-8.5 9t-11.5 8.5t-12.5 8
t-15.5 7.5t-16 6.5t-17 7t-17 7.5q-59 -34 -59 -81q0 -64 82 -64zM420 -5q-149 0 -254.5 105t-105.5 254t105.5 254t254.5 105t254.5 -105t105.5 -254q0 -148 -105.5 -253.5t-254.5 -105.5zM420 41q130 0 221.5 91.5t91.5 221.5t-91.5 221.5t-221.5 91.5t-221.5 -91.5
t-91.5 -221.5t91.5 -221.5t221.5 -91.5zM426 382q60 33 60 69q0 50 -68 50q-73 0 -73 -55q0 -19 20 -32.5t61 -31.5z" />
    <glyph glyph-name="uni2788" unicode="&#x2788;" horiz-adv-x="840" 
d="M420 -5q-149 0 -254.5 105t-105.5 254t105.5 254t254.5 105t254.5 -105t105.5 -254q0 -148 -105.5 -253.5t-254.5 -105.5zM420 41q130 0 221.5 91.5t91.5 221.5t-91.5 221.5t-221.5 91.5t-221.5 -91.5t-91.5 -221.5t91.5 -221.5t221.5 -91.5zM380 165q-34 0 -69 11l13 42
q34 -9 61 -9q42 0 71.5 30.5t36.5 85.5q-34 -16 -78 -16q-57 0 -89.5 29.5t-32.5 82.5q0 57 36 89.5t90 32.5q67 0 100 -36.5t33 -123.5q0 -100 -47.5 -159t-124.5 -59zM418 351q35 0 78 15q-1 79 -17.5 107t-62.5 28q-30 0 -49 -21t-19 -54q0 -36 19.5 -55.5t50.5 -19.5z
" />
    <glyph glyph-name="uni278A" unicode="&#x278a;" horiz-adv-x="840" 
d="M420 -5q-149 0 -254.5 105t-105.5 254t105.5 254t254.5 105t254.5 -105t105.5 -254q0 -148 -105.5 -253.5t-254.5 -105.5zM409 182h53v369l-146 -4v-42h93v-323z" />
    <glyph glyph-name="uni278B" unicode="&#x278b;" horiz-adv-x="840" 
d="M289 192h259v45h-192q3 2 26.5 17.5t29 19.5t26.5 19t28 22.5t23.5 22.5t22.5 26.5t15 27t12 31.5t3 33q0 52 -34.5 79.5t-83.5 27.5q-33 0 -66.5 -14t-54.5 -37l26 -31q35 37 93 37q30 0 49.5 -17t19.5 -49q0 -19 -8.5 -38.5t-18.5 -34t-34.5 -35.5t-39 -32.5t-50 -37
t-51.5 -37.5v-45zM420 -5q-149 0 -254.5 105t-105.5 254t105.5 254t254.5 105t254.5 -105t105.5 -254q0 -148 -105.5 -253.5t-254.5 -105.5z" />
    <glyph glyph-name="uni278C" unicode="&#x278c;" horiz-adv-x="840" 
d="M409 174q58 0 99.5 26t41.5 81q0 33 -22.5 60t-63.5 34q32 12 49 36.5t17 53.5q0 37 -32 61t-77 24q-49 0 -94 -26l15 -33q36 17 69 17q30 0 49.5 -13t19.5 -37q0 -61 -99 -70v-36q60 -5 88 -20t28 -55q0 -60 -93 -60q-36 0 -87 14l-12 -41q45 -16 104 -16zM420 -5
q-149 0 -254.5 105t-105.5 254t105.5 254t254.5 105t254.5 -105t105.5 -254q0 -148 -105.5 -253.5t-254.5 -105.5z" />
    <glyph glyph-name="uni278D" unicode="&#x278d;" horiz-adv-x="840" 
d="M420 -5q-149 0 -254.5 105t-105.5 254t105.5 254t254.5 105t254.5 -105t105.5 -254q0 -148 -105.5 -253.5t-254.5 -105.5zM425 182h53v91h65v43h-65v231h-84l-140 -225v-49h171v-91zM299 316l126 201v-201h-126z" />
    <glyph glyph-name="uni278E" unicode="&#x278e;" horiz-adv-x="840" 
d="M411 164q58 0 95 32.5t37 86.5q0 49 -34 79t-89 30q-12 0 -28 -0.5t-17 -0.5v104h159v42h-209v-193q67 5 87 5q36 0 56 -18t20 -53q0 -30 -21.5 -49.5t-56.5 -19.5q-38 0 -85 12l-14 -44q50 -13 100 -13zM420 -5q-149 0 -254.5 105t-105.5 254t105.5 254t254.5 105
t254.5 -105t105.5 -254q0 -148 -105.5 -253.5t-254.5 -105.5z" />
    <glyph glyph-name="uni278F" unicode="&#x278f;" horiz-adv-x="840" 
d="M420 -5q-149 0 -254.5 105t-105.5 254t105.5 254t254.5 105t254.5 -105t105.5 -254q0 -148 -105.5 -253.5t-254.5 -105.5zM414 172q54 0 90 32.5t36 89.5q0 53 -32.5 82.5t-89.5 29.5q-42 0 -79 -16q8 55 37 85.5t72 30.5q27 0 61 -9l13 42q-35 11 -69 11
q-77 0 -124.5 -59t-47.5 -159q0 -87 33 -123.5t100 -36.5zM417 214q-42 0 -59 21t-20 78q-1 11 -1 36q42 15 78 15q31 0 50.5 -19.5t19.5 -55.5q0 -33 -19 -54t-49 -21z" />
    <glyph glyph-name="uni2790" unicode="&#x2790;" horiz-adv-x="840" 
d="M420 -5q-149 0 -254.5 105t-105.5 254t105.5 254t254.5 105t254.5 -105t105.5 -254q0 -148 -105.5 -253.5t-254.5 -105.5zM375 149l179 339v39h-254v-47h197l-170 -311z" />
    <glyph glyph-name="uni2791" unicode="&#x2791;" horiz-adv-x="840" 
d="M415 166q62 0 99.5 25.5t37.5 77.5q0 56 -86 96q75 37 75 93q0 38 -31.5 61.5t-89.5 23.5q-53 0 -89 -25t-36 -66q0 -52 59 -84q-72 -48 -72 -106q0 -49 36.5 -72.5t96.5 -23.5zM416 205q-82 0 -82 64q0 47 59 81q6 -3 17 -7.5t17 -7t16 -6.5t15.5 -7.5t12.5 -8
t11.5 -8.5t8.5 -9t5.5 -10.5t1.5 -11.5q0 -34 -23 -51.5t-59 -17.5zM420 -5q-149 0 -254.5 105t-105.5 254t105.5 254t254.5 105t254.5 -105t105.5 -254q0 -148 -105.5 -253.5t-254.5 -105.5zM426 382q-27 12 -41.5 19.5t-27 19.5t-12.5 25q0 55 73 55q68 0 68 -50
q0 -36 -60 -69z" />
    <glyph glyph-name="uni2792" unicode="&#x2792;" horiz-adv-x="840" 
d="M380 165q77 0 124.5 59t47.5 159q0 87 -33 123.5t-100 36.5q-54 0 -90 -32.5t-36 -89.5q0 -53 32.5 -82.5t89.5 -29.5q44 0 78 16q-7 -55 -36.5 -85.5t-71.5 -30.5q-27 0 -61 9l-13 -42q35 -11 69 -11zM416 501q46 0 62.5 -28t17.5 -107q-43 -15 -78 -15
q-31 0 -50.5 19.5t-19.5 55.5q0 33 19 54t49 21zM780 354q0 -148 -105.5 -253.5t-254.5 -105.5t-254.5 105t-105.5 254t105.5 254t254.5 105t254.5 -105t105.5 -254z" />
    <glyph glyph-name="uni2981" unicode="&#x2981;" horiz-adv-x="926" 
d="M463 -5q-149 0 -254 105t-105 254t105 254t254 105q148 0 253 -105t105 -254t-105 -254t-253 -105z" />
    <glyph glyph-name="uni301A" unicode="&#x301a;" horiz-adv-x="415" 
d="M90 -220v974h285v-48h-100v-878h100v-48h-285zM146 706v-878h73v878h-73z" />
    <glyph glyph-name="uni301B" unicode="&#x301b;" horiz-adv-x="415" 
d="M325 754v-974h-285v48h100v878h-100v48h285zM269 -172v878h-73v-878h73z" />
    <glyph glyph-name="uni301C" unicode="&#x301c;" horiz-adv-x="1022" 
d="M736 171q-56 0 -105.5 17t-87.5 41.5t-75 49.5t-83.5 42t-96.5 17q-66 0 -113 -23.5t-96 -68.5q-9 11 -24 27l-15 16q118 110 246 110q54 0 104.5 -17.5t90 -43t78 -50.5t84.5 -43t93 -19q53 -1 101.5 24.5t105.5 71.5l39 -42q-51 -48 -117.5 -78.5t-128.5 -30.5z" />
    <glyph glyph-name="apple" unicode="&#xf8ff;" horiz-adv-x="1241" 
d="M1141 357h-10v-10h-11v10h-10v11h10v10h11v-10h10v-11zM1081 377h-11v11h11v-11zM1081 338h-11v10h11v-10zM1041 377h-11v11h11v-11zM1071 357h-10v-10h-11v10h-10v11h10v10h11v-10h10v-11zM1041 338h-11v10h11v-10zM1001 387h-10v-10h-11v11h10v10h11v-11zM1001 328h-11
v10h-10v10h11v-10h10v-10zM951 377h-11v10h-10v11h11v-10h10v-11zM981 357h-10v-10h-11v10h-10v11h10v10h11v-10h10v-11zM951 338h-10v-10h-11v10h10v10h11v-10zM911 338h-31v9h-10v31h10v10h21v-10h10v-21h-30v-9h30v-10zM900 368v9h-19v-9h19zM851 338h-31v9h-10v41h11
v-40h19v40h11v-50zM791 318h-11v20h-20v9h-10v31h10v10h31v-70zM780 348v29h-19v-29h19zM731 338h-31v9h-10v31h10v10h21v-10h10v-21h-30v-9h30v-10zM720 368v9h-19v-9h19zM671 338h-11v39h-19v-39h-11v70h11v-20h20v-10h10v-40zM611 338h-21v9h-10v30h-10v11h10v10h11v-10
h20v-11h-20v-29h20v-10zM551 347h-10v-9h-21v9h-10v31h10v10h21v-10h10v-31zM540 348v29h-19v-29h19zM491 347h-10v-9h-20v-20h-11v70h31v-10h10v-31zM480 348v29h-19v-29h19zM431 347h-10v-9h-10v-10h-10v-10h-11v11h10v18h-10v41h11v-40h19v40h11v-41zM371 338h-21v9h-10
v30h-10v11h10v10h11v-10h20v-11h-20v-29h20v-10zM311 387h-10v-10h-11v11h10v10h11v-11zM311 328h-11v10h-10v10h11v-10h10v-10zM261 377h-11v10h-10v11h11v-10h10v-11zM291 357h-10v-10h-11v10h-10v11h10v10h11v-10h10v-11zM261 338h-10v-10h-11v10h10v10h11v-10zM211 377
h-11v11h11v-11zM211 338h-11v10h11v-10zM171 377h-11v11h11v-11zM201 357h-10v-10h-11v10h-10v11h10v10h11v-10h10v-11zM171 338h-11v10h11v-10zM131 357h-10v-10h-11v10h-10v11h10v10h11v-10h10v-11z" />
    <glyph glyph-name="Q.alt" horiz-adv-x="845" 
d="M405 -12q-156 0 -247.5 102t-91.5 265q0 165 96.5 263.5t255.5 98.5q160 0 251.5 -102.5t91.5 -261.5q0 -153 -86 -252l118 -118l-40 -36l-117 116q-92 -75 -231 -75zM408 39q116 0 190 61l-109 109l42 37l105 -106q66 84 66 214q0 137 -77 224.5t-210 87.5
q-138 0 -214.5 -87t-76.5 -223q0 -134 75 -225.5t209 -91.5z" />
    <glyph glyph-name="uni004A0301" horiz-adv-x="284" 
d="M102 748l-15 35l205 89l20 -50zM-3 -184l-28 44q85 47 115 114.5t30 176.5v556h59v-554q0 -128 -36 -207t-140 -130z" />
    <glyph glyph-name="f.alt" horiz-adv-x="305" 
d="M113 0v495h-80v51h80v42q0 88 46 132t120 44q50 0 80 -10l-10 -48q-37 8 -70 8q-58 0 -84.5 -28.5t-26.5 -96.5v-43h117v-51h-117v-495h-55z" />
    <glyph glyph-name="g.alt" horiz-adv-x="581" 
d="M267 196q-59 0 -104 22q-22 -34 -22 -62q0 -20 11.5 -32.5t27.5 -12.5h130q102 0 150.5 -38.5t48.5 -98.5q0 -80 -75 -142t-197 -62q-97 0 -149.5 42.5t-52.5 112.5q0 89 86 152q-33 23 -33 68q0 49 40 95q-59 48 -59 133q0 79 49.5 132.5t147.5 53.5q37 0 68 -9
t43 -16.5t18 -13.5h150v-52h-103q23 -32 23 -90q0 -82 -55.5 -132t-142.5 -50zM301 61h-133q-77 -52 -77 -127q0 -53 42 -84t115 -31q91 0 147 46t56 103q0 93 -150 93zM266 242q63 0 102 36.5t39 99.5q0 60 -37.5 99t-102.5 39t-102.5 -37.5t-37.5 -100.5q0 -64 39 -100
t100 -36z" />
    <glyph glyph-name="uni006A0301" horiz-adv-x="235" 
d="M82 623l-23 35l175 130l29 -40zM-28 -224q-28 0 -55 8l9 47q22 -6 48 -6q64 0 89.5 39.5t25.5 111.5v570h57v-571q0 -199 -174 -199z" />
    <glyph glyph-name="gbreve.alt" horiz-adv-x="581" 
d="M267 196q-59 0 -104 22q-22 -34 -22 -62q0 -20 11.5 -32.5t27.5 -12.5h130q102 0 150.5 -38.5t48.5 -98.5q0 -80 -75 -142t-197 -62q-97 0 -149.5 42.5t-52.5 112.5q0 89 86 152q-33 23 -33 68q0 49 40 95q-59 48 -59 133q0 79 49.5 132.5t147.5 53.5q37 0 68 -9
t43 -16.5t18 -13.5h150v-52h-103q23 -32 23 -90q0 -82 -55.5 -132t-142.5 -50zM301 61h-133q-77 -52 -77 -127q0 -53 42 -84t115 -31q91 0 147 46t56 103q0 93 -150 93zM266 242q63 0 102 36.5t39 99.5q0 60 -37.5 99t-102.5 39t-102.5 -37.5t-37.5 -100.5q0 -64 39 -100
t100 -36zM263 653q-48 0 -83.5 22.5t-52.5 55.5l32 29q43 -59 107 -59q74 0 106 58l31 -26q-17 -31 -52.5 -55.5t-87.5 -24.5z" />
    <glyph glyph-name="gcircumflex.alt" horiz-adv-x="581" 
d="M267 196q-59 0 -104 22q-22 -34 -22 -62q0 -20 11.5 -32.5t27.5 -12.5h130q102 0 150.5 -38.5t48.5 -98.5q0 -80 -75 -142t-197 -62q-97 0 -149.5 42.5t-52.5 112.5q0 89 86 152q-33 23 -33 68q0 49 40 95q-59 48 -59 133q0 79 49.5 132.5t147.5 53.5q37 0 68 -9
t43 -16.5t18 -13.5h150v-52h-103q23 -32 23 -90q0 -82 -55.5 -132t-142.5 -50zM301 61h-133q-77 -52 -77 -127q0 -53 42 -84t115 -31q91 0 147 46t56 103q0 93 -150 93zM266 242q63 0 102 36.5t39 99.5q0 60 -37.5 99t-102.5 39t-102.5 -37.5t-37.5 -100.5q0 -64 39 -100
t100 -36zM379 635l-117 82l-130 -83l-23 34l156 108l140 -105z" />
    <glyph glyph-name="gcommaaccent.alt" horiz-adv-x="581" 
d="M267 196q-59 0 -104 22q-22 -34 -22 -62q0 -20 11.5 -32.5t27.5 -12.5h130q102 0 150.5 -38.5t48.5 -98.5q0 -80 -75 -142t-197 -62q-97 0 -149.5 42.5t-52.5 112.5q0 89 86 152q-33 23 -33 68q0 49 40 95q-59 48 -59 133q0 79 49.5 132.5t147.5 53.5q37 0 68 -9
t43 -16.5t18 -13.5h150v-52h-103q23 -32 23 -90q0 -82 -55.5 -132t-142.5 -50zM301 61h-133q-77 -52 -77 -127q0 -53 42 -84t115 -31q91 0 147 46t56 103q0 93 -150 93zM266 242q63 0 102 36.5t39 99.5q0 60 -37.5 99t-102.5 39t-102.5 -37.5t-37.5 -100.5q0 -64 39 -100
t100 -36zM227 636l38 198h43l-21 -198h-60z" />
    <glyph glyph-name="gdotaccent.alt" horiz-adv-x="581" 
d="M267 196q-59 0 -104 22q-22 -34 -22 -62q0 -20 11.5 -32.5t27.5 -12.5h130q102 0 150.5 -38.5t48.5 -98.5q0 -80 -75 -142t-197 -62q-97 0 -149.5 42.5t-52.5 112.5q0 89 86 152q-33 23 -33 68q0 49 40 95q-59 48 -59 133q0 79 49.5 132.5t147.5 53.5q37 0 68 -9
t43 -16.5t18 -13.5h150v-52h-103q23 -32 23 -90q0 -82 -55.5 -132t-142.5 -50zM301 61h-133q-77 -52 -77 -127q0 -53 42 -84t115 -31q91 0 147 46t56 103q0 93 -150 93zM266 242q63 0 102 36.5t39 99.5q0 60 -37.5 99t-102.5 39t-102.5 -37.5t-37.5 -100.5q0 -64 39 -100
t100 -36zM260 660l-53 55l53 54l55 -54z" />
    <glyph glyph-name="i.alt" horiz-adv-x="255" 
d="M176 -10q-42 0 -65.5 25.5t-23.5 71.5v459h55v-438q0 -69 56 -69q6 0 24 2l2 -47q-24 -4 -48 -4zM115 660l-53 55l53 54l55 -54z" />
    <glyph glyph-name="l.alt" horiz-adv-x="255" 
d="M176 -10q-42 0 -65.5 25.5t-23.5 71.5v667h55v-646q0 -69 56 -69q6 0 24 2l2 -47q-24 -4 -48 -4z" />
    <glyph glyph-name="iacute.alt" horiz-adv-x="255" 
d="M176 -10q-42 0 -65.5 25.5t-23.5 71.5v459h55v-438q0 -69 56 -69q6 0 24 2l2 -47q-24 -4 -48 -4zM85 623l-23 35l175 130l29 -40z" />
    <glyph glyph-name="igrave.alt" horiz-adv-x="255" 
d="M176 -10q-42 0 -65.5 25.5t-23.5 71.5v459h55v-438q0 -69 56 -69q6 0 24 2l2 -47q-24 -4 -48 -4zM149 622l-180 125l30 44l176 -132z" />
    <glyph glyph-name="icircumflex.alt" horiz-adv-x="255" 
d="M176 -10q-42 0 -65.5 25.5t-23.5 71.5v459h55v-438q0 -69 56 -69q6 0 24 2l2 -47q-24 -4 -48 -4zM239 635l-117 82l-130 -83l-23 34l156 108l140 -105z" />
    <glyph glyph-name="idieresis.alt" horiz-adv-x="255" 
d="M176 -10q-42 0 -65.5 25.5t-23.5 71.5v459h55v-438q0 -69 56 -69q6 0 24 2l2 -47q-24 -4 -48 -4zM24 669l-46 47l46 46l46 -46zM208 669l-46 47l46 46l47 -46z" />
    <glyph glyph-name="ibreve.alt" horiz-adv-x="255" 
d="M176 -10q-42 0 -65.5 25.5t-23.5 71.5v459h55v-438q0 -69 56 -69q6 0 24 2l2 -47q-24 -4 -48 -4zM114 652q-48 0 -83.5 22.5t-52.5 55.5l32 29q43 -59 107 -59q74 0 106 58l31 -26q-17 -31 -52.5 -55.5t-87.5 -24.5z" />
    <glyph glyph-name="dotlessi.alt" horiz-adv-x="255" 
d="M176 -10q-42 0 -65.5 25.5t-23.5 71.5v459h55v-438q0 -69 56 -69q6 0 24 2l2 -47q-24 -4 -48 -4z" />
    <glyph glyph-name="imacron.alt" horiz-adv-x="255" 
d="M176 -10q-42 0 -65.5 25.5t-23.5 71.5v459h55v-438q0 -69 56 -69q6 0 24 2l2 -47q-24 -4 -48 -4zM-8 674v48h251v-48h-251z" />
    <glyph glyph-name="itilde.alt" horiz-adv-x="255" 
d="M176 -10q-42 0 -65.5 25.5t-23.5 71.5v459h55v-438q0 -69 56 -69q6 0 24 2l2 -47q-24 -4 -48 -4zM175 648q-23 0 -62 18.5t-61 18.5q-36 0 -68 -24l-23 38l5 4q5 4 9.5 7.5t13 8t17.5 7.5t22.5 5.5t27.5 2.5q26 0 65 -18t58 -18q38 0 66 28l24 -36q-36 -42 -94 -42z" />
    <glyph glyph-name="lacute.alt" horiz-adv-x="255" 
d="M176 -10q-42 0 -65.5 25.5t-23.5 71.5v667h55v-646q0 -69 56 -69q6 0 24 2l2 -47q-24 -4 -48 -4zM86 779l-15 35l205 89l20 -50z" />
    <glyph glyph-name="lcaron.alt" horiz-adv-x="255" 
d="M176 -10q-42 0 -65.5 25.5t-23.5 71.5v667h55v-646q0 -69 56 -69q6 0 24 2l2 -47q-24 -4 -48 -4zM285 754l-38 -198h-43l21 198h60z" />
    <glyph glyph-name="lcommaaccent.alt" horiz-adv-x="256" 
d="M176 -10q-42 0 -65.5 25.5t-23.5 71.5v667h55v-646q0 -69 56 -69q6 0 24 2l2 -47q-24 -4 -48 -4zM183 -58l-38 -198h-43l21 198h60z" />
    <glyph glyph-name="ldot.alt" horiz-adv-x="255" 
d="M176 -10q-42 0 -65.5 25.5t-23.5 71.5v667h55v-646q0 -69 56 -69q6 0 24 2l2 -47q-24 -4 -48 -4z" />
    <glyph glyph-name="lslash.alt" horiz-adv-x="312" 
d="M203 -10q-42 0 -65.5 25.5t-23.5 71.5v253l-79 -45v51l79 45v363h55v-331l87 50v-52l-87 -50v-263q0 -69 56 -69q6 0 24 2l2 -47q-24 -4 -48 -4z" />
    <glyph glyph-name="questiondown.cap" horiz-adv-x="361" 
d="M294 -2q-44 4 -84 15t-76.5 31.5t-58 56.5t-21.5 82q0 40 28 78.5t61 64.5t61 61t28 70q0 12 -9.5 41t-16.5 43l50 10q29 -58 29 -92q0 -47 -27.5 -87.5t-60 -65t-60 -57t-27.5 -65.5t19 -59t50 -41.5t62.5 -24t64.5 -11.5zM205 636v71h69v-71h-69z" />
    <glyph glyph-name="question.smcp" horiz-adv-x="341" 
d="M281 449q0 -35 -21 -68t-45.5 -54t-45.5 -50.5t-21 -57.5q0 -21 4 -40l-54 -14q-9 30 -9 55q0 29 13.5 56.5t32.5 48t38.5 39.5t33 39.5t13.5 40.5q0 88 -154 121l14 54q82 -10 141.5 -55.5t59.5 -114.5zM161 0h-69v71h69v-71z" />
    <glyph glyph-name="questiondown.smcp" horiz-adv-x="301" 
d="M40 97q0 35 21 68t45.5 54t45.5 50.5t21 57.5q0 21 -4 40l54 14q9 -30 9 -55q0 -29 -13.5 -56.5t-32.5 -48t-38.5 -39.5t-33 -39.5t-13.5 -40.5q0 -88 154 -121l-14 -54q-82 10 -141.5 55.5t-59.5 114.5zM160 546h69v-71h-69v71z" />
    <glyph glyph-name="exclamdown.cap" horiz-adv-x="275" 
d="M111 0v422l2 126h50l2 -126v-422h-54zM104 636v71h69v-71h-69z" />
    <glyph glyph-name="exclam.smcp" horiz-adv-x="281" 
d="M168 285l-2 -126h-50l-3 126v322h55v-322zM175 0h-69v71h69v-71z" />
    <glyph glyph-name="exclamdown.smcp" horiz-adv-x="247" 
d="M96 262l2 126h50l3 -126v-322h-55v322zM89 547h69v-71h-69v71z" />
    <glyph glyph-name="uni203D.smcp" horiz-adv-x="355" 
d="M110 159l-3 126v162h55v-150q70 81 70 137q0 59 -44.5 92t-110.5 40l12 50q88 -7 146.5 -53t58.5 -124q0 -32 -15.5 -64t-30.5 -50.5t-46.5 -50t-40.5 -41.5l-1 -74h-50zM102 0v71h69v-71h-69z" />
    <glyph glyph-name="hyphen.cap" horiz-adv-x="506" 
d="M104 320v51h298v-51h-298z" />
    <glyph glyph-name="endash.cap" horiz-adv-x="708" 
d="M104 320v51h500v-51h-500z" />
    <glyph glyph-name="emdash.cap" horiz-adv-x="978" 
d="M104 320v51h770v-51h-770z" />
    <glyph glyph-name="slash.smcp" horiz-adv-x="322" 
d="M39 -62l190 678h53l-189 -678h-54z" />
    <glyph glyph-name="backslash.smcp" horiz-adv-x="323" 
d="M230 -62l-190 678h53l191 -678h-54z" />
    <glyph glyph-name="parenleft.cap" horiz-adv-x="341" 
d="M299 -113l-33 -39q-208 200 -208 506q0 96 19.5 179t53 141.5t66 97t69.5 66.5l33 -39q-35 -32 -61.5 -64.5t-57.5 -86t-48 -128.5t-17 -165q0 -280 184 -468z" />
    <glyph glyph-name="parenright.cap" horiz-adv-x="338" 
d="M73 -152l-33 39q184 188 184 468q0 90 -17 165t-48 128.5t-57.5 86t-61.5 64.5l33 39q37 -28 69.5 -66.5t66 -97t53 -141.5t19.5 -179q0 -306 -208 -506z" />
    <glyph glyph-name="bracketleft.cap" horiz-adv-x="296" 
d="M89 -135v974h156v-48h-100v-878h100v-48h-156z" />
    <glyph glyph-name="bracketright.cap" horiz-adv-x="296" 
d="M51 -135v48h100v878h-100v48h156v-974h-156z" />
    <glyph glyph-name="braceleft.cap" horiz-adv-x="330" 
d="M282 -139q-38 0 -66 4.5t-56 17t-43 40t-15 68.5q0 9 2 29l22 201q4 36 -22 70t-62 34v57q36 0 62 32.5t22 71.5l-22 210q-2 26 -1 37q9 121 179 121h12v-48h-18q-67 0 -96 -25.5t-22 -87.5l20 -184q7 -65 -17.5 -104t-72.5 -49v-2q103 -33 90 -152l-20 -186
q-6 -57 24.5 -82.5t93.5 -25.5h18v-47h-12z" />
    <glyph glyph-name="braceright.cap" horiz-adv-x="331" 
d="M48 -130h-12v47h18q63 0 93.5 25.5t24.5 82.5l-20 186q-13 119 90 152v2q-48 10 -72.5 49t-17.5 104l20 184q7 62 -22 87.5t-96 25.5h-18v48h12q170 0 179 -121q1 -11 -1 -37l-22 -210q-4 -39 22 -71.5t62 -32.5v-57q-36 0 -62 -34t-22 -70l22 -201q2 -20 2 -29
q0 -41 -15 -68.5t-43 -40t-56 -17t-66 -4.5z" />
    <glyph glyph-name="uni301A.cap" horiz-adv-x="408" 
d="M90 -135v974h285v-48h-100v-878h100v-48h-285zM146 791v-878h73v878h-73z" />
    <glyph glyph-name="uni301B.cap" horiz-adv-x="415" 
d="M325 839v-974h-285v48h100v878h-100v48h285zM269 -87v878h-73v-878h73z" />
    <glyph glyph-name="dblparenleft" horiz-adv-x="458" 
d="M296 -182l-33 -39q-208 200 -208 506q0 96 19.5 179t53 141.5t66 97t69.5 66.5l33 -39q-35 -32 -61.5 -64.5t-57.5 -86t-48 -128.5t-17 -165q0 -280 184 -468zM416 -120l-33 -39q-45 43 -75.5 80.5t-60.5 91t-45.5 121.5t-15.5 151q0 78 16 144t45.5 117.5t59.5 87.5
t71 73l33 -39q-33 -31 -58.5 -61.5t-52.5 -77t-42 -108.5t-15 -135q0 -97 24.5 -175t58.5 -125.5t90 -105.5z" />
    <glyph glyph-name="dblparenleft.cap" horiz-adv-x="459" 
d="M299 -113l-33 -39q-208 200 -208 506q0 96 19.5 179t53 141.5t66 97t69.5 66.5l33 -39q-35 -32 -61.5 -64.5t-57.5 -86t-48 -128.5t-17 -165q0 -280 184 -468zM419 -51l-33 -39q-45 43 -75.5 80.5t-60.5 91t-45.5 121.5t-15.5 151q0 78 16 144t45.5 117.5t59.5 87.5
t71 73l33 -39q-33 -31 -58.5 -61.5t-52.5 -77t-42 -108.5t-15 -135q0 -97 24.5 -175t58.5 -125.5t90 -105.5z" />
    <glyph glyph-name="dblparenright" horiz-adv-x="457" 
d="M194 -221l-33 39q184 188 184 468q0 90 -17 165t-48 128.5t-57.5 86t-61.5 64.5l33 39q37 -28 69.5 -66.5t66 -97t53 -141.5t19.5 -179q0 -306 -208 -506zM74 -159l-33 39q56 58 90 105.5t58.5 125.5t24.5 175q0 73 -15 135t-42 108.5t-52.5 77t-58.5 61.5l33 39
q41 -37 71 -73t59.5 -87.5t45.5 -117.5t16 -144q0 -83 -15.5 -151t-45.5 -121.5t-60.5 -91t-75.5 -80.5z" />
    <glyph glyph-name="dblparenright.cap" horiz-adv-x="457" 
d="M192 -152l-33 39q184 188 184 468q0 90 -17 165t-48 128.5t-57.5 86t-61.5 64.5l33 39q37 -28 69.5 -66.5t66 -97t53 -141.5t19.5 -179q0 -306 -208 -506zM72 -90l-33 39q56 58 90 105.5t58.5 125.5t24.5 175q0 73 -15 135t-42 108.5t-52.5 77t-58.5 61.5l33 39
q41 -37 71 -73t59.5 -87.5t45.5 -117.5t16 -144q0 -83 -15.5 -151t-45.5 -121.5t-60.5 -91t-75.5 -80.5z" />
    <glyph glyph-name="section.pln" horiz-adv-x="438" 
d="M111 -216q-59 0 -111 39l25 52q52 -38 89 -38q30 0 43.5 27t13.5 60q0 43 -15 124l-64 368q-10 53 -10 100q0 121 56.5 183t163.5 62q78 0 137 -38l-23 -55q-68 39 -124 39q-50 0 -50 -75q0 -43 6 -72l73 -389q16 -88 16 -145q0 -104 -61 -173t-165 -69zM201 -148
q81 59 81 161q0 42 -11 104l-73 401q-10 55 -10 101q0 49 14 77q-66 -40 -66 -154q0 -38 9 -92l71 -399q11 -66 11 -110q0 -22 -4.5 -39.5t-8 -24.5t-13.5 -25z" />
    <glyph glyph-name="numbersign.pln" horiz-adv-x="596" 
d="M542 164h-110l-9 -164h-53l9 164h-183l-9 -164h-53l9 164h-88v52h91l15 279h-106v51h108l9 161h53l-8 -161h182l9 161h53l-9 -161h90v-51h-92l-15 -279h107v-52zM396 495h-182l-14 -279h181z" />
    <glyph glyph-name="ordfeminine.smcp" horiz-adv-x="462" 
d="M81 396l123 314h70l107 -314h-57l-32 102h-119l-37 -102h-55zM67 298v53h328v-53h-328zM190 540h87l-41 133z" />
    <glyph glyph-name="quotedblleft.smcp" horiz-adv-x="328" 
d="M63 517q0 93 35 159h47q-26 -69 -26 -120v-63h-56v24zM195 517q0 91 34 159h48q-26 -69 -26 -120v-63h-56v24z" />
    <glyph glyph-name="quotedblright.smcp" horiz-adv-x="328" 
d="M270 651q0 -93 -35 -159h-47q26 69 26 120v63h56v-24zM138 651q0 -91 -34 -159h-48q26 69 26 120v63h56v-24z" />
    <glyph glyph-name="quoteleft.smcp" horiz-adv-x="196" 
d="M63 517q0 91 34 159h48q-26 -69 -26 -120v-63h-56v24z" />
    <glyph glyph-name="quoteright.smcp" horiz-adv-x="196" 
d="M138 651q0 -91 -34 -159h-48q26 69 26 120v63h56v-24z" />
    <glyph glyph-name="guilsinglright.cap" horiz-adv-x="265" 
d="M108 134l-46 21l85 197l-86 201l47 17l101 -218z" />
    <glyph glyph-name="guilsinglleft.cap" horiz-adv-x="264" 
d="M157 124l-101 218l101 218l47 -17l-86 -201l85 -199z" />
    <glyph glyph-name="guillemotleft.cap" horiz-adv-x="431" 
d="M157 134l-101 218l101 218l47 -17l-86 -201l85 -199zM323 134l-101 218l102 218l46 -17l-86 -201l85 -199z" />
    <glyph glyph-name="guillemotright.cap" horiz-adv-x="431" 
d="M108 134l-46 19l85 199l-86 201l47 17l101 -218zM274 134l-46 19l85 199l-86 201l47 17l101 -218z" />
    <glyph glyph-name="asterisk.alt" horiz-adv-x="357" 
d="M309 698l-97 -53l48 -100l-80 76l-81 -76l48 100l-97 53l110 -15l20 109l20 -109z" />
    <glyph glyph-name="f_i" horiz-adv-x="599" 
d="M113 -220v715h-80v51h80v38q0 110 45 150.5t128 40.5q16 0 72 -3t86 -3q16 0 44 2l8 -43q-28 -10 -86 -10q-26 1 -69.5 4t-55.5 3q-66 0 -91.5 -35.5t-25.5 -107.5v-36h342v-546h-57v495h-285v-715h-55z" />
    <glyph glyph-name="f_l" horiz-adv-x="599" 
d="M113 -220v715h-80v51h80v35q0 192 173 192q16 0 72 -4t86 -4q8 0 34.5 2t31.5 2v-769h-57v718q-32 -2 -90 2.5t-78 4.5q-117 0 -117 -138v-41h119v-51h-119v-715h-55z" />
    <glyph glyph-name="f_i.alt" horiz-adv-x="599" 
d="M113 0v495h-80v51h80v38q0 110 45 150.5t128 40.5q16 0 72 -3t86 -3q16 0 44 2l8 -43q-28 -10 -86 -10q-26 1 -69.5 4t-55.5 3q-66 0 -91.5 -35.5t-25.5 -107.5v-36h342v-546h-57v495h-285v-495h-55z" />
    <glyph glyph-name="f_l.alt" horiz-adv-x="599" 
d="M113 0v495h-80v51h80v35q0 192 173 192q16 0 72 -4t86 -4q8 0 34.5 2t31.5 2v-769h-57v718q-32 -2 -90 2.5t-78 4.5q-117 0 -117 -138v-41h119v-51h-119v-495h-55z" />
    <glyph glyph-name="f_h.alt" horiz-adv-x="953" 
d="M113 0v495h-80v51h80v28q0 111 45 156t126 45q16 0 72 -5t87 -5q8 0 34.5 2t30.5 2v-283l32 22q31 21 44 27t46.5 15.5t69.5 9.5q46 0 78.5 -13.5t49.5 -33t27 -50t12 -53.5t2 -55v-355h-56v339q0 30 -2 52t-9.5 46t-20.5 38.5t-36 24.5t-55 10q-14 0 -29.5 -3.5
t-32 -10.5t-30.5 -13.5t-30 -16t-25 -15.5t-21.5 -14t-13.5 -9v-428h-56v719q-32 -2 -90 2t-78 4q-65 0 -90.5 -39.5t-25.5 -113.5v-26h117v-51h-117v-495h-55z" />
    <glyph glyph-name="f_b.alt" horiz-adv-x="941" 
d="M631 -9q-34 0 -63 2t-48.5 5.5t-31.5 6.5t-23 7t-12 4v702q-32 -2 -90 2.5t-78 4.5q-117 0 -117 -138v-41h119v-51h-119v-495h-55v495h-80v51h80v35q0 192 173 192q16 0 72 -4t86 -4q8 0 33.5 2t30.5 2v-715q54 -14 126 -14q92 0 141.5 66.5t49.5 168.5q0 48 -6 85
t-22.5 72.5t-51 55t-85.5 19.5q-31 0 -59 -7l-9 44q22 11 78 11q101 0 156.5 -69.5t55.5 -190.5q0 -158 -71 -231t-180 -73z" />
    <glyph glyph-name="f_j.alt" horiz-adv-x="596" 
d="M334 -220q-39 0 -60 9l10 46q7 -4 52 -4q65 0 89.5 38.5t24.5 110.5v515h-282v-495h-55v495h-80v51h80v28q0 111 45 156t126 45q16 0 72 -3t87 -3q16 0 44 2l7 -43q-28 -10 -86 -10q-25 1 -68.5 4t-55.5 3q-65 0 -90.5 -39.5t-25.5 -113.5v-26h339v-567q0 -199 -173 -199
z" />
    <glyph glyph-name="f_k.alt" horiz-adv-x="885" 
d="M113 0v495h-80v51h80v28q0 111 45 156t126 45q16 0 72 -5t87 -5q8 0 34.5 2t30.5 2v-769h-56v719q-32 -2 -90 2t-78 4q-65 0 -90.5 -39.5t-25.5 -113.5v-26h117v-51h-117v-495h-55zM850 -10q-70 6 -146 100l-161 199l243 257h70l-242 -256l121 -151q35 -43 71 -70.5
t55 -34.5z" />
    <glyph glyph-name="f_f.alt" horiz-adv-x="645" 
d="M113 0v495h-80v51h80v55q0 175 222 175q77 0 170 -39q40 39 135 39q22 0 69.5 -8t55.5 -12l-10 -45q-66 14 -109 14q-71 0 -105 -30t-34 -95v-54h118v-51h-118v-495h-54v495h-284v-495h-56zM169 546h284v53q0 63 20 97q-26 11 -73.5 20t-85.5 9q-72 0 -108.5 -29
t-36.5 -96v-54z" />
    <glyph glyph-name="f_f_i.alt" horiz-adv-x="936" 
d="M113 0v495h-80v51h80v55q0 51 17.5 86.5t48 54t64 26.5t74.5 8q91 0 187 -39q46 38 120 38q16 0 72 -3t86 -3q18 0 44 2l8 -43q-27 -10 -85 -10q-25 1 -69.5 4t-56.5 3q-66 0 -90.5 -39.5t-24.5 -113.5v-26h339v-546h-56v495h-283v-495h-55v495h-283v-495h-57zM170 546
h282v28q0 78 22 123q-26 9 -78.5 18.5t-81.5 9.5q-72 0 -108 -29t-36 -96v-54z" />
    <glyph glyph-name="f_f_l.alt" horiz-adv-x="922" 
d="M113 0v495h-80v51h80v55q0 175 222 175q64 0 168 -39q41 38 119 38q16 0 72 -5t86 -5q9 0 29 2t24 2v-769h-56v719q-29 -1 -82 2.5t-73 3.5q-66 0 -91 -38.5t-25 -111.5v-29h117v-51h-117v-495h-55v495h-281v-495h-57zM170 546h281v28q0 76 21 122q-28 10 -76.5 19.5
t-81.5 9.5q-72 0 -108 -29t-36 -96v-54z" />
    <glyph glyph-name="f_f_j.alt" horiz-adv-x="936" 
d="M673 -220q-28 0 -55 8l9 47q22 -6 48 -6q64 0 89.5 39.5t25.5 111.5v515h-282v-495h-55v495h-283v-495h-57v495h-80v51h80v55q0 51 17.5 86.5t48 54t64 26.5t74.5 8q91 0 187 -39q46 38 120 38q16 0 72 -3t86 -3q18 0 44 2l8 -43q-27 -10 -85 -10q-25 1 -69.5 4t-56.5 3
q-66 0 -90.5 -39.5t-24.5 -113.5v-26h339v-567q0 -199 -174 -199zM170 546h282v28q0 78 22 123q-26 9 -78.5 18.5t-81.5 9.5q-72 0 -108 -29t-36 -96v-54z" />
    <glyph glyph-name="f_idieresis.alt" horiz-adv-x="584" 
d="M113 0v495h-80v51h80v66q0 76 38 114t99 38q52 0 80 -10l-10 -48q-37 8 -70 8q-43 0 -62.5 -23t-19.5 -78v-67h117v-51h-117v-495h-55zM438 0v546h57v-546h-57zM393 668l-45 49l45 49l47 -49zM545 668l-45 49l45 49l47 -49z" />
    <glyph glyph-name="f_igrave.alt" horiz-adv-x="584" 
d="M113 0v495h-80v51h80v66q0 76 38 114t99 38q52 0 80 -10l-10 -48q-37 8 -70 8q-43 0 -62.5 -23t-19.5 -78v-67h117v-51h-117v-495h-55zM487 607l-128 147l40 35l122 -152zM438 0v546h57v-546h-57z" />
    <glyph glyph-name="germandbls.alt" horiz-adv-x="568" 
d="M89 0v565q0 199 175 199q27 0 52 -6t50.5 -20.5t40.5 -44t15 -71.5q0 -34 -18.5 -68.5t-40 -57.5t-40 -49.5t-18.5 -47.5q0 -35 23.5 -62.5t57.5 -46t68 -38t57.5 -51t23.5 -72.5q0 -72 -46.5 -104.5t-112.5 -32.5q-86 0 -143 22l13 48q64 -20 120 -20q117 0 117 79
q0 35 -23.5 61t-57.5 43.5t-68 37t-57.5 53t-23.5 80.5q0 31 17.5 61t38 51t38 52.5t17.5 64.5q0 46 -27.5 68t-72.5 22q-71 0 -95.5 -38.5t-24.5 -112.5v-564h-55z" />
    <glyph glyph-name="ampersand.alt" horiz-adv-x="683" 
d="M570 343l44 -27q-60 -134 -142 -215q96 -62 186 -65l-7 -48q-105 0 -220 76q-95 -75 -196 -75q-33 0 -62.5 8t-56.5 26.5t-42.5 52.5t-15.5 81q0 64 34.5 110.5t96.5 87.5q-38 89 -38 169q0 86 41.5 139t116.5 53q68 0 110.5 -44t42.5 -106q0 -20 -5.5 -39t-12.5 -33.5
t-22.5 -31.5t-26 -27t-33 -26t-33.5 -23t-37.5 -23.5t-35.5 -22.5q64 -122 173 -208q93 87 141 211zM240 41q68 0 146 56q-110 90 -176 213q-98 -71 -98 -153q0 -61 39 -88.5t89 -27.5zM203 530q0 -71 32 -146q94 57 121 81q53 47 53 103q0 43 -28.5 71t-73.5 28
q-52 0 -78 -36.5t-26 -100.5z" />
    <glyph glyph-name="ampersand.smcp" horiz-adv-x="744" 
d="M290 -9q-109 0 -170.5 72.5t-61.5 203.5q0 136 67.5 213.5t173.5 77.5q92 0 143 -29l-19 -42q-55 24 -127 24q-50 0 -86.5 -22t-55 -59t-27 -76t-8.5 -82q0 -99 42 -164.5t137 -65.5t137.5 66.5t44.5 166.5h-215v50h330q61 0 98 45l35 -28q-13 -25 -47 -46t-73 -21h-73
q-2 -140 -67 -212t-178 -72z" />
    <glyph glyph-name="acute.cap" horiz-adv-x="564" 
d="M195 748l-15 35l205 89l20 -50z" />
    <glyph glyph-name="breve.cap" horiz-adv-x="500" 
d="M265 775q-48 0 -83.5 22.5t-52.5 55.5l32 29q43 -59 107 -59q74 0 106 58l31 -26q-17 -31 -52.5 -55.5t-87.5 -24.5z" />
    <glyph glyph-name="caron.cap" horiz-adv-x="547" 
d="M418 815l-151 -68l-145 69l19 42l127 -57l130 56z" />
    <glyph glyph-name="circumflex.cap" horiz-adv-x="650" 
d="M210 753l-19 39l148 71l141 -68l-21 -41l-121 55z" />
    <glyph glyph-name="dieresis.cap" horiz-adv-x="571" 
d="M211 750l-46 47l46 46l46 -46zM395 750l-46 47l46 46l47 -46z" />
    <glyph glyph-name="dotaccent.cap" horiz-adv-x="273" 
d="M190 816l-55 -55l-53 55l53 54z" />
    <glyph glyph-name="hungarumlaut.cap" horiz-adv-x="409" 
d="M251 853l-173 -113l-27 36l164 124zM471 806l-199 -63l-17 41l194 77z" />
    <glyph glyph-name="grave.cap" horiz-adv-x="409" 
d="M301 748l-211 69l20 51l208 -83z" />
    <glyph glyph-name="macron.cap" horiz-adv-x="536" 
d="M139 790v48h251v-48h-251z" />
    <glyph glyph-name="tilde.cap" horiz-adv-x="488" 
d="M315 754q-20 0 -60 18.5t-58 18.5q-35 0 -69 -24l-22 38q41 36 88 36q25 0 64.5 -18.5t54.5 -18.5q37 0 58 26l24 -36q-29 -40 -80 -40z" />
    <glyph glyph-name="commaaccent" horiz-adv-x="151" 
d="M124 -58l-38 -198h-43l21 198h60z" />
    <glyph glyph-name="zero.zero" horiz-adv-x="698" 
d="M349 -12q-126 0 -206 72.5t-80 212.5t80 213.5t206 73.5q125 0 205.5 -75t80.5 -212q0 -140 -80 -212.5t-206 -72.5zM349 39q99 0 163.5 62t64.5 172q0 83 -43 145l-337 -327q61 -52 152 -52zM163 130l336 326q-62 54 -150 54q-101 0 -164 -59.5t-63 -177.5
q0 -85 41 -143z" />
    <glyph glyph-name="zero.opencirc" horiz-adv-x="840" 
d="M420 -5q-149 0 -254.5 105t-105.5 254t105.5 254t254.5 105t254.5 -105t105.5 -254q0 -148 -105.5 -253.5t-254.5 -105.5zM420 41q130 0 221.5 91.5t91.5 221.5t-91.5 221.5t-221.5 91.5t-221.5 -91.5t-91.5 -221.5t91.5 -221.5t221.5 -91.5zM415 165q-145 0 -145 183
q0 53 12.5 94t48 70t92.5 29q143 0 143 -182q0 -194 -151 -194zM417 209q97 0 97 146q0 142 -93 142q-99 0 -99 -149q0 -64 23.5 -101.5t71.5 -37.5z" />
    <glyph glyph-name="zero.closecirc" horiz-adv-x="840" 
d="M420 -5q-149 0 -254.5 105t-105.5 254t105.5 254t254.5 105t254.5 -105t105.5 -254q0 -148 -105.5 -253.5t-254.5 -105.5zM415 165q151 0 151 194q0 182 -143 182q-57 0 -92.5 -29t-48 -70t-12.5 -94q0 -183 145 -183zM417 209q-48 0 -71.5 37.5t-23.5 101.5
q0 149 99 149q93 0 93 -142q0 -146 -97 -146z" />
    <glyph glyph-name="zero.closecirc_fina" 
d="M137 225q109 0 109 136q0 128 -103 128q-111 0 -111 -135q0 -129 105 -129zM139 263q-60 0 -60 91q0 96 62 96q59 0 59 -91q0 -96 -61 -96zM0 -5v718q149 0 254.5 -105t105.5 -254t-105.5 -254t-254.5 -105z" />
    <glyph glyph-name="one.closecirc_fina" 
d="M0 -5v718q149 0 254.5 -105t105.5 -254t-105.5 -254t-254.5 -105zM121 228h46v258l-109 -3v-37h63v-218z" />
    <glyph glyph-name="two.closecirc_fina" 
d="M39 229h185v39h-127q30 19 44 29t37 30t33 40.5t10 44.5q0 36 -25 56.5t-62 20.5q-51 0 -86 -35l20 -29q24 24 62 24q19 0 31.5 -10.5t12.5 -30.5q0 -22 -18 -45.5t-39.5 -40.5t-60.5 -45q-11 -8 -17 -12v-36zM0 -5v718q149 0 254.5 -105t105.5 -254t-105.5 -254
t-254.5 -105z" />
    <glyph glyph-name="three.closecirc_fina" 
d="M104 225q43 0 72 18.5t29 58.5q0 23 -14.5 41t-41.5 24q43 17 43 60q0 28 -23 45t-58 17q-36 0 -69 -18l12 -30q26 12 50 12q19 0 31 -8t12 -23q0 -40 -65 -46v-27q40 -2 58 -12t18 -35q0 -39 -58 -39q-22 0 -62 9l-9 -35q34 -12 75 -12zM0 -5v718q149 0 254.5 -105
t105.5 -254t-105.5 -254t-254.5 -105z" />
    <glyph glyph-name="four.closecirc_fina" 
d="M143 229h45v62h43v36h-43v158h-71l-92 -154v-40h118v-62zM0 -5v718q149 0 254.5 -105t105.5 -254t-105.5 -254t-254.5 -105zM62 327l81 132v-132h-81z" />
    <glyph glyph-name="five.closecirc_fina" 
d="M114 225q42 0 69.5 23.5t27.5 62.5q0 37 -24.5 57t-65.5 20h-17l-9 -1v63h108v37h-151v-138q40 3 61 3q23 0 36.5 -11.5t13.5 -33.5q0 -20 -13.5 -32.5t-36.5 -12.5t-61 9l-11 -36q40 -10 73 -10zM0 -5v718q149 0 254.5 -105t105.5 -254t-105.5 -254t-254.5 -105z" />
    <glyph glyph-name="six.closecirc_fina" 
d="M134 225q39 0 65.5 23t26.5 65q0 38 -23 57.5t-63 19.5q-26 0 -54 -13q5 35 24.5 55t46.5 20q9 0 45 -6l11 35q-25 9 -55 9q-54 0 -88 -40.5t-34 -110.5q0 -63 24.5 -88.5t73.5 -25.5zM136 261q-29 0 -39.5 17.5t-11.5 68.5q29 9 49 9t32 -12t12 -35q0 -21 -11.5 -34.5
t-30.5 -13.5zM0 -5v718q149 0 254.5 -105t105.5 -254t-105.5 -254t-254.5 -105z" />
    <glyph glyph-name="seven.closecirc_fina" 
d="M87 221l121 229v35h-179v-42h132l-118 -208zM0 -5v718q149 0 254.5 -105t105.5 -254t-105.5 -254t-254.5 -105z" />
    <glyph glyph-name="eight.closecirc_fina" 
d="M130 225q45 0 72 18.5t27 54.5q0 39 -57 67q49 25 49 63q0 28 -23.5 44.5t-64.5 16.5q-39 0 -65 -17.5t-26 -47.5q0 -36 40 -58q-49 -32 -49 -73q0 -68 97 -68zM131 258q-51 0 -51 41q0 31 35 51q52 -22 61 -34q5 -7 5 -14q0 -21 -14 -32.5t-36 -11.5zM138 380
q-51 21 -51 40q0 34 45 34q41 0 41 -31q0 -23 -35 -43zM0 -5v718q149 0 254.5 -105t105.5 -254t-105.5 -254t-254.5 -105z" />
    <glyph glyph-name="nine.closecirc_fina" 
d="M105 225q54 0 88 41t34 111q0 62 -24 87.5t-73 25.5q-40 0 -66.5 -22.5t-26.5 -65.5q0 -37 23 -56.5t63 -19.5q31 0 54 12q-5 -35 -24 -54.5t-47 -19.5q-21 0 -45 6l-11 -36q31 -9 55 -9zM129 359q-20 0 -32 12t-12 35q0 21 12 34.5t31 13.5q29 0 39 -18t11 -67
q-28 -10 -49 -10zM0 -5v718q149 0 254.5 -105t105.5 -254t-105.5 -254t-254.5 -105z" />
    <glyph glyph-name="zero.closecirc_init" 
d="M289 226q109 0 109 136q0 128 -103 128q-111 0 -111 -135q0 -129 105 -129zM291 264q-60 0 -60 91q0 96 62 96q59 0 59 -91q0 -96 -61 -96zM420 -5q-149 0 -254.5 105t-105.5 254t105.5 254t254.5 105v-718z" />
    <glyph glyph-name="one.closecirc_init" 
d="M420 -5q-149 0 -254.5 105t-105.5 254t105.5 254t254.5 105v-718zM287 229h46v258l-109 -3v-37h63v-218z" />
    <glyph glyph-name="two.closecirc_init" 
d="M203 229h185v39h-127q30 19 44 29t37 30t33 40.5t10 44.5q0 36 -25 56.5t-62 20.5q-51 0 -86 -35l20 -29q24 24 62 24q19 0 31.5 -10.5t12.5 -30.5q0 -22 -18 -45.5t-39.5 -40.5t-60.5 -45q-11 -8 -17 -12v-36zM420 -5q-149 0 -254.5 105t-105.5 254t105.5 254t254.5 105
v-718z" />
    <glyph glyph-name="three.closecirc_init" 
d="M276 225q43 0 72 18.5t29 58.5q0 23 -14.5 41t-41.5 24q43 17 43 60q0 28 -23 45t-58 17q-36 0 -69 -18l12 -30q26 12 50 12q19 0 31 -8t12 -23q0 -40 -65 -46v-27q40 -2 58 -12t18 -35q0 -39 -58 -39q-22 0 -62 9l-9 -35q34 -12 75 -12zM420 -5q-149 0 -254.5 105
t-105.5 254t105.5 254t254.5 105v-718z" />
    <glyph glyph-name="four.closecirc_init" 
d="M304 229h45v62h43v36h-43v158h-71l-92 -154v-40h118v-62zM420 -5q-149 0 -254.5 105t-105.5 254t105.5 254t254.5 105v-718zM223 327l81 132v-132h-81z" />
    <glyph glyph-name="five.closecirc_init" 
d="M284 224q42 0 69.5 23.5t27.5 62.5q0 37 -24.5 57t-65.5 20q-7 0 -17 -1h-9v63h108v37h-151v-138q41 3 61 3q23 0 36.5 -11.5t13.5 -33.5q0 -20 -13.5 -32.5t-36.5 -12.5t-61 9l-11 -36q40 -10 73 -10zM420 -5q-149 0 -254.5 105t-105.5 254t105.5 254t254.5 105v-718z
" />
    <glyph glyph-name="six.closecirc_init" 
d="M293 225q39 0 65.5 23t26.5 65q0 38 -23 57.5t-63 19.5q-26 0 -54 -13q5 35 24.5 55t46.5 20q9 0 45 -6l11 35q-26 9 -55 9q-54 0 -88 -40.5t-34 -110.5q0 -63 24.5 -88.5t73.5 -25.5zM295 261q-29 0 -39.5 17.5t-11.5 68.5q29 9 49 9t32 -12t12 -35q0 -21 -11.5 -34.5
t-30.5 -13.5zM420 -5q-149 0 -254.5 105t-105.5 254t105.5 254t254.5 105v-718z" />
    <glyph glyph-name="seven.closecirc_init" 
d="M420 -5q-149 0 -254.5 105t-105.5 254t105.5 254t254.5 105v-718zM264 221l121 229v35h-179v-42h132l-118 -208z" />
    <glyph glyph-name="eight.closecirc_init" 
d="M286 225q45 0 72 18.5t27 54.5q0 39 -57 67q49 25 49 63q0 28 -23.5 44.5t-64.5 16.5q-39 0 -65 -17.5t-26 -47.5q0 -36 40 -58q-49 -32 -49 -73q0 -68 97 -68zM287 258q-51 0 -51 41q0 31 35 51q52 -22 61 -34q5 -7 5 -14q0 -21 -14 -32.5t-36 -11.5zM294 380
q-51 21 -51 40q0 34 45 34q41 0 41 -31q0 -23 -35 -43zM420 -5q-149 0 -254.5 105t-105.5 254t105.5 254t254.5 105v-718z" />
    <glyph glyph-name="nine.closecirc_init" 
d="M262 225q54 0 88 41t34 111q0 62 -24 87.5t-73 25.5q-40 0 -66.5 -22.5t-26.5 -65.5q0 -37 23 -56.5t63 -19.5q32 0 54 12q-5 -35 -24 -54.5t-47 -19.5q-21 0 -45 6l-11 -36q31 -9 55 -9zM286 359q-20 0 -32 12t-12 35q0 21 12 34.5t31 13.5q29 0 39 -18t11 -67
q-28 -10 -49 -10zM420 -5q-149 0 -254.5 105t-105.5 254t105.5 254t254.5 105v-718z" />
    <glyph glyph-name="zero.closecirc_medi" horiz-adv-x="230" 
d="M115 225q109 0 109 136q0 128 -103 128q-111 0 -111 -135q0 -129 105 -129zM117 263q-60 0 -60 91q0 96 62 96q59 0 59 -91q0 -96 -61 -96zM0 -5v718h230v-718h-230z" />
    <glyph glyph-name="one.closecirc_medi" horiz-adv-x="230" 
d="M107 229h46v258l-109 -3v-37h63v-218zM0 -5v718h230v-718h-230z" />
    <glyph glyph-name="two.closecirc_medi" horiz-adv-x="230" 
d="M23 229h185v39h-127q30 19 44 29t37 30t33 40.5t10 44.5q0 36 -25 56.5t-62 20.5q-51 0 -86 -35l20 -29q24 24 62 24q19 0 31.5 -10.5t12.5 -30.5q0 -22 -18 -45.5t-39.5 -40.5t-60.5 -45q-11 -8 -17 -12v-36zM0 -5v718h230v-718h-230z" />
    <glyph glyph-name="three.closecirc_medi" horiz-adv-x="230" 
d="M103 225q43 0 72 18.5t29 58.5q0 23 -14.5 41t-41.5 24q43 17 43 60q0 28 -23 45t-58 17q-36 0 -69 -18l12 -30q26 12 50 12q19 0 31 -8t12 -23q0 -40 -65 -46v-27q40 -2 58 -12t18 -35q0 -39 -58 -39q-21 0 -62 9l-9 -35q34 -12 75 -12zM0 -5v718h230v-718h-230z" />
    <glyph glyph-name="four.closecirc_medi" horiz-adv-x="230" 
d="M134 229h45v62h33v36h-33v158h-71l-92 -154v-40h118v-62zM0 -5v718h230v-718h-230zM53 327l81 132v-132h-81z" />
    <glyph glyph-name="five.closecirc_medi" horiz-adv-x="230" 
d="M102 225q42 0 69.5 23.5t27.5 62.5q0 37 -24.5 57t-65.5 20h-17l-9 -1v63h108v37h-151v-138q41 3 61 3q23 0 36.5 -11.5t13.5 -33.5q0 -20 -13.5 -32.5t-36.5 -12.5t-61 9l-11 -36q40 -10 73 -10zM0 -5v718h230v-718h-230z" />
    <glyph glyph-name="six.closecirc_medi" horiz-adv-x="230" 
d="M119 225q39 0 65.5 23t26.5 65q0 38 -23 57.5t-63 19.5q-26 0 -54 -13q5 35 24.5 55t46.5 20q9 0 45 -6l11 35q-26 9 -55 9q-54 0 -88 -40.5t-34 -110.5q0 -63 24.5 -88.5t73.5 -25.5zM121 261q-29 0 -39.5 17.5t-11.5 68.5q29 9 49 9t32 -12t12 -35q0 -21 -11.5 -34.5
t-30.5 -13.5zM0 -5v718h230v-718h-230z" />
    <glyph glyph-name="seven.closecirc_medi" horiz-adv-x="230" 
d="M84 221l121 229v35h-179v-42h132l-118 -208zM0 -5v718h230v-718h-230z" />
    <glyph glyph-name="eight.closecirc_medi" horiz-adv-x="230" 
d="M114 225q45 0 72 18.5t27 54.5q0 39 -57 67q49 25 49 63q0 28 -23.5 44.5t-64.5 16.5q-39 0 -65 -17.5t-26 -47.5q0 -36 40 -58q-49 -32 -49 -73q0 -68 97 -68zM115 258q-51 0 -51 41q0 31 35 51q52 -22 61 -34q5 -7 5 -14q0 -21 -14 -32.5t-36 -11.5zM122 380
q-51 21 -51 40q0 34 45 34q41 0 41 -31q0 -23 -35 -43zM0 -5v718h230v-718h-230z" />
    <glyph glyph-name="nine.closecirc_medi" horiz-adv-x="230" 
d="M88 225q54 0 88 41t34 111q0 62 -24 87.5t-73 25.5q-40 0 -66.5 -22.5t-26.5 -65.5q0 -37 23 -56.5t63 -19.5q32 0 54 12q-5 -35 -24 -54.5t-47 -19.5q-21 0 -45 6l-11 -36q31 -9 55 -9zM112 359q-20 0 -32 12t-12 35q0 21 12 34.5t31 13.5q29 0 39 -18t11 -67
q-28 -10 -49 -10zM0 -5v718h230v-718h-230z" />
    <glyph glyph-name="zero.opencirc_fina" 
d="M0 -5v46q130 0 221.5 91.5t91.5 221.5t-91.5 221.5t-221.5 91.5v46q149 0 254.5 -105t105.5 -254t-105.5 -254t-254.5 -105zM137 225q-105 0 -105 129q0 135 111 135q103 0 103 -128q0 -136 -109 -136zM139 263q61 0 61 96q0 91 -59 91q-62 0 -62 -96q0 -91 60 -91z" />
    <glyph glyph-name="one.opencirc_fina" 
d="M0 -5v46q130 0 221.5 91.5t91.5 221.5t-91.5 221.5t-221.5 91.5v46q149 0 254.5 -105t105.5 -254t-105.5 -254t-254.5 -105zM121 228v218h-63v37l109 3v-258h-46z" />
    <glyph glyph-name="two.opencirc_fina" 
d="M39 229v36q86 62 107 84q28 31 28 59q0 20 -12.5 30.5t-31.5 10.5q-38 0 -62 -24l-20 29q35 35 86 35q37 0 62 -20.5t25 -56.5q0 -24 -10 -44.5t-33 -40.5t-37 -30t-44 -29h127v-39h-185zM0 -5v46q130 0 221.5 91.5t91.5 221.5t-91.5 221.5t-221.5 91.5v46
q149 0 254.5 -105t105.5 -254t-105.5 -254t-254.5 -105z" />
    <glyph glyph-name="three.opencirc_fina" 
d="M104 225q-41 0 -75 12l9 35q41 -9 62 -9q58 0 58 39q0 25 -18 35t-58 12v27q65 6 65 46q0 15 -12 23t-31 8q-24 0 -50 -12l-12 30q33 18 69 18q35 0 58 -17t23 -45q0 -43 -43 -60q27 -6 41.5 -24t14.5 -41q0 -40 -29 -58.5t-72 -18.5zM0 -5v46q130 0 221.5 91.5
t91.5 221.5t-91.5 221.5t-221.5 91.5v46q149 0 254.5 -105t105.5 -254t-105.5 -254t-254.5 -105z" />
    <glyph glyph-name="four.opencirc_fina" 
d="M0 -5v46q130 0 221.5 91.5t91.5 221.5t-91.5 221.5t-221.5 91.5v46q149 0 254.5 -105t105.5 -254t-105.5 -254t-254.5 -105zM143 229v62h-118v40l92 154h71v-158h43v-36h-43v-62h-45zM62 327h81v132z" />
    <glyph glyph-name="five.opencirc_fina" 
d="M114 225q-33 0 -73 10l11 36q38 -9 61 -9t36.5 12.5t13.5 32.5q0 22 -13.5 33.5t-36.5 11.5q-21 0 -61 -3v138h151v-37h-108v-63l9 1h17q41 0 65.5 -20t24.5 -57q0 -39 -27.5 -62.5t-69.5 -23.5zM0 -5v46q130 0 221.5 91.5t91.5 221.5t-91.5 221.5t-221.5 91.5v46
q149 0 254.5 -105t105.5 -254t-105.5 -254t-254.5 -105z" />
    <glyph glyph-name="six.opencirc_fina" 
d="M134 225q-49 0 -73.5 25.5t-24.5 88.5q0 70 34 110.5t88 40.5q30 0 55 -9l-11 -35q-36 6 -45 6q-27 0 -46.5 -20t-24.5 -55q28 13 54 13q40 0 63 -19.5t23 -57.5q0 -42 -26.5 -65t-65.5 -23zM0 -5v46q130 0 221.5 91.5t91.5 221.5t-91.5 221.5t-221.5 91.5v46
q149 0 254.5 -105t105.5 -254t-105.5 -254t-254.5 -105zM136 261q19 0 30.5 13.5t11.5 34.5q0 23 -12 35t-32 12t-49 -9q1 -51 11.5 -68.5t39.5 -17.5z" />
    <glyph glyph-name="seven.opencirc_fina" 
d="M0 -5v46q130 0 221.5 91.5t91.5 221.5t-91.5 221.5t-221.5 91.5v46q149 0 254.5 -105t105.5 -254t-105.5 -254t-254.5 -105zM87 221l-44 14l118 208h-132v42h179v-35z" />
    <glyph glyph-name="eight.opencirc_fina" 
d="M130 225q-97 0 -97 68q0 41 49 73q-40 22 -40 58q0 30 26 47.5t65 17.5q41 0 64.5 -16.5t23.5 -44.5q0 -38 -49 -63q57 -28 57 -67q0 -36 -27 -54.5t-72 -18.5zM0 -5v46q130 0 221.5 91.5t91.5 221.5t-91.5 221.5t-221.5 91.5v46q149 0 254.5 -105t105.5 -254
t-105.5 -254t-254.5 -105zM131 258q22 0 36 11.5t14 32.5q0 14 -15 23.5t-43 21.5q-5 2 -8 3q-35 -20 -35 -51q0 -41 51 -41zM138 380q35 20 35 43q0 31 -41 31q-45 0 -45 -34q0 -19 51 -40z" />
    <glyph glyph-name="nine.opencirc_fina" 
d="M105 225q-24 0 -55 9l11 36q24 -6 45 -6q28 0 47 19.5t24 54.5q-23 -12 -54 -12q-40 0 -63 19.5t-23 56.5q0 43 26.5 65.5t66.5 22.5q49 0 73 -25.5t24 -87.5q0 -70 -34 -111t-88 -41zM0 -5v46q130 0 221.5 91.5t91.5 221.5t-91.5 221.5t-221.5 91.5v46q149 0 254.5 -105
t105.5 -254t-105.5 -254t-254.5 -105zM129 359q21 0 49 10q-1 49 -11 67t-39 18q-19 0 -31 -13.5t-12 -34.5q0 -23 12 -35t32 -12z" />
    <glyph glyph-name="zero.opencirc_init" 
d="M420 -5q-149 0 -254.5 105t-105.5 254t105.5 254t254.5 105v-46q-130 0 -221.5 -91.5t-91.5 -221.5t91.5 -221.5t221.5 -91.5v-46zM289 226q-105 0 -105 129q0 135 111 135q103 0 103 -128q0 -136 -109 -136zM291 264q61 0 61 96q0 91 -59 91q-62 0 -62 -96q0 -91 60 -91
z" />
    <glyph glyph-name="one.opencirc_init" 
d="M420 -5q-149 0 -254.5 105t-105.5 254t105.5 254t254.5 105v-46q-130 0 -221.5 -91.5t-91.5 -221.5t91.5 -221.5t221.5 -91.5v-46zM287 229v218h-63v37l109 3v-258h-46z" />
    <glyph glyph-name="two.opencirc_init" 
d="M203 229v36q86 62 107 84q28 31 28 59q0 20 -12.5 30.5t-31.5 10.5q-38 0 -62 -24l-20 29q35 35 86 35q37 0 62 -20.5t25 -56.5q0 -24 -10 -44.5t-33 -40.5t-37 -30t-44 -29h127v-39h-185zM420 -5q-149 0 -254.5 105t-105.5 254t105.5 254t254.5 105v-46
q-130 0 -221.5 -91.5t-91.5 -221.5t91.5 -221.5t221.5 -91.5v-46z" />
    <glyph glyph-name="three.opencirc_init" 
d="M276 225q-41 0 -75 12l9 35q41 -9 62 -9q58 0 58 39q0 25 -18 35t-58 12v27q65 6 65 46q0 15 -12 23t-31 8q-24 0 -50 -12l-12 30q33 18 69 18q35 0 58 -17t23 -45q0 -43 -43 -60q27 -6 41.5 -24t14.5 -41q0 -40 -29 -58.5t-72 -18.5zM420 -5q-149 0 -254.5 105
t-105.5 254t105.5 254t254.5 105v-46q-130 0 -221.5 -91.5t-91.5 -221.5t91.5 -221.5t221.5 -91.5v-46z" />
    <glyph glyph-name="four.opencirc_init" 
d="M420 -5q-149 0 -254.5 105t-105.5 254t105.5 254t254.5 105v-46q-130 0 -221.5 -91.5t-91.5 -221.5t91.5 -221.5t221.5 -91.5v-46zM304 229v62h-118v40l92 154h71v-158h43v-36h-43v-62h-45zM223 327h81v132z" />
    <glyph glyph-name="five.opencirc_init" 
d="M284 224q-33 0 -73 10l11 36q37 -9 61 -9q23 0 36.5 12.5t13.5 32.5q0 22 -13.5 33.5t-36.5 11.5q-21 0 -61 -3v138h151v-37h-108v-63h9q10 1 17 1q41 0 65.5 -20t24.5 -57q0 -39 -27.5 -62.5t-69.5 -23.5zM420 -5q-149 0 -254.5 105t-105.5 254t105.5 254t254.5 105v-46
q-130 0 -221.5 -91.5t-91.5 -221.5t91.5 -221.5t221.5 -91.5v-46z" />
    <glyph glyph-name="six.opencirc_init" 
d="M293 225q-49 0 -73.5 25.5t-24.5 88.5q0 70 34 110.5t88 40.5q29 0 55 -9l-11 -35q-36 6 -45 6q-27 0 -46.5 -20t-24.5 -55q28 13 54 13q40 0 63 -19.5t23 -57.5q0 -42 -26.5 -65t-65.5 -23zM420 -5q-149 0 -254.5 105t-105.5 254t105.5 254t254.5 105v-46
q-130 0 -221.5 -91.5t-91.5 -221.5t91.5 -221.5t221.5 -91.5v-46zM295 261q19 0 30.5 13.5t11.5 34.5q0 23 -12 35t-32 12t-49 -9q1 -51 11.5 -68.5t39.5 -17.5z" />
    <glyph glyph-name="seven.opencirc_init" 
d="M420 -5q-149 0 -254.5 105t-105.5 254t105.5 254t254.5 105v-46q-130 0 -221.5 -91.5t-91.5 -221.5t91.5 -221.5t221.5 -91.5v-46zM264 221l-44 14l118 208h-132v42h179v-35z" />
    <glyph glyph-name="eight.opencirc_init" 
d="M286 225q-97 0 -97 68q0 41 49 73q-40 22 -40 58q0 30 26 47.5t65 17.5q41 0 64.5 -16.5t23.5 -44.5q0 -38 -49 -63q57 -28 57 -67q0 -36 -27 -54.5t-72 -18.5zM420 -5q-149 0 -254.5 105t-105.5 254t105.5 254t254.5 105v-46q-130 0 -221.5 -91.5t-91.5 -221.5
t91.5 -221.5t221.5 -91.5v-46zM287 258q22 0 36 11.5t14 32.5q0 14 -15 23.5t-43 21.5q-5 2 -8 3q-35 -20 -35 -51q0 -41 51 -41zM294 380q35 20 35 43q0 31 -41 31q-45 0 -45 -34q0 -19 51 -40z" />
    <glyph glyph-name="nine.opencirc_init" 
d="M262 225q-24 0 -55 9l11 36q24 -6 45 -6q28 0 47 19.5t24 54.5q-22 -12 -54 -12q-40 0 -63 19.5t-23 56.5q0 43 26.5 65.5t66.5 22.5q49 0 73 -25.5t24 -87.5q0 -70 -34 -111t-88 -41zM420 -5q-149 0 -254.5 105t-105.5 254t105.5 254t254.5 105v-46q-130 0 -221.5 -91.5
t-91.5 -221.5t91.5 -221.5t221.5 -91.5v-46zM286 359q21 0 49 10q-1 49 -11 67t-39 18q-19 0 -31 -13.5t-12 -34.5q0 -23 12 -35t32 -12z" />
    <glyph glyph-name="zero.opencirc_medi" horiz-adv-x="230" 
d="M115 225q-105 0 -105 129q0 135 111 135q103 0 103 -128q0 -136 -109 -136zM117 263q61 0 61 96q0 91 -59 91q-62 0 -62 -96q0 -91 60 -91zM0 -5v46h230v-46h-230zM0 667v46h230v-46h-230z" />
    <glyph glyph-name="one.opencirc_medi" horiz-adv-x="230" 
d="M107 229v218h-63v37l109 3v-258h-46zM0 -5v46h230v-46h-230zM0 667v46h230v-46h-230z" />
    <glyph glyph-name="two.opencirc_medi" horiz-adv-x="230" 
d="M23 229v36q86 62 107 84q28 31 28 59q0 20 -12.5 30.5t-31.5 10.5q-38 0 -62 -24l-20 29q35 35 86 35q37 0 62 -20.5t25 -56.5q0 -24 -10 -44.5t-33 -40.5t-37 -30t-44 -29h127v-39h-185zM0 -5v46h230v-46h-230zM0 667v46h230v-46h-230z" />
    </font>
</defs>
</svg>
