<?xml version="1.0" standalone="no"?>
<!DOCTYPE svg PUBLIC "-//W3C//DTD SVG 1.1//EN" "http://www.w3.org/Graphics/SVG/1.1/DTD/svg11.dtd" >
<svg xmlns="http://www.w3.org/2000/svg" xmlns:xlink="http://www.w3.org/1999/xlink" version="1.1">
<metadata>
Created by FontForge 20170731 at Wed Apr 24 05:35:11 2002
 By Aleksey,,,
Design and copyright Peter Bilak, 2001. Distributed by www.typotheque.com
</metadata>
<defs>
<font id="FedraSansBookItalic" horiz-adv-x="277" >
  <font-face 
    font-family="Fedra Sans"
    font-weight="400"
    font-style="italic"
    font-stretch="normal"
    units-per-em="1000"
    panose-1="0 0 4 0 0 0 0 0 0 0"
    ascent="800"
    descent="-200"
    x-height="546"
    cap-height="707"
    bbox="-137 -239 1077 876"
    underline-thickness="30"
    underline-position="-195"
    slope="-12"
    unicode-range="U+0020-F002"
  />
<missing-glyph horiz-adv-x="500" 
d="M63 0v776h375v-776h-375zM125 63h250v651h-250v-651z" />
    <glyph glyph-name=".notdef" horiz-adv-x="500" 
d="M63 0v776h375v-776h-375zM125 63h250v651h-250v-651z" />
    <glyph glyph-name=".null" horiz-adv-x="0" 
 />
    <glyph glyph-name="nonmarkingreturn" horiz-adv-x="240" 
 />
    <glyph glyph-name="space" unicode=" " horiz-adv-x="240" 
 />
    <glyph glyph-name="exclam" unicode="!" 
d="M217 707l-56 -537h-77l14 139l42 398h77zM153 89l-10 -90h-89l10 90h89z" />
    <glyph glyph-name="quotedbl" unicode="&#x22;" horiz-adv-x="348" 
d="M330 755l-33 -240h-61l17 240h77zM159 755l-33 -240h-61l17 240h77z" />
    <glyph glyph-name="numbersign" unicode="#" horiz-adv-x="592" 
d="M572 547l-7 -67h-91l-41 -253h106l-7 -67h-110l-26 -160h-77l26 160h-160l-26 -160h-77l26 160h-88l7 67h91l41 253h-106l7 67h110l26 160h77l-26 -160h160l26 160h77l-26 -160h88zM396 480h-159l-41 -253h159z" />
    <glyph glyph-name="dollar" unicode="$" horiz-adv-x="479" 
d="M469 673l-26 -62q-75 33 -154 33q-146 0 -146 -107q0 -53 75 -105q70 -47 141 -93q75 -64 75 -144q0 -83 -54 -137q-50 -50 -134 -64l-7 -93h-77l11 88q-108 5 -183 50l32 62q94 -42 169 -42q71 0 114 31q49 35 49 102q0 61 -75 114l-138 92q-75 61 -75 140q0 76 54 123
q48 41 129 51l7 87h77l-12 -87q98 -10 148 -39z" />
    <glyph glyph-name="percent" unicode="%" horiz-adv-x="793" 
d="M379 576q0 -82 -48 -135t-130 -53q-65 0 -101 34.5t-36 99.5q0 81 47 136.5t127 55.5q66 0 103.5 -35.5t37.5 -102.5zM696 589l-589 -533l-42 47l589 532zM717 177q0 -82 -48 -135t-130 -53q-65 0 -101 34.5t-36 99.5q0 81 47 136.5t127 55.5q66 0 103.5 -35.5
t37.5 -102.5zM309 573q0 86 -77 86q-50 0 -76 -45q-23 -37 -23 -91q0 -80 74 -80q50 0 78 41q24 36 24 89zM647 174q0 86 -77 86q-50 0 -76 -45q-23 -37 -23 -91q0 -80 74 -80q50 0 78 41q24 36 24 89z" />
    <glyph glyph-name="ampersand" unicode="&#x26;" horiz-adv-x="612" 
d="M658 343q-13 -29 -43 -50q-35 -26 -79 -26h-63q-24 -118 -92 -192q-79 -88 -197 -88q-68 0 -106 57t-38 158q0 174 67 268q65 90 181 90q114 0 114 -96q0 -57 -22 -90q-17 -27 -62 -53q36 5 67 5h138q29 0 56 13.5t40 34.5zM402 267h-192l-8 44q123 40 123 126
q0 65 -56 65q-59 0 -105 -73q-48 -78 -48 -190q0 -181 88 -181q67 0 123 57t75 152z" />
    <glyph glyph-name="quotesingle" unicode="'" horiz-adv-x="177" 
d="M165 755l-33 -240h-61l17 240h77z" />
    <glyph glyph-name="parenleft" unicode="(" horiz-adv-x="343" 
d="M360 717q-110 -72 -176 -224q-60 -139 -60 -281q0 -102 35 -205q39 -115 107 -177l-51 -52q-81 65 -127 195q-41 114 -41 230q0 161 69 317q76 173 203 249z" />
    <glyph glyph-name="parenright" unicode=")" horiz-adv-x="343" 
d="M299 366q0 -163 -72 -325q-77 -176 -203 -263l-41 52q107 82 175 237q63 147 63 291q0 100 -34 196q-40 110 -110 163l51 52q82 -56 130 -181q41 -109 41 -222z" />
    <glyph glyph-name="asterisk" unicode="*" horiz-adv-x="431" 
d="M390 644l-105 -44l-18 38l95 65zM267 762l-23 -110h-46v110h69zM378 527l-42 -61l-81 64l27 40zM172 638l-28 -40l-95 45l40 60zM229 517l-1 -109h-69l24 109h46zM159 531l-96 -65l-26 60l104 44z" />
    <glyph glyph-name="plus" unicode="+" horiz-adv-x="468" 
d="M432 388l-7 -69h-155l-16 -158h-77l17 158h-158l8 69h157l16 158h77l-16 -158h154z" />
    <glyph glyph-name="comma" unicode="," 
d="M169 86q-6 -114 -67 -208h-64q38 84 47 208h84z" />
    <glyph glyph-name="hyphen" unicode="-" horiz-adv-x="358" 
d="M332 322l-8 -69h-298l8 69h298z" />
    <glyph glyph-name="hyphen" unicode="&#x2010;" horiz-adv-x="358" 
d="M332 322l-8 -69h-298l8 69h298z" />
    <glyph glyph-name="period" unicode="." 
d="M155 89l-9 -90h-89l9 90h89z" />
    <glyph glyph-name="slash" unicode="/" horiz-adv-x="528" 
d="M548 719l-564 -899l-55 34l564 899z" />
    <glyph glyph-name="zero" unicode="0" horiz-adv-x="606" 
d="M563 447q0 -184 -60 -302q-78 -154 -244 -154q-113 0 -167 80q-48 68 -48 190q0 183 63 301q81 151 248 151q107 0 161 -79q47 -69 47 -187zM483 452q0 197 -144 197q-124 0 -178 -141q-37 -97 -37 -247q0 -206 147 -206q212 0 212 397z" />
    <glyph glyph-name="one" unicode="1" horiz-adv-x="367" 
d="M304 707l-74 -707h-77l68 641h-142l6 60z" />
    <glyph glyph-name="two" unicode="2" horiz-adv-x="508" 
d="M468 550q0 -133 -128 -275q-57 -63 -236 -210h358l-7 -65h-445l7 65q76 68 151 136q101 91 151 160q68 93 68 171q0 115 -115 115q-84 0 -136 -30l-28 52q63 46 177 46q183 0 183 -165z" />
    <glyph glyph-name="three" unicode="3" horiz-adv-x="499" 
d="M429 568q0 -62 -41 -117t-102 -76q141 -47 141 -173q0 -109 -74 -164q-65 -49 -179 -49q-118 0 -179 30l22 65q75 -25 154 -25q176 0 176 138q0 66 -59 104q-47 31 -119 36l6 59q68 5 121 49q58 47 58 113q0 90 -114 90q-65 0 -120 -20l-20 55q67 34 156 34q73 0 120 -36
q53 -41 53 -113z" />
    <glyph glyph-name="four" unicode="4" horiz-adv-x="584" 
d="M544 255l-7 -65h-125l-19 -189h-77l20 189h-313l7 69l324 448h113l-48 -452h125zM384 648l-280 -393h239z" />
    <glyph glyph-name="five" unicode="5" horiz-adv-x="523" 
d="M485 706l-6 -65h-296l-23 -224q16 0 48.5 1t48.5 1q88 0 140 -46q56 -49 56 -136q0 -113 -72.5 -180.5t-187.5 -67.5q-108 0 -169 20q16 46 25 69q73 -20 150 -20t126 45.5t49 121.5q0 127 -140 127q-71 0 -153 -8l38 362h366z" />
    <glyph glyph-name="six" unicode="6" horiz-adv-x="560" 
d="M498 243q0 -110 -69 -183t-179 -73q-113 0 -163 63q-45 57 -45 176q0 195 79 328q96 160 278 160q62 0 93 -14l-23 -63q-15 9 -78 9q-150 0 -220 -148q-52 -112 -52 -281q0 -83 30 -121q34 -44 115 -44q72 0 116 59q40 53 40 127q0 130 -143 130q-34 0 -67 -6v63
q41 9 97 9q86 0 138.5 -50t52.5 -141z" />
    <glyph glyph-name="seven" unicode="7" horiz-adv-x="454" 
d="M472 707l-7 -67l-380 -655l-61 32l363 625h-349l7 65h427z" />
    <glyph glyph-name="eight" unicode="8" horiz-adv-x="562" 
d="M515 581q0 -111 -173 -210q72 -47 101 -76q51 -51 51 -110q0 -100 -79 -151q-68 -44 -173 -44q-208 0 -208 145q0 86 57 145q37 38 132 91q-66 51 -82 69q-40 44 -40 96q0 93 71 139q59 39 157 39q74 0 124 -29q62 -36 62 -104zM433 568q0 84 -111 84q-61 0 -100 -22
q-48 -27 -48 -84q0 -39 40 -80q17 -17 73 -60q78 48 96 64q50 43 50 98zM416 182q0 44 -52 90q-15 13 -88 63q-79 -48 -108 -74q-58 -52 -58 -110q0 -95 145 -95q69 0 111 27q50 33 50 99z" />
    <glyph glyph-name="nine" unicode="9" horiz-adv-x="558" 
d="M516 450q0 -206 -81 -323q-95 -138 -294 -138q-47 0 -79 12q7 21 20 63q24 -10 72 -10q280 0 280 400q0 79 -28 130q-35 64 -107 64q-77 0 -119 -60q-37 -53 -37 -133q0 -134 125 -134q37 0 71 7l4 -63q-38 -11 -97 -11q-88 0 -135 52.5t-47 147.5q0 115 67 187.5
t182 72.5q104 0 157 -82q46 -71 46 -182z" />
    <glyph glyph-name="colon" unicode=":" 
d="M175 546l-9 -89h-89l9 89h89zM130 89l-10 -90h-89l10 90h89z" />
    <glyph glyph-name="semicolon" unicode=";" 
d="M177 546l-10 -89h-89l9 89h90zM119 86q-6 -116 -68 -208h-64q39 84 48 208h84z" />
    <glyph glyph-name="less" unicode="&#x3c;" horiz-adv-x="438" 
d="M430 562l-7 -72l-341 -137l312 -136l-8 -72l-361 159l10 99z" />
    <glyph glyph-name="equal" unicode="=" horiz-adv-x="468" 
d="M442 488l-7 -69h-388l7 69h388zM421 288l-7 -69h-388l7 69h388z" />
    <glyph glyph-name="greater" unicode="&#x3e;" horiz-adv-x="438" 
d="M414 403l-11 -99l-395 -159l8 72l341 136l-313 137l8 72z" />
    <glyph glyph-name="question" unicode="?" horiz-adv-x="419" 
d="M365 509q-6 -53 -50 -104l-84 -82q-47 -47 -55 -90q-4 -22 3 -70h-71q-7 41 -4 71q6 55 51 109q42 41 84.5 83.5t46.5 76.5q6 62 -46 100q-45 32 -120 40l21 66q95 -7 154 -48q71 -48 71 -131q0 -10 -1 -21zM182 89l-10 -90h-89l10 90h89z" />
    <glyph glyph-name="at" unicode="@" horiz-adv-x="782" 
d="M743 482q0 -130 -61 -226q-72 -112 -195 -112q-65 0 -65 51q0 9 2 19q-21 -23 -57 -44q-41 -23 -67 -23q-83 0 -83 96q0 106 56 178q61 79 165 79q58 0 102 -22l-49 -228q-3 -14 -3 -26q0 -20 12 -20q91 0 137 95q35 74 35 176q0 181 -178 181q-181 0 -283 -133
q-93 -122 -93 -310q0 -219 220 -219q71 0 149 16l10 -57q-73 -25 -176 -25q-276 0 -276 274q0 224 115 363q124 150 344 150q239 0 239 -233zM465 437q-11 6 -35 6q-143 0 -143 -196q0 -35 32 -35q50 0 109 59z" />
    <glyph glyph-name="A" unicode="A" horiz-adv-x="619" 
d="M585 0h-84l-53 266h-269l-130 -266h-83l352 707h126zM435 330l-65 328l-160 -328h225z" />
    <glyph glyph-name="B" unicode="B" horiz-adv-x="609" 
d="M549 226q0 -226 -261 -226h-223l74 707h193q202 0 202 -154q0 -59 -30 -107q-32 -52 -87 -68l1 -3q58 -5 94.5 -47.5t36.5 -101.5zM449 542q0 62 -44 86q-32 17 -101 17h-90l-27 -249h100q81 0 119 31q43 35 43 115zM466 218q0 75 -68 100q-40 14 -132 14h-85l-28 -266
h124q91 0 135 29q54 35 54 123z" />
    <glyph glyph-name="C" unicode="C" horiz-adv-x="594" 
d="M604 687l-31 -65q-65 22 -142 22q-144 0 -225 -92q-77 -87 -77 -236q0 -123 70 -189t191 -66q84 0 153 22l15 -67q-82 -26 -194 -26q-146 0 -232.5 85.5t-86.5 233.5q0 184 105 295t287 111q102 0 167 -28z" />
    <glyph glyph-name="D" unicode="D" horiz-adv-x="721" 
d="M676 395q0 -196 -111 -298q-107 -97 -306 -97h-194l74 708h188q157 0 249 -74q100 -82 100 -239zM594 391q0 250 -277 250h-106l-60 -575h126q152 0 234.5 85t82.5 240z" />
    <glyph glyph-name="E" unicode="E" horiz-adv-x="563" 
d="M533 707l-7 -65h-313l-27 -254h292l-7 -66h-292l-27 -256h337l-7 -67l-417 1l74 707h394z" />
    <glyph glyph-name="F" unicode="F" horiz-adv-x="473" 
d="M493 707l-7 -65h-273l-29 -274h252l-7 -66h-252l-32 -302h-80l74 707h354z" />
    <glyph glyph-name="G" unicode="G" horiz-adv-x="666" 
d="M611 297l-28 -273q-108 -34 -219 -34q-146 0 -232.5 85.5t-86.5 233.5q0 184 105 295t287 111q102 0 167 -28l-31 -65q-65 22 -142 22q-144 0 -225 -92q-77 -87 -77 -236q0 -123 70 -189t191 -66q61 0 118 12l23 224h80z" />
    <glyph glyph-name="H" unicode="H" horiz-adv-x="745" 
d="M680 707l-75 -707h-80l34 322h-380l-34 -322h-80l74 707h81l-34 -319h380l33 319h81z" />
    <glyph glyph-name="I" unicode="I" horiz-adv-x="285" 
d="M220 707l-75 -707h-80l74 707h81z" />
    <glyph glyph-name="J" unicode="J" horiz-adv-x="286" 
d="M227 707l-58 -554q-13 -123 -59 -200q-56 -93 -168 -140l-28 59q92 48 129 112q33 57 45 167l59 556h80z" />
    <glyph glyph-name="K" unicode="K" horiz-adv-x="598" 
d="M618 707l-318 -327l254 -363l-65 -50l-280 399l2 18l306 323h101zM220 707l-75 -707h-80l74 707h81z" />
    <glyph glyph-name="L" unicode="L" horiz-adv-x="485" 
d="M460 69l-8 -70l-387 1l74 707h81l-68 -638h308z" />
    <glyph glyph-name="M" unicode="M" horiz-adv-x="874" 
d="M781 707l-24 -707h-80l23 609l-272 -609h-127l-48 611l-192 -611h-81l228 707h117l49 -661l296 661h111z" />
    <glyph glyph-name="N" unicode="N" horiz-adv-x="732" 
d="M667 707l-77 -707h-129l-251 631l-65 -631h-80l75 707h124l258 -647l64 647h81z" />
    <glyph glyph-name="O" unicode="O" horiz-adv-x="782" 
d="M737 400q0 -185 -103 -297q-107 -115 -290 -115q-143 0 -221 86t-78 233q0 183 107 297t288 114q143 0 220 -85.5t77 -232.5zM654 397q0 116 -57 182q-60 69 -173 69q-141 0 -222 -98q-75 -92 -75 -237q0 -116 56 -183q60 -73 172 -73q143 0 224 100q75 92 75 240z" />
    <glyph glyph-name="P" unicode="P" horiz-adv-x="566" 
d="M576 522q0 -252 -323 -252l6 66q113 3 164 35q68 41 68 146q0 125 -150 125h-128l-67 -642h-81l74 707h230q95 0 149 -44q58 -48 58 -141z" />
    <glyph glyph-name="Q" unicode="Q" horiz-adv-x="782" 
d="M737 400q0 -185 -103 -297q-107 -115 -290 -115q-143 0 -221 86t-78 233q0 183 107 297t288 114q143 0 220 -85.5t77 -232.5zM725 -90l-7 -68l-382 65l6 62zM654 397q0 116 -57 182q-60 69 -173 69q-141 0 -222 -98q-75 -92 -75 -237q0 -116 56 -183q60 -73 172 -73
q143 0 224 100q75 92 75 240z" />
    <glyph glyph-name="R" unicode="R" horiz-adv-x="621" 
d="M599 21l-74 -43l-200 326q-26 -3 -146 -3l-33 -301h-81l74 707h220q93 0 150.5 -45t57.5 -127q0 -76 -39 -131q-42 -59 -120 -81zM482 532q0 110 -151 110h-118l-26 -273h94q201 0 201 163z" />
    <glyph glyph-name="S" unicode="S" horiz-adv-x="479" 
d="M469 673l-26 -62q-75 33 -154 33q-146 0 -146 -107q0 -53 75 -105q70 -47 141 -93q75 -64 75 -144q0 -98 -73 -154q-69 -52 -176 -52q-48 0 -105 14.5t-90 35.5l32 62q94 -42 169 -42q71 0 114 31q49 35 49 102q0 61 -75 114l-138 92q-75 61 -75 140q0 86 68 133
q61 43 157 43q40 0 95.5 -12t82.5 -29z" />
    <glyph glyph-name="T" unicode="T" horiz-adv-x="551" 
d="M595 707l-7 -68h-242l-67 -639h-80l67 639h-242l7 68h564z" />
    <glyph glyph-name="U" unicode="U" horiz-adv-x="719" 
d="M669 707l-46 -440q-16 -154 -111 -225q-74 -55 -187 -55q-250 0 -250 211q0 20 2 42l49 467h82l-48 -460q-2 -19 -2 -36q0 -154 174 -154q192 0 215 214l46 436h76z" />
    <glyph glyph-name="V" unicode="V" horiz-adv-x="633" 
d="M685 707l-359 -707h-128l-161 707h84l149 -661l332 661h83z" />
    <glyph glyph-name="W" unicode="W" horiz-adv-x="896" 
d="M941 707l-277 -707h-118l-91 441l-206 -441h-114l-104 707h83l86 -657l233 499l-33 158h84l123 -657l257 657h77z" />
    <glyph glyph-name="X" unicode="X" horiz-adv-x="566" 
d="M586 707l-257 -334l181 -373h-86l-148 304l-234 -304h-89l289 373l-162 334h86l129 -265l206 265h85z" />
    <glyph glyph-name="Y" unicode="Y" horiz-adv-x="520" 
d="M575 707l-291 -433l-29 -274h-80l29 274l-184 433h90l144 -365l235 365h86z" />
    <glyph glyph-name="Z" unicode="Z" horiz-adv-x="523" 
d="M523 707l-6 -63l-434 -575h395l-8 -70l-485 1l7 70l430 568h-344l7 69h438z" />
    <glyph glyph-name="bracketleft" unicode="[" horiz-adv-x="347" 
d="M328 754l-7 -65h-100l-88 -844h100l-7 -65h-177l102 974h177z" />
    <glyph glyph-name="backslash" unicode="\" horiz-adv-x="532" 
d="M562 -146l-59 -34l-469 899l59 34z" />
    <glyph glyph-name="bracketright" unicode="]" horiz-adv-x="347" 
d="M298 754l-102 -974h-177l7 65h100l88 844h-100l7 65h177z" />
    <glyph glyph-name="asciicircum" unicode="^" horiz-adv-x="542" 
d="M458 294h-82l-82 359l-170 -359h-80l199 413h113z" />
    <glyph glyph-name="underscore" unicode="_" horiz-adv-x="500" 
d="M500 -166h-500v69h500v-69z" />
    <glyph glyph-name="a" unicode="a" horiz-adv-x="524" 
d="M464 543l-58 -543h-76l10 99q-63 -60 -102 -84q-45 -27 -90 -27q-108 0 -108 179q0 166 92.5 276t230.5 110q55 0 101 -10zM380 483l-42 1q-90 2 -157 -93q-64 -91 -64 -206q0 -126 50 -126q55 0 181 117z" />
    <glyph glyph-name="b" unicode="b" horiz-adv-x="535" 
d="M500 389q0 -150 -71 -263q-83 -134 -226 -134q-38 0 -143 22l78 741h76l-29 -279q115 75 189 75q126 0 126 -162zM418 389q0 96 -61 96q-48 0 -180 -80l-35 -338q56 -10 68 -10q107 0 164 120q44 93 44 212z" />
    <glyph glyph-name="c" unicode="c" horiz-adv-x="438" 
d="M438 512l-43 -50q-43 33 -91 33q-96 0 -145 -106q-38 -82 -38 -191q0 -65 17 -105q16 -36 39 -36q71 0 183 58l26 -59q-102 -68 -216 -68q-69 0 -103 67q-27 53 -27 131q0 160 70 264q75 111 201 111q80 0 127 -49z" />
    <glyph glyph-name="d" unicode="d" horiz-adv-x="519" 
d="M487 755l-81 -755h-76l10 99q-113 -111 -192 -111q-54 0 -83 54q-25 48 -25 125q0 168 92 275.5t231 107.5q17 0 25 -1l22 206h77zM380 483l-42 1q-90 2 -157 -93q-64 -91 -64 -206q0 -126 50 -126q55 0 181 117z" />
    <glyph glyph-name="e" unicode="e" horiz-adv-x="444" 
d="M439 437q0 -92 -144 -146l-177 -66v-27q0 -141 64 -141q63 0 175 58l23 -61q-120 -66 -212 -66q-128 0 -128 199q0 157 66 261q72 113 196 113q137 0 137 -124zM364 434q0 61 -65 61q-138 0 -173 -201l157 62q81 32 81 78z" />
    <glyph glyph-name="f" unicode="f" horiz-adv-x="300" 
d="M441 755l-21 -61q-49 13 -89 13q-63 0 -94.5 -26.5t-38.5 -87.5l-5 -47h119l-6 -64h-119l-74 -702h-74l73 702h-80l7 64h80l5 48q11 105 76 148q49 33 140 33q54 0 101 -20z" />
    <glyph glyph-name="g" unicode="g" horiz-adv-x="524" 
d="M464 543l-62 -578q-11 -99 -88 -151q-67 -45 -160 -45q-95 0 -172 23l17 60q67 -16 141 -16q84 0 126 26q53 33 62 119l12 118q-61 -60 -102 -84q-45 -27 -90 -27q-108 0 -108 189q0 158 93 267t230 109q55 0 101 -10zM380 483l-42 1q-90 2 -157 -93q-64 -91 -64 -206
q0 -126 50 -126q55 0 181 117z" />
    <glyph glyph-name="h" unicode="h" horiz-adv-x="555" 
d="M474 394l-42 -394h-77l41 378q6 53 6 67q0 24 -10 33.5t-38 9.5q-24 0 -92 -44q-42 -29 -84 -57l-41 -387h-77l79 754h77l-31 -299q67 49 91 64q67 41 109 41q54 0 74 -21.5t20 -69.5q0 -25 -5 -75z" />
    <glyph glyph-name="i" unicode="i" horiz-adv-x="264" 
d="M226 710l-61 -49l-48 60l60 49zM194 546l-58 -546h-76l57 546h77z" />
    <glyph glyph-name="j" unicode="j" horiz-adv-x="264" 
d="M226 710l-61 -49l-48 60l60 49zM194 546l-59 -563q-21 -203 -204 -203q-37 0 -68 11l21 62q16 -5 56 -5q59 0 87 37q25 32 32 99l59 562h76z" />
    <glyph glyph-name="k" unicode="k" horiz-adv-x="483" 
d="M478 546l-200 -255l177 -278l-71 -40l-198 315l203 258h89zM216 754l-79 -754h-77l79 754h77z" />
    <glyph glyph-name="l" unicode="l" horiz-adv-x="266" 
d="M216 754l-79 -754h-77l80 754h76z" />
    <glyph glyph-name="m" unicode="m" horiz-adv-x="824" 
d="M748 394l-42 -394h-77l41 378q6 55 6 68q0 24 -10 33t-38 9q-31 0 -164 -94l-42 -394h-77l41 378q6 53 6 67q0 24 -10 33.5t-38 9.5q-21 0 -86 -44q-40 -29 -80 -57l-41 -387h-77l57 546h77l-9 -91l80 64q59 41 110 41q56 0 76 -22.5t18 -74.5q115 97 190 97
q54 0 74 -21.5t20 -69.5q0 -25 -5 -75z" />
    <glyph glyph-name="n" unicode="n" horiz-adv-x="550" 
d="M474 394l-42 -394h-77l41 378q6 53 6 67q0 24 -10 33.5t-38 9.5q-24 0 -92 -44q-42 -29 -84 -57l-41 -387h-77l57 546h77l-9 -91q67 49 91 64q67 41 109 41q54 0 74 -21.5t20 -69.5q0 -25 -5 -75z" />
    <glyph glyph-name="o" unicode="o" horiz-adv-x="508" 
d="M470 372q0 -151 -60 -256q-73 -128 -210 -128q-74 0 -119 59q-41 54 -41 133q0 172 75 275t197 103q76 0 120 -58q38 -52 38 -128zM392 358q0 137 -107 137q-65 0 -115 -88.5t-50 -210.5q0 -141 104 -141q70 0 119 86t49 217z" />
    <glyph glyph-name="p" unicode="p" horiz-adv-x="535" 
d="M500 389q0 -161 -71 -271q-81 -126 -226 -126q-27 0 -69 6l-23 -218h-77l84 766h77l-8 -69q105 74 171 74q142 0 142 -162zM421 389q0 96 -64 96q-55 0 -178 -81l-37 -337q56 -10 68 -10q107 0 166 120q45 94 45 212z" />
    <glyph glyph-name="q" unicode="q" horiz-adv-x="523" 
d="M464 543l-80 -763h-76l31 314q-65 -59 -103 -81q-45 -25 -92 -25q-53 0 -80 53q-24 47 -24 126q0 169 92 277.5t231 108.5q55 0 101 -10zM380 483l-42 1q-91 2 -156 -89t-65 -210q0 -126 50 -126q31 0 100 50q47 35 81 67z" />
    <glyph glyph-name="r" unicode="r" horiz-adv-x="351" 
d="M386 553l-15 -73q-7 2 -25 2q-34 0 -87 -35q-41 -30 -81 -60l-41 -387h-77l57 546h77l-9 -90q89 100 175 100q13 0 26 -3z" />
    <glyph glyph-name="s" unicode="s" horiz-adv-x="427" 
d="M407 529l-23 -60q-72 24 -130 24q-98 0 -98 -71q0 -46 56 -90q52 -38 105 -77q56 -51 56 -114q0 -83 -68 -122q-53 -30 -136 -30q-87 0 -149 29l22 64q68 -25 133 -25q43 0 75 15q46 20 46 65q0 44 -54 87q-51 39 -102 77q-54 51 -54 112q0 144 178 144q80 0 143 -28z
" />
    <glyph glyph-name="t" unicode="t" horiz-adv-x="377" 
d="M367 546l-7 -65h-169l-35 -344q-2 -23 -2 -37q0 -25 8.5 -34t31.5 -9q49 0 121 31l17 -60q-84 -40 -152 -40q-49 0 -69 14q-33 22 -33 93q0 18 2 41l35 345h-80l7 65h80l12 112h76l-12 -112h169z" />
    <glyph glyph-name="u" unicode="u" horiz-adv-x="547" 
d="M487 546l-58 -546h-76l9 89q-58 -53 -78 -66q-54 -37 -106 -37q-108 0 -108 120q0 21 3 46l42 394h76l-40 -378q-4 -35 -4 -55q0 -32 10.5 -45t37.5 -13q60 0 174 104l41 387h77z" />
    <glyph glyph-name="v" unicode="v" horiz-adv-x="463" 
d="M462 546q8 -77 -48 -194l-170 -352h-113l-91 546h84l69 -492l146 307q44 93 44 166q0 11 -1 19h80z" />
    <glyph glyph-name="w" unicode="w" horiz-adv-x="766" 
d="M765 546q8 -78 -48 -194l-171 -352h-112l-46 273l-154 -273h-103l-91 546h84l69 -491l178 320l-28 171h84l69 -491l146 306q44 93 44 166q0 11 -1 19h80z" />
    <glyph glyph-name="x" unicode="x" horiz-adv-x="439" 
d="M445 546l-192 -257l127 -289h-82l-96 220l-164 -220h-82l217 288l-112 258h80l83 -190l143 190h78z" />
    <glyph glyph-name="y" unicode="y" horiz-adv-x="463" 
d="M462 546q8 -76 -48 -194l-271 -571h-75l98 219h-40l-86 546h84l69 -492l146 307q44 93 44 166q0 11 -1 19h80z" />
    <glyph glyph-name="z" unicode="z" horiz-adv-x="429" 
d="M429 546l-6 -63l-342 -417h302l-7 -66h-386l7 67l337 413h-268l7 66h356z" />
    <glyph glyph-name="braceleft" unicode="{" horiz-adv-x="361" 
d="M382 768l-6 -62h-23q-119 0 -119 -102v-192q0 -110 -110 -136v-3q85 -21 85 -98q0 -17 -4 -37l-41 -193q-3 -15 -3 -27q0 -73 101 -73h23l-6 -65h-21q-178 0 -178 121q0 21 5 44l42 199q2 8 2 16q0 31 -22 54.5t-61 23.5l8 70q43 0 73 31q27 28 27 64l1 206q0 91 63 129
q49 30 144 30h20z" />
    <glyph glyph-name="bar" unicode="|" 
d="M218 754l-102 -974h-77l102 974h77z" />
    <glyph glyph-name="braceright" unicode="}" horiz-adv-x="361" 
d="M314 308l-7 -70q-45 0 -74 -32q-26 -28 -26 -62v-199q0 -165 -208 -165h-21l7 65h23q119 0 119 100v193q0 109 110 135v3q-85 21 -85 100q0 17 4 36l40 192q3 15 3 28q0 74 -100 74h-24l7 62h20q178 0 178 -118q0 -19 -4 -41l-42 -206q-2 -9 -2 -17q0 -32 21.5 -55
t60.5 -23z" />
    <glyph glyph-name="asciitilde" unicode="~" horiz-adv-x="537" 
d="M506 345q-69 -60 -139 -60q-54 0 -115.5 30t-96.5 30q-45 0 -93 -30l-31 52q66 54 138 54q52 0 108.5 -30.5t97.5 -30.5q42 0 90 33z" />
    <glyph glyph-name="exclamdown" unicode="&#xa1;" 
d="M197 546l-10 -89h-89l10 89h89zM173 376l-14 -139l-42 -399h-77l56 538h77z" />
    <glyph glyph-name="cent" unicode="&#xa2;" horiz-adv-x="475" 
d="M475 606l-46 -46q-41 39 -88 39q-99 0 -151 -107q-41 -84 -41 -192q0 -65 18.5 -104.5t42.5 -39.5q81 0 189 56l24 -55q-49 -32 -119 -52l-8 -104h-77l12 90q-9 -1 -28 -1q-68 0 -101 67q-25 52 -25 131q0 141 55 240q58 105 159 129l7 98h77l-12 -93q66 -4 112 -56z" />
    <glyph glyph-name="sterling" unicode="&#xa3;" horiz-adv-x="463" 
d="M432 68l-7 -68h-418l7 68q64 21 100 185h-95l7 69h101q3 21 21 187q14 132 115 176q45 19 159 25l-2 -70q-98 -8 -124 -20q-59 -27 -68 -115q-11 -105 -24 -183h180l-7 -69h-187q-29 -134 -82 -185h324z" />
    <glyph glyph-name="currency" unicode="&#xa4;" horiz-adv-x="592" 
d="M585 681l-30 -65q-78 28 -148 28q-155 0 -220 -162h247l-7 -69h-260q-14 -68 -11 -121h258l-7 -69h-242q38 -162 202 -162q74 0 134 22l15 -66q-81 -27 -175 -27q-228 0 -265 233h-90l8 69h78q0 61 12 121h-78l8 69h89q80 233 311 233q76 0 125 -15q3 -1 46 -19z" />
    <glyph glyph-name="yen" unicode="&#xa5;" horiz-adv-x="567" 
d="M600 707l-260 -385h191l-7 -69h-218l-10 -93h218l-7 -69h-218l-9 -91h-81l10 91h-207l8 69h206l10 93h-207l8 69h178l-163 385h94l144 -366l233 366h87z" />
    <glyph glyph-name="section" unicode="&#xa7;" horiz-adv-x="424" 
d="M362 163q-8 -71 -87 -125q22 -44 13 -103q-22 -139 -222 -147l1 64q136 16 143 82q5 51 -20 99l-105 199q-23 44 -23 96q0 93 87 152q-20 41 -15 92q15 140 187 146l8 -64q-112 -17 -117 -69q-4 -41 20 -85l112 -206q27 -49 18 -131zM285 164q9 58 -10 93l-93 172
q-40 -26 -45 -74q-4 -39 15 -75l95 -180q31 20 38 64z" />
    <glyph glyph-name="copyright" unicode="&#xa9;" horiz-adv-x="817" 
d="M762 353q0 -165 -97 -265t-265 -100q-161 0 -255 103q-90 99 -90 264q0 166 101 266q99 97 263 97q165 0 257 -105q86 -98 86 -260zM696 354q0 135 -74 218q-78 88 -212 88q-139 0 -216 -87q-73 -82 -73 -217q0 -132 70 -217q77 -93 212 -93q143 0 221 89q72 82 72 219z
M550 183q-75 -24 -121 -24q-101 0 -161 60q-57 57 -57 147q0 97 57 154t159 57q69 0 119 -27l-18 -48q-49 18 -100 18q-66 0 -105 -34q-45 -39 -45 -114q0 -76 48 -118q43 -37 114 -37q39 0 93 16z" />
    <glyph glyph-name="ordfeminine" unicode="&#xaa;" horiz-adv-x="418" 
d="M351 709l-34 -317h-59l7 49q-63 -56 -101 -56q-70 0 -70 113q0 91 55 154.5t137 63.5q30 0 65 -7zM332 351l-6 -58h-278l6 58h278zM287 662h-16q-47 0 -82.5 -49t-35.5 -110q0 -63 21 -63q32 0 95 56z" />
    <glyph glyph-name="guillemotleft" unicode="&#xab;" horiz-adv-x="437" 
d="M411 470l-108 -198l65 -195l-62 -25l-83 220l129 220zM231 470l-108 -198l65 -195l-62 -25l-83 220l129 220z" />
    <glyph glyph-name="logicalnot" unicode="&#xac;" horiz-adv-x="469" 
d="M440 388l-24 -227h-76l17 158h-312l7 69h388z" />
    <glyph glyph-name="registered" unicode="&#xae;" horiz-adv-x="817" 
d="M762 353q0 -165 -97 -265t-265 -100q-161 0 -255 103q-90 99 -90 264q0 166 101 266q99 97 263 97q165 0 257 -105q86 -98 86 -260zM696 354q0 135 -74 218q-78 88 -212 88q-139 0 -216 -87q-73 -82 -73 -217q0 -132 70 -217q77 -93 212 -93q143 0 221 89q72 82 72 219z
M604 206l-13 -49q-58 4 -105 63l-78 97q-18 -2 -30 -2h-48v-152h-58v410h135q135 0 135 -127q0 -83 -75 -115q59 -71 61 -72q40 -42 76 -53zM481 443q0 81 -86 81h-65v-158h52q99 0 99 77z" />
    <glyph glyph-name="degree" unicode="&#xb0;" horiz-adv-x="331" 
d="M302 605q0 -66 -43.5 -108t-109.5 -42q-120 0 -120 109q0 68 42 111t109 43q55 0 88.5 -30t33.5 -83zM235 600q0 65 -61 65q-39 0 -59.5 -26.5t-20.5 -66.5q0 -65 63 -65q38 0 59 28q19 25 19 65z" />
    <glyph glyph-name="plusminus" unicode="&#xb1;" horiz-adv-x="468" 
d="M440 388l-7 -69h-154l-17 -158h-77l17 158h-157l7 69h157l17 158h77l-17 -158h154zM407 68l-7 -69h-389l7 69h389z" />
    <glyph glyph-name="mu" unicode="&#xb5;" horiz-adv-x="547" 
d="M487 546l-58 -546h-76l9 89q-39 -32 -79 -65q-54 -38 -105 -38q-26 0 -46 6l-22 -212h-76l81 766h76l-40 -378q-4 -35 -4 -55q0 -32 10.5 -45t37.5 -13q40 0 99 43q37 31 75 61l41 387h77z" />
    <glyph glyph-name="mu" unicode="&#x3bc;" horiz-adv-x="547" 
d="M487 546l-58 -546h-76l9 89q-39 -32 -79 -65q-54 -38 -105 -38q-26 0 -46 6l-22 -212h-76l81 766h76l-40 -378q-4 -35 -4 -55q0 -32 10.5 -45t37.5 -13q40 0 99 43q37 31 75 61l41 387h77z" />
    <glyph glyph-name="paragraph" unicode="&#xb6;" horiz-adv-x="599" 
d="M378 707l-46 -437h-77q-201 0 -201 184q0 122 63 187.5t183 65.5h78zM547 707l-76 -724q-21 -203 -204 -203q-42 0 -68 11l21 62q12 -5 56 -5q104 0 118 136l76 723h77z" />
    <glyph glyph-name="periodcentered" unicode="&#xb7;" 
d="M192 405l-9 -89h-89l9 89h89z" />
    <glyph glyph-name="periodcentered" unicode="&#x2219;" 
d="M192 405l-9 -89h-89l9 89h89z" />
    <glyph glyph-name="ordmasculine" unicode="&#xba;" horiz-adv-x="418" 
d="M348 589q0 -80 -35 -136q-42 -68 -120 -68q-49 0 -79.5 37.5t-30.5 92.5q0 92 40.5 148.5t112.5 56.5q52 0 82 -39t30 -92zM332 351l-6 -58h-278l6 58h278zM287 587q0 33 -15 58t-44 25q-42 0 -66 -53q-18 -43 -18 -96q0 -85 58 -85q42 0 66 55q19 43 19 96z" />
    <glyph glyph-name="guillemotright" unicode="&#xbb;" horiz-adv-x="437" 
d="M389 272l-129 -220l-57 25l106 195l-66 198l63 22zM209 272l-129 -220l-57 25l106 195l-66 198l63 22z" />
    <glyph glyph-name="questiondown" unicode="&#xbf;" horiz-adv-x="419" 
d="M346 546l-9 -89h-90l10 89h89zM325 311q-6 -55 -51 -108l-82 -82q-45 -44 -48 -78q-6 -63 45 -101q45 -32 121 -40l-22 -66q-95 8 -154 48q-71 48 -71 131q0 11 1 22q6 53 50 104l84 82q46 47 55 89q5 24 2 45l-4 26h70q8 -38 4 -72z" />
    <glyph glyph-name="Agrave" unicode="&#xc0;" horiz-adv-x="619" 
d="M467 790l-25 -57l-222 66l31 72zM579 0h-84l-53 266h-269l-130 -266h-83l352 707h127zM430 330l-65 328l-160 -328h225z" />
    <glyph glyph-name="Aacute" unicode="&#xc1;" horiz-adv-x="619" 
d="M525 799l-237 -66l-12 57l233 81zM579 0h-84l-53 266h-269l-130 -266h-83l352 707h127zM430 330l-65 328l-160 -328h225z" />
    <glyph glyph-name="Acircumflex" unicode="&#xc2;" horiz-adv-x="619" 
d="M571 782l-32 -54l-154 67l-170 -67l-23 55l198 87zM579 0h-84l-53 266h-269l-130 -266h-83l352 707h127zM430 330l-65 328l-160 -328h225z" />
    <glyph glyph-name="Atilde" unicode="&#xc3;" horiz-adv-x="619" 
d="M554 790q-48 -55 -107 -55q-25 0 -64.5 21.5t-58.5 21.5q-43 0 -80 -30l-25 53q49 50 109 50q28 0 66.5 -21.5t56.5 -21.5q41 0 75 31zM579 0h-84l-53 266h-269l-130 -266h-83l352 707h127zM430 330l-65 328l-160 -328h225z" />
    <glyph glyph-name="Adieresis" unicode="&#xc4;" horiz-adv-x="619" 
d="M547 797l-65 -60l-53 60l65 59zM331 797l-66 -60l-53 60l66 59zM579 0h-84l-53 266h-269l-130 -266h-83l352 707h127zM430 330l-65 328l-160 -328h225z" />
    <glyph glyph-name="Aring" unicode="&#xc5;" horiz-adv-x="619" 
d="M579 0h-84l-53 266h-269l-130 -266h-83l337 677q-40 25 -40 77q0 49 38 85.5t91 36.5q46 0 77 -26t31 -71q0 -63 -50 -97zM436 773q0 24 -15.5 38.5t-39.5 14.5q-29 0 -47.5 -18t-18.5 -47q0 -52 55 -52q29 0 47.5 18t18.5 46zM430 330l-65 328l-160 -328h225z" />
    <glyph glyph-name="AE" unicode="&#xc6;" horiz-adv-x="900" 
d="M870 707l-7 -65h-313l-27 -254h292l-7 -66h-292l-27 -256h338l-7 -67l-418 1l34 322h-187l-213 -322h-86l476 707h444zM472 660l-180 -272h151z" />
    <glyph glyph-name="Ccedilla" unicode="&#xc7;" horiz-adv-x="614" 
d="M604 687l-31 -65q-65 22 -142 22q-144 0 -225 -92q-77 -87 -77 -236q0 -123 70 -189t191 -66q84 0 153 22l15 -67q-82 -26 -194 -26q-146 0 -232.5 85.5t-86.5 233.5q0 184 105 295t287 111q102 0 167 -28zM394 -108q0 -86 -116 -131l-22 44q66 38 66 85q0 21 -16 59h74
q14 -28 14 -57z" />
    <glyph glyph-name="Egrave" unicode="&#xc8;" horiz-adv-x="563" 
d="M447 790l-25 -57l-222 66l31 72zM533 707l-7 -65h-313l-27 -254h292l-7 -66h-292l-27 -256h337l-7 -67l-417 1l74 707h394z" />
    <glyph glyph-name="Eacute" unicode="&#xc9;" horiz-adv-x="563" 
d="M478 799l-237 -66l-12 57l233 81zM533 707l-7 -65h-313l-27 -254h292l-7 -66h-292l-27 -256h337l-7 -67l-417 1l74 707h394z" />
    <glyph glyph-name="Ecircumflex" unicode="&#xca;" horiz-adv-x="563" 
d="M537 782l-32 -54l-154 67l-170 -67l-23 55l198 87zM533 707l-7 -65h-313l-27 -254h292l-7 -66h-292l-27 -256h337l-7 -67l-417 1l74 707h394z" />
    <glyph glyph-name="Edieresis" unicode="&#xcb;" horiz-adv-x="563" 
d="M514 797l-65 -60l-53 60l65 59zM298 797l-66 -60l-53 60l66 59zM533 707l-7 -65h-313l-27 -254h292l-7 -66h-292l-27 -256h337l-7 -67l-417 1l74 707h394z" />
    <glyph glyph-name="Igrave" unicode="&#xcc;" horiz-adv-x="285" 
d="M247 790l-25 -57l-222 66l31 72zM220 707l-75 -707h-80l74 707h81z" />
    <glyph glyph-name="Iacute" unicode="&#xcd;" horiz-adv-x="285" 
d="M358 799l-237 -66l-12 57l233 81zM220 707l-75 -707h-80l74 707h81z" />
    <glyph glyph-name="Icircumflex" unicode="&#xce;" horiz-adv-x="285" 
d="M371 782l-32 -54l-154 67l-170 -67l-23 55l198 87zM220 707l-75 -707h-80l74 707h81z" />
    <glyph glyph-name="Idieresis" unicode="&#xcf;" horiz-adv-x="285" 
d="M353 797l-65 -60l-53 60l65 59zM137 797l-66 -60l-53 60l66 59zM220 707l-75 -707h-80l74 707h81z" />
    <glyph glyph-name="Ntilde" unicode="&#xd1;" horiz-adv-x="732" 
d="M584 790q-48 -55 -107 -55q-25 0 -64.5 21.5t-58.5 21.5q-43 0 -80 -30l-25 53q49 50 109 50q28 0 66.5 -21.5t56.5 -21.5q41 0 75 31zM667 707l-77 -707h-129l-251 631l-65 -631h-80l75 707h124l258 -647l64 647h81z" />
    <glyph glyph-name="Ograve" unicode="&#xd2;" horiz-adv-x="782" 
d="M507 790l-25 -57l-222 66l31 72zM737 400q0 -185 -103 -297q-107 -115 -290 -115q-143 0 -221 86t-78 233q0 183 107 297t288 114q143 0 220 -85.5t77 -232.5zM654 397q0 116 -57 182q-60 69 -173 69q-141 0 -222 -98q-75 -92 -75 -237q0 -116 56 -183q60 -73 172 -73
q143 0 224 100q75 92 75 240z" />
    <glyph glyph-name="Oacute" unicode="&#xd3;" horiz-adv-x="782" 
d="M568 799l-237 -66l-12 57l233 81zM737 400q0 -185 -103 -297q-107 -115 -290 -115q-143 0 -221 86t-78 233q0 183 107 297t288 114q143 0 220 -85.5t77 -232.5zM654 397q0 116 -57 182q-60 69 -173 69q-141 0 -222 -98q-75 -92 -75 -237q0 -116 56 -183q60 -73 172 -73
q143 0 224 100q75 92 75 240z" />
    <glyph glyph-name="Ocircumflex" unicode="&#xd4;" horiz-adv-x="782" 
d="M614 782l-32 -54l-154 67l-170 -67l-23 55l198 87zM737 400q0 -185 -103 -297q-107 -115 -290 -115q-143 0 -221 86t-78 233q0 183 107 297t288 114q143 0 220 -85.5t77 -232.5zM654 397q0 116 -57 182q-60 69 -173 69q-141 0 -222 -98q-75 -92 -75 -237q0 -116 56 -183
q60 -73 172 -73q143 0 224 100q75 92 75 240z" />
    <glyph glyph-name="Otilde" unicode="&#xd5;" horiz-adv-x="782" 
d="M614 790q-48 -55 -107 -55q-25 0 -64.5 21.5t-58.5 21.5q-43 0 -80 -30l-25 53q49 50 109 50q28 0 66.5 -21.5t56.5 -21.5q41 0 75 31zM737 400q0 -185 -103 -297q-107 -115 -290 -115q-143 0 -221 86t-78 233q0 183 107 297t288 114q143 0 220 -85.5t77 -232.5zM654 397
q0 116 -57 182q-60 69 -173 69q-141 0 -222 -98q-75 -92 -75 -237q0 -116 56 -183q60 -73 172 -73q143 0 224 100q75 92 75 240z" />
    <glyph glyph-name="Odieresis" unicode="&#xd6;" horiz-adv-x="782" 
d="M599 797l-65 -60l-54 60l66 59zM383 797l-66 -60l-53 60l66 59zM737 400q0 -185 -103 -297q-107 -115 -290 -115q-143 0 -221 86t-78 233q0 183 107 297t288 114q143 0 220 -85.5t77 -232.5zM654 397q0 116 -57 182q-60 69 -173 69q-141 0 -222 -98q-75 -92 -75 -237
q0 -116 56 -183q60 -73 172 -73q143 0 224 100q75 92 75 240z" />
    <glyph glyph-name="Oslash" unicode="&#xd8;" horiz-adv-x="782" 
d="M761 692l-81 -84q57 -79 57 -208q0 -185 -103 -297q-107 -115 -290 -115q-123 0 -200 66l-83 -85l-47 45l86 89q-55 81 -55 204q0 183 107 297t288 114q120 0 196 -62l78 81zM579 597q-59 51 -155 51q-141 0 -222 -98q-75 -92 -75 -237q0 -87 33 -149zM654 397
q0 87 -34 149l-421 -434q58 -55 156 -55q143 0 224 100q75 92 75 240z" />
    <glyph glyph-name="Ugrave" unicode="&#xd9;" horiz-adv-x="719" 
d="M487 790l-25 -57l-222 66l31 72zM669 707l-46 -440q-16 -154 -111 -225q-74 -55 -187 -55q-250 0 -250 211q0 20 2 42l49 467h82l-48 -460q-2 -19 -2 -36q0 -154 174 -154q192 0 215 214l46 436h76z" />
    <glyph glyph-name="Uacute" unicode="&#xda;" horiz-adv-x="719" 
d="M538 799l-237 -66l-12 57l233 81zM669 707l-46 -440q-16 -154 -111 -225q-74 -55 -187 -55q-250 0 -250 211q0 20 2 42l49 467h82l-48 -460q-2 -19 -2 -36q0 -154 174 -154q192 0 215 214l46 436h76z" />
    <glyph glyph-name="Ucircumflex" unicode="&#xdb;" horiz-adv-x="719" 
d="M589 782l-32 -54l-154 67l-170 -67l-23 55l198 87zM669 707l-46 -440q-16 -154 -111 -225q-74 -55 -187 -55q-250 0 -250 211q0 20 2 42l49 467h82l-48 -460q-2 -19 -2 -36q0 -154 174 -154q192 0 215 214l46 436h76z" />
    <glyph glyph-name="Udieresis" unicode="&#xdc;" horiz-adv-x="719" 
d="M576 797l-65 -60l-54 60l66 59zM360 797l-66 -60l-53 60l66 59zM669 707l-46 -440q-16 -154 -111 -225q-74 -55 -187 -55q-250 0 -250 211q0 20 2 42l49 467h82l-48 -460q-2 -19 -2 -36q0 -154 174 -154q192 0 215 214l46 436h76z" />
    <glyph glyph-name="germandbls" unicode="&#xdf;" horiz-adv-x="624" 
d="M557 139q0 -76 -63 -116q-52 -33 -123 -33q-99 0 -148 23l21 66q71 -22 120 -22q48 0 83.5 21t35.5 51q0 49 -48 96l-88 80q-48 49 -48 104q0 44 35 84q32 32 65 64q35 37 35 75q0 75 -84 75q-76 0 -109 -37q-27 -30 -34 -99l-83 -791h-77l84 792q12 114 71 161
q52 42 157 42q152 0 152 -145q0 -42 -36 -88q-17 -22 -68 -71q-36 -35 -36 -48q0 -37 48 -81q89 -82 90 -84q48 -55 48 -119z" />
    <glyph glyph-name="agrave" unicode="&#xe0;" horiz-adv-x="524" 
d="M446 670l-35 -54l-190 121l46 67zM464 543l-58 -543h-76l10 99q-63 -60 -102 -84q-45 -27 -90 -27q-108 0 -108 179q0 166 92.5 276t230.5 110q55 0 101 -10zM380 483l-42 1q-90 2 -157 -93q-64 -91 -64 -206q0 -126 50 -126q55 0 181 117z" />
    <glyph glyph-name="aacute" unicode="&#xe1;" horiz-adv-x="524" 
d="M481 740l-206 -124l-33 51l197 137zM464 543l-58 -543h-76l10 99q-63 -60 -102 -84q-45 -27 -90 -27q-108 0 -108 179q0 166 92.5 276t230.5 110q55 0 101 -10zM380 483l-42 1q-90 2 -157 -93q-64 -91 -64 -206q0 -126 50 -126q55 0 181 117z" />
    <glyph glyph-name="acircumflex" unicode="&#xe2;" horiz-adv-x="524" 
d="M527 672l-37 -52l-152 88l-172 -88l-28 52l208 116zM464 543l-58 -543h-76l10 99q-63 -60 -102 -84q-45 -27 -90 -27q-108 0 -108 179q0 166 92.5 276t230.5 110q55 0 101 -10zM380 483l-42 1q-90 2 -157 -93q-64 -91 -64 -206q0 -126 50 -126q55 0 181 117z" />
    <glyph glyph-name="atilde" unicode="&#xe3;" horiz-adv-x="524" 
d="M507 684q-48 -55 -107 -55q-25 0 -64.5 21.5t-58.5 21.5q-45 0 -80 -30l-25 53q49 50 109 50q28 0 66.5 -21.5t56.5 -21.5q41 0 75 31zM464 543l-58 -543h-76l10 99q-63 -60 -102 -84q-45 -27 -90 -27q-108 0 -108 179q0 166 92.5 276t230.5 110q55 0 101 -10zM380 483
l-42 1q-90 2 -157 -93q-64 -91 -64 -206q0 -126 50 -126q55 0 181 117z" />
    <glyph glyph-name="adieresis" unicode="&#xe4;" horiz-adv-x="524" 
d="M522 716l-66 -60l-53 60l66 59zM305 716l-65 -60l-53 60l65 59zM464 543l-58 -543h-76l10 99q-63 -60 -102 -84q-45 -27 -90 -27q-108 0 -108 179q0 166 92.5 276t230.5 110q55 0 101 -10zM380 483l-42 1q-90 2 -157 -93q-64 -91 -64 -206q0 -126 50 -126q55 0 181 117z
" />
    <glyph glyph-name="aring" unicode="&#xe5;" horiz-adv-x="524" 
d="M474 726q0 -52 -35 -86t-93 -34q-47 0 -76 23q-32 25 -32 71q0 49 38 85.5t91 36.5q45 0 76 -25.5t31 -70.5zM464 543l-58 -543h-76l10 99q-63 -60 -102 -84q-45 -27 -90 -27q-108 0 -108 179q0 166 92.5 276t230.5 110q55 0 101 -10zM417 719q0 23 -16 38t-39 15
q-29 0 -48 -18t-19 -47q0 -52 55 -52q29 0 48 18t19 46zM380 483l-42 1q-90 2 -157 -93q-64 -91 -64 -206q0 -126 50 -126q55 0 181 117z" />
    <glyph glyph-name="ae" unicode="&#xe6;" horiz-adv-x="753" 
d="M748 437q0 -92 -144 -146l-177 -66v-27q0 -141 64 -141q59 0 175 58l23 -61q-120 -66 -212 -66q-99 0 -117 125q-130 -125 -212 -125q-108 0 -108 179q0 166 92.5 276t230.5 110q48 0 94 -10l-9 -64q66 82 163 82q137 0 137 -124zM673 434q0 61 -65 61q-138 0 -173 -201
l157 62q81 32 81 78zM380 483l-42 1q-89 2 -156 -93q-65 -91 -65 -206q0 -126 50 -126q55 0 181 117z" />
    <glyph glyph-name="ccedilla" unicode="&#xe7;" horiz-adv-x="440" 
d="M438 512l-43 -50q-43 33 -91 33q-96 0 -145 -106q-38 -82 -38 -191q0 -65 17 -105q16 -36 39 -36q71 0 183 58l26 -59q-102 -68 -216 -68q-69 0 -103 67q-27 53 -27 131q0 160 70 264q75 111 201 111q80 0 127 -49zM254 -108q0 -86 -116 -131l-22 44q66 38 66 85
q0 21 -16 59h74q14 -28 14 -57z" />
    <glyph glyph-name="egrave" unicode="&#xe8;" horiz-adv-x="444" 
d="M426 670l-35 -54l-190 121l46 67zM439 437q0 -92 -144 -146l-177 -66v-27q0 -141 64 -141q63 0 175 58l23 -61q-120 -66 -212 -66q-128 0 -128 199q0 157 66 261q72 113 196 113q137 0 137 -124zM364 434q0 61 -65 61q-138 0 -173 -201l157 62q81 32 81 78z" />
    <glyph glyph-name="eacute" unicode="&#xe9;" horiz-adv-x="444" 
d="M461 740l-206 -124l-33 51l197 137zM439 437q0 -92 -144 -146l-177 -66v-27q0 -141 64 -141q63 0 175 58l23 -61q-120 -66 -212 -66q-128 0 -128 199q0 157 66 261q72 113 196 113q137 0 137 -124zM364 434q0 61 -65 61q-138 0 -173 -201l157 62q81 32 81 78z" />
    <glyph glyph-name="ecircumflex" unicode="&#xea;" horiz-adv-x="444" 
d="M524 672l-38 -52l-152 88l-172 -88l-28 52l209 116zM439 437q0 -92 -144 -146l-177 -66v-27q0 -141 64 -141q63 0 175 58l23 -61q-120 -66 -212 -66q-128 0 -128 199q0 157 66 261q72 113 196 113q137 0 137 -124zM364 434q0 61 -65 61q-138 0 -173 -201l157 62
q81 32 81 78z" />
    <glyph glyph-name="edieresis" unicode="&#xeb;" horiz-adv-x="444" 
d="M482 716l-66 -60l-53 60l66 59zM265 716l-65 -60l-53 60l65 59zM439 437q0 -92 -144 -146l-177 -66v-27q0 -141 64 -141q63 0 175 58l23 -61q-120 -66 -212 -66q-128 0 -128 199q0 157 66 261q72 113 196 113q137 0 137 -124zM364 434q0 61 -65 61q-138 0 -173 -201
l157 62q81 32 81 78z" />
    <glyph glyph-name="igrave" unicode="&#xec;" 
d="M236 670l-35 -54l-190 121l46 67zM193 546l-57 -546h-77l58 546h76z" />
    <glyph glyph-name="iacute" unicode="&#xed;" 
d="M315 740l-206 -124l-33 51l197 137zM193 546l-57 -546h-77l58 546h76z" />
    <glyph glyph-name="icircumflex" unicode="&#xee;" 
d="M369 672l-37 -52l-152 88l-172 -88l-28 52l208 116zM193 546l-57 -546h-77l58 546h76z" />
    <glyph glyph-name="idieresis" unicode="&#xef;" 
d="M340 716l-66 -60l-53 60l66 59zM123 716l-65 -60l-53 60l65 59zM193 546l-57 -546h-77l58 546h76z" />
    <glyph glyph-name="ntilde" unicode="&#xf1;" horiz-adv-x="555" 
d="M501 684q-48 -55 -107 -55q-25 0 -64.5 21.5t-58.5 21.5q-45 0 -80 -30l-25 53q49 50 109 50q28 0 66.5 -21.5t56.5 -21.5q41 0 75 31zM474 394l-42 -394h-77l41 378q6 53 6 67q0 24 -10 33.5t-38 9.5q-24 0 -92 -44q-42 -29 -84 -57l-41 -387h-77l57 546h77l-9 -91
q67 49 91 64q67 41 109 41q54 0 74 -21.5t20 -69.5q0 -25 -5 -75z" />
    <glyph glyph-name="ograve" unicode="&#xf2;" horiz-adv-x="508" 
d="M416 670l-35 -54l-190 121l46 67zM470 372q0 -151 -60 -256q-73 -128 -210 -128q-74 0 -119 59q-41 54 -41 133q0 172 75 275t197 103q76 0 120 -58q38 -52 38 -128zM392 358q0 137 -107 137q-65 0 -115 -88.5t-50 -210.5q0 -141 104 -141q70 0 119 86t49 217z" />
    <glyph glyph-name="oacute" unicode="&#xf3;" horiz-adv-x="508" 
d="M431 740l-206 -124l-33 51l197 137zM470 372q0 -151 -60 -256q-73 -128 -210 -128q-74 0 -119 59q-41 54 -41 133q0 172 75 275t197 103q76 0 120 -58q38 -52 38 -128zM392 358q0 137 -107 137q-65 0 -115 -88.5t-50 -210.5q0 -141 104 -141q70 0 119 86t49 217z" />
    <glyph glyph-name="ocircumflex" unicode="&#xf4;" horiz-adv-x="508" 
d="M497 672l-37 -52l-152 88l-172 -88l-28 52l208 116zM470 372q0 -151 -60 -256q-73 -128 -210 -128q-74 0 -119 59q-41 54 -41 133q0 172 75 275t197 103q76 0 120 -58q38 -52 38 -128zM392 358q0 137 -107 137q-65 0 -115 -88.5t-50 -210.5q0 -141 104 -141q70 0 119 86
t49 217z" />
    <glyph glyph-name="otilde" unicode="&#xf5;" horiz-adv-x="508" 
d="M477 684q-48 -55 -107 -55q-25 0 -64.5 21.5t-58.5 21.5q-45 0 -80 -30l-25 53q49 50 109 50q28 0 66.5 -21.5t56.5 -21.5q41 0 75 31zM470 372q0 -151 -60 -256q-73 -128 -210 -128q-74 0 -119 59q-41 54 -41 133q0 172 75 275t197 103q76 0 120 -58q38 -52 38 -128z
M392 358q0 137 -107 137q-65 0 -115 -88.5t-50 -210.5q0 -141 104 -141q70 0 119 86t49 217z" />
    <glyph glyph-name="odieresis" unicode="&#xf6;" horiz-adv-x="508" 
d="M476 716l-66 -60l-53 60l66 59zM259 716l-65 -60l-53 60l65 59zM470 372q0 -151 -60 -256q-73 -128 -210 -128q-74 0 -119 59q-41 54 -41 133q0 172 75 275t197 103q76 0 120 -58q38 -52 38 -128zM392 358q0 137 -107 137q-65 0 -115 -88.5t-50 -210.5q0 -141 104 -141
q70 0 119 86t49 217z" />
    <glyph glyph-name="divide" unicode="&#xf7;" horiz-adv-x="468" 
d="M293 546l-8 -77h-78l9 77h77zM432 388l-7 -69h-389l8 69h388zM261 239l-8 -77h-78l8 77h78z" />
    <glyph glyph-name="oslash" unicode="&#xf8;" horiz-adv-x="508" 
d="M522 541l-69 -80q17 -43 17 -89q0 -151 -60 -256q-73 -128 -210 -128q-68 0 -112 50l-59 -69l-45 40l72 83q-16 39 -16 88q0 172 75 275t197 103q66 0 108 -44l57 66zM370 456q-25 39 -85 39q-65 0 -115 -88.5t-50 -210.5q0 -19 1 -28zM392 358q0 11 -2 29l-249 -288
q27 -44 83 -44q70 0 119 86t49 217z" />
    <glyph glyph-name="ugrave" unicode="&#xf9;" horiz-adv-x="547" 
d="M436 670l-35 -54l-190 121l46 67zM487 546l-58 -546h-76l9 89q-58 -53 -78 -66q-54 -37 -106 -37q-108 0 -108 120q0 21 3 46l42 394h76l-40 -378q-4 -35 -4 -55q0 -32 10.5 -45t37.5 -13q60 0 174 104l41 387h77z" />
    <glyph glyph-name="uacute" unicode="&#xfa;" horiz-adv-x="547" 
d="M481 740l-206 -124l-33 51l197 137zM487 546l-58 -546h-76l9 89q-58 -53 -78 -66q-54 -37 -106 -37q-108 0 -108 120q0 21 3 46l42 394h76l-40 -378q-4 -35 -4 -55q0 -32 10.5 -45t37.5 -13q60 0 174 104l41 387h77z" />
    <glyph glyph-name="ucircumflex" unicode="&#xfb;" horiz-adv-x="547" 
d="M519 672l-37 -52l-152 88l-172 -88l-28 52l208 116zM487 546l-58 -546h-76l9 89q-58 -53 -78 -66q-54 -37 -106 -37q-108 0 -108 120q0 21 3 46l42 394h76l-40 -378q-4 -35 -4 -55q0 -32 10.5 -45t37.5 -13q60 0 174 104l41 387h77z" />
    <glyph glyph-name="udieresis" unicode="&#xfc;" horiz-adv-x="547" 
d="M493 716l-65 -60l-53 60l65 59zM277 716l-66 -60l-53 60l66 59zM487 546l-58 -546h-76l9 89q-58 -53 -78 -66q-54 -37 -106 -37q-108 0 -108 120q0 21 3 46l42 394h76l-40 -378q-4 -35 -4 -55q0 -32 10.5 -45t37.5 -13q60 0 174 104l41 387h77z" />
    <glyph glyph-name="ydieresis" unicode="&#xff;" horiz-adv-x="463" 
d="M442 716l-66 -60l-53 60l66 59zM225 716l-65 -60l-53 60l65 59zM462 546q8 -76 -48 -194l-271 -571h-75l98 219h-40l-86 546h84l69 -492l146 307q44 93 44 166q0 11 -1 19h80z" />
    <glyph glyph-name="OE" unicode="&#x152;" horiz-adv-x="1080" 
d="M1043 707l-7 -65h-313l-27 -254h292l-7 -66h-292l-27 -256h338l-7 -67l-418 1l5 49q-96 -61 -223 -61q-145 0 -227.5 84.5t-82.5 229.5q0 183 111.5 299.5t293.5 116.5q109 0 192 -66l6 55h393zM634 555q-65 93 -197 93q-142 0 -227 -98q-80 -93 -80 -237q0 -115 60 -183
q64 -73 177 -73q140 0 224 79z" />
    <glyph glyph-name="oe" unicode="&#x153;" horiz-adv-x="782" 
d="M777 437q0 -92 -144 -146l-177 -66v-27q0 -141 64 -141q59 0 175 58l23 -61q-120 -66 -212 -66q-91 0 -113 103q-70 -103 -193 -103q-74 0 -119 59q-41 54 -41 133q0 172 75 275t197 103q111 0 142 -104q69 107 186 107q137 0 137 -124zM702 434q0 61 -65 61
q-138 0 -173 -201l157 62q81 32 81 78zM392 358q0 137 -107 137q-65 0 -115 -88.5t-50 -210.5q0 -141 104 -141q70 0 119 86t49 217z" />
    <glyph glyph-name="Ydieresis" unicode="&#x178;" horiz-adv-x="520" 
d="M473 797l-65 -60l-53 60l65 59zM257 797l-66 -60l-53 60l66 59zM575 707l-291 -433l-29 -274h-80l29 274l-184 433h90l144 -365l235 365h86z" />
    <glyph glyph-name="florin" unicode="&#x192;" horiz-adv-x="475" 
d="M493 710l-2 -70q-98 -8 -124 -21q-57 -26 -71 -114l-30 -183h110l-7 -69h-114l-45 -283q-19 -120 -100 -165q-59 -32 -173 -32l2 65q100 10 125 21q56 26 70 114l44 280h-103l7 69h107l30 187q19 120 101 167q60 34 173 34z" />
    <glyph glyph-name="Delta" unicode="&#x394;" horiz-adv-x="666" 
d="M619 0h-646l349 707h127zM520 64l-144 597l-295 -597h439z" />
    <glyph glyph-name="Delta" unicode="&#x2206;" horiz-adv-x="666" 
d="M619 0h-646l349 707h127zM520 64l-144 597l-295 -597h439z" />
    <glyph glyph-name="Omega" unicode="&#x3a9;" horiz-adv-x="817" 
d="M767 69l-8 -70l-311 1l7 69q220 141 220 341q0 102 -60 168q-65 70 -174 70q-138 0 -217 -91q-75 -86 -75 -226q0 -82 45 -148q27 -39 107 -114l-8 -70l-306 1l7 69h209q-63 35 -101 108q-36 70 -36 152q0 165 107 276q111 113 284 113q140 0 222 -88q79 -84 79 -220
q0 -104 -58 -197t-158 -144h225z" />
    <glyph glyph-name="Omega" unicode="&#x2126;" horiz-adv-x="817" 
d="M767 69l-8 -70l-311 1l7 69q220 141 220 341q0 102 -60 168q-65 70 -174 70q-138 0 -217 -91q-75 -86 -75 -226q0 -82 45 -148q27 -39 107 -114l-8 -70l-306 1l7 69h209q-63 35 -101 108q-36 70 -36 152q0 165 107 276q111 113 284 113q140 0 222 -88q79 -84 79 -220
q0 -104 -58 -197t-158 -144h225z" />
    <glyph glyph-name="pi" unicode="&#x3c0;" horiz-adv-x="686" 
d="M655 557l-7 -70q-50 -20 -106 -26l-50 -271q-4 -24 -4 -44q0 -92 94 -92q40 0 57 5l8 -61q-27 -11 -70 -11q-168 0 -168 146q0 26 6 56l50 269q-60 0 -122.5 12.5t-87.5 12.5l-90 -483h-77l90 480q-46 -9 -85 -39l-40 47q72 72 203 72q39 0 113 -14.5t100 -14.5
q111 0 186 26z" />
    <glyph glyph-name="endash" unicode="&#x2013;" horiz-adv-x="500" 
d="M500 253h-500v69h500v-69z" />
    <glyph glyph-name="quoteleft" unicode="&#x2018;" horiz-adv-x="164" 
d="M150 556h-64q-29 65 -29 132q0 35 6 75h84q-8 -59 -8 -107q0 -57 11 -100z" />
    <glyph glyph-name="quoteright" unicode="&#x2019;" horiz-adv-x="164" 
d="M175 763q-6 -115 -67 -207h-64q38 83 47 207h84z" />
    <glyph glyph-name="quotesinglbase" unicode="&#x201a;" 
d="M152 86q-4 -112 -67 -208h-64q38 84 47 208h84z" />
    <glyph glyph-name="quotedblleft" unicode="&#x201c;" horiz-adv-x="314" 
d="M333 556h-64q-30 67 -30 134q0 34 6 73h85q-8 -57 -8 -106q0 -57 11 -101zM183 556h-64q-30 67 -30 134q0 34 6 73h85q-8 -57 -8 -106q0 -57 11 -101z" />
    <glyph glyph-name="quotedblright" unicode="&#x201d;" horiz-adv-x="314" 
d="M314 763q-6 -116 -68 -207h-64q38 80 47 207h85zM164 763q-6 -116 -68 -207h-64q38 80 47 207h85z" />
    <glyph glyph-name="quotedblbase" unicode="&#x201e;" horiz-adv-x="314" 
d="M271 86q-6 -116 -68 -208h-64q38 81 47 208h85zM121 86q-6 -116 -68 -208h-64q38 81 47 208h85z" />
    <glyph glyph-name="dagger" unicode="&#x2020;" horiz-adv-x="482" 
d="M464 582l-8 -72l-170 10l-44 -520h-81l65 520l-172 -10l8 72l169 -10l9 182h81l-29 -182z" />
    <glyph glyph-name="daggerdbl" unicode="&#x2021;" horiz-adv-x="482" 
d="M464 582l-8 -72l-170 10l-30 -286l172 10l-8 -73l-169 10l-9 -181h-81l29 181l-172 -10l8 73l170 -10l30 286l-172 -10l8 72l169 -10l9 182h81l-29 -182z" />
    <glyph glyph-name="bullet" unicode="&#x2022;" horiz-adv-x="500" 
d="M395 352q0 -60 -42.5 -102t-102.5 -42t-102.5 42t-42.5 102t42.5 102.5t102.5 42.5t102.5 -42.5t42.5 -102.5z" />
    <glyph glyph-name="ellipsis" unicode="&#x2026;" horiz-adv-x="1000" 
d="M873 89l-10 -90h-89l10 90h89zM512 89l-9 -90h-89l9 90h89zM150 89l-9 -90h-89l9 90h89z" />
    <glyph glyph-name="perthousand" unicode="&#x2030;" horiz-adv-x="1153" 
d="M1077 177q0 -82 -48 -135t-130 -53q-65 0 -101 34.5t-36 99.5q0 81 47 136.5t127 55.5q66 0 103.5 -35.5t37.5 -102.5zM379 576q0 -82 -48 -135t-130 -53q-65 0 -101 34.5t-36 99.5q0 81 47 136.5t127 55.5q66 0 103.5 -35.5t37.5 -102.5zM696 589l-589 -533l-42 47
l589 532zM717 177q0 -82 -48 -135t-130 -53q-65 0 -101 34.5t-36 99.5q0 81 47 136.5t127 55.5q66 0 103.5 -35.5t37.5 -102.5zM1007 174q0 86 -77 86q-50 0 -76 -45q-23 -37 -23 -91q0 -80 74 -80q50 0 78 41q24 36 24 89zM309 573q0 86 -77 86q-50 0 -76 -45
q-23 -37 -23 -91q0 -80 74 -80q50 0 78 41q24 36 24 89zM647 174q0 86 -77 86q-50 0 -76 -45q-23 -37 -23 -91q0 -80 74 -80q50 0 78 41q24 36 24 89z" />
    <glyph glyph-name="guilsinglleft" unicode="&#x2039;" horiz-adv-x="257" 
d="M231 470l-108 -198l65 -195l-62 -25l-83 220l129 220z" />
    <glyph glyph-name="guilsinglright" unicode="&#x203a;" horiz-adv-x="257" 
d="M210 272l-129 -220l-57 26l106 194l-66 198l63 22z" />
    <glyph glyph-name="fraction" unicode="&#x2044;" horiz-adv-x="399" 
d="M489 589l-532 -533l-47 47l533 532z" />
    <glyph glyph-name="trademark" unicode="&#x2122;" horiz-adv-x="811" 
d="M720 707l-8 -354h-58l7 254l-127 -254h-75l-62 258l-54 -258h-58l83 354h64l74 -292l148 292h66zM332 707l-6 -53h-117l-32 -301h-58l31 301h-117l6 53h293z" />
    <glyph glyph-name="partialdiff" unicode="&#x2202;" horiz-adv-x="560" 
d="M501 377q0 -148 -81 -261q-92 -129 -244 -129q-56 0 -90 40q-41 48 -41 144q0 114 61 186q65 77 177 77q67 0 134 -20q-18 195 -199 239l30 67q253 -66 253 -343zM419 351q-88 17 -146 17q-76 0 -116 -61q-36 -53 -36 -134q0 -56 16.5 -88.5t38.5 -32.5q108 0 178 103
q59 87 65 196z" />
    <glyph glyph-name="product" unicode="&#x220f;" horiz-adv-x="671" 
d="M701 707l-7 -65h-100l-68 -642h-80l67 642h-302l-68 -642h-80l67 642h-100l7 65h664z" />
    <glyph glyph-name="summation" unicode="&#x2211;" horiz-adv-x="545" 
d="M512 707l-7 -66h-362l159 -289l-216 -283h359l-7 -70l-445 1l7 70l215 283l-156 283l8 71h445z" />
    <glyph glyph-name="radical" unicode="&#x221a;" horiz-adv-x="623" 
d="M667 837l-334 -837h-122l-70 477h-135l7 69h202l67 -483l308 774h77z" />
    <glyph glyph-name="infinity" unicode="&#x221e;" horiz-adv-x="966" 
d="M905 375q0 -80 -56.5 -130t-136.5 -50q-59 0 -127 38q-39 22 -110 77q-94 -61 -124 -76q-75 -39 -136 -39q-68 0 -109 33q-44 35 -44 101q0 79 55 129t134 50q60 0 127 -37q33 -19 110 -77q85 55 125 75q77 39 137 39q68 0 109 -32q46 -35 46 -101zM832 365q0 40 -27 63
q-25 20 -66 20q-42 0 -105 -34q-27 -15 -97 -61q64 -49 87 -62q57 -35 99 -35q47 0 78 31t31 78zM426 351q-69 52 -85 62q-56 35 -98 35q-47 0 -78 -30.5t-31 -77.5q0 -41 26 -62.5t67 -21.5q42 0 104 35q17 9 95 60z" />
    <glyph glyph-name="integral" unicode="&#x222b;" horiz-adv-x="433" 
d="M434 719l-2 -68q-104 -10 -127 -20q-58 -26 -67 -113l-57 -548q-12 -119 -96 -167q-61 -34 -176 -34l1 66q102 10 127 21q57 26 66 114l57 548q12 119 97 166q63 35 177 35z" />
    <glyph glyph-name="approxequal" unicode="&#x2248;" horiz-adv-x="557" 
d="M503 436q-74 -60 -145 -60q-54 0 -112.5 30t-93.5 30q-44 0 -95 -30l-26 52q73 54 143 54q52 0 105.5 -30.5t94.5 -30.5q43 0 94 33zM484 254q-75 -61 -146 -61q-54 0 -112 30.5t-93 30.5q-43 0 -96 -30l-25 52q73 54 143 54q52 0 105.5 -30.5t94.5 -30.5q43 0 94 33z
" />
    <glyph glyph-name="approxequal" unicode="&#x22f2;" horiz-adv-x="557" 
d="M503 436q-74 -60 -145 -60q-54 0 -112.5 30t-93.5 30q-44 0 -95 -30l-26 52q73 54 143 54q52 0 105.5 -30.5t94.5 -30.5q43 0 94 33zM484 254q-75 -61 -146 -61q-54 0 -112 30.5t-93 30.5q-43 0 -96 -30l-25 52q73 54 143 54q52 0 105.5 -30.5t94.5 -30.5q43 0 94 33z
" />
    <glyph glyph-name="notequal" unicode="&#x2260;" horiz-adv-x="470" 
d="M454 593l-85 -116h74l-7 -69h-117l-96 -131h199l-7 -69h-242l-84 -115h-73l84 115h-74l8 69h116l96 131h-199l8 69h241l85 116h73z" />
    <glyph glyph-name="lessequal" unicode="&#x2264;" horiz-adv-x="468" 
d="M453 562l-8 -72l-341 -137l313 -136l-8 -72l-362 159l11 99zM406 68l-7 -69h-389l8 69h388z" />
    <glyph glyph-name="greaterequal" unicode="&#x2265;" horiz-adv-x="468" 
d="M434 399l-10 -100l-393 -154l7 72l341 136l-312 137l8 72zM406 68l-7 -69h-389l8 69h388z" />
    <glyph glyph-name="lozenge" unicode="&#x25ca;" horiz-adv-x="542" 
d="M514 353l-230 -353h-113l-149 355l231 353h113zM425 351l-121 303l-192 -297l121 -302z" />
    <glyph glyph-name="apple" unicode="&#xf000;" horiz-adv-x="800" 
d="M772 123h-744v163h744v-163zM752 143v123h-704v-123h704zM733 193h-8v15q0 2 -1 3l-1 -1v-17h-8v16q0 1 -1 2l-1 -1v-17h-8v25h8v-4q1 4 5 4t4 -3q3 3 6 3q5 0 5 -8v-17zM695 205q0 -13 -13 -13q-14 0 -14 13t14 13q13 0 13 -13zM655 194q-3 -2 -9 -2q-14 0 -14 13t14 13
q6 0 9 -1l-3 -7q-3 1 -6 1q-4 0 -4 -6q0 -5 5 -5q3 0 5 1zM612 197q0 -5 -6 -5q-5 0 -5 5q0 6 5 6q6 0 6 -6zM581 195q-6 -3 -12 -3q-13 0 -13 13t13 13q12 0 12 -11l-1 -3l-14 -2q2 -2 4 -2q6 0 9 1zM544 193h-10v2q-6 -3 -8 -3q-7 0 -7 8v18h10v-16q0 -1 1 -2q1 0 2 1h2
v17h10v-25zM507 180h-9v15q-3 -3 -6 -3q-12 0 -12 13t15 13q9 0 12 -2v-36zM469 195q-6 -3 -13 -3q-12 0 -12 13t12 13q11 0 13 -11l-2 -3l-13 -2q1 -2 3 -2q6 0 10 1zM431 193h-10v16q0 1 -1 2h-2q-1 -1 -2 -1v-17h-10v36h10v-13q4 2 9 2q6 0 6 -8v-17zM394 194
q-8 -2 -13 -2q-10 0 -10 8v10h-3v5l13 10v-7h12v-8h-12v-7q0 -2 2 -2q5 0 9 1zM357 205q0 -13 -13 -13q-14 0 -14 13t14 13q13 0 13 -13zM319 207q0 -15 -13 -15q-1 0 -3 1v-13h-10v38h10v-2q4 2 6 2q10 0 10 -11zM283 217l-9 -26q-4 -11 -18 -13l-2 9q6 1 9 4l-9 26l12 1
l3 -17l2 17zM244 194q-10 -2 -14 -2q-9 0 -9 8v10h-3v5l13 10v-7h11v-8h-11v-7q0 -2 2 -2q5 0 9 1zM199 197q0 -5 -6 -5q-5 0 -5 5q0 6 5 6q6 0 6 -6zM170 218l-3 -25h-8l-3 14l-4 -14h-8l-2 25h8v-17l2 17h7l3 -17l1 17h7zM132 218l-2 -25h-9l-3 14l-4 -14h-8l-2 25h8v-17
l3 17h7l2 -17l1 17h7zM95 218l-3 -25h-8l-4 14l-3 -14h-8l-2 25h8v-17l2 17h7l3 -17v17h8zM685 205q0 6 -4 6q-3 0 -3 -4q0 -8 4 -8q3 0 3 6zM572 208q0 4 -3 4t-3 -5zM498 201v10h-3q-5 0 -5 -5q0 -6 4 -6q3 0 4 1zM459 208q0 4 -3 4t-3 -5zM347 205q0 6 -4 6q-3 0 -3 -4
q0 -8 4 -8q3 0 3 6zM309 206q0 5 -2 5q2 0 -4 -1v-11h3q3 0 3 7z" />
    <glyph glyph-name="fi" unicode="&#xf001;" horiz-adv-x="584" 
d="M554 714q-41 -15 -103 -15q-26 0 -68.5 4t-56.5 4q-58 0 -87 -37q-24 -32 -32 -99l-3 -25h302l-57 -546h-77l51 482h-226l-73 -701h-77l74 701h-80l7 64h80l3 26q23 203 203 203q17 0 69.5 -4t81.5 -4q17 0 64 5z" />
    <glyph glyph-name="fl" unicode="&#xf002;" horiz-adv-x="550" 
d="M530 770l-81 -770h-77l74 702q-21 -1 -62 2q-44 3 -58 3q-58 0 -87 -37q-24 -32 -32 -99l-3 -25h117l-7 -64h-116l-74 -702h-77l74 702h-80l7 64h80l3 26q23 203 203 203q19 0 68.5 -4t76.5 -4q26 0 51 3z" />
  </font>
</defs>
</svg>
