<?xml version="1.0" standalone="no"?>
<!DOCTYPE svg PUBLIC "-//W3C//DTD SVG 1.1//EN" "http://www.w3.org/Graphics/SVG/1.1/DTD/svg11.dtd" >
<svg xmlns="http://www.w3.org/2000/svg" xmlns:xlink="http://www.w3.org/1999/xlink" version="1.1">
<metadata>
Created by FontForge 20170731 at Sun Jul  2 03:46:50 2006
 By Aleksey,,,
Copyright (c) 2003-2006 Peter Bilak, Typotheque V.O.F. All rights reserved.
</metadata>
<defs>
<font id="FedraSerifBPro-Normal" horiz-adv-x="600" >
  <font-face 
    font-family="Fedra Serif B Pro Normal"
    font-weight="400"
    font-stretch="normal"
    units-per-em="1000"
    panose-1="2 0 5 5 0 0 0 2 0 4"
    ascent="780"
    descent="-220"
    x-height="546"
    cap-height="737"
    bbox="-514 -1243 2313 1056"
    underline-thickness="50"
    underline-position="-200"
    unicode-range="U+0020-FE69"
  />
<missing-glyph horiz-adv-x="712" 
d="M305 375v27h27v-27h-27zM380 525v27h27v-27h-27zM305 525v27h27v-27h-27zM230 525v27h27v-27h-27zM80 0v27h27v-27h-27zM155 0v27h27v-27h-27zM230 0v27h27v-27h-27zM305 0v27h27v-27h-27zM380 0v27h27v-27h-27zM80 75v27h27v-27h-27zM80 150v27h27v-27h-27zM80 225v27
h27v-27h-27zM80 300v27h27v-27h-27zM80 375v27h27v-27h-27zM80 450v27h27v-27h-27zM80 525v27h27v-27h-27zM80 600v27h27v-27h-27zM80 675v27h27v-27h-27zM155 675v27h27v-27h-27zM230 675v27h27v-27h-27zM305 675v27h27v-27h-27zM380 675v27h27v-27h-27zM455 675v27h27v-27
h-27zM530 675v27h27v-27h-27zM530 0v27h27v-27h-27zM455 0v27h27v-27h-27zM605 0v27h27v-27h-27zM605 675v27h27v-27h-27zM305 300v27h27v-27h-27zM305 150v27h27v-27h-27zM380 375v27h27v-27h-27zM455 375v27h27v-27h-27zM455 450v27h27v-27h-27zM455 525v27h27v-27h-27z
M605 600v27h27v-27h-27zM605 525v27h27v-27h-27zM605 375v27h27v-27h-27zM605 300v27h27v-27h-27zM605 150v27h27v-27h-27zM605 75v27h27v-27h-27zM605 225v27h27v-27h-27zM605 450v27h27v-27h-27z" />
    <glyph glyph-name="f_f" unicode="ff" horiz-adv-x="793" 
d="M37 0q-3 14 -3 30l42 16q44 16 44 65l2 165v216h-80v37l80 17v62q0 102 78 177.5t175 75.5q153 0 201 -61q69 69 148 69q61 0 102.5 -18t41.5 -56q0 -15 -7 -26t-13.5 -15.5t-22.5 -13.5q-71 73 -100 73q-115 0 -115 -143v-124h119v-54h-119v-216l7 -190q0 -12 4 -17.5
t16 -7.5l112 -24q0 -22 -5 -37h-329q-4 19 -4 30l42 16q44 16 44 65l3 165v216h-267v-216l6 -190q0 -21 20 -26l88 -23q0 -22 -5 -37h-305zM233 546h267v90q0 43 19 82q-84 86 -135 86q-79 0 -115 -38.5t-36 -140.5v-79z" />
    <glyph glyph-name="fi" unicode="fi" horiz-adv-x="748" 
d="M37 0q-3 14 -3 30l42 16q44 16 44 65l2 165v216h-80v37l80 17v71q0 101 82.5 176.5t180.5 75.5q95 0 152 -26t57 -72q0 -25 -10 -38t-36 -28q-95 107 -154 107q-81 0 -121 -39t-40 -139v-88h242q60 10 102 10q23 0 33 -9t10 -31v-243l3 -192q0 -25 16 -28l82 -17
q0 -22 -6 -36h-286q-3 21 -3 31l52 20q12 5 20.5 20t9.5 31l3 171v219h-278v-216l6 -190q0 -21 20 -26l88 -23q0 -22 -5 -37h-305z" />
    <glyph glyph-name="fl" unicode="fl" horiz-adv-x="729" 
d="M37 0q-3 14 -3 30l42 16q44 16 44 65l2 165v216h-80v37l80 17v71q0 102 80 177t177 75q61 0 107 -12q51 7 80 7q43 0 43 -42v-549l4 -194q0 -23 13 -25l84 -19q0 -21 -5 -35h-290q-4 19 -4 30l52 18q32 13 32 53l5 172v495q-64 40 -112 44q-80 0 -117.5 -38.5
t-37.5 -139.5v-88h117v-54h-117v-216l6 -190q0 -21 20 -26l88 -23q0 -22 -5 -37h-305z" />
    <glyph glyph-name="f_f_i" unicode="ffi" horiz-adv-x="1119" 
d="M37 0q-3 14 -3 30l42 16q44 16 44 65l2 165v216h-80v37l80 17v62q0 102 77 177.5t174 75.5q77 0 131.5 -18.5t74.5 -49.5q82 76 179 76q95 0 152 -26t57 -72q0 -25 -10 -38t-35 -28q-95 107 -155 107q-81 0 -120.5 -39t-39.5 -139v-88h238q62 10 102 10q23 0 33.5 -8.5
t10.5 -31.5v-243l2 -192q0 -25 17 -28l81 -17q0 -21 -5 -36h-286q-3 21 -3 31l52 20q12 5 20.5 20.5t8.5 30.5l3 171v219h-274v-216l6 -190q1 -21 21 -26l87 -23q0 -25 -4 -37h-305q-4 19 -4 30l42 16q44 16 44 65l3 165v216h-264v-216l6 -190q0 -21 20 -26l88 -23
q0 -22 -5 -37h-305zM233 546h264v71q0 49 24 97q-85 90 -139 90q-79 0 -114 -38.5t-35 -140.5v-79z" />
    <glyph glyph-name="f_f_l" unicode="ffl" horiz-adv-x="1106" 
d="M719 0h-306q-3 21 -3 30l42 16q44 16 44 65l3 165v216h-266v-216l6 -190q0 -21 20 -26l88 -23q0 -22 -5 -37h-305q-3 14 -3 30l42 16q44 16 44 65l2 165v216h-80v37l80 17v62q0 102 78.5 177.5t175.5 75.5q146 0 204 -66q79 74 176 74q60 0 106 -12q51 7 81 7
q43 0 43 -42v-549l4 -194q0 -14 2 -19t11 -6l84 -19q0 -21 -5 -35h-291q-3 24 -3 30l52 18q32 13 32 53l4 172v495q-62 40 -112 44q-79 0 -117 -38.5t-38 -139.5v-88h117v-54h-117v-216l6 -190q1 -21 21 -26l87 -23q0 -25 -4 -37zM385 804q-79 0 -115.5 -38.5t-36.5 -140.5
v-79h266v71q0 49 22 98q-89 89 -136 89z" />
    <glyph glyph-name="f_h" unicode="fh" horiz-adv-x="1098" 
d="M37 0q-3 14 -3 30l42 16q44 16 44 65l2 165v216h-80v37l80 17v70q0 58 26 108t65.5 80.5t82.5 47.5t81 17q60 0 109 -13q44 9 86 9q39 0 39 -38v-351q30 23 50.5 37t63.5 29.5t87 15.5q55 0 89.5 -12.5t51 -39.5t22 -56t5.5 -75v-102l3 -198q0 -20 18 -24l66 -15
q0 -25 -4 -36h-258q-4 20 -4 33l41 19q11 5 18.5 21.5t7.5 30.5l3 169v76q0 72 -21 100t-87 28q-71 0 -151 -37v-167l2 -185q1 -19 4.5 -26t14.5 -10l80 -17q0 -24 -4 -35h-283q-3 24 -3 29l46 19q29 12 31 59l2 166v489q-57 50 -116 50q-87 0 -120 -43t-33 -156v-67h116
v-54h-116v-216l6 -190q0 -21 20 -26l88 -23q0 -22 -5 -37h-305z" />
    <glyph glyph-name="f_b" unicode="fb" horiz-adv-x="1022" 
d="M701 -7q-124 0 -205 27l5 256v492q-69 44 -116 44q-79 0 -115.5 -38.5t-36.5 -139.5v-88h117v-54h-117v-216l6 -190q0 -21 20 -26l88 -23q0 -22 -5 -37h-305q-3 14 -3 30l42 16q44 16 44 65l2 165v216h-80v37l80 17v71q0 102 78.5 177t175.5 75q65 0 113 -12q46 7 77 7
q25 0 34.5 -9t9.5 -33v-543l5 -215q46 -10 89 -10q78 0 117.5 63.5t39.5 158.5q0 221 -136 221q-41 0 -75 -9l-10 31q60 38 121 38q108 0 164.5 -63t56.5 -203q0 -129 -80.5 -213.5t-200.5 -84.5z" />
    <glyph glyph-name="f_j" unicode="fj" horiz-adv-x="720" 
d="M422 -302q-46 0 -73 12l20 75q7 -6 28.5 -13.5t38.5 -7.5q44 0 60.5 26.5t16.5 86.5v615h-280v-216l6 -190q0 -21 20 -26l88 -23q0 -22 -5 -37h-305q-3 14 -3 30l42 16q44 16 44 65l2 165v216h-80v37l80 17v34q0 66 27 122.5t69.5 92t92.5 55t98 19.5q94 0 145.5 -25.5
t51.5 -72.5q0 -25 -10 -38t-35 -28q-62 70 -95 90q-26 17 -48 17q-88 0 -136.5 -46t-48.5 -153v-67h246q60 10 101 10q22 0 32 -8.5t10 -31.5v-235l3 -338q1 -101 -62 -173t-141 -72z" />
    <glyph glyph-name="f_k" unicode="fk" horiz-adv-x="1004" 
d="M37 0q-3 14 -3 30l42 16q44 16 44 65l2 165v216h-80v37l80 17v70q0 102 79 177.5t185 75.5q53 0 104 -12q39 7 79 7q43 0 43 -42v-547l3 -169q0 -44 25 -57l34 -19q0 -20 -4 -30h-248q-4 28 -4 30l49 20q32 13 32 58l3 165l1 494q-66 45 -108 45q-84 0 -123 -36t-39 -142
v-88h116v-54h-116v-216l6 -190q0 -21 20 -26l88 -23q0 -22 -5 -37h-305zM993 -13q-161 2 -238 108l-135 183l163 170q14 16 14 26q0 21 -17 27l-38 16q0 19 3 29h197v-27l-212 -199l143 -197q46 -64 125 -107z" />
    <glyph glyph-name="f_idieresis" unicode="f&#xef;" horiz-adv-x="784" 
d="M38 0q-4 19 -4 30l42 16q44 16 44 65l3 165v216h-80v37l80 17v87q0 85 69 159.5t158 74.5q83 0 147 -45.5t64 -77.5q0 -8 -28.5 -38t-39.5 -30q-10 0 -38 27.5t-30 39.5q0 1 1 3t2.5 4t3.5 4t3 4q-45 52 -90 52q-112 0 -112 -143v-121h285q60 10 101 10q23 0 33.5 -8.5
t10.5 -31.5v-243l3 -192q0 -25 16 -28l81 -17q0 -21 -5 -36h-296q-3 21 -3 31l62 21q12 4 20.5 19t8.5 31l3 171v219h-320v-216l6 -190q0 -20 20 -25l103 -24q0 -22 -5 -37h-319zM713 676q-11 0 -39.5 29.5t-28.5 38.5q0 11 29 39.5t39 28.5t39.5 -29t29.5 -39
q0 -8 -29.5 -38t-39.5 -30z" />
    <glyph glyph-name="f_f_j" unicode="ffj" horiz-adv-x="1085" 
d="M788 -302q-47 0 -74 12l20 75q8 -6 29 -13.5t38 -7.5q44 0 60.5 26.5t16.5 86.5v615h-270v-216l6 -190q0 -21 20 -26l92 -23q0 -22 -5 -37h-309q-4 19 -4 30l43 16q43 16 43 65l3 165v216h-264v-216l6 -190q0 -21 20 -26l88 -23q0 -22 -5 -37h-305q-3 14 -3 30l42 16
q44 16 44 65l2 165v216h-80v37l80 17v62q0 102 78 177.5t175 75.5q79 0 133 -19.5t72 -53.5q80 81 191 81q94 0 145 -25.5t51 -72.5q0 -25 -10 -38t-36 -28q-2 2 -11 12.5t-13 15t-13.5 15.5t-15.5 16.5t-16 14t-17.5 13.5t-17 10t-18 7.5t-17.5 2.5q-86 0 -130 -45.5
t-44 -153.5v-67h236q60 10 101 10q23 0 32.5 -9t9.5 -31v-243l4 -330q1 -101 -62.5 -173t-140.5 -72zM233 625v-79h264v38q0 65 26 125q-90 95 -139 95q-79 0 -115 -38.5t-36 -140.5z" />
    <glyph glyph-name="f_f_b" unicode="ffb" horiz-adv-x="1396" 
d="M1074 -7q-123 0 -204 27l5 256v492q-70 44 -114 44q-79 0 -116 -38.5t-37 -139.5v-88h117v-54h-117v-216l6 -190q1 -21 21 -26l92 -23q0 -22 -5 -37h-309q-4 19 -4 30l42 16q44 16 44 65l3 165v216h-265v-216l6 -190q0 -21 20 -26l88 -23q0 -22 -5 -37h-305q-3 14 -3 30
l42 16q44 16 44 65l2 165v216h-80v37l80 17v62q0 102 78.5 177.5t175.5 75.5q154 0 202 -66q77 74 170 74q67 0 115 -12q45 7 76 7q25 0 34.5 -9t9.5 -33v-543l5 -215q46 -10 89 -10q79 0 118.5 63.5t39.5 158.5q0 221 -136 221q-40 0 -76 -9l-9 31q60 38 121 38
q108 0 164 -63t56 -203q0 -129 -80 -213.5t-201 -84.5zM233 546h265v70q0 47 22 98q-83 90 -135 90q-79 0 -115.5 -38.5t-36.5 -140.5v-79z" />
    <glyph glyph-name="f_f_h" unicode="ffh" horiz-adv-x="1474" 
d="M37 0q-3 14 -3 30l42 16q44 16 44 65l2 165v216h-80v37l80 17v70q0 93 78.5 169t180.5 76q143 0 204 -71q81 79 180 79q60 0 105 -11q41 7 84 7q39 0 39 -38v-351q29 23 50.5 37t64.5 29.5t87 15.5q55 0 89.5 -12.5t51 -39.5t22 -56t5.5 -75v-102l3 -198q0 -20 18 -24
l66 -15q0 -25 -4 -36h-259q-4 27 -3 33l41 19q11 5 18.5 21.5t7.5 30.5l3 169v76q0 72 -21 100t-87 28q-72 0 -152 -37v-167l3 -185q1 -19 4.5 -26t14.5 -10l80 -17q0 -24 -5 -35h-282q-3 24 -3 29l46 19q29 12 31 59l2 166v495q-20 17 -54 30.5t-62 13.5q-81 0 -116 -44
t-35 -155v-67h117v-54h-117v-216l6 -190q1 -21 21 -26l87 -23q0 -25 -4 -37h-305q-4 19 -4 30l42 16q44 16 44 65l3 165v216h-275v-216l6 -190q0 -21 20 -26l88 -23q0 -22 -5 -37h-305zM233 546h275v70q0 47 19 92q-94 96 -136 96q-35 0 -59.5 -6t-49 -22.5t-37 -52
t-12.5 -89.5v-88z" />
    <glyph glyph-name="f_f_k" unicode="ffk" horiz-adv-x="1385" 
d="M37 0q-3 14 -3 30l42 16q44 16 44 65l2 165v216h-80v37l80 17v70q0 94 77.5 169.5t179.5 75.5q143 0 204 -70q75 78 185 78q57 0 102 -12q39 7 80 7q42 0 42 -42v-547l4 -169q0 -44 25 -57l34 -19q0 -20 -4 -30h-247q-4 28 -4 30l49 20q31 13 31 58l3 165v495
q-66 44 -111 44q-84 0 -120 -38.5t-36 -139.5v-88h117v-54h-117v-216l7 -190q0 -21 20 -26l87 -23q0 -25 -4 -37h-305q-4 19 -4 30l42 16q44 16 44 65l3 165v216h-273v-216l6 -190q0 -21 20 -26l88 -23q0 -22 -5 -37h-305zM233 546h273v70q0 46 20 92q-96 96 -137 96
q-156 0 -156 -170v-88zM1374 -13q-161 2 -238 108l-135 183l163 170q14 16 14 26q0 21 -17 27l-38 16q0 19 3 29h197v-27l-212 -199l143 -197q43 -62 125 -107z" />
    <glyph glyph-name="aogonek_j" unicode="&#x105;j" horiz-adv-x="952" 
d="M527 -302q-199 0 -199 144q0 80 97 152q-29 2 -45 16t-20 30t-5 42q-28 -33 -76 -61.5t-109 -28.5q-60 0 -97 33t-37 90q0 40 16.5 70.5t47 48.5t62 28.5t72.5 16.5q104 15 119 17v86q0 55 -31 78t-100 23q-62 0 -135 -20l-13 39q106 55 190 55q29 0 51 -2t51 -10.5
t48.5 -23.5t33 -44t13.5 -69v-135l7 -204h95l5 -28q-64 -31 -108.5 -76t-44.5 -100q0 -45 28.5 -78t91.5 -33q10 0 26 2t45.5 12.5t53 28.5t41.5 54t18 85v556h-95v42q108 22 162 22q23 0 32.5 -8.5t9.5 -31.5v-243l5 -271q0 -127 -94.5 -215.5t-211.5 -88.5zM218 77
q57 0 135 33v140q-67 -9 -104 -18q-100 -23 -100 -90q0 -26 17 -45.5t52 -19.5zM772 684q-13 0 -46.5 34.5t-33.5 46.5q0 14 34 47.5t46 33.5t46.5 -34t34.5 -47q0 -10 -34 -45.5t-47 -35.5z" />
    <glyph glyph-name=".notdef" horiz-adv-x="712" 
d="M305 375v27h27v-27h-27zM380 525v27h27v-27h-27zM305 525v27h27v-27h-27zM230 525v27h27v-27h-27zM80 0v27h27v-27h-27zM155 0v27h27v-27h-27zM230 0v27h27v-27h-27zM305 0v27h27v-27h-27zM380 0v27h27v-27h-27zM80 75v27h27v-27h-27zM80 150v27h27v-27h-27zM80 225v27
h27v-27h-27zM80 300v27h27v-27h-27zM80 375v27h27v-27h-27zM80 450v27h27v-27h-27zM80 525v27h27v-27h-27zM80 600v27h27v-27h-27zM80 675v27h27v-27h-27zM155 675v27h27v-27h-27zM230 675v27h27v-27h-27zM305 675v27h27v-27h-27zM380 675v27h27v-27h-27zM455 675v27h27v-27
h-27zM530 675v27h27v-27h-27zM530 0v27h27v-27h-27zM455 0v27h27v-27h-27zM605 0v27h27v-27h-27zM605 675v27h27v-27h-27zM305 300v27h27v-27h-27zM305 150v27h27v-27h-27zM380 375v27h27v-27h-27zM455 375v27h27v-27h-27zM455 450v27h27v-27h-27zM455 525v27h27v-27h-27z
M605 600v27h27v-27h-27zM605 525v27h27v-27h-27zM605 375v27h27v-27h-27zM605 300v27h27v-27h-27zM605 150v27h27v-27h-27zM605 75v27h27v-27h-27zM605 225v27h27v-27h-27zM605 450v27h27v-27h-27z" />
    <glyph glyph-name=".null" horiz-adv-x="0" 
 />
    <glyph glyph-name="nonmarkingreturn" horiz-adv-x="333" 
 />
    <glyph glyph-name="space" unicode=" " horiz-adv-x="258" 
 />
    <glyph glyph-name="exclam" unicode="!" horiz-adv-x="314" 
d="M156 -53q-13 0 -49.5 37t-36.5 51t36.5 50t49.5 36q14 0 51 -36.5t37 -49.5t-37 -50.5t-51 -37.5zM121 226l-32 566l68 35l69 -35l-33 -566h-72z" />
    <glyph glyph-name="quotedbl" unicode="&#x22;" horiz-adv-x="476" 
d="M86 586v270h104l-37 -270h-67zM300 586v270h104l-37 -270h-67z" />
    <glyph glyph-name="numbersign" unicode="#" horiz-adv-x="614" 
d="M142 -25l8 168h-92v63h95l9 152h-104v62h106l9 157h63l-8 -157h169l9 157h63l-8 -157h94v-62h-97l-8 -152h105v-63h-109l-8 -168h-63l8 168h-170l-8 -168h-63zM218 206h167l9 152h-169z" />
    <glyph glyph-name="dollar" unicode="$" horiz-adv-x="566" 
d="M247 -167v152q-74 2 -118 22.5t-44 57.5q0 39 30 68q108 -87 144 -87q61 0 97.5 21t36.5 61q0 24 -29.5 41.5t-71 32.5t-83.5 34.5t-71.5 58.5t-29.5 93q0 53 40 104.5t99 64.5v147h59v-143q69 -1 113.5 -22t44.5 -55q0 -7 -1 -13t-1.5 -10.5t-3.5 -9.5t-4 -7t-5 -7
t-5 -6l-5.5 -5.5l-5.5 -5.5q-85 78 -146 78q-44 0 -70.5 -19.5t-26.5 -54.5q0 -27 30.5 -46.5t73.5 -34t86 -33.5t73.5 -57t30.5 -92q0 -72 -50.5 -116.5t-127.5 -56.5v-155h-59z" />
    <glyph glyph-name="percent" unicode="%" horiz-adv-x="710" 
d="M219 366q-54 0 -88.5 27.5t-34.5 87.5q0 59 38.5 94.5t90.5 35.5q55 0 90.5 -28t35.5 -91q0 -59 -39 -92.5t-93 -33.5zM221 409q26 0 41 22.5t15 57.5q0 77 -55 77q-24 0 -39 -21.5t-15 -61.5q0 -74 53 -74zM495 -19q-54 0 -88.5 27.5t-34.5 87.5q0 58 38.5 93.5
t90.5 35.5q55 0 90.5 -28t35.5 -91q0 -58 -39.5 -91.5t-92.5 -33.5zM498 23q25 0 40 22.5t15 57.5q0 77 -55 77q-23 0 -38 -21.5t-15 -60.5q0 -75 53 -75zM120 67l-32 44l501 405l33 -44z" />
    <glyph glyph-name="ampersand" unicode="&#x26;" horiz-adv-x="738" 
d="M665 -17q-106 0 -234 94q-36 -36 -87.5 -61t-105.5 -25q-86 0 -140.5 39.5t-54.5 131.5q0 114 138 196q-50 95 -50 171q0 90 60.5 155t140.5 65q75 0 116.5 -38.5t41.5 -101.5q0 -120 -197 -220q68 -111 190 -214q21 48 21 84q0 47 -62 80q0 9 3 29h183l1 -15
q-13 -34 -52 -96.5t-72 -98.5q92 -73 155 -89q64 -23 103 -15l7 -20q-17 -18 -46.5 -34.5t-58.5 -16.5zM277 66q69 0 130 29q-127 98 -208 229q-44 -49 -44 -116q0 -68 33 -105t89 -37zM278 415q110 85 110 202q0 37 -20.5 61t-56.5 24q-38 0 -63.5 -27.5t-25.5 -77.5
q0 -82 56 -182z" />
    <glyph glyph-name="quotesingle" unicode="'" horiz-adv-x="267" 
d="M86 585v270h105l-37 -270h-68z" />
    <glyph glyph-name="parenleft" unicode="(" horiz-adv-x="353" 
d="M286 859l36 -40q-201 -178 -201 -534q0 -187 58 -331.5t144 -225.5l-37 -40q-229 217 -229 596q0 206 65 350t164 225z" />
    <glyph glyph-name="parenright" unicode=")" horiz-adv-x="353" 
d="M79 -312l-37 40q87 82 145 226t58 331q0 355 -202 534l36 40q99 -81 164 -225t65 -350q0 -379 -229 -596z" />
    <glyph glyph-name="asterisk" unicode="*" horiz-adv-x="451" 
d="M225 498l-30 18l9 131l-112 -73l-28 16v36l116 57l-116 60l-2 36l31 16l112 -74l-9 133l29 18l30 -18l-5 -131l108 72l32 -15l-3 -35l-121 -60l121 -59l2 -33l-32 -19l-108 72l5 -130z" />
    <glyph glyph-name="plus" unicode="+" 
d="M540 264l-200 2l2 -229h-84l2 229l-200 -2v75l200 -2l-2 228h84l-2 -228l200 2v-75z" />
    <glyph glyph-name="comma" unicode="," horiz-adv-x="432" 
d="M149 -192l-25 22q69 74 83 123q-22 14 -51 44.5t-29 40.5q0 15 38.5 52.5t52.5 37.5q17 0 49.5 -34.5t32.5 -56.5q0 -55 -47.5 -122t-103.5 -107z" />
    <glyph glyph-name="hyphen" unicode="-" horiz-adv-x="381" 
d="M50 270v65l281 19v-84h-281z" />
    <glyph glyph-name="hyphen" unicode="&#xad;" horiz-adv-x="381" 
d="M50 270v65l281 19v-84h-281z" />
    <glyph glyph-name="period" unicode="." horiz-adv-x="421" 
d="M209 -56q-14 0 -51.5 38.5t-37.5 52.5q0 15 38 52t51 37q14 0 52.5 -37.5t38.5 -51.5q0 -13 -38 -52t-53 -39z" />
    <glyph glyph-name="slash" unicode="/" horiz-adv-x="367" 
d="M338 796l-237 -858h-72l238 858h71z" />
    <glyph glyph-name="zero" unicode="0" horiz-adv-x="616" 
d="M301 -8q-123 0 -192 66.5t-69 205.5q0 112 82 202t188 90q265 0 265 -276q0 -112 -81.5 -200t-192.5 -88zM318 54q134 0 134 212q0 231 -151 231q-39 0 -67.5 -18.5t-43.5 -51t-22 -69t-7 -79.5q0 -98 37 -161.5t120 -63.5z" />
    <glyph glyph-name="one" unicode="1" horiz-adv-x="453" 
d="M48 0q-5 27 -4 41l91 27q38 9 38 49l4 159v208h-146v50l259 34v-292l4 -166q1 -20 7 -27.5t26 -13.5l106 -27q0 -22 -5 -42h-380z" />
    <glyph glyph-name="two" unicode="2" horiz-adv-x="497" 
d="M52 0l-17 62q273 206 273 322q0 44 -27.5 70t-73.5 26q-76 0 -143 -32l-22 45q91 65 192 65q88 0 143 -42t55 -120q0 -44 -26.5 -90.5t-72 -87.5t-90.5 -73t-97 -62l312 21v-104h-406z" />
    <glyph glyph-name="three" unicode="3" horiz-adv-x="498" 
d="M184 -200q-93 0 -170 35l30 84q88 -53 149 -53q137 0 137 135q0 72 -46 115.5t-125 50.5l-8 39q60 9 103.5 54.5t43.5 104.5q0 56 -31.5 85.5t-82.5 29.5q-69 0 -120 -27l-25 43q75 62 175 62q93 0 148.5 -41t55.5 -127q0 -59 -45 -106.5t-93 -63.5q64 -9 120 -56
t56 -121q0 -106 -85.5 -174.5t-186.5 -68.5z" />
    <glyph glyph-name="four" unicode="4" horiz-adv-x="566" 
d="M313 -188l4 213h-268l-31 65l236 456h54l-210 -423h219v423h97v-423h120v-98h-120l5 -213h-106z" />
    <glyph glyph-name="five" unicode="5" horiz-adv-x="532" 
d="M205 -202q-100 0 -191 34l33 91q93 -57 168 -57q70 0 110.5 36.5t40.5 107.5q0 42 -19 73t-47 48.5t-70 28.5t-76 14.5t-78 5.5l35 366h361l-8 -110l-298 19l-15 -170q337 -24 337 -224q0 -108 -85 -185.5t-198 -77.5z" />
    <glyph glyph-name="six" unicode="6" horiz-adv-x="586" 
d="M301 -8q-76 0 -127 22.5t-78 67.5t-38 100t-11 131q0 77 25 154t68.5 139.5t110.5 102t145 39.5q61 0 103 -15l-26 -80q-50 23 -96 23q-55 0 -94.5 -22t-62 -55.5t-35.5 -84.5t-16.5 -96.5t-3.5 -104.5q0 -50 7 -95t23 -85.5t46.5 -64.5t72.5 -24q43 0 70.5 29.5t36.5 68
t9 85.5q0 76 -35.5 118t-103.5 42q-31 0 -56 -5l-8 46q70 22 114 22q100 0 154.5 -48t54.5 -143q0 -109 -71.5 -188t-177.5 -79z" />
    <glyph glyph-name="seven" unicode="7" horiz-adv-x="489" 
d="M113 -211l-75 36l328 622l-343 -9v108h422l18 -46z" />
    <glyph glyph-name="eight" unicode="8" horiz-adv-x="568" 
d="M277 -10q-106 0 -170.5 50t-64.5 142q0 62 40 109t105 75q-115 80 -115 182q0 73 64 136t154 63q100 0 164 -42.5t64 -121.5q0 -63 -37.5 -106t-106.5 -75q75 -39 121.5 -85t46.5 -107q0 -99 -77 -159.5t-188 -60.5zM294 39q62 0 96.5 38t34.5 97q0 28 -25 56t-51.5 44.5
t-72.5 41t-61 33.5q-67 -70 -67 -161q0 -60 40 -104.5t106 -44.5zM348 416q64 60 64 156q0 49 -30 87.5t-94 38.5q-52 0 -82 -32.5t-30 -80.5q0 -28 15.5 -53t45.5 -48t52.5 -36t58.5 -32z" />
    <glyph glyph-name="nine" unicode="9" horiz-adv-x="584" 
d="M185 -202q-58 0 -103 16l26 80q49 -24 96 -24q55 0 94.5 22.5t62 56t35.5 84.5t16.5 96.5t3.5 104.5q0 50 -7 95t-23 86t-46.5 65t-72.5 24q-43 0 -70.5 -30t-36.5 -68.5t-9 -85.5q0 -76 35.5 -118t103.5 -42q31 0 55 5l9 -46q-67 -23 -114 -23q-99 0 -154 48.5
t-55 143.5q0 108 71.5 187.5t177.5 79.5q76 0 127 -22.5t78 -67.5t38 -100t11 -131q0 -77 -25 -154t-68.5 -140t-110.5 -102.5t-145 -39.5z" />
    <glyph glyph-name="colon" unicode=":" horiz-adv-x="432" 
d="M209 -56q-14 0 -51.5 38.5t-37.5 52.5q0 15 38 52t51 37q14 0 52.5 -37.5t38.5 -51.5q0 -13 -38 -52t-53 -39zM209 394q-14 0 -51.5 38.5t-37.5 52.5q0 15 38 52t51 37q14 0 52.5 -37.5t38.5 -51.5q0 -13 -38 -52t-53 -39z" />
    <glyph glyph-name="semicolon" unicode=";" horiz-adv-x="432" 
d="M149 -192l-26 22q71 74 84 123q-22 14 -51 44.5t-29 40.5q0 15 38.5 52.5t52.5 37.5q18 0 50 -34.5t32 -57.5q0 -54 -47.5 -121t-103.5 -107zM207 393q-14 0 -51.5 38.5t-37.5 52.5q0 15 38 52t51 37q14 0 52.5 -37.5t38.5 -51.5q0 -13 -38 -52t-53 -39z" />
    <glyph glyph-name="less" unicode="&#x3c;" 
d="M179 300l361 -188l-35 -68l-445 233v46l445 233l35 -68z" />
    <glyph glyph-name="equal" unicode="=" 
d="M540 358h-480v75h480v-75zM540 168h-480v75h480v-75z" />
    <glyph glyph-name="greater" unicode="&#x3e;" 
d="M60 112l361 188l-361 188l35 68l445 -233v-46l-445 -233z" />
    <glyph glyph-name="question" unicode="?" horiz-adv-x="462" 
d="M164 208q-31 40 -31 69l207 382q0 24 -29 49.5t-85 25.5q-15 0 -28 -1.5t-26.5 -5t-22 -6.5t-27 -9.5t-28.5 -10.5q-19 27 -19 53q0 73 126 73q96 0 162 -46.5t66 -104.5q0 -38 -21.5 -82.5t-52.5 -84.5t-61.5 -78.5t-52 -75t-21.5 -62.5q0 -11 6 -34t9 -28zM210 -53
q-13 0 -49.5 37t-36.5 51t36.5 50t49.5 36q14 0 51 -36.5t37 -49.5t-37 -50.5t-51 -37.5z" />
    <glyph glyph-name="at" unicode="@" horiz-adv-x="798" 
d="M371 -133q-146 0 -222.5 86t-76.5 243q0 116 32.5 204.5t88.5 141.5t127 79.5t153 26.5q121 0 190 -67t69 -212q0 -74 -20 -131.5t-53 -89t-68 -47t-71 -15.5q-83 0 -76 82q-58 -77 -120 -77q-97 0 -97 122q0 89 63.5 156.5t142.5 67.5q67 0 117 -21l-28 -237
q-4 -47 22 -47q20 0 40.5 10t43 34t37 73.5t14.5 117.5q0 235 -209 235q-68 0 -126.5 -20.5t-108 -64t-78.5 -123t-29 -187.5q0 -155 64 -223t189 -68q67 0 145 18l10 -41q-66 -26 -165 -26zM363 161q38 0 82 32l23 195q-20 6 -34 6q-43 2 -71 -24.5t-38.5 -63.5t-10.5 -82
q0 -63 49 -63z" />
    <glyph glyph-name="A" unicode="A" horiz-adv-x="745" 
d="M22 0q-3 8 -3 30l22 17q27 20 43 58l263 631l82 29l224 -646q18 -51 48 -75l17 -15q0 -17 -5 -29h-285q-3 21 -3 29l67 20q31 9 31 51q0 14 -5 29l-54 176h-234l-70 -180q-21 -55 44 -77l51 -18q0 -17 -4 -30h-229zM251 359h196l-60 198l-24 86h-6l-29 -84z" />
    <glyph glyph-name="B" unicode="B" horiz-adv-x="695" 
d="M30 0q-4 25 -3 33l59 16q18 5 30 20.5t12 37.5l3 179v358q0 35 -32 45l-61 22q-2 15 2 26h299q252 0 252 -175q0 -60 -35.5 -99.5t-81.5 -58.5v-3q19 -3 38.5 -9t44 -19.5t43 -32t31 -48.5t12.5 -67q0 -99 -67.5 -162t-205.5 -63h-340zM248 55h112q76 0 116.5 39.5
t40.5 113.5t-47 110t-150 36h-76v-70zM244 408h89q131 0 133 141q0 135 -156 135h-66v-276z" />
    <glyph glyph-name="C" unicode="C" horiz-adv-x="682" 
d="M426 -7q-183 0 -280 93t-97 278q0 151 108 268t265 117q53 0 96.5 -7.5t60.5 -13.5t50 -20v-149h-34q-45 124 -177 124q-114 0 -181.5 -74t-67.5 -227q0 -143 76.5 -229.5t197.5 -86.5q96 0 172 30l17 -50q-97 -53 -206 -53z" />
    <glyph glyph-name="D" unicode="D" horiz-adv-x="794" 
d="M30 0q-4 25 -3 33l61 16q38 11 40 65l2 166v363q0 37 -31 45l-64 20q0 17 4 29h287q75 0 135 -9.5t113.5 -34t89 -64t56 -101t20.5 -143.5q0 -181 -111 -283t-297 -102h-302zM250 55h93q133 0 200 81t67 229q0 147 -74.5 231t-212.5 84h-79v-402z" />
    <glyph glyph-name="E" unicode="E" horiz-adv-x="650" 
d="M30 0q-4 25 -3 34l60 16q40 12 42 59l2 171v362q0 36 -29 46l-67 23q-1 10 4 26h527v-147q-7 -2 -23 -2l-16 -1q-16 88 -84 89l-199 7v-285l269 5v-66l-269 5v-64l5 -223l184 4q97 1 139 102l34 -8l-21 -153h-555z" />
    <glyph glyph-name="F" unicode="F" horiz-adv-x="585" 
d="M37 0q-4 13 -1 30l53 17q37 11 39 63l3 169v359q0 40 -29 50l-65 23q-1 11 2 26h527v-151q-17 -5 -37 -1q-9 41 -29.5 63t-61.5 24l-195 11v-310l278 8v-68l-278 5v-41l4 -176q0 -19 4 -28t20 -12l111 -23q0 -27 -4 -38h-341z" />
    <glyph glyph-name="G" unicode="G" horiz-adv-x="738" 
d="M426 -7q-183 0 -280 93t-97 278q0 150 111.5 268t268.5 118q115 0 229 -45v-146h-34q-22 59 -74.5 92t-124.5 33q-116 0 -185.5 -76t-69.5 -229q0 -144 77.5 -229.5t196.5 -85.5q65 0 101 9v248h113v-262q-112 -66 -232 -66z" />
    <glyph glyph-name="H" unicode="H" horiz-adv-x="859" 
d="M28 0q-5 22 -4 30l55 19q19 7 30.5 29t12.5 47l2 154v351q0 50 -35 61l-64 18q0 13 4 28h289q4 -17 4 -30l-54 -14q-19 -6 -25.5 -16t-6.5 -31v-249h368v223q0 23 -11 44t-30 27l-49 18q0 21 2 28h285q0 -24 -1 -31l-54 -14q-17 -5 -23.5 -13.5t-6.5 -28.5v-372l3 -178
q0 -39 24 -45l76 -19q0 -22 -5 -36h-302q-4 19 -3 33l44 14q25 7 37 31t12 49l2 152v63h-368v-64l4 -179q1 -34 29 -43l80 -22q0 -19 -5 -34h-316z" />
    <glyph glyph-name="I" unicode="I" horiz-adv-x="370" 
d="M36 0q-4 18 -3 30l51 19q37 14 39 67l2 162v343q0 58 -46 73l-44 15q-2 12 2 28h285q4 -18 3 -30l-42 -11q-45 -10 -45 -73v-345l3 -185q1 -21 7 -29.5t23 -12.5l71 -17q0 -20 -5 -34h-301z" />
    <glyph glyph-name="J" unicode="J" horiz-adv-x="357" 
d="M9 -204l-20 37q78 46 106 102.5t28 163.5v526q0 23 -12.5 42.5t-36.5 27.5l-42 14q0 13 4 28h285q3 -24 3 -30l-47 -12q-24 -6 -31.5 -16t-7.5 -32v-585q0 -176 -229 -266z" />
    <glyph glyph-name="K" unicode="K" horiz-adv-x="739" 
d="M26 0q-3 21 -3 29l61 21q37 13 39 66l2 162v350q0 50 -31 62l-59 19q-2 12 2 28h280q3 -22 3 -26l-46 -18q-36 -14 -36 -68v-341l3 -188q0 -35 22 -42l59 -20q0 -20 -5 -34h-291zM716 -11q-146 0 -216 81l-252 288v17l240 242q26 26 26 44q0 23 -25 32l-43 14q0 15 4 30
h227v-30l-323 -300l219 -247q83 -93 152 -137z" />
    <glyph glyph-name="L" unicode="L" horiz-adv-x="595" 
d="M30 0q-4 25 -3 33l55 15q42 12 42 60l3 170v351q0 51 -37 62l-55 18q0 13 4 28h285q3 -24 3 -30l-48 -13q-22 -5 -30.5 -15t-8.5 -30v-371l5 -221l176 6q48 6 80 37t46 74l32 -8l-26 -166h-523z" />
    <glyph glyph-name="M" unicode="M" horiz-adv-x="1038" 
d="M453 -22l-207 621h-5l-6 -67l-65 -435q-5 -29 12 -35l91 -29q0 -21 -4 -33h-250q-4 19 -4 29l36 18q21 10 35.5 33t18.5 48l84 505q3 18 -5.5 34t-23.5 21l-64 21q0 12 4 28h220l145 -422l51 -166h9l54 156l161 432h201q3 -24 3 -27l-48 -16q-47 -13 -38 -79l72 -514
q6 -35 36 -47l48 -22q0 -16 -4 -32h-285q-3 22 -3 30l40 12q40 12 40 78q0 3 -3 36l-41 366l-7 70h-6l-209 -588z" />
    <glyph glyph-name="N" unicode="N" horiz-adv-x="835" 
d="M623 -24l-426 626h-6l7 -83v-243l3 -176q1 -19 5.5 -27t19.5 -13l86 -28q0 -17 -5 -32h-276q-5 23 -4 30l55 17q48 13 50 89l2 140v359q0 41 -30 53l-61 21q-2 16 2 28h206l393 -568h8l-9 108v349q0 19 -11 38t-27 25l-61 20q0 17 4 28h254q4 -20 4 -26l-56 -17
q-19 -5 -30.5 -24t-11.5 -42v-624z" />
    <glyph glyph-name="O" unicode="O" horiz-adv-x="824" 
d="M401 -12q-170 0 -261 92t-91 257q0 172 107 291.5t270 119.5q172 0 260.5 -93t88.5 -255q0 -171 -103 -291.5t-271 -120.5zM407 51q122 0 178.5 87t56.5 231q0 141 -57 229.5t-171 88.5q-80 0 -134 -43.5t-76.5 -112.5t-22.5 -160q0 -140 56.5 -230t169.5 -90z" />
    <glyph glyph-name="P" unicode="P" horiz-adv-x="648" 
d="M37 0q-3 24 -3 30l54 17q39 12 41 63l3 173v360q0 35 -27 44l-70 24q-1 11 4 26h353q111 0 173.5 -53.5t62.5 -161.5q0 -105 -74.5 -174.5t-210.5 -69.5h-33v50l24 1q83 3 126.5 47t43.5 124q0 75 -39.5 127t-118.5 53l-102 2v-399l4 -187q0 -32 24 -37l101 -25
q0 -22 -4 -34h-332z" />
    <glyph glyph-name="Q" unicode="Q" horiz-adv-x="823" 
d="M401 -12q-170 0 -261 92t-91 257q0 172 107 291.5t270 119.5q172 0 260.5 -93t88.5 -255q0 -137 -68.5 -245.5t-185.5 -147.5l118 -75q56 -35 118 -35q47 0 111 14l15 -45q-89 -54 -150 -54q-59 0 -121 46l-168 133q-21 -3 -43 -3zM407 51q122 0 178.5 87t56.5 231
q0 141 -57 229.5t-171 88.5q-80 0 -134 -43.5t-76.5 -112.5t-22.5 -160q0 -140 56.5 -230t169.5 -90z" />
    <glyph glyph-name="R" unicode="R" horiz-adv-x="739" 
d="M758 -18q-47 2 -75.5 4.5t-79.5 21.5t-85 54q-17 17 -35.5 42t-37.5 59.5t-30.5 55.5t-30.5 59.5t-21 42.5q-19 -3 -35 -3l-85 1l4 -232q0 -27 21 -33l74 -18q0 -25 -4 -36h-295q-3 24 -3 30l47 17q36 12 41 64l3 165v377q-4 26 -24 33l-73 25q0 11 5 26h328
q116 0 184 -48t68 -152q0 -62 -34 -116.5t-96 -76.5q3 -6 22.5 -40.5t33 -58t33.5 -55t36 -50.5q86 -98 151 -123zM243 372l87 1q81 0 121.5 39.5t41.5 111.5q0 70 -44.5 113t-126.5 44l-79 1v-310z" />
    <glyph glyph-name="S" unicode="S" horiz-adv-x="590" 
d="M266 -11q-113 0 -222 53l11 160h42q32 -155 196 -155q54 0 96 36t42 88q0 39 -36.5 69t-89 53t-105 49.5t-89 73t-36.5 110.5q0 95 76 158t171 63q115 0 193 -45v-139h-34q-15 61 -59.5 92t-107.5 31q-65 0 -104.5 -29t-39.5 -83q0 -38 38.5 -69t93 -55.5t109 -53t93 -77
t38.5 -113.5q0 -72 -41.5 -122.5t-102 -72.5t-132.5 -22z" />
    <glyph glyph-name="T" unicode="T" horiz-adv-x="654" 
d="M160 0q-5 23 -4 33l72 19q17 5 27.5 25.5t11.5 45.5l3 143v415l-149 -2q-65 0 -85 -105q-13 -1 -32 3v160h646v-160q-18 -4 -31 -3q-20 104 -96 105l-140 2v-415l5 -168q0 -24 5 -33.5t20 -13.5l85 -18q0 -15 -3 -33h-335z" />
    <glyph glyph-name="U" unicode="U" horiz-adv-x="795" 
d="M396 -12q-46 0 -84 5.5t-77 22.5t-65.5 44.5t-43.5 74.5t-17 109v391q0 46 -30 55l-60 20q0 11 4 27h293q3 -22 2 -31l-60 -14q-27 -6 -27 -34v-411q0 -104 56.5 -153t131.5 -49q178 0 178 226v356q0 53 -57 70l-42 13q0 22 1 27h266q3 -15 3 -29l-50 -16
q-28 -11 -28 -44v-377q0 -59 -18.5 -108t-48.5 -81t-69 -53.5t-79 -31t-79 -9.5z" />
    <glyph glyph-name="V" unicode="V" horiz-adv-x="731" 
d="M318 -22l-221 649q-17 50 -34 60l-46 25q0 10 4 25h283q5 -22 4 -32l-53 -12q-43 -11 -28 -60l126 -408l31 -108h3l37 108l140 375q7 18 7 35q0 38 -32 53l-49 23q0 13 4 26h228q3 -14 2 -26l-34 -17q-30 -16 -50 -69l-248 -624z" />
    <glyph glyph-name="W" unicode="W" horiz-adv-x="1095" 
d="M720 -23l-164 480l-209 -456l-68 -22l-191 662q-10 34 -29 44l-49 27q0 9 4 25h276q4 -22 4 -28l-49 -17q-28 -10 -28 -50q0 -15 5 -35l105 -402l19 -86h3l36 87l145 325l-39 122q-6 21 -22 32l-44 28v24h265q4 -21 4 -27q-3 -1 -24 -9.5t-22 -8.5q-28 -12 -28 -59
q0 -16 5 -33l135 -408l22 -77h2l22 78l128 413q7 20 7 38q0 30 -25 42l-52 23q0 13 5 28h218q3 -23 3 -27l-36 -18q-29 -16 -47 -64l-215 -628z" />
    <glyph glyph-name="X" unicode="X" horiz-adv-x="709" 
d="M8 0q-4 23 -3 30l34 18q45 25 86 80l175 231l-173 263q-5 8 -11 15.5t-14 14.5t-13 12t-15 12.5t-13.5 10t-15 11t-13.5 9.5q-6 11 -2 30h261q3 -26 3 -31l-39 -17q-11 -4 -12 -19t11 -33l121 -181l132 175q11 13 10.5 31t-12.5 24l-42 22q0 19 2 29h221q1 -9 -1 -30
q-70 -23 -111 -78l-165 -223l189 -284q21 -31 41.5 -48t63.5 -44q0 -19 -4 -30h-275q-3 21 -3 30l38 22q16 9 16 25q0 15 -11 31l-130 199l-141 -192q-11 -14 -11 -31q0 -21 14 -27l57 -27q-2 -24 -4 -30h-241z" />
    <glyph glyph-name="Y" unicode="Y" horiz-adv-x="679" 
d="M177 0q-4 21 -3 36l60 16q18 5 29.5 20.5t11.5 38.5l3 186l-203 341q-7 11 -14 20.5t-16 18.5t-13.5 13t-15.5 13t-13 10q0 17 2 24h264q4 -18 3 -28l-47 -17q-21 -8 -21 -34q0 -22 12 -43l143 -262l148 265q11 24 4 41t-23 26l-51 25q-2 15 2 27h223q4 -16 4 -26
q-19 -9 -29.5 -15.5t-23.5 -18.5t-22 -28l-200 -343l3 -202q0 -41 29 -48l77 -21q0 -17 -5 -35h-318z" />
    <glyph glyph-name="Z" unicode="Z" horiz-adv-x="618" 
d="M48 0l-20 64l398 616l-256 -5q-58 -8 -75 -103q-16 -2 -41 2v163h507l15 -48l-406 -627l264 7q85 4 121 110l39 -10l-21 -169h-525z" />
    <glyph glyph-name="bracketleft" unicode="[" horiz-adv-x="347" 
d="M109 -320v1174h166v-55h-101v-1064h101v-55h-166z" />
    <glyph glyph-name="backslash" unicode="\" horiz-adv-x="381" 
d="M348 -62h-72l-243 858h71z" />
    <glyph glyph-name="bracketright" unicode="]" horiz-adv-x="347" 
d="M74 -320v55h102v1064h-102v55h166v-1174h-166z" />
    <glyph glyph-name="asciicircum" unicode="^" horiz-adv-x="542" 
d="M63 395l173 411h83l157 -411h-73l-125 352l-146 -352h-69z" />
    <glyph glyph-name="underscore" unicode="_" horiz-adv-x="500" 
d="M0 -171v69h500v-69h-500z" />
    <glyph glyph-name="grave" unicode="`" horiz-adv-x="568" 
d="M412 621q-100 41 -232 145l62 74q85 -106 191 -185z" />
    <glyph glyph-name="a" unicode="a" horiz-adv-x="587" 
d="M170 -8q-60 0 -97 33t-37 90q0 37 14.5 65t36 45t54.5 30t61 18.5t65 10.5l86 11v87q0 55 -31.5 78.5t-99.5 23.5q-58 0 -135 -21l-13 39q106 55 190 55q29 0 51 -2t51 -10.5t48.5 -23.5t33 -44t13.5 -69v-135l7 -204h95l5 -28q-17 -17 -59.5 -32.5t-70.5 -15.5
q-48 0 -64.5 23t-18.5 66q-81 -90 -185 -90zM221 76q62 0 132 34v140l-71 -11q-133 -19 -133 -97q0 -27 18.5 -46.5t53.5 -19.5z" />
    <glyph glyph-name="b" unicode="b" horiz-adv-x="624" 
d="M303 -7q-123 0 -204 27l5 256v527h-98v38q98 24 162 24q25 0 34.5 -9t9.5 -34v-543l5 -216q41 -9 89 -9q79 0 118.5 63.5t39.5 158.5q0 222 -136 222q-40 0 -76 -9l-9 31q60 38 121 38q108 0 164 -63.5t56 -203.5q0 -129 -80 -213.5t-201 -84.5z" />
    <glyph glyph-name="c" unicode="c" horiz-adv-x="510" 
d="M293 -9q-136 0 -194.5 62.5t-58.5 213.5q0 114 76.5 203.5t192.5 89.5q27 0 53.5 -3t55.5 -10t46.5 -23t17.5 -38q0 -50 -47 -78q-70 92 -134 92q-75 0 -111.5 -48.5t-36.5 -156.5q0 -102 42 -163.5t137 -61.5q66 0 134 22l13 -34q-67 -67 -186 -67z" />
    <glyph glyph-name="d" unicode="d" horiz-adv-x="639" 
d="M258 -9q-43 0 -79 11.5t-69 38.5t-51.5 81t-18.5 130q0 134 77 217.5t191 83.5q56 0 100 -9v258h-98v40q99 22 162 22q25 0 35 -9t10 -33v-546l4 -207h93l5 -31q-84 -47 -154 -47q-57 0 -57 74q-74 -74 -150 -74zM297 75q40 0 109 29l2 172v203q-58 20 -100 20
q-84 0 -117.5 -58.5t-33.5 -172.5q0 -95 37.5 -144t102.5 -49z" />
    <glyph glyph-name="e" unicode="e" horiz-adv-x="553" 
d="M310 -9q-139 0 -204.5 59t-65.5 209q0 125 73.5 213t187.5 88q109 0 161 -71t52 -192v-26h-362q6 -112 55.5 -155t138.5 -43q67 0 145 19l14 -38q-30 -28 -83.5 -45.5t-111.5 -17.5zM152 321h240q0 89 -24 138t-86 49q-56 0 -92.5 -47t-37.5 -140z" />
    <glyph glyph-name="f" unicode="f" horiz-adv-x="417" 
d="M38 0q-4 19 -4 30l42 16q44 16 44 65l3 165v216h-80v37l80 17v90q0 83 70 158t154 75q61 0 102.5 -18t41.5 -56q0 -15 -7 -26t-13.5 -15.5t-22.5 -13.5q-71 73 -100 73q-115 0 -115 -143v-124h119v-54h-119v-216l6 -190q0 -21 20 -25l112 -24q0 -22 -5 -37h-328z" />
    <glyph glyph-name="g" unicode="g" horiz-adv-x="610" 
d="M251 -303q-222 0 -222 135q0 43 33.5 88t74.5 71q-27 2 -46 18t-19 41q0 65 75 148q-37 19 -61 60.5t-24 87.5q0 90 64 151.5t152 61.5q115 0 162 -44l154 38v-83h-114q20 -38 20 -93q0 -84 -65 -144t-151 -60q-74 0 -118 18v-109h162q48 0 85 -5.5t73.5 -21t56.5 -48
t20 -81.5q0 -71 -52.5 -125.5t-122 -79t-137.5 -24.5zM299 -238q70 0 114 33.5t44 88.5q0 101 -145 101h-144q-41 -51 -41 -104q0 -37 13 -61.5t38.5 -36.5t53.5 -16.5t67 -4.5zM285 223q50 0 75 39t25 96q0 61 -26 107t-78 46q-112 0 -112 -143q0 -69 29 -107t87 -38z" />
    <glyph glyph-name="h" unicode="h" horiz-adv-x="718" 
d="M46 0q-3 24 -3 29l47 19q31 14 31 59l2 166v530h-94v39q92 23 163 23q22 0 30.5 -8t8.5 -28v-353q31 24 51 37t63.5 29t87.5 16q55 0 89.5 -12.5t51 -39.5t22 -56t5.5 -75v-102l3 -198q0 -20 18 -24l67 -15q0 -22 -5 -36h-258q-4 20 -4 33l41 19q12 5 19 21.5t7 30.5
l3 169v76q0 72 -21 100t-87 28q-71 0 -151 -37v-167l3 -185q0 -18 3.5 -25.5t14.5 -10.5l81 -17q0 -22 -6 -35h-283z" />
    <glyph glyph-name="i" unicode="i" horiz-adv-x="369" 
d="M41 0q-4 28 -4 31l62 21q12 4 20.5 19t9.5 31l3 171v218h-98v42q99 22 164 22q23 0 33.5 -9t10.5 -31v-242l2 -192q0 -25 17 -28l81 -17q0 -21 -5 -36h-296zM184 684q-13 0 -46.5 34.5t-33.5 46.5q0 13 34 46.5t46 33.5q11 0 46.5 -34t35.5 -46q0 -11 -34.5 -46
t-47.5 -35z" />
    <glyph glyph-name="j" unicode="j" horiz-adv-x="363" 
d="M41 -302q-46 0 -73 12l20 75q7 -6 28.5 -13.5t38.5 -7.5q43 0 59.5 26.5t16.5 86.5v615h-96v41q99 22 164 22q22 0 32 -8.5t10 -30.5v-243l3 -330q1 -101 -62 -173t-141 -72zM184 684q-12 0 -46 34.5t-34 46.5q0 14 34 47.5t46 33.5t47 -34t35 -47q0 -10 -34.5 -45.5
t-47.5 -35.5z" />
    <glyph glyph-name="k" unicode="k" horiz-adv-x="630" 
d="M40 0q-3 24 -3 30l54 20q32 12 32 58l4 165v530h-96v40q97 22 163 22q43 0 43 -42v-557l2 -160q2 -45 26 -57l34 -19q0 -18 -5 -30h-254zM622 16l-5 -29q-161 2 -238 108l-134 184l162 169q14 14 14 26q0 21 -16 27l-38 16q0 22 2 29h198v-27l-213 -199l143 -197
q46 -64 125 -107z" />
    <glyph glyph-name="l" unicode="l" horiz-adv-x="352" 
d="M40 0q-4 19 -4 30l52 18q32 13 32 53l5 172v530h-96v39q94 23 162 23q43 0 43 -43v-549l4 -194q0 -14 2 -19t11 -6l84 -19q0 -21 -5 -35h-290z" />
    <glyph glyph-name="m" unicode="m" horiz-adv-x="1051" 
d="M45 0q-4 12 -4 30l44 17q35 15 35 56l2 170v219h-95v40q99 22 163 22q21 0 30 -8.5t9 -27.5v-43q30 25 50.5 39t60 29t80.5 15q122 0 151 -82q103 82 198 82q55 0 89.5 -12.5t50.5 -40t21 -56t5 -74.5v-102l3 -196q0 -14 3.5 -19t14.5 -7l70 -15q0 -25 -4 -36h-257
q-4 17 -4 35l36 18q24 13 25 49l3 171v76q0 70 -18 99t-83 29q-74 0 -145 -32q4 -20 4 -60v-112l3 -196q0 -22 15 -26l80 -15q0 -25 -4 -36h-261q-4 28 -4 32l36 18q21 10 23 42l3 181v76q0 37 -2 56t-11.5 38t-29.5 26.5t-54 7.5q-39 0 -80.5 -12t-64.5 -25v-167l3 -186
q0 -31 15 -34l71 -16q0 -26 -4 -37h-272z" />
    <glyph glyph-name="n" unicode="n" horiz-adv-x="710" 
d="M46 0q-3 24 -3 29l47 19q31 12 31 59l2 166v219h-94v39q108 22 163 22q22 0 30.5 -8t8.5 -28v-41q31 24 51 37t63.5 29t87.5 16q55 0 89.5 -12.5t51 -39.5t22 -56t5.5 -75v-102l3 -198q0 -20 18 -24l67 -15q0 -22 -5 -36h-258q-4 19 -4 33l41 18q11 5 18.5 22t7.5 31
l3 169v76q0 72 -21 100t-87 28q-74 0 -151 -36v-168l3 -185q0 -18 3.5 -25.5t14.5 -10.5l81 -17q0 -22 -6 -35h-283z" />
    <glyph glyph-name="o" unicode="o" horiz-adv-x="596" 
d="M291 -8q-251 0 -251 272q0 113 77.5 202.5t182.5 89.5q129 0 192 -67t63 -209q0 -113 -77 -200.5t-187 -87.5zM308 54q39 0 65.5 17.5t39 49.5t17.5 66t5 79q0 231 -144 231q-133 0 -133 -218q0 -225 150 -225z" />
    <glyph glyph-name="p" unicode="p" horiz-adv-x="641" 
d="M45 -294q-4 20 -3 32l36 14q39 16 39 62l4 459v219h-97v39q105 22 165 22q41 0 41 -38v-23q66 62 147 62q112 0 167.5 -65t55.5 -203q0 -82 -23.5 -141.5t-64.5 -91.5t-88.5 -46.5t-103.5 -14.5q-54 0 -83 5l5 -213q0 -22 25 -27l77 -15q2 -20 -5 -36h-294zM323 46
q79 0 118.5 63t39.5 158q0 44 -7.5 82.5t-23 71t-43 51.5t-63.5 19q-56 0 -113 -35v-185l3 -215q44 -10 89 -10z" />
    <glyph glyph-name="q" unicode="q" horiz-adv-x="608" 
d="M310 -294q-3 10 -3 32l51 17q42 15 42 85l2 211q-77 -56 -141 -56q-34 0 -62.5 5.5t-59 22.5t-51.5 45t-34.5 77t-13.5 115q0 133 79 215t190 82t207 -27v-278l5 -459q0 -20 4.5 -27t17.5 -10l66 -13q0 -19 -4 -37h-295zM290 72q55 0 113 20l2 183v209q-46 16 -98 16
q-81 0 -116.5 -60.5t-35.5 -158.5q0 -209 135 -209z" />
    <glyph glyph-name="r" unicode="r" horiz-adv-x="467" 
d="M45 0q-5 22 -4 29l46 22q36 16 36 68l2 155v219h-96v41q98 21 163 21q41 0 41 -37v-52q25 36 67 63t89 27q48 0 76 -14l-25 -95q-38 19 -85 19q-65 0 -120 -36v-156l4 -192q0 -23 14 -25l111 -20q0 -22 -5 -37h-314z" />
    <glyph glyph-name="s" unicode="s" horiz-adv-x="496" 
d="M232 -8q-98 0 -187 40l9 152l38 -1q5 -60 41.5 -99t103.5 -39q48 0 80 20.5t32 60.5q0 27 -29 47.5t-70 37t-82 37t-70 58.5t-29 90q0 74 58 118.5t143 44.5q95 0 169 -39l-17 -132l-30 3q-11 55 -39 85.5t-98 30.5q-96 0 -96 -72q0 -30 30 -53t72.5 -40.5t85.5 -37.5
t73 -55.5t30 -83.5q0 -60 -34.5 -100.5t-81.5 -56.5t-102 -16z" />
    <glyph glyph-name="t" unicode="t" horiz-adv-x="442" 
d="M286 -10q-98 0 -138 34t-39 131l3 337h-80v24l174 142h18v-112h183v-54h-183v-218l3 -132q1 -38 20 -57.5t62 -19.5q57 0 106 12l11 -37q-61 -50 -140 -50z" />
    <glyph glyph-name="u" unicode="u" horiz-adv-x="692" 
d="M263 -8q-50 0 -82 12t-47.5 37.5t-20.5 52t-5 66.5v332h-88v38q98 24 149 24q50 0 50 -45v-232l2 -98q1 -54 14.5 -81t59.5 -27q34 0 81.5 15t72.5 29l3 157v220h-93v37q95 25 152 25q50 0 50 -45v-236l4 -204h100l3 -29q-78 -46 -140 -46q-77 0 -77 83
q-29 -25 -51 -40.5t-59.5 -30t-77.5 -14.5z" />
    <glyph glyph-name="v" unicode="v" horiz-adv-x="566" 
d="M238 -25l-168 465q-16 48 -48 70q-2 20 4 36h218q0 -35 -3 -44h-66l131 -405l124 329q8 20 8 37q0 29 -24 37l-34 13q-2 20 2 33h164q0 -22 -1 -26q-27 -25 -56 -96l-172 -425z" />
    <glyph glyph-name="w" unicode="w" horiz-adv-x="893" 
d="M585 -21l-149 413l-150 -393l-72 -20l-142 451q-17 56 -49 79q0 23 5 37h220l-4 -44h-73l108 -384l152 418l65 20l155 -441l109 337q6 18 -0.5 31.5t-19.5 17.5l-38 12q-1 14 1 33h167q0 -25 -2 -29l-6 -5q-7 -6 -14 -13t-16 -21.5t-15 -33.5l-157 -447z" />
    <glyph glyph-name="x" unicode="x" horiz-adv-x="589" 
d="M26 0q-3 11 -3 30q28 13 55 44l161 187l-148 204q-25 34 -55 49q-2 9 0 32h223q0 -39 -5 -47h-60l116 -166l94 120q23 31 1 45q-17 14 -27 19q-2 19 3 29h169q2 -21 -4 -31q-37 -15 -68 -51l-138 -169l155 -208q21 -28 72 -52q0 -24 -4 -35h-228q-2 13 -2 29l16 6
q19 8 19 31q0 14 -10 28l-89 125l-112 -143q-9 -11 -6.5 -20.5t12.5 -10.5l48 -8q0 -28 -3 -37h-182z" />
    <glyph glyph-name="y" unicode="y" horiz-adv-x="575" 
d="M117 -316l-57 91q64 26 100.5 62t60.5 90l23 49l-164 462q-16 50 -53 74q0 23 4 34h221q0 -35 -3 -44h-66l129 -406l125 332q7 18 7 34q0 30 -23 38l-35 13q-2 21 2 33h166q0 -19 -2 -26q-28 -24 -57 -96l-215 -532q-31 -78 -66 -123.5t-97 -84.5z" />
    <glyph glyph-name="z" unicode="z" horiz-adv-x="520" 
d="M40 0l-17 45l337 413h-221q-8 0 -15.5 -2t-14.5 -7t-12.5 -9.5t-12 -12.5t-9.5 -12t-9.5 -12t-7.5 -10q-13 4 -28 11l38 142h387l10 -57l-322 -401h209q60 0 113 91l32 -10l-30 -169h-427z" />
    <glyph glyph-name="braceleft" unicode="{" horiz-adv-x="375" 
d="M300 -321q-95 -3 -147.5 35t-46.5 128l21 302q3 44 -17.5 73.5t-66.5 30.5v50q92 3 84 96l-20 304q-6 86 42.5 127.5t142.5 40.5h31l-1 -53h-25q-71 0 -101.5 -25.5t-26.5 -83.5l21 -292q8 -104 -80 -138q86 -34 79 -137l-22 -293q-4 -58 26 -85.5t104 -27.5h25l1 -51z
" />
    <glyph glyph-name="bar" unicode="|" horiz-adv-x="275" 
d="M101 -320v1174h65v-1174h-65z" />
    <glyph glyph-name="braceright" unicode="}" horiz-adv-x="375" 
d="M44 -320l1 51h24q74 0 104 27.5t26 85.5l-21 293q-7 103 78 137q-43 17 -63 49t-16 89l20 292q5 58 -26 83.5t-102 25.5h-24l-2 53h32q95 1 143 -40.5t42 -127.5l-21 -304q-7 -93 85 -96v-50q-47 -1 -67 -30.5t-18 -73.5l22 -302q6 -90 -47.5 -128t-147.5 -35z" />
    <glyph glyph-name="asciitilde" unicode="~" horiz-adv-x="537" 
d="M374 283q-54 0 -120.5 27t-101.5 27q-47 0 -86 -27l-28 32q61 81 124 81q52 0 114.5 -28t103.5 -28q48 0 83 30l29 -33q-61 -81 -118 -81z" />
    <glyph glyph-name="uni00A0" unicode="&#xa0;" horiz-adv-x="258" 
 />
    <glyph glyph-name="exclamdown" unicode="&#xa1;" horiz-adv-x="314" 
d="M159 414q-14 0 -51 36.5t-37 50.5q0 13 37 50t51 37q13 0 49.5 -37t36.5 -50q0 -15 -36.5 -51t-49.5 -36zM157 -291l-68 35l32 566h72l33 -566z" />
    <glyph glyph-name="cent" unicode="&#xa2;" horiz-adv-x="542" 
d="M279 -167v158q-130 4 -184.5 66.5t-54.5 210.5q0 105 67 191.5t172 98.5v146h59v-145q144 -7 144 -73q0 -50 -47 -78q-71 93 -134 93q-75 0 -111.5 -48.5t-36.5 -156.5q0 -103 42.5 -164.5t136.5 -61.5q66 0 134 22l13 -34q-54 -52 -141 -64v-161h-59z" />
    <glyph glyph-name="sterling" unicode="&#xa3;" horiz-adv-x="586" 
d="M34 0q-4 16 -4 35l53 16q22 6 30 20.5t11 45.5l18 173h-76v44h81l6 62q8 77 78 146t147 69q59 0 99.5 -16t40.5 -53q0 -29 -38 -56q-3 3 -18.5 16.5t-22.5 19.5t-19.5 15t-22 13t-17.5 4q-61 0 -83 -31.5t-29 -101.5l-9 -87h176v-44h-180l-21 -220l196 12q51 3 88 42
l32 -26q-56 -98 -126 -98h-390z" />
    <glyph glyph-name="currency" unicode="&#xa4;" horiz-adv-x="502" 
d="M77 66l-40 41l68 66q-36 43 -36 107q0 66 35 106l-67 68l40 39l70 -69q49 30 104 30q63 0 104 -29l69 70l41 -42l-66 -67q34 -37 34 -106q0 -67 -36 -108l67 -66l-40 -42l-69 70q-51 -27 -104 -27q-60 0 -103 28zM251 165q57 0 85.5 32t28.5 83q1 50 -28.5 82.5
t-85.5 32.5t-86 -32.5t-30 -82.5t30.5 -82.5t85.5 -32.5z" />
    <glyph glyph-name="yen" unicode="&#xa5;" horiz-adv-x="662" 
d="M255 0l10 112v24h-196v55h196v16q-23 44 -49 88h-147v54h113q-28 45 -73 107q-20 29 -57 39l-3 34q86 25 134 25q21 -24 74 -129t85 -176q131 232 179 299q46 -2 98 -25l-13 -33q-42 -8 -50 -19q-40 -48 -88 -122h124v-54h-160q-45 -68 -51 -79v-25h211v-55h-211v-26
l11 -110h-137z" />
    <glyph glyph-name="brokenbar" unicode="&#xa6;" horiz-adv-x="285" 
d="M111 -320v462h64v-462h-64zM111 392v462h64v-462h-64z" />
    <glyph glyph-name="section" unicode="&#xa7;" horiz-adv-x="558" 
d="M172 -83q-106 0 -106 68q0 35 29 49q1 -1 19 -17.5t35 -30.5t24 -14q49 0 49 84q0 22 -51.5 158t-51.5 166q0 105 77.5 168.5t189.5 63.5q18 0 35 -2.5t36 -8t31 -18.5t12 -32q0 -13 -4.5 -23.5t-10 -16t-17.5 -15.5q-17 16 -48.5 37t-46.5 21q-52 0 -52 -75
q0 -30 56.5 -158.5t56.5 -163.5q0 -106 -80 -173t-182 -67zM283 -20q40 26 56 56.5t16 78.5q0 35 -54.5 176.5t-54.5 166.5q0 51 25 83l-3 4q-73 -41 -73 -122l106 -356q0 -52 -20 -85z" />
    <glyph glyph-name="dieresis" unicode="&#xa8;" horiz-adv-x="432" 
d="M105 668q-10 0 -38.5 28.5t-28.5 38.5q0 11 28.5 39t38.5 28q11 0 39.5 -28.5t28.5 -38.5q0 -9 -28.5 -38t-39.5 -29zM328 668q-11 0 -39 28.5t-28 38.5q0 11 28 39t39 28q10 0 39 -28.5t29 -38.5q0 -9 -28.5 -38t-39.5 -29z" />
    <glyph glyph-name="copyright" unicode="&#xa9;" horiz-adv-x="759" 
d="M396 102q-90 0 -135.5 42t-45.5 132q0 78 50 129t127 51q52 0 103 -22v-73q-12 -1 -25 0q-20 58 -77 58q-104 0 -104 -138q0 -62 31.5 -99.5t83.5 -37.5q44 0 83 14l10 -35q-53 -21 -101 -21zM382 -19q-42 0 -83 9t-81 30.5t-70.5 53.5t-49 82t-18.5 113q0 136 85 214.5
t215 78.5q57 0 108 -16.5t95 -49.5t70 -91.5t26 -135.5q0 -134 -84 -211t-213 -77zM388 19q108 0 176.5 66t68.5 184q0 124 -73.5 189t-177.5 65q-111 0 -182.5 -62t-71.5 -187q0 -62 19.5 -110t47.5 -74.5t65.5 -43.5t67.5 -22t60 -5z" />
    <glyph glyph-name="ordfeminine" unicode="&#xaa;" horiz-adv-x="418" 
d="M297 461q-29 0 -39 13t-12 38q-47 -50 -106 -50q-37 0 -59.5 19t-22.5 55q0 84 120 102q46 8 68 8v45q0 28 -15.5 38.5t-58.5 10.5q-31 0 -81 -12l-11 47q51 20 108 20q24 0 40.5 -2t38.5 -9.5t34 -27t12 -49.5v-80l4 -112h56l4 -25q-12 -10 -37.5 -19.5t-42.5 -9.5z
M169 519q10 0 23.5 3.5t23.5 7t20 7.5l10 4v70q-1 0 -11 -1.5t-24 -3.5t-24 -5q-58 -11 -58 -51q0 -13 10 -22t30 -9zM60 370v49h308v-49h-308z" />
    <glyph glyph-name="guillemotleft" unicode="&#xab;" horiz-adv-x="513" 
d="M187 51q-39 95 -127 221q93 123 135 218l46 -11q-39 -130 -87 -207q59 -117 81 -208q-36 -10 -48 -13zM392 59q-36 88 -124 213q89 114 131 208q10 -1 47 -12q-36 -120 -84 -196q53 -106 78 -200q-36 -10 -48 -13z" />
    <glyph glyph-name="logicalnot" unicode="&#xac;" 
d="M540 130h-87v149h-393v75h480v-224z" />
    <glyph glyph-name="registered" unicode="&#xae;" horiz-adv-x="625" 
d="M430 505q-55 2 -80 27q-22 21 -50 70q-5 -1 -12 -1h-9l2 -91h-59l2 96v148h91q86 0 86 -75q0 -48 -44 -69q20 -31 39 -49q16 -16 39 -27zM315 400q-42 0 -81 11.5t-75 36t-57.5 69t-21.5 104.5q0 105 66 165t168 60q60 0 110 -21t85.5 -73.5t35.5 -130.5q0 -103 -65 -162
t-165 -59zM320 432q82 0 134 49.5t52 139.5q0 94 -55.5 143.5t-135.5 49.5q-86 0 -140 -47t-54 -142q0 -59 21 -100t54.5 -59.5t63.5 -26t60 -7.5zM279 635h15q50 0 50 42q0 22 -10 32t-36 10h-19v-84z" />
    <glyph glyph-name="macron" unicode="&#xaf;" horiz-adv-x="540" 
d="M118 693v65h298v-65h-298z" />
    <glyph glyph-name="macron" unicode="&#x2c9;" horiz-adv-x="540" 
d="M118 693v65h298v-65h-298z" />
    <glyph glyph-name="degree" unicode="&#xb0;" horiz-adv-x="428" 
d="M373 591q0 -64 -48 -107.5t-114 -43.5q-157 0 -157 127q0 64 48 107t112 43q70 0 114.5 -32t44.5 -94zM288 579q0 38 -20.5 60.5t-55.5 22.5q-34 0 -53.5 -22.5t-19.5 -60.5q0 -84 76 -84q73 0 73 84z" />
    <glyph glyph-name="plusminus" unicode="&#xb1;" 
d="M540 0h-480v75h480v-75zM340 404l191 2v-74l-191 2l2 -190h-84l2 190l-191 -2v74l191 -2l-2 190h84z" />
    <glyph glyph-name="twosuperior" unicode="&#xb2;" horiz-adv-x="307" 
d="M25 454v58q45 38 72.5 63.5t59.5 66.5t32 68q0 53 -58 53q-39 0 -76 -24l-28 39q50 48 120 48q62 0 93.5 -30.5t31.5 -81.5q0 -90 -177 -199l187 3v-64h-257z" />
    <glyph glyph-name="threesuperior" unicode="&#xb3;" horiz-adv-x="301" 
d="M131 449q-54 0 -114 26l17 58q48 -30 91 -30q29 0 46.5 14t17.5 41q0 63 -96 64v43q79 5 79 59q0 19 -15 33t-38 14q-37 0 -65 -19l-22 41q44 35 107 35q50 0 83.5 -24t33.5 -69q0 -55 -64 -82q36 -10 59 -32.5t23 -55.5q0 -60 -40.5 -88t-102.5 -28z" />
    <glyph glyph-name="acute" unicode="&#xb4;" horiz-adv-x="568" 
d="M209 621l-22 34q110 82 191 185l62 -74q-132 -104 -231 -145z" />
    <glyph glyph-name="mu" unicode="&#xb5;" horiz-adv-x="671" 
d="M509 -7q-43 0 -64 17.5t-27 53.5q-87 -76 -168 -76q-42 0 -61 8q11 -26 13 -54l7 -236h-125l6 562v278h111l1 -363q1 -66 17 -90.5t59 -24.5q59 0 137 39l1 164v275h110v-273l3 -137q1 -69 56 -69q21 0 53 8l8 -39q-21 -16 -62 -29.5t-75 -13.5z" />
    <glyph glyph-name="paragraph" unicode="&#xb6;" horiz-adv-x="676" 
d="M282 -308q-110 0 -110 69q0 24 23 45q9 -9 42 -33t46 -24q23 0 38 14.5t22 41t9.5 52.5t2.5 61v819h84v-831q0 -92 -44 -140l2 -3q44 9 72.5 53t28.5 95v826h85v-805q0 -57 -32.5 -105t-80.5 -76t-97.5 -43.5t-90.5 -15.5zM265 300q-106 0 -164 55t-58 167q0 215 222 215
h10v-437h-10z" />
    <glyph glyph-name="periodcentered" unicode="&#xb7;" horiz-adv-x="287" 
d="M152 310q-13 0 -48 35.5t-35 48.5t35.5 48t47.5 35q13 0 48 -35t35 -48q0 -12 -34.5 -48t-48.5 -36z" />
    <glyph glyph-name="cedilla" unicode="&#xb8;" horiz-adv-x="453" 
d="M221 -291q-51 0 -99 32l38 66q23 -16 56 -25.5t57 -7.5q36 5 36 27q0 28 -35.5 44.5t-100.5 28.5l57 133h49l-41 -75q64 -14 92.5 -36t28.5 -64q0 -46 -42.5 -84.5t-95.5 -38.5z" />
    <glyph glyph-name="onesuperior" unicode="&#xb9;" horiz-adv-x="236" 
d="M102 454v315h-87v42l174 18v-375h-87z" />
    <glyph glyph-name="ordmasculine" unicode="&#xba;" horiz-adv-x="418" 
d="M205 456q-152 0 -152 164q0 67 46.5 120.5t110.5 53.5q155 0 155 -169q0 -67 -46.5 -118t-113.5 -51zM215 506q44 0 59.5 32t15.5 88q0 120 -86 120q-77 0 -77 -124q0 -116 88 -116zM55 370v49h308v-49h-308z" />
    <glyph glyph-name="guillemotright" unicode="&#xbb;" horiz-adv-x="513" 
d="M119 59q-12 3 -48 13q21 85 77 200q-47 77 -83 196q36 10 46 12q42 -91 132 -208q-88 -125 -124 -213zM323 51q-9 2 -47 13q24 93 81 208q-52 82 -87 207q6 1 24 5.5l22 5.5q42 -95 135 -218q-87 -125 -128 -221z" />
    <glyph glyph-name="onequarter" unicode="&#xbc;" horiz-adv-x="773" 
d="M100 95l-41 42l532 531l41 -41zM120 454v315h-87v42l174 18v-375h-87zM587 0v87h-146l-14 58l116 223h126v-223h61v-58h-61v-87h-82zM481 145h106v208z" />
    <glyph glyph-name="onehalf" unicode="&#xbd;" horiz-adv-x="771" 
d="M473 0v58q45 38 72.5 63.5t59.5 66.5t32 68q0 53 -58 53q-39 0 -76 -24l-28 39q50 48 120 48q62 0 93.5 -30.5t31.5 -81.5q0 -90 -177 -199l187 3v-64h-257zM101 95l-41 42l532 531l41 -41zM120 454v315h-87v42l174 18v-375h-87z" />
    <glyph glyph-name="threequarters" unicode="&#xbe;" horiz-adv-x="788" 
d="M155 449q-54 0 -114 26l17 58q48 -30 91 -30q29 0 46.5 14t17.5 41q0 63 -96 64v43q79 5 79 59q0 19 -15 33t-38 14q-37 0 -65 -19l-22 41q44 35 107 35q50 0 83.5 -24t33.5 -69q0 -55 -64 -82q36 -10 59 -32.5t23 -55.5q0 -60 -40.5 -88t-102.5 -28zM131 95l-41 42
l532 531l41 -41zM602 0v87h-146l-14 58l116 223h126v-223h61v-58h-61v-87h-82zM496 145h106v208z" />
    <glyph glyph-name="questiondown" unicode="&#xbf;" horiz-adv-x="448" 
d="M305 325q31 -40 31 -69l-207 -382q0 -24 29 -49.5t85 -25.5q15 0 28 1.5t26.5 5t22 6.5t27 9.5t28.5 10.5q19 -27 19 -53q0 -73 -126 -73q-96 0 -162 46.5t-66 104.5q0 38 21.5 82.5t52 84.5t61.5 78.5t52.5 75t21.5 62.5q0 11 -6 34t-9 28zM259 586q13 0 49.5 -37
t36.5 -51t-36.5 -50t-49.5 -36q-14 0 -51 36.5t-37 49.5t37 50.5t51 37.5z" />
    <glyph glyph-name="Agrave" unicode="&#xc0;" horiz-adv-x="745" 
d="M22 0q-3 8 -3 30l22 17q27 20 43 58l263 631l82 29l224 -646q18 -51 48 -75l17 -15q0 -17 -5 -29h-285q-3 21 -3 29l67 20q31 9 31 51q0 14 -5 29l-54 176h-234l-70 -180q-21 -55 44 -77l51 -18q0 -17 -4 -30h-229zM251 359h196l-60 198l-24 86h-6l-29 -84zM457 780
q-120 13 -261 72l35 82q108 -72 236 -117z" />
    <glyph glyph-name="Aacute" unicode="&#xc1;" horiz-adv-x="745" 
d="M22 0q-3 8 -3 30l22 17q27 20 43 58l263 631l82 29l224 -646q18 -51 48 -75l17 -15q0 -17 -5 -29h-285q-3 21 -3 29l67 20q31 9 31 51q0 14 -5 29l-54 176h-234l-70 -180q-21 -55 44 -77l51 -18q0 -17 -4 -30h-229zM251 359h196l-60 198l-24 86h-6l-29 -84zM317 780
l-10 37q128 45 236 117l35 -82q-141 -59 -261 -72z" />
    <glyph glyph-name="Acircumflex" unicode="&#xc2;" horiz-adv-x="745" 
d="M22 0q-3 8 -3 30l22 17q27 20 43 58l263 631l82 29l224 -646q18 -51 48 -75l17 -15q0 -17 -5 -29h-285q-3 21 -3 29l67 20q31 9 31 51q0 14 -5 29l-54 176h-234l-70 -180q-21 -55 44 -77l51 -18q0 -17 -4 -30h-229zM251 359h196l-60 198l-24 86h-6l-29 -84zM226 763
l-20 34q22 11 45.5 26.5t41.5 29.5t37.5 31t31 27.5t24.5 23.5l14 14q116 -116 180 -148l-26 -38q-42 12 -97 39.5t-71 38.5q-1 -1 -12 -7.5t-25 -14t-32.5 -17.5t-42.5 -20.5t-48 -18.5z" />
    <glyph glyph-name="Atilde" unicode="&#xc3;" horiz-adv-x="745" 
d="M22 0q-3 8 -3 30l22 17q27 20 43 58l263 631l82 29l224 -646q18 -51 48 -75l17 -15q0 -17 -5 -29h-285q-3 21 -3 29l67 20q31 9 31 51q0 14 -5 29l-54 176h-234l-70 -180q-21 -55 44 -77l51 -18q0 -17 -4 -30h-229zM251 359h196l-60 198l-24 86h-6l-29 -84zM466 786
q-24 0 -93.5 22t-87.5 22q-34 0 -64 -24l-20 21q53 82 102 82q27 0 101 -20t93 -20q29 0 53 18l20 -21q-43 -80 -104 -80z" />
    <glyph glyph-name="Adieresis" unicode="&#xc4;" horiz-adv-x="745" 
d="M22 0q-3 8 -3 30l22 17q27 20 43 58l263 631l82 29l224 -646q18 -51 48 -75l17 -15q0 -17 -5 -29h-285q-3 21 -3 29l67 20q31 9 31 51q0 14 -5 29l-54 176h-234l-70 -180q-21 -55 44 -77l51 -18q0 -17 -4 -30h-229zM251 359h196l-60 198l-24 86h-6l-29 -84zM277 775
q-10 0 -39 29t-29 39q0 11 29 39.5t39 28.5t39.5 -29t29.5 -39q0 -9 -29 -38.5t-40 -29.5zM495 775q-10 0 -38.5 29t-28.5 39q0 11 29 39.5t38 28.5q10 0 40 -29t30 -39q0 -9 -29.5 -38.5t-40.5 -29.5z" />
    <glyph glyph-name="Aring" unicode="&#xc5;" horiz-adv-x="745" 
d="M22 0q-3 8 -3 30l22 17q27 20 43 58l256 612q-75 19 -75 96q0 54 36.5 84t87.5 30q125 0 125 -104q0 -34 -20.5 -60t-51.5 -39l211 -605q18 -51 48 -75l17 -15q0 -17 -5 -29h-285q-3 21 -3 29l67 20q31 9 31 51q0 14 -5 29l-54 176h-234l-70 -180q-21 -55 44 -77l51 -18
q0 -17 -4 -30h-229zM391 744q27 0 41 21.5t14 52.5q0 34 -16 54.5t-43 20.5q-54 0 -54 -73q0 -34 15 -55t43 -21zM251 359h196l-60 198l-24 86h-6l-29 -84z" />
    <glyph glyph-name="AE" unicode="&#xc6;" horiz-adv-x="1008" 
d="M9 0q-3 9 -3 30l22 15q37 24 61 60l379 632h462v-147q-5 -2 -12 -2.5t-15 -0.5h-12q-16 88 -84 89l-198 7v-285l269 5v-66l-269 5v-64l4 -223l185 4q95 1 139 102l33 -8l-20 -153h-534q-4 25 -3 34l38 16q42 18 42 59l3 171v63h-197l-129 -218q-31 -53 44 -77l51 -18
q0 -17 -4 -30h-252zM331 397h165v286z" />
    <glyph glyph-name="Ccedilla" unicode="&#xc7;" horiz-adv-x="682" 
d="M387 -291q-51 0 -99 32l38 66q23 -16 56 -25.5t57 -7.5q36 5 36 27q0 28 -35.5 44.5t-100.5 28.5l51 120q-166 8 -253.5 101t-87.5 269q0 151 108 268t265 117q53 0 96.5 -7.5t60.5 -13.5t50 -20v-149h-34q-45 124 -177 124q-114 0 -181.5 -74t-67.5 -227
q0 -143 76.5 -229.5t197.5 -86.5q96 0 172 30l17 -50q-95 -51 -195 -53l-33 -61q64 -14 92.5 -36t28.5 -64q0 -46 -42.5 -84.5t-95.5 -38.5z" />
    <glyph glyph-name="Egrave" unicode="&#xc8;" horiz-adv-x="650" 
d="M30 0q-4 25 -3 34l60 16q40 12 42 59l2 171v362q0 36 -29 46l-67 23q-1 10 4 26h527v-147q-7 -2 -23 -2l-16 -1q-16 88 -84 89l-199 7v-285l269 5v-66l-269 5v-64l5 -223l184 4q97 1 139 102l34 -8l-21 -153h-555zM420 780q-120 13 -261 72l35 82q108 -72 236 -117z" />
    <glyph glyph-name="Eacute" unicode="&#xc9;" horiz-adv-x="650" 
d="M249 780l-10 37q128 45 236 117l35 -82q-141 -59 -261 -72zM30 0q-4 25 -3 34l60 16q40 12 42 59l2 171v362q0 36 -29 46l-67 23q-1 10 4 26h527v-147q-7 -2 -23 -2l-16 -1q-16 88 -84 89l-199 7v-285l269 5v-66l-269 5v-64l5 -223l184 4q97 1 139 102l34 -8l-21 -153
h-555z" />
    <glyph glyph-name="Ecircumflex" unicode="&#xca;" horiz-adv-x="650" 
d="M171 764l-20 34q22 11 45.5 26.5t41.5 29.5t37.5 31t31 27.5t24.5 23.5l14 14q116 -116 180 -148l-26 -38q-42 12 -97 39.5t-71 38.5q-1 -1 -12 -7.5t-25 -14t-32.5 -17.5t-42.5 -20.5t-48 -18.5zM30 0q-4 25 -3 34l60 16q40 12 42 59l2 171v362q0 36 -29 46l-67 23
q-1 10 4 26h527v-147q-7 -2 -23 -2l-16 -1q-16 88 -84 89l-199 7v-285l269 5v-66l-269 5v-64l5 -223l184 4q97 1 139 102l34 -8l-21 -153h-555z" />
    <glyph glyph-name="Edieresis" unicode="&#xcb;" horiz-adv-x="650" 
d="M221 775q-10 0 -39 29t-29 39q0 11 29 39.5t39 28.5t39.5 -29t29.5 -39q0 -9 -29 -38.5t-40 -29.5zM439 775q-10 0 -38.5 29t-28.5 39q0 11 29 39.5t38 28.5q10 0 40 -29t30 -39q0 -9 -29.5 -38.5t-40.5 -29.5zM30 0q-4 25 -3 34l60 16q40 12 42 59l2 171v362
q0 36 -29 46l-67 23q-1 10 4 26h527v-147q-7 -2 -23 -2l-16 -1q-16 88 -84 89l-199 7v-285l269 5v-66l-269 5v-64l5 -223l184 4q97 1 139 102l34 -8l-21 -153h-555z" />
    <glyph glyph-name="Igrave" unicode="&#xcc;" horiz-adv-x="370" 
d="M36 0q-4 18 -3 30l51 19q37 14 39 67l2 162v343q0 58 -46 73l-44 15q-2 12 2 28h285q4 -18 3 -30l-42 -11q-45 -10 -45 -73v-345l3 -185q1 -21 7 -29.5t23 -12.5l71 -17q0 -20 -5 -34h-301zM277 780q-120 13 -261 72l35 82q108 -72 236 -117z" />
    <glyph glyph-name="Iacute" unicode="&#xcd;" horiz-adv-x="370" 
d="M36 0q-4 18 -3 30l51 19q37 14 39 67l2 162v343q0 58 -46 73l-44 15q-2 12 2 28h285q4 -18 3 -30l-42 -11q-45 -10 -45 -73v-345l3 -185q1 -21 7 -29.5t23 -12.5l71 -17q0 -20 -5 -34h-301zM83 780l-10 37q128 45 236 117l35 -82q-141 -59 -261 -72z" />
    <glyph glyph-name="Icircumflex" unicode="&#xce;" horiz-adv-x="370" 
d="M36 0q-4 18 -3 30l51 19q37 14 39 67l2 162v343q0 58 -46 73l-44 15q-2 12 2 28h285q4 -18 3 -30l-42 -11q-45 -10 -45 -73v-345l3 -185q1 -21 7 -29.5t23 -12.5l71 -17q0 -20 -5 -34h-301zM13 764l-20 34q22 11 45.5 26.5t41.5 29.5t37.5 31t31 27.5t24.5 23.5l14 14
q116 -116 180 -148l-26 -38q-42 12 -97 39.5t-71 38.5q-1 -1 -12 -7.5t-25 -14t-32.5 -17.5t-42.5 -20.5t-48 -18.5z" />
    <glyph glyph-name="Idieresis" unicode="&#xcf;" horiz-adv-x="370" 
d="M36 0q-4 18 -3 30l51 19q37 14 39 67l2 162v343q0 58 -46 73l-44 15q-2 12 2 28h285q4 -18 3 -30l-42 -11q-45 -10 -45 -73v-345l3 -185q1 -21 7 -29.5t23 -12.5l71 -17q0 -20 -5 -34h-301zM78 775q-10 0 -39 29t-29 39q0 11 29 39.5t39 28.5t39.5 -29t29.5 -39
q0 -9 -29 -38.5t-40 -29.5zM296 775q-10 0 -38.5 29t-28.5 39q0 11 29 39.5t38 28.5q10 0 40 -29t30 -39q0 -9 -29.5 -38.5t-40.5 -29.5z" />
    <glyph glyph-name="Eth" unicode="&#xd0;" horiz-adv-x="794" 
d="M30 0q-4 25 -3 33l61 16q38 11 40 65l2 166v71h-90v54h90v238q0 37 -31 45l-64 20q0 17 4 29h287q75 0 135 -9.5t113.5 -34t89 -64t56 -101t20.5 -143.5q0 -181 -111 -283t-297 -102h-302zM250 55h93q133 0 200 81t67 229q0 147 -74.5 231t-212.5 84h-79v-275h156v-54
h-156v-73z" />
    <glyph glyph-name="Ntilde" unicode="&#xd1;" horiz-adv-x="835" 
d="M623 -24l-426 626h-6l7 -83v-243l3 -176q1 -19 5.5 -27t19.5 -13l86 -28q0 -17 -5 -32h-276q-5 23 -4 30l55 17q48 13 50 89l2 140v359q0 41 -30 53l-61 21q-2 16 2 28h206l393 -568h8l-9 108v349q0 19 -11 38t-27 25l-61 20q0 17 4 28h254q4 -20 4 -26l-56 -17
q-19 -5 -30.5 -24t-11.5 -42v-624zM504 786q-24 0 -93.5 22t-87.5 22q-34 0 -64 -24l-20 21q53 82 102 82q27 0 101 -20t93 -20q29 0 53 18l20 -21q-43 -80 -104 -80z" />
    <glyph glyph-name="Ograve" unicode="&#xd2;" horiz-adv-x="824" 
d="M401 -12q-170 0 -261 92t-91 257q0 172 107 291.5t270 119.5q172 0 260.5 -93t88.5 -255q0 -171 -103 -291.5t-271 -120.5zM407 51q122 0 178.5 87t56.5 231q0 141 -57 229.5t-171 88.5q-80 0 -134 -43.5t-76.5 -112.5t-22.5 -160q0 -140 56.5 -230t169.5 -90zM513 780
q-120 13 -261 72l35 82q108 -72 236 -117z" />
    <glyph glyph-name="Oacute" unicode="&#xd3;" horiz-adv-x="824" 
d="M322 780l-10 37q128 45 236 117l35 -82q-141 -59 -261 -72zM401 -12q-170 0 -261 92t-91 257q0 172 107 291.5t270 119.5q172 0 260.5 -93t88.5 -255q0 -171 -103 -291.5t-271 -120.5zM407 51q122 0 178.5 87t56.5 231q0 141 -57 229.5t-171 88.5q-80 0 -134 -43.5
t-76.5 -112.5t-22.5 -160q0 -140 56.5 -230t169.5 -90z" />
    <glyph glyph-name="Ocircumflex" unicode="&#xd4;" horiz-adv-x="824" 
d="M257 764l-20 34q22 11 45.5 26.5t41.5 29.5t37.5 31t31 27.5t24.5 23.5l14 14q116 -116 180 -148l-26 -38q-42 12 -97 39.5t-71 38.5q-1 -1 -12 -7.5t-25 -14t-32.5 -17.5t-42.5 -20.5t-48 -18.5zM401 -12q-170 0 -261 92t-91 257q0 172 107 291.5t270 119.5
q172 0 260.5 -93t88.5 -255q0 -171 -103 -291.5t-271 -120.5zM407 51q122 0 178.5 87t56.5 231q0 141 -57 229.5t-171 88.5q-80 0 -134 -43.5t-76.5 -112.5t-22.5 -160q0 -140 56.5 -230t169.5 -90z" />
    <glyph glyph-name="Otilde" unicode="&#xd5;" horiz-adv-x="824" 
d="M401 -12q-170 0 -261 92t-91 257q0 172 107 291.5t270 119.5q172 0 260.5 -93t88.5 -255q0 -171 -103 -291.5t-271 -120.5zM407 51q122 0 178.5 87t56.5 231q0 141 -57 229.5t-171 88.5q-80 0 -134 -43.5t-76.5 -112.5t-22.5 -160q0 -140 56.5 -230t169.5 -90zM499 786
q-24 0 -93.5 22t-87.5 22q-34 0 -64 -24l-20 21q53 82 102 82q27 0 101 -20t93 -20q29 0 53 18l20 -21q-43 -80 -104 -80z" />
    <glyph glyph-name="Odieresis" unicode="&#xd6;" horiz-adv-x="824" 
d="M305 775q-10 0 -39 29t-29 39q0 11 29 39.5t39 28.5t39.5 -29t29.5 -39q0 -9 -29 -38.5t-40 -29.5zM523 775q-10 0 -38.5 29t-28.5 39q0 11 29 39.5t38 28.5q10 0 40 -29t30 -39q0 -9 -29.5 -38.5t-40.5 -29.5zM401 -12q-170 0 -261 92t-91 257q0 172 107 291.5
t270 119.5q172 0 260.5 -93t88.5 -255q0 -171 -103 -291.5t-271 -120.5zM407 51q122 0 178.5 87t56.5 231q0 141 -57 229.5t-171 88.5q-80 0 -134 -43.5t-76.5 -112.5t-22.5 -160q0 -140 56.5 -230t169.5 -90z" />
    <glyph glyph-name="multiply" unicode="&#xd7;" 
d="M114 31l-58 50l194 221l-193 221l57 50l186 -213l186 213l57 -50l-194 -221l195 -221l-58 -50l-186 212z" />
    <glyph glyph-name="Oslash" unicode="&#xd8;" horiz-adv-x="823" 
d="M66 -21l-35 33q30 29 90 89q-72 89 -72 236q0 172 107 291.5t270 119.5q157 0 246 -80q59 66 67 76l36 -32q-12 -14 -36.5 -41.5t-33.5 -37.5q70 -88 70 -233q0 -171 -103 -291.5t-271 -120.5q-153 0 -245 78q-14 -13 -29 -28t-33 -32t-28 -27zM213 191q211 211 381 393
q-60 103 -180 103q-80 0 -134 -43.5t-76.5 -112.5t-22.5 -160q0 -104 32 -180zM407 51q122 0 178.5 87t56.5 231q0 97 -27 167q-190 -203 -379 -391q59 -94 171 -94z" />
    <glyph glyph-name="Ugrave" unicode="&#xd9;" horiz-adv-x="795" 
d="M396 -12q-46 0 -84 5.5t-77 22.5t-65.5 44.5t-43.5 74.5t-17 109v391q0 46 -30 55l-60 20q0 11 4 27h293q3 -22 2 -31l-60 -14q-27 -6 -27 -34v-411q0 -104 56.5 -153t131.5 -49q178 0 178 226v356q0 53 -57 70l-42 13q0 22 1 27h266q3 -15 3 -29l-50 -16
q-28 -11 -28 -44v-377q0 -59 -18.5 -108t-48.5 -81t-69 -53.5t-79 -31t-79 -9.5zM501 780q-120 13 -261 72l35 82q108 -72 236 -117z" />
    <glyph glyph-name="Uacute" unicode="&#xda;" horiz-adv-x="795" 
d="M329 780l-10 37q128 45 236 117l35 -82q-141 -59 -261 -72zM396 -12q-46 0 -84 5.5t-77 22.5t-65.5 44.5t-43.5 74.5t-17 109v391q0 46 -30 55l-60 20q0 11 4 27h293q3 -22 2 -31l-60 -14q-27 -6 -27 -34v-411q0 -104 56.5 -153t131.5 -49q178 0 178 226v356q0 53 -57 70
l-42 13q0 22 1 27h266q3 -15 3 -29l-50 -16q-28 -11 -28 -44v-377q0 -59 -18.5 -108t-48.5 -81t-69 -53.5t-79 -31t-79 -9.5z" />
    <glyph glyph-name="Ucircumflex" unicode="&#xdb;" horiz-adv-x="795" 
d="M251 764l-20 34q22 11 45.5 26.5t41.5 29.5t37.5 31t31 27.5t24.5 23.5l14 14q116 -116 180 -148l-26 -38q-42 12 -97 39.5t-71 38.5q-1 -1 -12 -7.5t-25 -14t-32.5 -17.5t-42.5 -20.5t-48 -18.5zM396 -12q-46 0 -84 5.5t-77 22.5t-65.5 44.5t-43.5 74.5t-17 109v391
q0 46 -30 55l-60 20q0 11 4 27h293q3 -22 2 -31l-60 -14q-27 -6 -27 -34v-411q0 -104 56.5 -153t131.5 -49q178 0 178 226v356q0 53 -57 70l-42 13q0 22 1 27h266q3 -15 3 -29l-50 -16q-28 -11 -28 -44v-377q0 -59 -18.5 -108t-48.5 -81t-69 -53.5t-79 -31t-79 -9.5z" />
    <glyph glyph-name="Udieresis" unicode="&#xdc;" horiz-adv-x="795" 
d="M298 775q-10 0 -39 29t-29 39q0 11 29 39.5t39 28.5t39.5 -29t29.5 -39q0 -9 -29 -38.5t-40 -29.5zM516 775q-10 0 -38.5 29t-28.5 39q0 11 29 39.5t38 28.5q10 0 40 -29t30 -39q0 -9 -29.5 -38.5t-40.5 -29.5zM396 -12q-46 0 -84 5.5t-77 22.5t-65.5 44.5t-43.5 74.5
t-17 109v391q0 46 -30 55l-60 20q0 11 4 27h293q3 -22 2 -31l-60 -14q-27 -6 -27 -34v-411q0 -104 56.5 -153t131.5 -49q178 0 178 226v356q0 53 -57 70l-42 13q0 22 1 27h266q3 -15 3 -29l-50 -16q-28 -11 -28 -44v-377q0 -59 -18.5 -108t-48.5 -81t-69 -53.5t-79 -31
t-79 -9.5z" />
    <glyph glyph-name="Yacute" unicode="&#xdd;" horiz-adv-x="679" 
d="M177 0q-4 21 -3 36l60 16q18 5 29.5 20.5t11.5 38.5l3 186l-203 341q-7 11 -14 20.5t-16 18.5t-13.5 13t-15.5 13t-13 10q0 17 2 24h264q4 -18 3 -28l-47 -17q-21 -8 -21 -34q0 -22 12 -43l143 -262l148 265q11 24 4 41t-23 26l-51 25q-2 15 2 27h223q4 -16 4 -26
q-19 -9 -29.5 -15.5t-23.5 -18.5t-22 -28l-200 -343l3 -202q0 -41 29 -48l77 -21q0 -17 -5 -35h-318zM260 780l-10 37q128 45 236 117l35 -82q-141 -59 -261 -72z" />
    <glyph glyph-name="Thorn" unicode="&#xde;" horiz-adv-x="651" 
d="M344 0h-301q-4 18 -3 30l51 19q37 14 39 67l2 162v343q0 58 -46 73l-44 15q-2 12 2 28h286q3 -19 2 -30l-42 -11q-28 -7 -37 -37q-7 -14 -7 -52h146q111 0 173.5 -53t62.5 -162q0 -104 -74.5 -173.5t-210.5 -69.5h-33v49l24 1q170 8 170 172q0 75 -39 126.5t-119 52.5
l-100 2v-274l3 -185q0 -21 6 -29.5t23 -12.5l71 -17q0 -20 -5 -34z" />
    <glyph glyph-name="germandbls" unicode="&#xdf;" horiz-adv-x="748" 
d="M489 -11q-96 0 -178 40l9 152l38 -1q10 -139 137 -139q47 0 79.5 21t32.5 61q0 27 -27.5 48t-66.5 38t-78.5 38.5t-67 60t-27.5 90.5q0 36 15 67.5t37 55.5t44 46.5t37 50t15 55.5q0 62 -33 101t-96 39q-126 0 -126 -141v-396l7 -276h-203q-3 14 -3 30l42 16q44 16 44 65
l2 165v216h-80v37l80 17v98q0 90 73.5 158t171.5 68q107 0 169.5 -46t62.5 -135q0 -37 -18.5 -69t-45.5 -54.5t-53.5 -42.5t-45 -42t-18.5 -43q0 -29 29 -52t70 -41.5t82.5 -40t70.5 -58t29 -84.5q0 -88 -61.5 -130.5t-148.5 -42.5z" />
    <glyph glyph-name="agrave" unicode="&#xe0;" horiz-adv-x="587" 
d="M170 -8q-60 0 -97 33t-37 90q0 37 14.5 65t36 45t54.5 30t61 18.5t65 10.5l86 11v87q0 55 -31.5 78.5t-99.5 23.5q-58 0 -135 -21l-13 39q106 55 190 55q29 0 51 -2t51 -10.5t48.5 -23.5t33 -44t13.5 -69v-135l7 -204h95l5 -28q-17 -17 -59.5 -32.5t-70.5 -15.5
q-48 0 -64.5 23t-18.5 66q-81 -90 -185 -90zM221 76q62 0 132 34v140l-71 -11q-133 -19 -133 -97q0 -27 18.5 -46.5t53.5 -19.5zM360 621q-100 41 -232 145l62 74q85 -106 191 -185z" />
    <glyph glyph-name="aacute" unicode="&#xe1;" horiz-adv-x="587" 
d="M170 -8q-60 0 -97 33t-37 90q0 37 14.5 65t36 45t54.5 30t61 18.5t65 10.5l86 11v87q0 55 -31.5 78.5t-99.5 23.5q-58 0 -135 -21l-13 39q106 55 190 55q29 0 51 -2t51 -10.5t48.5 -23.5t33 -44t13.5 -69v-135l7 -204h95l5 -28q-17 -17 -59.5 -32.5t-70.5 -15.5
q-48 0 -64.5 23t-18.5 66q-81 -90 -185 -90zM221 76q62 0 132 34v140l-71 -11q-133 -19 -133 -97q0 -27 18.5 -46.5t53.5 -19.5zM202 621l-22 34q110 82 191 185l62 -74q-132 -104 -231 -145z" />
    <glyph glyph-name="acircumflex" unicode="&#xe2;" horiz-adv-x="587" 
d="M170 -8q-60 0 -97 33t-37 90q0 37 14.5 65t36 45t54.5 30t61 18.5t65 10.5l86 11v87q0 55 -31.5 78.5t-99.5 23.5q-58 0 -135 -21l-13 39q106 55 190 55q29 0 51 -2t51 -10.5t48.5 -23.5t33 -44t13.5 -69v-135l7 -204h95l5 -28q-17 -17 -59.5 -32.5t-70.5 -15.5
q-48 0 -64.5 23t-18.5 66q-81 -90 -185 -90zM221 76q62 0 132 34v140l-71 -11q-133 -19 -133 -97q0 -27 18.5 -46.5t53.5 -19.5zM408 614q-58 30 -143 106q-90 -77 -135 -106l-25 31q98 84 174 188q86 -117 163 -180z" />
    <glyph glyph-name="atilde" unicode="&#xe3;" horiz-adv-x="587" 
d="M170 -8q-60 0 -97 33t-37 90q0 37 14.5 65t36 45t54.5 30t61 18.5t65 10.5l86 11v87q0 55 -31.5 78.5t-99.5 23.5q-58 0 -135 -21l-13 39q106 55 190 55q29 0 51 -2t51 -10.5t48.5 -23.5t33 -44t13.5 -69v-135l7 -204h95l5 -28q-17 -17 -59.5 -32.5t-70.5 -15.5
q-48 0 -64.5 23t-18.5 66q-81 -90 -185 -90zM221 76q62 0 132 34v140l-71 -11q-133 -19 -133 -97q0 -27 18.5 -46.5t53.5 -19.5zM356 658q-24 0 -93.5 21.5t-87.5 21.5q-36 0 -64 -24l-20 21q54 83 102 83q27 0 101 -20.5t93 -20.5q27 0 52 18l20 -21q-15 -30 -41.5 -54.5
t-61.5 -24.5z" />
    <glyph glyph-name="adieresis" unicode="&#xe4;" horiz-adv-x="587" 
d="M170 -8q-60 0 -97 33t-37 90q0 37 14.5 65t36 45t54.5 30t61 18.5t65 10.5l86 11v87q0 55 -31.5 78.5t-99.5 23.5q-58 0 -135 -21l-13 39q106 55 190 55q29 0 51 -2t51 -10.5t48.5 -23.5t33 -44t13.5 -69v-135l7 -204h95l5 -28q-17 -17 -59.5 -32.5t-70.5 -15.5
q-48 0 -64.5 23t-18.5 66q-81 -90 -185 -90zM221 76q62 0 132 34v140l-71 -11q-133 -19 -133 -97q0 -27 18.5 -46.5t53.5 -19.5zM159 668q-10 0 -38.5 28.5t-28.5 38.5q0 11 28.5 39t38.5 28q11 0 39.5 -28.5t28.5 -38.5q0 -9 -28.5 -38t-39.5 -29zM382 668q-11 0 -39 28.5
t-28 38.5q0 11 28 39t39 28q10 0 39 -28.5t29 -38.5q0 -9 -28.5 -38t-39.5 -29z" />
    <glyph glyph-name="aring" unicode="&#xe5;" horiz-adv-x="587" 
d="M170 -8q-60 0 -97 33t-37 90q0 37 14.5 65t36 45t54.5 30t61 18.5t65 10.5l86 11v87q0 55 -31.5 78.5t-99.5 23.5q-58 0 -135 -21l-13 39q106 55 190 55q29 0 51 -2t51 -10.5t48.5 -23.5t33 -44t13.5 -69v-135l7 -204h95l5 -28q-17 -17 -59.5 -32.5t-70.5 -15.5
q-48 0 -64.5 23t-18.5 66q-81 -90 -185 -90zM221 76q62 0 132 34v140l-71 -11q-133 -19 -133 -97q0 -27 18.5 -46.5t53.5 -19.5zM279 622q-17 0 -32.5 2.5t-40 11t-39.5 31.5t-15 57q0 54 36.5 84t87.5 30q125 0 125 -104q0 -49 -39 -80.5t-83 -31.5zM278 655q27 0 42.5 21
t15.5 53q0 33 -17 54t-44 21q-28 0 -43 -20t-15 -53q0 -35 16.5 -55.5t44.5 -20.5z" />
    <glyph glyph-name="ae" unicode="&#xe6;" horiz-adv-x="864" 
d="M620 -8q-90 0 -148.5 24t-87.5 82q-110 -106 -214 -106q-60 0 -97 33t-37 90q0 40 16.5 70.5t47 48.5t62 28.5t72.5 16.5q48 7 119 14v93q0 52 -31 74t-100 22q-62 0 -135 -20l-13 39q99 56 190 56q139 0 176 -69q71 71 169 71q110 0 163 -68t53 -188v-26l-360 -21
q10 -182 192 -182q68 0 144 17l14 -36q-30 -28 -83.5 -45.5t-111.5 -17.5zM218 76q58 0 155 46q-19 57 -21 124q-55 -2 -103 -14q-100 -23 -100 -90q0 -27 17 -46.5t52 -19.5zM462 304l241 23q0 180 -108 180q-128 0 -133 -203z" />
    <glyph glyph-name="ccedilla" unicode="&#xe7;" horiz-adv-x="510" 
d="M259 -291q-51 0 -99 32l38 66q23 -16 56 -25.5t57 -7.5q36 5 36 27q0 28 -35.5 44.5t-100.5 28.5l50 118q-118 6 -169.5 69.5t-51.5 205.5q0 114 76.5 203.5t192.5 89.5q27 0 53.5 -3t55.5 -10t46.5 -23t17.5 -38q0 -50 -47 -78q-70 92 -134 92q-75 0 -111.5 -48.5
t-36.5 -156.5q0 -102 42 -163.5t137 -61.5q66 0 134 22l13 -34q-61 -61 -171 -66l-32 -60q64 -14 92.5 -36t28.5 -64q0 -46 -42.5 -84.5t-95.5 -38.5z" />
    <glyph glyph-name="egrave" unicode="&#xe8;" horiz-adv-x="553" 
d="M310 -9q-139 0 -204.5 59t-65.5 209q0 125 73.5 213t187.5 88q109 0 161 -71t52 -192v-26h-362q6 -112 55.5 -155t138.5 -43q67 0 145 19l14 -38q-30 -28 -83.5 -45.5t-111.5 -17.5zM152 321h240q0 89 -24 138t-86 49q-56 0 -92.5 -47t-37.5 -140zM369 621
q-100 41 -232 145l62 74q85 -106 191 -185z" />
    <glyph glyph-name="eacute" unicode="&#xe9;" horiz-adv-x="553" 
d="M213 621l-22 34q110 82 191 185l62 -74q-132 -104 -231 -145zM310 -9q-139 0 -204.5 59t-65.5 209q0 125 73.5 213t187.5 88q109 0 161 -71t52 -192v-26h-362q6 -112 55.5 -155t138.5 -43q67 0 145 19l14 -38q-30 -28 -83.5 -45.5t-111.5 -17.5zM152 321h240
q0 89 -24 138t-86 49q-56 0 -92.5 -47t-37.5 -140z" />
    <glyph glyph-name="ecircumflex" unicode="&#xea;" horiz-adv-x="553" 
d="M426 614q-58 30 -143 106q-90 -77 -135 -106l-25 31q98 84 174 188q86 -117 163 -180zM310 -9q-139 0 -204.5 59t-65.5 209q0 125 73.5 213t187.5 88q109 0 161 -71t52 -192v-26h-362q6 -112 55.5 -155t138.5 -43q67 0 145 19l14 -38q-30 -28 -83.5 -45.5t-111.5 -17.5z
M152 321h240q0 89 -24 138t-86 49q-56 0 -92.5 -47t-37.5 -140z" />
    <glyph glyph-name="edieresis" unicode="&#xeb;" horiz-adv-x="553" 
d="M168 668q-10 0 -38.5 28.5t-28.5 38.5q0 11 28.5 39t38.5 28q11 0 39.5 -28.5t28.5 -38.5q0 -9 -28.5 -38t-39.5 -29zM391 668q-11 0 -39 28.5t-28 38.5q0 11 28 39t39 28q10 0 39 -28.5t29 -38.5q0 -9 -28.5 -38t-39.5 -29zM310 -9q-139 0 -204.5 59t-65.5 209
q0 125 73.5 213t187.5 88q109 0 161 -71t52 -192v-26h-362q6 -112 55.5 -155t138.5 -43q67 0 145 19l14 -38q-30 -28 -83.5 -45.5t-111.5 -17.5zM152 321h240q0 89 -24 138t-86 49q-56 0 -92.5 -47t-37.5 -140z" />
    <glyph glyph-name="igrave" unicode="&#xec;" horiz-adv-x="369" 
d="M41 0q-4 28 -4 31l62 21q12 4 20.5 19t9.5 31l3 171v219h-98v42q110 22 164 22q23 0 33.5 -9t10.5 -31v-243l2 -192q0 -25 17 -28l81 -17q0 -21 -5 -36h-296zM236 621q-100 41 -232 145l62 74q85 -106 191 -185z" />
    <glyph glyph-name="iacute" unicode="&#xed;" horiz-adv-x="369" 
d="M121 621l-22 34q110 82 191 185l62 -74q-132 -104 -231 -145zM41 0q-4 28 -4 31l62 21q12 4 20.5 19t9.5 31l3 171v219h-98v42q110 22 164 22q23 0 33.5 -9t10.5 -31v-243l2 -192q0 -25 17 -28l81 -17q0 -21 -5 -36h-296z" />
    <glyph glyph-name="icircumflex" unicode="&#xee;" horiz-adv-x="369" 
d="M315 614q-58 30 -143 106q-90 -77 -135 -106l-25 31q98 84 174 188q85 -117 163 -180zM41 0q-4 28 -4 31l62 21q12 4 20.5 19t9.5 31l3 171v219h-98v42q110 22 164 22q23 0 33.5 -9t10.5 -31v-243l2 -192q0 -25 17 -28l81 -17q0 -21 -5 -36h-296z" />
    <glyph glyph-name="idieresis" unicode="&#xef;" horiz-adv-x="369" 
d="M72 668q-10 0 -38.5 28.5t-28.5 38.5q0 11 28.5 39t38.5 28q11 0 39.5 -28.5t28.5 -38.5q0 -9 -28.5 -38t-39.5 -29zM295 668q-11 0 -39 28.5t-28 38.5q0 11 28 39t39 28q10 0 39 -28.5t29 -38.5q0 -9 -28.5 -38t-39.5 -29zM41 0q-4 28 -4 31l62 21q12 4 20.5 19t9.5 31
l3 171v219h-98v42q110 22 164 22q23 0 33.5 -9t10.5 -31v-243l2 -192q0 -25 17 -28l81 -17q0 -21 -5 -36h-296z" />
    <glyph glyph-name="eth" unicode="&#xf0;" horiz-adv-x="606" 
d="M291 -7q-251 0 -251 271q0 112 77.5 201.5t182.5 89.5q67 0 111 -17q-17 76 -55 143l-145 -52l-16 49l134 48q-34 47 -92 98l36 42q78 -54 129 -113l145 53l17 -48l-128 -47q119 -169 119 -431q1 -112 -76.5 -199.5t-187.5 -87.5zM308 55q39 0 65.5 17t39 49.5t17.5 66
t5 78.5q0 37 -3 67.5t-12.5 62t-25 52.5t-42 34.5t-61.5 13.5q-133 0 -133 -217q0 -224 150 -224z" />
    <glyph glyph-name="ntilde" unicode="&#xf1;" horiz-adv-x="710" 
d="M46 0q-3 24 -3 29l47 19q31 12 31 59l2 166v219h-94v39q108 22 163 22q22 0 30.5 -8t8.5 -28v-41q31 24 51 37t63.5 29t87.5 16q55 0 89.5 -12.5t51 -39.5t22 -56t5.5 -75v-102l3 -198q0 -20 18 -24l67 -15q0 -22 -5 -36h-258q-4 19 -4 33l41 18q11 5 18.5 22t7.5 31
l3 169v76q0 72 -21 100t-87 28q-74 0 -151 -36v-168l3 -185q0 -18 3.5 -25.5t14.5 -10.5l81 -17q0 -22 -6 -35h-283zM436 658q-24 0 -93.5 21.5t-87.5 21.5q-36 0 -64 -24l-20 21q54 83 102 83q27 0 101 -20.5t93 -20.5q27 0 52 18l20 -21q-15 -30 -41.5 -54.5t-61.5 -24.5z
" />
    <glyph glyph-name="ograve" unicode="&#xf2;" horiz-adv-x="596" 
d="M291 -8q-251 0 -251 272q0 113 77.5 202.5t182.5 89.5q129 0 192 -67t63 -209q0 -113 -77 -200.5t-187 -87.5zM308 54q39 0 65.5 17.5t39 49.5t17.5 66t5 79q0 231 -144 231q-133 0 -133 -218q0 -225 150 -225zM384 621q-100 41 -232 145l62 74q85 -106 191 -185z" />
    <glyph glyph-name="oacute" unicode="&#xf3;" horiz-adv-x="596" 
d="M225 621l-22 34q110 82 191 185l62 -74q-132 -104 -231 -145zM291 -8q-251 0 -251 272q0 113 77.5 202.5t182.5 89.5q129 0 192 -67t63 -209q0 -113 -77 -200.5t-187 -87.5zM308 54q39 0 65.5 17.5t39 49.5t17.5 66t5 79q0 231 -144 231q-133 0 -133 -218
q0 -225 150 -225z" />
    <glyph glyph-name="ocircumflex" unicode="&#xf4;" horiz-adv-x="596" 
d="M440 614q-58 30 -143 106q-90 -77 -135 -106l-25 31q98 84 174 188q85 -117 163 -180zM291 -8q-251 0 -251 272q0 113 77.5 202.5t182.5 89.5q129 0 192 -67t63 -209q0 -113 -77 -200.5t-187 -87.5zM308 54q39 0 65.5 17.5t39 49.5t17.5 66t5 79q0 231 -144 231
q-133 0 -133 -218q0 -225 150 -225z" />
    <glyph glyph-name="otilde" unicode="&#xf5;" horiz-adv-x="596" 
d="M291 -8q-251 0 -251 272q0 113 77.5 202.5t182.5 89.5q129 0 192 -67t63 -209q0 -113 -77 -200.5t-187 -87.5zM308 54q39 0 65.5 17.5t39 49.5t17.5 66t5 79q0 231 -144 231q-133 0 -133 -218q0 -225 150 -225zM379 658q-24 0 -93.5 21.5t-87.5 21.5q-36 0 -64 -24
l-20 21q54 83 102 83q27 0 101 -20.5t93 -20.5q27 0 52 18l20 -21q-15 -30 -41.5 -54.5t-61.5 -24.5z" />
    <glyph glyph-name="odieresis" unicode="&#xf6;" horiz-adv-x="596" 
d="M186 668q-10 0 -38.5 28.5t-28.5 38.5q0 11 28.5 39t38.5 28q11 0 39.5 -28.5t28.5 -38.5q0 -9 -28.5 -38t-39.5 -29zM409 668q-11 0 -39 28.5t-28 38.5q0 11 28 39t39 28q10 0 39 -28.5t29 -38.5q0 -9 -28.5 -38t-39.5 -29zM291 -8q-251 0 -251 272q0 113 77.5 202.5
t182.5 89.5q129 0 192 -67t63 -209q0 -113 -77 -200.5t-187 -87.5zM308 54q39 0 65.5 17.5t39 49.5t17.5 66t5 79q0 231 -144 231q-133 0 -133 -218q0 -225 150 -225z" />
    <glyph glyph-name="divide" unicode="&#xf7;" 
d="M304 23q-12 0 -42.5 31.5t-30.5 43.5t31 42t42 30t42 -30.5t31 -41.5t-30.5 -43t-42.5 -32zM303 427q-11 0 -42 31.5t-31 42.5q0 12 31 42.5t42 30.5t42 -31t31 -42t-30.5 -42.5t-42.5 -31.5zM60 265v75h480v-75h-480z" />
    <glyph glyph-name="oslash" unicode="&#xf8;" horiz-adv-x="596" 
d="M51 -36l-34 30q11 11 23.5 24.5t27.5 30t23 25.5q-51 68 -51 190q0 112 77.5 201.5t182.5 89.5q107 0 168 -45q28 34 62 76l34 -30q-41 -53 -63 -79q54 -64 54 -197q0 -112 -77 -199.5t-187 -87.5q-107 0 -168 49q-24 -28 -72 -78zM308 55q39 0 65.5 17t39 49.5t17.5 66
t5 78.5q0 69 -13 116q-127 -150 -230 -265q38 -62 116 -62zM173 165q144 164 230 267q-34 64 -112 64q-133 0 -133 -217q0 -61 15 -114z" />
    <glyph glyph-name="ugrave" unicode="&#xf9;" horiz-adv-x="692" 
d="M263 -8q-50 0 -82 12t-47.5 37.5t-20.5 52t-5 66.5v332h-88v38q98 24 149 24q50 0 50 -45v-232l2 -98q1 -54 14.5 -81t59.5 -27q34 0 81.5 15t72.5 29l3 157v220h-93v37q95 25 152 25q50 0 50 -45v-236l4 -204h100l3 -29q-78 -46 -140 -46q-77 0 -77 83
q-29 -25 -51 -40.5t-59.5 -30t-77.5 -14.5zM402 621q-100 41 -232 145l62 74q85 -106 191 -185z" />
    <glyph glyph-name="uacute" unicode="&#xfa;" horiz-adv-x="692" 
d="M276 621l-22 34q110 82 191 185l62 -74q-132 -104 -231 -145zM263 -8q-50 0 -82 12t-47.5 37.5t-20.5 52t-5 66.5v332h-88v38q98 24 149 24q50 0 50 -45v-232l2 -98q1 -54 14.5 -81t59.5 -27q34 0 81.5 15t72.5 29l3 157v220h-93v37q95 25 152 25q50 0 50 -45v-236
l4 -204h100l3 -29q-78 -46 -140 -46q-77 0 -77 83q-29 -25 -51 -40.5t-59.5 -30t-77.5 -14.5z" />
    <glyph glyph-name="ucircumflex" unicode="&#xfb;" horiz-adv-x="692" 
d="M475 614q-58 30 -143 106q-90 -77 -135 -106l-25 31q98 84 174 188q85 -117 163 -180zM263 -8q-50 0 -82 12t-47.5 37.5t-20.5 52t-5 66.5v332h-88v38q98 24 149 24q50 0 50 -45v-232l2 -98q1 -54 14.5 -81t59.5 -27q34 0 81.5 15t72.5 29l3 157v220h-93v37q95 25 152 25
q50 0 50 -45v-236l4 -204h100l3 -29q-78 -46 -140 -46q-77 0 -77 83q-29 -25 -51 -40.5t-59.5 -30t-77.5 -14.5z" />
    <glyph glyph-name="udieresis" unicode="&#xfc;" horiz-adv-x="692" 
d="M224 668q-10 0 -38.5 28.5t-28.5 38.5q0 11 28.5 39t38.5 28q11 0 39.5 -28.5t28.5 -38.5q0 -9 -28.5 -38t-39.5 -29zM447 668q-11 0 -39 28.5t-28 38.5q0 11 28 39t39 28q10 0 39 -28.5t29 -38.5q0 -9 -28.5 -38t-39.5 -29zM263 -8q-50 0 -82 12t-47.5 37.5t-20.5 52
t-5 66.5v332h-88v38q98 24 149 24q50 0 50 -45v-232l2 -98q1 -54 14.5 -81t59.5 -27q34 0 81.5 15t72.5 29l3 157v220h-93v37q95 25 152 25q50 0 50 -45v-236l4 -204h100l3 -29q-78 -46 -140 -46q-77 0 -77 83q-29 -25 -51 -40.5t-59.5 -30t-77.5 -14.5z" />
    <glyph glyph-name="yacute" unicode="&#xfd;" horiz-adv-x="575" 
d="M117 -316l-57 91q64 26 100.5 62t60.5 90l23 49l-164 462q-16 50 -53 74q0 23 4 34h221q0 -35 -3 -44h-66l129 -406l125 332q7 18 7 34q0 30 -23 38l-35 13q-2 21 2 33h166q0 -19 -2 -26q-28 -24 -57 -96l-215 -532q-31 -78 -66 -123.5t-97 -84.5zM260 621l-22 34
q110 82 191 185l62 -74q-132 -104 -231 -145z" />
    <glyph glyph-name="thorn" unicode="&#xfe;" horiz-adv-x="641" 
d="M45 -294q-4 22 -3 32l36 14q39 16 39 62l4 459v530h-97v39q109 23 165 23q41 0 41 -39v-334q66 62 147 62q112 0 167.5 -65t55.5 -203q0 -82 -23.5 -141.5t-64.5 -91.5t-88.5 -46.5t-103.5 -14.5q-54 0 -83 5l5 -213q0 -22 25 -27l77 -15q2 -20 -5 -36h-294zM323 46
q79 0 118.5 63t39.5 158q0 44 -7.5 82.5t-23 71t-43 51.5t-63.5 19q-56 0 -113 -35v-185l3 -215q44 -10 89 -10z" />
    <glyph glyph-name="ydieresis" unicode="&#xff;" horiz-adv-x="575" 
d="M117 -316l-57 91q64 26 100.5 62t60.5 90l23 49l-164 462q-16 50 -53 74q0 23 4 34h221q0 -35 -3 -44h-66l129 -406l125 332q7 18 7 34q0 30 -23 38l-35 13q-2 21 2 33h166q0 -19 -2 -26q-28 -24 -57 -96l-215 -532q-31 -78 -66 -123.5t-97 -84.5zM186 668
q-10 0 -38.5 28.5t-28.5 38.5q0 11 28.5 39t38.5 28q11 0 39.5 -28.5t28.5 -38.5q0 -9 -28.5 -38t-39.5 -29zM409 668q-11 0 -39 28.5t-28 38.5q0 11 28 39t39 28q10 0 39 -28.5t29 -38.5q0 -9 -28.5 -38t-39.5 -29z" />
    <glyph glyph-name="Amacron" unicode="&#x100;" horiz-adv-x="745" 
d="M22 0q-3 8 -3 30l22 17q27 20 43 58l263 631l82 29l224 -646q18 -51 48 -75l17 -15q0 -17 -5 -29h-285q-3 21 -3 29l67 20q31 9 31 51q0 14 -5 29l-54 176h-234l-70 -180q-21 -55 44 -77l51 -18q0 -17 -4 -30h-229zM251 359h196l-60 198l-24 86h-6l-29 -84zM232 806v66
h298v-66h-298z" />
    <glyph glyph-name="amacron" unicode="&#x101;" horiz-adv-x="587" 
d="M170 -8q-60 0 -97 33t-37 90q0 37 14.5 65t36 45t54.5 30t61 18.5t65 10.5l86 11v87q0 55 -31.5 78.5t-99.5 23.5q-58 0 -135 -21l-13 39q106 55 190 55q29 0 51 -2t51 -10.5t48.5 -23.5t33 -44t13.5 -69v-135l7 -204h95l5 -28q-17 -17 -59.5 -32.5t-70.5 -15.5
q-48 0 -64.5 23t-18.5 66q-81 -90 -185 -90zM221 76q62 0 132 34v140l-71 -11q-133 -19 -133 -97q0 -27 18.5 -46.5t53.5 -19.5zM119 693v65h298v-65h-298z" />
    <glyph glyph-name="Abreve" unicode="&#x102;" horiz-adv-x="745" 
d="M22 0q-3 8 -3 30l22 17q27 20 43 58l263 631l82 29l224 -646q18 -51 48 -75l17 -15q0 -17 -5 -29h-285q-3 21 -3 29l67 20q31 9 31 51q0 14 -5 29l-54 176h-234l-70 -180q-21 -55 44 -77l51 -18q0 -17 -4 -30h-229zM251 359h196l-60 198l-24 86h-6l-29 -84zM392 799
q-38 0 -71 12t-53.5 30.5t-30 29.5t-14.5 20l43 41q58 -55 138 -55q70 0 122 52l27 -28q-6 -12 -16 -25t-29.5 -32.5t-50 -32t-65.5 -12.5z" />
    <glyph glyph-name="abreve" unicode="&#x103;" horiz-adv-x="587" 
d="M170 -8q-60 0 -97 33t-37 90q0 37 14.5 65t36 45t54.5 30t61 18.5t65 10.5l86 11v87q0 55 -31.5 78.5t-99.5 23.5q-58 0 -135 -21l-13 39q106 55 190 55q29 0 51 -2t51 -10.5t48.5 -23.5t33 -44t13.5 -69v-135l7 -204h95l5 -28q-17 -17 -59.5 -32.5t-70.5 -15.5
q-48 0 -64.5 23t-18.5 66q-81 -90 -185 -90zM221 76q62 0 132 34v140l-71 -11q-133 -19 -133 -97q0 -27 18.5 -46.5t53.5 -19.5zM271 663q-38 0 -71 12t-53.5 30.5t-30 29.5t-14.5 20l44 41q55 -55 137 -55q70 0 122 52l27 -27q-6 -12 -16 -25.5t-29.5 -33t-50 -32
t-65.5 -12.5z" />
    <glyph glyph-name="Aogonek" unicode="&#x104;" horiz-adv-x="745" 
d="M476 -264q-61 0 -93.5 30t-32.5 78q0 82 99 151q6 5 18.5 14t19 14t15 13t13.5 16q11 11 11 33q0 18 -8 44l-54 176h-234l-70 -180q-21 -55 44 -77l51 -18q0 -17 -4 -30h-229q-3 8 -3 30l22 17q27 20 43 58l263 631l82 29l224 -646q18 -51 48 -75l17 -15q0 -17 -5 -29
h-95q-90 0 -136.5 -30.5t-46.5 -100.5q0 -41 22.5 -62t51.5 -21q31 0 64 23l18 -44q-51 -29 -115 -29zM251 359h196l-60 198l-24 86h-6l-29 -84z" />
    <glyph glyph-name="aogonek" unicode="&#x105;" horiz-adv-x="587" 
d="M454 -264q-61 0 -93.5 30.5t-32.5 78.5q0 77 97 149q-29 2 -45 16t-20 30t-5 42q-28 -33 -76 -61.5t-109 -28.5q-60 0 -97 33t-37 90q0 40 16.5 70.5t47 48.5t62 28.5t72.5 16.5q104 15 119 17v86q0 55 -31 78t-100 23q-62 0 -135 -20l-13 39q106 55 190 55q29 0 51 -2
t51 -10.5t48.5 -23.5t33 -44t13.5 -69v-135l7 -204h95l5 -28q-155 -77 -153 -176q1 -34 19.5 -54.5t49.5 -20.5q30 0 65 22l20 -46q-49 -30 -115 -30zM218 77q57 0 135 33v140q-67 -9 -104 -18q-100 -23 -100 -90q0 -26 17 -45.5t52 -19.5z" />
    <glyph glyph-name="Cacute" unicode="&#x106;" horiz-adv-x="682" 
d="M426 -7q-183 0 -280 93t-97 278q0 151 108 268t265 117q53 0 96.5 -7.5t60.5 -13.5t50 -20v-149h-34q-45 124 -177 124q-114 0 -181.5 -74t-67.5 -227q0 -143 76.5 -229.5t197.5 -86.5q96 0 172 30l17 -50q-97 -53 -206 -53zM317 780l-10 37q128 45 236 117l35 -82
q-141 -59 -261 -72z" />
    <glyph glyph-name="cacute" unicode="&#x107;" horiz-adv-x="510" 
d="M225 621l-22 34q110 82 191 185l62 -74q-132 -104 -231 -145zM293 -9q-136 0 -194.5 62.5t-58.5 213.5q0 114 76.5 203.5t192.5 89.5q27 0 53.5 -3t55.5 -10t46.5 -23t17.5 -38q0 -50 -47 -78q-70 92 -134 92q-75 0 -111.5 -48.5t-36.5 -156.5q0 -102 42 -163.5
t137 -61.5q66 0 134 22l13 -34q-67 -67 -186 -67z" />
    <glyph glyph-name="Ccircumflex" unicode="&#x108;" horiz-adv-x="682" 
d="M426 -7q-183 0 -280 93t-97 278q0 151 108 268t265 117q53 0 96.5 -7.5t60.5 -13.5t50 -20v-149h-34q-45 124 -177 124q-114 0 -181.5 -74t-67.5 -227q0 -143 76.5 -229.5t197.5 -86.5q96 0 172 30l17 -50q-97 -53 -206 -53zM264 764l-20 34q22 11 45.5 26.5t41.5 29.5
t37.5 31t31 27.5t24.5 23.5l14 14q116 -116 180 -148l-26 -38q-42 12 -97 39.5t-71 38.5q-1 -1 -12 -7.5t-25 -14t-32.5 -17.5t-42.5 -20.5t-48 -18.5z" />
    <glyph glyph-name="ccircumflex" unicode="&#x109;" horiz-adv-x="510" 
d="M448 614q-58 30 -143 106q-90 -77 -135 -106l-25 31q98 84 174 188q86 -117 163 -180zM293 -9q-136 0 -194.5 62.5t-58.5 213.5q0 114 76.5 203.5t192.5 89.5q27 0 53.5 -3t55.5 -10t46.5 -23t17.5 -38q0 -50 -47 -78q-70 92 -134 92q-75 0 -111.5 -48.5t-36.5 -156.5
q0 -102 42 -163.5t137 -61.5q66 0 134 22l13 -34q-67 -67 -186 -67z" />
    <glyph glyph-name="Cdotaccent" unicode="&#x10a;" horiz-adv-x="682" 
d="M426 -7q-183 0 -280 93t-97 278q0 151 108 268t265 117q53 0 96.5 -7.5t60.5 -13.5t50 -20v-149h-34q-45 124 -177 124q-114 0 -181.5 -74t-67.5 -227q0 -143 76.5 -229.5t197.5 -86.5q96 0 172 30l17 -50q-97 -53 -206 -53zM426 784q-11 0 -41 30.5t-30 41.5q0 12 30 42
t41 30t41.5 -30.5t30.5 -41.5q0 -9 -30.5 -40.5t-41.5 -31.5z" />
    <glyph glyph-name="cdotaccent" unicode="&#x10b;" horiz-adv-x="510" 
d="M293 -9q-136 0 -194.5 62.5t-58.5 213.5q0 114 76.5 203.5t192.5 89.5q27 0 53.5 -3t55.5 -10t46.5 -23t17.5 -38q0 -50 -47 -78q-70 92 -134 92q-75 0 -111.5 -48.5t-36.5 -156.5q0 -102 42 -163.5t137 -61.5q66 0 134 22l13 -34q-67 -67 -186 -67zM316 684
q-13 0 -46.5 34.5t-33.5 46.5q0 13 34 46.5t46 33.5q11 0 46.5 -34t35.5 -46q0 -11 -34.5 -46t-47.5 -35z" />
    <glyph glyph-name="Ccaron" unicode="&#x10c;" horiz-adv-x="682" 
d="M426 -7q-183 0 -280 93t-97 278q0 151 108 268t265 117q53 0 96.5 -7.5t60.5 -13.5t50 -20v-149h-34q-45 124 -177 124q-114 0 -181.5 -74t-67.5 -227q0 -143 76.5 -229.5t197.5 -86.5q96 0 172 30l17 -50q-97 -53 -206 -53zM407 762q-116 116 -180 149l25 37
q43 -11 97.5 -38.5t71.5 -39.5q88 53 160 79l19 -34q-83 -43 -193 -153z" />
    <glyph glyph-name="ccaron" unicode="&#x10d;" horiz-adv-x="510" 
d="M298 603q-84 116 -163 180l34 38q58 -30 143 -106q94 80 135 106l25 -30q-95 -81 -174 -188zM293 -9q-136 0 -194.5 62.5t-58.5 213.5q0 114 76.5 203.5t192.5 89.5q27 0 53.5 -3t55.5 -10t46.5 -23t17.5 -38q0 -50 -47 -78q-70 92 -134 92q-75 0 -111.5 -48.5
t-36.5 -156.5q0 -102 42 -163.5t137 -61.5q66 0 134 22l13 -34q-67 -67 -186 -67z" />
    <glyph glyph-name="Dcaron" unicode="&#x10e;" horiz-adv-x="794" 
d="M346 762q-116 116 -180 149l25 37q43 -11 97.5 -38.5t71.5 -39.5q88 53 160 79l19 -34q-83 -43 -193 -153zM30 0q-4 25 -3 33l61 16q38 11 40 65l2 166v363q0 37 -31 45l-64 20q0 17 4 29h287q75 0 135 -9.5t113.5 -34t89 -64t56 -101t20.5 -143.5q0 -181 -111 -283
t-297 -102h-302zM250 55h93q133 0 200 81t67 229q0 147 -74.5 231t-212.5 84h-79v-402z" />
    <glyph glyph-name="dcaron" unicode="&#x10f;" horiz-adv-x="682" 
d="M614 611l-40 9q22 101 22 237l91 -4q-5 -118 -73 -242zM258 -9q-43 0 -79 11.5t-69 38.5t-51.5 81t-18.5 130q0 134 77 217.5t191 83.5q56 0 100 -9v258h-98v40q99 22 162 22q25 0 35 -9t10 -33v-546l4 -207h93l5 -31q-84 -47 -154 -47q-57 0 -57 74q-74 -74 -150 -74z
M297 75q40 0 109 29l2 172v203q-58 20 -100 20q-84 0 -117.5 -58.5t-33.5 -172.5q0 -95 37.5 -144t102.5 -49z" />
    <glyph glyph-name="Dcroat" unicode="&#x110;" horiz-adv-x="794" 
d="M30 0q-4 25 -3 33l61 16q38 11 40 65l2 166v71h-90v54h90v238q0 37 -31 45l-64 20q0 17 4 29h287q75 0 135 -9.5t113.5 -34t89 -64t56 -101t20.5 -143.5q0 -181 -111 -283t-297 -102h-302zM250 55h93q133 0 200 81t67 229q0 147 -74.5 231t-212.5 84h-79v-275h156v-54
h-156v-73z" />
    <glyph glyph-name="dcroat" unicode="&#x111;" horiz-adv-x="639" 
d="M258 -8q-218 0 -218 260q0 134 77 217.5t191 83.5q56 0 100 -9v108h-169v54h169v96h-98v40q99 22 162 22q25 0 35 -9t10 -33v-115h82v-55h-82v-376l4 -207h93l5 -30q-80 -47 -154 -47q-57 0 -57 73q-73 -73 -150 -73zM297 76q40 0 109 29l2 171v203q-58 20 -100 20
q-84 0 -117.5 -58.5t-33.5 -172.5q0 -95 37.5 -143.5t102.5 -48.5z" />
    <glyph glyph-name="Emacron" unicode="&#x112;" horiz-adv-x="650" 
d="M30 0q-4 25 -3 34l60 16q40 12 42 59l2 171v362q0 36 -29 46l-67 23q-1 10 4 26h527v-147q-7 -2 -23 -2l-16 -1q-16 88 -84 89l-199 7v-285l269 5v-66l-269 5v-64l5 -223l184 4q97 1 139 102l34 -8l-21 -153h-555zM190 806v66h298v-66h-298z" />
    <glyph glyph-name="emacron" unicode="&#x113;" horiz-adv-x="553" 
d="M310 -9q-139 0 -204.5 59t-65.5 209q0 125 73.5 213t187.5 88q109 0 161 -71t52 -192v-26h-362q6 -112 55.5 -155t138.5 -43q67 0 145 19l14 -38q-30 -28 -83.5 -45.5t-111.5 -17.5zM152 321h240q0 89 -24 138t-86 49q-56 0 -92.5 -47t-37.5 -140zM129 693v65h298v-65
h-298z" />
    <glyph glyph-name="Ebreve" unicode="&#x114;" horiz-adv-x="650" 
d="M30 0q-4 25 -3 34l60 16q40 12 42 59l2 171v362q0 36 -29 46l-67 23q-1 10 4 26h527v-147q-7 -2 -23 -2l-16 -1q-16 88 -84 89l-199 7v-285l269 5v-66l-269 5v-64l5 -223l184 4q97 1 139 102l34 -8l-21 -153h-555zM339 799q-38 0 -71 12t-53.5 30.5t-30 29.5t-14.5 20
l43 41q58 -55 138 -55q70 0 122 52l27 -28q-6 -12 -16 -25t-29.5 -32.5t-50 -32t-65.5 -12.5z" />
    <glyph glyph-name="ebreve" unicode="&#x115;" horiz-adv-x="553" 
d="M310 -9q-139 0 -204.5 59t-65.5 209q0 125 73.5 213t187.5 88q109 0 161 -71t52 -192v-26h-362q6 -112 55.5 -155t138.5 -43q67 0 145 19l14 -38q-30 -28 -83.5 -45.5t-111.5 -17.5zM152 321h240q0 89 -24 138t-86 49q-56 0 -92.5 -47t-37.5 -140zM294 663q-38 0 -71 12
t-53.5 30.5t-30 29.5t-14.5 20l44 41q55 -55 137 -55q70 0 122 52l27 -27q-6 -12 -16 -25.5t-29.5 -33t-50 -32t-65.5 -12.5z" />
    <glyph glyph-name="Edotaccent" unicode="&#x116;" horiz-adv-x="650" 
d="M30 0q-4 25 -3 34l60 16q40 12 42 59l2 171v362q0 36 -29 46l-67 23q-1 10 4 26h527v-147q-7 -2 -23 -2l-16 -1q-16 88 -84 89l-199 7v-285l269 5v-66l-269 5v-64l5 -223l184 4q97 1 139 102l34 -8l-21 -153h-555zM339 784q-11 0 -41 30.5t-30 41.5q0 12 30 42t41 30
t41.5 -30.5t30.5 -41.5q0 -9 -30.5 -40.5t-41.5 -31.5z" />
    <glyph glyph-name="edotaccent" unicode="&#x117;" horiz-adv-x="553" 
d="M310 -9q-139 0 -204.5 59t-65.5 209q0 125 73.5 213t187.5 88q109 0 161 -71t52 -192v-26h-362q6 -112 55.5 -155t138.5 -43q67 0 145 19l14 -38q-30 -28 -83.5 -45.5t-111.5 -17.5zM152 321h240q0 89 -24 138t-86 49q-56 0 -92.5 -47t-37.5 -140zM285 684
q-13 0 -46.5 34.5t-33.5 46.5q0 13 34 46.5t46 33.5q11 0 46.5 -34t35.5 -46q0 -11 -34.5 -46t-47.5 -35z" />
    <glyph glyph-name="Eogonek" unicode="&#x118;" horiz-adv-x="650" 
d="M482 -264q-63 0 -96 26.5t-33 73.5q0 50 40.5 92t106.5 72h-470q-4 25 -3 34l60 16q40 12 42 59l2 171v362q0 36 -29 46l-67 23q-1 10 4 26h527v-147q-7 -2 -23 -2l-16 -1q-16 88 -84 89l-199 7v-285l269 5v-66l-269 5v-64l5 -223l184 4q97 1 139 102l34 -8l-21 -153
q-147 -52 -147 -140q0 -34 19 -55.5t50 -21.5t70 29l19 -45q-52 -31 -114 -31z" />
    <glyph glyph-name="eogonek" unicode="&#x119;" horiz-adv-x="553" 
d="M381 -264q-61 0 -93.5 30.5t-32.5 78.5q0 77 103 149q-30 -2 -48 -2q-139 0 -204.5 58.5t-65.5 208.5q0 125 73.5 213t187.5 88q109 0 161 -71t52 -192v-26h-362q6 -112 55 -154.5t139 -42.5q72 0 145 18l14 -38q-9 -7 -37 -26t-45 -31q-36 -26 -57.5 -62t-21.5 -73
q0 -36 18.5 -57t44.5 -21q35 0 70 27l19 -45q-49 -30 -115 -30zM152 321h240q0 89 -24 138t-86 49q-56 0 -92.5 -47t-37.5 -140z" />
    <glyph glyph-name="Ecaron" unicode="&#x11a;" horiz-adv-x="650" 
d="M334 762q-116 116 -180 149l25 37q43 -11 97.5 -38.5t71.5 -39.5q88 53 160 79l19 -34q-83 -43 -193 -153zM30 0q-4 25 -3 34l60 16q40 12 42 59l2 171v362q0 36 -29 46l-67 23q-1 10 4 26h527v-147q-7 -2 -23 -2l-16 -1q-16 88 -84 89l-199 7v-285l269 5v-66l-269 5v-64
l5 -223l184 4q97 1 139 102l34 -8l-21 -153h-555z" />
    <glyph glyph-name="ecaron" unicode="&#x11b;" horiz-adv-x="553" 
d="M285 603q-84 116 -163 180l34 38q58 -30 143 -106q94 80 135 106l25 -30q-95 -81 -174 -188zM310 -9q-139 0 -204.5 59t-65.5 209q0 125 73.5 213t187.5 88q109 0 161 -71t52 -192v-26h-362q6 -112 55.5 -155t138.5 -43q67 0 145 19l14 -38q-30 -28 -83.5 -45.5
t-111.5 -17.5zM152 321h240q0 89 -24 138t-86 49q-56 0 -92.5 -47t-37.5 -140z" />
    <glyph glyph-name="Gcircumflex" unicode="&#x11c;" horiz-adv-x="738" 
d="M426 -7q-183 0 -280 93t-97 278q0 150 111.5 268t268.5 118q115 0 229 -45v-146h-34q-22 59 -74.5 92t-124.5 33q-116 0 -185.5 -76t-69.5 -229q0 -144 77.5 -229.5t196.5 -85.5q65 0 101 9v248h113v-262q-112 -66 -232 -66zM266 764l-20 34q22 11 45.5 26.5t41.5 29.5
t37.5 31t31 27.5t24.5 23.5l14 14q116 -116 180 -148l-26 -38q-42 12 -97 39.5t-71 38.5q-1 -1 -12 -7.5t-25 -14t-32.5 -17.5t-42.5 -20.5t-48 -18.5z" />
    <glyph glyph-name="gcircumflex" unicode="&#x11d;" horiz-adv-x="610" 
d="M415 614q-58 30 -143 106q-90 -77 -135 -106l-25 31q98 84 174 188q86 -117 163 -180zM251 -303q-222 0 -222 135q0 43 33.5 88t74.5 71q-27 2 -46 18t-19 41q0 65 75 148q-37 19 -61 60.5t-24 87.5q0 90 64 151.5t152 61.5q115 0 162 -44l154 38v-83h-114q20 -38 20 -93
q0 -84 -65 -144t-151 -60q-74 0 -118 18v-109h162q48 0 85 -5.5t73.5 -21t56.5 -48t20 -81.5q0 -71 -52.5 -125.5t-122 -79t-137.5 -24.5zM299 -238q70 0 114 33.5t44 88.5q0 101 -145 101h-144q-41 -51 -41 -104q0 -37 13 -61.5t38.5 -36.5t53.5 -16.5t67 -4.5zM285 223
q50 0 75 39t25 96q0 61 -26 107t-78 46q-112 0 -112 -143q0 -69 29 -107t87 -38z" />
    <glyph glyph-name="Gbreve" unicode="&#x11e;" horiz-adv-x="738" 
d="M426 -7q-183 0 -280 93t-97 278q0 150 111.5 268t268.5 118q115 0 229 -45v-146h-34q-22 59 -74.5 92t-124.5 33q-116 0 -185.5 -76t-69.5 -229q0 -144 77.5 -229.5t196.5 -85.5q65 0 101 9v248h113v-262q-112 -66 -232 -66zM422 799q-38 0 -71 12t-53.5 30.5t-30 29.5
t-14.5 20l43 41q58 -55 138 -55q70 0 122 52l27 -28q-6 -12 -16 -25t-29.5 -32.5t-50 -32t-65.5 -12.5z" />
    <glyph glyph-name="gbreve" unicode="&#x11f;" horiz-adv-x="610" 
d="M251 -303q-222 0 -222 135q0 43 33.5 88t74.5 71q-27 2 -46 18t-19 41q0 65 75 148q-37 19 -61 60.5t-24 87.5q0 90 64 151.5t152 61.5q115 0 162 -44l154 38v-83h-114q20 -38 20 -93q0 -84 -65 -144t-151 -60q-74 0 -118 18v-109h162q48 0 85 -5.5t73.5 -21t56.5 -48
t20 -81.5q0 -71 -52.5 -125.5t-122 -79t-137.5 -24.5zM299 -238q70 0 114 33.5t44 88.5q0 101 -145 101h-144q-41 -51 -41 -104q0 -37 13 -61.5t38.5 -36.5t53.5 -16.5t67 -4.5zM285 223q50 0 75 39t25 96q0 61 -26 107t-78 46q-112 0 -112 -143q0 -69 29 -107t87 -38z
M283 663q-38 0 -71 12t-53.5 30.5t-30 29.5t-14.5 20l44 41q55 -55 137 -55q70 0 122 52l27 -27q-6 -12 -16 -25.5t-29.5 -33t-50 -32t-65.5 -12.5z" />
    <glyph glyph-name="Gdotaccent" unicode="&#x120;" horiz-adv-x="738" 
d="M426 -7q-183 0 -280 93t-97 278q0 150 111.5 268t268.5 118q115 0 229 -45v-146h-34q-22 59 -74.5 92t-124.5 33q-116 0 -185.5 -76t-69.5 -229q0 -144 77.5 -229.5t196.5 -85.5q65 0 101 9v248h113v-262q-112 -66 -232 -66zM435 784q-11 0 -41 30.5t-30 41.5q0 12 30 42
t41 30t41.5 -30.5t30.5 -41.5q0 -9 -30.5 -40.5t-41.5 -31.5z" />
    <glyph glyph-name="gdotaccent" unicode="&#x121;" horiz-adv-x="610" 
d="M251 -303q-222 0 -222 135q0 43 33.5 88t74.5 71q-27 2 -46 18t-19 41q0 65 75 148q-37 19 -61 60.5t-24 87.5q0 90 64 151.5t152 61.5q115 0 162 -44l154 38v-83h-114q20 -38 20 -93q0 -84 -65 -144t-151 -60q-74 0 -118 18v-109h162q48 0 85 -5.5t73.5 -21t56.5 -48
t20 -81.5q0 -71 -52.5 -125.5t-122 -79t-137.5 -24.5zM299 -238q70 0 114 33.5t44 88.5q0 101 -145 101h-144q-41 -51 -41 -104q0 -37 13 -61.5t38.5 -36.5t53.5 -16.5t67 -4.5zM285 223q50 0 75 39t25 96q0 61 -26 107t-78 46q-112 0 -112 -143q0 -69 29 -107t87 -38z
M286 684q-13 0 -46.5 34.5t-33.5 46.5q0 13 34 46.5t46 33.5q11 0 46.5 -34t35.5 -46q0 -11 -34.5 -46t-47.5 -35z" />
    <glyph glyph-name="Gcommaaccent" unicode="&#x122;" horiz-adv-x="738" 
d="M426 -7q-183 0 -280 93t-97 278q0 150 111.5 268t268.5 118q115 0 229 -45v-146h-34q-22 59 -74.5 92t-124.5 33q-116 0 -185.5 -76t-69.5 -229q0 -144 77.5 -229.5t196.5 -85.5q65 0 101 9v248h113v-262q-112 -66 -232 -66zM417 -292l-40 9q22 101 22 237l91 -4
q-5 -118 -73 -242z" />
    <glyph glyph-name="gcommaaccent" unicode="&#x123;" horiz-adv-x="610" 
d="M306 858l40 -9q-22 -101 -22 -237l-91 4q5 118 73 242zM251 -303q-222 0 -222 135q0 43 33.5 88t74.5 71q-27 2 -46 18t-19 41q0 65 75 148q-37 19 -61 60.5t-24 87.5q0 90 64 151.5t152 61.5q115 0 162 -44l154 38v-83h-114q20 -38 20 -93q0 -84 -65 -144t-151 -60
q-74 0 -118 18v-109h162q48 0 85 -5.5t73.5 -21t56.5 -48t20 -81.5q0 -71 -52.5 -125.5t-122 -79t-137.5 -24.5zM299 -238q70 0 114 33.5t44 88.5q0 101 -145 101h-144q-41 -51 -41 -104q0 -37 13 -61.5t38.5 -36.5t53.5 -16.5t67 -4.5zM285 223q50 0 75 39t25 96
q0 61 -26 107t-78 46q-112 0 -112 -143q0 -69 29 -107t87 -38z" />
    <glyph glyph-name="Hcircumflex" unicode="&#x124;" horiz-adv-x="859" 
d="M249 764l-20 34q22 11 45.5 26.5t41.5 29.5t37.5 31t31 27.5t24.5 23.5l14 14q116 -116 180 -148l-26 -38q-42 12 -97 39.5t-71 38.5q-1 -1 -12 -7.5t-25 -14t-32.5 -17.5t-42.5 -20.5t-48 -18.5zM28 0q-5 22 -4 30l55 19q19 7 30.5 29t12.5 47l2 154v351q0 50 -35 61
l-64 18q0 13 4 28h289q4 -17 4 -30l-54 -14q-19 -6 -25.5 -16t-6.5 -31v-249h368v223q0 23 -11 44t-30 27l-49 18q0 21 2 28h285q0 -24 -1 -31l-54 -14q-17 -5 -23.5 -13.5t-6.5 -28.5v-372l3 -178q0 -39 24 -45l76 -19q0 -22 -5 -36h-302q-4 19 -3 33l44 14q25 7 37 31
t12 49l2 152v63h-368v-64l4 -179q1 -34 29 -43l80 -22q0 -19 -5 -34h-316z" />
    <glyph glyph-name="hcircumflex" unicode="&#x125;" horiz-adv-x="718" 
d="M10 870l-20 34q22 11 45.5 26.5t41.5 29.5t37.5 31t31 27.5t24.5 23.5l14 14q116 -116 180 -148l-26 -38q-42 12 -97 39.5t-71 38.5q-1 -1 -12 -7.5t-25 -14t-32.5 -17.5t-42.5 -20.5t-48 -18.5zM46 0q-3 24 -3 29l47 19q31 14 31 59l2 166v530h-94v39q92 23 163 23
q22 0 30.5 -8t8.5 -28v-353q31 24 51 37t63.5 29t87.5 16q55 0 89.5 -12.5t51 -39.5t22 -56t5.5 -75v-102l3 -198q0 -20 18 -24l67 -15q0 -22 -5 -36h-258q-4 20 -4 33l41 19q12 5 19 21.5t7 30.5l3 169v76q0 72 -21 100t-87 28q-71 0 -151 -37v-167l3 -185q0 -18 3.5 -25.5
t14.5 -10.5l81 -17q0 -22 -6 -35h-283z" />
    <glyph glyph-name="Hbar" unicode="&#x126;" horiz-adv-x="859" 
d="M28 0q-5 22 -4 30l55 19q19 7 30.5 29t12.5 47l2 154v234h-80v52h80v65q0 50 -35 61l-64 18q0 13 4 28h289q4 -17 4 -30l-54 -14q-19 -6 -25.5 -16t-6.5 -31v-81h368v55q0 23 -11 44t-30 27l-49 18q0 21 2 28h285q0 -24 -1 -31l-54 -14q-17 -5 -23.5 -13.5t-6.5 -28.5
v-85h81v-52h-81v-235l3 -178q0 -39 24 -45l76 -19q0 -22 -5 -36h-302q-4 19 -3 33l44 14q25 7 37 31t12 49l2 152v63h-368v-64l4 -179q1 -34 29 -43l80 -22q0 -19 -5 -34h-316zM236 397h368v116h-368v-116z" />
    <glyph glyph-name="hbar" unicode="&#x127;" horiz-adv-x="718" 
d="M46 0q-3 24 -3 29l47 19q31 14 31 59l2 166v371h-96v55h96v104h-94v39q92 23 163 23q22 0 30.5 -8t8.5 -28v-130h207v-55h-207v-168q31 24 51 37t63.5 29t87.5 16q55 0 89.5 -12.5t51 -39.5t22 -56t5.5 -75v-102l3 -198q0 -20 18 -24l67 -15q0 -22 -5 -36h-258
q-4 20 -4 33l41 19q12 5 19 21.5t7 30.5l3 169v76q0 72 -21 100t-87 28q-71 0 -151 -37v-167l3 -185q0 -18 3.5 -25.5t14.5 -10.5l81 -17q0 -22 -6 -35h-283z" />
    <glyph glyph-name="Itilde" unicode="&#x128;" horiz-adv-x="370" 
d="M36 0q-4 18 -3 30l51 19q37 14 39 67l2 162v343q0 58 -46 73l-44 15q-2 12 2 28h285q4 -18 3 -30l-42 -11q-45 -10 -45 -73v-345l3 -185q1 -21 7 -29.5t23 -12.5l71 -17q0 -20 -5 -34h-301zM267 786q-24 0 -93.5 22t-87.5 22q-34 0 -64 -24l-20 21q53 82 102 82
q27 0 101 -20t93 -20q29 0 53 18l20 -21q-43 -80 -104 -80z" />
    <glyph glyph-name="itilde" unicode="&#x129;" horiz-adv-x="369" 
d="M41 0q-4 28 -4 31l62 21q12 4 20.5 19t9.5 31l3 171v219h-98v42q110 22 164 22q23 0 33.5 -9t10.5 -31v-243l2 -192q0 -25 17 -28l81 -17q0 -21 -5 -36h-296zM268 658q-24 0 -93.5 21.5t-87.5 21.5q-36 0 -64 -24l-20 21q54 83 102 83q27 0 101 -20.5t93 -20.5
q27 0 52 18l20 -21q-15 -30 -41.5 -54.5t-61.5 -24.5z" />
    <glyph glyph-name="Imacron" unicode="&#x12a;" horiz-adv-x="370" 
d="M36 0q-4 18 -3 30l51 19q37 14 39 67l2 162v343q0 58 -46 73l-44 15q-2 12 2 28h285q4 -18 3 -30l-42 -11q-45 -10 -45 -73v-345l3 -185q1 -21 7 -29.5t23 -12.5l71 -17q0 -20 -5 -34h-301zM31 806v66h298v-66h-298z" />
    <glyph glyph-name="imacron" unicode="&#x12b;" horiz-adv-x="369" 
d="M41 0q-4 28 -4 31l62 21q12 4 20.5 19t9.5 31l3 171v219h-98v42q110 22 164 22q23 0 33.5 -9t10.5 -31v-243l2 -192q0 -25 17 -28l81 -17q0 -21 -5 -36h-296zM36 693v65h298v-65h-298z" />
    <glyph glyph-name="Ibreve" unicode="&#x12c;" horiz-adv-x="370" 
d="M36 0q-4 18 -3 30l51 19q37 14 39 67l2 162v343q0 58 -46 73l-44 15q-2 12 2 28h285q4 -18 3 -30l-42 -11q-45 -10 -45 -73v-345l3 -185q1 -21 7 -29.5t23 -12.5l71 -17q0 -20 -5 -34h-301zM187 799q-38 0 -71 12t-53.5 30.5t-30 29.5t-14.5 20l43 41q58 -55 138 -55
q70 0 122 52l27 -28q-6 -12 -16 -25t-29.5 -32.5t-50 -32t-65.5 -12.5z" />
    <glyph glyph-name="ibreve" unicode="&#x12d;" horiz-adv-x="369" 
d="M41 0q-4 28 -4 31l62 21q12 4 20.5 19t9.5 31l3 171v219h-98v42q110 22 164 22q23 0 33.5 -9t10.5 -31v-243l2 -192q0 -25 17 -28l81 -17q0 -21 -5 -36h-296zM189 663q-38 0 -71 12t-53.5 30.5t-30 29.5t-14.5 20l44 41q55 -55 137 -55q70 0 122 52l27 -27
q-6 -12 -16 -25.5t-29.5 -33t-50 -32t-65.5 -12.5z" />
    <glyph glyph-name="Iogonek" unicode="&#x12e;" horiz-adv-x="370" 
d="M91 -264q-62 0 -96.5 32.5t-34.5 85.5q0 59 33 100.5t94 76.5q21 12 28 29.5t8 65.5l2 152v343q0 58 -46 73l-44 15q-2 12 2 28h285q4 -18 3 -30l-42 -11q-45 -10 -45 -73v-345l3 -185q1 -21 7 -29.5t23 -12.5l71 -17q0 -20 -5 -34h-143q-78 0 -114 -32t-36 -99
q1 -43 24 -64t52 -21q30 0 67 28l19 -46q-49 -30 -115 -30z" />
    <glyph glyph-name="iogonek" unicode="&#x12f;" horiz-adv-x="369" 
d="M79 -264q-61 0 -94.5 29t-33.5 76q0 51 35.5 96t91.5 76q48 28 51 89l3 171v219h-98v42q110 22 164 22q23 0 33.5 -9t10.5 -31v-243l2 -192q0 -25 17 -28l81 -17q0 -21 -5 -36h-114q-92 0 -140 -35.5t-48 -97.5q0 -39 21 -61t48 -22q35 0 71 27l19 -45q-49 -30 -115 -30z
M184 684q-13 0 -46.5 34.5t-33.5 46.5q0 13 34 46.5t46 33.5q11 0 46.5 -34t35.5 -46q0 -11 -34.5 -46t-47.5 -35z" />
    <glyph glyph-name="Idotaccent" unicode="&#x130;" horiz-adv-x="370" 
d="M36 0q-4 18 -3 30l51 19q37 14 39 67l2 162v343q0 58 -46 73l-44 15q-2 12 2 28h285q4 -18 3 -30l-42 -11q-45 -10 -45 -73v-345l3 -185q1 -21 7 -29.5t23 -12.5l71 -17q0 -20 -5 -34h-301zM182 784q-11 0 -41 30.5t-30 41.5q0 12 30 42t41 30t41.5 -30.5t30.5 -41.5
q0 -9 -30.5 -40.5t-41.5 -31.5z" />
    <glyph glyph-name="dotlessi" unicode="&#x131;" horiz-adv-x="369" 
d="M41 0q-4 28 -4 31l62 21q12 4 20.5 19t9.5 31l3 171v219h-98v42q110 22 164 22q23 0 33.5 -9t10.5 -31v-243l2 -192q0 -25 17 -28l81 -17q0 -21 -5 -36h-296z" />
    <glyph glyph-name="IJ" unicode="&#x132;" horiz-adv-x="726" 
d="M36 0q-4 18 -3 30l51 19q37 14 39 67l2 162v343q0 58 -46 73l-44 15q-2 12 2 28h285q4 -18 3 -30l-42 -11q-45 -10 -45 -73v-345l3 -185q1 -21 7 -29.5t23 -12.5l71 -17q0 -20 -5 -34h-301zM375 -204l-20 37q78 46 106 102.5t28 163.5v526q0 23 -12.5 42.5t-36.5 27.5
l-42 14q0 13 4 28h285q3 -24 3 -30l-47 -12q-24 -6 -31.5 -16t-7.5 -32v-585q0 -176 -229 -266z" />
    <glyph glyph-name="ij" unicode="&#x133;" horiz-adv-x="739" 
d="M41 0q-4 28 -4 31l62 21q12 4 20.5 19t9.5 31l3 171v218h-98v42q99 22 164 22q23 0 33.5 -9t10.5 -31v-242l2 -192q0 -25 17 -28l81 -17q0 -21 -5 -36h-296zM184 684q-13 0 -46.5 34.5t-33.5 46.5q0 13 34 46.5t46 33.5q11 0 46.5 -34t35.5 -46q0 -11 -34.5 -46
t-47.5 -35zM415 -302q-46 0 -73 12l20 75q7 -6 28.5 -13.5t38.5 -7.5q43 0 59.5 26.5t16.5 86.5v615h-96v41q99 22 164 22q22 0 32 -8.5t10 -30.5v-243l3 -330q1 -101 -62 -173t-141 -72zM558 684q-12 0 -46 34.5t-34 46.5q0 14 34 47.5t46 33.5t47 -34t35 -47
q0 -10 -34.5 -45.5t-47.5 -35.5z" />
    <glyph glyph-name="Jcircumflex" unicode="&#x134;" horiz-adv-x="357" 
d="M14 764l-20 34q22 11 45.5 26.5t41.5 29.5t37.5 31t31 27.5t24.5 23.5l14 14q116 -116 180 -148l-26 -38q-42 12 -97 39.5t-71 38.5q-1 -1 -12 -7.5t-25 -14t-32.5 -17.5t-42.5 -20.5t-48 -18.5zM9 -204l-20 37q78 46 106 102.5t28 163.5v526q0 23 -12.5 42.5t-36.5 27.5
l-42 14q0 13 4 28h285q3 -24 3 -30l-47 -12q-24 -6 -31.5 -16t-7.5 -32v-585q0 -176 -229 -266z" />
    <glyph glyph-name="jcircumflex" unicode="&#x135;" horiz-adv-x="363" 
d="M41 -302q-46 0 -73 12l20 75q7 -6 28.5 -13.5t38.5 -7.5q43 0 59.5 26.5t16.5 86.5v615h-96v41q99 22 164 22q22 0 32 -8.5t10 -30.5v-243l3 -330q1 -101 -62 -173t-141 -72zM320 614q-58 30 -143 106q-90 -77 -135 -106l-25 31q98 84 174 188q86 -117 163 -180z" />
    <glyph glyph-name="Kcommaaccent" unicode="&#x136;" horiz-adv-x="739" 
d="M375 -292l-40 9q22 101 22 237l91 -4q-5 -118 -73 -242zM26 0q-3 21 -3 29l61 21q37 13 39 66l2 162v350q0 50 -31 62l-59 19q-2 12 2 28h280q3 -22 3 -26l-46 -18q-36 -14 -36 -68v-341l3 -188q0 -35 22 -42l59 -20q0 -20 -5 -34h-291zM716 -11q-146 0 -216 81l-252 288
v17l240 242q26 26 26 44q0 23 -25 32l-43 14q0 15 4 30h227v-30l-323 -300l219 -247q83 -93 152 -137z" />
    <glyph glyph-name="kcommaaccent" unicode="&#x137;" horiz-adv-x="630" 
d="M320 -292l-40 9q22 101 22 237l91 -4q-5 -118 -73 -242zM40 0q-3 24 -3 30l54 20q32 12 32 58l4 165v530h-96v40q97 22 163 22q43 0 43 -42v-557l2 -160q2 -45 26 -57l34 -19q0 -18 -5 -30h-254zM622 16l-5 -29q-161 2 -238 108l-134 184l162 169q14 14 14 26
q0 21 -16 27l-38 16q0 22 2 29h198v-27l-213 -199l143 -197q46 -64 125 -107z" />
    <glyph glyph-name="Lacute" unicode="&#x139;" horiz-adv-x="595" 
d="M108 780l-10 37q128 45 236 117l35 -82q-141 -59 -261 -72zM30 0q-4 25 -3 33l55 15q42 12 42 60l3 170v351q0 51 -37 62l-55 18q0 13 4 28h285q3 -24 3 -30l-48 -13q-22 -5 -30.5 -15t-8.5 -30v-371l5 -221l176 6q48 6 80 37t46 74l32 -8l-26 -166h-523z" />
    <glyph glyph-name="lacute" unicode="&#x13a;" horiz-adv-x="357" 
d="M106 887l-10 37q128 45 236 117l35 -82q-141 -59 -261 -72zM62 0q-4 19 -4 30l52 18q32 13 32 53l5 172v530h-96v39q94 23 162 23q43 0 43 -43v-549l4 -194q0 -14 2 -19t11 -6l84 -19q0 -21 -5 -35h-290z" />
    <glyph glyph-name="Lcommaaccent" unicode="&#x13b;" horiz-adv-x="595" 
d="M288 -292l-40 9q22 101 22 237l91 -4q-5 -118 -73 -242zM30 0q-4 25 -3 33l55 15q42 12 42 60l3 170v351q0 51 -37 62l-55 18q0 13 4 28h285q3 -24 3 -30l-48 -13q-22 -5 -30.5 -15t-8.5 -30v-371l5 -221l176 6q48 6 80 37t46 74l32 -8l-26 -166h-523z" />
    <glyph glyph-name="lcommaaccent" unicode="&#x13c;" horiz-adv-x="352" 
d="M165 -292l-40 9q22 101 22 237l91 -4q-5 -118 -73 -242zM40 0q-4 19 -4 30l52 18q32 13 32 53l5 172v530h-96v39q94 23 162 23q43 0 43 -43v-549l4 -194q0 -14 2 -19t11 -6l84 -19q0 -21 -5 -35h-290z" />
    <glyph glyph-name="Lcaron" unicode="&#x13d;" horiz-adv-x="595" 
d="M445 611l-40 9q22 101 22 237l91 -4q-5 -118 -73 -242zM30 0q-4 25 -3 33l55 15q42 12 42 60l3 170v351q0 51 -37 62l-55 18q0 13 4 28h285q3 -24 3 -30l-48 -13q-22 -5 -30.5 -15t-8.5 -30v-371l5 -221l176 6q48 6 80 37t46 74l32 -8l-26 -166h-523z" />
    <glyph glyph-name="lcaron" unicode="&#x13e;" horiz-adv-x="409" 
d="M330 611l-40 9q22 101 22 237l91 -4q-5 -118 -73 -242zM40 0q-4 19 -4 30l52 18q32 13 32 53l5 172v530h-96v39q94 23 162 23q43 0 43 -43v-549l4 -194q0 -14 2 -19t11 -6l84 -19q0 -21 -5 -35h-290z" />
    <glyph glyph-name="Ldot" unicode="&#x13f;" horiz-adv-x="595" 
d="M30 0q-4 25 -3 33l55 15q42 12 42 60l3 170v351q0 51 -37 62l-55 18q0 13 4 28h285q3 -24 3 -30l-48 -13q-22 -5 -30.5 -15t-8.5 -30v-371l5 -221l176 6q48 6 80 37t46 74l32 -8l-26 -166h-523zM491 327q-13 0 -48 35.5t-35 48.5t35.5 48t47.5 35q13 0 48 -35t35 -48
q0 -12 -34.5 -48t-48.5 -36z" />
    <glyph glyph-name="ldot" unicode="&#x140;" horiz-adv-x="429" 
d="M40 0q-4 19 -4 30l52 18q32 13 32 53l5 172v530h-96v39q94 23 162 23q43 0 43 -43v-549l4 -194q0 -14 2 -19t11 -6l84 -19q0 -21 -5 -35h-290zM386 338q-13 0 -48 35.5t-35 48.5t35.5 48t47.5 35q13 0 48 -35t35 -48q0 -12 -34.5 -48t-48.5 -36z" />
    <glyph glyph-name="Lslash" unicode="&#x141;" horiz-adv-x="595" 
d="M30 0q-4 25 -3 33l55 15q42 12 42 60l3 170v46l-91 -48v56l91 48v249q0 51 -37 62l-55 18q0 13 4 28h285q3 -24 3 -30l-48 -13q-22 -5 -30.5 -15t-8.5 -30v-209l182 97v-57l-182 -96v-106l5 -221l176 6q48 6 80 37t46 74l32 -8l-26 -166h-523z" />
    <glyph glyph-name="lslash" unicode="&#x142;" horiz-adv-x="357" 
d="M40 0q-4 19 -4 30l52 18q32 13 32 53l5 172v117l-105 -54v57l105 54v356h-96v39q94 23 162 23q43 0 43 -43v-318l111 58v-57l-111 -57v-175l4 -194q0 -14 2 -19t11 -6l84 -19q0 -21 -5 -35h-290z" />
    <glyph glyph-name="Nacute" unicode="&#x143;" horiz-adv-x="835" 
d="M340 780l-10 37q128 45 236 117l35 -82q-141 -59 -261 -72zM623 -24l-426 626h-6l7 -83v-243l3 -176q1 -19 5.5 -27t19.5 -13l86 -28q0 -17 -5 -32h-276q-5 23 -4 30l55 17q48 13 50 89l2 140v359q0 41 -30 53l-61 21q-2 16 2 28h206l393 -568h8l-9 108v349q0 19 -11 38
t-27 25l-61 20q0 17 4 28h254q4 -20 4 -26l-56 -17q-19 -5 -30.5 -24t-11.5 -42v-624z" />
    <glyph glyph-name="nacute" unicode="&#x144;" horiz-adv-x="710" 
d="M296 621l-22 34q110 82 191 185l62 -74q-132 -104 -231 -145zM46 0q-3 24 -3 29l47 19q31 12 31 59l2 166v219h-94v39q108 22 163 22q22 0 30.5 -8t8.5 -28v-41q31 24 51 37t63.5 29t87.5 16q55 0 89.5 -12.5t51 -39.5t22 -56t5.5 -75v-102l3 -198q0 -20 18 -24l67 -15
q0 -22 -5 -36h-258q-4 19 -4 33l41 18q11 5 18.5 22t7.5 31l3 169v76q0 72 -21 100t-87 28q-74 0 -151 -36v-168l3 -185q0 -18 3.5 -25.5t14.5 -10.5l81 -17q0 -22 -6 -35h-283z" />
    <glyph glyph-name="Ncommaaccent" unicode="&#x145;" horiz-adv-x="835" 
d="M412 -292l-40 9q22 101 22 237l91 -4q-5 -118 -73 -242zM623 -24l-426 626h-6l7 -83v-243l3 -176q1 -19 5.5 -27t19.5 -13l86 -28q0 -17 -5 -32h-276q-5 23 -4 30l55 17q48 13 50 89l2 140v359q0 41 -30 53l-61 21q-2 16 2 28h206l393 -568h8l-9 108v349q0 19 -11 38
t-27 25l-61 20q0 17 4 28h254q4 -20 4 -26l-56 -17q-19 -5 -30.5 -24t-11.5 -42v-624z" />
    <glyph glyph-name="ncommaaccent" unicode="&#x146;" horiz-adv-x="710" 
d="M351 -292l-40 9q22 101 22 237l91 -4q-5 -118 -73 -242zM46 0q-3 24 -3 29l47 19q31 12 31 59l2 166v219h-94v39q108 22 163 22q22 0 30.5 -8t8.5 -28v-41q31 24 51 37t63.5 29t87.5 16q55 0 89.5 -12.5t51 -39.5t22 -56t5.5 -75v-102l3 -198q0 -20 18 -24l67 -15
q0 -22 -5 -36h-258q-4 19 -4 33l41 18q11 5 18.5 22t7.5 31l3 169v76q0 72 -21 100t-87 28q-74 0 -151 -36v-168l3 -185q0 -18 3.5 -25.5t14.5 -10.5l81 -17q0 -22 -6 -35h-283z" />
    <glyph glyph-name="Ncaron" unicode="&#x147;" horiz-adv-x="835" 
d="M419 762q-116 116 -180 149l25 37q43 -11 97.5 -38.5t71.5 -39.5q88 53 160 79l19 -34q-83 -43 -193 -153zM623 -24l-426 626h-6l7 -83v-243l3 -176q1 -19 5.5 -27t19.5 -13l86 -28q0 -17 -5 -32h-276q-5 23 -4 30l55 17q48 13 50 89l2 140v359q0 41 -30 53l-61 21
q-2 16 2 28h206l393 -568h8l-9 108v349q0 19 -11 38t-27 25l-61 20q0 17 4 28h254q4 -20 4 -26l-56 -17q-19 -5 -30.5 -24t-11.5 -42v-624z" />
    <glyph glyph-name="ncaron" unicode="&#x148;" horiz-adv-x="710" 
d="M356 603q-84 116 -163 180l34 38q58 -30 143 -106q94 80 135 106l25 -30q-95 -81 -174 -188zM46 0q-3 24 -3 29l47 19q31 12 31 59l2 166v219h-94v39q108 22 163 22q22 0 30.5 -8t8.5 -28v-41q31 24 51 37t63.5 29t87.5 16q55 0 89.5 -12.5t51 -39.5t22 -56t5.5 -75v-102
l3 -198q0 -20 18 -24l67 -15q0 -22 -5 -36h-258q-4 19 -4 33l41 18q11 5 18.5 22t7.5 31l3 169v76q0 72 -21 100t-87 28q-74 0 -151 -36v-168l3 -185q0 -18 3.5 -25.5t14.5 -10.5l81 -17q0 -22 -6 -35h-283z" />
    <glyph glyph-name="napostrophe" unicode="&#x149;" horiz-adv-x="754" 
d="M-44 544l-25 22q71 77 82 124q-21 15 -49.5 44.5t-28.5 39.5q0 16 38 53t52 37q17 0 49.5 -34.5t32.5 -56.5q0 -55 -47.5 -122t-103.5 -107zM90 0q-3 24 -3 29l47 19q31 12 31 59l2 166v219h-94v39q108 22 163 22q22 0 30.5 -8t8.5 -28v-41q31 24 51 37t63.5 29t87.5 16
q55 0 89.5 -12.5t51 -39.5t22 -56t5.5 -75v-102l3 -198q0 -20 18 -24l67 -15q0 -22 -5 -36h-258q-4 19 -4 33l41 18q11 5 18.5 22t7.5 31l3 169v76q0 72 -21 100t-87 28q-74 0 -151 -36v-168l3 -185q0 -18 3.5 -25.5t14.5 -10.5l81 -17q0 -22 -6 -35h-283z" />
    <glyph glyph-name="Eng" unicode="&#x14a;" horiz-adv-x="835" 
d="M520 -303q-47 0 -76 12l15 65q6 -4 29.5 -11.5t38.5 -7.5q117 0 117 169v59l-21 -8l-426 627h-7l8 -83v-243l3 -176q0 -19 5 -27t20 -13l85 -28q0 -16 -4 -32h-276q-5 23 -4 30l55 17q47 13 50 89l2 140v359q0 41 -30 53l-62 21q0 18 2 28h206l394 -568h7l-8 108v349
q0 19 -11 38t-27 25l-61 20q0 17 4 28h254q3 -24 3 -26l-55 -17q-19 -5 -30.5 -24t-11.5 -42v-372l4 -319q1 -102 -55 -171t-137 -69z" />
    <glyph glyph-name="eng" unicode="&#x14b;" horiz-adv-x="690" 
d="M412 -303q-47 0 -76 12l15 65q5 -4 27 -11.5t37 -7.5q45 0 61 26.5t16 88.5v479q0 72 -21 100t-87 28q-74 0 -151 -36v-168l3 -185q0 -18 3.5 -25.5t14.5 -10.5l81 -17q0 -22 -6 -35h-283q-3 24 -3 29l47 19q31 12 31 59l2 166v219h-94v39q97 22 163 22q22 0 30.5 -8
t8.5 -28v-41q31 24 51 37t63.5 29t87.5 16q55 0 89.5 -12.5t51 -39.5t22 -56t5.5 -75v-191l3 -247q1 -102 -55 -171t-137 -69z" />
    <glyph glyph-name="Omacron" unicode="&#x14c;" horiz-adv-x="824" 
d="M265 806v66h298v-66h-298zM401 -12q-170 0 -261 92t-91 257q0 172 107 291.5t270 119.5q172 0 260.5 -93t88.5 -255q0 -171 -103 -291.5t-271 -120.5zM407 51q122 0 178.5 87t56.5 231q0 141 -57 229.5t-171 88.5q-80 0 -134 -43.5t-76.5 -112.5t-22.5 -160
q0 -140 56.5 -230t169.5 -90z" />
    <glyph glyph-name="omacron" unicode="&#x14d;" horiz-adv-x="596" 
d="M146 693v65h298v-65h-298zM291 -8q-251 0 -251 272q0 113 77.5 202.5t182.5 89.5q129 0 192 -67t63 -209q0 -113 -77 -200.5t-187 -87.5zM308 54q39 0 65.5 17.5t39 49.5t17.5 66t5 79q0 231 -144 231q-133 0 -133 -218q0 -225 150 -225z" />
    <glyph glyph-name="Obreve" unicode="&#x14e;" horiz-adv-x="824" 
d="M401 -12q-170 0 -261 92t-91 257q0 172 107 291.5t270 119.5q172 0 260.5 -93t88.5 -255q0 -171 -103 -291.5t-271 -120.5zM407 51q122 0 178.5 87t56.5 231q0 141 -57 229.5t-171 88.5q-80 0 -134 -43.5t-76.5 -112.5t-22.5 -160q0 -140 56.5 -230t169.5 -90zM422 799
q-38 0 -71 12t-53.5 30.5t-30 29.5t-14.5 20l43 41q58 -55 138 -55q70 0 122 52l27 -28q-6 -12 -16 -25t-29.5 -32.5t-50 -32t-65.5 -12.5z" />
    <glyph glyph-name="obreve" unicode="&#x14f;" horiz-adv-x="596" 
d="M291 -8q-251 0 -251 272q0 113 77.5 202.5t182.5 89.5q129 0 192 -67t63 -209q0 -113 -77 -200.5t-187 -87.5zM308 54q39 0 65.5 17.5t39 49.5t17.5 66t5 79q0 231 -144 231q-133 0 -133 -218q0 -225 150 -225zM301 663q-38 0 -71 12t-53.5 30.5t-30 29.5t-14.5 20l44 41
q55 -55 137 -55q70 0 122 52l27 -27q-6 -12 -16 -25.5t-29.5 -33t-50 -32t-65.5 -12.5z" />
    <glyph glyph-name="Ohungarumlaut" unicode="&#x150;" horiz-adv-x="824" 
d="M270 774l-22 33q106 77 182 168l57 -65q-112 -90 -217 -136zM464 774l-11 40q131 47 236 117l35 -82q-141 -59 -260 -75zM401 -12q-170 0 -261 92t-91 257q0 172 107 291.5t270 119.5q172 0 260.5 -93t88.5 -255q0 -171 -103 -291.5t-271 -120.5zM407 51q122 0 178.5 87
t56.5 231q0 141 -57 229.5t-171 88.5q-80 0 -134 -43.5t-76.5 -112.5t-22.5 -160q0 -140 56.5 -230t169.5 -90z" />
    <glyph glyph-name="ohungarumlaut" unicode="&#x151;" horiz-adv-x="596" 
d="M166 614l-29 30q88 101 145 222l76 -59q-108 -134 -192 -193zM353 614l-22 34q105 76 190 187l62 -74q-128 -105 -230 -147zM291 -8q-251 0 -251 272q0 113 77.5 202.5t182.5 89.5q129 0 192 -67t63 -209q0 -113 -77 -200.5t-187 -87.5zM308 54q39 0 65.5 17.5t39 49.5
t17.5 66t5 79q0 231 -144 231q-133 0 -133 -218q0 -225 150 -225z" />
    <glyph glyph-name="OE" unicode="&#x152;" horiz-adv-x="1039" 
d="M399 -12q-169 0 -260.5 92.5t-91.5 256.5q0 172 107 291.5t270 119.5q56 0 106 -11h428v-147q-5 -2 -12 -2.5t-15 -0.5h-12q-16 88 -84 89l-198 7v-285l269 5v-66l-269 5v-64l4 -223l185 4q95 1 139 102l33 -8l-20 -153h-483q-45 -12 -96 -12zM405 51q102 0 116 59l3 170
v370q-36 37 -112 37q-80 0 -134 -43.5t-76.5 -112.5t-22.5 -160q0 -140 56.5 -230t169.5 -90z" />
    <glyph glyph-name="oe" unicode="&#x153;" horiz-adv-x="952" 
d="M709 -8q-87 0 -142.5 21t-85.5 73q-78 -93 -190 -93q-251 0 -251 271q0 112 77.5 201.5t182.5 89.5q151 0 209 -92q73 96 191 96q109 0 161.5 -70.5t52.5 -191.5v-26h-362q6 -112 55 -154.5t139 -42.5q72 0 144 18l14 -37q-29 -27 -83 -45t-112 -18zM308 55q39 0 65.5 17
t39 49.5t17.5 66t5 78.5q0 37 -3 67.5t-12.5 62t-25 52.5t-42 34.5t-61.5 13.5q-133 0 -133 -217q0 -224 150 -224zM552 321h240q0 88 -25 137t-87 49q-56 0 -91.5 -46.5t-36.5 -139.5z" />
    <glyph glyph-name="Racute" unicode="&#x154;" horiz-adv-x="739" 
d="M758 -18q-47 2 -75.5 4.5t-79.5 21.5t-85 54q-17 17 -35.5 42t-37.5 59.5t-30.5 55.5t-30.5 59.5t-21 42.5q-19 -3 -35 -3l-85 1l4 -232q0 -27 21 -33l74 -18q0 -25 -4 -36h-295q-3 24 -3 30l47 17q36 12 41 64l3 165v377q-4 26 -24 33l-73 25q0 11 5 26h328
q116 0 184 -48t68 -152q0 -62 -34 -116.5t-96 -76.5q3 -6 22.5 -40.5t33 -58t33.5 -55t36 -50.5q86 -98 151 -123zM243 372l87 1q81 0 121.5 39.5t41.5 111.5q0 70 -44.5 113t-126.5 44l-79 1v-310zM246 780l-10 37q128 45 236 117l35 -82q-141 -59 -261 -72z" />
    <glyph glyph-name="racute" unicode="&#x155;" horiz-adv-x="467" 
d="M191 621l-22 34q110 82 191 185l62 -74q-132 -104 -231 -145zM45 0q-5 22 -4 29l46 22q36 16 36 68l2 155v219h-96v41q98 21 163 21q41 0 41 -37v-52q25 36 67 63t89 27q48 0 76 -14l-25 -95q-38 19 -85 19q-65 0 -120 -36v-156l4 -192q0 -23 14 -25l111 -20
q0 -22 -5 -37h-314z" />
    <glyph glyph-name="Rcommaaccent" unicode="&#x156;" horiz-adv-x="739" 
d="M758 -18q-47 2 -75.5 4.5t-79.5 21.5t-85 54q-17 17 -35.5 42t-37.5 59.5t-30.5 55.5t-30.5 59.5t-21 42.5q-19 -3 -35 -3l-85 1l4 -232q0 -27 21 -33l74 -18q0 -25 -4 -36h-295q-3 24 -3 30l47 17q36 12 41 64l3 165v377q-4 26 -24 33l-73 25q0 11 5 26h328
q116 0 184 -48t68 -152q0 -62 -34 -116.5t-96 -76.5q3 -6 22.5 -40.5t33 -58t33.5 -55t36 -50.5q86 -98 151 -123zM243 372l87 1q81 0 121.5 39.5t41.5 111.5q0 70 -44.5 113t-126.5 44l-79 1v-310zM367 -292l-40 9q22 101 22 237l91 -4q-5 -118 -73 -242z" />
    <glyph glyph-name="rcommaaccent" unicode="&#x157;" horiz-adv-x="467" 
d="M152 -292l-40 9q22 101 22 237l91 -4q-5 -118 -73 -242zM45 0q-5 22 -4 29l46 22q36 16 36 68l2 155v219h-96v41q98 21 163 21q41 0 41 -37v-52q25 36 67 63t89 27q48 0 76 -14l-25 -95q-38 19 -85 19q-65 0 -120 -36v-156l4 -192q0 -23 14 -25l111 -20q0 -22 -5 -37
h-314z" />
    <glyph glyph-name="Rcaron" unicode="&#x158;" horiz-adv-x="739" 
d="M758 -18q-47 2 -75.5 4.5t-79.5 21.5t-85 54q-17 17 -35.5 42t-37.5 59.5t-30.5 55.5t-30.5 59.5t-21 42.5q-19 -3 -35 -3l-85 1l4 -232q0 -27 21 -33l74 -18q0 -25 -4 -36h-295q-3 24 -3 30l47 17q36 12 41 64l3 165v377q-4 26 -24 33l-73 25q0 11 5 26h328
q116 0 184 -48t68 -152q0 -62 -34 -116.5t-96 -76.5q3 -6 22.5 -40.5t33 -58t33.5 -55t36 -50.5q86 -98 151 -123zM243 372l87 1q81 0 121.5 39.5t41.5 111.5q0 70 -44.5 113t-126.5 44l-79 1v-310zM330 762q-116 116 -180 149l25 37q43 -11 97.5 -38.5t71.5 -39.5
q88 53 160 79l19 -34q-83 -43 -193 -153z" />
    <glyph glyph-name="rcaron" unicode="&#x159;" horiz-adv-x="467" 
d="M253 603q-84 116 -163 180l34 38q58 -30 143 -106q94 80 135 106l25 -30q-95 -81 -174 -188zM45 0q-5 22 -4 29l46 22q36 16 36 68l2 155v219h-96v41q98 21 163 21q41 0 41 -37v-52q25 36 67 63t89 27q48 0 76 -14l-25 -95q-38 19 -85 19q-65 0 -120 -36v-156l4 -192
q0 -23 14 -25l111 -20q0 -22 -5 -37h-314z" />
    <glyph glyph-name="Sacute" unicode="&#x15a;" horiz-adv-x="590" 
d="M232 777l-10 37q128 45 236 117l35 -82q-141 -59 -261 -72zM266 -11q-113 0 -222 53l11 160h42q32 -155 196 -155q54 0 96 36t42 88q0 39 -36.5 69t-89 53t-105 49.5t-89 73t-36.5 110.5q0 95 76 158t171 63q115 0 193 -45v-139h-34q-15 61 -59.5 92t-107.5 31
q-65 0 -104.5 -29t-39.5 -83q0 -38 38.5 -69t93 -55.5t109 -53t93 -77t38.5 -113.5q0 -72 -41.5 -122.5t-102 -72.5t-132.5 -22z" />
    <glyph glyph-name="sacute" unicode="&#x15b;" horiz-adv-x="496" 
d="M212 621l-22 34q110 82 191 185l62 -74q-132 -104 -231 -145zM232 -8q-98 0 -187 40l9 152l38 -1q5 -60 41.5 -99t103.5 -39q48 0 80 20.5t32 60.5q0 27 -29 47.5t-70 37t-82 37t-70 58.5t-29 90q0 74 58 118.5t143 44.5q95 0 169 -39l-17 -132l-30 3q-11 55 -39 85.5
t-98 30.5q-96 0 -96 -72q0 -30 30 -53t72.5 -40.5t85.5 -37.5t73 -55.5t30 -83.5q0 -60 -34.5 -100.5t-81.5 -56.5t-102 -16z" />
    <glyph glyph-name="Scircumflex" unicode="&#x15c;" horiz-adv-x="590" 
d="M154 764l-20 34q22 11 45.5 26.5t41.5 29.5t37.5 31t31 27.5t24.5 23.5l14 14q116 -116 180 -148l-26 -38q-42 12 -97 39.5t-71 38.5q-1 -1 -12 -7.5t-25 -14t-32.5 -17.5t-42.5 -20.5t-48 -18.5zM266 -11q-113 0 -222 53l11 160h42q32 -155 196 -155q54 0 96 36t42 88
q0 39 -36.5 69t-89 53t-105 49.5t-89 73t-36.5 110.5q0 95 76 158t171 63q115 0 193 -45v-139h-34q-15 61 -59.5 92t-107.5 31q-65 0 -104.5 -29t-39.5 -83q0 -38 38.5 -69t93 -55.5t109 -53t93 -77t38.5 -113.5q0 -72 -41.5 -122.5t-102 -72.5t-132.5 -22z" />
    <glyph glyph-name="scircumflex" unicode="&#x15d;" horiz-adv-x="496" 
d="M403 614q-58 30 -143 106q-90 -77 -135 -106l-25 31q98 84 174 188q85 -117 163 -180zM232 -8q-98 0 -187 40l9 152l38 -1q5 -60 41.5 -99t103.5 -39q48 0 80 20.5t32 60.5q0 27 -29 47.5t-70 37t-82 37t-70 58.5t-29 90q0 74 58 118.5t143 44.5q95 0 169 -39l-17 -132
l-30 3q-11 55 -39 85.5t-98 30.5q-96 0 -96 -72q0 -30 30 -53t72.5 -40.5t85.5 -37.5t73 -55.5t30 -83.5q0 -60 -34.5 -100.5t-81.5 -56.5t-102 -16z" />
    <glyph glyph-name="Scedilla" unicode="&#x15e;" horiz-adv-x="590" 
d="M266 -11q-113 0 -222 53l11 160h42q32 -155 196 -155q54 0 96 36t42 88q0 39 -36.5 69t-89 53t-105 49.5t-89 73t-36.5 110.5q0 95 76 158t171 63q115 0 193 -45v-139h-34q-15 61 -59.5 92t-107.5 31q-65 0 -104.5 -29t-39.5 -83q0 -38 38.5 -69t93 -55.5t109 -53t93 -77
t38.5 -113.5q0 -92 -63 -146.5t-158 -66.5l-33 -61q64 -14 92.5 -36t28.5 -64q0 -46 -42.5 -84.5t-95.5 -38.5q-51 0 -99 32l38 66q23 -16 56 -25.5t57 -7.5q36 5 36 27q0 28 -35.5 44.5t-100.5 28.5l49 115h-6z" />
    <glyph glyph-name="scedilla" unicode="&#x15f;" horiz-adv-x="496" 
d="M221 -291q-51 0 -99 32l38 66q23 -16 56 -25.5t57 -7.5q36 5 36 27q0 28 -35.5 44.5t-100.5 28.5l50 118q-92 1 -178 40l9 152l38 -1q5 -60 41.5 -99t103.5 -39q48 0 80 20.5t32 60.5q0 27 -29 47.5t-70 37t-82 37t-70 58.5t-29 90q0 74 58 118.5t143 44.5q95 0 169 -39
l-17 -132l-30 3q-11 55 -39 85.5t-98 30.5q-96 0 -96 -72q0 -30 30 -53t72.5 -40.5t85.5 -37.5t73 -55.5t30 -83.5q0 -77 -51.5 -119.5t-126.5 -51.5l-34 -62q64 -14 92.5 -36t28.5 -64q0 -46 -42.5 -84.5t-95.5 -38.5z" />
    <glyph glyph-name="Scaron" unicode="&#x160;" horiz-adv-x="590" 
d="M307 762q-116 116 -180 149l25 37q43 -11 97.5 -38.5t71.5 -39.5q88 53 160 79l19 -34q-83 -43 -193 -153zM266 -11q-113 0 -222 53l11 160h42q32 -155 196 -155q54 0 96 36t42 88q0 39 -36.5 69t-89 53t-105 49.5t-89 73t-36.5 110.5q0 95 76 158t171 63q115 0 193 -45
v-139h-34q-15 61 -59.5 92t-107.5 31q-65 0 -104.5 -29t-39.5 -83q0 -38 38.5 -69t93 -55.5t109 -53t93 -77t38.5 -113.5q0 -72 -41.5 -122.5t-102 -72.5t-132.5 -22z" />
    <glyph glyph-name="scaron" unicode="&#x161;" horiz-adv-x="496" 
d="M255 603q-84 116 -163 180l34 38q58 -30 143 -106q94 80 135 106l25 -30q-95 -81 -174 -188zM232 -8q-98 0 -187 40l9 152l38 -1q5 -60 41.5 -99t103.5 -39q48 0 80 20.5t32 60.5q0 27 -29 47.5t-70 37t-82 37t-70 58.5t-29 90q0 74 58 118.5t143 44.5q95 0 169 -39
l-17 -132l-30 3q-11 55 -39 85.5t-98 30.5q-96 0 -96 -72q0 -30 30 -53t72.5 -40.5t85.5 -37.5t73 -55.5t30 -83.5q0 -60 -34.5 -100.5t-81.5 -56.5t-102 -16z" />
    <glyph glyph-name="Tcommaaccent" unicode="&#x162;" horiz-adv-x="654" 
d="M302 -292l-40 9q22 101 22 237l91 -4q-5 -118 -73 -242zM160 0q-5 23 -4 33l72 19q17 5 27.5 25.5t11.5 45.5l3 143v415l-149 -2q-65 0 -85 -105q-13 -1 -32 3v160h646v-160q-18 -4 -31 -3q-20 104 -96 105l-140 2v-415l5 -168q0 -24 5 -33.5t20 -13.5l85 -18
q0 -15 -3 -33h-335z" />
    <glyph glyph-name="tcommaaccent" unicode="&#x163;" horiz-adv-x="442" 
d="M234 -292l-40 9q22 101 22 237l91 -4q-5 -118 -73 -242zM286 -10q-98 0 -138 34t-39 131l3 337h-80v24l174 142h18v-112h183v-54h-183v-218l3 -132q1 -38 20 -57.5t62 -19.5q57 0 106 12l11 -37q-61 -50 -140 -50z" />
    <glyph glyph-name="tcommaaccent" unicode="&#x21b;" horiz-adv-x="442" 
d="M234 -292l-40 9q22 101 22 237l91 -4q-5 -118 -73 -242zM286 -10q-98 0 -138 34t-39 131l3 337h-80v24l174 142h18v-112h183v-54h-183v-218l3 -132q1 -38 20 -57.5t62 -19.5q57 0 106 12l11 -37q-61 -50 -140 -50z" />
    <glyph glyph-name="Tcaron" unicode="&#x164;" horiz-adv-x="654" 
d="M321 762q-116 116 -180 149l25 37q43 -11 97.5 -38.5t71.5 -39.5q88 53 160 79l19 -34q-83 -43 -193 -153zM160 0q-5 23 -4 33l72 19q17 5 27.5 25.5t11.5 45.5l3 143v415l-149 -2q-65 0 -85 -105q-13 -1 -32 3v160h646v-160q-18 -4 -31 -3q-20 104 -96 105l-140 2v-415
l5 -168q0 -24 5 -33.5t20 -13.5l85 -18q0 -15 -3 -33h-335z" />
    <glyph glyph-name="tcaron" unicode="&#x165;" horiz-adv-x="442" 
d="M353 619l-40 9q22 101 22 237l91 -4q-5 -118 -73 -242zM286 -10q-98 0 -138 34t-39 131l3 337h-80v24l174 142h18v-112h183v-54h-183v-218l3 -132q1 -38 20 -57.5t62 -19.5q57 0 106 12l11 -37q-61 -50 -140 -50z" />
    <glyph glyph-name="Tbar" unicode="&#x166;" horiz-adv-x="654" 
d="M160 0q-5 23 -4 33l72 19q17 5 27.5 25.5t11.5 45.5l3 143v86h-149v54h149v275l-149 -2q-65 0 -85 -105q-13 -1 -32 3v160h646v-160q-18 -4 -31 -3q-20 104 -96 105l-140 2v-275h156v-54h-156v-86l5 -168q0 -24 5 -33.5t20 -13.5l85 -18q0 -15 -3 -33h-335z" />
    <glyph glyph-name="tbar" unicode="&#x167;" horiz-adv-x="442" 
d="M286 -11q-98 0 -138 34t-39 131l1 129h-68v56h68l2 153h-80v24l174 142h18v-112h183v-54h-183v-153h130v-56h-130l3 -142q2 -77 82 -77q57 0 106 12l11 -36q-62 -51 -140 -51z" />
    <glyph glyph-name="Utilde" unicode="&#x168;" horiz-adv-x="795" 
d="M396 -12q-46 0 -84 5.5t-77 22.5t-65.5 44.5t-43.5 74.5t-17 109v391q0 46 -30 55l-60 20q0 11 4 27h293q3 -22 2 -31l-60 -14q-27 -6 -27 -34v-411q0 -104 56.5 -153t131.5 -49q178 0 178 226v356q0 53 -57 70l-42 13q0 22 1 27h266q3 -15 3 -29l-50 -16
q-28 -11 -28 -44v-377q0 -59 -18.5 -108t-48.5 -81t-69 -53.5t-79 -31t-79 -9.5zM496 786q-24 0 -93.5 22t-87.5 22q-34 0 -64 -24l-20 21q53 82 102 82q27 0 101 -20t93 -20q29 0 53 18l20 -21q-43 -80 -104 -80z" />
    <glyph glyph-name="utilde" unicode="&#x169;" horiz-adv-x="692" 
d="M263 -8q-50 0 -82 12t-47.5 37.5t-20.5 52t-5 66.5v332h-88v38q98 24 149 24q50 0 50 -45v-232l2 -98q1 -54 14.5 -81t59.5 -27q34 0 81.5 15t72.5 29l3 157v220h-93v37q95 25 152 25q50 0 50 -45v-236l4 -204h100l3 -29q-78 -46 -140 -46q-77 0 -77 83
q-29 -25 -51 -40.5t-59.5 -30t-77.5 -14.5zM417 658q-24 0 -93.5 21.5t-87.5 21.5q-36 0 -64 -24l-20 21q54 83 102 83q27 0 101 -20.5t93 -20.5q27 0 52 18l20 -21q-15 -30 -41.5 -54.5t-61.5 -24.5z" />
    <glyph glyph-name="Umacron" unicode="&#x16a;" horiz-adv-x="795" 
d="M396 -12q-46 0 -84 5.5t-77 22.5t-65.5 44.5t-43.5 74.5t-17 109v391q0 46 -30 55l-60 20q0 11 4 27h293q3 -22 2 -31l-60 -14q-27 -6 -27 -34v-411q0 -104 56.5 -153t131.5 -49q178 0 178 226v356q0 53 -57 70l-42 13q0 22 1 27h266q3 -15 3 -29l-50 -16
q-28 -11 -28 -44v-377q0 -59 -18.5 -108t-48.5 -81t-69 -53.5t-79 -31t-79 -9.5zM255 806v66h298v-66h-298z" />
    <glyph glyph-name="umacron" unicode="&#x16b;" horiz-adv-x="692" 
d="M263 -8q-50 0 -82 12t-47.5 37.5t-20.5 52t-5 66.5v332h-88v38q98 24 149 24q50 0 50 -45v-232l2 -98q1 -54 14.5 -81t59.5 -27q34 0 81.5 15t72.5 29l3 157v220h-93v37q95 25 152 25q50 0 50 -45v-236l4 -204h100l3 -29q-78 -46 -140 -46q-77 0 -77 83
q-29 -25 -51 -40.5t-59.5 -30t-77.5 -14.5zM184 693v65h298v-65h-298z" />
    <glyph glyph-name="Ubreve" unicode="&#x16c;" horiz-adv-x="795" 
d="M396 -12q-46 0 -84 5.5t-77 22.5t-65.5 44.5t-43.5 74.5t-17 109v391q0 46 -30 55l-60 20q0 11 4 27h293q3 -22 2 -31l-60 -14q-27 -6 -27 -34v-411q0 -104 56.5 -153t131.5 -49q178 0 178 226v356q0 53 -57 70l-42 13q0 22 1 27h266q3 -15 3 -29l-50 -16
q-28 -11 -28 -44v-377q0 -59 -18.5 -108t-48.5 -81t-69 -53.5t-79 -31t-79 -9.5zM417 799q-38 0 -71 12t-53.5 30.5t-30 29.5t-14.5 20l43 41q58 -55 138 -55q70 0 122 52l27 -28q-6 -12 -16 -25t-29.5 -32.5t-50 -32t-65.5 -12.5z" />
    <glyph glyph-name="ubreve" unicode="&#x16d;" horiz-adv-x="692" 
d="M263 -8q-50 0 -82 12t-47.5 37.5t-20.5 52t-5 66.5v332h-88v38q98 24 149 24q50 0 50 -45v-232l2 -98q1 -54 14.5 -81t59.5 -27q34 0 81.5 15t72.5 29l3 157v220h-93v37q95 25 152 25q50 0 50 -45v-236l4 -204h100l3 -29q-78 -46 -140 -46q-77 0 -77 83
q-29 -25 -51 -40.5t-59.5 -30t-77.5 -14.5zM333 663q-38 0 -71 12t-53.5 30.5t-30 29.5t-14.5 20l44 41q55 -55 137 -55q70 0 122 52l27 -27q-6 -12 -16 -25.5t-29.5 -33t-50 -32t-65.5 -12.5z" />
    <glyph glyph-name="Uring" unicode="&#x16e;" horiz-adv-x="795" 
d="M399 -12q-63 0 -111.5 11t-90.5 38t-64.5 78.5t-22.5 125.5v395q0 17 -8 32.5t-21 19.5l-61 21q0 13 4 28h258q4 -21 3 -35l-29 -7q-24 -6 -24 -35v-417q0 -101 55.5 -149.5t129.5 -48.5q82 0 131 53t49 169v422q-45 -24 -110 -24q-19 0 -38.5 4t-44 15t-40 36.5
t-15.5 61.5q0 59 51.5 100.5t115.5 41.5q66 0 109.5 -31t43.5 -86l-1 -8l-88 -9q0 1 0.5 7.5t0.5 11.5q0 34 -21 55.5t-55 21.5q-35 0 -56.5 -23.5t-21.5 -62.5q0 -38 22 -63t61 -25q11 0 21.5 0.5t22 2t18.5 2.5t20 4.5t17.5 4t20.5 6t18.5 6t21.5 7t21 7.5v-484
q0 -71 -27.5 -127t-72 -88t-94 -48.5t-98.5 -16.5z" />
    <glyph glyph-name="uring" unicode="&#x16f;" horiz-adv-x="692" 
d="M321 611q-133 0 -133 106q0 56 45 91.5t102 35.5q47 0 84 -25.5t47 -79.5l-71 -32q-1 37 -22 66.5t-55 29.5q-31 0 -48.5 -19.5t-17.5 -48.5q0 -39 21 -59.5t55 -20.5q42 0 72 24l24 -25q-41 -43 -103 -43zM263 -8q-50 0 -82 12t-47.5 37.5t-20.5 52t-5 66.5v332h-88v38
q98 24 149 24q50 0 50 -45v-232l2 -98q1 -54 14.5 -81t59.5 -27q34 0 81.5 15t72.5 29l3 157v220h-93v37q95 25 152 25q50 0 50 -45v-236l4 -204h100l3 -29q-78 -46 -140 -46q-77 0 -77 83q-29 -25 -51 -40.5t-59.5 -30t-77.5 -14.5z" />
    <glyph glyph-name="Uhungarumlaut" unicode="&#x170;" horiz-adv-x="795" 
d="M396 -12q-46 0 -84 5.5t-77 22.5t-65.5 44.5t-43.5 74.5t-17 109v391q0 46 -30 55l-60 20q0 11 4 27h293q3 -22 2 -31l-60 -14q-27 -6 -27 -34v-411q0 -104 56.5 -153t131.5 -49q178 0 178 226v356q0 53 -57 70l-42 13q0 22 1 27h266q3 -15 3 -29l-50 -16
q-28 -11 -28 -44v-377q0 -59 -18.5 -108t-48.5 -81t-69 -53.5t-79 -31t-79 -9.5zM249 774l-22 33q106 77 182 168l57 -65q-112 -90 -217 -136zM443 774l-11 40q131 47 236 117l35 -82q-141 -59 -260 -75z" />
    <glyph glyph-name="uhungarumlaut" unicode="&#x171;" horiz-adv-x="692" 
d="M263 -8q-50 0 -82 12t-47.5 37.5t-20.5 52t-5 66.5v332h-88v38q98 24 149 24q50 0 50 -45v-232l2 -98q1 -54 14.5 -81t59.5 -27q34 0 81.5 15t72.5 29l3 157v220h-93v37q95 25 152 25q50 0 50 -45v-236l4 -204h100l3 -29q-78 -46 -140 -46q-77 0 -77 83
q-29 -25 -51 -40.5t-59.5 -30t-77.5 -14.5zM186 614l-29 30q88 101 145 222l76 -59q-108 -134 -192 -193zM373 614l-22 34q105 76 190 187l62 -74q-128 -105 -230 -147z" />
    <glyph glyph-name="Uogonek" unicode="&#x172;" horiz-adv-x="795" 
d="M461 -264q-62 0 -96 28t-34 75q0 76 96 152q-17 -3 -31 -3q-46 0 -84 5.5t-77 22.5t-65.5 44.5t-43.5 74.5t-17 109v391q0 46 -30 55l-60 20q0 11 4 27h293q3 -22 2 -31l-60 -14q-27 -6 -27 -34v-411q0 -104 56.5 -153t131.5 -49q178 0 178 226v356q0 53 -57 70l-42 13
q0 22 1 27h266q3 -15 3 -29l-50 -16q-28 -11 -28 -44v-377q0 -58 -15 -102.5t-39 -71.5t-53 -48t-58 -38.5t-53 -36t-39 -47t-15 -65.5q0 -35 18 -56.5t50 -21.5q33 0 70 28l19 -46q-47 -30 -114 -30z" />
    <glyph glyph-name="uogonek" unicode="&#x173;" horiz-adv-x="692" 
d="M545 -264q-62 0 -95.5 28t-33.5 75q0 79 101 155q-66 7 -66 83q-29 -25 -51 -40.5t-59.5 -30t-77.5 -14.5q-50 0 -82 12t-47.5 37.5t-20.5 52t-5 66.5v332h-88v38q96 24 149 24q50 0 50 -44v-232l2 -99q1 -54 14.5 -81t59.5 -27q34 0 81.5 15t72.5 29l3 157v220h-93v37
q100 25 152 25q50 0 50 -45v-236l4 -204h100l3 -29q-66 -26 -116.5 -73t-49.5 -105q1 -35 19 -56.5t49 -21.5q33 0 70 28l19 -46q-47 -30 -114 -30z" />
    <glyph glyph-name="Wcircumflex" unicode="&#x174;" horiz-adv-x="1095" 
d="M398 764l-20 34q22 11 45.5 26.5t41.5 29.5t37.5 31t31 27.5t24.5 23.5l14 14q116 -116 180 -148l-26 -38q-42 12 -97 39.5t-71 38.5q-1 -1 -12 -7.5t-25 -14t-32.5 -17.5t-42.5 -20.5t-48 -18.5zM720 -23l-164 480l-209 -456l-68 -22l-191 662q-10 34 -29 44l-49 27
q0 9 4 25h276q4 -22 4 -28l-49 -17q-28 -10 -28 -50q0 -15 5 -35l105 -402l19 -86h3l36 87l145 325l-39 122q-6 21 -22 32l-44 28v24h265q4 -21 4 -27q-3 -1 -24 -9.5t-22 -8.5q-28 -12 -28 -59q0 -16 5 -33l135 -408l22 -77h2l22 78l128 413q7 20 7 38q0 30 -25 42l-52 23
q0 13 5 28h218q3 -23 3 -27l-36 -18q-29 -16 -47 -64l-215 -628z" />
    <glyph glyph-name="wcircumflex" unicode="&#x175;" horiz-adv-x="893" 
d="M593 614q-58 30 -143 106q-90 -77 -135 -106l-25 31q98 84 174 188q85 -117 163 -180zM585 -21l-149 413l-150 -393l-72 -20l-142 451q-17 56 -49 79q0 23 5 37h220l-4 -44h-73l108 -384l152 418l65 20l155 -441l109 337q6 18 -0.5 31.5t-19.5 17.5l-38 12q-1 14 1 33
h167q0 -25 -2 -29l-6 -5q-7 -6 -14 -13t-16 -21.5t-15 -33.5l-157 -447z" />
    <glyph glyph-name="Ycircumflex" unicode="&#x176;" horiz-adv-x="679" 
d="M177 0q-4 21 -3 36l60 16q18 5 29.5 20.5t11.5 38.5l3 186l-203 341q-7 11 -14 20.5t-16 18.5t-13.5 13t-15.5 13t-13 10q0 17 2 24h264q4 -18 3 -28l-47 -17q-21 -8 -21 -34q0 -22 12 -43l143 -262l148 265q11 24 4 41t-23 26l-51 25q-2 15 2 27h223q4 -16 4 -26
q-19 -9 -29.5 -15.5t-23.5 -18.5t-22 -28l-200 -343l3 -202q0 -41 29 -48l77 -21q0 -17 -5 -35h-318zM176 764l-20 34q22 11 45.5 26.5t41.5 29.5t37.5 31t31 27.5t24.5 23.5l14 14q116 -116 180 -148l-26 -38q-42 12 -97 39.5t-71 38.5q-1 -1 -12 -7.5t-25 -14t-32.5 -17.5
t-42.5 -20.5t-48 -18.5z" />
    <glyph glyph-name="ycircumflex" unicode="&#x177;" horiz-adv-x="575" 
d="M117 -316l-57 91q64 26 100.5 62t60.5 90l23 49l-164 462q-16 50 -53 74q0 23 4 34h221q0 -35 -3 -44h-66l129 -406l125 332q7 18 7 34q0 30 -23 38l-35 13q-2 21 2 33h166q0 -19 -2 -26q-28 -24 -57 -96l-215 -532q-31 -78 -66 -123.5t-97 -84.5zM445 614
q-58 30 -143 106q-90 -77 -135 -106l-25 31q98 84 174 188q86 -117 163 -180z" />
    <glyph glyph-name="Ydieresis" unicode="&#x178;" horiz-adv-x="679" 
d="M177 0q-4 21 -3 36l60 16q18 5 29.5 20.5t11.5 38.5l3 186l-203 341q-7 11 -14 20.5t-16 18.5t-13.5 13t-15.5 13t-13 10q0 17 2 24h264q4 -18 3 -28l-47 -17q-21 -8 -21 -34q0 -22 12 -43l143 -262l148 265q11 24 4 41t-23 26l-51 25q-2 15 2 27h223q4 -16 4 -26
q-19 -9 -29.5 -15.5t-23.5 -18.5t-22 -28l-200 -343l3 -202q0 -41 29 -48l77 -21q0 -17 -5 -35h-318zM239 775q-10 0 -39 29t-29 39q0 11 29 39.5t39 28.5t39.5 -29t29.5 -39q0 -9 -29 -38.5t-40 -29.5zM457 775q-10 0 -38.5 29t-28.5 39q0 11 29 39.5t38 28.5q10 0 40 -29
t30 -39q0 -9 -29.5 -38.5t-40.5 -29.5z" />
    <glyph glyph-name="Zacute" unicode="&#x179;" horiz-adv-x="618" 
d="M238 780l-10 37q128 45 236 117l35 -82q-141 -59 -261 -72zM48 0l-20 64l398 616l-256 -5q-58 -8 -75 -103q-16 -2 -41 2v163h507l15 -48l-406 -627l264 7q85 4 121 110l39 -10l-21 -169h-525z" />
    <glyph glyph-name="zacute" unicode="&#x17a;" horiz-adv-x="520" 
d="M202 621l-22 34q110 82 191 185l62 -74q-132 -104 -231 -145zM40 0l-17 45l337 413h-221q-8 0 -15.5 -2t-14.5 -7t-12.5 -9.5t-12 -12.5t-9.5 -12t-9.5 -12t-7.5 -10q-13 4 -28 11l38 142h387l10 -57l-322 -401h209q60 0 113 91l32 -10l-30 -169h-427z" />
    <glyph glyph-name="Zdotaccent" unicode="&#x17b;" horiz-adv-x="618" 
d="M48 0l-20 64l398 616l-256 -5q-58 -8 -75 -103q-16 -2 -41 2v163h507l15 -48l-406 -627l264 7q85 4 121 110l39 -10l-21 -169h-525zM322 784q-11 0 -41 30.5t-30 41.5q0 12 30 42t41 30t41.5 -30.5t30.5 -41.5q0 -9 -30.5 -40.5t-41.5 -31.5z" />
    <glyph glyph-name="zdotaccent" unicode="&#x17c;" horiz-adv-x="520" 
d="M40 0l-17 45l337 413h-221q-8 0 -15.5 -2t-14.5 -7t-12.5 -9.5t-12 -12.5t-9.5 -12t-9.5 -12t-7.5 -10q-13 4 -28 11l38 142h387l10 -57l-322 -401h209q60 0 113 91l32 -10l-30 -169h-427zM268 684q-13 0 -46.5 34.5t-33.5 46.5q0 13 34 46.5t46 33.5q11 0 46.5 -34
t35.5 -46q0 -11 -34.5 -46t-47.5 -35z" />
    <glyph glyph-name="Zcaron" unicode="&#x17d;" horiz-adv-x="618" 
d="M318 762q-116 116 -180 149l25 37q43 -11 97.5 -38.5t71.5 -39.5q88 53 160 79l19 -34q-83 -43 -193 -153zM48 0l-20 64l398 616l-256 -5q-58 -8 -75 -103q-16 -2 -41 2v163h507l15 -48l-406 -627l264 7q85 4 121 110l39 -10l-21 -169h-525z" />
    <glyph glyph-name="zcaron" unicode="&#x17e;" horiz-adv-x="520" 
d="M256 603q-84 116 -163 180l34 38q58 -30 143 -106q94 80 135 106l25 -30q-95 -81 -174 -188zM40 0l-17 45l337 413h-221q-8 0 -15.5 -2t-14.5 -7t-12.5 -9.5t-12 -12.5t-9.5 -12t-9.5 -12t-7.5 -10q-13 4 -28 11l38 142h387l10 -57l-322 -401h209q60 0 113 91l32 -10
l-30 -169h-427z" />
    <glyph glyph-name="longs" unicode="&#x17f;" horiz-adv-x="397" 
d="M37 0q-3 14 -3 30l42 16q44 16 44 65l2 165v216h-80v37l80 17v99q0 80 64.5 152t146.5 72q62 0 98 -18t36 -50q0 -25 -12.5 -38t-38.5 -26q-50 73 -87 73q-96 0 -96 -131v-403l6 -190q0 -21 20 -25l88 -24q0 -22 -5 -37h-305z" />
    <glyph glyph-name="uni018F" unicode="&#x18f;" horiz-adv-x="773" 
d="M365 -12q-154 0 -239 94.5t-85 257.5v44h550q-1 125 -63 209.5t-182 84.5q-110 0 -222 -60l-30 53q125 77 276 77q183 0 268.5 -87.5t85.5 -265.5q0 -166 -101 -286.5t-258 -120.5zM371 51q45 0 81.5 16t60 42.5t40 63t24.5 74t12 79.5h-414q2 -53 13 -98.5t32 -87
t60 -65.5t91 -24z" />
    <glyph glyph-name="florin" unicode="&#x192;" horiz-adv-x="578" 
d="M135 -87q-37 0 -57 12.5t-20 35.5q0 22 7 34h127q21 42 21 98l4 162h-96v54h98l4 84q4 81 69.5 147.5t134.5 66.5q54 0 84.5 -15t30.5 -43q0 -31 -39 -50q-53 49 -78 62q-86 -3 -90 -130l-3 -122h115v-54h-117l-6 -147q-2 -72 -66 -133.5t-123 -61.5z" />
    <glyph glyph-name="uni01D3" unicode="&#x1d3;" horiz-adv-x="795" 
d="M403 762q-116 116 -180 149l25 37q43 -11 97.5 -38.5t71.5 -39.5q88 53 160 79l19 -34q-83 -43 -193 -153zM396 -12q-46 0 -84 5.5t-77 22.5t-65.5 44.5t-43.5 74.5t-17 109v391q0 46 -30 55l-60 20q0 11 4 27h293q3 -22 2 -31l-60 -14q-27 -6 -27 -34v-411
q0 -104 56.5 -153t131.5 -49q178 0 178 226v356q0 53 -57 70l-42 13q0 22 1 27h266q3 -15 3 -29l-50 -16q-28 -11 -28 -44v-377q0 -59 -18.5 -108t-48.5 -81t-69 -53.5t-79 -31t-79 -9.5z" />
    <glyph glyph-name="uni01D4" unicode="&#x1d4;" horiz-adv-x="692" 
d="M314 603q-84 116 -163 180l34 38q58 -30 143 -106q94 80 135 106l25 -30q-95 -81 -174 -188zM263 -8q-50 0 -82 12t-47.5 37.5t-20.5 52t-5 66.5v332h-88v38q98 24 149 24q50 0 50 -45v-232l2 -98q1 -54 14.5 -81t59.5 -27q34 0 81.5 15t72.5 29l3 157v220h-93v37
q95 25 152 25q50 0 50 -45v-236l4 -204h100l3 -29q-78 -46 -140 -46q-77 0 -77 83q-29 -25 -51 -40.5t-59.5 -30t-77.5 -14.5z" />
    <glyph glyph-name="AEmacron" unicode="&#x1e2;" horiz-adv-x="1008" 
d="M9 0q-3 9 -3 30l22 15q37 24 61 60l379 632h462v-147q-5 -2 -12 -2.5t-15 -0.5h-12q-16 88 -84 89l-198 7v-285l269 5v-66l-269 5v-64l4 -223l185 4q95 1 139 102l33 -8l-20 -153h-534q-4 25 -3 34l38 16q42 18 42 59l3 171v63h-197l-129 -218q-31 -53 44 -77l51 -18
q0 -17 -4 -30h-252zM331 397h165v286zM545 806v66h298v-66h-298z" />
    <glyph glyph-name="aemacron" unicode="&#x1e3;" horiz-adv-x="864" 
d="M620 -8q-90 0 -148.5 24t-87.5 82q-110 -106 -214 -106q-60 0 -97 33t-37 90q0 40 16.5 70.5t47 48.5t62 28.5t72.5 16.5q48 7 119 14v93q0 52 -31 74t-100 22q-62 0 -135 -20l-13 39q99 56 190 56q139 0 176 -69q71 71 169 71q110 0 163 -68t53 -188v-26l-360 -21
q10 -182 192 -182q68 0 144 17l14 -36q-30 -28 -83.5 -45.5t-111.5 -17.5zM218 76q58 0 155 46q-19 57 -21 124q-55 -2 -103 -14q-100 -23 -100 -90q0 -27 17 -46.5t52 -19.5zM462 304l241 23q0 180 -108 180q-128 0 -133 -203zM283 693v65h298v-65h-298z" />
    <glyph glyph-name="AEacute" unicode="&#x1fc;" horiz-adv-x="1008" 
d="M602 780l-10 37q128 45 236 117l35 -82q-141 -59 -261 -72zM9 0q-3 9 -3 30l22 15q37 24 61 60l379 632h462v-147q-5 -2 -12 -2.5t-15 -0.5h-12q-16 88 -84 89l-198 7v-285l269 5v-66l-269 5v-64l4 -223l185 4q95 1 139 102l33 -8l-20 -153h-534q-4 25 -3 34l38 16
q42 18 42 59l3 171v63h-197l-129 -218q-31 -53 44 -77l51 -18q0 -17 -4 -30h-252zM331 397h165v286z" />
    <glyph glyph-name="aeacute" unicode="&#x1fd;" horiz-adv-x="864" 
d="M367 621l-22 34q110 82 191 185l62 -74q-132 -104 -231 -145zM620 -8q-90 0 -148.5 24t-87.5 82q-110 -106 -214 -106q-60 0 -97 33t-37 90q0 40 16.5 70.5t47 48.5t62 28.5t72.5 16.5q48 7 119 14v93q0 52 -31 74t-100 22q-62 0 -135 -20l-13 39q99 56 190 56
q139 0 176 -69q71 71 169 71q110 0 163 -68t53 -188v-26l-360 -21q10 -182 192 -182q68 0 144 17l14 -36q-30 -28 -83.5 -45.5t-111.5 -17.5zM218 76q58 0 155 46q-19 57 -21 124q-55 -2 -103 -14q-100 -23 -100 -90q0 -27 17 -46.5t52 -19.5zM462 304l241 23
q0 180 -108 180q-128 0 -133 -203z" />
    <glyph glyph-name="Oslashacute" unicode="&#x1fe;" horiz-adv-x="823" 
d="M66 -21l-35 33q30 29 90 89q-72 89 -72 236q0 172 107 291.5t270 119.5q157 0 246 -80q59 66 67 76l36 -32q-12 -14 -36.5 -41.5t-33.5 -37.5q70 -88 70 -233q0 -171 -103 -291.5t-271 -120.5q-153 0 -245 78q-14 -13 -29 -28t-33 -32t-28 -27zM213 191q211 211 381 393
q-60 103 -180 103q-80 0 -134 -43.5t-76.5 -112.5t-22.5 -160q0 -104 32 -180zM407 51q122 0 178.5 87t56.5 231q0 97 -27 167q-190 -203 -379 -391q59 -94 171 -94zM320 780l-10 37q128 45 236 117l35 -82q-141 -59 -261 -72z" />
    <glyph glyph-name="oslashacute" unicode="&#x1ff;" horiz-adv-x="596" 
d="M51 -36l-34 30q11 11 23.5 24.5t27.5 30t23 25.5q-51 68 -51 190q0 112 77.5 201.5t182.5 89.5q107 0 168 -45q28 34 62 76l34 -30q-41 -53 -63 -79q54 -64 54 -197q0 -112 -77 -199.5t-187 -87.5q-107 0 -168 49q-24 -28 -72 -78zM308 55q39 0 65.5 17t39 49.5t17.5 66
t5 78.5q0 69 -13 116q-127 -150 -230 -265q38 -62 116 -62zM173 165q144 164 230 267q-34 64 -112 64q-133 0 -133 -217q0 -61 15 -114zM225 621l-22 34q110 82 191 185l62 -74q-132 -104 -231 -145z" />
    <glyph glyph-name="Scommaaccent" unicode="&#x218;" horiz-adv-x="590" 
d="M268 -292l-40 9q22 101 22 237l91 -4q-5 -118 -73 -242zM266 -11q-113 0 -222 53l11 160h42q32 -155 196 -155q54 0 96 36t42 88q0 39 -36.5 69t-89 53t-105 49.5t-89 73t-36.5 110.5q0 95 76 158t171 63q115 0 193 -45v-139h-34q-15 61 -59.5 92t-107.5 31
q-65 0 -104.5 -29t-39.5 -83q0 -38 38.5 -69t93 -55.5t109 -53t93 -77t38.5 -113.5q0 -72 -41.5 -122.5t-102 -72.5t-132.5 -22z" />
    <glyph glyph-name="scommaaccent" unicode="&#x219;" horiz-adv-x="496" 
d="M226 -292l-40 9q22 101 22 237l91 -4q-5 -118 -73 -242zM232 -8q-98 0 -187 40l9 152l38 -1q5 -60 41.5 -99t103.5 -39q48 0 80 20.5t32 60.5q0 27 -29 47.5t-70 37t-82 37t-70 58.5t-29 90q0 74 58 118.5t143 44.5q95 0 169 -39l-17 -132l-30 3q-11 55 -39 85.5
t-98 30.5q-96 0 -96 -72q0 -30 30 -53t72.5 -40.5t85.5 -37.5t73 -55.5t30 -83.5q0 -60 -34.5 -100.5t-81.5 -56.5t-102 -16z" />
    <glyph glyph-name="uni021A" unicode="&#x21a;" horiz-adv-x="654" 
d="M305 -292l-40 9q22 101 22 237l91 -4q-5 -118 -73 -242zM160 0q-5 23 -4 33l72 19q17 5 27.5 25.5t11.5 45.5l3 143v415l-149 -2q-65 0 -85 -105q-13 -1 -32 3v160h646v-160q-18 -4 -31 -3q-20 104 -96 105l-140 2v-415l5 -168q0 -24 5 -33.5t20 -13.5l85 -18
q0 -15 -3 -33h-335z" />
    <glyph glyph-name="Ymacron" unicode="&#x232;" horiz-adv-x="679" 
d="M177 0q-4 21 -3 36l60 16q18 5 29.5 20.5t11.5 38.5l3 186l-203 341q-7 11 -14 20.5t-16 18.5t-13.5 13t-15.5 13t-13 10q0 17 2 24h264q4 -18 3 -28l-47 -17q-21 -8 -21 -34q0 -22 12 -43l143 -262l148 265q11 24 4 41t-23 26l-51 25q-2 15 2 27h223q4 -16 4 -26
q-19 -9 -29.5 -15.5t-23.5 -18.5t-22 -28l-200 -343l3 -202q0 -41 29 -48l77 -21q0 -17 -5 -35h-318zM190 806v66h298v-66h-298z" />
    <glyph glyph-name="ymacron" unicode="&#x233;" horiz-adv-x="575" 
d="M117 -316l-57 91q64 26 100.5 62t60.5 90l23 49l-164 462q-16 50 -53 74q0 23 4 34h221q0 -35 -3 -44h-66l129 -406l125 332q7 18 7 34q0 30 -23 38l-35 13q-2 21 2 33h166q0 -19 -2 -26q-28 -24 -57 -96l-215 -532q-31 -78 -66 -123.5t-97 -84.5zM155 693v65h298v-65
h-298z" />
    <glyph glyph-name="schwa" unicode="&#x259;" horiz-adv-x="553" 
d="M243 558q139 0 204.5 -59t65.5 -209q0 -125 -73.5 -213t-187.5 -88q-109 0 -161 71t-52 192v26h362q-6 112 -55.5 155t-138.5 43q-67 0 -145 -19l-14 38q30 27 83.5 45t111.5 18zM401 228h-240q0 -89 24 -138t86 -49q56 0 92.5 47t37.5 140z" />
    <glyph glyph-name="h.superior" unicode="&#x2b0;" horiz-adv-x="483" 
d="M30 453q-4 17 -3 33l32 13q20 8 20 38l2 99v277h-63v37q60 15 113 15q26 0 26 -23v-163q61 47 132 47q40 0 64 -8t34.5 -27t13.5 -37t3 -50v-68l3 -119q0 -15 11 -16l44 -10q0 -25 -3 -38h-175q-4 19 -2 36l26 12q8 3 12.5 13.5t4.5 20.5l2 101v49q0 45 -12 63t-54 18
q-26 0 -57 -7.5t-46 -15.5v-107l2 -110q0 -22 12 -24l49 -12q0 -22 -3 -37h-188z" />
    <glyph glyph-name="j.superior" unicode="&#x2b2;" horiz-adv-x="247" 
d="M42 309q-34 0 -59 9l8 51q20 -5 44 -5q30 0 41 17t11 58v332h-63v40q62 16 111 16q29 0 29 -28v-163l3 -178q1 -65 -31 -107t-94 -42zM123 876q-11 0 -33.5 23t-22.5 34q0 12 22.5 34.5t33.5 22.5q12 0 35 -23t23 -34q0 -10 -23 -33.5t-35 -23.5z" />
    <glyph glyph-name="r.superior" unicode="&#x2b3;" horiz-adv-x="326" 
d="M29 453q-5 20 -3 33l31 14q24 12 24 43l2 94v134h-63v41q65 14 110 14q28 0 28 -25v-29q14 22 42 38t59 16q34 0 56 -10l-20 -73q-23 12 -51 12q-61 0 -84 -23v-95l2 -114q0 -16 9 -17l77 -14q0 -27 -4 -39h-215z" />
    <glyph glyph-name="w.superior" unicode="&#x2b7;" horiz-adv-x="593" 
d="M389 439l-96 261l-94 -246l-58 -14l-94 297q-10 31 -36 44q0 25 4 38h157l-3 -42h-49l64 -232l93 265l56 15l98 -281l64 204q8 20 -14 30l-22 9q0 25 3 32h127q0 -26 -2 -30l-7 -5q-8 -6 -17.5 -19.5t-16.5 -32.5l-100 -279z" />
    <glyph glyph-name="y.superior" unicode="&#x2b8;" horiz-adv-x="389" 
d="M112 294l-46 64q44 22 68 56q4 2 14.5 18.5t11.5 17.5l-110 294q-12 26 -45 38q0 24 4 37h163q0 -36 -2 -42h-48l85 -244l76 201q10 31 -15 42q-1 1 -10 4l-9 2q0 30 2 37h130q0 -26 -4 -36q-26 -13 -41 -52l-140 -342q-25 -60 -84 -95z" />
    <glyph glyph-name="circumflex" unicode="&#x2c6;" horiz-adv-x="540" 
d="M398 614q-58 30 -143 106q-90 -77 -135 -106l-25 31q98 84 174 188q85 -117 163 -180z" />
    <glyph glyph-name="caron" unicode="&#x2c7;" horiz-adv-x="540" 
d="M262 603q-84 116 -163 180l34 38q58 -30 143 -106q94 80 135 106l25 -30q-95 -81 -174 -188z" />
    <glyph glyph-name="breve" unicode="&#x2d8;" horiz-adv-x="500" 
d="M254 663q-38 0 -71 12t-53.5 30.5t-30 29.5t-14.5 20l44 41q55 -55 137 -55q70 0 122 52l27 -27q-6 -12 -16 -25.5t-29.5 -33t-50 -32t-65.5 -12.5z" />
    <glyph glyph-name="dotaccent" unicode="&#x2d9;" horiz-adv-x="356" 
d="M184 684q-13 0 -46.5 34.5t-33.5 46.5q0 13 34 46.5t46 33.5q11 0 46.5 -34t35.5 -46q0 -11 -34.5 -46t-47.5 -35z" />
    <glyph glyph-name="ring" unicode="&#x2da;" horiz-adv-x="444" 
d="M217 622q-17 0 -32.5 2.5t-40 11t-39.5 31.5t-15 57q0 54 36.5 84t87.5 30q125 0 125 -104q0 -49 -39 -80.5t-83 -31.5zM216 655q27 0 42.5 21t15.5 53q0 33 -17 54t-44 21q-28 0 -43 -20t-15 -53q0 -35 16.5 -55.5t44.5 -20.5z" />
    <glyph glyph-name="ogonek" unicode="&#x2db;" horiz-adv-x="565" 
d="M369 -264q-62 0 -95.5 28t-33.5 75q0 64 65.5 124.5t141.5 90.5l35 -21q-65 -21 -110 -69t-45 -102q0 -34 18 -56t49 -22q34 0 71 28l19 -46q-49 -30 -115 -30z" />
    <glyph glyph-name="tilde" unicode="&#x2dc;" horiz-adv-x="540" 
d="M351 658q-24 0 -93.5 21.5t-87.5 21.5q-36 0 -64 -24l-20 21q54 83 102 83q27 0 101 -20.5t93 -20.5q27 0 52 18l20 -21q-15 -30 -41.5 -54.5t-61.5 -24.5z" />
    <glyph glyph-name="hungarumlaut" unicode="&#x2dd;" horiz-adv-x="568" 
d="M119 614l-29 30q88 101 145 222l76 -59q-108 -134 -192 -193zM306 614l-22 34q105 76 190 187l62 -74q-128 -105 -230 -147z" />
    <glyph glyph-name="x.superior" unicode="&#x2e3;" horiz-adv-x="393" 
d="M12 454q-4 11 -4 33q25 9 43 28l104 116l-92 123q-13 18 -45 31q0 31 1 34h158q0 -36 -3 -42h-37l71 -98l56 67q6 7 7 16t-6 14l-19 13q0 23 2 30h128q0 -25 -3 -31q-25 -9 -46 -33l-94 -109l98 -122q15 -19 52 -35q0 -27 -3 -35h-157q-3 10 -3 32l7 3q8 5 11 14t-5 24
l-49 68l-65 -81q-10 -15 3 -17l36 -7q0 -26 -4 -36h-142z" />
    <glyph glyph-name="uni0374" unicode="&#x374;" horiz-adv-x="327" 
d="M103 553l-25 22q71 77 82 124q-21 15 -49.5 44.5t-28.5 39.5q0 16 38 53t52 37q17 0 49.5 -34.5t32.5 -56.5q0 -55 -47.5 -122t-103.5 -107z" />
    <glyph glyph-name="uni0375" unicode="&#x375;" horiz-adv-x="327" 
d="M100 -192l-26 21q72 80 83 124q-21 14 -50 44.5t-29 40.5q0 15 38.5 52t51.5 37q18 0 50.5 -34t32.5 -56q0 -55 -47.5 -122t-103.5 -107z" />
    <glyph glyph-name="uni037E" unicode="&#x37e;" horiz-adv-x="432" 
d="M149 -192l-26 22q71 74 84 123q-22 14 -51 44.5t-29 40.5q0 15 38.5 52.5t52.5 37.5q18 0 50 -34.5t32 -57.5q0 -54 -47.5 -121t-103.5 -107zM207 393q-14 0 -51.5 38.5t-37.5 52.5q0 15 38 52t51 37q14 0 52.5 -37.5t38.5 -51.5q0 -13 -38 -52t-53 -39z" />
    <glyph glyph-name="tonos" unicode="&#x384;" horiz-adv-x="568" 
d="M196 609l-39 27q65 103 107 228l93 -56q-54 -96 -161 -199z" />
    <glyph glyph-name="dieresistonos" unicode="&#x385;" horiz-adv-x="520" 
d="M111 629q-10 0 -39 29t-29 39q0 11 29 39.5t39 28.5t39.5 -29t29.5 -39q0 -9 -29.5 -38.5t-39.5 -29.5zM405 629q-10 0 -39 29t-29 39q0 11 29 39.5t39 28.5t39.5 -29t29.5 -39q0 -9 -29.5 -38.5t-39.5 -29.5zM226 626l-40 27q63 98 107 228l94 -56q-52 -92 -161 -199z
" />
    <glyph glyph-name="Alphatonos" unicode="&#x386;" horiz-adv-x="745" 
d="M22 0q-3 8 -3 30l22 17q27 20 43 58l263 631l82 29l224 -646q18 -51 48 -75l17 -15q0 -17 -5 -29h-285q-3 21 -3 29l67 20q31 9 31 51q0 14 -5 29l-54 176h-234l-70 -180q-21 -55 44 -77l51 -18q0 -17 -4 -30h-229zM251 359h196l-60 198l-24 86h-6l-29 -84zM15 511
l-34 22q66 107 105 228l90 -52q-52 -91 -161 -198z" />
    <glyph glyph-name="anoteleia" unicode="&#x387;" horiz-adv-x="287" 
d="M146 267q-14 0 -52 38.5t-38 52.5q0 15 38.5 52t51.5 37q14 0 52.5 -37.5t38.5 -51.5q0 -13 -38 -52t-53 -39z" />
    <glyph glyph-name="Epsilontonos" unicode="&#x388;" horiz-adv-x="650" 
d="M-159 511l-34 22q66 107 105 228l90 -52q-52 -91 -161 -198zM30 0q-4 25 -3 34l60 16q40 12 42 59l2 171v362q0 36 -29 46l-67 23q-1 10 4 26h527v-147q-7 -2 -23 -2l-16 -1q-16 88 -84 89l-199 7v-285l269 5v-66l-269 5v-64l5 -223l184 4q97 1 139 102l34 -8l-21 -153
h-555z" />
    <glyph glyph-name="Etatonos" unicode="&#x389;" horiz-adv-x="859" 
d="M35 0q-5 22 -4 30l55 19q19 7 30.5 29t12.5 47l2 154v351q0 50 -35 61l-64 18q0 13 4 28h289q4 -17 4 -30l-54 -14q-19 -6 -25.5 -16t-6.5 -31v-249h368v223q0 23 -11 44t-30 27l-49 18q0 21 2 28h285q0 -24 -1 -31l-54 -14q-17 -5 -23.5 -13.5t-6.5 -28.5v-372l3 -178
q0 -39 24 -45l76 -19q0 -22 -5 -36h-302q-4 19 -3 33l44 14q25 7 37 31t12 49l2 152v63h-368v-64l4 -179q1 -34 29 -43l80 -22q0 -19 -5 -34h-316zM-159 511l-34 22q66 107 105 228l90 -52q-52 -91 -161 -198z" />
    <glyph glyph-name="Iotatonos" unicode="&#x38a;" horiz-adv-x="370" 
d="M36 0q-4 18 -3 30l51 19q37 14 39 67l2 162v343q0 58 -46 73l-44 15q-2 12 2 28h285q4 -18 3 -30l-42 -11q-45 -10 -45 -73v-345l3 -185q1 -21 7 -29.5t23 -12.5l71 -17q0 -20 -5 -34h-301zM-159 511l-34 22q66 107 105 228l90 -52q-52 -91 -161 -198z" />
    <glyph glyph-name="Omicrontonos" unicode="&#x38c;" horiz-adv-x="824" 
d="M-79 511l-34 22q66 107 105 228l90 -52q-52 -91 -161 -198zM401 -12q-170 0 -261 92t-91 257q0 172 107 291.5t270 119.5q172 0 260.5 -93t88.5 -255q0 -171 -103 -291.5t-271 -120.5zM407 51q122 0 178.5 87t56.5 231q0 141 -57 229.5t-171 88.5q-80 0 -134 -43.5
t-76.5 -112.5t-22.5 -160q0 -140 56.5 -230t169.5 -90z" />
    <glyph glyph-name="Upsilontonos" unicode="&#x38e;" horiz-adv-x="667" 
d="M171 0q-5 24 -4 35l66 18q18 5 29 21t11 36v120q0 84 -37.5 191.5t-96.5 186.5t-112 79q-5 0 -13.5 0.5t-14.5 -0.5l-7 29q60 31 108 31q93 0 153 -101t93 -307h4q44 207 116.5 307t153.5 100q38 0 53 -8l-8 -59q-6 1 -20 1q-57 0 -119.5 -83t-101 -190.5t-38.5 -184.5
v-113q0 -20 9 -35t23 -19l78 -21q0 -19 -4 -34h-321zM-183 511l-34 22q66 107 105 228l90 -52q-52 -91 -161 -198z" />
    <glyph glyph-name="Omegatonos" unicode="&#x38f;" horiz-adv-x="820" 
d="M-80 511l-34 22q66 107 105 228l90 -52q-52 -91 -161 -198zM36 0v100l206 -38l1 6q-86 35 -139.5 110t-53.5 197q0 156 108 264t263 108q176 0 264 -94.5t88 -261.5q0 -110 -63 -194t-153 -126l2 -4l230 33v-100h-294l-16 66q156 109 156 311q0 143 -54.5 226.5
t-170.5 83.5q-63 0 -109 -24.5t-72 -68.5t-37.5 -97t-11.5 -118q0 -114 41 -182t122 -123l-19 -74h-288z" />
    <glyph glyph-name="iotadieresistonos" unicode="&#x390;" horiz-adv-x="322" 
d="M11 629q-10 0 -39 29t-29 39q0 11 29 39.5t39 28.5t39.5 -29t29.5 -39q0 -9 -29.5 -38.5t-39.5 -29.5zM305 629q-10 0 -39 29t-29 39q0 11 29 39.5t39 28.5t39.5 -29t29.5 -39q0 -9 -29.5 -38.5t-39.5 -29.5zM126 626l-40 27q63 98 107 228l94 -56q-52 -92 -161 -199z
M180 -7q-55 0 -75 29.5t-18 89.5l2 159v71l-5 204h118l-4 -204v-69l4 -142q1 -38 12 -53.5t36 -15.5q19 0 51 8l8 -36q-56 -41 -129 -41z" />
    <glyph glyph-name="Alpha" unicode="&#x391;" horiz-adv-x="745" 
d="M22 0q-3 8 -3 30l22 17q27 20 43 58l263 631l82 29l224 -646q18 -51 48 -75l17 -15q0 -17 -5 -29h-285q-3 21 -3 29l67 20q31 9 31 51q0 14 -5 29l-54 176h-234l-70 -180q-21 -55 44 -77l51 -18q0 -17 -4 -30h-229zM251 359h196l-60 198l-24 86h-6l-29 -84z" />
    <glyph glyph-name="Beta" unicode="&#x392;" horiz-adv-x="695" 
d="M30 0q-4 25 -3 33l59 16q18 5 30 20.5t12 37.5l3 179v358q0 35 -32 45l-61 22q-2 15 2 26h299q252 0 252 -175q0 -60 -35.5 -99.5t-81.5 -58.5v-3q19 -3 38.5 -9t44 -19.5t43 -32t31 -48.5t12.5 -67q0 -99 -67.5 -162t-205.5 -63h-340zM248 55h112q76 0 116.5 39.5
t40.5 113.5t-47 110t-150 36h-76v-70zM244 408h89q131 0 133 141q0 135 -156 135h-66v-276z" />
    <glyph glyph-name="Gamma" unicode="&#x393;" horiz-adv-x="568" 
d="M37 0q-4 13 -1 30l53 17q37 11 39 63l3 169v359q0 40 -29 50l-65 23q-1 11 2 26h513v-157q-17 -5 -36 -1q-9 44 -28.5 67.5t-63.5 26.5l-181 9v-405l4 -176q0 -19 4 -28t20 -12l111 -23q0 -27 -4 -38h-341z" />
    <glyph glyph-name="uni0394" unicode="&#x394;" horiz-adv-x="737" 
d="M66 0l-25 52l277 682l83 27l274 -701l-40 -60h-569zM118 67l416 3l-177 490l-21 80h-7l-26 -78z" />
    <glyph glyph-name="Epsilon" unicode="&#x395;" horiz-adv-x="650" 
d="M30 0q-4 25 -3 34l60 16q40 12 42 59l2 171v362q0 36 -29 46l-67 23q-1 10 4 26h527v-147q-7 -2 -23 -2l-16 -1q-16 88 -84 89l-199 7v-285l269 5v-66l-269 5v-64l5 -223l184 4q97 1 139 102l34 -8l-21 -153h-555z" />
    <glyph glyph-name="Zeta" unicode="&#x396;" horiz-adv-x="618" 
d="M48 0l-20 64l398 616l-256 -5q-58 -8 -75 -103q-16 -2 -41 2v163h507l15 -48l-406 -627l264 7q85 4 121 110l39 -10l-21 -169h-525z" />
    <glyph glyph-name="Eta" unicode="&#x397;" horiz-adv-x="859" 
d="M28 0q-5 22 -4 30l55 19q19 7 30.5 29t12.5 47l2 154v351q0 50 -35 61l-64 18q0 13 4 28h289q4 -17 4 -30l-54 -14q-19 -6 -25.5 -16t-6.5 -31v-249h368v223q0 23 -11 44t-30 27l-49 18q0 21 2 28h285q0 -24 -1 -31l-54 -14q-17 -5 -23.5 -13.5t-6.5 -28.5v-372l3 -178
q0 -39 24 -45l76 -19q0 -22 -5 -36h-302q-4 19 -3 33l44 14q25 7 37 31t12 49l2 152v63h-368v-64l4 -179q1 -34 29 -43l80 -22q0 -19 -5 -34h-316z" />
    <glyph glyph-name="Theta" unicode="&#x398;" horiz-adv-x="824" 
d="M563 337l-302 5v56l302 5v-66zM401 -12q-170 0 -261 92t-91 257q0 172 107 291.5t270 119.5q172 0 260.5 -93t88.5 -255q0 -171 -103 -291.5t-271 -120.5zM407 51q122 0 178.5 87t56.5 231q0 141 -57 229.5t-171 88.5q-80 0 -134 -43.5t-76.5 -112.5t-22.5 -160
q0 -140 56.5 -230t169.5 -90z" />
    <glyph glyph-name="Iota" unicode="&#x399;" horiz-adv-x="370" 
d="M36 0q-4 18 -3 30l51 19q37 14 39 67l2 162v343q0 58 -46 73l-44 15q-2 12 2 28h285q4 -18 3 -30l-42 -11q-45 -10 -45 -73v-345l3 -185q1 -21 7 -29.5t23 -12.5l71 -17q0 -20 -5 -34h-301z" />
    <glyph glyph-name="Kappa" unicode="&#x39a;" horiz-adv-x="739" 
d="M26 0q-3 21 -3 29l61 21q37 13 39 66l2 162v350q0 50 -31 62l-59 19q-2 12 2 28h280q3 -22 3 -26l-46 -18q-36 -14 -36 -68v-341l3 -188q0 -35 22 -42l59 -20q0 -20 -5 -34h-291zM716 -11q-146 0 -216 81l-252 288v17l240 242q26 26 26 44q0 23 -25 32l-43 14q0 15 4 30
h227v-30l-323 -300l219 -247q83 -93 152 -137z" />
    <glyph glyph-name="Lambda" unicode="&#x39b;" horiz-adv-x="724" 
d="M23 0q-4 11 -4 30l23 17q28 22 42 58l254 631l78 27l218 -644q17 -50 47 -75l18 -15q0 -12 -5 -29h-285q-4 18 -3 29l66 20q31 8 31 51q0 17 -4 29l-124 417l-23 87h-6l-29 -84l-156 -424q-10 -26 2 -46.5t41 -30.5l51 -18q0 -17 -4 -30h-228z" />
    <glyph glyph-name="Mu" unicode="&#x39c;" horiz-adv-x="1038" 
d="M453 -22l-207 621h-5l-6 -67l-65 -435q-5 -29 12 -35l91 -29q0 -21 -4 -33h-250q-4 19 -4 29l36 18q21 10 35.5 33t18.5 48l84 505q3 18 -5.5 34t-23.5 21l-64 21q0 12 4 28h220l145 -422l51 -166h9l54 156l161 432h201q3 -24 3 -27l-48 -16q-47 -13 -38 -79l72 -514
q6 -35 36 -47l48 -22q0 -16 -4 -32h-285q-3 22 -3 30l40 12q40 12 40 78q0 3 -3 36l-41 366l-7 70h-6l-209 -588z" />
    <glyph glyph-name="Nu" unicode="&#x39d;" horiz-adv-x="835" 
d="M623 -24l-426 626h-6l7 -83v-243l3 -176q1 -19 5.5 -27t19.5 -13l86 -28q0 -17 -5 -32h-276q-5 23 -4 30l55 17q48 13 50 89l2 140v359q0 41 -30 53l-61 21q-2 16 2 28h206l393 -568h8l-9 108v349q0 19 -11 38t-27 25l-61 20q0 17 4 28h254q4 -20 4 -26l-56 -17
q-19 -5 -30.5 -24t-11.5 -42v-624z" />
    <glyph glyph-name="Xi" unicode="&#x39e;" horiz-adv-x="687" 
d="M101 567q-24 -3 -44 1v169h572v-166q-18 -4 -43 -1q-9 46 -29.5 70.5t-53.5 23.5l-326 -4q-33 -1 -50 -23.5t-26 -69.5zM63 0l-21 171l43 9q17 -50 42 -78.5t74 -27.5l281 5q87 1 119 106l44 -9l-20 -176h-562zM545 336l-403 7v71l403 7v-85z" />
    <glyph glyph-name="Omicron" unicode="&#x39f;" horiz-adv-x="824" 
d="M401 -12q-170 0 -261 92t-91 257q0 172 107 291.5t270 119.5q172 0 260.5 -93t88.5 -255q0 -171 -103 -291.5t-271 -120.5zM407 51q122 0 178.5 87t56.5 231q0 141 -57 229.5t-171 88.5q-80 0 -134 -43.5t-76.5 -112.5t-22.5 -160q0 -140 56.5 -230t169.5 -90z" />
    <glyph glyph-name="Pi" unicode="&#x3a0;" horiz-adv-x="839" 
d="M36 0q-5 23 -5 30l55 20q20 6 31 28t12 47l2 154v351q0 51 -35 61l-64 18q0 17 4 28h752q1 -17 -1 -31l-54 -14q-17 -5 -23.5 -13t-6.5 -29v-372l4 -178q0 -39 23 -45l76 -19q0 -22 -5 -36h-302q-4 25 -3 33l45 14q24 7 36 31t12 49l2 152v398h-348v-399l4 -179
q1 -34 30 -43l79 -22q0 -19 -5 -34h-315z" />
    <glyph glyph-name="Rho" unicode="&#x3a1;" horiz-adv-x="648" 
d="M37 0q-3 24 -3 30l54 17q39 12 41 63l3 173v360q0 35 -27 44l-70 24q-1 11 4 26h353q111 0 173.5 -53.5t62.5 -161.5q0 -105 -74.5 -174.5t-210.5 -69.5h-33v50l24 1q83 3 126.5 47t43.5 124q0 75 -39.5 127t-118.5 53l-102 2v-399l4 -187q0 -32 24 -37l101 -25
q0 -22 -4 -34h-332z" />
    <glyph glyph-name="Sigma" unicode="&#x3a3;" horiz-adv-x="607" 
d="M46 0l-20 63l222 298l-213 318l17 58h511v-147q-17 -5 -39 -3q-17 91 -84 92l-259 5l180 -274l-242 -324l313 5q32 1 54.5 18t32 35.5t20.5 49.5q16 0 43 -9l-23 -185h-513z" />
    <glyph glyph-name="Tau" unicode="&#x3a4;" horiz-adv-x="654" 
d="M160 0q-5 23 -4 33l72 19q17 5 27.5 25.5t11.5 45.5l3 143v415l-149 -2q-65 0 -85 -105q-13 -1 -32 3v160h646v-160q-18 -4 -31 -3q-20 104 -96 105l-140 2v-415l5 -168q0 -24 5 -33.5t20 -13.5l85 -18q0 -15 -3 -33h-335z" />
    <glyph glyph-name="Upsilon" unicode="&#x3a5;" horiz-adv-x="667" 
d="M171 0q-5 24 -4 35l66 18q18 5 29 21t11 36v120q0 84 -37.5 191.5t-96.5 186.5t-112 79q-5 0 -13.5 0.5t-14.5 -0.5l-7 29q60 31 108 31q93 0 153 -101t93 -307h4q44 207 116.5 307t153.5 100q38 0 53 -8l-8 -59q-6 1 -20 1q-57 0 -119.5 -83t-101 -190.5t-38.5 -184.5
v-113q0 -20 9 -35t23 -19l78 -21q0 -19 -4 -34h-321z" />
    <glyph glyph-name="Phi" unicode="&#x3a6;" horiz-adv-x="804" 
d="M558 0h-302q-3 20 -2 30l51 19q39 15 39 59v24q-139 1 -222 55.5t-83 169.5q0 113 86.5 183t219.5 77v14q-2 48 -46 63l-44 15q-2 12 2 28h286q3 -19 2 -30l-42 -11q-44 -10 -44 -72v-6q143 -2 224.5 -57.5t81.5 -167.5q0 -109 -81.5 -180.5t-224.5 -79.5v-40
q1 -20 8 -29t25 -13l71 -17q0 -20 -5 -34zM459 181q92 4 133.5 58.5t41.5 140.5q0 83 -44 134.5t-131 55.5v-389zM345 181v388q-87 -4 -131 -58.5t-44 -138.5q0 -82 43 -135t132 -56z" />
    <glyph glyph-name="Chi" unicode="&#x3a7;" horiz-adv-x="709" 
d="M8 0q-4 23 -3 30l34 18q45 25 86 80l175 231l-173 263q-5 8 -11 15.5t-14 14.5t-13 12t-15 12.5t-13.5 10t-15 11t-13.5 9.5q-6 11 -2 30h261q3 -26 3 -31l-39 -17q-11 -4 -12 -19t11 -33l121 -181l132 175q11 13 10.5 31t-12.5 24l-42 22q0 19 2 29h221q1 -9 -1 -30
q-70 -23 -111 -78l-165 -223l189 -284q21 -31 41.5 -48t63.5 -44q0 -19 -4 -30h-275q-3 21 -3 30l38 22q16 9 16 25q0 15 -11 31l-130 199l-141 -192q-11 -14 -11 -31q0 -21 14 -27l57 -27q-2 -24 -4 -30h-241z" />
    <glyph glyph-name="Psi" unicode="&#x3a8;" horiz-adv-x="860" 
d="M297 0q-3 20 -2 30l50 19q38 14 40 67l1 89q-283 8 -283 256v174q0 20 -8 36t-22 20l-59 19q0 18 3 27h208v-285q0 -93 45.5 -137t115.5 -50l1 359q0 56 -45 75l-27 10q-2 12 2 28h250q3 -20 3 -30l-34 -8q-36 -9 -36 -73v-362q80 5 125.5 53t45.5 159v261h168
q2 -10 2 -30l-48 -14q-28 -7 -28 -45v-165q0 -75 -23.5 -130.5t-63.5 -85t-83.5 -44t-93.5 -16.5l2 -114q0 -21 6 -29.5t23 -12.5l71 -17q0 -19 -4 -34h-302z" />
    <glyph glyph-name="uni03A9" unicode="&#x3a9;" horiz-adv-x="820" 
d="M36 0v100l206 -38l1 6q-86 35 -139.5 110t-53.5 197q0 156 108 264t263 108q176 0 264 -94.5t88 -261.5q0 -110 -63 -194t-153 -126l2 -4l230 33v-100h-294l-16 66q156 109 156 311q0 143 -54.5 226.5t-170.5 83.5q-63 0 -109 -24.5t-72 -68.5t-37.5 -97t-11.5 -118
q0 -114 41 -182t122 -123l-19 -74h-288z" />
    <glyph glyph-name="Iotadieresis" unicode="&#x3aa;" horiz-adv-x="370" 
d="M36 0q-4 18 -3 30l51 19q37 14 39 67l2 162v343q0 58 -46 73l-44 15q-2 12 2 28h285q4 -18 3 -30l-42 -11q-45 -10 -45 -73v-345l3 -185q1 -21 7 -29.5t23 -12.5l71 -17q0 -20 -5 -34h-301zM79 775q-10 0 -39 29t-29 39q0 11 29 39.5t39 28.5t39.5 -29t29.5 -39
q0 -9 -29 -38.5t-40 -29.5zM283 775q-10 0 -39 29t-29 39q0 11 29 39.5t39 28.5t39.5 -29t29.5 -39q0 -9 -29 -38.5t-40 -29.5z" />
    <glyph glyph-name="Upsilondieresis" unicode="&#x3ab;" horiz-adv-x="667" 
d="M171 0q-5 24 -4 35l66 18q18 5 29 21t11 36v120q0 84 -37.5 191.5t-96.5 186.5t-112 79q-5 0 -13.5 0.5t-14.5 -0.5l-7 29q60 31 108 31q93 0 153 -101t93 -307h4q44 207 116.5 307t153.5 100q38 0 53 -8l-8 -59q-6 1 -20 1q-57 0 -119.5 -83t-101 -190.5t-38.5 -184.5
v-113q0 -20 9 -35t23 -19l78 -21q0 -19 -4 -34h-321zM247 775q-10 0 -39 29t-29 39q0 11 29 39.5t39 28.5t39.5 -29t29.5 -39q0 -9 -29 -38.5t-40 -29.5zM451 775q-10 0 -39 29t-29 39q0 11 29 39.5t39 28.5t39.5 -29t29.5 -39q0 -9 -29 -38.5t-40 -29.5z" />
    <glyph glyph-name="alphatonos" unicode="&#x3ac;" horiz-adv-x="668" 
d="M305 609l-39 27q65 103 107 228l93 -56q-54 -96 -161 -199zM446 67l-12 73q-104 -145 -207 -145q-84 0 -135.5 66.5t-51.5 192.5q0 122 70 212t168 90q93 0 136 -51t64 -147q28 82 49 188h108q-72 -185 -134 -298l29 -129q8 -34 18.5 -46t27.5 -12q2 0 51 7l7 -33
q-61 -43 -113 -43q-36 0 -52.5 19t-22.5 56zM269 71q74 0 151 150l-9 53q-17 109 -45.5 167.5t-81.5 58.5q-64 0 -96.5 -60t-32.5 -161q0 -79 28 -143.5t86 -64.5z" />
    <glyph glyph-name="epsilontonos" unicode="&#x3ad;" horiz-adv-x="530" 
d="M280 609l-39 27q65 103 107 228l93 -56q-54 -96 -161 -199zM274 -9q-45 0 -83.5 7t-73 23.5t-54 47.5t-19.5 75q0 50 29.5 88t81.5 60q-43 16 -68 44t-25 65q0 52 38 89.5t87.5 52.5t100.5 15q28 0 55.5 -2.5t63.5 -10.5t58.5 -26.5t22.5 -46.5q0 -18 -13 -35t-33 -24
q-75 96 -157 96q-50 0 -79.5 -24.5t-29.5 -74.5q0 -35 19.5 -57.5t51.5 -30.5q52 11 96 11q10 -13 10 -36q0 -21 -13 -38q-67 0 -105 9q-67 -20 -67 -101q0 -52 35 -77t87 -25q44 0 96 19t89 45l25 -38q-43 -45 -103.5 -72.5t-122.5 -27.5z" />
    <glyph glyph-name="etatonos" unicode="&#x3ae;" horiz-adv-x="621" 
d="M323 609l-39 27q65 103 107 228l93 -56q-54 -96 -161 -199zM418 -294l5 354v289q0 72 -16 100.5t-70 28.5q-67 0 -125 -37v-150l4 -291h-119l5 286v162q0 27 -7.5 36.5t-25.5 9.5q-12 0 -34 -2l-7 38q66 26 131 26q51 0 51 -49v-30q25 25 43 39.5t51 28t71 13.5
q89 0 123 -47.5t34 -135.5v-315l6 -354h-120z" />
    <glyph glyph-name="iotatonos" unicode="&#x3af;" horiz-adv-x="322" 
d="M124 609l-39 27q65 103 107 228l93 -56q-54 -96 -161 -199zM180 -7q-55 0 -75 29.5t-18 89.5l2 159v71l-5 204h118l-4 -204v-69l4 -142q1 -38 12 -53.5t36 -15.5q19 0 51 8l8 -36q-56 -41 -129 -41z" />
    <glyph glyph-name="upsilondieresistonos" unicode="&#x3b0;" horiz-adv-x="622" 
d="M160 629q-10 0 -39 29t-29 39q0 11 29 39.5t39 28.5t39.5 -29t29.5 -39q0 -9 -29.5 -38.5t-39.5 -29.5zM454 629q-10 0 -39 29t-29 39q0 11 29 39.5t39 28.5t39.5 -29t29.5 -39q0 -9 -29.5 -38.5t-39.5 -29.5zM275 626l-40 27q63 98 107 228l94 -56q-52 -92 -161 -199z
M220 506v-323q0 -60 29 -93t87 -33q77 0 108.5 56t31.5 158q0 168 -95 241q27 44 77 44q41 0 69 -34t39.5 -81.5t11.5 -102.5q0 -65 -15 -124.5t-45 -110t-81.5 -80.5t-117.5 -30q-96 0 -152.5 47.5t-56.5 148.5v267q0 38 -32 38q-13 0 -35 -2l-7 38q68 25 132 25
q52 0 52 -49z" />
    <glyph glyph-name="alpha" unicode="&#x3b1;" horiz-adv-x="668" 
d="M446 67l-12 73q-104 -145 -207 -145q-84 0 -135.5 66.5t-51.5 192.5q0 122 70 212t168 90q93 0 136 -51t64 -147q28 82 49 188h108q-72 -185 -134 -298l29 -129q8 -34 18.5 -46t27.5 -12q2 0 51 7l7 -33q-61 -43 -113 -43q-36 0 -52.5 19t-22.5 56zM269 71q74 0 151 150
l-9 53q-17 109 -45.5 167.5t-81.5 58.5q-64 0 -96.5 -60t-32.5 -161q0 -79 28 -143.5t86 -64.5z" />
    <glyph glyph-name="beta" unicode="&#x3b2;" horiz-adv-x="626" 
d="M84 -294l4 569v324q0 108 69 189.5t173 81.5q91 0 149 -53t58 -141q0 -61 -38.5 -115t-94.5 -78q80 -18 131 -82.5t51 -146.5q0 -109 -75.5 -188t-182.5 -79q-67 0 -129 17l6 -298h-121zM318 52q69 0 108.5 46t39.5 130q0 82 -52 137.5t-125 57.5l-9 46q146 42 146 195
q0 66 -29.5 108.5t-78.5 42.5q-57 0 -88 -44.5t-31 -114.5v-579q71 -25 119 -25z" />
    <glyph glyph-name="gamma" unicode="&#x3b3;" horiz-adv-x="547" 
d="M319 -294q-32 -10 -64 -10q-31 0 -51 10q-3 21 -3 53q0 23 1 36q2 63 17 116q-30 249 -149 537q-8 19 -19 28t-17.5 10t-20.5 1q-7 0 -19 -4l-13 31q53 43 114 43q55 0 76 -52q79 -188 118 -435q137 305 137 404q0 33 -14 56q24 27 64 27q24 0 41 -16.5t17 -42.5
q0 -34 -39 -127t-102 -227.5t-87 -190.5q13 -120 13 -247z" />
    <glyph glyph-name="delta" unicode="&#x3b4;" horiz-adv-x="596" 
d="M291 -7q-251 0 -251 264q0 91 57.5 165.5t137.5 103.5q-59 46 -91.5 90.5t-32.5 96.5q0 66 70.5 111t142.5 45q90 0 149 -26.5t59 -79.5q0 -15 -8 -27.5t-16.5 -19t-22.5 -14.5q-74 97 -187 97q-47 0 -73 -17.5t-26 -48.5q0 -25 26.5 -54t65.5 -56.5t85.5 -64.5
t85.5 -74.5t65.5 -91t26.5 -110.5q0 -117 -78.5 -203t-184.5 -86zM304 56q76 0 109 55t33 137q0 39 -13.5 74t-44 68.5t-53 53.5t-65.5 54q-111 -51 -111 -227q0 -215 145 -215z" />
    <glyph glyph-name="epsilon" unicode="&#x3b5;" horiz-adv-x="530" 
d="M274 -9q-45 0 -83.5 7t-73 23.5t-54 47.5t-19.5 75q0 50 29.5 88t81.5 60q-43 16 -68 44t-25 65q0 52 38 89.5t87.5 52.5t100.5 15q28 0 55.5 -2.5t63.5 -10.5t58.5 -26.5t22.5 -46.5q0 -18 -13 -35t-33 -24q-75 96 -157 96q-50 0 -79.5 -24.5t-29.5 -74.5
q0 -35 19.5 -57.5t51.5 -30.5q52 11 96 11q10 -13 10 -36q0 -21 -13 -38q-67 0 -105 9q-67 -20 -67 -101q0 -52 35 -77t87 -25q44 0 96 19t89 45l25 -38q-43 -45 -103.5 -72.5t-122.5 -27.5z" />
    <glyph glyph-name="zeta" unicode="&#x3b6;" horiz-adv-x="489" 
d="M334 -258l-33 61q47 24 73 53.5t26 57.5q0 39 -56 61q-21 8 -69.5 19.5t-81.5 23.5t-70 34.5t-56.5 62t-19.5 96.5q0 80 37.5 165t95.5 154t118.5 122t117.5 86q-12 -2 -101.5 -9.5t-107.5 -7.5q-52 -1 -85 18t-33 59q0 25 15 47t40 32q44 -72 164 -74l167 -3
q11 -18 11 -43q0 -12 -4 -28q-37 -21 -88 -69.5t-103 -113.5t-88 -148t-36 -158q0 -68 37.5 -98.5t113.5 -51.5q36 -10 49.5 -14t41 -16t39 -23.5t22 -32t10.5 -45.5q0 -112 -146 -217z" />
    <glyph glyph-name="eta" unicode="&#x3b7;" horiz-adv-x="621" 
d="M418 -294l5 354v289q0 72 -16 100.5t-70 28.5q-67 0 -125 -37v-150l4 -291h-119l5 286v162q0 27 -7.5 36.5t-25.5 9.5q-12 0 -34 -2l-7 38q66 26 131 26q51 0 51 -49v-30q25 25 43 39.5t51 28t71 13.5q89 0 123 -47.5t34 -135.5v-315l6 -354h-120z" />
    <glyph glyph-name="theta" unicode="&#x3b8;" horiz-adv-x="588" 
d="M281 -10q-80 0 -133 56t-75.5 146t-22.5 211q0 98 29.5 195t89.5 165.5t134 68.5q63 0 109.5 -31.5t73.5 -88.5t40 -130.5t13 -165.5q0 -100 -28.5 -195t-89.5 -163t-140 -68zM304 54q34 0 58 33.5t35.5 90t16 107.5t4.5 107l-250 3q1 -57 7.5 -110t20.5 -108.5t42 -89
t66 -33.5zM168 441l249 4q-2 57 -8 107t-19.5 103.5t-40.5 85.5t-64 32q-109 0 -117 -332z" />
    <glyph glyph-name="iota" unicode="&#x3b9;" horiz-adv-x="333" 
d="M180 -7q-55 0 -75 29.5t-18 89.5l2 159v71l-5 204h118l-4 -204v-69l4 -142q1 -38 12 -53.5t36 -15.5q19 0 51 8l8 -36q-56 -41 -129 -41z" />
    <glyph glyph-name="kappa" unicode="&#x3ba;" horiz-adv-x="603" 
d="M536 -12q-108 0 -169 92l-117 187l-39 -40l4 -227h-118l5 273v184q0 39 -33 39q-12 0 -34 -2l-7 36q66 26 134 26q49 0 49 -46v-210l94 107q36 43 53.5 62t45.5 44t52.5 34.5t51.5 9.5q30 0 50.5 -13.5t20.5 -37.5q0 -29 -30 -54q-25 21 -63 21q-27 0 -53 -20t-73 -70
l-33 -34l144 -223q64 -90 112 -107l-6 -28q-21 -3 -41 -3z" />
    <glyph glyph-name="lambda" unicode="&#x3bb;" horiz-adv-x="525" 
d="M370 34l-116 415l-137 -449h-107l215 557l-27 93q-17 60 -57.5 89.5t-89.5 31.5l34 101q147 -3 201 -189l174 -594q11 -35 37 -35q17 0 32 3l6 -28q-51 -38 -102 -38q-48 0 -63 43z" />
    <glyph glyph-name="uni03BC" unicode="&#x3bc;" horiz-adv-x="671" 
d="M509 -7q-43 0 -64 17.5t-27 53.5q-87 -76 -168 -76q-42 0 -61 8q11 -26 13 -54l7 -236h-125l6 562v278h111l1 -363q1 -66 17 -90.5t59 -24.5q59 0 137 39l1 164v275h110v-273l3 -137q1 -69 56 -69q21 0 53 8l8 -39q-21 -16 -62 -29.5t-75 -13.5z" />
    <glyph glyph-name="nu" unicode="&#x3bd;" horiz-adv-x="555" 
d="M313 -2l-78 -23l-166 466q-10 28 -22 37t-29 9q-7 0 -19 -4l-12 31q53 43 113 43q56 0 76 -64l128 -398q59 122 89.5 203.5t30.5 140.5q0 53 -26 91q24 27 64 27q25 0 43.5 -18t18.5 -48q0 -63 -40.5 -158.5t-170.5 -334.5z" />
    <glyph glyph-name="xi" unicode="&#x3be;" horiz-adv-x="489" 
d="M327 -259l-35 62q42 23 69 54t27 53q0 25 -19 43t-49.5 30.5t-68 25.5t-74.5 31.5t-67.5 44.5t-49.5 69.5t-19 100.5q0 74 43.5 137t107.5 87q-51 21 -86 66.5t-35 101.5q0 66 38.5 118.5t94.5 78t116 25.5q68 0 118 -22t50 -66q0 -37 -41 -63q-76 83 -155 83
q-53 0 -82.5 -38t-29.5 -98q0 -54 24.5 -99.5t69.5 -59.5q78 14 105 14q3 -12 3 -29q0 -31 -12 -48q-43 0 -111 12q-43 -15 -70.5 -64.5t-27.5 -107.5q0 -64 32.5 -105t73 -56.5t91.5 -36t75 -42.5q34 -31 34 -84q0 -108 -140 -218z" />
    <glyph glyph-name="omicron" unicode="&#x3bf;" horiz-adv-x="581" 
d="M284 -8q-244 0 -244 272q0 112 76 202t177 90q248 0 248 -276q0 -112 -76 -200t-181 -88zM301 54q37 0 61.5 17.5t37 49.5t17 66.5t4.5 78.5q0 231 -138 231q-125 0 -125 -218q0 -225 143 -225z" />
    <glyph glyph-name="pi" unicode="&#x3c0;" horiz-adv-x="684" 
d="M520 -7q-54 0 -70 28.5t-14 90.5l3 159v188q-81 -2 -223 -8v-178l5 -273h-102l6 273v174q-18 -1 -53 -3t-49 -3l-3 11l52 94h556l-6 -82q-15 0 -93 -2v-189l5 -142q1 -38 12 -53.5t36 -15.5q17 0 51 8l7 -36q-54 -41 -120 -41z" />
    <glyph glyph-name="rho" unicode="&#x3c1;" horiz-adv-x="576" 
d="M178 -294h-124l3 559q1 115 66.5 202t176.5 87q237 0 237 -278q0 -69 -24.5 -132.5t-77.5 -107.5t-122 -44q-61 0 -101 26l13 45q42 -11 73 -11q28 0 49 10t33.5 29.5t20 38.5t10.5 49t4 48.5t1 47.5q0 40 -5.5 75t-18.5 69.5t-41 55t-67 20.5q-123 0 -118 -215
q0 -1 2.5 -108.5t5.5 -250.5t4 -215z" />
    <glyph glyph-name="sigma1" unicode="&#x3c2;" horiz-adv-x="510" 
d="M286 -240l-32 62q37 17 72 45t35 50q0 24 -17.5 39.5t-46 25.5t-62.5 21t-68.5 30t-63 47t-46 79t-17.5 119q0 108 78.5 194.5t190.5 86.5q27 0 53 -3t55 -10t47 -22.5t18 -38.5q0 -47 -47 -77q-70 89 -136 89q-147 0 -147 -202q0 -74 30 -120t73 -65t86 -33t73 -38
t30 -66q0 -108 -158 -213z" />
    <glyph glyph-name="sigma" unicode="&#x3c3;" horiz-adv-x="601" 
d="M275 -7q-232 0 -232 270q0 109 84.5 199t223.5 90q164 -2 239 -6l-24 -110q-6 1 -44 7t-50 7q37 -85 37 -183q0 -115 -61.5 -194.5t-172.5 -79.5zM289 53q61 0 93 59.5t32 155.5q0 103 -15 190q-34 3 -66 3q-93 0 -140.5 -42.5t-47.5 -136.5q0 -111 38 -170t106 -59z" />
    <glyph glyph-name="tau" unicode="&#x3c4;" horiz-adv-x="511" 
d="M294 -10q-134 0 -134 150q0 148 46 314q-100 -8 -196 -18l-3 11l52 99h416l-5 -75q-70 -2 -198 -11q-9 -90 -9 -278q0 -52 20 -82t60 -30q50 0 93 13l10 -32q-72 -61 -152 -61z" />
    <glyph glyph-name="upsilon" unicode="&#x3c5;" horiz-adv-x="622" 
d="M220 506v-323q0 -60 29 -93t87 -33q77 0 108.5 56t31.5 158q0 168 -95 241q27 44 77 44q41 0 69 -34t39.5 -81.5t11.5 -102.5q0 -65 -15 -124.5t-45 -110t-81.5 -80.5t-117.5 -30q-96 0 -152.5 47.5t-56.5 148.5v267q0 38 -32 38q-13 0 -35 -2l-7 38q68 25 132 25
q52 0 52 -49z" />
    <glyph glyph-name="phi" unicode="&#x3c6;" horiz-adv-x="786" 
d="M329 -294l6 287q-298 17 -298 271q0 111 91 194t219 94l6 255h71l5 -254q320 -8 320 -272q0 -111 -89 -193.5t-219 -93.5l7 -288h-119zM337 57l9 437q-66 -4 -110.5 -36.5t-63 -78t-18.5 -101.5q0 -86 48 -147.5t135 -73.5zM440 55q96 5 143 63t47 150q0 91 -50.5 155.5
t-149.5 71.5z" />
    <glyph glyph-name="chi" unicode="&#x3c7;" horiz-adv-x="535" 
d="M179 509l110 -288l117 325h101l-191 -394q155 -347 159 -358q11 -31 42 -29q24 0 30 2l5 -27q-54 -42 -111 -42q-48 0 -63 44l-129 335l-133 -371h-101l206 441l-138 309q0 1 -2.5 5.5t-3 5.5l-2.5 5t-3 5t-3.5 4.5t-4.5 4t-5 2.5t-6 2.5t-7 1t-8 0.5q-23 0 -29 -3l-7 30
q59 38 113 38q47 0 64 -48z" />
    <glyph glyph-name="psi" unicode="&#x3c8;" horiz-adv-x="768" 
d="M214 507v-287q0 -137 134 -158l15 745h73l15 -748q77 11 127 77.5t50 148.5q0 79 -25.5 132t-77.5 93q26 47 80 47q38 0 66.5 -37t42.5 -89.5t14 -108.5q0 -127 -74.5 -218t-201.5 -108l7 -290h-119l6 287q-114 7 -176.5 66.5t-62.5 166.5v226q0 39 -33 39q-12 0 -34 -2
l-7 41q66 26 131 26q50 0 50 -49z" />
    <glyph glyph-name="omega" unicode="&#x3c9;" horiz-adv-x="797" 
d="M248 -9q-99 0 -153.5 63.5t-54.5 182.5t63 207t147 111q3 1 9 1q19 0 26 -31q-68 -41 -98 -107.5t-30 -176.5q0 -70 29.5 -121.5t78.5 -51.5q29 0 54.5 21t36 39.5t13.5 30.5q-28 78 -28 200q20 13 55 13q40 0 60 -19q0 -96 -24 -178q3 -10 16 -33t41.5 -48.5t58.5 -25.5
q31 0 52.5 27.5t30 65t8.5 80.5q0 106 -31.5 171.5t-99.5 104.5q1 14 2.5 20t7.5 12.5t18 6.5q6 0 9 -1q89 -16 150.5 -96.5t61.5 -203.5q0 -118 -56.5 -191t-153.5 -73q-48 0 -89 29.5t-65 72.5q-21 -39 -59 -70.5t-86 -31.5z" />
    <glyph glyph-name="iotadieresis" unicode="&#x3ca;" horiz-adv-x="322" 
d="M53 632q-11 0 -39.5 29t-28.5 39q0 11 29 39.5t39 28.5t39.5 -29t29.5 -39q0 -9 -29.5 -38.5t-39.5 -29.5zM247 632q-10 0 -39 29t-29 39q0 11 29 39.5t39 28.5t39.5 -29t29.5 -39q0 -9 -29.5 -38.5t-39.5 -29.5zM180 -7q-55 0 -75 29.5t-18 89.5l2 159v71l-5 204h118
l-4 -204v-69l4 -142q1 -38 12 -53.5t36 -15.5q19 0 51 8l8 -36q-56 -41 -129 -41z" />
    <glyph glyph-name="upsilondieresis" unicode="&#x3cb;" horiz-adv-x="622" 
d="M220 632q-11 0 -39.5 29t-28.5 39q0 11 29 39.5t39 28.5t39.5 -29t29.5 -39q0 -9 -29.5 -38.5t-39.5 -29.5zM414 632q-10 0 -39 29t-29 39q0 11 29 39.5t39 28.5t39.5 -29t29.5 -39q0 -9 -29.5 -38.5t-39.5 -29.5zM220 506v-323q0 -60 29 -93t87 -33q77 0 108.5 56
t31.5 158q0 168 -95 241q27 44 77 44q41 0 69 -34t39.5 -81.5t11.5 -102.5q0 -65 -15 -124.5t-45 -110t-81.5 -80.5t-117.5 -30q-96 0 -152.5 47.5t-56.5 148.5v267q0 38 -32 38q-13 0 -35 -2l-7 38q68 25 132 25q52 0 52 -49z" />
    <glyph glyph-name="omicrontonos" unicode="&#x3cc;" horiz-adv-x="581" 
d="M276 609l-39 27q65 103 107 228l93 -56q-54 -96 -161 -199zM284 -8q-244 0 -244 272q0 112 76 202t177 90q248 0 248 -276q0 -112 -76 -200t-181 -88zM301 54q37 0 61.5 17.5t37 49.5t17 66.5t4.5 78.5q0 231 -138 231q-125 0 -125 -218q0 -225 143 -225z" />
    <glyph glyph-name="upsilontonos" unicode="&#x3cd;" horiz-adv-x="622" 
d="M303 609l-39 27q65 103 107 228l93 -56q-54 -96 -161 -199zM220 506v-323q0 -60 29 -93t87 -33q77 0 108.5 56t31.5 158q0 168 -95 241q27 44 77 44q41 0 69 -34t39.5 -81.5t11.5 -102.5q0 -65 -15 -124.5t-45 -110t-81.5 -80.5t-117.5 -30q-96 0 -152.5 47.5
t-56.5 148.5v267q0 38 -32 38q-13 0 -35 -2l-7 38q68 25 132 25q52 0 52 -49z" />
    <glyph glyph-name="omegatonos" unicode="&#x3ce;" horiz-adv-x="797" 
d="M394 609l-39 27q65 103 107 228l93 -56q-54 -96 -161 -199zM248 -9q-99 0 -153.5 63.5t-54.5 182.5t63 207t147 111q3 1 9 1q19 0 26 -31q-68 -41 -98 -107.5t-30 -176.5q0 -70 29.5 -121.5t78.5 -51.5q29 0 54.5 21t36 39.5t13.5 30.5q-28 78 -28 200q20 13 55 13
q40 0 60 -19q0 -96 -24 -178q3 -10 16 -33t41.5 -48.5t58.5 -25.5q31 0 52.5 27.5t30 65t8.5 80.5q0 106 -31.5 171.5t-99.5 104.5q1 14 2.5 20t7.5 12.5t18 6.5q6 0 9 -1q89 -16 150.5 -96.5t61.5 -203.5q0 -118 -56.5 -191t-153.5 -73q-48 0 -89 29.5t-65 72.5
q-21 -39 -59 -70.5t-86 -31.5z" />
    <glyph glyph-name="beta.alt" unicode="&#x3d0;" horiz-adv-x="611" 
d="M312 56q65 0 98 57t33 142q0 79 -31 128.5t-88 49.5q-27 0 -62 -11l-23 42q84 31 126.5 90.5t42.5 139.5q0 47 -24 79t-73 32q-141 0 -141 -287v-216q0 -125 34 -185.5t108 -60.5zM303 -8q-120 -1 -184.5 79.5t-64.5 267.5v135q0 102 35 191.5t103 146t154 56.5
q87 0 133.5 -45t46.5 -102q0 -73 -39 -131t-100 -89q178 -18 178 -225q0 -101 -80 -192t-182 -92z" />
    <glyph glyph-name="theta.alt" unicode="&#x3d1;" horiz-adv-x="577" 
d="M290 -8q-89 0 -141 65t-60 160q-2 29 -8 39t-22 10q-4 0 -30 -2l-8 41q70 22 133 22q40 0 42 -48q3 -99 31.5 -160.5t69.5 -61.5q65 0 88.5 98t26.5 286q-72 -41 -146 -41q-191 0 -191 203q0 90 66 159.5t149 69.5q238 0 238 -411q-1 -186 -72.5 -307.5t-165.5 -121.5z
M292 463q59 0 119 20q-1 65 -7.5 114t-20 90t-38.5 62.5t-60 21.5q-49 0 -75.5 -38.5t-26.5 -108.5q0 -73 28.5 -117t80.5 -44z" />
    <glyph glyph-name="phi.alt" unicode="&#x3d5;" horiz-adv-x="762" 
d="M417 344l6 -288q63 1 105 34.5t60 86.5t18 122q0 99 -28 150.5t-77 51.5q-47 0 -66.5 -35.5t-17.5 -121.5zM183 546h67q-53 -49 -73 -109.5t-20 -143.5q0 -208 162 -234l5 269q1 105 51 166t133 61q214 -3 214 -259q0 -108 -86.5 -199t-210.5 -102l6 -289h-119l6 288
q-278 10 -278 270q0 86 37.5 161t105.5 121z" />
    <glyph glyph-name="uni03D7" unicode="&#x3d7;" horiz-adv-x="796" 
d="M773 22l-3 -24q-39 -90 -136 -154.5t-220 -64.5q-184 0 -286.5 108t-102.5 290q0 99 48 201t125 168h49q-59 -58 -91 -138.5t-32 -166.5q0 -59 11.5 -114t36 -105.5t60 -87.5t88 -59t114.5 -22q100 0 176 39.5t123 100.5q-120 9 -174 87l-115 185l-40 -41l3 -224h-118
l5 273l-1 87l-4 186h119l-4 -188v-60l144 160q32 35 48.5 50.5t45.5 32t58 16.5q30 0 50.5 -13.5t20.5 -37.5q0 -28 -29 -54q-30 24 -62 24q-38 0 -78 -42l-81 -87l143 -221q54 -79 109 -104z" />
    <glyph glyph-name="uni03D8" unicode="&#x3d8;" horiz-adv-x="824" 
d="M347 -294l11 284q-149 11 -229 102t-80 245q0 172 107 291.5t270 119.5q172 0 260.5 -93t88.5 -255q0 -101 -38 -188.5t-111.5 -146.5t-169.5 -73l11 -286h-120zM407 51q122 0 178.5 87t56.5 231q0 141 -57 229.5t-171 88.5q-80 0 -134 -43.5t-76.5 -112.5t-22.5 -160
q0 -140 56.5 -230t169.5 -90z" />
    <glyph glyph-name="uni03D9" unicode="&#x3d9;" horiz-adv-x="596" 
d="M239 -294l10 288q-209 22 -209 270q0 113 77.5 202.5t182.5 89.5q129 0 192 -67t63 -209q0 -97 -58.5 -178t-148.5 -103l11 -293h-120zM308 54q39 0 65.5 17.5t39 49.5t17.5 66t5 79q0 231 -144 231q-133 0 -133 -218q0 -225 150 -225z" />
    <glyph glyph-name="uni03DA" unicode="&#x3da;" horiz-adv-x="540" 
d="M281 -237l-32 58l11 7q11 7 15.5 10.5t17 12t19.5 15t18 16.5t17.5 19.5t14 20t12 22t5.5 23.5q0 31 -75 31q-70 0 -75 1q-194 6 -194 257q0 46 16.5 96t45.5 94t76 72t102 28h118q40 0 62 18t40 58q40 -27 40 -74q0 -46 -36 -74t-83 -28h-145q-74 0 -109 -52t-35 -126
q0 -77 37 -124t110 -47h96q43 0 67 -14.5t25 -55.5q0 -77 -58.5 -155.5t-122.5 -108.5z" />
    <glyph glyph-name="uni03DB" unicode="&#x3db;" horiz-adv-x="540" 
d="M281 -237l-32 58l11 7q11 7 15.5 10.5t17 12t19.5 15t18 16.5t17.5 19.5t14 20t12 22t5.5 23.5q0 31 -75 31q-70 0 -75 1q-194 6 -194 257q0 46 16.5 96t45.5 94t76 72t102 28h118q40 0 62 18t40 58q40 -27 40 -74q0 -46 -36 -74t-83 -28h-145q-74 0 -109 -52t-35 -126
q0 -77 37 -124t110 -47h96q43 0 67 -14.5t25 -55.5q0 -77 -58.5 -155.5t-122.5 -108.5z" />
    <glyph glyph-name="uni03DC" unicode="&#x3dc;" horiz-adv-x="554" 
d="M93 0l6 307l1 430h434v-73l-323 16v-297l277 7v-65l-277 5v-25l4 -305h-122z" />
    <glyph glyph-name="uni03DD" unicode="&#x3dd;" horiz-adv-x="461" 
d="M93 -294l6 368l1 471h341v-72l-230 16v-334l184 8v-66l-184 5v-30l4 -366h-122z" />
    <glyph glyph-name="uni03DE" unicode="&#x3de;" horiz-adv-x="476" 
d="M273 -27q-10 0 -38 31.5t-28 42.5q0 1 25.5 66t59 150t50.5 124l-290 -79l-30 37l131 335q-19 -17 -29 -17q-9 -3 -35 29t-26 44q1 10 32.5 35.5t42.5 25.5q10 0 35.5 -31.5t25.5 -42.5q0 -14 -6 -36l-74 -252l294 73l36 -46l-171 -363q3 3 9 4t9 -1q13 -8 32 -34t19 -36
t-31.5 -34.5t-42.5 -24.5z" />
    <glyph glyph-name="uni03DF" unicode="&#x3df;" horiz-adv-x="419" 
d="M144 -69l-124 33l297 497l-262 -23l-26 36l115 236q-24 -19 -35 -16q-11 5 -33.5 33t-22.5 38q1 10 32.5 36t42.5 26q9 0 35 -31.5t26 -41.5q0 -5 -14 -41l-57 -178l253 19l34 -55z" />
    <glyph glyph-name="uni03E0" unicode="&#x3e0;" horiz-adv-x="743" 
d="M605 -166v49q1 116 -8.5 193t-36.5 150l-283 -240l-33 42l297 249q-29 65 -83 126l-304 -253l-32 41l299 250q-134 135 -366 138q-17 1 -50 1v36q68 8 87 8q150 0 268 -53.5t192 -148.5t113.5 -221.5t41.5 -277.5q0 -67 -2 -89h-100z" />
    <glyph glyph-name="uni03E1" unicode="&#x3e1;" horiz-adv-x="549" 
d="M375 -306l-39 15q55 152 55 293q0 54 -7 96l-241 -90l-19 50l252 94q-11 73 -41 140l-258 -95l-18 49l252 92q-52 94 -121.5 155.5t-178.5 98.5l12 31q154 -26 261.5 -105.5t157.5 -189.5t49 -243q0 -105 -43 -227t-73 -164z" />
    <glyph glyph-name="uni03F0" unicode="&#x3f0;" horiz-adv-x="705" 
d="M643 476l-106 -67q-29 -182 -29 -262q0 -89 81 -89q37 0 75 15l11 -31q-68 -51 -141 -51q-56 0 -85 29t-29 81q0 105 59 255l-343 -370q-44 7 -65 35.5t-20 59.5l112 66q32 140 32 224q0 54 -24 86t-64 32q-37 0 -75 -15l-11 32q68 51 141 51q59 0 90 -41.5t31 -102.5
q0 -79 -54 -207l328 353q30 -5 55.5 -25t30.5 -58z" />
    <glyph glyph-name="uni0400" unicode="&#x400;" horiz-adv-x="650" 
d="M30 0q-4 25 -3 34l60 16q40 12 42 59l2 171v362q0 36 -29 46l-67 23q-1 10 4 26h527v-147q-7 -2 -23 -2l-16 -1q-16 88 -84 89l-199 7v-285l269 5v-66l-269 5v-64l5 -223l184 4q97 1 139 102l34 -8l-21 -153h-555zM420 780q-120 13 -261 72l35 82q108 -72 236 -117z" />
    <glyph glyph-name="afii10023" unicode="&#x401;" horiz-adv-x="650" 
d="M221 775q-10 0 -39 29t-29 39q0 11 29 39.5t39 28.5t39.5 -29t29.5 -39q0 -9 -29 -38.5t-40 -29.5zM439 775q-10 0 -38.5 29t-28.5 39q0 11 29 39.5t38 28.5q10 0 40 -29t30 -39q0 -9 -29.5 -38.5t-40.5 -29.5zM30 0q-4 25 -3 34l60 16q40 12 42 59l2 171v362
q0 36 -29 46l-67 23q-1 10 4 26h527v-147q-7 -2 -23 -2l-16 -1q-16 88 -84 89l-199 7v-285l269 5v-66l-269 5v-64l5 -223l184 4q97 1 139 102l34 -8l-21 -153h-555z" />
    <glyph glyph-name="afii10051" unicode="&#x402;" horiz-adv-x="807" 
d="M535 -215l-35 36q65 69 105.5 170.5t40.5 220.5q0 86 -36.5 127t-99.5 41q-67 0 -149 -37v-77l4 -168q1 -24 5.5 -33.5t19.5 -13.5l85 -18q0 -15 -3 -33h-335q-3 26 -3 33l71 19q17 5 27.5 25.5t11.5 45.5l3 143v415l-108 -2q-64 0 -85 -105q-13 -1 -31 3v160h607v-160
q-18 -4 -31 -3q-20 104 -96 105l-142 2v-278q108 45 198 45q102 0 156 -58t54 -158q0 -78 -23.5 -152.5t-61.5 -131t-75 -96.5t-74 -67z" />
    <glyph glyph-name="afii10052" unicode="&#x403;" horiz-adv-x="607" 
d="M225 780l-10 37q128 45 236 117l35 -82q-141 -59 -261 -72zM36 0q-4 12 -2 30l54 17q37 12 39 63l3 169v359q0 40 -29 50l-66 23q-1 8 3 26h526v-161q-20 -4 -39 0q-10 45 -30 69.5t-62 26.5l-191 11v-406l4 -176q0 -13 1 -19.5t6 -12.5t16 -8l112 -23q0 -27 -4 -38h-341
z" />
    <glyph glyph-name="afii10053" unicode="&#x404;" horiz-adv-x="682" 
d="M426 -7q-183 0 -280 93t-97 278q0 151 108 268t265 117q53 0 96.5 -7.5t60.5 -13.5t50 -20v-149h-34q-45 124 -177 124q-112 0 -179.5 -69.5t-69.5 -214.5l326 7v-69l-324 6q8 -126 83.5 -201.5t188.5 -75.5q96 0 172 30l17 -50q-97 -53 -206 -53z" />
    <glyph glyph-name="afii10054" unicode="&#x405;" horiz-adv-x="590" 
d="M266 -11q-113 0 -222 53l11 160h42q32 -155 196 -155q54 0 96 36t42 88q0 39 -36.5 69t-89 53t-105 49.5t-89 73t-36.5 110.5q0 95 76 158t171 63q115 0 193 -45v-139h-34q-15 61 -59.5 92t-107.5 31q-65 0 -104.5 -29t-39.5 -83q0 -38 38.5 -69t93 -55.5t109 -53t93 -77
t38.5 -113.5q0 -72 -41.5 -122.5t-102 -72.5t-132.5 -22z" />
    <glyph glyph-name="afii10055" unicode="&#x406;" horiz-adv-x="370" 
d="M36 0q-4 18 -3 30l51 19q37 14 39 67l2 162v343q0 58 -46 73l-44 15q-2 12 2 28h285q4 -18 3 -30l-42 -11q-45 -10 -45 -73v-345l3 -185q1 -21 7 -29.5t23 -12.5l71 -17q0 -20 -5 -34h-301z" />
    <glyph glyph-name="afii10056" unicode="&#x407;" horiz-adv-x="370" 
d="M36 0q-4 18 -3 30l51 19q37 14 39 67l2 162v343q0 58 -46 73l-44 15q-2 12 2 28h285q4 -18 3 -30l-42 -11q-45 -10 -45 -73v-345l3 -185q1 -21 7 -29.5t23 -12.5l71 -17q0 -20 -5 -34h-301zM74 775q-10 0 -39 29t-29 39q0 11 29 39.5t39 28.5t39.5 -29t29.5 -39
q0 -9 -29 -38.5t-40 -29.5zM292 775q-10 0 -38.5 29t-28.5 39q0 11 29 39.5t38 28.5q10 0 40 -29t30 -39q0 -9 -29.5 -38.5t-40.5 -29.5z" />
    <glyph glyph-name="afii10057" unicode="&#x408;" horiz-adv-x="357" 
d="M9 -204l-20 37q78 46 106 102.5t28 163.5v526q0 23 -12.5 42.5t-36.5 27.5l-42 14q0 13 4 28h285q3 -24 3 -30l-47 -12q-24 -6 -31.5 -16t-7.5 -32v-585q0 -176 -229 -266z" />
    <glyph glyph-name="afii10058" unicode="&#x409;" horiz-adv-x="971" 
d="M58 -22l-41 108q101 26 134 69q31 40 53 195.5t22 277.5q0 50 -36 63l-52 18q0 17 3 28h532q1 -21 0 -30l-50 -13q-19 -6 -26.5 -15t-7.5 -30v-227h98q122 0 193 -51.5t71 -155.5q0 -97 -74 -156.5t-204 -58.5h-298q-3 21 -3 33l63 18q36 9 38 56l3 179v396h-180
q0 -2 -3 -49t-4.5 -63t-5 -64.5t-6.5 -74t-8 -69.5t-10 -72.5t-11.5 -63t-14.5 -60t-17 -45.5q-23 -51 -65 -89.5t-93 -53.5zM592 55h78q77 0 117.5 41.5t40.5 118.5q0 152 -186 152h-53v-80z" />
    <glyph glyph-name="afii10059" unicode="&#x40a;" horiz-adv-x="1081" 
d="M28 0q-5 22 -4 30l54 19q20 7 31.5 29t11.5 47l2 154v351q0 51 -35 61l-63 18q0 11 3 28h290q4 -18 3 -30l-53 -14q-19 -6 -25.5 -16t-6.5 -31v-224h343v222q0 35 -33 45l-61 22q-2 16 2 26h289q4 -23 3 -30l-53 -14q-20 -5 -27.5 -15t-7.5 -32v-224h98
q123 0 193.5 -51.5t70.5 -155.5q0 -97 -74 -156.5t-204 -58.5h-298q-3 21 -3 33l59 16q18 5 30 20.5t13 37.5l3 179v80h-343v-88l4 -179q1 -34 29 -43l79 -22q0 -22 -4 -34h-316zM695 55h78q77 0 117.5 42t40.5 118q0 152 -187 152h-53v-80z" />
    <glyph glyph-name="afii10060" unicode="&#x40b;" horiz-adv-x="885" 
d="M137 0q-3 26 -3 33l71 19q17 5 27.5 25.5t11.5 45.5l3 143v415l-108 -2q-64 0 -85 -105q-13 -1 -31 3v160h607v-160q-18 -4 -31 -3q-20 104 -96 105l-142 2v-278q100 45 206 45q104 0 148 -45t44 -136v-170q0 -36 27 -43l72 -18q0 -22 -5 -36h-295q-4 18 -3 32l43 13
q26 8 37.5 32.5t11.5 52.5v130q0 66 -32 93t-98 27q-85 0 -156 -36v-78l4 -168q1 -24 5.5 -33.5t19.5 -13.5l85 -18q0 -15 -3 -33h-335z" />
    <glyph glyph-name="afii10061" unicode="&#x40c;" horiz-adv-x="739" 
d="M302 780l-10 37q128 45 236 117l35 -82q-141 -59 -261 -72zM26 0q-3 21 -3 29l61 21q37 13 39 66l2 162v350q0 50 -31 62l-59 19q-2 12 2 28h280q3 -22 3 -26l-46 -18q-36 -14 -36 -68v-341l3 -188q0 -35 22 -42l59 -20q0 -20 -5 -34h-291zM716 -11q-146 0 -216 81
l-252 288v17l240 242q26 26 26 44q0 23 -25 32l-43 14q0 15 4 30h227v-30l-323 -300l219 -247q83 -93 152 -137z" />
    <glyph glyph-name="uni040D" unicode="&#x40d;" horiz-adv-x="862" 
d="M36 0q-5 18 -5 30l55 19q19 7 30.5 29t12.5 47l2 154v351q0 51 -35 61l-64 18q0 13 4 28h290q3 -20 3 -30l-53 -14q-20 -6 -26.5 -15.5t-6.5 -31.5v-407l371 348l-1 58q0 20 -9 29t-31 17l-49 18q0 21 2 28h284q1 -20 -1 -31l-54 -14q-16 -5 -22.5 -13.5t-6.5 -28.5v-372
l3 -178q0 -39 23 -45l76 -19q0 -21 -4 -36h-302q-4 19 -4 33l45 14q25 7 36.5 27.5t11.5 44.5l3 160v230l-371 -348l3 -62q1 -34 31 -43l79 -22q0 -19 -5 -34h-315zM538 780q-120 13 -261 72l35 82q108 -72 236 -117z" />
    <glyph glyph-name="afii10062" unicode="&#x40e;" horiz-adv-x="706" 
d="M335 793q-56 0 -91 23t-35 69q0 27 20.5 48.5t50.5 30.5q4 -8 13.5 -29t14 -28.5t13 -19.5t18 -16.5t22.5 -4.5q75 -2 192 74l21 -23q-36 -39 -104 -81.5t-135 -42.5zM224 -35l-50 101q66 17 105 37q35 16 61 72l-254 447q-23 36 -41.5 55.5t-48.5 32.5q0 20 2 27h269
q5 -23 5 -28l-54 -20q-16 -6 -16 -27q0 -19 13 -43l182 -325l125 313q10 27 10 42q0 25 -20 36l-53 25q0 20 3 27h223q3 -13 3 -28q-3 -1 -16 -6t-17.5 -7t-14.5 -7.5t-15.5 -10t-11.5 -12t-10 -16.5l-209 -502q-64 -147 -170 -183z" />
    <glyph glyph-name="afii10145" unicode="&#x40f;" horiz-adv-x="840" 
d="M360 -183l3 183h-322q-5 18 -5 30l55 19q19 7 30.5 29t12.5 47l2 154v351q0 51 -35 61l-63 18q0 17 3 28h290q3 -20 3 -30l-53 -14q-20 -6 -26.5 -15.5t-6.5 -31.5v-368l4 -223l330 1l4 223l-1 341q0 24 -10.5 44.5t-29.5 26.5l-49 18q0 21 2 28h284q1 -22 0 -31l-54 -14
q-17 -5 -23.5 -13.5t-6.5 -28.5v-372l3 -178q0 -39 23 -45l77 -19q0 -22 -5 -36h-325l2 -183h-113z" />
    <glyph glyph-name="afii10017" unicode="&#x410;" horiz-adv-x="745" 
d="M22 0q-3 8 -3 30l22 17q27 20 43 58l263 631l82 29l224 -646q18 -51 48 -75l17 -15q0 -17 -5 -29h-285q-3 21 -3 29l67 20q31 9 31 51q0 14 -5 29l-54 176h-234l-70 -180q-21 -55 44 -77l51 -18q0 -17 -4 -30h-229zM251 359h196l-60 198l-24 86h-6l-29 -84z" />
    <glyph glyph-name="afii10018" unicode="&#x411;" horiz-adv-x="663" 
d="M32 0q-2 31 -2 33l59 16q40 11 42 58l3 179v358q0 34 -32 45l-62 22q-2 16 2 26h521v-154q-18 -5 -37 -1q-10 43 -30.5 65.5t-61.5 24.5l-188 11v-261h108q123 0 193.5 -51.5t70.5 -155.5q0 -97 -74 -156.5t-203 -58.5h-309zM250 55h88q77 0 117.5 41.5t40.5 118.5
q0 152 -187 152h-63v-80z" />
    <glyph glyph-name="afii10019" unicode="&#x412;" horiz-adv-x="695" 
d="M30 0q-4 25 -3 33l59 16q18 5 30 20.5t12 37.5l3 179v358q0 35 -32 45l-61 22q-2 15 2 26h299q252 0 252 -175q0 -60 -35.5 -99.5t-81.5 -58.5v-3q19 -3 38.5 -9t44 -19.5t43 -32t31 -48.5t12.5 -67q0 -99 -67.5 -162t-205.5 -63h-340zM248 55h112q76 0 116.5 39.5
t40.5 113.5t-47 110t-150 36h-76v-70zM244 408h89q131 0 133 141q0 135 -156 135h-66v-276z" />
    <glyph glyph-name="afii10020" unicode="&#x413;" horiz-adv-x="607" 
d="M36 0q-4 12 -2 30l54 17q37 12 39 63l3 169v359q0 40 -29 50l-66 23q-1 8 3 26h526v-161q-20 -4 -39 0q-10 45 -30 69.5t-62 26.5l-191 11v-406l4 -176q0 -13 1 -19.5t6 -12.5t16 -8l112 -23q0 -27 -4 -38h-341z" />
    <glyph glyph-name="afii10021" unicode="&#x414;" horiz-adv-x="755" 
d="M13 -184v240h79q56 83 95 243q41 181 45 332q2 44 -30 56l-55 20q0 15 4 30h540q1 -23 0 -32l-52 -14q-16 -5 -23 -13t-7 -27v-372l5 -224h107v-235q-22 -6 -39 -1q-1 2 -4.5 18t-6 24t-7.5 25t-10 27.5t-12.5 25.5t-15.5 24.5t-18 18.5t-22 13.5t-26 4.5h-372
q-36 0 -61 -13.5t-38 -38.5t-19.5 -45t-11 -49.5t-6.5 -35.5q-6 -3 -18.5 -3.5t-20.5 1.5zM179 55h314l4 221v405h-196l-18 -189q-9 -113 -38 -238q-26 -112 -66 -199z" />
    <glyph glyph-name="afii10022" unicode="&#x415;" horiz-adv-x="650" 
d="M30 0q-4 25 -3 34l60 16q40 12 42 59l2 171v362q0 36 -29 46l-67 23q-1 10 4 26h527v-147q-7 -2 -23 -2l-16 -1q-16 88 -84 89l-199 7v-285l269 5v-66l-269 5v-64l5 -223l184 4q97 1 139 102l34 -8l-21 -153h-555z" />
    <glyph glyph-name="afii10024" unicode="&#x416;" horiz-adv-x="1040" 
d="M365 0q-4 18 -3 29l60 21q37 12 39 66l2 162v350q0 50 -31 62l-59 19q-2 15 2 28h286q3 -22 3 -26l-48 -18q-39 -13 -39 -68v-341l2 -188q0 -34 26 -42l61 -20q0 -20 -5 -34h-296zM1030 -11q-149 0 -217 86l-222 281v21l223 235q27 29 27 50q0 23 -22 31l-43 14
q0 19 3 30h215v-30l-302 -302l198 -245q40 -51 72.5 -80t75.5 -57zM11 -11l-9 34q81 51 149 137l197 245l-302 302v30h215q4 -15 4 -30l-43 -14q-22 -8 -22 -31q0 -20 26 -50l224 -235v-20l-223 -282q-68 -86 -216 -86z" />
    <glyph glyph-name="afii10025" unicode="&#x417;" horiz-adv-x="596" 
d="M272 -12q-131 0 -223 55l35 75q99 -61 194 -61q67 0 107 40t40 109q0 64 -41 101.5t-114 37.5q-29 0 -93 -4v74q33 -3 85 -3q63 0 98 41t35 105q0 59 -34 96t-89 37q-64 0 -104.5 -34t-53.5 -94h-36v145q90 45 212 45q57 0 107 -17.5t87 -62.5t37 -110q0 -59 -38 -107.5
t-87 -61.5v-2q65 -11 110.5 -53.5t45.5 -114.5q0 -111 -78.5 -173.5t-201.5 -62.5z" />
    <glyph glyph-name="afii10026" unicode="&#x418;" horiz-adv-x="862" 
d="M36 0q-5 18 -5 30l55 19q19 7 30.5 29t12.5 47l2 154v351q0 51 -35 61l-64 18q0 13 4 28h290q3 -20 3 -30l-53 -14q-20 -6 -26.5 -15.5t-6.5 -31.5v-407l371 348l-1 58q0 20 -9 29t-31 17l-49 18q0 21 2 28h284q1 -20 -1 -31l-54 -14q-16 -5 -22.5 -13.5t-6.5 -28.5v-372
l3 -178q0 -39 23 -45l76 -19q0 -21 -4 -36h-302q-4 19 -4 33l45 14q25 7 36.5 27.5t11.5 44.5l3 160v230l-371 -348l3 -62q1 -34 31 -43l79 -22q0 -19 -5 -34h-315z" />
    <glyph glyph-name="afii10027" unicode="&#x419;" horiz-adv-x="861" 
d="M36 0q-5 18 -5 30l55 19q19 7 30.5 29t12.5 47l2 154v351q0 51 -35 61l-64 18q0 13 4 28h290q3 -20 3 -30l-53 -14q-20 -6 -26.5 -15.5t-6.5 -31.5v-407l371 348l-1 58q0 20 -9 29t-31 17l-49 18q0 21 2 28h284q1 -20 -1 -31l-54 -14q-16 -5 -22.5 -13.5t-6.5 -28.5v-372
l3 -178q0 -39 23 -45l76 -19q0 -21 -4 -36h-302q-4 19 -4 33l45 14q25 7 36.5 27.5t11.5 44.5l3 160v230l-371 -348l3 -62q1 -34 31 -43l79 -22q0 -19 -5 -34h-315zM399 793q-56 0 -91 23t-35 69q0 27 20.5 48.5t50.5 30.5q4 -8 13.5 -29t14 -28.5t13 -19.5t18 -16.5
t22.5 -4.5q75 -2 192 74l21 -23q-36 -39 -104 -81.5t-135 -42.5z" />
    <glyph glyph-name="afii10028" unicode="&#x41a;" horiz-adv-x="739" 
d="M26 0q-3 21 -3 29l61 21q37 13 39 66l2 162v350q0 50 -31 62l-59 19q-2 12 2 28h280q3 -22 3 -26l-46 -18q-36 -14 -36 -68v-341l3 -188q0 -35 22 -42l59 -20q0 -20 -5 -34h-291zM716 -11q-146 0 -216 81l-252 288v17l240 242q26 26 26 44q0 23 -25 32l-43 14q0 15 4 30
h227v-30l-323 -300l219 -247q83 -93 152 -137z" />
    <glyph glyph-name="afii10029" unicode="&#x41b;" horiz-adv-x="732" 
d="M58 -22l-41 108q101 26 134 69q31 40 53 195.5t22 277.5q0 50 -36 63l-52 18q0 17 3 28h539q2 -21 -1 -31l-54 -14q-16 -5 -23 -13.5t-7 -28.5v-372l4 -178q0 -39 23 -45l76 -19q0 -21 -4 -36h-302q-5 23 -4 33l44 14q25 7 37 31t12 49l2 152v403h-187q0 -2 -3 -49
t-4.5 -63t-5 -64.5t-6.5 -74t-8 -69.5t-10 -72.5t-11.5 -63t-14.5 -60t-17 -45.5q-23 -51 -65 -89.5t-93 -53.5z" />
    <glyph glyph-name="afii10030" unicode="&#x41c;" horiz-adv-x="1038" 
d="M453 -22l-207 621h-5l-6 -67l-65 -435q-5 -29 12 -35l91 -29q0 -21 -4 -33h-250q-4 19 -4 29l36 18q21 10 35.5 33t18.5 48l84 505q3 18 -5.5 34t-23.5 21l-64 21q0 12 4 28h220l145 -422l51 -166h9l54 156l161 432h201q3 -24 3 -27l-48 -16q-47 -13 -38 -79l72 -514
q6 -35 36 -47l48 -22q0 -16 -4 -32h-285q-3 22 -3 30l40 12q40 12 40 78q0 3 -3 36l-41 366l-7 70h-6l-209 -588z" />
    <glyph glyph-name="afii10031" unicode="&#x41d;" horiz-adv-x="859" 
d="M28 0q-5 22 -4 30l55 19q19 7 30.5 29t12.5 47l2 154v351q0 50 -35 61l-64 18q0 13 4 28h289q4 -17 4 -30l-54 -14q-19 -6 -25.5 -16t-6.5 -31v-249h368v223q0 23 -11 44t-30 27l-49 18q0 21 2 28h285q0 -24 -1 -31l-54 -14q-17 -5 -23.5 -13.5t-6.5 -28.5v-372l3 -178
q0 -39 24 -45l76 -19q0 -22 -5 -36h-302q-4 19 -3 33l44 14q25 7 37 31t12 49l2 152v63h-368v-64l4 -179q1 -34 29 -43l80 -22q0 -19 -5 -34h-316z" />
    <glyph glyph-name="afii10032" unicode="&#x41e;" horiz-adv-x="824" 
d="M401 -12q-170 0 -261 92t-91 257q0 172 107 291.5t270 119.5q172 0 260.5 -93t88.5 -255q0 -171 -103 -291.5t-271 -120.5zM407 51q122 0 178.5 87t56.5 231q0 141 -57 229.5t-171 88.5q-80 0 -134 -43.5t-76.5 -112.5t-22.5 -160q0 -140 56.5 -230t169.5 -90z" />
    <glyph glyph-name="afii10033" unicode="&#x41f;" horiz-adv-x="844" 
d="M28 0q-5 22 -4 30l55 19q19 7 30.5 29t12.5 47l2 154v351q0 50 -35 61l-64 18q0 13 4 28h759q1 -17 -1 -31l-54 -14q-16 -5 -23 -13.5t-7 -28.5v-372l4 -178q0 -39 23 -45l76 -19q0 -21 -4 -36h-302q-5 23 -4 33l44 14q25 7 37 31t12 49l2 152v403h-355v-404l4 -179
q1 -34 29 -43l80 -22q0 -19 -5 -34h-316z" />
    <glyph glyph-name="afii10034" unicode="&#x420;" horiz-adv-x="648" 
d="M37 0q-3 24 -3 30l54 17q39 12 41 63l3 173v360q0 35 -27 44l-70 24q-1 11 4 26h353q111 0 173.5 -53.5t62.5 -161.5q0 -105 -74.5 -174.5t-210.5 -69.5h-33v50l24 1q83 3 126.5 47t43.5 124q0 75 -39.5 127t-118.5 53l-102 2v-399l4 -187q0 -32 24 -37l101 -25
q0 -22 -4 -34h-332z" />
    <glyph glyph-name="afii10035" unicode="&#x421;" horiz-adv-x="682" 
d="M426 -7q-183 0 -280 93t-97 278q0 151 108 268t265 117q53 0 96.5 -7.5t60.5 -13.5t50 -20v-149h-34q-45 124 -177 124q-114 0 -181.5 -74t-67.5 -227q0 -143 76.5 -229.5t197.5 -86.5q96 0 172 30l17 -50q-97 -53 -206 -53z" />
    <glyph glyph-name="afii10036" unicode="&#x422;" horiz-adv-x="654" 
d="M160 0q-5 23 -4 33l72 19q17 5 27.5 25.5t11.5 45.5l3 143v415l-149 -2q-65 0 -85 -105q-13 -1 -32 3v160h646v-160q-18 -4 -31 -3q-20 104 -96 105l-140 2v-415l5 -168q0 -24 5 -33.5t20 -13.5l85 -18q0 -15 -3 -33h-335z" />
    <glyph glyph-name="afii10037" unicode="&#x423;" horiz-adv-x="706" 
d="M224 -35l-50 101q66 17 105 37q35 16 61 72l-254 447q-23 36 -41.5 55.5t-48.5 32.5q0 20 2 27h269q5 -23 5 -28l-54 -20q-16 -6 -16 -27q0 -19 13 -43l182 -325l125 313q10 27 10 42q0 25 -20 36l-53 25q0 20 3 27h223q3 -13 3 -28q-3 -1 -16 -6t-17.5 -7t-14.5 -7.5
t-15.5 -10t-11.5 -12t-10 -16.5l-209 -502q-64 -147 -170 -183z" />
    <glyph glyph-name="afii10038" unicode="&#x424;" horiz-adv-x="799" 
d="M553 0h-297q-3 18 -2 30l50 19q39 14 40 62v12q-150 0 -237 61.5t-87 183.5q0 125 91 203t233 79v16q-3 45 -46 59l-45 15q-2 14 2 28h286q3 -21 3 -31l-42 -10q-41 -10 -44 -57q-1 -4 -1 -18q148 0 235 -64.5t87 -179.5q0 -126 -88.5 -205t-233.5 -79v-31q1 -21 7 -29.5
t22 -12.5l71 -17q0 -19 -4 -34zM457 178q99 0 147 61t48 156q0 93 -49.5 147t-145.5 54v-418zM344 178v418q-94 0 -145 -62t-51 -154q0 -94 49.5 -148t146.5 -54z" />
    <glyph glyph-name="afii10039" unicode="&#x425;" horiz-adv-x="709" 
d="M8 0q-4 23 -3 30l34 18q45 25 86 80l175 231l-173 263q-5 8 -11 15.5t-14 14.5t-13 12t-15 12.5t-13.5 10t-15 11t-13.5 9.5q-6 11 -2 30h261q3 -26 3 -31l-39 -17q-11 -4 -12 -19t11 -33l121 -181l132 175q11 13 10.5 31t-12.5 24l-42 22q0 19 2 29h221q1 -9 -1 -30
q-70 -23 -111 -78l-165 -223l189 -284q21 -31 41.5 -48t63.5 -44q0 -19 -4 -30h-275q-3 21 -3 30l38 22q16 9 16 25q0 15 -11 31l-130 199l-141 -192q-11 -14 -11 -31q0 -21 14 -27l57 -27q-2 -24 -4 -30h-241z" />
    <glyph glyph-name="afii10040" unicode="&#x426;" horiz-adv-x="844" 
d="M809 -181q-25 -7 -38 0q0 1 -4.5 18t-6.5 24t-7.5 25t-10 27.5t-12 25.5t-15.5 25t-18 18.5t-22.5 13.5t-25.5 4h-609q-5 22 -4 30l54 19q20 7 31.5 29t11.5 47l2 154v351q0 51 -34 61l-64 18q0 13 4 28h289q4 -18 3 -30l-53 -14q-19 -5 -25.5 -15t-6.5 -32v-368l5 -223
h329l3 224v341q0 24 -10.5 44.5t-29.5 26.5l-49 18q0 21 2 28h284q1 -22 0 -31l-54 -14q-17 -5 -23.5 -13.5t-6.5 -28.5v-372l4 -223h107v-236z" />
    <glyph glyph-name="afii10041" unicode="&#x427;" horiz-adv-x="748" 
d="M408 0q-4 19 -4 33l45 14q24 7 36 31t12 49l2 152v62q-100 -45 -207 -45q-103 0 -147.5 45t-44.5 136v153q0 49 -35 61l-56 18q0 13 4 28h282q4 -18 3 -30l-53 -14q-19 -6 -25.5 -16t-6.5 -31v-168q0 -66 31.5 -92.5t97.5 -26.5q86 0 157 35v226q0 23 -10.5 44t-29.5 27
l-49 18q0 21 2 28h284q1 -20 -1 -31l-53 -14q-17 -5 -23.5 -13.5t-6.5 -28.5v-372l3 -178q0 -39 23 -45l76 -19q0 -21 -4 -36h-302z" />
    <glyph glyph-name="afii10042" unicode="&#x428;" horiz-adv-x="1097" 
d="M41 0q-5 18 -5 30l55 19q19 7 30.5 29t12.5 47l2 154v351q0 51 -35 61l-63 18q0 17 3 28h287q4 -18 3 -30l-50 -14q-19 -6 -26 -16t-7 -31v-368l5 -223h235l4 224v341q0 57 -35 70l-52 19q0 21 2 28h279q1 -17 -1 -31l-51 -14q-17 -6 -23.5 -14t-6.5 -28v-372l5 -223h235
l4 224v341q0 23 -11 43.5t-30 27.5l-46 18q0 21 2 28h282q0 -24 -1 -31l-53 -14q-17 -5 -24 -13.5t-7 -28.5v-372l3 -178q0 -39 24 -45l76 -19q0 -22 -5 -36h-1017z" />
    <glyph glyph-name="afii10043" unicode="&#x429;" horiz-adv-x="1106" 
d="M1071 -181q-25 -7 -38 0q0 1 -4.5 18t-6.5 24t-7.5 25t-10 27.5t-12 25.5t-15.5 25t-18 18.5t-22.5 13.5t-25.5 4h-870q-5 18 -5 30l55 19q19 7 30.5 29t12.5 47l2 154v351q0 51 -35 61l-63 18q0 17 3 28h287q4 -18 3 -30l-50 -14q-19 -6 -26 -16t-7 -31v-368l5 -223h235
l4 224v341q0 57 -35 70l-52 19q0 21 2 28h279q1 -17 -1 -31l-51 -14q-17 -6 -23.5 -14t-6.5 -28v-372l5 -223h235l4 224v341q0 23 -11 43.5t-30 27.5l-46 18q0 21 2 28h282q0 -24 -1 -31l-54 -14q-17 -5 -23.5 -13.5t-6.5 -28.5v-372l4 -223h107v-236z" />
    <glyph glyph-name="afii10044" unicode="&#x42a;" horiz-adv-x="734" 
d="M138 0q-4 25 -3 33l59 16q18 5 30 20.5t12 37.5l3 179v391l-96 -5q-43 -3 -61 -26.5t-29 -70.5q-19 -4 -38 0v162h421q5 -21 4 -30l-53 -14q-21 -5 -28 -15t-7 -32v-224h98q122 0 193 -51.5t71 -155.5q0 -97 -74.5 -156.5t-203.5 -58.5h-298zM355 55h78q77 0 117.5 41.5
t40.5 118.5q0 152 -186 152h-53v-80z" />
    <glyph glyph-name="afii10045" unicode="&#x42b;" horiz-adv-x="954" 
d="M615 0q-4 18 -3 30l51 19q37 14 39 67l2 162v343q0 58 -46 73l-44 15q-2 12 2 28h285q4 -18 3 -30l-42 -11q-45 -10 -45 -73v-345l3 -185q1 -21 7 -29.5t23 -12.5l71 -17q0 -20 -5 -34h-301zM37 0q-4 25 -3 33l59 16q18 5 30 20.5t12 37.5l3 179v358q0 34 -32 45l-62 22
q0 18 3 26h288q5 -21 4 -30l-53 -14q-21 -5 -28 -15t-7 -32v-224h98q122 0 193 -51.5t71 -155.5q0 -97 -74.5 -156.5t-203.5 -58.5h-298zM254 55h78q77 0 117.5 41.5t40.5 118.5q0 152 -186 152h-53v-80z" />
    <glyph glyph-name="afii10046" unicode="&#x42c;" horiz-adv-x="633" 
d="M37 0q-4 25 -3 33l59 16q18 5 30 20.5t12 37.5l3 179v358q0 34 -32 45l-62 22q0 18 3 26h288q5 -21 4 -30l-53 -14q-21 -5 -28 -15t-7 -32v-224h98q122 0 193 -51.5t71 -155.5q0 -97 -74.5 -156.5t-203.5 -58.5h-298zM254 55h78q77 0 117.5 41.5t40.5 118.5
q0 152 -186 152h-53v-80z" />
    <glyph glyph-name="afii10047" unicode="&#x42d;" horiz-adv-x="707" 
d="M287 -12q-60 0 -121.5 16.5t-104.5 44.5l40 78q107 -70 207 -70q97 0 154.5 73t65.5 212l-331 -5v68l330 -6q-9 145 -71.5 216.5t-163.5 71.5q-81 0 -124.5 -32t-63.5 -98q-2 -1 -18 -1t-18 1v150q105 41 233 41q165 0 261 -85.5t96 -265.5q0 -167 -103.5 -288
t-267.5 -121z" />
    <glyph glyph-name="afii10048" unicode="&#x42e;" horiz-adv-x="1162" 
d="M745 -12q-166 0 -256 92.5t-90 256.5v5h-155v-64l4 -179q1 -34 29 -43l80 -22q0 -19 -5 -34h-316q-5 22 -4 30l54 19q20 7 31.5 29t11.5 47l2 154v351q0 51 -34 61l-64 18q0 13 4 28h289q4 -18 3 -30l-53 -14q-19 -6 -25.5 -16t-6.5 -31v-249h158q19 151 120.5 251
t246.5 100q170 0 257 -93t87 -255q0 -111 -43.5 -204t-129 -150.5t-195.5 -57.5zM751 51q121 0 177 87t56 231q0 140 -56.5 229t-169.5 89q-117 0 -173.5 -87.5t-56.5 -228.5q0 -67 13 -123.5t39.5 -101t70 -70t100.5 -25.5z" />
    <glyph glyph-name="afii10049" unicode="&#x42f;" horiz-adv-x="717" 
d="M25 -15l-11 38q51 21 88 58q62 60 153 234q-61 15 -107.5 62.5t-46.5 126.5q0 110 78 171.5t180 61.5h306q1 -17 -1 -31l-54 -14q-16 -5 -23 -13.5t-7 -28.5v-372l4 -178q0 -39 23 -45l76 -19q0 -21 -4 -36h-303q-4 25 -3 33l44 14q25 7 37 31t12 49l2 142v36h-100
q-102 -193 -163 -264q-28 -32 -71.5 -42.5t-108.5 -13.5zM388 359h80v323h-72q-84 0 -128 -48t-43 -119q0 -75 45 -115.5t118 -40.5z" />
    <glyph glyph-name="afii10065" unicode="&#x430;" horiz-adv-x="587" 
d="M170 -8q-60 0 -97 33t-37 90q0 37 14.5 65t36 45t54.5 30t61 18.5t65 10.5l86 11v87q0 55 -31.5 78.5t-99.5 23.5q-58 0 -135 -21l-13 39q106 55 190 55q29 0 51 -2t51 -10.5t48.5 -23.5t33 -44t13.5 -69v-135l7 -204h95l5 -28q-17 -17 -59.5 -32.5t-70.5 -15.5
q-48 0 -64.5 23t-18.5 66q-81 -90 -185 -90zM221 76q62 0 132 34v140l-71 -11q-133 -19 -133 -97q0 -27 18.5 -46.5t53.5 -19.5z" />
    <glyph glyph-name="afii10066" unicode="&#x431;" horiz-adv-x="591" 
d="M289 -7q-251 0 -251 323q0 114 30 233t84 172q24 26 145.5 52.5t140.5 34.5q38 15 74 57l24 -13q-32 -111 -75 -140q-32 -21 -136.5 -26.5t-118.5 -15.5q-26 -18 -45 -184q100 66 192 66q96 0 148 -64.5t52 -194.5q0 -121 -75.5 -210.5t-188.5 -89.5zM302 55
q33 0 57.5 13.5t38 33.5t21.5 51t10.5 59t2.5 64q0 205 -123 205q-77 0 -152 -39q-5 -61 -5 -146q0 -241 150 -241z" />
    <glyph glyph-name="afii10067" unicode="&#x432;" horiz-adv-x="604" 
d="M47 0q-3 24 -3 28l46 20q31 12 31 59l3 166v179q0 40 -27 50l-51 13q0 15 3 31h268q219 0 219 -132q0 -49 -30 -84t-72 -46v-2q50 -6 89 -37t39 -87q0 -76 -58 -117t-172 -41h-285zM236 54h81q58 0 90 28t32 78q0 95 -146 95l-59 1v-44zM234 306h65q60 0 89 27t29 67
q0 45 -33 69t-91 24h-59v-187z" />
    <glyph glyph-name="afii10068" unicode="&#x433;" horiz-adv-x="540" 
d="M37 0q-3 21 -3 31l62 21q12 4 20.5 19t9.5 31l3 171v179q0 38 -28 49l-51 14q0 15 3 31h451v-159q-27 -5 -38 1q-5 21 -9 33t-13 28t-24.5 24.5t-36.5 9.5l-144 9v-219l2 -192q0 -25 17 -28l81 -17q0 -21 -5 -36h-297z" />
    <glyph glyph-name="afii10069" unicode="&#x434;" horiz-adv-x="653" 
d="M8 -152v207h66q33 51 65 141q15 48 29 135t14 128q0 18 -6.5 26t-24.5 13l-46 14q0 14 4 34h485q4 -14 4 -36l-63 -13q-20 -5 -22 -37v-228l5 -178h98v-205q-20 -4 -40 1q-1 2 -4 16.5t-5.5 22.5t-7 24t-9 26t-11 22.5t-13.5 20t-16.5 13t-19.5 5.5h-340q-26 0 -45 -11.5
t-28.5 -32t-14.5 -38t-8.5 -41t-4.5 -28.5q-11 -4 -41 -1zM151 54h248l2 166l1 272h-157q-17 -215 -47 -310q-28 -92 -47 -128z" />
    <glyph glyph-name="afii10070" unicode="&#x435;" horiz-adv-x="553" 
d="M310 -9q-139 0 -204.5 59t-65.5 209q0 125 73.5 213t187.5 88q109 0 161 -71t52 -192v-26h-362q6 -112 55.5 -155t138.5 -43q67 0 145 19l14 -38q-30 -28 -83.5 -45.5t-111.5 -17.5zM152 321h240q0 89 -24 138t-86 49q-56 0 -92.5 -47t-37.5 -140z" />
    <glyph glyph-name="afii10072" unicode="&#x436;" horiz-adv-x="863" 
d="M291 0q-3 24 -3 31l54 20q32 12 32 58l4 159v186q0 36 -27 47l-51 14q0 15 3 31h257q4 -15 4 -34l-60 -15q-19 -6 -19 -40v-189l2 -161q2 -48 26 -58l53 -17q0 -17 -5 -32h-270zM-1 -13l-5 29q55 27 114 101l152 192l-224 210v27h201q2 -10 2 -29l-40 -15q-16 -6 -16 -26
q0 -13 14 -27l173 -176l-163 -198q-68 -86 -208 -88zM864 -13q-140 2 -208 88l-163 198l173 176q14 14 14 27q0 20 -16 26l-40 15q0 19 2 29h201v-27l-224 -210l152 -192q59 -74 114 -101z" />
    <glyph glyph-name="afii10073" unicode="&#x437;" horiz-adv-x="500" 
d="M235 -11q-118 0 -191 43l29 63q83 -43 153 -43q50 0 80 28.5t30 75.5t-32.5 70t-104.5 23h-45v55h44q115 0 115 101q0 46 -26 72.5t-70 26.5q-45 0 -73 -29.5t-37 -76.5l-30 -1l-15 127q66 35 168 35q39 0 73.5 -7t65 -22.5t48 -44.5t17.5 -68q0 -57 -32.5 -91t-80.5 -48
q52 -6 93.5 -37.5t41.5 -87.5q0 -78 -58.5 -121t-162.5 -43z" />
    <glyph glyph-name="afii10074" unicode="&#x438;" horiz-adv-x="756" 
d="M47 0q-3 24 -3 28l46 20q31 13 31 60l3 165v179q0 39 -27 49l-51 14q0 15 3 31h257q4 -15 4 -35l-57 -15q-19 -6 -19 -40v-254l272 225v24q0 37 -26 48l-45 15q0 21 2 32h252q4 -11 2 -33l-57 -13q-17 -4 -19 -36v-191l3 -196q0 -23 16 -26l69 -15q0 -25 -4 -36h-259
q-4 19 -4 32l39 18q28 13 28 50l3 173v83l-270 -224l1 -47q0 -29 14 -32l85 -18q0 -21 -5 -35h-284z" />
    <glyph glyph-name="afii10075" unicode="&#x439;" horiz-adv-x="756" 
d="M47 0q-3 24 -3 28l46 20q31 13 31 60l3 165v179q0 39 -27 49l-51 14q0 15 3 31h257q4 -15 4 -35l-57 -15q-19 -6 -19 -40v-254l272 225v24q0 37 -26 48l-45 15q0 21 2 32h252q4 -11 2 -33l-57 -13q-17 -4 -19 -36v-191l3 -196q0 -23 16 -26l69 -15q0 -25 -4 -36h-259
q-4 19 -4 32l39 18q28 13 28 50l3 173v83l-270 -224l1 -47q0 -29 14 -32l85 -18q0 -21 -5 -35h-284zM349 661q-52 0 -84.5 22t-32.5 65q0 27 20 47.5t48 27.5q26 -61 40 -75q15 -15 35 -15q72 -2 176 66l21 -22q-32 -36 -96.5 -76t-126.5 -40z" />
    <glyph glyph-name="afii10076" unicode="&#x43a;" horiz-adv-x="638" 
d="M307 0h-262q-3 24 -3 30l55 20q32 12 32 58l3 165v181q0 36 -27 47l-51 14q0 15 3 31h257q5 -14 5 -35l-58 -15q-19 -6 -19 -40v-182l3 -168q0 -45 26 -57l41 -19q0 -18 -5 -30zM642 16l-6 -29q-165 3 -230 88l-156 196l187 178q14 14 14 27q0 20 -16 26l-40 15
q0 14 3 29h201v-27l-239 -210l151 -189q54 -69 131 -104z" />
    <glyph glyph-name="afii10077" unicode="&#x43b;" horiz-adv-x="652" 
d="M55 -18l-40 102q81 21 110 55q27 31 40 140.5t13 172.5q0 39 -28 50l-44 13q2 20 4 31h474q4 -11 2 -33l-57 -13q-21 -5 -21 -36v-191l3 -196q0 -23 16 -26l68 -15q0 -25 -4 -36h-260q-3 21 -3 32l39 18q28 13 28 50l3 170v222h-160q0 -6 -2 -40.5t-3 -46.5t-3.5 -45
t-4.5 -49t-5 -45.5t-7 -48.5t-9.5 -43t-12 -43t-14.5 -36q-42 -92 -122 -113z" />
    <glyph glyph-name="afii10078" unicode="&#x43c;" horiz-adv-x="880" 
d="M378 -18l-156 455h-4l-1 -38l-42 -313q-3 -26 10 -31l77 -22q0 -16 -5 -33h-219q-2 11 0 32l37 14q31 16 38 58l47 346q3 15 -4 26.5t-19 15.5l-55 17q0 17 4 37h204q0 -1 24 -70t50.5 -146t31.5 -96l41 -119h8l43 120l115 311h192q5 -15 5 -35l-49 -14q-29 -10 -25 -53
l34 -352q4 -39 25 -44l54 -17q0 -16 -4 -31h-246q-3 18 -2 30l33 15q38 18 33 74l-23 276l-2 42h-3l-162 -434z" />
    <glyph glyph-name="afii10079" unicode="&#x43d;" horiz-adv-x="746" 
d="M47 0q-3 24 -3 28l46 20q31 13 31 60l3 165v179q0 39 -27 49l-51 14q0 15 3 31h257q4 -15 4 -35l-57 -15q-19 -6 -19 -40v-144h262v139q0 37 -26 48l-45 15q0 21 2 32h252q4 -11 2 -33l-57 -13q-17 -4 -19 -36v-191l3 -196q0 -23 16 -26l69 -15q0 -25 -4 -36h-259
q-4 19 -4 32l39 18q26 12 28 50l3 157h-262l3 -172q0 -29 14 -32l85 -18q0 -21 -5 -35h-284z" />
    <glyph glyph-name="afii10080" unicode="&#x43e;" horiz-adv-x="596" 
d="M291 -8q-251 0 -251 272q0 113 77.5 202.5t182.5 89.5q129 0 192 -67t63 -209q0 -113 -77 -200.5t-187 -87.5zM308 54q39 0 65.5 17.5t39 49.5t17.5 66t5 79q0 231 -144 231q-133 0 -133 -218q0 -225 150 -225z" />
    <glyph glyph-name="afii10081" unicode="&#x43f;" horiz-adv-x="741" 
d="M47 0q-3 24 -3 28l46 20q31 13 31 60l3 165v179q0 39 -27 49l-51 14q0 15 3 31h624q4 -11 2 -33l-57 -13q-18 -5 -18 -36v-191l3 -196q0 -23 16 -26l68 -15q0 -25 -4 -36h-259q-3 21 -3 32l38 18q28 12 28 50l3 173v219h-256v-219l3 -188q0 -29 14 -32l85 -18
q0 -21 -5 -35h-284z" />
    <glyph glyph-name="afii10082" unicode="&#x440;" horiz-adv-x="641" 
d="M45 -294q-4 20 -3 32l36 14q39 16 39 62l4 459v219h-97v39q105 22 165 22q41 0 41 -38v-23q66 62 147 62q112 0 167.5 -65t55.5 -203q0 -82 -23.5 -141.5t-64.5 -91.5t-88.5 -46.5t-103.5 -14.5q-54 0 -83 5l5 -213q0 -22 25 -27l77 -15q2 -20 -5 -36h-294zM323 46
q79 0 118.5 63t39.5 158q0 44 -7.5 82.5t-23 71t-43 51.5t-63.5 19q-56 0 -113 -35v-185l3 -215q44 -10 89 -10z" />
    </font>
</defs>
</svg>
